<svg width="240" height="133" viewBox="0 0 240 133" fill="none" xmlns="http://www.w3.org/2000/svg">
<g clip-path="url(#clip0_9517_205327)">
<rect x="0.250522" y="0.250522" width="239.499" height="23.5491" fill="#19274C"/>
<rect x="0.250522" y="0.250522" width="239.499" height="23.5491" stroke="#2A417E" stroke-width="0.501044"/>
<rect x="4.50928" y="4.50977" width="15.0313" height="15.0313" rx="7.51566" fill="#6581CD"/>
<g clip-path="url(#clip1_9517_205327)">
<path d="M13.027 8.51862L13.8774 10.6745L16.0333 11.5249L13.8774 12.3753L13.027 14.5311L12.1767 12.3753L10.0208 11.5249L12.1767 10.6745L13.027 8.51862ZM9.48936 13.4987L8.0166 14.0301L9.48936 14.5615L10.0208 16.0343L10.5522 14.5615L12.025 14.0301L10.5522 13.4987L10.0208 12.0259L9.48936 13.4987ZM9.12109 9.12207L8.0166 9.52071L9.12109 9.91935L9.51973 11.0238L9.91838 9.91935L11.0229 9.52071L9.91838 9.12207L9.51973 8.01758L9.12109 9.12207Z" fill="#0D1426"/>
</g>
<g clip-path="url(#clip2_9517_205327)">
<path d="M171.357 6.51394C171.357 5.40707 172.254 4.50977 173.361 4.50977H216.451V19.5411H173.361C172.254 19.5411 171.357 18.6438 171.357 17.5369V6.51394Z" fill="#2A417E"/>
<rect x="177.369" y="10.5215" width="33.0689" height="3.00626" rx="1.50313" fill="#6581CD"/>
</g>
<rect x="171.607" y="4.76029" width="44.5929" height="14.5303" rx="1.75365" stroke="#2A417E" stroke-width="0.501044"/>
<rect x="220.459" y="4.50977" width="15.0313" height="15.0313" rx="2.00418" fill="#2A417E"/>
<path d="M227.724 10.0207C228.138 10.0207 228.476 9.68251 228.476 9.26914C228.476 8.85578 228.138 8.51758 227.724 8.51758C227.311 8.51758 226.973 8.85578 226.973 9.26914C226.973 9.68251 227.311 10.0207 227.724 10.0207Z" fill="#6581CD"/>
<path d="M227.724 11.0228C227.311 11.0228 226.973 11.361 226.973 11.7744C226.973 12.1877 227.311 12.5259 227.724 12.5259C228.138 12.5259 228.476 12.1877 228.476 11.7744C228.476 11.361 228.138 11.0228 227.724 11.0228Z" fill="#6581CD"/>
<path d="M227.724 13.528C227.311 13.528 226.973 13.8662 226.973 14.2796C226.973 14.6929 227.311 15.0311 227.724 15.0311C228.138 15.0311 228.476 14.6929 228.476 14.2796C228.476 13.8662 228.138 13.528 227.724 13.528Z" fill="#6581CD"/>
<g clip-path="url(#clip3_9517_205327)">
<mask id="path-12-inside-1_9517_205327" fill="white">
<path d="M0 24.0508H240V42.0884H0V24.0508Z"/>
</mask>
<rect width="60" height="18.0376" transform="translate(0 24.0508)" fill="#19274C"/>
<rect x="6.01245" y="31.5664" width="33.4029" height="3.00626" rx="1.50313" fill="#3958AC"/>
<mask id="path-15-inside-2_9517_205327" fill="white">
<path d="M60 24.0508H120V42.0884H60V24.0508Z"/>
</mask>
<path d="M60 24.0508H120V42.0884H60V24.0508Z" fill="#19274C"/>
<path d="M60 42.0884H60.501V24.0508H60H59.499V42.0884H60Z" fill="#2A417E" mask="url(#path-15-inside-2_9517_205327)"/>
<rect x="66.0125" y="31.5664" width="33.4029" height="3.00626" rx="1.50313" fill="#3958AC"/>
<mask id="path-18-inside-3_9517_205327" fill="white">
<path d="M120 24.0508H180V42.0884H120V24.0508Z"/>
</mask>
<path d="M120 24.0508H180V42.0884H120V24.0508Z" fill="#19274C"/>
<path d="M120 42.0884H120.501V24.0508H120H119.499V42.0884H120Z" fill="#2A417E" mask="url(#path-18-inside-3_9517_205327)"/>
<rect x="126.012" y="31.5664" width="33.4029" height="3.00626" rx="1.50313" fill="#3958AC"/>
<mask id="path-21-inside-4_9517_205327" fill="white">
<path d="M180 24.0508H240V42.0884H180V24.0508Z"/>
</mask>
<path d="M180 24.0508H240V42.0884H180V24.0508Z" fill="#19274C"/>
<path d="M180 42.0884H180.501V24.0508H180H179.499V42.0884H180Z" fill="#2A417E" mask="url(#path-21-inside-4_9517_205327)"/>
<rect x="186.012" y="31.5664" width="33.4029" height="3.00626" rx="1.50313" fill="#3958AC"/>
</g>
<path d="M240 42.0884V41.5873H0V42.0884V42.5894H240V42.0884Z" fill="#2A417E" mask="url(#path-12-inside-1_9517_205327)"/>
<g clip-path="url(#clip4_9517_205327)">
<mask id="path-24-inside-5_9517_205327" fill="white">
<path d="M0 42.0879H240V60.1255H0V42.0879Z"/>
</mask>
<rect width="60" height="18.0376" transform="translate(0 42.0879)" fill="#0D1426"/>
<rect x="6.01245" y="49.6035" width="30.0626" height="3.00626" rx="1.50313" fill="#2A417E"/>
<mask id="path-27-inside-6_9517_205327" fill="white">
<path d="M60 42.0879H120V60.1255H60V42.0879Z"/>
</mask>
<path d="M60 42.0879H120V60.1255H60V42.0879Z" fill="#0D1426"/>
<path d="M60 60.1255H60.501V42.0879H60H59.499V60.1255H60Z" fill="#2A417E" mask="url(#path-27-inside-6_9517_205327)"/>
<rect x="66.0125" y="49.6035" width="30.0626" height="3.00626" rx="1.50313" fill="#2A417E"/>
<mask id="path-30-inside-7_9517_205327" fill="white">
<path d="M120 42.0879H180V60.1255H120V42.0879Z"/>
</mask>
<path d="M120 42.0879H180V60.1255H120V42.0879Z" fill="#0D1426"/>
<path d="M120 60.1255H120.501V42.0879H120H119.499V60.1255H120Z" fill="#2A417E" mask="url(#path-30-inside-7_9517_205327)"/>
<rect x="126.012" y="49.6035" width="30.0626" height="3.00626" rx="1.50313" fill="#2A417E"/>
<mask id="path-33-inside-8_9517_205327" fill="white">
<path d="M180 42.0879H240V60.1255H180V42.0879Z"/>
</mask>
<path d="M180 42.0879H240V60.1255H180V42.0879Z" fill="#0D1426"/>
<path d="M180 60.1255H180.501V42.0879H180H179.499V60.1255H180Z" fill="#2A417E" mask="url(#path-33-inside-8_9517_205327)"/>
<rect x="186.012" y="49.6035" width="30.0626" height="3.00626" rx="1.50313" fill="#2A417E"/>
</g>
<path d="M240 60.1255V59.6244H0V60.1255V60.6265H240V60.1255Z" fill="#2A417E" mask="url(#path-24-inside-5_9517_205327)"/>
<g clip-path="url(#clip5_9517_205327)">
<mask id="path-36-inside-9_9517_205327" fill="white">
<path d="M0 60.125H240V78.1626H0V60.125Z"/>
</mask>
<rect width="60" height="18.0376" transform="translate(0 60.125)" fill="#121D39"/>
<rect x="6.01245" y="67.6406" width="30.0626" height="3.00626" rx="1.50313" fill="#2A417E"/>
<mask id="path-39-inside-10_9517_205327" fill="white">
<path d="M60 60.125H120V78.1626H60V60.125Z"/>
</mask>
<path d="M60 60.125H120V78.1626H60V60.125Z" fill="#121D39"/>
<path d="M60 78.1626H60.501V60.125H60H59.499V78.1626H60Z" fill="#2A417E" mask="url(#path-39-inside-10_9517_205327)"/>
<rect x="66.0125" y="67.6406" width="30.0626" height="3.00626" rx="1.50313" fill="#2A417E"/>
<mask id="path-42-inside-11_9517_205327" fill="white">
<path d="M120 60.125H180V78.1626H120V60.125Z"/>
</mask>
<path d="M120 60.125H180V78.1626H120V60.125Z" fill="#121D39"/>
<path d="M120 78.1626H120.501V60.125H120H119.499V78.1626H120Z" fill="#2A417E" mask="url(#path-42-inside-11_9517_205327)"/>
<rect x="126.012" y="67.6406" width="30.0626" height="3.00626" rx="1.50313" fill="#2A417E"/>
<mask id="path-45-inside-12_9517_205327" fill="white">
<path d="M180 60.125H240V78.1626H180V60.125Z"/>
</mask>
<path d="M180 60.125H240V78.1626H180V60.125Z" fill="#121D39"/>
<path d="M180 78.1626H180.501V60.125H180H179.499V78.1626H180Z" fill="#2A417E" mask="url(#path-45-inside-12_9517_205327)"/>
<rect x="186.012" y="67.6406" width="30.0626" height="3.00626" rx="1.50313" fill="#2A417E"/>
</g>
<path d="M240 78.1626V77.6615H0V78.1626V78.6636H240V78.1626Z" fill="#2A417E" mask="url(#path-36-inside-9_9517_205327)"/>
<g clip-path="url(#clip6_9517_205327)">
<mask id="path-48-inside-13_9517_205327" fill="white">
<path d="M0 78.1621H240V96.1997H0V78.1621Z"/>
</mask>
<rect width="60" height="18.0376" transform="translate(0 78.1621)" fill="#0D1426"/>
<rect x="6.01245" y="85.6777" width="30.0626" height="3.00626" rx="1.50313" fill="#2A417E"/>
<mask id="path-51-inside-14_9517_205327" fill="white">
<path d="M60 78.1621H120V96.1997H60V78.1621Z"/>
</mask>
<path d="M60 78.1621H120V96.1997H60V78.1621Z" fill="#0D1426"/>
<path d="M60 96.1997H60.501V78.1621H60H59.499V96.1997H60Z" fill="#2A417E" mask="url(#path-51-inside-14_9517_205327)"/>
<rect x="66.0125" y="85.6777" width="30.0626" height="3.00626" rx="1.50313" fill="#2A417E"/>
<mask id="path-54-inside-15_9517_205327" fill="white">
<path d="M120 78.1621H180V96.1997H120V78.1621Z"/>
</mask>
<path d="M120 78.1621H180V96.1997H120V78.1621Z" fill="#0D1426"/>
<path d="M120 96.1997H120.501V78.1621H120H119.499V96.1997H120Z" fill="#2A417E" mask="url(#path-54-inside-15_9517_205327)"/>
<rect x="126.012" y="85.6777" width="30.0626" height="3.00626" rx="1.50313" fill="#2A417E"/>
<mask id="path-57-inside-16_9517_205327" fill="white">
<path d="M180 78.1621H240V96.1997H180V78.1621Z"/>
</mask>
<path d="M180 78.1621H240V96.1997H180V78.1621Z" fill="#0D1426"/>
<path d="M180 96.1997H180.501V78.1621H180H179.499V96.1997H180Z" fill="#2A417E" mask="url(#path-57-inside-16_9517_205327)"/>
<rect x="186.012" y="85.6777" width="30.0626" height="3.00626" rx="1.50313" fill="#2A417E"/>
</g>
<path d="M240 96.1997V95.6986H0V96.1997V96.7007H240V96.1997Z" fill="#2A417E" mask="url(#path-48-inside-13_9517_205327)"/>
<g clip-path="url(#clip7_9517_205327)">
<mask id="path-60-inside-17_9517_205327" fill="white">
<path d="M0 96.2012H240V114.239H0V96.2012Z"/>
</mask>
<rect width="60" height="18.0376" transform="translate(0 96.2012)" fill="#121D39"/>
<rect x="6.01245" y="103.717" width="30.0626" height="3.00626" rx="1.50313" fill="#2A417E"/>
<mask id="path-63-inside-18_9517_205327" fill="white">
<path d="M60 96.2012H120V114.239H60V96.2012Z"/>
</mask>
<path d="M60 96.2012H120V114.239H60V96.2012Z" fill="#121D39"/>
<path d="M60 114.239H60.501V96.2012H60H59.499V114.239H60Z" fill="#2A417E" mask="url(#path-63-inside-18_9517_205327)"/>
<rect x="66.0125" y="103.717" width="30.0626" height="3.00626" rx="1.50313" fill="#2A417E"/>
<mask id="path-66-inside-19_9517_205327" fill="white">
<path d="M120 96.2012H180V114.239H120V96.2012Z"/>
</mask>
<path d="M120 96.2012H180V114.239H120V96.2012Z" fill="#121D39"/>
<path d="M120 114.239H120.501V96.2012H120H119.499V114.239H120Z" fill="#2A417E" mask="url(#path-66-inside-19_9517_205327)"/>
<rect x="126.012" y="103.717" width="30.0626" height="3.00626" rx="1.50313" fill="#2A417E"/>
<mask id="path-69-inside-20_9517_205327" fill="white">
<path d="M180 96.2012H240V114.239H180V96.2012Z"/>
</mask>
<path d="M180 96.2012H240V114.239H180V96.2012Z" fill="#121D39"/>
<path d="M180 114.239H180.501V96.2012H180H179.499V114.239H180Z" fill="#2A417E" mask="url(#path-69-inside-20_9517_205327)"/>
<rect x="186.012" y="103.717" width="30.0626" height="3.00626" rx="1.50313" fill="#2A417E"/>
</g>
<path d="M240 114.239V113.738H0V114.239V114.74H240V114.239Z" fill="#2A417E" mask="url(#path-60-inside-17_9517_205327)"/>
<g clip-path="url(#clip8_9517_205327)">
<mask id="path-72-inside-21_9517_205327" fill="white">
<path d="M0 114.238H240V132.276H0V114.238Z"/>
</mask>
<rect width="60" height="18.0376" transform="translate(0 114.238)" fill="#0D1426"/>
<rect x="6.01245" y="121.754" width="30.0626" height="3.00626" rx="1.50313" fill="#2A417E"/>
<mask id="path-75-inside-22_9517_205327" fill="white">
<path d="M60 114.238H120V132.276H60V114.238Z"/>
</mask>
<path d="M60 114.238H120V132.276H60V114.238Z" fill="#0D1426"/>
<path d="M60 132.276H60.501V114.238H60H59.499V132.276H60Z" fill="#2A417E" mask="url(#path-75-inside-22_9517_205327)"/>
<rect x="66.0125" y="121.754" width="30.0626" height="3.00626" rx="1.50313" fill="#2A417E"/>
<mask id="path-78-inside-23_9517_205327" fill="white">
<path d="M120 114.238H180V132.276H120V114.238Z"/>
</mask>
<path d="M120 114.238H180V132.276H120V114.238Z" fill="#0D1426"/>
<path d="M120 132.276H120.501V114.238H120H119.499V132.276H120Z" fill="#2A417E" mask="url(#path-78-inside-23_9517_205327)"/>
<rect x="126.012" y="121.754" width="30.0626" height="3.00626" rx="1.50313" fill="#2A417E"/>
<mask id="path-81-inside-24_9517_205327" fill="white">
<path d="M180 114.238H240V132.276H180V114.238Z"/>
</mask>
<path d="M180 114.238H240V132.276H180V114.238Z" fill="#0D1426"/>
<path d="M180 132.276H180.501V114.238H180H179.499V132.276H180Z" fill="#2A417E" mask="url(#path-81-inside-24_9517_205327)"/>
<rect x="186.012" y="121.754" width="30.0626" height="3.00626" rx="1.50313" fill="#2A417E"/>
</g>
<path d="M240 132.276V131.775H0V132.276V132.777H240V132.276Z" fill="#2A417E" mask="url(#path-72-inside-21_9517_205327)"/>
<rect y="60.125" width="240" height="54.1127" fill="#5473C8" fill-opacity="0.1"/>
<g filter="url(#filter0_d_9517_205327)">
<g clip-path="url(#clip9_9517_205327)">
<rect x="11.5239" y="20.041" width="88.6848" height="95.6994" fill="#0D1426"/>
<mask id="path-87-inside-25_9517_205327" fill="white">
<path d="M11.5239 20.041H100.209V44.0911H11.5239V20.041Z"/>
</mask>
<path d="M11.5239 20.041H100.209V44.0911H11.5239V20.041Z" fill="#121D39"/>
<path d="M100.209 44.0911V43.5901H11.5239V44.0911V44.5922H100.209V44.0911Z" fill="#2A417E" mask="url(#path-87-inside-25_9517_205327)"/>
<rect x="16.8684" y="24.5508" width="34.071" height="15.0313" rx="7.51566" fill="#2A417E"/>
<rect x="22.2129" y="30.7305" width="23.3821" height="2.67224" rx="1.33612" fill="#6581CD"/>
<path d="M60.4591 27.9746H67.4737C67.7952 27.9746 68.0582 28.2377 68.0582 28.5592V33.8201C68.0582 34.1416 67.7952 34.4047 67.4737 34.4047H61.6282L59.8745 36.1583V28.5592C59.8745 28.2377 60.1376 27.9746 60.4591 27.9746ZM67.4726 33.8201L67.4737 33.8191V28.5602L67.4726 28.5592H60.4601L60.4591 28.5602V34.7471L61.386 33.8201H67.4726Z" fill="#6581CD"/>
<rect x="71.3152" y="30.7305" width="23.3821" height="2.67224" rx="1.33612" fill="#6581CD"/>
<rect width="88.6848" height="47.5992" transform="translate(11.5239 44.0918)" fill="#121D39"/>
<rect x="21.866" y="49.3814" width="68.0009" height="36.1025" rx="1.0263" fill="#0D1426"/>
<rect x="21.866" y="49.3814" width="68.0009" height="36.1025" rx="1.0263" stroke="#2A417E" stroke-width="0.473676"/>
<path d="M87.337 85.2739L86.891 84.8279L88.7857 82.9332L89.2317 83.3792L87.337 85.2739ZM88.91 81.1648L88.464 80.7188L84.6765 84.5062L85.1226 84.9522L88.91 81.1648Z" fill="#3958AC"/>
<g clip-path="url(#clip10_9517_205327)">
<path d="M32.8437 59.6192C32.8623 59.6106 32.8808 59.5977 32.8995 59.5796C32.8817 59.5944 32.8631 59.6076 32.8437 59.6192ZM36.5135 61.0018V61.5655H28.6221V61.0018H36.5135ZM35.9247 55.2192L34.5425 53.8398C34.3312 53.6289 33.9925 53.6176 33.7676 53.8137L33.7392 53.8385L30.5624 56.5119L30.2376 56.7851C30.2009 56.816 30.1699 56.8505 30.1447 56.8875C30.1435 56.8891 30.1424 56.8907 30.1416 56.8922C30.0193 57.0834 30.0369 57.3383 30.2081 57.5093L30.2455 57.5466L30.2446 57.5487L29.998 58.1466L29.5479 59.2377L28.6883 60.0955C28.6115 60.1721 28.6048 60.2549 28.651 60.3319C28.6883 60.3939 28.7914 60.4383 28.8523 60.4383C29.2173 60.4378 30.1505 60.4309 30.3452 60.4312L30.5444 60.2324L31.4162 59.9067L32.2245 59.5426C32.3235 59.6409 32.4526 59.6897 32.5812 59.6897C32.6733 59.6897 32.7653 59.6646 32.846 59.615C32.8653 59.6033 32.884 59.5901 32.9018 59.5753L32.9022 59.575C32.9254 59.5561 32.9473 59.5346 32.9673 59.511L35.9254 56.0208L35.9508 55.992C36.1468 55.7674 36.1354 55.4299 35.9245 55.2192H35.9247ZM29.5479 60.0333L29.9466 59.6354L30.146 59.8343C29.8345 59.9463 29.7348 59.9711 29.5478 60.0333H29.5479ZM31.1794 59.4843L30.7732 59.6939L30.1565 59.0258L30.6321 57.9005L31.8301 59.1489L31.1793 59.4844L31.1794 59.4843ZM32.5322 59.0405L30.7088 57.2289L34.1419 54.2402L35.5238 55.6194L32.5326 59.0405H32.5322Z" fill="#6581CD"/>
</g>
<path d="M29.8121 59.1237L30.5636 57.1195L34.071 54.1133L35.5741 55.6164L32.5678 59.1237L30.0626 60.1258H29.311L29.8121 59.1237Z" fill="#6581CD"/>
<path d="M29.5615 57.1191L32.5678 60.1254" stroke="#0D1426" stroke-width="0.400835"/>
<path d="M28.0583 58.1211L30.5636 60.6263" stroke="#0D1426" stroke-width="0.400835"/>
<rect x="40.0835" y="56.1172" width="21.0438" height="3.50731" rx="1.75365" fill="#3958AC"/>
<rect width="88.6848" height="24.0501" transform="translate(11.5239 91.6895)" fill="#121D39"/>
<rect x="16.5764" y="96.1992" width="46.5971" height="15.0313" rx="7.51566" fill="#6581CD"/>
<path d="M26.3657 100.399L27.1696 102.438L29.2077 103.242L27.1696 104.045L26.3657 106.084L25.5617 104.045L23.5236 103.242L25.5617 102.438L26.3657 100.399ZM23.0212 105.107L21.6289 105.61L23.0212 106.112L23.5236 107.505L24.026 106.112L25.4183 105.61L24.026 105.107L23.5236 103.715L23.0212 105.107ZM22.6731 100.97L21.6289 101.347L22.6731 101.724L23.0499 102.768L23.4268 101.724L24.471 101.347L23.4268 100.97L23.0499 99.9258L22.6731 100.97Z" fill="#0D1426"/>
<rect x="31.7341" y="102.451" width="22.1049" height="2.52627" rx="1.26314" fill="#0D1426"/>
</g>
<rect x="11.7608" y="20.2779" width="88.2111" height="95.2257" stroke="#2A417E" stroke-width="0.473676"/>
</g>
<g clip-path="url(#clip11_9517_205327)">
<path d="M230.255 71.1446C230.273 71.136 230.292 71.1231 230.311 71.105C230.293 71.1198 230.274 71.133 230.255 71.1446ZM233.925 72.5272V73.0908H226.033V72.5272H233.925ZM233.336 66.7446L231.954 65.3652C231.742 65.1543 231.404 65.143 231.179 65.3391L231.15 65.3639L227.974 68.0373L227.649 68.3105C227.612 68.3414 227.581 68.3759 227.556 68.4129C227.555 68.4145 227.554 68.4161 227.553 68.4176C227.43 68.6088 227.448 68.8636 227.619 69.0347L227.657 69.072L227.656 69.0741L227.409 69.672L226.959 70.763L226.099 71.6209C226.023 71.6975 226.016 71.7803 226.062 71.8573C226.099 71.9193 226.203 71.9637 226.263 71.9637C226.628 71.9631 227.562 71.9563 227.756 71.9566L227.956 71.7578L228.827 71.4321L229.636 71.068C229.735 71.1663 229.864 71.215 229.992 71.215C230.084 71.215 230.176 71.19 230.257 71.1404C230.276 71.1287 230.295 71.1155 230.313 71.1007L230.313 71.1004C230.337 71.0815 230.358 71.06 230.378 71.0364L233.337 67.5462L233.362 67.5173C233.558 67.2928 233.546 66.9553 233.336 66.7446H233.336ZM226.959 71.5587L227.358 71.1608L227.557 71.3597C227.246 71.4717 227.146 71.4965 226.959 71.5587H226.959ZM228.591 71.0097L228.184 71.2193L227.568 70.5511L228.043 69.4259L229.241 70.6743L228.59 71.0098L228.591 71.0097ZM229.943 70.5659L228.12 68.7543L231.553 65.7655L232.935 67.1448L229.944 70.5659H229.943Z" fill="#6581CD"/>
</g>
<path d="M227.223 70.6472L227.975 68.643L231.482 65.6367L232.985 67.1399L229.979 70.6472L227.474 71.6492H226.722L227.223 70.6472Z" fill="#6581CD"/>
<path d="M226.973 68.6426L229.979 71.6488" stroke="#19274C" stroke-width="0.400835"/>
<path d="M225.47 69.6445L227.975 72.1498" stroke="#19274C" stroke-width="0.400835"/>
</g>
<rect x="0.250522" y="0.250522" width="239.499" height="131.775" stroke="#2A417E" stroke-width="0.501044"/>
<defs>
<filter id="filter0_d_9517_205327" x="10.0208" y="20.041" width="91.6911" height="98.7055" filterUnits="userSpaceOnUse" color-interpolation-filters="sRGB">
<feFlood flood-opacity="0" result="BackgroundImageFix"/>
<feColorMatrix in="SourceAlpha" type="matrix" values="0 0 0 0 0 0 0 0 0 0 0 0 0 0 0 0 0 0 127 0" result="hardAlpha"/>
<feOffset dy="1.50313"/>
<feGaussianBlur stdDeviation="0.751566"/>
<feColorMatrix type="matrix" values="0 0 0 0 0 0 0 0 0 0 0 0 0 0 0 0 0 0 0.06 0"/>
<feBlend mode="normal" in2="BackgroundImageFix" result="effect1_dropShadow_9517_205327"/>
<feBlend mode="normal" in="SourceGraphic" in2="effect1_dropShadow_9517_205327" result="shape"/>
</filter>
<clipPath id="clip0_9517_205327">
<rect width="240" height="132.276" fill="white"/>
</clipPath>
<clipPath id="clip1_9517_205327">
<rect width="8.0167" height="8.0167" fill="white" transform="translate(8.0166 8.01758)"/>
</clipPath>
<clipPath id="clip2_9517_205327">
<rect x="171.357" y="4.50977" width="45.0939" height="15.0313" rx="2.00418" fill="white"/>
</clipPath>
<clipPath id="clip3_9517_205327">
<path d="M0 24.0508H240V42.0884H0V24.0508Z" fill="white"/>
</clipPath>
<clipPath id="clip4_9517_205327">
<path d="M0 42.0879H240V60.1255H0V42.0879Z" fill="white"/>
</clipPath>
<clipPath id="clip5_9517_205327">
<path d="M0 60.125H240V78.1626H0V60.125Z" fill="white"/>
</clipPath>
<clipPath id="clip6_9517_205327">
<path d="M0 78.1621H240V96.1997H0V78.1621Z" fill="white"/>
</clipPath>
<clipPath id="clip7_9517_205327">
<path d="M0 96.2012H240V114.239H0V96.2012Z" fill="white"/>
</clipPath>
<clipPath id="clip8_9517_205327">
<path d="M0 114.238H240V132.276H0V114.238Z" fill="white"/>
</clipPath>
<clipPath id="clip9_9517_205327">
<rect x="11.5239" y="20.041" width="88.6848" height="95.6994" fill="white"/>
</clipPath>
<clipPath id="clip10_9517_205327">
<rect width="9.01879" height="9.01879" fill="white" transform="translate(28.0583 53.1113)"/>
</clipPath>
<clipPath id="clip11_9517_205327">
<rect width="9.01879" height="9.01879" fill="white" transform="translate(225.47 64.6348)"/>
</clipPath>
</defs>
</svg>
