<svg width="240" height="133" viewBox="0 0 240 133" fill="none" xmlns="http://www.w3.org/2000/svg">
<g clip-path="url(#clip0_10949_56564)">
<rect x="0.250522" y="0.250522" width="239.499" height="23.5491" fill="#E4ECF6"/>
<rect x="0.250522" y="0.250522" width="239.499" height="23.5491" stroke="#C2D1EB" stroke-width="0.501044"/>
<g filter="url(#filter0_d_10949_56564)">
<g clip-path="url(#clip1_10949_56564)">
<path d="M64.8852 12.0254C64.8852 7.87464 68.2501 4.50977 72.4008 4.50977H167.599C171.75 4.50977 175.115 7.87464 175.115 12.0254V12.0254C175.115 16.1762 171.75 19.5411 167.599 19.5411H72.4008C68.2501 19.5411 64.8852 16.1762 64.8852 12.0254V12.0254Z" fill="white"/>
<g clip-path="url(#clip2_10949_56564)">
<path d="M74.405 8.51862L75.2552 10.6747L77.4113 11.5249L75.2552 12.3751L74.405 14.5311L73.5548 12.3751L71.3988 11.5249L73.5548 10.6747L74.405 8.51862ZM70.8664 13.4977L69.3946 14.0301L70.8664 14.5625L71.3988 16.0343L71.9311 14.5625L73.4029 14.0301L71.9311 13.4977L71.3988 12.0259L70.8664 13.4977ZM70.5 9.12301L69.3946 9.52071L70.4985 9.91998L70.8977 11.0238L71.297 9.91998L72.4009 9.52071L71.297 9.12144L70.8977 8.01758L70.4985 9.12144L70.5 9.12301Z" fill="#5473C8"/>
</g>
<rect x="81.4196" y="10.5215" width="37.5783" height="3.00626" rx="1.50313" fill="#C2D1EB"/>
<g clip-path="url(#clip3_10949_56564)">
<path d="M161.587 12.0282C161.587 8.70752 164.279 6.01562 167.599 6.01562V6.01562C170.92 6.01562 173.612 8.70752 173.612 12.0282V12.0282C173.612 15.3488 170.92 18.0407 167.599 18.0407V18.0407C164.279 18.0407 161.587 15.3488 161.587 12.0282V12.0282Z" fill="#E4ECF6"/>
<path d="M167.283 9.32682C167.283 9.15387 167.423 9.01367 167.596 9.01367C167.769 9.01367 167.909 9.15387 167.909 9.32682V14.713C167.909 14.886 167.769 15.0262 167.596 15.0262C167.423 15.0262 167.283 14.886 167.283 14.713V9.32682Z" fill="#5473C8"/>
<path d="M167.392 9.55266C167.269 9.43037 167.269 9.23209 167.392 9.1098C167.514 8.9875 167.712 8.9875 167.835 9.1098L169.872 11.147C169.994 11.2693 169.994 11.4675 169.872 11.5898C169.75 11.7121 169.551 11.7121 169.429 11.5898L167.392 9.55266Z" fill="#5473C8"/>
<path d="M167.793 9.55271C167.915 9.43041 167.915 9.23214 167.793 9.10984C167.67 8.98755 167.472 8.98755 167.35 9.10984L165.313 11.147C165.19 11.2693 165.19 11.4676 165.313 11.5899C165.435 11.7122 165.633 11.7122 165.755 11.5899L167.793 9.55271Z" fill="#5473C8"/>
</g>
</g>
<path d="M72.4008 4.76074H167.599C171.611 4.76074 174.865 8.01298 174.865 12.0254C174.865 16.0378 171.611 19.291 167.599 19.291H72.4008C68.3884 19.291 65.1362 16.0378 65.1362 12.0254C65.1362 8.01299 68.3884 4.76076 72.4008 4.76074Z" stroke="#C2D1EB" stroke-width="0.501044"/>
</g>
<g clip-path="url(#clip4_10949_56564)">
<mask id="path-13-inside-1_10949_56564" fill="white">
<path d="M0 24.0508H240V42.0884H0V24.0508Z"/>
</mask>
<rect width="60" height="18.0376" transform="translate(0 24.0508)" fill="#E4ECF6"/>
<rect x="6.01251" y="31.5664" width="33.4029" height="3.00626" rx="1.50313" fill="#90ABDA"/>
<mask id="path-16-inside-2_10949_56564" fill="white">
<path d="M60 24.0508H120V42.0884H60V24.0508Z"/>
</mask>
<path d="M60 24.0508H120V42.0884H60V24.0508Z" fill="#E4ECF6"/>
<path d="M60 42.0884H60.501V24.0508H60H59.499V42.0884H60Z" fill="#C2D1EB" mask="url(#path-16-inside-2_10949_56564)"/>
<rect x="66.0125" y="31.5664" width="33.4029" height="3.00626" rx="1.50313" fill="#90ABDA"/>
<mask id="path-19-inside-3_10949_56564" fill="white">
<path d="M120 24.0508H180V42.0884H120V24.0508Z"/>
</mask>
<path d="M120 24.0508H180V42.0884H120V24.0508Z" fill="#E4ECF6"/>
<path d="M120 42.0884H120.501V24.0508H120H119.499V42.0884H120Z" fill="#C2D1EB" mask="url(#path-19-inside-3_10949_56564)"/>
<rect x="126.013" y="31.5664" width="33.4029" height="3.00626" rx="1.50313" fill="#90ABDA"/>
<mask id="path-22-inside-4_10949_56564" fill="white">
<path d="M180 24.0508H240V42.0884H180V24.0508Z"/>
</mask>
<path d="M180 24.0508H240V42.0884H180V24.0508Z" fill="#E4ECF6"/>
<path d="M180 42.0884H180.501V24.0508H180H179.499V42.0884H180Z" fill="#C2D1EB" mask="url(#path-22-inside-4_10949_56564)"/>
<rect x="186.013" y="31.5664" width="33.4029" height="3.00626" rx="1.50313" fill="#90ABDA"/>
<path d="M234.363 29.8125V30.6267L231.921 33.0693V34.6977L231.106 36.3261V33.0693L228.664 30.6267V29.8125H234.363Z" fill="#5473C8"/>
<path d="M224.593 32.2551H226.221V36.3261H227.035V32.2551H228.664L226.628 29.8125L224.593 32.2551Z" fill="#5473C8"/>
</g>
<path d="M240 42.0884V41.5873H0V42.0884V42.5894H240V42.0884Z" fill="#C2D1EB" mask="url(#path-13-inside-1_10949_56564)"/>
<g clip-path="url(#clip5_10949_56564)">
<mask id="path-26-inside-5_10949_56564" fill="white">
<path d="M0 42.0879H240V60.1255H0V42.0879Z"/>
</mask>
<rect width="60" height="18.0376" transform="translate(0 42.0879)" fill="white"/>
<rect x="6.01251" y="49.6035" width="30.0626" height="3.00626" rx="1.50313" fill="#C2D1EB"/>
<mask id="path-29-inside-6_10949_56564" fill="white">
<path d="M60 42.0879H120V60.1255H60V42.0879Z"/>
</mask>
<path d="M60 42.0879H120V60.1255H60V42.0879Z" fill="white"/>
<path d="M60 60.1255H60.501V42.0879H60H59.499V60.1255H60Z" fill="#C2D1EB" mask="url(#path-29-inside-6_10949_56564)"/>
<rect x="66.0125" y="49.6035" width="30.0626" height="3.00626" rx="1.50313" fill="#C2D1EB"/>
<mask id="path-32-inside-7_10949_56564" fill="white">
<path d="M120 42.0879H180V60.1255H120V42.0879Z"/>
</mask>
<path d="M120 42.0879H180V60.1255H120V42.0879Z" fill="white"/>
<path d="M120 60.1255H120.501V42.0879H120H119.499V60.1255H120Z" fill="#C2D1EB" mask="url(#path-32-inside-7_10949_56564)"/>
<rect x="126.013" y="49.6035" width="30.0626" height="3.00626" rx="1.50313" fill="#C2D1EB"/>
<mask id="path-35-inside-8_10949_56564" fill="white">
<path d="M180 42.0879H240V60.1255H180V42.0879Z"/>
</mask>
<path d="M180 42.0879H240V60.1255H180V42.0879Z" fill="white"/>
<path d="M180 60.1255H180.501V42.0879H180H179.499V60.1255H180Z" fill="#C2D1EB" mask="url(#path-35-inside-8_10949_56564)"/>
<rect x="186.013" y="49.6035" width="30.0626" height="3.00626" rx="1.50313" fill="#C2D1EB"/>
</g>
<path d="M240 60.1255V59.6244H0V60.1255V60.6265H240V60.1255Z" fill="#C2D1EB" mask="url(#path-26-inside-5_10949_56564)"/>
<g clip-path="url(#clip6_10949_56564)">
<mask id="path-38-inside-9_10949_56564" fill="white">
<path d="M0 60.125H240V78.1626H0V60.125Z"/>
</mask>
<rect width="60" height="18.0376" transform="translate(0 60.125)" fill="#F2F6FB"/>
<rect x="6.01251" y="67.6406" width="30.0626" height="3.00626" rx="1.50313" fill="#C2D1EB"/>
<mask id="path-41-inside-10_10949_56564" fill="white">
<path d="M60 60.125H120V78.1626H60V60.125Z"/>
</mask>
<path d="M60 60.125H120V78.1626H60V60.125Z" fill="#F2F6FB"/>
<path d="M60 78.1626H60.501V60.125H60H59.499V78.1626H60Z" fill="#C2D1EB" mask="url(#path-41-inside-10_10949_56564)"/>
<rect x="66.0125" y="67.6406" width="30.0626" height="3.00626" rx="1.50313" fill="#C2D1EB"/>
<mask id="path-44-inside-11_10949_56564" fill="white">
<path d="M120 60.125H180V78.1626H120V60.125Z"/>
</mask>
<path d="M120 60.125H180V78.1626H120V60.125Z" fill="#F2F6FB"/>
<path d="M120 78.1626H120.501V60.125H120H119.499V78.1626H120Z" fill="#C2D1EB" mask="url(#path-44-inside-11_10949_56564)"/>
<rect x="126.013" y="67.6406" width="30.0626" height="3.00626" rx="1.50313" fill="#C2D1EB"/>
<mask id="path-47-inside-12_10949_56564" fill="white">
<path d="M180 60.125H240V78.1626H180V60.125Z"/>
</mask>
<path d="M180 60.125H240V78.1626H180V60.125Z" fill="#F2F6FB"/>
<path d="M180 78.1626H180.501V60.125H180H179.499V78.1626H180Z" fill="#C2D1EB" mask="url(#path-47-inside-12_10949_56564)"/>
<rect x="186.013" y="67.6406" width="30.0626" height="3.00626" rx="1.50313" fill="#C2D1EB"/>
</g>
<path d="M240 78.1626V77.6615H0V78.1626V78.6636H240V78.1626Z" fill="#C2D1EB" mask="url(#path-38-inside-9_10949_56564)"/>
<g clip-path="url(#clip7_10949_56564)">
<mask id="path-50-inside-13_10949_56564" fill="white">
<path d="M0 78.1621H240V96.1997H0V78.1621Z"/>
</mask>
<rect width="60" height="18.0376" transform="translate(0 78.1621)" fill="white"/>
<rect x="6.01251" y="85.6777" width="30.0626" height="3.00626" rx="1.50313" fill="#C2D1EB"/>
<mask id="path-53-inside-14_10949_56564" fill="white">
<path d="M60 78.1621H120V96.1997H60V78.1621Z"/>
</mask>
<path d="M60 78.1621H120V96.1997H60V78.1621Z" fill="white"/>
<path d="M60 96.1997H60.501V78.1621H60H59.499V96.1997H60Z" fill="#C2D1EB" mask="url(#path-53-inside-14_10949_56564)"/>
<rect x="66.0125" y="85.6777" width="30.0626" height="3.00626" rx="1.50313" fill="#C2D1EB"/>
<mask id="path-56-inside-15_10949_56564" fill="white">
<path d="M120 78.1621H180V96.1997H120V78.1621Z"/>
</mask>
<path d="M120 78.1621H180V96.1997H120V78.1621Z" fill="white"/>
<path d="M120 96.1997H120.501V78.1621H120H119.499V96.1997H120Z" fill="#C2D1EB" mask="url(#path-56-inside-15_10949_56564)"/>
<rect x="126.013" y="85.6777" width="30.0626" height="3.00626" rx="1.50313" fill="#C2D1EB"/>
<mask id="path-59-inside-16_10949_56564" fill="white">
<path d="M180 78.1621H240V96.1997H180V78.1621Z"/>
</mask>
<path d="M180 78.1621H240V96.1997H180V78.1621Z" fill="white"/>
<path d="M180 96.1997H180.501V78.1621H180H179.499V96.1997H180Z" fill="#C2D1EB" mask="url(#path-59-inside-16_10949_56564)"/>
<rect x="186.013" y="85.6777" width="30.0626" height="3.00626" rx="1.50313" fill="#C2D1EB"/>
</g>
<path d="M240 96.1997V95.6986H0V96.1997V96.7007H240V96.1997Z" fill="#C2D1EB" mask="url(#path-50-inside-13_10949_56564)"/>
<g clip-path="url(#clip8_10949_56564)">
<mask id="path-62-inside-17_10949_56564" fill="white">
<path d="M0 96.2012H240V114.239H0V96.2012Z"/>
</mask>
<rect width="60" height="18.0376" transform="translate(0 96.2012)" fill="#F2F6FB"/>
<rect x="6.01251" y="103.717" width="30.0626" height="3.00626" rx="1.50313" fill="#C2D1EB"/>
<mask id="path-65-inside-18_10949_56564" fill="white">
<path d="M60 96.2012H120V114.239H60V96.2012Z"/>
</mask>
<path d="M60 96.2012H120V114.239H60V96.2012Z" fill="#F2F6FB"/>
<path d="M60 114.239H60.501V96.2012H60H59.499V114.239H60Z" fill="#C2D1EB" mask="url(#path-65-inside-18_10949_56564)"/>
<rect x="66.0125" y="103.717" width="30.0626" height="3.00626" rx="1.50313" fill="#C2D1EB"/>
<mask id="path-68-inside-19_10949_56564" fill="white">
<path d="M120 96.2012H180V114.239H120V96.2012Z"/>
</mask>
<path d="M120 96.2012H180V114.239H120V96.2012Z" fill="#F2F6FB"/>
<path d="M120 114.239H120.501V96.2012H120H119.499V114.239H120Z" fill="#C2D1EB" mask="url(#path-68-inside-19_10949_56564)"/>
<rect x="126.013" y="103.717" width="30.0626" height="3.00626" rx="1.50313" fill="#C2D1EB"/>
<mask id="path-71-inside-20_10949_56564" fill="white">
<path d="M180 96.2012H240V114.239H180V96.2012Z"/>
</mask>
<path d="M180 96.2012H240V114.239H180V96.2012Z" fill="#F2F6FB"/>
<path d="M180 114.239H180.501V96.2012H180H179.499V114.239H180Z" fill="#C2D1EB" mask="url(#path-71-inside-20_10949_56564)"/>
<rect x="186.013" y="103.717" width="30.0626" height="3.00626" rx="1.50313" fill="#C2D1EB"/>
</g>
<path d="M240 114.239V113.738H0V114.239V114.74H240V114.239Z" fill="#C2D1EB" mask="url(#path-62-inside-17_10949_56564)"/>
<g clip-path="url(#clip9_10949_56564)">
<mask id="path-74-inside-21_10949_56564" fill="white">
<path d="M0 114.238H240V132.276H0V114.238Z"/>
</mask>
<rect width="60" height="18.0376" transform="translate(0 114.238)" fill="white"/>
<rect x="6.01251" y="121.754" width="30.0626" height="3.00626" rx="1.50313" fill="#C2D1EB"/>
<mask id="path-77-inside-22_10949_56564" fill="white">
<path d="M60 114.238H120V132.276H60V114.238Z"/>
</mask>
<path d="M60 114.238H120V132.276H60V114.238Z" fill="white"/>
<path d="M60 132.276H60.501V114.238H60H59.499V132.276H60Z" fill="#C2D1EB" mask="url(#path-77-inside-22_10949_56564)"/>
<rect x="66.0125" y="121.754" width="30.0626" height="3.00626" rx="1.50313" fill="#C2D1EB"/>
<mask id="path-80-inside-23_10949_56564" fill="white">
<path d="M120 114.238H180V132.276H120V114.238Z"/>
</mask>
<path d="M120 114.238H180V132.276H120V114.238Z" fill="white"/>
<path d="M120 132.276H120.501V114.238H120H119.499V132.276H120Z" fill="#C2D1EB" mask="url(#path-80-inside-23_10949_56564)"/>
<rect x="126.013" y="121.754" width="30.0626" height="3.00626" rx="1.50313" fill="#C2D1EB"/>
<mask id="path-83-inside-24_10949_56564" fill="white">
<path d="M180 114.238H240V132.276H180V114.238Z"/>
</mask>
<path d="M180 114.238H240V132.276H180V114.238Z" fill="white"/>
<path d="M180 132.276H180.501V114.238H180H179.499V132.276H180Z" fill="#C2D1EB" mask="url(#path-83-inside-24_10949_56564)"/>
<rect x="186.013" y="121.754" width="30.0626" height="3.00626" rx="1.50313" fill="#C2D1EB"/>
</g>
<path d="M240 132.276V131.775H0V132.276V132.777H240V132.276Z" fill="#C2D1EB" mask="url(#path-74-inside-21_10949_56564)"/>
<rect x="179.875" y="23.5488" width="60.6263" height="109.633" fill="#5473C8" fill-opacity="0.1"/>
<g filter="url(#filter1_d_10949_56564)">
<rect x="64.6346" y="20.041" width="110.23" height="51.1065" rx="3.00626" fill="white"/>
<rect x="64.8852" y="20.2915" width="109.729" height="50.6054" rx="2.75574" stroke="#C2D1EB" stroke-width="0.501044"/>
<rect x="85.1775" y="30.0625" width="37.5783" height="3.00626" rx="1.50313" fill="#C2D1EB"/>
<path d="M69.144 40.5843C69.144 39.4774 70.0413 38.5801 71.1482 38.5801H168.351C169.458 38.5801 170.355 39.4774 170.355 40.5843V50.6051C170.355 51.712 169.458 52.6093 168.351 52.6093H71.1482C70.0413 52.6093 69.144 51.712 69.144 50.6051V40.5843Z" fill="#E4ECF6"/>
<path d="M82.1712 42.5879V43.3395L79.9165 45.5942V47.0973L79.1649 48.6004V45.5942L76.9102 43.3395V42.5879H82.1712Z" fill="#5473C8"/>
<path d="M73.1524 44.8426H74.6555V48.6004H75.4071V44.8426H76.9102L75.0313 42.5879L73.1524 44.8426Z" fill="#5473C8"/>
<rect x="86.1795" y="44.0918" width="37.5783" height="3.00626" rx="1.50313" fill="#5473C8"/>
<rect x="85.1775" y="58.1191" width="37.5783" height="3.00626" rx="1.50313" fill="#C2D1EB"/>
</g>
</g>
<rect x="0.250522" y="0.250522" width="239.499" height="131.775" stroke="#C2D1EB" stroke-width="0.501044"/>
<defs>
<filter id="filter0_d_10949_56564" x="63.8831" y="4.00872" width="112.234" height="17.0354" filterUnits="userSpaceOnUse" color-interpolation-filters="sRGB">
<feFlood flood-opacity="0" result="BackgroundImageFix"/>
<feColorMatrix in="SourceAlpha" type="matrix" values="0 0 0 0 0 0 0 0 0 0 0 0 0 0 0 0 0 0 127 0" result="hardAlpha"/>
<feOffset dy="0.501044"/>
<feGaussianBlur stdDeviation="0.501044"/>
<feComposite in2="hardAlpha" operator="out"/>
<feColorMatrix type="matrix" values="0 0 0 0 0 0 0 0 0 0 0 0 0 0 0 0 0 0 0.038 0"/>
<feBlend mode="normal" in2="BackgroundImageFix" result="effect1_dropShadow_10949_56564"/>
<feBlend mode="normal" in="SourceGraphic" in2="effect1_dropShadow_10949_56564" result="shape"/>
</filter>
<filter id="filter1_d_10949_56564" x="58.1211" y="16.5337" width="123.257" height="64.1346" filterUnits="userSpaceOnUse" color-interpolation-filters="sRGB">
<feFlood flood-opacity="0" result="BackgroundImageFix"/>
<feColorMatrix in="SourceAlpha" type="matrix" values="0 0 0 0 0 0 0 0 0 0 0 0 0 0 0 0 0 0 127 0" result="hardAlpha"/>
<feOffset dy="3.00626"/>
<feGaussianBlur stdDeviation="3.25679"/>
<feComposite in2="hardAlpha" operator="out"/>
<feColorMatrix type="matrix" values="0 0 0 0 0 0 0 0 0 0 0 0 0 0 0 0 0 0 0.125 0"/>
<feBlend mode="normal" in2="BackgroundImageFix" result="effect1_dropShadow_10949_56564"/>
<feBlend mode="normal" in="SourceGraphic" in2="effect1_dropShadow_10949_56564" result="shape"/>
</filter>
<clipPath id="clip0_10949_56564">
<rect width="240" height="132.276" fill="white"/>
</clipPath>
<clipPath id="clip1_10949_56564">
<path d="M64.8852 12.0254C64.8852 7.87464 68.2501 4.50977 72.4008 4.50977H167.599C171.75 4.50977 175.115 7.87464 175.115 12.0254V12.0254C175.115 16.1762 171.75 19.5411 167.599 19.5411H72.4008C68.2501 19.5411 64.8852 16.1762 64.8852 12.0254V12.0254Z" fill="white"/>
</clipPath>
<clipPath id="clip2_10949_56564">
<rect width="8.0167" height="8.0167" fill="white" transform="translate(69.3946 8.01758)"/>
</clipPath>
<clipPath id="clip3_10949_56564">
<rect width="14.0292" height="14.0292" fill="white" transform="translate(160.585 5.01172)"/>
</clipPath>
<clipPath id="clip4_10949_56564">
<path d="M0 24.0508H240V42.0884H0V24.0508Z" fill="white"/>
</clipPath>
<clipPath id="clip5_10949_56564">
<path d="M0 42.0879H240V60.1255H0V42.0879Z" fill="white"/>
</clipPath>
<clipPath id="clip6_10949_56564">
<path d="M0 60.125H240V78.1626H0V60.125Z" fill="white"/>
</clipPath>
<clipPath id="clip7_10949_56564">
<path d="M0 78.1621H240V96.1997H0V78.1621Z" fill="white"/>
</clipPath>
<clipPath id="clip8_10949_56564">
<path d="M0 96.2012H240V114.239H0V96.2012Z" fill="white"/>
</clipPath>
<clipPath id="clip9_10949_56564">
<path d="M0 114.238H240V132.276H0V114.238Z" fill="white"/>
</clipPath>
</defs>
</svg>
