<svg width="246" height="108" viewBox="0 0 246 108" fill="none" xmlns="http://www.w3.org/2000/svg">
<g filter="url(#filter0_d_9517_205330)">
<g clip-path="url(#clip0_9517_205330)">
<mask id="path-3-inside-1_9517_205330" fill="white">
<path d="M2.57153 0H242.572V32.5714H2.57153V0Z"/>
</mask>
<path d="M2.57153 0H242.572V32.5714H2.57153V0Z" fill="#121D39"/>
<path d="M242.572 32.5714V31.9286H2.57153V32.5714V33.2143H242.572V32.5714Z" fill="#2A417E" mask="url(#path-3-inside-1_9517_205330)"/>
<rect x="9.42871" y="7.71484" width="57.4286" height="17.1429" rx="8.57143" fill="#2A417E"/>
<path d="M22.7145 11.7854L23.8055 14.5515L26.5716 15.6426L23.8055 16.7336L22.7145 19.4997L21.6234 16.7336L18.8573 15.6426L21.6234 14.5515L22.7145 11.7854ZM18.1755 18.175L16.2859 18.8569L18.1755 19.5387L18.8573 21.4283L19.5391 19.5387L21.4287 18.8569L19.5391 18.175L18.8573 16.2854L18.1755 18.175ZM17.703 12.5597L16.2859 13.0711L17.703 13.5826L18.2145 14.9997L18.7259 13.5826L20.143 13.0711L18.7259 12.5597L18.2145 11.1426L17.703 12.5597Z" fill="#6581CD"/>
<rect x="30.0002" y="14.5723" width="30" height="3.42857" rx="1.71429" fill="#6581CD"/>
<path d="M76.9287 11.0352H85.9287C86.3412 11.0352 86.6787 11.3727 86.6787 11.7852V18.5352C86.6787 18.9477 86.3412 19.2852 85.9287 19.2852H78.4287L76.1787 21.5352V11.7852C76.1787 11.3727 76.5162 11.0352 76.9287 11.0352ZM85.9274 18.5352L85.9287 18.5338V11.7865L85.9274 11.7852H76.93L76.9287 11.7865V19.7245L78.118 18.5352H85.9274Z" fill="#6581CD"/>
<rect x="90.8572" y="14.5723" width="30" height="3.42857" rx="1.71429" fill="#6581CD"/>
<rect width="240" height="38.5714" transform="translate(2.57153 32.5723)" fill="#121D39"/>
<rect x="16.6073" y="39.7511" width="211.929" height="24.2143" rx="1.39286" fill="#0D1426"/>
<rect x="16.6073" y="39.7511" width="211.929" height="24.2143" rx="1.39286" stroke="#2A417E" stroke-width="0.642857"/>
<rect x="23.1431" y="49.2871" width="142.286" height="5.14286" rx="2.57143" fill="#2A417E"/>
<path d="M224.754 62.7564L224.148 62.151L226.72 59.5796L227.325 60.1849L224.754 62.7564ZM226.889 57.1796L226.283 56.5742L221.143 61.7144L221.748 62.3198L226.889 57.1796Z" fill="#3958AC"/>
<rect width="240" height="30.8571" transform="translate(2.57153 71.1426)" fill="#121D39"/>
<rect x="9.42871" y="78" width="63.4286" height="17.1429" rx="8.57143" fill="#6581CD"/>
<path d="M22.7145 82.0706L23.8055 84.8367L26.5716 85.9277L23.8055 87.0188L22.7145 89.7849L21.6234 87.0188L18.8573 85.9277L21.6234 84.8367L22.7145 82.0706ZM18.1755 88.4602L16.2859 89.142L18.1755 89.8239L18.8573 91.7134L19.5391 89.8239L21.4287 89.142L19.5391 88.4602L18.8573 86.5706L18.1755 88.4602ZM17.703 82.8448L16.2859 83.3563L17.703 83.8678L18.2145 85.2849L18.7259 83.8678L20.143 83.3563L18.7259 82.8448L18.2145 81.4277L17.703 82.8448Z" fill="#0D1426"/>
<rect x="30" y="84.8574" width="30" height="3.42857" rx="1.71429" fill="#0D1426"/>
</g>
<rect x="2.89296" y="0.321429" width="239.357" height="101.357" stroke="#2A417E" stroke-width="0.642857"/>
</g>
<defs>
<filter id="filter0_d_9517_205330" x="0.000104666" y="0" width="245.143" height="107.143" filterUnits="userSpaceOnUse" color-interpolation-filters="sRGB">
<feFlood flood-opacity="0" result="BackgroundImageFix"/>
<feColorMatrix in="SourceAlpha" type="matrix" values="0 0 0 0 0 0 0 0 0 0 0 0 0 0 0 0 0 0 127 0" result="hardAlpha"/>
<feOffset dy="2.57143"/>
<feGaussianBlur stdDeviation="1.28571"/>
<feColorMatrix type="matrix" values="0 0 0 0 0 0 0 0 0 0 0 0 0 0 0 0 0 0 0.06 0"/>
<feBlend mode="normal" in2="BackgroundImageFix" result="effect1_dropShadow_9517_205330"/>
<feBlend mode="normal" in="SourceGraphic" in2="effect1_dropShadow_9517_205330" result="shape"/>
</filter>
<clipPath id="clip0_9517_205330">
<rect x="2.57153" width="240" height="102" fill="white"/>
</clipPath>
</defs>
</svg>
