<svg width="160" height="91" viewBox="0 0 160 91" fill="none" xmlns="http://www.w3.org/2000/svg">
<g clip-path="url(#clip0_10950_57766)">
<rect x="0.104837" y="0.104837" width="100.224" height="11.4999" fill="#E4ECF6"/>
<rect x="0.104837" y="0.104837" width="100.224" height="11.4999" stroke="#C2D1EB" stroke-width="0.209673"/>
<path d="M81.0306 1.99121H94.5785C96.7119 1.99121 98.4418 3.72108 98.4418 5.85449C98.4417 7.98787 96.7119 9.71777 94.5785 9.71777H81.0306C78.8973 9.71777 77.1674 7.98787 77.1674 5.85449C77.1674 3.72108 78.8972 1.99121 81.0306 1.99121Z" fill="#C2D1EB"/>
<path d="M81.0306 1.99121H94.5785C96.7119 1.99121 98.4418 3.72108 98.4418 5.85449C98.4417 7.98787 96.7119 9.71777 94.5785 9.71777H81.0306C78.8973 9.71777 77.1674 7.98787 77.1674 5.85449C77.1674 3.72108 78.8972 1.99121 81.0306 1.99121Z" stroke="#3958AC" stroke-width="0.209673"/>
<path d="M83.6143 7.50245C83.7066 7.50245 83.7813 7.57722 83.7813 7.66946C83.7813 7.7617 83.7066 7.83648 83.6143 7.83648H82.2782C82.186 7.83648 82.1112 7.7617 82.1112 7.66946C82.1112 7.57722 82.186 7.50245 82.2782 7.50245H83.6143Z" fill="#3958AC"/>
<path d="M83.6143 6.83439C83.7066 6.83439 83.7813 6.90916 83.7813 7.0014C83.7813 7.09364 83.7066 7.16842 83.6143 7.16842H82.2782C82.186 7.16842 82.1112 7.09364 82.1112 7.0014C82.1112 6.90916 82.186 6.83439 82.2782 6.83439H83.6143Z" fill="#3958AC"/>
<path fill-rule="evenodd" clip-rule="evenodd" d="M82.7793 4.49618C83.3327 4.49618 83.7813 4.94483 83.7813 5.49827V5.8323C84.3348 5.8323 84.7834 6.28095 84.7834 6.83439V8.83856H82.1112L82.0597 8.83726C81.5472 8.8113 81.1364 8.40043 81.1104 7.88802L81.1091 7.83648V7.50245H80.107V5.89069L80.4411 6.81612V7.16842H81.1091V6.83439C81.1091 6.28095 81.5578 5.8323 82.1112 5.8323H83.4473V5.49827C83.4473 5.12931 83.1482 4.83021 82.7793 4.83021H82.427L81.5015 4.49618H82.7793ZM82.1112 6.16633C81.7422 6.16633 81.4431 6.46543 81.4431 6.83439V7.83648C81.4431 8.20543 81.7422 8.50453 82.1112 8.50453H84.4494V6.83439C84.4494 6.46543 84.1503 6.16633 83.7813 6.16633H82.1112Z" fill="#3958AC"/>
<path d="M80.7069 4.56436L81.4431 4.83021L80.7069 5.09607L80.4411 5.8323L80.1752 5.09607L79.439 4.83021L80.1752 4.56436L80.4411 3.82812L80.7069 4.56436Z" fill="#3958AC"/>
<path d="M86.4468 5.17979L85.6572 7.35352H85.3345L86.2436 4.96848H86.4517L86.4468 5.17979ZM87.1085 7.35352L86.3174 5.17979L86.3124 4.96848H86.5205L87.4329 7.35352H87.1085ZM87.0676 6.47059V6.72941H85.7276V6.47059H87.0676ZM88.0914 4.96848V7.35352H87.7752V4.96848H88.0914ZM91.2611 6.16591V7.03901C91.2316 7.08269 91.1846 7.13183 91.1202 7.18643C91.0557 7.23994 90.9667 7.2869 90.8532 7.32731C90.7407 7.36662 90.5955 7.38628 90.4174 7.38628C90.2722 7.38628 90.1384 7.36116 90.0161 7.31093C89.8949 7.2596 89.7895 7.18534 89.7 7.08815C89.6115 6.98986 89.5427 6.87083 89.4936 6.73105C89.4455 6.59017 89.4215 6.43073 89.4215 6.25273V6.06763C89.4215 5.88962 89.4422 5.73073 89.4837 5.59095C89.5263 5.45117 89.5886 5.33268 89.6705 5.23549C89.7524 5.1372 89.8529 5.06294 89.9719 5.01271C90.0909 4.96138 90.2274 4.93572 90.3814 4.93572C90.5638 4.93572 90.7161 4.96739 90.8384 5.03073C90.9618 5.09298 91.0579 5.17925 91.1267 5.28954C91.1966 5.39984 91.2414 5.52543 91.2611 5.6663H90.9449C90.9307 5.58003 90.9023 5.5014 90.8597 5.43042C90.8182 5.35944 90.7587 5.30265 90.6812 5.26006C90.6036 5.21638 90.5037 5.19454 90.3814 5.19454C90.2711 5.19454 90.1756 5.21474 90.0947 5.25514C90.0139 5.29555 89.9473 5.35343 89.8949 5.42878C89.8425 5.50413 89.8032 5.59532 89.777 5.70234C89.7518 5.80936 89.7393 5.93003 89.7393 6.06435V6.25273C89.7393 6.39033 89.7551 6.51318 89.7868 6.6213C89.8196 6.72941 89.866 6.82169 89.926 6.89813C89.9861 6.97348 90.0576 7.03082 90.1406 7.07013C90.2247 7.10944 90.3175 7.1291 90.4191 7.1291C90.5316 7.1291 90.6228 7.11982 90.6926 7.10125C90.7625 7.0816 90.8171 7.05866 90.8565 7.03245C90.8958 7.00515 90.9258 6.97949 90.9465 6.95546V6.42145H90.3945V6.16591H91.2611ZM92.0424 5.85959V7.35352H91.7394V5.58112H92.0342L92.0424 5.85959ZM92.5961 5.57129L92.5944 5.85304C92.5693 5.84758 92.5453 5.8443 92.5224 5.84321C92.5005 5.84103 92.4754 5.83994 92.447 5.83994C92.3771 5.83994 92.3154 5.85086 92.2619 5.8727C92.2084 5.89454 92.1631 5.92512 92.126 5.96443C92.0888 6.00374 92.0593 6.0507 92.0375 6.1053C92.0168 6.15881 92.0031 6.21779 91.9965 6.28222L91.9114 6.33136C91.9114 6.22434 91.9217 6.12387 91.9425 6.02995C91.9643 5.93604 91.9976 5.85304 92.0424 5.78097C92.0872 5.7078 92.144 5.65101 92.2128 5.61061C92.2827 5.56911 92.3657 5.54836 92.4618 5.54836C92.4836 5.54836 92.5087 5.55109 92.5371 5.55655C92.5655 5.56092 92.5852 5.56583 92.5961 5.57129ZM93.2054 5.58112V7.35352H92.9008V5.58112H93.2054ZM92.8778 5.11099C92.8778 5.06185 92.8926 5.02035 92.9221 4.9865C92.9526 4.95265 92.9974 4.93572 93.0564 4.93572C93.1143 4.93572 93.1585 4.95265 93.1891 4.9865C93.2207 5.02035 93.2366 5.06185 93.2366 5.11099C93.2366 5.15795 93.2207 5.19836 93.1891 5.23221C93.1585 5.26497 93.1143 5.28135 93.0564 5.28135C92.9974 5.28135 92.9526 5.26497 92.9221 5.23221C92.8926 5.19836 92.8778 5.15795 92.8778 5.11099ZM94.8091 7.00952V4.83744H95.1138V7.35352H94.8353L94.8091 7.00952ZM93.6166 6.48698V6.45258C93.6166 6.31716 93.633 6.19431 93.6657 6.08401C93.6996 5.97262 93.7471 5.87707 93.8083 5.79735C93.8705 5.71763 93.9442 5.65647 94.0294 5.61388C94.1157 5.5702 94.2118 5.54836 94.3177 5.54836C94.4291 5.54836 94.5263 5.56802 94.6093 5.60733C94.6934 5.64555 94.7643 5.70179 94.8222 5.77605C94.8812 5.84922 94.9276 5.93767 94.9615 6.04142C94.9953 6.14516 95.0188 6.26256 95.0319 6.3936V6.54431C95.0199 6.67426 94.9964 6.79111 94.9615 6.89486C94.9276 6.9986 94.8812 7.08706 94.8222 7.16022C94.7643 7.23339 94.6934 7.28963 94.6093 7.32894C94.5252 7.36717 94.4269 7.38628 94.3144 7.38628C94.2107 7.38628 94.1157 7.36389 94.0294 7.31912C93.9442 7.27434 93.8705 7.21155 93.8083 7.13074C93.7471 7.04993 93.6996 6.95492 93.6657 6.84571C93.633 6.73542 93.6166 6.61584 93.6166 6.48698ZM93.9213 6.45258V6.48698C93.9213 6.57543 93.93 6.65843 93.9475 6.73596C93.9661 6.8135 93.9945 6.88175 94.0327 6.94072C94.0709 6.99969 94.1195 7.0461 94.1785 7.07996C94.2374 7.11272 94.3079 7.1291 94.3898 7.1291C94.4902 7.1291 94.5727 7.1078 94.6371 7.06521C94.7026 7.02262 94.7551 6.96638 94.7944 6.89649C94.8337 6.8266 94.8643 6.7507 94.8861 6.6688V6.27403C94.873 6.21396 94.8539 6.15608 94.8288 6.10039C94.8048 6.0436 94.7731 5.99337 94.7338 5.94969C94.6955 5.90491 94.648 5.86942 94.5913 5.84321C94.5356 5.817 94.4695 5.8039 94.393 5.8039C94.3101 5.8039 94.2385 5.82137 94.1785 5.85632C94.1195 5.89017 94.0709 5.93713 94.0327 5.99719C93.9945 6.05616 93.9661 6.12496 93.9475 6.20359C93.93 6.28112 93.9213 6.36412 93.9213 6.45258Z" fill="#3958AC"/>
<g clip-path="url(#clip1_10950_57766)">
<mask id="path-8-inside-1_10950_57766" fill="white">
<path d="M0 11.709H131.618V21.601H0V11.709Z"/>
</mask>
<rect width="33.4029" height="9.89199" transform="translate(0 11.709)" fill="#E4ECF6"/>
<rect x="3.29736" y="15.8301" width="18.3185" height="1.64867" rx="0.824333" fill="#90ABDA"/>
<mask id="path-11-inside-2_10950_57766" fill="white">
<path d="M33.403 11.709H66.8059V21.601H33.403V11.709Z"/>
</mask>
<path d="M33.403 11.709H66.8059V21.601H33.403V11.709Z" fill="#E4ECF6"/>
<path d="M33.403 21.601H33.6777V11.709H33.403H33.1282V21.601H33.403Z" fill="#C2D1EB" mask="url(#path-11-inside-2_10950_57766)"/>
<rect x="36.7003" y="15.8301" width="18.3185" height="1.64867" rx="0.824333" fill="#90ABDA"/>
<mask id="path-14-inside-3_10950_57766" fill="white">
<path d="M66.8059 11.709H100.209V21.601H66.8059V11.709Z"/>
</mask>
<path d="M66.8059 11.709H100.209V21.601H66.8059V11.709Z" fill="#E4ECF6"/>
<path d="M66.8059 21.601H67.0807V11.709H66.8059H66.5311V21.601H66.8059Z" fill="#C2D1EB" mask="url(#path-14-inside-3_10950_57766)"/>
<rect x="70.1033" y="15.8301" width="18.3185" height="1.64867" rx="0.824333" fill="#90ABDA"/>
<mask id="path-17-inside-4_10950_57766" fill="white">
<path d="M100.209 11.709H133.612V21.601H100.209V11.709Z"/>
</mask>
<path d="M100.209 11.709H133.612V21.601H100.209V11.709Z" fill="#E4ECF6"/>
<path d="M100.209 21.601H100.484V11.709H100.209H99.934V21.601H100.209Z" fill="#C2D1EB" mask="url(#path-17-inside-4_10950_57766)"/>
</g>
<path d="M131.618 21.601V21.3262H0V21.601V21.8758H131.618V21.601Z" fill="#C2D1EB" mask="url(#path-8-inside-1_10950_57766)"/>
<g clip-path="url(#clip2_10950_57766)">
<mask id="path-19-inside-5_10950_57766" fill="white">
<path d="M0 21.6016H131.618V31.4936H0V21.6016Z"/>
</mask>
<rect width="33.4029" height="9.89199" transform="translate(0 21.6016)" fill="white"/>
<rect x="3.29736" y="25.7227" width="16.4867" height="1.64867" rx="0.824333" fill="#C2D1EB"/>
<mask id="path-22-inside-6_10950_57766" fill="white">
<path d="M33.403 21.6016H66.8059V31.4936H33.403V21.6016Z"/>
</mask>
<path d="M33.403 21.6016H66.8059V31.4936H33.403V21.6016Z" fill="white"/>
<path d="M33.403 31.4936H33.6777V21.6016H33.403H33.1282V31.4936H33.403Z" fill="#C2D1EB" mask="url(#path-22-inside-6_10950_57766)"/>
<rect x="36.7003" y="25.7227" width="16.4867" height="1.64867" rx="0.824333" fill="#C2D1EB"/>
<mask id="path-25-inside-7_10950_57766" fill="white">
<path d="M66.8059 21.6016H100.209V31.4936H66.8059V21.6016Z"/>
</mask>
<path d="M66.8059 21.6016H100.209V31.4936H66.8059V21.6016Z" fill="white"/>
<path d="M66.8059 31.4936H67.0807V21.6016H66.8059H66.5311V31.4936H66.8059Z" fill="#C2D1EB" mask="url(#path-25-inside-7_10950_57766)"/>
<rect x="70.1033" y="25.7227" width="16.4867" height="1.64867" rx="0.824333" fill="#C2D1EB"/>
<mask id="path-28-inside-8_10950_57766" fill="white">
<path d="M100.209 21.6016H133.612V31.4936H100.209V21.6016Z"/>
</mask>
<path d="M100.209 21.6016H133.612V31.4936H100.209V21.6016Z" fill="white"/>
<path d="M100.209 31.4936H100.484V21.6016H100.209H99.934V31.4936H100.209Z" fill="#C2D1EB" mask="url(#path-28-inside-8_10950_57766)"/>
</g>
<path d="M131.618 31.4936V31.2188H0V31.4936V31.7683H131.618V31.4936Z" fill="#C2D1EB" mask="url(#path-19-inside-5_10950_57766)"/>
<g clip-path="url(#clip3_10950_57766)">
<mask id="path-30-inside-9_10950_57766" fill="white">
<path d="M0 31.4941H131.618V41.3861H0V31.4941Z"/>
</mask>
<rect width="33.4029" height="9.89199" transform="translate(0 31.4941)" fill="#F2F6FB"/>
<rect x="3.29736" y="35.6152" width="16.4867" height="1.64867" rx="0.824333" fill="#C2D1EB"/>
<mask id="path-33-inside-10_10950_57766" fill="white">
<path d="M33.403 31.4941H66.8059V41.3861H33.403V31.4941Z"/>
</mask>
<path d="M33.403 31.4941H66.8059V41.3861H33.403V31.4941Z" fill="#F2F6FB"/>
<path d="M33.403 41.3861H33.6777V31.4941H33.403H33.1282V41.3861H33.403Z" fill="#C2D1EB" mask="url(#path-33-inside-10_10950_57766)"/>
<rect x="36.7003" y="35.6152" width="16.4867" height="1.64867" rx="0.824333" fill="#C2D1EB"/>
<mask id="path-36-inside-11_10950_57766" fill="white">
<path d="M66.8059 31.4941H100.209V41.3861H66.8059V31.4941Z"/>
</mask>
<path d="M66.8059 31.4941H100.209V41.3861H66.8059V31.4941Z" fill="#F2F6FB"/>
<path d="M66.8059 41.3861H67.0807V31.4941H66.8059H66.5311V41.3861H66.8059Z" fill="#C2D1EB" mask="url(#path-36-inside-11_10950_57766)"/>
<rect x="70.1033" y="35.6152" width="16.4867" height="1.64867" rx="0.824333" fill="#C2D1EB"/>
<mask id="path-39-inside-12_10950_57766" fill="white">
<path d="M100.209 31.4941H133.612V41.3861H100.209V31.4941Z"/>
</mask>
<path d="M100.209 31.4941H133.612V41.3861H100.209V31.4941Z" fill="#F2F6FB"/>
<path d="M100.209 41.3861H100.484V31.4941H100.209H99.934V41.3861H100.209Z" fill="#C2D1EB" mask="url(#path-39-inside-12_10950_57766)"/>
</g>
<path d="M131.618 41.3861V41.1114H0V41.3861V41.6609H131.618V41.3861Z" fill="#C2D1EB" mask="url(#path-30-inside-9_10950_57766)"/>
<g clip-path="url(#clip4_10950_57766)">
<mask id="path-41-inside-13_10950_57766" fill="white">
<path d="M0 41.3848H131.618V51.2768H0V41.3848Z"/>
</mask>
<rect width="33.4029" height="9.89199" transform="translate(0 41.3848)" fill="white"/>
<rect x="3.29736" y="45.5059" width="16.4867" height="1.64867" rx="0.824333" fill="#C2D1EB"/>
<mask id="path-44-inside-14_10950_57766" fill="white">
<path d="M33.403 41.3848H66.8059V51.2768H33.403V41.3848Z"/>
</mask>
<path d="M33.403 41.3848H66.8059V51.2768H33.403V41.3848Z" fill="white"/>
<path d="M33.403 51.2768H33.6777V41.3848H33.403H33.1282V51.2768H33.403Z" fill="#C2D1EB" mask="url(#path-44-inside-14_10950_57766)"/>
<rect x="36.7003" y="45.5059" width="16.4867" height="1.64867" rx="0.824333" fill="#C2D1EB"/>
<mask id="path-47-inside-15_10950_57766" fill="white">
<path d="M66.8059 41.3848H100.209V51.2768H66.8059V41.3848Z"/>
</mask>
<path d="M66.8059 41.3848H100.209V51.2768H66.8059V41.3848Z" fill="white"/>
<path d="M66.8059 51.2768H67.0807V41.3848H66.8059H66.5311V51.2768H66.8059Z" fill="#C2D1EB" mask="url(#path-47-inside-15_10950_57766)"/>
<rect x="70.1033" y="45.5059" width="16.4867" height="1.64867" rx="0.824333" fill="#C2D1EB"/>
<mask id="path-50-inside-16_10950_57766" fill="white">
<path d="M100.209 41.3848H133.612V51.2768H100.209V41.3848Z"/>
</mask>
<path d="M100.209 41.3848H133.612V51.2768H100.209V41.3848Z" fill="white"/>
<path d="M100.209 51.2768H100.484V41.3848H100.209H99.934V51.2768H100.209Z" fill="#C2D1EB" mask="url(#path-50-inside-16_10950_57766)"/>
</g>
<path d="M131.618 51.2768V51.002H0V51.2768V51.5515H131.618V51.2768Z" fill="#C2D1EB" mask="url(#path-41-inside-13_10950_57766)"/>
<g clip-path="url(#clip5_10950_57766)">
<mask id="path-52-inside-17_10950_57766" fill="white">
<path d="M0 51.2773H131.618V61.1693H0V51.2773Z"/>
</mask>
<rect width="33.4029" height="9.89199" transform="translate(0 51.2773)" fill="#F2F6FB"/>
<rect x="3.29736" y="55.3984" width="16.4867" height="1.64867" rx="0.824333" fill="#C2D1EB"/>
<mask id="path-55-inside-18_10950_57766" fill="white">
<path d="M33.403 51.2773H66.8059V61.1693H33.403V51.2773Z"/>
</mask>
<path d="M33.403 51.2773H66.8059V61.1693H33.403V51.2773Z" fill="#F2F6FB"/>
<path d="M33.403 61.1693H33.6777V51.2773H33.403H33.1282V61.1693H33.403Z" fill="#C2D1EB" mask="url(#path-55-inside-18_10950_57766)"/>
<rect x="36.7003" y="55.3984" width="16.4867" height="1.64867" rx="0.824333" fill="#C2D1EB"/>
<mask id="path-58-inside-19_10950_57766" fill="white">
<path d="M66.8059 51.2773H100.209V61.1693H66.8059V51.2773Z"/>
</mask>
<path d="M66.8059 51.2773H100.209V61.1693H66.8059V51.2773Z" fill="#F2F6FB"/>
<path d="M66.8059 61.1693H67.0807V51.2773H66.8059H66.5311V61.1693H66.8059Z" fill="#C2D1EB" mask="url(#path-58-inside-19_10950_57766)"/>
<rect x="70.1033" y="55.3984" width="16.4867" height="1.64867" rx="0.824333" fill="#C2D1EB"/>
<mask id="path-61-inside-20_10950_57766" fill="white">
<path d="M100.209 51.2773H133.612V61.1693H100.209V51.2773Z"/>
</mask>
<path d="M100.209 51.2773H133.612V61.1693H100.209V51.2773Z" fill="#F2F6FB"/>
<path d="M100.209 61.1693H100.484V51.2773H100.209H99.934V61.1693H100.209Z" fill="#C2D1EB" mask="url(#path-61-inside-20_10950_57766)"/>
</g>
<path d="M131.618 61.1693V60.8946H0V61.1693V61.4441H131.618V61.1693Z" fill="#C2D1EB" mask="url(#path-52-inside-17_10950_57766)"/>
<g clip-path="url(#clip6_10950_57766)">
<mask id="path-63-inside-21_10950_57766" fill="white">
<path d="M0 61.1699H131.618V71.0619H0V61.1699Z"/>
</mask>
<rect width="33.4029" height="9.89199" transform="translate(0 61.1699)" fill="white"/>
<rect x="3.29736" y="65.291" width="16.4867" height="1.64867" rx="0.824333" fill="#C2D1EB"/>
<mask id="path-66-inside-22_10950_57766" fill="white">
<path d="M33.403 61.1699H66.8059V71.0619H33.403V61.1699Z"/>
</mask>
<path d="M33.403 61.1699H66.8059V71.0619H33.403V61.1699Z" fill="white"/>
<path d="M33.403 71.0619H33.6777V61.1699H33.403H33.1282V71.0619H33.403Z" fill="#C2D1EB" mask="url(#path-66-inside-22_10950_57766)"/>
<rect x="36.7003" y="65.291" width="16.4867" height="1.64867" rx="0.824333" fill="#C2D1EB"/>
<mask id="path-69-inside-23_10950_57766" fill="white">
<path d="M66.8059 61.1699H100.209V71.0619H66.8059V61.1699Z"/>
</mask>
<path d="M66.8059 61.1699H100.209V71.0619H66.8059V61.1699Z" fill="white"/>
<path d="M66.8059 71.0619H67.0807V61.1699H66.8059H66.5311V71.0619H66.8059Z" fill="#C2D1EB" mask="url(#path-69-inside-23_10950_57766)"/>
<rect x="70.1033" y="65.291" width="16.4867" height="1.64867" rx="0.824333" fill="#C2D1EB"/>
<mask id="path-72-inside-24_10950_57766" fill="white">
<path d="M100.209 61.1699H133.612V71.0619H100.209V61.1699Z"/>
</mask>
<path d="M100.209 61.1699H133.612V71.0619H100.209V61.1699Z" fill="white"/>
<path d="M100.209 71.0619H100.484V61.1699H100.209H99.934V71.0619H100.209Z" fill="#C2D1EB" mask="url(#path-72-inside-24_10950_57766)"/>
</g>
<path d="M131.618 71.0619V70.7871H0V71.0619V71.3367H131.618V71.0619Z" fill="#C2D1EB" mask="url(#path-63-inside-21_10950_57766)"/>
<g clip-path="url(#clip7_10950_57766)">
<mask id="path-74-inside-25_10950_57766" fill="white">
<path d="M0 71.0605H131.618V80.9525H0V71.0605Z"/>
</mask>
<rect width="33.4029" height="9.89199" transform="translate(0 71.0605)" fill="#F2F6FB"/>
<rect x="3.29736" y="75.1816" width="16.4867" height="1.64867" rx="0.824333" fill="#C2D1EB"/>
<mask id="path-77-inside-26_10950_57766" fill="white">
<path d="M33.403 71.0605H66.8059V80.9525H33.403V71.0605Z"/>
</mask>
<path d="M33.403 71.0605H66.8059V80.9525H33.403V71.0605Z" fill="#F2F6FB"/>
<path d="M33.403 80.9525H33.6777V71.0605H33.403H33.1282V80.9525H33.403Z" fill="#C2D1EB" mask="url(#path-77-inside-26_10950_57766)"/>
<rect x="36.7003" y="75.1816" width="16.4867" height="1.64867" rx="0.824333" fill="#C2D1EB"/>
<mask id="path-80-inside-27_10950_57766" fill="white">
<path d="M66.8059 71.0605H100.209V80.9525H66.8059V71.0605Z"/>
</mask>
<path d="M66.8059 71.0605H100.209V80.9525H66.8059V71.0605Z" fill="#F2F6FB"/>
<path d="M66.8059 80.9525H67.0807V71.0605H66.8059H66.5311V80.9525H66.8059Z" fill="#C2D1EB" mask="url(#path-80-inside-27_10950_57766)"/>
<rect x="70.1033" y="75.1816" width="16.4867" height="1.64867" rx="0.824333" fill="#C2D1EB"/>
<mask id="path-83-inside-28_10950_57766" fill="white">
<path d="M100.209 71.0605H133.612V80.9525H100.209V71.0605Z"/>
</mask>
<path d="M100.209 71.0605H133.612V80.9525H100.209V71.0605Z" fill="#F2F6FB"/>
<path d="M100.209 80.9525H100.484V71.0605H100.209H99.934V80.9525H100.209Z" fill="#C2D1EB" mask="url(#path-83-inside-28_10950_57766)"/>
</g>
<path d="M131.618 80.9525V80.6778H0V80.9525V81.2273H131.618V80.9525Z" fill="#C2D1EB" mask="url(#path-74-inside-25_10950_57766)"/>
<g clip-path="url(#clip8_10950_57766)">
<mask id="path-85-inside-29_10950_57766" fill="white">
<path d="M0 80.9531H131.618V90.8451H0V80.9531Z"/>
</mask>
<rect width="33.4029" height="9.89199" transform="translate(0 80.9531)" fill="white"/>
<rect x="3.29736" y="85.0742" width="16.4867" height="1.64867" rx="0.824333" fill="#C2D1EB"/>
<mask id="path-88-inside-30_10950_57766" fill="white">
<path d="M33.403 80.9531H66.8059V90.8451H33.403V80.9531Z"/>
</mask>
<path d="M33.403 80.9531H66.8059V90.8451H33.403V80.9531Z" fill="white"/>
<path d="M33.403 90.8451H33.6777V80.9531H33.403H33.1282V90.8451H33.403Z" fill="#C2D1EB" mask="url(#path-88-inside-30_10950_57766)"/>
<rect x="36.7003" y="85.0742" width="16.4867" height="1.64867" rx="0.824333" fill="#C2D1EB"/>
<mask id="path-91-inside-31_10950_57766" fill="white">
<path d="M66.8059 80.9531H100.209V90.8451H66.8059V80.9531Z"/>
</mask>
<path d="M66.8059 80.9531H100.209V90.8451H66.8059V80.9531Z" fill="white"/>
<path d="M66.8059 90.8451H67.0807V80.9531H66.8059H66.5311V90.8451H66.8059Z" fill="#C2D1EB" mask="url(#path-91-inside-31_10950_57766)"/>
<rect x="70.1033" y="85.0742" width="16.4867" height="1.64867" rx="0.824333" fill="#C2D1EB"/>
<mask id="path-94-inside-32_10950_57766" fill="white">
<path d="M100.209 80.9531H133.612V90.8451H100.209V80.9531Z"/>
</mask>
<path d="M100.209 80.9531H133.612V90.8451H100.209V80.9531Z" fill="white"/>
<path d="M100.209 90.8451H100.484V80.9531H100.209H99.934V90.8451H100.209Z" fill="#C2D1EB" mask="url(#path-94-inside-32_10950_57766)"/>
</g>
<path d="M131.618 90.8451V90.5703H0V90.8451V91.1199H131.618V90.8451Z" fill="#C2D1EB" mask="url(#path-85-inside-29_10950_57766)"/>
</g>
<rect x="0.104837" y="0.104837" width="100.224" height="90.6358" stroke="#C2D1EB" stroke-width="0.209673"/>
<g clip-path="url(#clip9_10950_57766)">
<rect x="100.434" width="59.5665" height="90.856" fill="white"/>
<path d="M100.434 0H160V11.7662H100.434V0Z" fill="white"/>
<path d="M160 11.7662V11.6614H100.434V11.7662V11.8711H160V11.7662Z" fill="#C2D1EB"/>
<rect x="104.627" y="5.25391" width="15.7255" height="1.25804" rx="0.62902" fill="#90ABDA"/>
<path d="M152.662 2.84277C154.341 2.84299 155.702 4.20483 155.702 5.88379C155.702 7.56256 154.341 8.92361 152.662 8.92383C150.983 8.92383 149.621 7.56269 149.621 5.88379C149.621 4.2047 150.983 2.84277 152.662 2.84277Z" stroke="white" stroke-opacity="0.01" stroke-width="0.209673"/>
<path d="M153.531 4.86469C153.572 4.82376 153.638 4.82377 153.679 4.86469C153.72 4.90563 153.72 4.97199 153.679 5.01294L152.81 5.88234L153.679 6.75175C153.72 6.79269 153.72 6.85905 153.679 6.9C153.638 6.94094 153.572 6.94094 153.531 6.9L152.662 6.03059L151.792 6.9C151.751 6.94094 151.685 6.94094 151.644 6.9C151.603 6.85905 151.603 6.79269 151.644 6.75175L152.513 5.88234L151.644 5.01294C151.603 4.97199 151.603 4.90563 151.644 4.86469C151.685 4.82375 151.751 4.82375 151.792 4.86469L152.662 5.7341L153.531 4.86469Z" fill="#5473C8"/>
<g clip-path="url(#clip10_10950_57766)">
<rect width="59.5665" height="42.5637" transform="translate(100.434 11.7656)" fill="white"/>
</g>
<rect x="121.341" y="16.5879" width="18.8706" height="1.25804" rx="0.62902" fill="#C2D1EB"/>
<rect x="104.945" y="36.7402" width="43.4518" height="1.25804" rx="0.62902" fill="#C2D1EB"/>
<rect x="104.945" y="40.9336" width="43.4518" height="1.25804" rx="0.62902" fill="#C2D1EB"/>
<rect x="104.945" y="45.127" width="43.4518" height="1.25804" rx="0.62902" fill="#C2D1EB"/>
<rect x="104.945" y="49.3203" width="24.3221" height="1.25804" rx="0.62902" fill="#C2D1EB"/>
<g filter="url(#filter0_d_10950_57766)">
<path d="M142.248 21.8305C142.248 20.4409 143.375 19.3145 144.764 19.3145H154.619C156.009 19.3145 157.135 20.4409 157.135 21.8305V26.8627C157.135 27.0943 156.947 27.282 156.716 27.282H144.764C143.375 27.282 142.248 26.1556 142.248 24.766V21.8305Z" fill="#5473C8" shape-rendering="crispEdges"/>
<rect x="144.974" y="22.668" width="9.4353" height="1.25804" rx="0.62902" fill="white"/>
</g>
<g clip-path="url(#clip11_10950_57766)">
<path d="M111.272 24.2833L112.34 26.9901L115.046 28.0574L112.34 29.1248L111.272 31.8316L110.205 29.1248L107.498 28.0574L110.205 26.9901L111.272 24.2833ZM106.83 30.5342L104.982 31.2025L106.83 31.8709L107.498 33.7186L108.166 31.8709L110.014 31.2025L108.166 30.5342L107.498 28.6865L106.83 30.5342ZM106.37 25.0421L104.982 25.5414L106.368 26.0426L106.869 27.4284L107.37 26.0426L108.756 25.5414L107.37 25.0401L106.869 23.6543L106.368 25.0401L106.37 25.0421Z" fill="#5473C8"/>
</g>
<rect width="59.5665" height="33.9793" transform="translate(100.434 56.877)" fill="white"/>
<g clip-path="url(#clip12_10950_57766)">
<rect x="104.627" y="59.3926" width="32.3571" height="5.88311" rx="2.94155" fill="#E4ECF6"/>
<rect x="107.143" y="61.7051" width="27.3249" height="1.25804" rx="0.62902" fill="#90ABDA"/>
<rect x="138.242" y="59.3926" width="23.9001" height="5.88311" rx="2.94155" fill="#E4ECF6"/>
<rect x="140.758" y="61.7051" width="18.868" height="1.25804" rx="0.62902" fill="#90ABDA"/>
</g>
<g filter="url(#filter1_d_10950_57766)">
<path d="M104.627 70.309C104.627 68.9195 105.754 67.793 107.143 67.793H153.291C154.68 67.793 155.807 68.9195 155.807 70.309V84.1475C155.807 85.5371 154.68 86.6636 153.291 86.6636H107.143C105.754 86.6636 104.627 85.5371 104.627 84.1475V70.309Z" fill="white" shape-rendering="crispEdges"/>
<path d="M107.143 67.8975H153.29C154.622 67.8975 155.702 68.9771 155.702 70.3086V84.1475C155.702 85.4792 154.622 86.5586 153.29 86.5586H107.143C105.811 86.5583 104.732 85.479 104.732 84.1475V70.3086C104.732 68.9773 105.811 67.8977 107.143 67.8975Z" stroke="#C2D1EB" stroke-width="0.209673" shape-rendering="crispEdges"/>
<rect x="107.353" y="70.0996" width="15.7255" height="1.25804" rx="0.62902" fill="#C2D1EB"/>
<g clip-path="url(#clip13_10950_57766)">
<path d="M110.079 78.1709C111.758 78.1711 113.119 79.533 113.119 81.2119C113.119 82.8907 111.758 84.2517 110.079 84.252C108.4 84.252 107.038 82.8908 107.038 81.2119C107.038 79.5328 108.4 78.1709 110.079 78.1709Z" stroke="white" stroke-opacity="0.01" stroke-width="0.209673"/>
<path d="M110.749 82.9999H110.053C109.987 82.9999 109.933 82.953 109.933 82.895C109.933 82.8371 109.987 82.7902 110.053 82.7902H110.281V82.4912C109.825 82.4609 109.597 82.2597 109.485 82.0889C109.354 81.8904 109.353 81.692 109.353 81.6837C109.353 81.6257 109.407 81.5788 109.473 81.5788C109.54 81.5788 109.594 81.6255 109.594 81.6833C109.594 81.6868 109.598 81.842 109.699 81.9917C109.831 82.1867 110.067 82.2855 110.401 82.2855C110.736 82.2855 110.972 82.1867 111.104 81.9917C111.206 81.8411 111.208 81.6848 111.208 81.6833C111.208 81.6253 111.262 81.5786 111.329 81.5786C111.396 81.5786 111.45 81.6258 111.45 81.6837C111.45 81.692 111.448 81.8904 111.318 82.0889C111.206 82.2598 110.978 82.4609 110.522 82.4912V82.7902H110.749C110.816 82.7902 110.87 82.8371 110.87 82.895C110.87 82.953 110.816 82.9999 110.749 82.9999H110.749ZM110.401 82.0913C110.166 82.0913 109.984 81.999 109.887 81.8313C109.819 81.7118 109.817 81.5955 109.817 81.5826V80.5731C109.817 80.5603 109.819 80.444 109.887 80.3244C109.984 80.1568 110.166 80.0645 110.401 80.0645C110.636 80.0645 110.819 80.1568 110.915 80.3244C110.984 80.444 110.986 80.5603 110.986 80.5731V81.5826C110.986 81.5955 110.984 81.7117 110.915 81.8313C110.819 81.999 110.636 82.0913 110.401 82.0913ZM110.401 80.2741C110.259 80.2741 110.163 80.3195 110.106 80.4128C110.06 80.4904 110.058 80.5729 110.058 80.5738V81.5827C110.058 81.5827 110.06 81.6654 110.106 81.743C110.163 81.8363 110.259 81.8817 110.401 81.8817C110.543 81.8817 110.64 81.8363 110.696 81.743C110.743 81.6654 110.744 81.5829 110.744 81.582V80.5731C110.744 80.5731 110.743 80.4904 110.696 80.4128C110.64 80.3195 110.543 80.2741 110.401 80.2741Z" fill="#3958AC"/>
<path d="M150.355 78.1709C152.034 78.1711 153.396 79.533 153.396 81.2119C153.395 82.8907 152.034 84.2517 150.355 84.252C148.677 84.252 147.315 82.8908 147.314 81.2119C147.314 79.5328 148.676 78.1709 150.355 78.1709Z" fill="#E4ECF6"/>
<path d="M150.355 78.1709C152.034 78.1711 153.396 79.533 153.396 81.2119C153.395 82.8907 152.034 84.2517 150.355 84.252C148.677 84.252 147.315 82.8908 147.314 81.2119C147.314 79.5328 148.676 78.1709 150.355 78.1709Z" stroke="#E4ECF6" stroke-width="0.209673"/>
<path d="M150.872 80.7287C150.872 80.6563 150.93 80.5977 151.003 80.5977C151.075 80.5977 151.134 80.6563 151.134 80.7287V82.9827C151.134 83.0551 151.075 83.1137 151.003 83.1137C150.93 83.1137 150.872 83.0551 150.872 82.9827V80.7287Z" fill="#3958AC"/>
<path d="M150.917 80.8232C150.866 80.772 150.866 80.6891 150.917 80.6379C150.968 80.5867 151.051 80.5867 151.102 80.6379L151.955 81.4904C152.006 81.5416 152.006 81.6245 151.955 81.6757C151.904 81.7269 151.821 81.7269 151.77 81.6757L150.917 80.8232Z" fill="#3958AC"/>
<path d="M151.085 80.8232C151.136 80.7721 151.136 80.6891 151.085 80.6379C151.034 80.5867 150.951 80.5867 150.9 80.6379L150.047 81.4904C149.996 81.5416 149.996 81.6246 150.047 81.6757C150.098 81.7269 150.181 81.7269 150.232 81.6757L151.085 80.8232Z" fill="#3958AC"/>
</g>
</g>
</g>
<rect x="100.538" y="0.104837" width="59.3568" height="90.6463" stroke="#C2D1EB" stroke-width="0.209673"/>
<defs>
<filter id="filter0_d_10950_57766" x="141.829" y="19.1048" width="15.7255" height="8.80549" filterUnits="userSpaceOnUse" color-interpolation-filters="sRGB">
<feFlood flood-opacity="0" result="BackgroundImageFix"/>
<feColorMatrix in="SourceAlpha" type="matrix" values="0 0 0 0 0 0 0 0 0 0 0 0 0 0 0 0 0 0 127 0" result="hardAlpha"/>
<feOffset dy="0.209673"/>
<feGaussianBlur stdDeviation="0.209673"/>
<feComposite in2="hardAlpha" operator="out"/>
<feColorMatrix type="matrix" values="0 0 0 0 0.223529 0 0 0 0 0.345098 0 0 0 0 0.67451 0 0 0 0.2 0"/>
<feBlend mode="normal" in2="BackgroundImageFix" result="effect1_dropShadow_10950_57766"/>
<feBlend mode="normal" in="SourceGraphic" in2="effect1_dropShadow_10950_57766" result="shape"/>
</filter>
<filter id="filter1_d_10950_57766" x="103.788" y="67.3736" width="52.857" height="20.5485" filterUnits="userSpaceOnUse" color-interpolation-filters="sRGB">
<feFlood flood-opacity="0" result="BackgroundImageFix"/>
<feColorMatrix in="SourceAlpha" type="matrix" values="0 0 0 0 0 0 0 0 0 0 0 0 0 0 0 0 0 0 127 0" result="hardAlpha"/>
<feOffset dy="0.419347"/>
<feGaussianBlur stdDeviation="0.419347"/>
<feComposite in2="hardAlpha" operator="out"/>
<feColorMatrix type="matrix" values="0 0 0 0 0.223529 0 0 0 0 0.345098 0 0 0 0 0.67451 0 0 0 0.1 0"/>
<feBlend mode="normal" in2="BackgroundImageFix" result="effect1_dropShadow_10950_57766"/>
<feBlend mode="normal" in="SourceGraphic" in2="effect1_dropShadow_10950_57766" result="shape"/>
</filter>
<clipPath id="clip0_10950_57766">
<rect width="100.434" height="90.8455" fill="white"/>
</clipPath>
<clipPath id="clip1_10950_57766">
<path d="M0 11.709H131.618V21.601H0V11.709Z" fill="white"/>
</clipPath>
<clipPath id="clip2_10950_57766">
<path d="M0 21.6016H131.618V31.4936H0V21.6016Z" fill="white"/>
</clipPath>
<clipPath id="clip3_10950_57766">
<path d="M0 31.4941H131.618V41.3861H0V31.4941Z" fill="white"/>
</clipPath>
<clipPath id="clip4_10950_57766">
<path d="M0 41.3848H131.618V51.2768H0V41.3848Z" fill="white"/>
</clipPath>
<clipPath id="clip5_10950_57766">
<path d="M0 51.2773H131.618V61.1693H0V51.2773Z" fill="white"/>
</clipPath>
<clipPath id="clip6_10950_57766">
<path d="M0 61.1699H131.618V71.0619H0V61.1699Z" fill="white"/>
</clipPath>
<clipPath id="clip7_10950_57766">
<path d="M0 71.0605H131.618V80.9525H0V71.0605Z" fill="white"/>
</clipPath>
<clipPath id="clip8_10950_57766">
<path d="M0 80.9531H131.618V90.8451H0V80.9531Z" fill="white"/>
</clipPath>
<clipPath id="clip9_10950_57766">
<rect x="100.434" width="59.5665" height="90.856" fill="white"/>
</clipPath>
<clipPath id="clip10_10950_57766">
<rect width="59.5665" height="42.5637" fill="white" transform="translate(100.434 11.7656)"/>
</clipPath>
<clipPath id="clip11_10950_57766">
<rect width="10.0643" height="10.0643" fill="white" transform="translate(104.982 23.6543)"/>
</clipPath>
<clipPath id="clip12_10950_57766">
<rect width="51.1796" height="5.88311" fill="white" transform="translate(104.627 59.3926)"/>
</clipPath>
<clipPath id="clip13_10950_57766">
<rect width="50.7602" height="8.38693" fill="white" transform="translate(104.837 78.0664)"/>
</clipPath>
</defs>
</svg>
