<svg width="248" height="60" viewBox="0 0 248 60" fill="none" xmlns="http://www.w3.org/2000/svg">
<g filter="url(#filter0_dd_9517_206118)">
<path d="M4 1.59961H244V52.7996H4V1.59961Z" fill="white"/>
<path d="M243.6 2V52.3994H4.40039V2H243.6Z" stroke="#C2D1EB" stroke-width="0.8"/>
<path d="M20.8002 15.5996H227.2C228.746 15.5996 230 16.853 230 18.3994V35.999C230 37.5454 228.746 38.7988 227.2 38.7988H20.8002C19.2538 38.7988 18.0004 37.5454 18.0004 35.999V18.3994C18.0004 16.853 19.2538 15.5996 20.8002 15.5996Z" fill="white"/>
<path d="M20.8002 15.5996H227.2C228.746 15.5996 230 16.853 230 18.3994V35.999C230 37.5454 228.746 38.7988 227.2 38.7988H20.8002C19.2538 38.7988 18.0004 37.5454 18.0004 35.999V18.3994C18.0004 16.853 19.2538 15.5996 20.8002 15.5996Z" stroke="#C2D1EB" stroke-width="0.8"/>
<path d="M30.1272 32.7996H27.4724C27.2182 32.7996 27.0119 32.6206 27.0119 32.3996C27.0119 32.1786 27.2182 31.9996 27.4724 31.9996H28.3394V30.8589C26.5999 30.7431 25.7307 29.9756 25.3027 29.3239C24.8054 28.5664 24.7997 27.8094 24.7997 27.7776C24.7997 27.5566 25.0059 27.3776 25.2602 27.3776C25.5144 27.3776 25.7197 27.5559 25.7207 27.7761C25.7207 27.7896 25.7334 28.3819 26.1197 28.9531C26.6224 29.6969 27.5242 30.0741 28.7999 30.0741C30.0757 30.0741 30.9774 29.6971 31.4802 28.9531C31.8687 28.3784 31.8789 27.7821 31.8792 27.7761C31.8792 27.5551 32.0854 27.3769 32.3397 27.3769C32.5939 27.3769 32.8002 27.5569 32.8002 27.7776C32.8002 27.8094 32.7944 28.5664 32.2972 29.3239C31.8692 29.9759 30.9999 30.7431 29.2604 30.8589V31.9996H30.1274C30.3817 31.9996 30.5879 32.1786 30.5879 32.3996C30.5879 32.6206 30.3817 32.7996 30.1274 32.7996H30.1272ZM28.7999 29.3329C27.9029 29.3329 27.2067 28.9806 26.8394 28.3411C26.5774 27.8849 26.5697 27.4411 26.5697 27.3921V23.5404C26.5697 23.4914 26.5772 23.0479 26.8394 22.5914C27.2067 21.9519 27.9029 21.5996 28.7999 21.5996C29.6969 21.5996 30.3932 21.9519 30.7604 22.5914C31.0224 23.0476 31.0302 23.4914 31.0302 23.5404V27.3921C31.0302 27.4411 31.0227 27.8846 30.7604 28.3411C30.3932 28.9806 29.6969 29.3329 28.7999 29.3329ZM28.7999 22.3996C28.2572 22.3996 27.8892 22.5726 27.6752 22.9286C27.4969 23.2249 27.4907 23.5396 27.4907 23.5429V27.3924C27.4907 27.3924 27.4969 27.7079 27.6752 28.0041C27.8892 28.3601 28.2572 28.5331 28.7999 28.5331C29.3427 28.5331 29.7107 28.3601 29.9247 28.0041C30.1029 27.7079 30.1092 27.3931 30.1092 27.3899V23.5404C30.1092 23.5404 30.1029 23.2249 29.9247 22.9286C29.7107 22.5726 29.3427 22.3996 28.7999 22.3996Z" fill="#5473C8"/>
<rect width="0.8" height="12.8" transform="translate(39.9999 20.7988)" fill="#C2D1EB"/>
<rect x="50.4" y="24.7988" width="65.6" height="4.8" rx="2.4" fill="#90ABDA"/>
<path d="M224.545 27.5974L214.158 31.9687C213.829 32.1071 213.502 31.7677 213.628 31.4196L214.835 28.0845C214.889 27.9353 215.018 27.8302 215.168 27.8119C220.612 27.2004 218.796 27.3964 220.612 27.2004C218.796 27.0044 220.612 27.2004 215.168 26.5888C215.018 26.5706 214.889 26.4655 214.835 26.3163L213.628 22.9812C213.502 22.6331 213.829 22.2937 214.158 22.432L224.545 26.8034C224.885 26.9468 224.885 27.454 224.545 27.5974Z" fill="#5473C8"/>
</g>
<defs>
<filter id="filter0_dd_9517_206118" x="0" y="-0.000390649" width="248" height="59.9992" filterUnits="userSpaceOnUse" color-interpolation-filters="sRGB">
<feFlood flood-opacity="0" result="BackgroundImageFix"/>
<feColorMatrix in="SourceAlpha" type="matrix" values="0 0 0 0 0 0 0 0 0 0 0 0 0 0 0 0 0 0 127 0" result="hardAlpha"/>
<feOffset dy="3.2"/>
<feGaussianBlur stdDeviation="2"/>
<feColorMatrix type="matrix" values="0 0 0 0 0.239216 0 0 0 0 0.341176 0 0 0 0 0.847059 0 0 0 0.04 0"/>
<feBlend mode="normal" in2="BackgroundImageFix" result="effect1_dropShadow_9517_206118"/>
<feColorMatrix in="SourceAlpha" type="matrix" values="0 0 0 0 0 0 0 0 0 0 0 0 0 0 0 0 0 0 127 0" result="hardAlpha"/>
<feOffset dy="1.6"/>
<feGaussianBlur stdDeviation="1.6"/>
<feColorMatrix type="matrix" values="0 0 0 0 0.239216 0 0 0 0 0.341176 0 0 0 0 0.847059 0 0 0 0.03 0"/>
<feBlend mode="normal" in2="effect1_dropShadow_9517_206118" result="effect2_dropShadow_9517_206118"/>
<feBlend mode="normal" in="SourceGraphic" in2="effect2_dropShadow_9517_206118" result="shape"/>
</filter>
</defs>
</svg>
