<svg width="248" height="60" viewBox="0 0 248 60" fill="none" xmlns="http://www.w3.org/2000/svg">
<g filter="url(#filter0_dd_9517_205331)">
<path d="M4 1.59961H244V52.7996H4V1.59961Z" fill="#121D39"/>
<path d="M243.6 2V52.3994H4.40039V2H243.6Z" stroke="#2A417E" stroke-width="0.8"/>
<path d="M20.8003 15.5996H227.2C228.746 15.5996 230 16.853 230 18.3994V35.999C230 37.5454 228.746 38.7988 227.2 38.7988H20.8003C19.2539 38.7988 18.0005 37.5454 18.0005 35.999V18.3994C18.0005 16.853 19.2539 15.5996 20.8003 15.5996Z" fill="#0D1426"/>
<path d="M20.8003 15.5996H227.2C228.746 15.5996 230 16.853 230 18.3994V35.999C230 37.5454 228.746 38.7988 227.2 38.7988H20.8003C19.2539 38.7988 18.0005 37.5454 18.0005 35.999V18.3994C18.0005 16.853 19.2539 15.5996 20.8003 15.5996Z" stroke="#2A417E" stroke-width="0.8"/>
<path d="M30.1275 32.7996H27.4728C27.2185 32.7996 27.0123 32.6206 27.0123 32.3996C27.0123 32.1786 27.2185 31.9996 27.4728 31.9996H28.3398V30.8589C26.6003 30.7431 25.731 29.9756 25.303 29.3239C24.8058 28.5664 24.8 27.8094 24.8 27.7776C24.8 27.5566 25.0063 27.3776 25.2605 27.3776C25.5148 27.3776 25.72 27.5559 25.721 27.7761C25.721 27.7896 25.7338 28.3819 26.12 28.9531C26.6228 29.6969 27.5245 30.0741 28.8003 30.0741C30.076 30.0741 30.9778 29.6971 31.4805 28.9531C31.869 28.3784 31.8793 27.7821 31.8795 27.7761C31.8795 27.5551 32.0858 27.3769 32.34 27.3769C32.5943 27.3769 32.8005 27.5569 32.8005 27.7776C32.8005 27.8094 32.7948 28.5664 32.2975 29.3239C31.8695 29.9759 31.0003 30.7431 29.2608 30.8589V31.9996H30.1278C30.382 31.9996 30.5883 32.1786 30.5883 32.3996C30.5883 32.6206 30.382 32.7996 30.1278 32.7996H30.1275ZM28.8003 29.3329C27.9033 29.3329 27.207 28.9806 26.8398 28.3411C26.5778 27.8849 26.57 27.4411 26.57 27.3921V23.5404C26.57 23.4914 26.5775 23.0479 26.8398 22.5914C27.207 21.9519 27.9033 21.5996 28.8003 21.5996C29.6973 21.5996 30.3935 21.9519 30.7608 22.5914C31.0228 23.0476 31.0305 23.4914 31.0305 23.5404V27.3921C31.0305 27.4411 31.023 27.8846 30.7608 28.3411C30.3935 28.9806 29.6973 29.3329 28.8003 29.3329ZM28.8003 22.3996C28.2575 22.3996 27.8895 22.5726 27.6755 22.9286C27.4973 23.2249 27.491 23.5396 27.491 23.5429V27.3924C27.491 27.3924 27.4973 27.7079 27.6755 28.0041C27.8895 28.3601 28.2575 28.5331 28.8003 28.5331C29.343 28.5331 29.711 28.3601 29.925 28.0041C30.1033 27.7079 30.1095 27.3931 30.1095 27.3899V23.5404C30.1095 23.5404 30.1033 23.2249 29.925 22.9286C29.711 22.5726 29.343 22.3996 28.8003 22.3996Z" fill="#6581CD"/>
<rect width="0.8" height="12.8" transform="translate(40.0002 20.7988)" fill="#2A417E"/>
<rect x="50.4001" y="24.7988" width="65.6" height="4.8" rx="2.4" fill="#3958AC"/>
<path d="M224.545 27.5974L214.158 31.9687C213.83 32.1071 213.502 31.7677 213.628 31.4196L214.835 28.0845C214.889 27.9353 215.018 27.8302 215.168 27.8119C220.612 27.2004 218.796 27.3964 220.612 27.2004C218.796 27.0044 220.612 27.2004 215.168 26.5888C215.018 26.5706 214.889 26.4655 214.835 26.3163L213.628 22.9812C213.502 22.6331 213.83 22.2937 214.158 22.432L224.545 26.8034C224.885 26.9468 224.885 27.454 224.545 27.5974Z" fill="#6581CD"/>
</g>
<defs>
<filter id="filter0_dd_9517_205331" x="0" y="-0.000390649" width="248" height="59.9992" filterUnits="userSpaceOnUse" color-interpolation-filters="sRGB">
<feFlood flood-opacity="0" result="BackgroundImageFix"/>
<feColorMatrix in="SourceAlpha" type="matrix" values="0 0 0 0 0 0 0 0 0 0 0 0 0 0 0 0 0 0 127 0" result="hardAlpha"/>
<feOffset dy="3.2"/>
<feGaussianBlur stdDeviation="2"/>
<feColorMatrix type="matrix" values="0 0 0 0 0.239216 0 0 0 0 0.341176 0 0 0 0 0.847059 0 0 0 0.04 0"/>
<feBlend mode="normal" in2="BackgroundImageFix" result="effect1_dropShadow_9517_205331"/>
<feColorMatrix in="SourceAlpha" type="matrix" values="0 0 0 0 0 0 0 0 0 0 0 0 0 0 0 0 0 0 127 0" result="hardAlpha"/>
<feOffset dy="1.6"/>
<feGaussianBlur stdDeviation="1.6"/>
<feColorMatrix type="matrix" values="0 0 0 0 0.239216 0 0 0 0 0.341176 0 0 0 0 0.847059 0 0 0 0.03 0"/>
<feBlend mode="normal" in2="effect1_dropShadow_9517_205331" result="effect2_dropShadow_9517_205331"/>
<feBlend mode="normal" in="SourceGraphic" in2="effect2_dropShadow_9517_205331" result="shape"/>
</filter>
</defs>
</svg>
