<svg width="125" height="61" viewBox="0 0 125 61" fill="none" xmlns="http://www.w3.org/2000/svg">
<g filter="url(#filter0_d_10963_54215)">
<path d="M2.1333 7.46641C2.1333 3.93179 4.99868 1.06641 8.5333 1.06641H115.733C119.268 1.06641 122.133 3.93178 122.133 7.46641V51.1997C122.133 54.7344 119.268 57.5997 115.733 57.5997H8.5333C4.99868 57.5997 2.1333 54.7344 2.1333 51.1997V7.46641Z" fill="#19274C" shape-rendering="crispEdges"/>
<path d="M8.53369 1.33301H115.733C119.12 1.33301 121.867 4.07945 121.867 7.4668V51.2002C121.866 54.5873 119.12 57.333 115.733 57.333H8.53369C5.1465 57.333 2.40015 54.5873 2.3999 51.2002V7.4668C2.3999 4.07945 5.14634 1.33301 8.53369 1.33301Z" stroke="#3958AC" stroke-width="0.533333" shape-rendering="crispEdges"/>
<rect x="9.06665" y="10.1328" width="98.6667" height="3.2" rx="1.6" fill="#90ABDA"/>
<rect x="9.06665" y="19.7324" width="57.0667" height="3.2" rx="1.6" fill="#90ABDA"/>
<g clip-path="url(#clip0_10963_54215)">
<path d="M16 35.999C20.271 35.999 23.7334 39.4614 23.7334 43.7324C23.7334 48.0034 20.271 51.4658 16 51.4658C11.729 51.4658 8.2666 48.0034 8.2666 43.7324C8.2666 39.4614 11.729 35.999 16 35.999Z" stroke="white" stroke-opacity="0.01" stroke-width="0.533333"/>
<g clip-path="url(#clip1_10963_54215)">
<path d="M14.8099 40.7173C15.7531 39.7583 17.2843 39.7583 18.2276 40.7173C19.1684 41.6738 19.1684 43.2227 18.2276 44.1792L15.4942 46.9584C14.8306 47.6331 13.7527 47.6331 13.089 46.9584C12.4279 46.2862 12.4279 45.1984 13.089 44.5261L15.8224 41.7464C16.2064 41.356 16.831 41.3561 17.2151 41.7464C17.5967 42.1345 17.5967 42.7621 17.2151 43.1501L14.4817 45.9292C14.3785 46.0342 14.2097 46.0356 14.1046 45.9324C13.9996 45.8291 13.9982 45.6603 14.1015 45.5553L16.8349 42.7761C17.0124 42.5956 17.0124 42.3009 16.8349 42.1204C16.6597 41.9425 16.3776 41.9424 16.2026 42.1204L13.4692 44.9001C13.0122 45.3648 13.0122 46.1197 13.4692 46.5845C13.9239 47.0467 14.6593 47.0467 15.114 46.5845L17.8474 43.8053C18.584 43.0563 18.584 41.8402 17.8474 41.0912C17.1131 40.3448 15.9248 40.3448 15.1906 41.0912L12.4567 43.8704C12.3535 43.9754 12.1846 43.9768 12.0796 43.8735C11.9747 43.7702 11.9733 43.6014 12.0765 43.4964L14.8099 40.7173Z" fill="#90ABDA"/>
</g>
<path d="M90.1333 35.999C94.4043 35.999 97.8667 39.4614 97.8667 43.7324C97.8667 48.0034 94.4043 51.4658 90.1333 51.4658C85.8623 51.4658 82.3999 48.0034 82.3999 43.7324C82.3999 39.4614 85.8623 35.999 90.1333 35.999Z" stroke="white" stroke-opacity="0.01" stroke-width="0.533333"/>
<path d="M90.7514 47.1971H88.9815C88.812 47.1971 88.6745 47.0778 88.6745 46.9305C88.6745 46.7831 88.812 46.6638 88.9815 46.6638H89.5595V45.9033C88.3999 45.8261 87.8204 45.3145 87.535 44.88C87.2035 44.375 87.1997 43.8703 87.1997 43.8491C87.1997 43.7018 87.3372 43.5825 87.5067 43.5825C87.6762 43.5825 87.813 43.7013 87.8137 43.8481C87.8137 43.8571 87.8222 44.252 88.0797 44.6328C88.4149 45.1286 89.016 45.3801 89.8665 45.3801C90.717 45.3801 91.3182 45.1288 91.6534 44.6328C91.9124 44.2496 91.9192 43.8521 91.9194 43.8481C91.9194 43.7008 92.0569 43.582 92.2264 43.582C92.3959 43.582 92.5334 43.702 92.5334 43.8491C92.5334 43.8703 92.5295 44.375 92.198 44.88C91.9127 45.3146 91.3332 45.8261 90.1735 45.9033V46.6638H90.7515C90.921 46.6638 91.0585 46.7831 91.0585 46.9305C91.0585 47.0778 90.921 47.1971 90.7515 47.1971H90.7514ZM89.8665 44.886C89.2685 44.886 88.8044 44.6511 88.5595 44.2248C88.3849 43.9206 88.3797 43.6248 88.3797 43.5921V41.0243C88.3797 40.9916 88.3847 40.696 88.5595 40.3916C88.8044 39.9653 89.2685 39.7305 89.8665 39.7305C90.4645 39.7305 90.9287 39.9653 91.1735 40.3916C91.3482 40.6958 91.3534 40.9916 91.3534 41.0243V43.5921C91.3534 43.6248 91.3484 43.9205 91.1735 44.2248C90.9287 44.6511 90.4645 44.886 89.8665 44.886ZM89.8665 40.2638C89.5047 40.2638 89.2594 40.3791 89.1167 40.6165C88.9979 40.814 88.9937 41.0238 88.9937 41.026V43.5923C88.9937 43.5923 88.9979 43.8026 89.1167 44.0001C89.2594 44.2375 89.5047 44.3528 89.8665 44.3528C90.2284 44.3528 90.4737 44.2375 90.6164 44.0001C90.7352 43.8026 90.7394 43.5928 90.7394 43.5906V41.0243C90.7394 41.0243 90.7352 40.814 90.6164 40.6165C90.4737 40.3791 90.2284 40.2638 89.8665 40.2638Z" fill="#C2D1EB"/>
<path d="M108.267 35.999C112.538 35.999 116 39.4614 116 43.7324C116 48.0034 112.538 51.4658 108.267 51.4658C103.996 51.4658 100.533 48.0034 100.533 43.7324C100.533 39.4614 103.996 35.999 108.267 35.999Z" fill="#2A417E"/>
<path d="M108.267 35.999C112.538 35.999 116 39.4614 116 43.7324C116 48.0034 112.538 51.4658 108.267 51.4658C103.996 51.4658 100.533 48.0034 100.533 43.7324C100.533 39.4614 103.996 35.999 108.267 35.999Z" stroke="#2A417E" stroke-width="0.533333"/>
<path d="M107.406 40.3294C107.406 40.1453 107.555 39.9961 107.739 39.9961C107.923 39.9961 108.072 40.1453 108.072 40.3294V46.0628C108.072 46.2469 107.923 46.3961 107.739 46.3961C107.555 46.3961 107.406 46.2469 107.406 46.0628V40.3294Z" fill="#C2D1EB"/>
<path d="M107.521 40.5698C107.391 40.4396 107.391 40.2286 107.521 40.0984C107.651 39.9682 107.862 39.9682 107.993 40.0984L110.161 42.2669C110.291 42.397 110.291 42.6081 110.161 42.7383C110.031 42.8685 109.82 42.8685 109.69 42.7383L107.521 40.5698Z" fill="#C2D1EB"/>
<path d="M107.948 40.5699C108.078 40.4397 108.078 40.2286 107.948 40.0985C107.818 39.9683 107.607 39.9683 107.477 40.0985L105.308 42.2669C105.178 42.3971 105.178 42.6082 105.308 42.7383C105.438 42.8685 105.649 42.8685 105.779 42.7383L107.948 40.5699Z" fill="#C2D1EB"/>
</g>
</g>
<defs>
<filter id="filter0_d_10963_54215" x="-3.26633e-05" y="-0.000260472" width="124.267" height="60.7999" filterUnits="userSpaceOnUse" color-interpolation-filters="sRGB">
<feFlood flood-opacity="0" result="BackgroundImageFix"/>
<feColorMatrix in="SourceAlpha" type="matrix" values="0 0 0 0 0 0 0 0 0 0 0 0 0 0 0 0 0 0 127 0" result="hardAlpha"/>
<feOffset dy="1.06667"/>
<feGaussianBlur stdDeviation="1.06667"/>
<feComposite in2="hardAlpha" operator="out"/>
<feColorMatrix type="matrix" values="0 0 0 0 0.223529 0 0 0 0 0.345098 0 0 0 0 0.67451 0 0 0 0.1 0"/>
<feBlend mode="normal" in2="BackgroundImageFix" result="effect1_dropShadow_10963_54215"/>
<feBlend mode="normal" in="SourceGraphic" in2="effect1_dropShadow_10963_54215" result="shape"/>
</filter>
<clipPath id="clip0_10963_54215">
<rect width="118.933" height="21.3333" fill="white" transform="translate(2.66663 35.7324)"/>
</clipPath>
<clipPath id="clip1_10963_54215">
<rect width="8.53333" height="8.53333" fill="white" transform="translate(11.7333 39.4648)"/>
</clipPath>
</defs>
</svg>
