<svg width="125" height="61" viewBox="0 0 125 61" fill="none" xmlns="http://www.w3.org/2000/svg">
<g filter="url(#filter0_d_10950_57769)">
<path d="M2.13336 7.46641C2.13336 3.93179 4.99874 1.06641 8.53336 1.06641H115.733C119.268 1.06641 122.133 3.93178 122.133 7.46641V51.1997C122.133 54.7344 119.268 57.5997 115.733 57.5997H8.53336C4.99874 57.5997 2.13336 54.7344 2.13336 51.1997V7.46641Z" fill="white" shape-rendering="crispEdges"/>
<path d="M8.53375 1.33301H115.733C119.12 1.33301 121.867 4.07945 121.867 7.4668V51.2002C121.867 54.5873 119.12 57.333 115.733 57.333H8.53375C5.14656 57.333 2.40021 54.5873 2.39996 51.2002V7.4668C2.39996 4.07945 5.14641 1.33301 8.53375 1.33301Z" stroke="#C2D1EB" stroke-width="0.533333" shape-rendering="crispEdges"/>
<rect x="9.06671" y="10.1328" width="98.6667" height="3.2" rx="1.6" fill="#5473C8"/>
<rect x="9.06671" y="19.7324" width="57.0667" height="3.2" rx="1.6" fill="#5473C8"/>
<g clip-path="url(#clip0_10950_57769)">
<path d="M16 35.999C20.271 35.999 23.7334 39.4614 23.7334 43.7324C23.7334 48.0034 20.271 51.4658 16 51.4658C11.729 51.4658 8.2666 48.0034 8.2666 43.7324C8.2666 39.4614 11.729 35.999 16 35.999Z" stroke="white" stroke-opacity="0.01" stroke-width="0.533333"/>
<g clip-path="url(#clip1_10950_57769)">
<path d="M14.8099 40.7173C15.7531 39.7583 17.2843 39.7583 18.2276 40.7173C19.1684 41.6738 19.1684 43.2227 18.2276 44.1792L15.4942 46.9584C14.8306 47.6331 13.7527 47.6331 13.089 46.9584C12.4279 46.2862 12.4279 45.1984 13.089 44.5261L15.8224 41.7464C16.2064 41.356 16.831 41.3561 17.2151 41.7464C17.5967 42.1345 17.5967 42.7621 17.2151 43.1501L14.4817 45.9292C14.3785 46.0342 14.2097 46.0356 14.1046 45.9324C13.9996 45.8291 13.9982 45.6603 14.1015 45.5553L16.8349 42.7761C17.0124 42.5956 17.0124 42.3009 16.8349 42.1204C16.6597 41.9425 16.3776 41.9424 16.2026 42.1204L13.4692 44.9001C13.0122 45.3648 13.0122 46.1197 13.4692 46.5845C13.9239 47.0467 14.6593 47.0467 15.114 46.5845L17.8474 43.8053C18.584 43.0563 18.584 41.8402 17.8474 41.0912C17.1131 40.3448 15.9248 40.3448 15.1906 41.0912L12.4567 43.8704C12.3535 43.9754 12.1846 43.9768 12.0796 43.8735C11.9747 43.7702 11.9733 43.6014 12.0765 43.4964L14.8099 40.7173Z" fill="#5473C8"/>
</g>
<path d="M90.1334 35.999C94.4044 35.999 97.8668 39.4614 97.8668 43.7324C97.8668 48.0034 94.4044 51.4658 90.1334 51.4658C85.8624 51.4658 82.4 48.0034 82.4 43.7324C82.4 39.4614 85.8624 35.999 90.1334 35.999Z" stroke="white" stroke-opacity="0.01" stroke-width="0.533333"/>
<path d="M90.7516 47.1971H88.9817C88.8122 47.1971 88.6747 47.0778 88.6747 46.9305C88.6747 46.7831 88.8122 46.6638 88.9817 46.6638H89.5597V45.9033C88.4001 45.8261 87.8206 45.3145 87.5352 44.88C87.2037 44.375 87.1999 43.8703 87.1999 43.8491C87.1999 43.7018 87.3374 43.5825 87.5069 43.5825C87.6764 43.5825 87.8132 43.7013 87.8139 43.8481C87.8139 43.8571 87.8224 44.252 88.0799 44.6328C88.4151 45.1286 89.0162 45.3801 89.8667 45.3801C90.7172 45.3801 91.3184 45.1288 91.6536 44.6328C91.9126 44.2496 91.9194 43.8521 91.9196 43.8481C91.9196 43.7008 92.0571 43.582 92.2266 43.582C92.3961 43.582 92.5336 43.702 92.5336 43.8491C92.5336 43.8703 92.5297 44.375 92.1982 44.88C91.9129 45.3146 91.3334 45.8261 90.1737 45.9033V46.6638H90.7517C90.9212 46.6638 91.0587 46.7831 91.0587 46.9305C91.0587 47.0778 90.9212 47.1971 90.7517 47.1971H90.7516ZM89.8667 44.886C89.2687 44.886 88.8046 44.6511 88.5597 44.2248C88.3851 43.9206 88.3799 43.6248 88.3799 43.5921V41.0243C88.3799 40.9916 88.3849 40.696 88.5597 40.3916C88.8046 39.9653 89.2687 39.7305 89.8667 39.7305C90.4647 39.7305 90.9289 39.9653 91.1737 40.3916C91.3484 40.6958 91.3536 40.9916 91.3536 41.0243V43.5921C91.3536 43.6248 91.3486 43.9205 91.1737 44.2248C90.9289 44.6511 90.4647 44.886 89.8667 44.886ZM89.8667 40.2638C89.5049 40.2638 89.2596 40.3791 89.1169 40.6165C88.9981 40.814 88.9939 41.0238 88.9939 41.026V43.5923C88.9939 43.5923 88.9981 43.8026 89.1169 44.0001C89.2596 44.2375 89.5049 44.3528 89.8667 44.3528C90.2286 44.3528 90.4739 44.2375 90.6166 44.0001C90.7354 43.8026 90.7396 43.5928 90.7396 43.5906V41.0243C90.7396 41.0243 90.7354 40.814 90.6166 40.6165C90.4739 40.3791 90.2286 40.2638 89.8667 40.2638Z" fill="#3958AC"/>
<path d="M108.267 35.999C112.538 35.999 116 39.4614 116 43.7324C116 48.0034 112.538 51.4658 108.267 51.4658C103.996 51.4658 100.533 48.0034 100.533 43.7324C100.533 39.4614 103.996 35.999 108.267 35.999Z" fill="#E4ECF6"/>
<path d="M108.267 35.999C112.538 35.999 116 39.4614 116 43.7324C116 48.0034 112.538 51.4658 108.267 51.4658C103.996 51.4658 100.533 48.0034 100.533 43.7324C100.533 39.4614 103.996 35.999 108.267 35.999Z" stroke="#E4ECF6" stroke-width="0.533333"/>
<path d="M107.406 40.3294C107.406 40.1453 107.555 39.9961 107.739 39.9961C107.923 39.9961 108.072 40.1453 108.072 40.3294V46.0628C108.072 46.2469 107.923 46.3961 107.739 46.3961C107.555 46.3961 107.406 46.2469 107.406 46.0628V40.3294Z" fill="#3958AC"/>
<path d="M107.522 40.5698C107.391 40.4396 107.391 40.2286 107.522 40.0984C107.652 39.9682 107.863 39.9682 107.993 40.0984L110.161 42.2669C110.292 42.397 110.292 42.6081 110.161 42.7383C110.031 42.8685 109.82 42.8685 109.69 42.7383L107.522 40.5698Z" fill="#3958AC"/>
<path d="M107.948 40.5699C108.078 40.4397 108.078 40.2286 107.948 40.0985C107.818 39.9683 107.607 39.9683 107.477 40.0985L105.308 42.2669C105.178 42.3971 105.178 42.6082 105.308 42.7383C105.439 42.8685 105.65 42.8685 105.78 42.7383L107.948 40.5699Z" fill="#3958AC"/>
</g>
</g>
<defs>
<filter id="filter0_d_10950_57769" x="2.83718e-05" y="-0.000260472" width="124.267" height="60.7999" filterUnits="userSpaceOnUse" color-interpolation-filters="sRGB">
<feFlood flood-opacity="0" result="BackgroundImageFix"/>
<feColorMatrix in="SourceAlpha" type="matrix" values="0 0 0 0 0 0 0 0 0 0 0 0 0 0 0 0 0 0 127 0" result="hardAlpha"/>
<feOffset dy="1.06667"/>
<feGaussianBlur stdDeviation="1.06667"/>
<feComposite in2="hardAlpha" operator="out"/>
<feColorMatrix type="matrix" values="0 0 0 0 0.223529 0 0 0 0 0.345098 0 0 0 0 0.67451 0 0 0 0.1 0"/>
<feBlend mode="normal" in2="BackgroundImageFix" result="effect1_dropShadow_10950_57769"/>
<feBlend mode="normal" in="SourceGraphic" in2="effect1_dropShadow_10950_57769" result="shape"/>
</filter>
<clipPath id="clip0_10950_57769">
<rect width="118.933" height="21.3333" fill="white" transform="translate(2.66669 35.7324)"/>
</clipPath>
<clipPath id="clip1_10950_57769">
<rect width="8.53333" height="8.53333" fill="white" transform="translate(11.7333 39.4648)"/>
</clipPath>
</defs>
</svg>
