<svg xmlns="http://www.w3.org/2000/svg" xmlns:xlink="http://www.w3.org/1999/xlink" viewBox="0 0 1 1">
    <clipPath id="featured" clipPathUnits="objectBoundingBox">
        <path fill="black" d="M0.479,0.374C0.454,0.31,0.381,0.239,0.316,0.218L0.292,0.209c-0.065-0.021-0.158-0.02-0.206,0.004
       		C0.039,0.237,0.04,0.297,0.088,0.345l0.389,0.389C0.525,0.781,0.58,0.812,0.598,0.8c0.018-0.012,0.013-0.074-0.011-0.139
       		L0.479,0.374z"/>
        <path fill="black" d="M0.729,0.577C0.675,0.62,0.615,0.612,0.596,0.561c-0.02-0.051-0.02-0.116-0.002-0.145
            c0.019-0.027,0.078-0.065,0.133-0.084c0.054-0.018,0.138-0.018,0.186,0c0.048,0.019,0.043,0.067-0.011,0.11L0.729,0.577z"/>
        <path fill="black" d="M0.432,0.75c0.018,0.018,0.02,0.044,0.003,0.057C0.417,0.82,0.391,0.822,0.376,0.813
            C0.36,0.803,0.359,0.776,0.373,0.755S0.414,0.731,0.432,0.75z"/>
    </clipPath>
    <clipPath id="mostviewed" clipPathUnits="objectBoundingBox">
        <path fill="black" d="M0.246,0.408c0-0.052,0.041-0.105,0.09-0.119l0.26-0.072c0.05-0.014,0.09-0.051,0.09-0.082
       		S0.646,0.09,0.597,0.104L0.243,0.202c-0.05,0.014-0.09,0.067-0.09,0.119v0.411c0,0.052,0.021,0.088,0.046,0.08
       		c0.026-0.007,0.047-0.055,0.047-0.106V0.408z"/>
       	<path fill="black" d="M0.403,0.336c-0.05,0.014-0.09,0.067-0.09,0.119v0.373c0,0.052,0.041,0.082,0.09,0.068l0.354-0.099
       		c0.05-0.014,0.09-0.067,0.09-0.119V0.306c0-0.052-0.041-0.082-0.09-0.068L0.403,0.336z M0.684,0.63
       		C0.697,0.665,0.68,0.684,0.646,0.672c-0.035-0.013-0.09,0.007-0.125,0.044c-0.034,0.037-0.051,0.03-0.038-0.015
       		c0.013-0.044-0.004-0.092-0.038-0.104C0.41,0.584,0.417,0.561,0.459,0.546C0.501,0.531,0.546,0.481,0.56,0.438
       		C0.572,0.393,0.594,0.385,0.607,0.42C0.62,0.456,0.666,0.473,0.708,0.458c0.042-0.015,0.049,0.003,0.015,0.04
       		C0.688,0.535,0.671,0.595,0.684,0.63z"/>
    </clipPath>
    <clipPath id="trash" clipPathUnits="objectBoundingBox">
        <path fill="black" d="M0.748,0.191c0.01,0.039-0.015,0.08-0.056,0.092L0.309,0.385C0.268,0.396,0.225,0.373,0.215,0.334
       		c-0.011-0.04,0.014-0.081,0.056-0.093L0.653,0.14C0.695,0.128,0.737,0.151,0.748,0.191z"/>
       	<path fill="black" d="M0.421,0.881c-0.031,0-0.057-0.021-0.063-0.052L0.295,0.5C0.291,0.481,0.296,0.462,0.309,0.447
       		c0.012-0.015,0.03-0.022,0.049-0.022h0.383c0.019,0,0.037,0.008,0.049,0.022C0.802,0.462,0.807,0.481,0.804,0.5L0.74,0.829
       		C0.733,0.86,0.708,0.881,0.677,0.881H0.421z"/>
    </clipPath>
    <clipPath id="contacts" clipPathUnits="objectBoundingBox">
        <circle fill="black" cx="0.496" cy="0.211" r="0.13"/>
       	<path fill="black" d="M0.723,0.604C0.76,0.715,0.725,0.831,0.645,0.861c-0.081,0.031-0.212,0.031-0.293,0
       		c-0.08-0.03-0.116-0.146-0.078-0.258c0.037-0.11,0.138-0.201,0.225-0.201S0.686,0.493,0.723,0.604z"/>
    </clipPath>
    <clipPath id="history" clipPathUnits="objectBoundingBox">
        <path fill="black" d="M0.199,0.47c-0.052,0-0.071,0.035-0.042,0.078l0.107,0.16c0.029,0.043,0.076,0.043,0.104,0
       		l0.106-0.16C0.504,0.505,0.485,0.47,0.433,0.47H0.199z"/>
       	<path fill="black" d="M0.801,0.501c0-0.121-0.098-0.22-0.219-0.22c-0.121,0-0.219,0.099-0.219,0.22H0.269
       		c0-0.173,0.14-0.313,0.313-0.313s0.313,0.141,0.313,0.313s-0.14,0.313-0.313,0.313V0.72C0.703,0.72,0.801,0.621,0.801,0.501z"/>
    </clipPath>
    <clipPath id="recents" clipPathUnits="objectBoundingBox">
        <path fill="black" d="M0.5,0.096c-0.224,0-0.405,0.181-0.405,0.404S0.276,0.905,0.5,0.905S0.905,0.724,0.905,0.5
       		S0.724,0.096,0.5,0.096z M0.5,0.821c-0.177,0-0.321-0.144-0.321-0.321c0-0.177,0.144-0.32,0.321-0.32c0.177,0,0.32,0.144,0.32,0.32
       		C0.82,0.678,0.677,0.821,0.5,0.821z"/>
       	<path fill="black" d="M0.578,0.469c-0.026,0-0.047-0.021-0.047-0.047V0.313c0-0.025-0.021-0.047-0.046-0.047
       		c-0.026,0-0.047,0.021-0.047,0.047v0.108c0,0.025,0,0.068,0,0.094s0.021,0.047,0.047,0.047h0.002c0.026,0,0.068,0,0.094,0h0.075
       		c0.026,0,0.047-0.021,0.047-0.047S0.681,0.469,0.655,0.469H0.578z"/>
    </clipPath>
    <clipPath id="info" clipPathUnits="objectBoundingBox">
        <path fill="black" d="M0.609,0.795c0,0.061-0.049,0.11-0.109,0.11s-0.109-0.05-0.109-0.11v-0.31
       		c0-0.061,0.049-0.11,0.109-0.11s0.109,0.05,0.109,0.11V0.795z"/>
       	<circle fill="black" cx="0.5" cy="0.204" r="0.109"/>
    </clipPath>
    <clipPath id="bookmarks" clipPathUnits="objectBoundingBox">
        <path fill="black" d="M0.078,0.318c0.058-0.034,0.126-0.054,0.198-0.054c0.073,0,0.14,0.02,0.199,0.054V0.234
            C0.415,0.207,0.348,0.19,0.276,0.19c-0.071,0-0.138,0.017-0.198,0.044V0.318z"/>
        <path fill="black" d="M0.078,0.811c0.058-0.033,0.126-0.053,0.198-0.053c0.073,0,0.139,0.019,0.197,0.053l0.001-0.083
            C0.415,0.699,0.348,0.683,0.276,0.683c-0.071,0-0.138,0.017-0.198,0.045V0.811z"/>
        <path fill="black" d="M0.525,0.318c0.059-0.034,0.126-0.054,0.199-0.054c0.072,0,0.14,0.02,0.198,0.054V0.234
            C0.862,0.207,0.794,0.19,0.724,0.19c-0.071,0-0.138,0.017-0.199,0.044V0.318z"/>
        <path fill="black" d="M0.526,0.811c0.059-0.034,0.125-0.053,0.197-0.053c0.072,0,0.14,0.02,0.198,0.053V0.728
            c-0.06-0.028-0.127-0.045-0.198-0.045c-0.071,0-0.138,0.017-0.199,0.045L0.526,0.811z"/>
      	<rect x="0.45" y="0.265" fill="black" width="0.1" height="0.497"/>
      	<polygon fill="black" points="0.526,0.811 0.474,0.811 0.46,0.229 0.54,0.229"/>
      	<rect x="0.078" y="0.24" fill="black" width="0.074" height="0.521"/>
      	<rect x="0.848" y="0.265" fill="black" width="0.074" height="0.472"/>
    </clipPath>
    <clipPath id="organize" clipPathUnits="objectBoundingBox">
        <path fill="black" d="M0.25,0.393c0-0.052,0.041-0.105,0.09-0.119l0.253-0.071c0.05-0.014,0.09-0.051,0.09-0.081
            s-0.041-0.044-0.09-0.03L0.249,0.188c-0.05,0.014-0.09,0.067-0.09,0.119v0.401c0,0.052,0.021,0.088,0.046,0.081
            S0.25,0.734,0.25,0.683V0.393z"/>
        <path fill="black" d="M0.751,0.223c0.05-0.014,0.09,0.017,0.09,0.068v0.401c0,0.052-0.041,0.105-0.09,0.119L0.406,0.908
            c-0.05,0.014-0.09-0.017-0.09-0.068V0.438c0-0.052,0.041-0.105,0.09-0.119L0.751,0.223z"/>
    </clipPath>
    <clipPath id="play" clipPathUnits="objectBoundingBox">
        <path fill="black" d="M0.195,0.203c0-0.061,0.041-0.082,0.091-0.049l0.428,0.285c0.05,0.033,0.05,0.088,0,0.121
       		L0.286,0.846c-0.05,0.033-0.091,0.012-0.091-0.049V0.203z"/>
    </clipPath>
    <clipPath id="wifi" clipPathUnits="objectBoundingBox">
        <path fill="black" d="M0.163,0.46c0.187-0.187,0.489-0.187,0.675,0l0.084-0.084c-0.233-0.233-0.611-0.233-0.844,0
       		L0.163,0.46z"/>
       	<path fill="black" d="M0.331,0.629c0.093-0.093,0.245-0.093,0.338,0l0.084-0.084c-0.14-0.14-0.367-0.14-0.507,0
       		L0.331,0.629z"/>
       	<path fill="black" d="M0.5,0.798l0.084-0.084c-0.047-0.047-0.122-0.047-0.169,0L0.5,0.798z"/>
    </clipPath>
    <clipPath id="globe" clipPathUnits="objectBoundingBox">
        <path fill="black" d="M0.466,0.266c0.002-0.002,0.006-0.003,0.007-0.003c0.001-0.001,0,0.002,0.004,0.002
       		c0.003,0,0.008,0.002,0.009,0.001c0.001,0,0.004-0.006,0.002-0.006C0.485,0.259,0.481,0.256,0.479,0.253S0.471,0.257,0.466,0.259
       		C0.461,0.261,0.459,0.261,0.459,0.264S0.463,0.267,0.466,0.266z"/>
       	<polygon fill="black" points="0.5,0.297 0.5,0.299 0.507,0.297 0.516,0.291 0.522,0.287 0.528,0.282 0.517,0.282
       		0.508,0.292 	"/>
       	<polygon fill="black" points="0.476,0.275 0.476,0.288 0.478,0.299 0.481,0.291 0.483,0.28 0.491,0.274 0.497,0.282
       		0.5,0.29 0.504,0.284 0.505,0.275 0.51,0.28 0.506,0.271 0.496,0.271 0.485,0.27 	"/>
       	<path fill="black" d="M0.5,0.109c-0.216,0-0.391,0.175-0.391,0.391S0.284,0.891,0.5,0.891S0.891,0.716,0.891,0.5
       		S0.716,0.109,0.5,0.109z M0.523,0.159c0.001-0.001,0.002-0.002,0.002-0.003c0.002,0,0.005,0,0.008,0l0,0
       		C0.532,0.159,0.53,0.162,0.53,0.162s-0.003,0-0.007,0C0.518,0.161,0.521,0.159,0.523,0.159z M0.517,0.171
       		c0.001-0.003,0.004-0.003,0.009-0.002c0.005,0.002,0.005,0,0.006-0.002C0.534,0.165,0.535,0.162,0.54,0.16
       		c0.005-0.001,0-0.003-0.002-0.004c0.02,0.002,0.038,0.006,0.057,0.011C0.594,0.168,0.593,0.169,0.592,0.17
       		C0.591,0.171,0.588,0.172,0.586,0.174c-0.002,0.002-0.005,0-0.008-0.003c-0.003-0.002-0.009-0.004-0.01-0.003s0,0.003,0,0.005
       		c0,0.001,0.006,0.003,0.009,0.006S0.58,0.184,0.581,0.188c0,0.004-0.003-0.001-0.007-0.002S0.569,0.188,0.569,0.188
       		s-0.005,0-0.007,0c-0.002,0,0,0-0.004-0.004C0.553,0.182,0.554,0.188,0.552,0.186S0.547,0.181,0.546,0.182S0.541,0.178,0.539,0.178
       		c-0.002,0.001-0.012-0.001-0.014,0C0.522,0.179,0.521,0.179,0.519,0.18S0.516,0.173,0.517,0.171z M0.276,0.243
       		C0.275,0.244,0.271,0.24,0.268,0.238C0.267,0.237,0.266,0.236,0.266,0.235C0.268,0.233,0.271,0.231,0.273,0.23
       		c0,0.001,0,0.003,0.001,0.003C0.276,0.234,0.278,0.242,0.276,0.243z M0.711,0.577c0,0.002-0.007,0.011-0.013,0.017
       		C0.693,0.599,0.696,0.605,0.697,0.608c0,0.002-0.004,0.013-0.002,0.015C0.695,0.625,0.692,0.63,0.69,0.634
       		C0.688,0.637,0.687,0.643,0.685,0.646S0.678,0.647,0.674,0.648C0.669,0.65,0.667,0.651,0.667,0.651S0.659,0.656,0.654,0.659
       		c-0.004,0.004,0.001,0.011,0,0.016c-0.002,0.005-0.004,0-0.007,0.007C0.644,0.688,0.643,0.687,0.641,0.688S0.638,0.692,0.637,0.696
       		S0.633,0.703,0.628,0.709S0.62,0.714,0.614,0.712S0.61,0.694,0.609,0.696c0,0.003-0.003,0.011-0.002,0.012
       		c0,0.002,0.006,0.007,0.008,0.009c0.002,0.001,0.001,0.003,0,0.006c-0.001,0.002-0.006,0.01-0.007,0.011
       		c-0.001,0-0.013,0.002-0.016,0.001C0.589,0.732,0.588,0.737,0.588,0.74c0,0.003,0.002,0.006-0.002,0.005
       		c-0.004-0.001-0.01-0.004-0.01-0.002c0,0.003,0.001,0.008,0.003,0.008s0.004-0.002,0.003,0.001S0.579,0.758,0.577,0.76
       		C0.576,0.761,0.574,0.766,0.57,0.769S0.566,0.773,0.567,0.775c0,0.001,0.006,0,0.008,0.001c0.001,0.001-0.001,0.007-0.003,0.009
       		C0.57,0.786,0.563,0.793,0.561,0.795c-0.003,0.002-0.003,0.007-0.002,0.01c0,0.003,0.007,0.01,0.01,0.011
       		c0.003,0.002,0.011,0.001,0.01,0.003C0.579,0.819,0.57,0.82,0.569,0.821c-0.001,0-0.007,0.002-0.011,0.002
       		c-0.003,0-0.009-0.004-0.01-0.004c-0.001,0,0-0.001,0.004-0.005S0.552,0.807,0.551,0.812c0,0.005-0.002,0.007-0.004,0.007
       		S0.542,0.814,0.541,0.813C0.54,0.812,0.535,0.811,0.536,0.805C0.537,0.8,0.534,0.8,0.531,0.798s0.003-0.004,0.002-0.007
       		C0.533,0.789,0.529,0.79,0.529,0.787s0.003-0.008,0.003-0.009c0-0.002-0.002-0.004-0.002-0.007c0-0.002,0.001-0.004,0.004-0.008
       		c0.003-0.004,0.005-0.009,0.005-0.01s-0.002-0.007-0.002-0.01c0-0.004,0.002-0.005,0.003-0.011c0-0.005-0.003-0.003-0.003-0.007
       		S0.541,0.724,0.54,0.72c0-0.004,0.002-0.007,0.003-0.01c0.001-0.003,0.002-0.008,0.004-0.011c0.001-0.003-0.002-0.011-0.002-0.012
       		S0.55,0.685,0.548,0.682S0.55,0.678,0.552,0.676s-0.002-0.01,0-0.019c0.001-0.008,0.002-0.022,0.002-0.023
       		c0-0.002,0-0.007-0.002-0.011S0.548,0.616,0.545,0.615C0.543,0.614,0.54,0.609,0.538,0.609C0.536,0.608,0.524,0.604,0.524,0.599
       		c0-0.007-0.004-0.012-0.005-0.017c0-0.004-0.006-0.015-0.007-0.019c0-0.005-0.008-0.006-0.01-0.012
       		C0.501,0.547,0.504,0.544,0.504,0.541c0.001-0.004,0-0.011,0-0.013c0-0.003,0.003-0.011,0.005-0.012
       		c0.002-0.001,0.007-0.006,0.008-0.006S0.519,0.506,0.521,0.5C0.522,0.495,0.52,0.488,0.519,0.487
       		C0.517,0.486,0.516,0.48,0.514,0.479C0.512,0.478,0.508,0.478,0.508,0.478s0.001,0.005-0.002,0.007
       		c-0.004,0.002-0.004,0-0.006-0.002C0.499,0.481,0.495,0.48,0.493,0.479S0.488,0.473,0.485,0.472
       		C0.483,0.471,0.478,0.469,0.478,0.464c0-0.006-0.003-0.009-0.004-0.01S0.469,0.45,0.467,0.452C0.465,0.453,0.461,0.449,0.459,0.449
       		C0.456,0.45,0.451,0.444,0.449,0.441C0.447,0.439,0.445,0.437,0.442,0.437S0.438,0.438,0.436,0.441
       		C0.433,0.444,0.43,0.438,0.429,0.438C0.427,0.436,0.422,0.438,0.417,0.438S0.411,0.43,0.411,0.428c0-0.007-0.012-0.007-0.015-0.009
       		C0.394,0.417,0.391,0.41,0.392,0.408C0.393,0.406,0.39,0.4,0.39,0.4S0.384,0.394,0.382,0.394S0.375,0.381,0.371,0.377
       		C0.367,0.373,0.359,0.365,0.358,0.361C0.356,0.356,0.356,0.351,0.352,0.354S0.351,0.36,0.355,0.363
       		c0.004,0.004,0.003,0.008,0.008,0.013c0.006,0.005,0.003,0.01,0.006,0.013c0.002,0.002,0.01,0.008,0.007,0.011
       		C0.373,0.403,0.369,0.396,0.367,0.395c-0.001,0-0.005-0.001-0.004-0.004S0.36,0.386,0.357,0.382C0.354,0.377,0.353,0.38,0.35,0.38
       		s0-0.005,0.001-0.008C0.353,0.37,0.349,0.367,0.347,0.366C0.345,0.365,0.341,0.354,0.338,0.348C0.335,0.342,0.333,0.339,0.33,0.339
       		C0.326,0.34,0.32,0.336,0.318,0.334S0.316,0.322,0.313,0.317S0.305,0.305,0.306,0.299c0-0.005,0.001-0.018,0.001-0.021
       		s-0.003-0.01-0.003-0.011c0-0.002-0.001-0.006-0.002-0.006C0.3,0.261,0.295,0.257,0.292,0.257S0.287,0.25,0.288,0.247
       		S0.285,0.238,0.283,0.238S0.277,0.232,0.276,0.229c0-0.001,0-0.001,0-0.001C0.323,0.193,0.378,0.17,0.438,0.16c0,0,0,0,0,0l0,0
       		C0.45,0.158,0.461,0.157,0.473,0.156c0,0.001-0.001,0.003-0.001,0.003c0,0.002,0.004,0,0.005-0.002c0-0.001,0-0.001,0.001-0.002
       		c0.008,0,0.015-0.001,0.022-0.001c0,0,0,0,0.001,0c0.001,0.001,0.003,0.002,0.004,0.005C0.506,0.163,0.5,0.164,0.499,0.164
       		C0.498,0.165,0.493,0.166,0.493,0.166S0.489,0.165,0.485,0.165S0.479,0.166,0.48,0.167c0.001,0.002,0.003,0.001,0.004,0.001
       		S0.485,0.171,0.489,0.17c0.004-0.001,0.003-0.003,0.006,0.001c0.003,0.004,0.006,0.003,0.011,0.007
       		c0.005,0.003,0,0.007-0.003,0.007C0.5,0.185,0.5,0.182,0.498,0.179C0.497,0.176,0.491,0.18,0.491,0.18S0.485,0.183,0.483,0.183
       		c-0.003,0-0.005-0.001-0.001-0.004c0.004-0.003-0.004-0.004-0.004-0.008c0-0.005-0.002,0.008-0.002,0.01S0.473,0.178,0.466,0.179
       		C0.459,0.18,0.461,0.183,0.452,0.188C0.444,0.195,0.446,0.193,0.447,0.2c0,0.006-0.001,0.007,0.002,0.008s0.002,0.008,0.005,0.007
       		c0.003,0,0.005-0.003,0.01,0.001C0.469,0.219,0.472,0.22,0.479,0.221c0.007,0.002,0.01,0.001,0.013,0s0.007,0.004,0.007,0.007
       		S0.501,0.231,0.5,0.235s0.004-0.004,0.004-0.004s0.002,0.007,0,0.008s0,0.005,0.002,0.005c0.002-0.001,0.005,0.001,0.007-0.001
       		c0.002-0.003-0.001-0.01-0.001-0.012c0-0.003-0.002-0.005-0.003-0.007C0.509,0.222,0.513,0.221,0.515,0.224
       		s0.004,0.001,0.007-0.002C0.524,0.22,0.524,0.216,0.524,0.216S0.52,0.208,0.516,0.206S0.514,0.204,0.518,0.203s0-0.002,0.001-0.008
       		c0-0.005,0-0.008,0.002-0.008S0.53,0.187,0.536,0.187c0.006,0.001,0.009,0.006,0.013,0.006c0.004,0.001,0.01,0.002,0.011,0.004
       		C0.561,0.198,0.553,0.2,0.555,0.203c0.003,0.004,0.006,0.003,0.008,0.004c0.003,0.002,0.006,0.001,0.009-0.005
       		c0.004-0.006,0.005-0.006,0.006-0.005C0.581,0.198,0.588,0.208,0.59,0.21c0.002,0.003,0.003,0.01,0.004,0.012
       		s0.008,0.001,0.009,0.001S0.61,0.228,0.611,0.23c0.001,0.002,0.002,0.003,0.007,0.005c0.005,0.001,0,0.006-0.001,0.009
       		C0.616,0.247,0.616,0.248,0.614,0.251c-0.001,0.003,0,0,0.002,0.002c0.002,0.001,0.003,0.003,0.006,0.002
       		c0.003-0.001,0.005,0,0.006,0.003C0.629,0.261,0.63,0.263,0.631,0.265c0.001,0.003,0,0.006-0.001,0.004S0.624,0.268,0.624,0.268
       		S0.621,0.271,0.62,0.269c0-0.001-0.002-0.003-0.005-0.002c-0.003,0.001-0.005,0-0.009,0.001c-0.003,0-0.004-0.002-0.002-0.004
       		S0.606,0.255,0.61,0.252s0.003-0.007,0-0.007c-0.002,0-0.004,0.004-0.005,0.005S0.598,0.248,0.596,0.251
       		C0.593,0.253,0.588,0.255,0.591,0.256c0.002,0.001-0.004,0.005-0.006,0.005S0.583,0.254,0.583,0.252S0.581,0.253,0.581,0.253
       		S0.574,0.249,0.572,0.252S0.561,0.254,0.559,0.257c-0.003,0.002-0.004,0.01-0.004,0.01s0.002-0.002,0.007-0.003
       		c0.004-0.002,0.004-0.001,0.008-0.003c0.004-0.003,0.008-0.004,0.011,0c0.002,0.005-0.001,0.007-0.001,0.007
       		s0.002,0.003,0.003,0.004s0.002-0.001,0.004-0.003c0.003-0.001,0.001,0.004,0.002,0.006s0.003,0.002,0.005,0
       		C0.596,0.271,0.597,0.27,0.598,0.271C0.599,0.272,0.6,0.275,0.601,0.279c0.001,0.003-0.008,0.004-0.009,0.004
       		C0.59,0.284,0.583,0.286,0.582,0.286C0.581,0.287,0.577,0.291,0.573,0.291c-0.003,0-0.002-0.006-0.003-0.009s-0.004,0-0.005,0.002
       		c0,0.001-0.003,0.001-0.006,0.001C0.556,0.286,0.552,0.289,0.552,0.293s0.005,0.008,0.004,0.009
       		c-0.001,0.002-0.01,0.002-0.013,0.001C0.541,0.302,0.537,0.304,0.538,0.306c0.001,0.002,0,0.005-0.002,0.004
       		c-0.003,0-0.003,0.003-0.002,0.005C0.535,0.317,0.53,0.321,0.529,0.319c-0.001-0.001-0.003-0.002-0.003,0
       		c0,0.003,0.002,0.007,0.004,0.011c0.002,0.004-0.006,0.004-0.009,0.007C0.518,0.34,0.512,0.35,0.508,0.352
       		c-0.004,0.001-0.007,0.007-0.005,0.01c0.002,0.002,0.004,0.012,0.005,0.015s0,0.013-0.004,0.012c-0.003,0-0.001-0.006-0.005-0.007
       		c-0.003-0.002-0.005-0.01-0.006-0.016c0-0.005-0.001-0.002-0.004,0S0.485,0.361,0.483,0.36C0.482,0.358,0.477,0.362,0.472,0.362
       		c-0.005-0.001-0.007,0-0.007,0.002c0,0.001,0,0.005-0.005,0.003C0.456,0.364,0.455,0.364,0.451,0.364S0.442,0.363,0.442,0.365
       		C0.441,0.367,0.437,0.371,0.434,0.372C0.431,0.373,0.426,0.378,0.429,0.379c0.002,0.001,0.002,0.007,0,0.011s-0.001,0.01,0,0.017
       		c0,0.006,0.005,0.011,0.009,0.015c0.004,0.004,0.006,0.006,0.01,0.002s0.006-0.002,0.007-0.001c0.001,0,0.004-0.002,0.003-0.007
       		C0.458,0.411,0.46,0.407,0.464,0.408c0.003,0,0.008-0.002,0.011-0.001c0.002,0,0.004,0.009,0,0.013S0.473,0.429,0.472,0.434
       		c0,0.004-0.004,0.005,0,0.005c0.004,0,0.003,0.001,0.006,0.001C0.481,0.44,0.483,0.437,0.486,0.437
       		c0.002-0.001,0.01,0.007,0.008,0.011C0.494,0.45,0.493,0.457,0.493,0.463c0,0.006,0.002,0.007,0.003,0.008
       		c0,0.002,0.004,0.007,0.007,0.005S0.51,0.472,0.511,0.471C0.512,0.469,0.52,0.474,0.519,0.475c0,0.002,0.003,0.003,0.005,0.002
       		C0.526,0.475,0.527,0.473,0.53,0.469c0.002-0.004,0.006-0.007,0.008-0.007c0.002-0.001,0.007-0.006,0.01-0.006
       		C0.55,0.457,0.546,0.462,0.546,0.465s0,0.011,0.001,0.011c0.001,0.001,0.001-0.005,0.003-0.01C0.552,0.462,0.556,0.46,0.558,0.46
       		c0.001,0,0.003,0.01,0.006,0.007c0.003-0.003,0.008-0.003,0.009,0C0.575,0.47,0.576,0.471,0.576,0.471S0.578,0.47,0.578,0.467
       		c0-0.002,0.006-0.004,0.01-0.002C0.592,0.468,0.59,0.469,0.592,0.47c0.002,0,0.004-0.006,0.005-0.007c0.001,0,0,0.008-0.003,0.012
       		C0.592,0.479,0.597,0.478,0.597,0.478s0,0,0.001,0.001c0.001,0.001,0.005-0.001,0.007,0.001c0.001,0.003,0.004,0.004,0.006,0.009
       		s0.005,0.001,0.01,0C0.625,0.487,0.632,0.494,0.636,0.5C0.641,0.506,0.64,0.511,0.644,0.511c0.003,0,0.004,0.005,0.004,0.007
       		S0.64,0.523,0.636,0.524C0.633,0.525,0.633,0.529,0.639,0.528c0.006-0.001,0.003-0.004,0.007-0.006
       		C0.65,0.521,0.654,0.524,0.65,0.53S0.64,0.536,0.646,0.537C0.652,0.538,0.649,0.536,0.652,0.53
       		c0.003-0.005,0.003-0.003,0.005-0.003S0.665,0.528,0.667,0.53s0.007,0.005,0.01,0.007c0.003,0.002,0.007,0.001,0.009,0
       		S0.695,0.54,0.698,0.544S0.706,0.548,0.708,0.55c0.003,0.001,0.007,0.007,0.007,0.011C0.716,0.565,0.711,0.575,0.711,0.577z"/>
       	<polygon fill="black" points="0.306,0.252 0.301,0.249 0.304,0.256 0.31,0.26 0.313,0.267 0.314,0.26 	"/>
    </clipPath>
    <clipPath id="download" clipPathUnits="objectBoundingBox">
        <path fill="black" d="M0.704,0.438c0.06,0,0.082,0.041,0.048,0.091L0.561,0.815c-0.033,0.05-0.088,0.05-0.121,0
       		L0.248,0.528c-0.033-0.05-0.012-0.091,0.048-0.091H0.704z"/>
       	<path fill="black" d="M0.609,0.609c0,0.061-0.049,0.109-0.109,0.109H0.5c-0.06,0-0.109-0.049-0.109-0.109V0.203
       		c0-0.061,0.049-0.109,0.109-0.109H0.5c0.06,0,0.109,0.049,0.109,0.109V0.609z"/>
    </clipPath>
    <clipPath id="more" clipPathUnits="objectBoundingBox">
        <circle fill="black" cx="0.222" cy="0.5" r="0.093"/>
       	<circle fill="black" cx="0.5" cy="0.5" r="0.092"/>
       	<circle fill="black" cx="0.778" cy="0.5" r="0.093"/>
    </clipPath>
    <clipPath id="toprated" clipPathUnits="objectBoundingBox">
        <path fill="black" d="M0.726,0.889c-0.008,0-0.017-0.002-0.024-0.008L0.5,0.734L0.298,0.881
        	C0.291,0.887,0.282,0.889,0.274,0.889S0.257,0.887,0.25,0.881c-0.014-0.01-0.02-0.028-0.015-0.045l0.077-0.237L0.11,0.451
        	C0.096,0.44,0.09,0.423,0.096,0.406c0.005-0.018,0.021-0.028,0.039-0.028h0.25L0.461,0.14C0.467,0.123,0.482,0.112,0.5,0.112
        	S0.533,0.123,0.539,0.14l0.077,0.238h0.25c0.018,0,0.033,0.011,0.039,0.028c0.006,0.017,0,0.034-0.015,0.045L0.688,0.599
        	l0.077,0.237c0.005,0.017,0,0.035-0.015,0.045C0.743,0.887,0.734,0.889,0.726,0.889L0.726,0.889z"/>
    </clipPath>
    <clipPath id="action" clipPathUnits="objectBoundingBox">
        <path fill="black" d="M0.547,0.255c0-0.052,0.035-0.069,0.077-0.04l0.252,0.174c0.042,0.029,0.042,0.078,0,0.107
       		L0.624,0.67C0.582,0.699,0.547,0.682,0.547,0.63V0.255z"/>
        <path fill="black" d="M0.416,0.593C0.418,0.602,0.419,0.61,0.419,0.62c0,0.084-0.069,0.153-0.153,0.153
            S0.113,0.704,0.113,0.62c0-0.062,0.036-0.114,0.088-0.139c0.02-0.031,0.045-0.058,0.073-0.08c-0.003,0-0.006,0-0.009,0
            c-0.121,0-0.219,0.098-0.219,0.219c0,0.12,0.098,0.219,0.219,0.219c0.121,0,0.219-0.099,0.219-0.219
            c0-0.012-0.001-0.022-0.003-0.034C0.46,0.587,0.438,0.589,0.416,0.593z"/>
        <path fill="black" d="M0.213,0.663C0.312,0.466,0.682,0.54,0.682,0.54V0.343C0.682,0.343,0.213,0.343,0.213,0.663z"/>
    </clipPath>
    <clipPath id="search" clipPathUnits="objectBoundingBox">
        <path fill="black" d="M0.391,0.078c-0.173,0-0.313,0.14-0.313,0.313s0.14,0.313,0.313,0.313s0.313-0.14,0.313-0.313
        	S0.563,0.078,0.391,0.078z M0.391,0.578c-0.104,0-0.188-0.084-0.188-0.188s0.084-0.188,0.188-0.188s0.188,0.084,0.188,0.188
        	S0.494,0.578,0.391,0.578z"/>
        <path fill="black" d="M0.867,0.748c0.03,0.03,0.03,0.079,0,0.109l-0.009,0.01c-0.03,0.03-0.08,0.03-0.11,0L0.524,0.643
            c-0.03-0.03-0.03-0.079,0-0.109l0.009-0.01c0.03-0.03,0.08-0.03,0.11,0L0.867,0.748z"/>
    </clipPath>
    <clipPath id="reply" clipPathUnits="objectBoundingBox">
        <path fill="black" d="M0.532,0.285c0-0.043-0.029-0.059-0.065-0.035l-0.31,0.206c-0.036,0.023-0.036,0.063,0,0.086
       		l0.31,0.207c0.036,0.023,0.065,0.008,0.065-0.035V0.285z"/>
        <path fill="black" d="M0.907,0.769C0.789,0.531,0.344,0.62,0.344,0.62V0.384C0.344,0.384,0.907,0.384,0.907,0.769z"/>
    </clipPath>
    <clipPath id="fastforward" clipPathUnits="objectBoundingBox">
        <path fill="black" d="M0.461,0.283c0-0.043,0.029-0.059,0.065-0.035l0.313,0.208c0.036,0.023,0.036,0.063,0,0.086
       		L0.526,0.751C0.491,0.774,0.461,0.759,0.461,0.716V0.283z"/>
       	<path fill="black" d="M0.196,0.283c0-0.043,0.029-0.059,0.065-0.035l0.313,0.208c0.036,0.023,0.036,0.063,0,0.086
       		L0.261,0.751C0.225,0.774,0.196,0.759,0.196,0.716V0.283z"/>
    </clipPath>
    <clipPath id="rewind" clipPathUnits="objectBoundingBox">
        <path fill="black" d="M0.539,0.283c0-0.043-0.029-0.059-0.065-0.035L0.161,0.456c-0.036,0.023-0.036,0.063,0,0.086
       		l0.313,0.209c0.036,0.023,0.065,0.008,0.065-0.035V0.283z"/>
       	<path fill="black" d="M0.804,0.283c0-0.043-0.029-0.059-0.065-0.035L0.427,0.456c-0.036,0.023-0.036,0.063,0,0.086
       		l0.313,0.209c0.036,0.023,0.065,0.008,0.065-0.035V0.283z"/>
    </clipPath>
    <clipPath id="sounds" clipPathUnits="objectBoundingBox">
        <path fill="black" d="M0.786,0.745c-0.005,0-0.011-0.002-0.015-0.006L0.726,0.694C0.722,0.69,0.72,0.686,0.72,0.68
       		s0.002-0.011,0.006-0.015c0.091-0.091,0.091-0.239,0-0.33c-0.008-0.008-0.008-0.021,0-0.029l0.045-0.045
       		C0.775,0.257,0.78,0.255,0.786,0.255s0.011,0.002,0.015,0.006c0.132,0.132,0.132,0.347,0,0.479
       		C0.796,0.743,0.791,0.745,0.786,0.745L0.786,0.745z"/>
       	<path fill="black" d="M0.654,0.607c-0.003,0-0.007-0.002-0.01-0.005l-0.031-0.03C0.61,0.569,0.609,0.565,0.609,0.562
       		s0.001-0.008,0.004-0.01c0.028-0.028,0.028-0.075,0-0.104c-0.005-0.005-0.005-0.015,0-0.021l0.031-0.03
       		c0.003-0.003,0.007-0.005,0.01-0.005c0.004,0,0.007,0.002,0.01,0.005C0.691,0.425,0.707,0.461,0.707,0.5S0.691,0.575,0.664,0.603
       		C0.661,0.605,0.658,0.607,0.654,0.607L0.654,0.607z"/>
       	<path fill="black" d="M0.482,0.104C0.454,0.119,0.411,0.16,0.388,0.196L0.353,0.25C0.33,0.286,0.299,0.327,0.285,0.342
       		s-0.06,0.037-0.101,0.051l-0.01,0.004C0.133,0.41,0.1,0.456,0.1,0.499v0.002c0,0.043,0.033,0.089,0.074,0.103l0.01,0.004
       		C0.225,0.621,0.27,0.644,0.285,0.658S0.33,0.714,0.353,0.75l0.035,0.054C0.411,0.84,0.454,0.881,0.482,0.896
       		s0.053-0.009,0.053-0.052V0.156C0.535,0.113,0.511,0.09,0.482,0.104S0.511,0.09,0.482,0.104z"/>
    </clipPath>
    <clipPath id="cart" clipPathUnits="objectBoundingBox">
        <path fill="black" d="M0.256,0.711c0.045,0,0.082,0.036,0.082,0.081
        	S0.301,0.873,0.256,0.873c-0.044,0-0.081-0.036-0.081-0.081S0.212,0.711,0.256,0.711z"/>
        <path fill="black" d="M0.744,0.711c0.044,0,0.081,0.036,0.081,0.081
        	S0.788,0.873,0.744,0.873c-0.045,0-0.082-0.036-0.082-0.081S0.699,0.711,0.744,0.711z"/>
        <path fill="black" d="M0.143,0.127c0.036,0,0.065,0.028,0.065,0.064
        	S0.179,0.257,0.143,0.257c-0.036,0-0.065-0.029-0.065-0.065S0.107,0.127,0.143,0.127z"/>
        <path fill="black" d="M0.857,0.289H0.24c-0.036,0-0.065,0.029-0.065,0.064
        	l0.033,0.228c0,0.036,0.029,0.065,0.065,0.065H0.63c0.036,0,0.084-0.009,0.13-0.065l0.162-0.228
        	C0.922,0.318,0.893,0.289,0.857,0.289z M0.72,0.451C0.683,0.52,0.634,0.549,0.597,0.549H0.37c-0.036,0-0.065-0.029-0.065-0.065
        	V0.451c0-0.036,0.029-0.064,0.065-0.064h0.292C0.698,0.387,0.744,0.392,0.72,0.451z"/>
    </clipPath>
    <clipPath id="mostrecent" clipPathUnits="objectBoundingBox">
        <path fill="black" d="M0.758,0.156H0.242c-0.048,0-0.086,0.038-0.086,0.086v0.516c0,0.048,0.039,0.086,0.086,0.086h0.516
        	c0.048,0,0.086-0.038,0.086-0.086V0.242C0.844,0.194,0.806,0.156,0.758,0.156z M0.688,0.563H0.563v0.12
        	c0,0.039-0.028,0.067-0.063,0.067S0.438,0.722,0.438,0.683v-0.12H0.313C0.278,0.563,0.25,0.534,0.25,0.5s0.028-0.063,0.063-0.063
        	h0.125v-0.13c0-0.03,0.028-0.058,0.063-0.058s0.063,0.027,0.063,0.058v0.13h0.125c0.035,0,0.063,0.028,0.063,0.063
        	S0.722,0.563,0.688,0.563z"/>
    </clipPath>
    <clipPath id="add" clipPathUnits="objectBoundingBox">
        <path fill="black" d="M0.609,0.766c0,0.061-0.049,0.109-0.109,0.109H0.5c-0.06,0-0.109-0.049-0.109-0.109V0.234
       		c0-0.061,0.049-0.109,0.109-0.109H0.5c0.06,0,0.109,0.049,0.109,0.109V0.766z"/>
       	<path fill="black" d="M0.766,0.391c0.06,0,0.109,0.049,0.109,0.109l0,0c0,0.061-0.049,0.109-0.109,0.109H0.234
       		c-0.06,0-0.109-0.049-0.109-0.109l0,0c0-0.061,0.049-0.109,0.109-0.109H0.766z"/>
    </clipPath>
    <clipPath id="camera" clipPathUnits="objectBoundingBox">
        <path fill="black" d="M0.289,0.318c0,0.042,0.042,0.052,0.094,0.021c0,0,0.04-0.023,0.117-0.023S0.617,0.34,0.617,0.34
            C0.669,0.37,0.711,0.36,0.711,0.318S0.667,0.22,0.613,0.193c0,0-0.037-0.018-0.113-0.018S0.387,0.193,0.387,0.193
            C0.333,0.22,0.289,0.276,0.289,0.318z"/>
        <path fill="black" d="M0.172,0.297c-0.052,0-0.094,0.042-0.094,0.094v0.34c0,0.052,0.042,0.094,0.094,0.094h0.655
            c0.052,0,0.094-0.042,0.094-0.094v-0.34c0-0.052-0.042-0.094-0.094-0.094H0.172z M0.5,0.715c-0.104,0-0.188-0.084-0.188-0.188
            S0.396,0.34,0.5,0.34s0.188,0.084,0.188,0.188S0.604,0.715,0.5,0.715z"/>
        <circle fill="black" cx="0.5" cy="0.527" r="0.109"/>
    </clipPath>
    <clipPath id="battery" clipPathUnits="objectBoundingBox">
        <path fill="black" d="M0.526,0.681C0.512,0.702,0.521,0.72,0.547,0.72h0.305c0.026,0,0.047-0.021,0.047-0.047V0.672
       		c0-0.025,0-0.068,0-0.094V0.422c0-0.025,0-0.068,0-0.094V0.327c0-0.025-0.021-0.047-0.047-0.047H0.836
       		c-0.026,0-0.059,0.018-0.073,0.039L0.526,0.681z"/>
       	<path fill="black" d="M0.179,0.594c0.026,0,0.047,0.021,0.047,0.047v0.032c0,0.025,0.021,0.047,0.047,0.047h0.105
       		c0.026,0,0.059-0.018,0.073-0.039V0.68C0.465,0.658,0.456,0.641,0.43,0.641H0.351c-0.026,0-0.047-0.021-0.047-0.047V0.406
       		c0-0.025,0.021-0.047,0.047-0.047h0.265c0.026,0,0.059-0.018,0.073-0.039V0.319C0.703,0.298,0.694,0.28,0.668,0.28H0.273
       		c-0.026,0-0.047,0.021-0.047,0.047v0.032c0,0.025-0.021,0.047-0.047,0.047H0.147c-0.026,0-0.047,0.021-0.047,0.047v0.094
       		c0,0.025,0.021,0.047,0.047,0.047H0.179z"/>
    </clipPath>
    <clipPath id="stop" clipPathUnits="objectBoundingBox">
        <path fill="black" d="M0.704,0.188c0.06,0,0.109,0.049,0.109,0.109v0.406c0,0.061-0.049,0.109-0.109,0.109H0.296
       		c-0.06,0-0.109-0.049-0.109-0.109V0.297c0-0.061,0.049-0.109,0.109-0.109H0.704z"/>
    </clipPath>
    <clipPath id="pause" clipPathUnits="objectBoundingBox">
        <path fill="black" d="M0.313,0.172c0.06,0,0.109,0.049,0.109,0.109v0.438c0,0.061-0.049,0.109-0.109,0.109H0.296
       		c-0.06,0-0.109-0.049-0.109-0.109V0.281c0-0.061,0.049-0.109,0.109-0.109H0.313z"/>
       	<path fill="black" d="M0.704,0.172c0.06,0,0.109,0.049,0.109,0.109v0.438c0,0.061-0.049,0.109-0.109,0.109H0.687
       		c-0.06,0-0.109-0.049-0.109-0.109V0.281c0-0.061,0.049-0.109,0.109-0.109H0.704z"/>
    </clipPath>
    <clipPath id="settings" clipPathUnits="objectBoundingBox">
        <path fill="black" d="M0.235,0.787c0.018,0.019,0.048,0.019,0.066,0l0.082-0.082c0.018-0.018,0.019-0.047,0-0.065
			L0.36,0.617c-0.019-0.019-0.048-0.018-0.066,0L0.213,0.699c-0.019,0.018-0.018,0.048,0,0.066L0.235,0.787z"/>
        <path fill="black" d="M0.787,0.301c0.019-0.018,0.018-0.048,0-0.066L0.765,0.213c-0.018-0.019-0.048-0.019-0.066,0
            l-0.08,0.08c-0.018,0.019-0.018,0.048,0,0.066l0.022,0.022c0.018,0.018,0.048,0.018,0.066-0.001L0.787,0.301z"/>
        <path fill="black" d="M0.109,0.516c0,0.025,0.021,0.047,0.047,0.047h0.116c0.025,0,0.047-0.021,0.046-0.047V0.484
            c0-0.026-0.021-0.047-0.047-0.047H0.156c-0.026,0-0.047,0.021-0.047,0.047V0.516z"/>
        <path fill="black" d="M0.844,0.563c0.026,0,0.047-0.021,0.047-0.047V0.484c0-0.025-0.021-0.047-0.047-0.047H0.73
            c-0.026,0-0.047,0.021-0.047,0.047l0,0.031c0,0.025,0.022,0.047,0.047,0.047H0.844z"/>
        <path fill="black" d="M0.213,0.234c-0.019,0.019-0.018,0.049,0,0.066l0.082,0.082c0.018,0.018,0.048,0.019,0.066,0
            L0.383,0.36c0.018-0.019,0.018-0.048,0-0.066L0.301,0.213c-0.018-0.019-0.048-0.019-0.066,0L0.213,0.234z"/>
        <path fill="black" d="M0.699,0.787c0.018,0.019,0.048,0.019,0.066,0l0.022-0.021c0.019-0.019,0.018-0.049,0-0.066
            l-0.08-0.08c-0.018-0.019-0.048-0.019-0.066,0L0.619,0.641c-0.018,0.019-0.018,0.049,0,0.066L0.699,0.787z"/>
        <path fill="black" d="M0.484,0.109c-0.026,0-0.047,0.021-0.047,0.047v0.115c0,0.025,0.021,0.047,0.047,0.047h0.031
            c0.026,0,0.047-0.021,0.047-0.047V0.156c0-0.025-0.021-0.047-0.047-0.047H0.484z"/>
        <path fill="black" d="M0.438,0.844c0,0.025,0.021,0.047,0.047,0.047h0.031c0.026,0,0.047-0.021,0.047-0.047V0.73
            c0-0.025-0.021-0.047-0.047-0.047H0.484c-0.026,0-0.047,0.021-0.047,0.047V0.844z"/>
        <path fill="black" d="M0.5,0.211c-0.16,0-0.289,0.13-0.289,0.289S0.34,0.789,0.5,0.789S0.789,0.659,0.789,0.5
            S0.66,0.211,0.5,0.211z M0.5,0.634c-0.074,0-0.133-0.061-0.133-0.134S0.426,0.366,0.5,0.366S0.633,0.427,0.633,0.5
            S0.574,0.634,0.5,0.634z"/>
    </clipPath>
    <clipPath id="details" clipPathUnits="objectBoundingBox">
        <path fill="black" d="M0.734,0.459C0.707,0.438,0.664,0.4,0.637,0.379L0.346,0.134C0.319,0.112,0.28,0.115,0.258,0.141
       		C0.236,0.167,0.24,0.207,0.267,0.229L0.541,0.46c0.027,0.021,0.027,0.059,0,0.08L0.267,0.771C0.24,0.793,0.236,0.833,0.258,0.859
       		C0.28,0.885,0.319,0.888,0.346,0.866l0.291-0.245c0.027-0.021,0.07-0.059,0.097-0.08C0.76,0.519,0.76,0.481,0.734,0.459z"/>
    </clipPath>
    <clipPath id="leftarrow" clipPathUnits="objectBoundingBox">
        <path fill="black" d="M0.267,0.459C0.293,0.438,0.336,0.4,0.363,0.379l0.291-0.245C0.681,0.112,0.72,0.115,0.742,0.141
       		C0.764,0.167,0.76,0.207,0.733,0.229L0.459,0.46c-0.027,0.021-0.027,0.059,0,0.08l0.274,0.231c0.027,0.021,0.03,0.062,0.009,0.088
       		C0.72,0.885,0.681,0.888,0.654,0.866L0.363,0.621C0.336,0.6,0.293,0.563,0.267,0.541C0.24,0.519,0.24,0.481,0.267,0.459z"/>
    </clipPath>
    <clipPath id="edit" clipPathUnits="objectBoundingBox">
        <path fill="black" d="M0.327,0.563c-0.024,0.024-0.024,0.065,0,0.09l0.024,0.023c0.024,0.024,0.064,0.024,0.089,0
       		l0.217-0.216c0.024-0.024,0.024-0.065,0-0.09L0.632,0.348c-0.024-0.024-0.064-0.024-0.089,0L0.327,0.563z"/>
       	<path fill="black" d="M0.646,0.244C0.628,0.262,0.634,0.297,0.659,0.321l0.024,0.023c0.024,0.024,0.059,0.03,0.076,0.013
       		c0.018-0.017,0.012-0.052-0.013-0.076L0.722,0.258C0.698,0.233,0.664,0.228,0.646,0.244z"/>
       	<path fill="black" d="M0.287,0.669C0.262,0.645,0.237,0.651,0.23,0.686l-0.008,0.04C0.215,0.76,0.237,0.781,0.271,0.774
       		L0.31,0.768C0.344,0.761,0.352,0.734,0.328,0.71L0.287,0.669z"/>
    </clipPath>
    <clipPath id="refresh" clipPathUnits="objectBoundingBox">
        <path fill="black" d="M0.469,0.203c0-0.052,0.035-0.07,0.078-0.042l0.157,0.105c0.043,0.028,0.043,0.075,0,0.104
       		L0.547,0.476c-0.043,0.028-0.078,0.01-0.078-0.042V0.203z"/>
        <path fill="black" d="M0.5,0.798c-0.12,0-0.216-0.097-0.216-0.217c0-0.119,0.097-0.217,0.216-0.217V0.271
          	c-0.171,0-0.309,0.139-0.309,0.31s0.138,0.31,0.309,0.31s0.309-0.139,0.309-0.31H0.716C0.716,0.701,0.62,0.798,0.5,0.798z"/>
    </clipPath>
    <clipPath id="home" clipPathUnits="objectBoundingBox">
        <path fill="black" d="M0.913,0.533l-0.241-0.24L0.561,0.181L0.52,0.141
        	c-0.011-0.012-0.029-0.012-0.041,0L0.086,0.533c-0.011,0.012-0.011,0.029,0,0.041l0.041,0.041c0.011,0.011,0.029,0.011,0.041,0
        	l0.073-0.073v0.269c0,0.032,0.026,0.058,0.058,0.058h0.029c0.032,0,0.058-0.025,0.058-0.058V0.725V0.638
        	c0-0.031,0.025-0.058,0.058-0.058h0.115c0.032,0,0.058,0.026,0.058,0.058v0.087v0.086c0,0.032,0.026,0.058,0.058,0.058h0.029
        	c0.032,0,0.058-0.025,0.058-0.058V0.542l0.073,0.073c0.011,0.011,0.029,0.011,0.041,0l0.041-0.041
        	C0.925,0.563,0.925,0.545,0.913,0.533z"/>
    </clipPath>
    <clipPath id="share" clipPathUnits="objectBoundingBox">
        <path style="fill:#282425;" d="M26,32c0,3.85-3.15,7-7,7s-7-3.15-7-7c0-3.85,3.15-7,7-7S26,28.15,26,32z"/>
        <path style="fill:#282425;" d="M52,46c0,3.85-3.15,7-7,7s-7-3.15-7-7s3.15-7,7-7S52,42.15,52,46z"/>
        <path style="fill:#282425;" d="M52,18c0,3.85-3.15,7-7,7s-7-3.15-7-7s3.15-7,7-7S52,14.15,52,18z"/>
        <line style="fill:none;stroke:#282425;stroke-width:6;" x1="45" y1="18" x2="19" y2="32"/>
        <line style="fill:none;stroke:#282425;stroke-width:6;" x1="19" y1="32" x2="45" y2="46"/>
    </clipPath>
    <clipPath id="androidmore" clipPathUnits="objectBoundingBox">
        <path style="fill:#282425;" d="M32,44c3.3,0,6,2.7,6,6s-2.7,6-6,6s-6-2.7-6-6S28.7,44,32,44z"/>
        <path style="fill:#282425;" d="M32,26c3.3,0,6,2.7,6,6s-2.7,6-6,6s-6-2.7-6-6S28.7,26,32,26z"/>
        <path style="fill:#282425;" d="M32,8c3.3,0,6,2.7,6,6s-2.7,6-6,6s-6-2.7-6-6S28.7,8,32,8z"/>
    </clipPath>
    <clipPath id="meegomore" clipPathUnits="objectBoundingBox">
        <path style="fill:#282425;" d="M46,45c2.2,0,4,1.8,4,4v2c0,2.2-1.8,4-4,4H18c-2.2,0-4-1.8-4-4v-2c0-2.2,1.8-4,4-4H46z"/>
        <path style="fill:#282425;" d="M46,27c2.2,0,4,1.8,4,4v2c0,2.2-1.8,4-4,4H18c-2.2,0-4-1.8-4-4v-2c0-2.2,1.8-4,4-4H46z"/>
        <path style="fill:#282425;" d="M46,9c2.2,0,4,1.8,4,4v2c0,2.2-1.8,4-4,4H18c-2.2,0-4-1.8-4-4v-2c0-2.2,1.8-4,4-4H46z"/>
    </clipPath>
</svg>
