<svg xmlns="http://www.w3.org/2000/svg" xmlns:xlink="http://www.w3.org/1999/xlink" viewBox="0 0 1 1">
    <clipPath id="featured" clipPathUnits="objectBoundingBox">
        <path fill="black" d="M0.532,0.518c-0.054-0.144-0.156-0.28-0.228-0.304c-0.072-0.024-0.169-0.024-0.217,0C0.039,0.237,0.127,0.384,0.283,0.54C0.438,0.695,0.58,0.813,0.598,0.8C0.616,0.788,0.586,0.661,0.532,0.518z"/>
        <path fill="black" d="M0.815,0.51c-0.102,0.079-0.201,0.103-0.22,0.052c-0.02-0.052-0.02-0.117-0.002-0.145c0.019-0.028,0.078-0.066,0.133-0.084c0.054-0.019,0.138-0.019,0.186,0C0.96,0.351,0.917,0.431,0.815,0.51z"/>
        <path fill="black" d="M0.432,0.75c0.019,0.019,0.02,0.044,0.003,0.058C0.417,0.82,0.391,0.822,0.376,0.813C0.36,0.803,0.359,0.776,0.373,0.755C0.387,0.734,0.414,0.731,0.432,0.75z"/>
    </clipPath>
    <clipPath id="toprated" clipPathUnits="objectBoundingBox">
        <path fill="black" d="M0.815,0.51c-0.102,0.079-0.201,0.103-0.22,0.052c-0.02-0.052-0.02-0.117-0.002-0.145c0.019-0.028,0.078-0.066,0.133-0.084c0.054-0.019,0.138-0.019,0.186,0C0.96,0.351,0.917,0.431,0.815,0.51z"/>
        <path fill="black" d="M0.432,0.75c0.019,0.019,0.02,0.044,0.003,0.058C0.417,0.82,0.391,0.822,0.376,0.813C0.36,0.803,0.359,0.776,0.373,0.755C0.387,0.734,0.414,0.731,0.432,0.75z"/>
    </clipPath>
    <clipPath id="mostviewed" clipPathUnits="objectBoundingBox">
        <path fill="black" d="M0.532,0.518c-0.054-0.144-0.156-0.28-0.228-0.304c-0.072-0.024-0.169-0.024-0.217,0C0.039,0.237,0.127,0.384,0.283,0.54C0.438,0.695,0.58,0.813,0.598,0.8C0.616,0.788,0.586,0.661,0.532,0.518z"/>
        <path fill="black" d="M0.432,0.75c0.019,0.019,0.02,0.044,0.003,0.058C0.417,0.82,0.391,0.822,0.376,0.813C0.36,0.803,0.359,0.776,0.373,0.755C0.387,0.734,0.414,0.731,0.432,0.75z"/>
    </clipPath>
    <clipPath id="bookmarks" clipPathUnits="objectBoundingBox">
        <path fill="black" d="M0.532,0.518c-0.054-0.144-0.156-0.28-0.228-0.304c-0.072-0.024-0.169-0.024-0.217,0C0.039,0.237,0.127,0.384,0.283,0.54C0.438,0.695,0.58,0.813,0.598,0.8C0.616,0.788,0.586,0.661,0.532,0.518z"/>
        <path fill="black" d="M0.815,0.51c-0.102,0.079-0.201,0.103-0.22,0.052c-0.02-0.052-0.02-0.117-0.002-0.145c0.019-0.028,0.078-0.066,0.133-0.084c0.054-0.019,0.138-0.019,0.186,0C0.96,0.351,0.917,0.431,0.815,0.51z"/>
    </clipPath>
</svg>
