<?xml version="1.0" standalone="no"?>
<!DOCTYPE svg PUBLIC "-//W3C//DTD SVG 1.1//EN" "http://www.w3.org/Graphics/SVG/1.1/DTD/svg11.dtd" >
<svg xmlns="http://www.w3.org/2000/svg">
<metadata></metadata>
<defs>
<font id="FaktSlabPro-Medium" horiz-adv-x="1163" >
<font-face units-per-em="2048" ascent="1532" descent="-516" />
<missing-glyph horiz-adv-x="434" />
<glyph horiz-adv-x="2048" />
<glyph horiz-adv-x="2048" />
<glyph unicode="&#xd;" horiz-adv-x="2048" />
<glyph unicode=" "  horiz-adv-x="434" />
<glyph unicode="&#x09;" horiz-adv-x="434" />
<glyph unicode="&#xa0;" horiz-adv-x="434" />
<glyph unicode="!" horiz-adv-x="581" d="M166 1020v389h250v-389l-64 -614h-125zM168 0v246h244v-246h-244z" />
<glyph unicode="&#x22;" horiz-adv-x="841" d="M125 1223v186h211v-186l-35 -361h-141zM506 1223v186h211v-186l-35 -361h-141z" />
<glyph unicode="#" horiz-adv-x="1275" d="M37 332v162h239l74 428h-225v159h254l57 328h189l-58 -328h275l57 328h188l-57 -328h209v-159h-238l-73 -428h223v-162h-252l-57 -332h-189l58 332h-275l-57 -332h-189l58 332h-211zM465 494h274l74 428h-274z" />
<glyph unicode="$" d="M80 414h213q6 -131 83 -195.5t195 -64.5q117 0 193 58t76 165q0 96 -62.5 139t-175.5 78l-174 53q-104 33 -211.5 118t-107.5 261q0 154 99 262.5t267 134.5v224h197v-220q162 -20 262 -127.5t102 -304.5h-215q-2 154 -71.5 206t-169.5 52q-104 0 -174 -49t-70 -153 q0 -94 59.5 -136.5t159.5 -74.5l174 -54q164 -51 252 -144t88 -245q0 -174 -109.5 -281.5t-287.5 -131.5v-230h-197v226q-178 18 -286.5 127.5t-108.5 306.5z" />
<glyph unicode="%" horiz-adv-x="1624" d="M51 1057q0 154 78 261t240 107t238.5 -107.5t76.5 -260.5q0 -154 -77 -261.5t-238 -107.5q-162 0 -240 107.5t-78 261.5zM229 1057q0 -111 36 -170.5t104 -59.5t102.5 59.5t34.5 170.5t-34 170t-103 59q-70 0 -105 -59.5t-35 -169.5zM379 -25l713 1459h153l-713 -1459 h-153zM940 352q0 154 78 261.5t239 107.5q162 0 239 -107.5t77 -261.5t-77 -261t-239 -107t-239.5 107.5t-77.5 260.5zM1118 352q0 -111 36 -170t103 -59q68 0 103 59.5t35 169.5q0 111 -34 170.5t-104 59.5t-104.5 -59.5t-34.5 -170.5z" />
<glyph unicode="&#x26;" horiz-adv-x="1538" d="M104 371q0 160 98.5 251t225.5 148q-90 96 -126 165t-36 155q0 133 101.5 238.5t298.5 105.5q190 0 292.5 -98.5t102.5 -241.5q0 -147 -100.5 -226.5t-227.5 -134.5l340 -340q27 59 41 131t14 152v29h330v-175h-151q-12 -66 -37 -135t-64 -135l260 -260h-264l-119 117 q-76 -63 -182 -102.5t-250 -39.5q-262 0 -404.5 109t-142.5 287zM328 391q0 -117 94 -180.5t229 -63.5q94 0 171 26t134 71l-411 407q-90 -45 -153.5 -104.5t-63.5 -155.5zM471 1098q0 -61 35 -114.5t110 -131.5q100 43 171 96t71 139q0 72 -49 129.5t-143 57.5 q-100 0 -147.5 -53.5t-47.5 -122.5z" />
<glyph unicode="'" horiz-adv-x="460" d="M125 1223v186h211v-186l-35 -361h-141z" />
<glyph unicode="(" horiz-adv-x="608" d="M39 532q0 326 114.5 588t221.5 404h203q-88 -113 -208 -389.5t-120 -602.5t123 -606t205 -393h-203q-106 141 -221 407.5t-115 591.5z" />
<glyph unicode=")" horiz-adv-x="608" d="M31 -467q82 113 204.5 393.5t122.5 605.5q0 326 -119.5 602.5t-207.5 389.5h200q106 -141 221 -403.5t115 -588.5t-114.5 -592t-221.5 -407h-200z" />
<glyph unicode="*" horiz-adv-x="948" d="M131 1112l51 164l238 -111l-31 260h170l-33 -262l240 113l53 -164l-258 -51l178 -191l-137 -100l-131 229l-125 -227l-137 98l176 193z" />
<glyph unicode="+" d="M117 430v180h370v373h189v-373h371v-180h-371v-371h-189v371h-370z" />
<glyph unicode="," horiz-adv-x="559" d="M147 0v262h265v-246l-103 -348h-116l67 332h-113z" />
<glyph unicode="-" horiz-adv-x="811" d="M115 420v192h581v-192h-581z" />
<glyph unicode="." horiz-adv-x="559" d="M147 0v262h265v-262h-265z" />
<glyph unicode="/" horiz-adv-x="944" d="M61 -25l631 1459h191l-631 -1459h-191z" />
<glyph unicode="0" d="M78 705q0 305 117.5 517t386.5 212q268 0 385.5 -212t117.5 -517t-117.5 -517.5t-385.5 -212.5t-386 212t-118 518zM309 705q0 -262 67.5 -400.5t205.5 -138.5q137 0 204.5 138t67.5 401q0 262 -67.5 400t-204.5 138q-141 0 -207 -138t-66 -400z" />
<glyph unicode="1" d="M150 0v184h362v975l-350 -203v205l416 248h155v-1225h340v-184h-923z" />
<glyph unicode="2" d="M90 0q6 287 89 439.5t263 260.5l133 80q104 66 169 115t65 154q0 76 -55.5 138t-178.5 62q-121 0 -186 -65.5t-70 -188.5h-208q6 244 150.5 341.5t316.5 97.5q199 0 326.5 -98.5t127.5 -282.5q0 -172 -94 -254t-217 -158l-133 -80q-139 -84 -189.5 -178t-54.5 -199h502 v230h196v-414h-952z" />
<glyph unicode="3" d="M98 414h219q0 -133 74 -195.5t189 -62.5q106 0 184 72.5t78 209.5q0 121 -71 194t-200 73h-120v104l290 410h-397v-224h-194v414h854v-121l-306 -420q160 -27 263.5 -139.5t103.5 -290.5q0 -229 -141.5 -346t-341.5 -117q-219 0 -351.5 109t-132.5 330z" />
<glyph unicode="4" d="M53 416v153l291 840h229l-290 -805h319v395h219v-395h281v-188h-281v-242h166v-174h-588v174h203v242h-549z" />
<glyph unicode="5" d="M106 414h220q4 -111 69.5 -184.5t192.5 -73.5q104 0 183 70.5t79 205.5q0 131 -75 206t-187 75q-76 0 -136.5 -31t-109.5 -88l-199 16l47 799h797v-414h-196v224h-408l-27 -412q45 39 114 62.5t155 23.5q190 0 318 -118t128 -329q0 -238 -143.5 -354.5t-339.5 -116.5 q-223 0 -348 115t-134 324z" />
<glyph unicode="6" d="M88 672q0 428 154.5 595t375.5 167q199 0 323 -110t128 -329h-217q-4 127 -65.5 192.5t-165.5 65.5q-127 0 -210 -114.5t-92 -407.5q39 74 132.5 118t205.5 44q178 0 309.5 -120t131.5 -333q0 -225 -145.5 -345t-344.5 -120q-211 0 -365.5 148.5t-154.5 548.5zM344 426 q0 -117 75 -193.5t187 -76.5q111 0 191 72.5t80 203.5q0 125 -76 203t-187 78q-115 0 -192.5 -79t-77.5 -208z" />
<glyph unicode="7" d="M119 995v414h983v-145l-584 -1264h-229l575 1219h-549v-224h-196z" />
<glyph unicode="8" d="M80 379q0 129 73.5 223t184.5 127v8q-88 31 -146.5 120t-58.5 194q0 170 123 276.5t326 106.5t325.5 -106.5t122.5 -276.5q0 -104 -58.5 -193.5t-146.5 -120.5v-8q111 -33 184.5 -127t73.5 -223q0 -190 -140 -297t-361 -107t-361.5 106.5t-140.5 297.5zM305 395 q0 -117 78 -179t199 -62t198.5 62.5t77.5 178.5q0 111 -80 176.5t-196 65.5q-117 0 -197 -65.5t-80 -176.5zM344 1044q0 -102 68.5 -163.5t169.5 -61.5q100 0 168.5 61.5t68.5 163.5q0 100 -68.5 159t-168.5 59t-169 -58.5t-69 -159.5z" />
<glyph unicode="9" d="M66 965q0 227 146 348t343 121q209 0 364.5 -155t155.5 -542q0 -424 -146.5 -593t-363.5 -169t-342 113t-129 326h217q4 -127 69.5 -192.5t182.5 -65.5q119 0 195 113.5t84 406.5q-39 -72 -133.5 -116t-204.5 -44q-180 0 -309 118t-129 331zM287 973q0 -125 74.5 -201 t187.5 -76q115 0 192.5 79t77.5 208q0 117 -75.5 193.5t-190.5 76.5q-111 0 -188.5 -73.5t-77.5 -206.5z" />
<glyph unicode=":" horiz-adv-x="559" d="M147 0v262h265v-262h-265zM147 737v262h265v-262h-265z" />
<glyph unicode=";" horiz-adv-x="559" d="M147 0v262h265v-246l-103 -348h-116l67 332h-113zM147 737v262h265v-262h-265z" />
<glyph unicode="&#x3c;" d="M147 430v182l869 367v-195l-656 -260l656 -262v-201z" />
<glyph unicode="=" d="M115 213v180h934v-180h-934zM115 647v180h934v-180h-934z" />
<glyph unicode="&#x3e;" d="M147 61v195l656 260l-656 262v201l869 -369v-182z" />
<glyph unicode="?" horiz-adv-x="1050" d="M68 995q0 178 111.5 308.5t348.5 130.5q203 0 329 -100.5t126 -276.5q0 -252 -182.5 -318.5t-182.5 -255.5v-69h-215v53q0 281 176.5 344t176.5 236q0 86 -60.5 144t-167.5 58q-127 0 -185 -71.5t-58 -182.5h-217zM389 0v246h244v-246h-244z" />
<glyph unicode="@" horiz-adv-x="2115" d="M98 471q0 397 265.5 680t701.5 283q408 0 680 -240t272 -637q0 -305 -131 -440t-297 -135q-94 0 -174 34.5t-119 126.5q-57 -92 -151 -130t-211 -38q-164 0 -251 81t-87 206q0 119 78 198t256 105l194 31q80 14 104.5 27.5t24.5 48.5v2q0 86 -48 135t-148 49t-153.5 -46 t-59.5 -130h-209q8 154 119.5 248t296.5 94q213 0 318.5 -98.5t105.5 -280.5v-307q0 -129 44 -174t105 -45q84 0 154.5 103.5t70.5 334.5q0 340 -225 536.5t-559 196.5q-365 0 -582 -239.5t-217 -579.5q0 -352 214 -573.5t548 -221.5q129 0 242.5 35t191.5 113h219 q-109 -141 -274.5 -216t-378.5 -75q-406 0 -668 265t-262 673zM815 276q0 -66 46 -104.5t126 -38.5q104 0 185 67.5t81 209.5v92q-14 -18 -40.5 -29.5t-61.5 -17.5l-178 -29q-86 -14 -122 -52t-36 -98z" />
<glyph unicode="A" horiz-adv-x="1556" d="M33 0v190h155l383 1029h-198v190h540l453 -1219h158v-190h-549v190h153l-79 222h-551l-78 -222h151v-190h-538zM563 600h420l-205 580h-8z" />
<glyph unicode="B" horiz-adv-x="1464" d="M70 0v190h180v1029h-180v190h802q231 0 344 -98.5t113 -270.5q0 -100 -55 -180t-166 -112v-9q129 -23 203.5 -110.5t74.5 -210.5q0 -178 -120.5 -298t-352.5 -120h-843zM481 190h414q131 0 194.5 66t63.5 166q0 92 -64.5 152.5t-193.5 60.5h-414v-445zM481 821h373 q123 0 183.5 60.5t60.5 150.5q0 84 -56.5 135.5t-185.5 51.5h-375v-398z" />
<glyph unicode="C" horiz-adv-x="1472" d="M70 702q0 311 188 521.5t494 210.5q150 0 242.5 -45.5t148.5 -124.5h8v145h203v-414h-221q-39 111 -132.5 172.5t-234.5 61.5q-207 0 -332 -147.5t-125 -376.5q0 -225 124 -375t325 -150q147 0 238 59.5t132 174.5h234q-51 -203 -210 -321t-398 -118q-309 0 -496.5 206 t-187.5 521z" />
<glyph unicode="D" horiz-adv-x="1531" d="M70 0v190h180v1029h-180v190h649q365 0 553 -199.5t188 -504.5t-188.5 -505t-552.5 -200h-649zM481 190h228q281 0 396.5 155t115.5 360t-116 359.5t-396 154.5h-228v-1029z" />
<glyph unicode="E" horiz-adv-x="1366" d="M70 0v190h180v1029h-180v190h1167v-414h-203v224h-553v-410h482v-186h-482v-433h572v224h202v-414h-1185z" />
<glyph unicode="F" horiz-adv-x="1292" d="M70 0v190h180v1029h-180v190h1147v-414h-203v224h-533v-428h475v-191h-475v-410h205v-190h-616z" />
<glyph unicode="G" horiz-adv-x="1576" d="M70 705q0 315 198.5 522t511.5 207q166 0 263.5 -47.5t154.5 -122.5h8v145h201v-414h-221q-41 111 -132 172.5t-259 61.5q-219 0 -352.5 -147.5t-133.5 -376.5q0 -227 129 -376t336 -149q166 0 292 94.5t126 270.5v18h-377v187h584v-750h-180l-7 174 q-76 -100 -186.5 -149.5t-261.5 -49.5q-309 0 -501.5 209t-192.5 521z" />
<glyph unicode="H" horiz-adv-x="1673" d="M70 0v190h180v1029h-180v190h592v-190h-181v-410h709v410h-180v190h592v-190h-181v-1029h181v-190h-592v190h180v426h-709v-426h181v-190h-592z" />
<glyph unicode="I" horiz-adv-x="731" d="M70 0v190h180v1029h-180v190h592v-190h-181v-1029h181v-190h-592z" />
<glyph unicode="J" horiz-adv-x="1177" d="M90 389v25h227v-23q0 -117 58.5 -168t138.5 -51q86 0 141.5 56.5t55.5 191.5v799h-172v190h569v-190h-164v-807q0 -231 -117.5 -334t-310.5 -103q-184 0 -304 96.5t-122 317.5z" />
<glyph unicode="K" horiz-adv-x="1497" d="M70 0v190h180v1029h-180v190h411v-713l506 523h-160v190h592v-190h-162l-393 -400l445 -629h155v-190h-305l-457 655l-221 -227v-238h181v-190h-592z" />
<glyph unicode="L" horiz-adv-x="1232" d="M70 0v190h180v1029h-180v190h592v-190h-181v-1029h480v224h202v-414h-1093z" />
<glyph unicode="M" horiz-adv-x="2039" d="M70 0v190h180v1029h-180v190h479l473 -1096h4l469 1096h475v-190h-180v-1029h180v-190h-586v190h177l16 883h-8l-461 -1073h-176l-461 1055h-8l14 -865h180v-190h-587z" />
<glyph unicode="N" horiz-adv-x="1681" d="M70 0v190h180v1029h-180v190h395l741 -1016h8l-8 826h-180v190h584v-190h-172v-1219h-211l-746 1012h-8l6 -822h183v-190h-592z" />
<glyph unicode="O" horiz-adv-x="1546" d="M70 705q0 313 194.5 521t509.5 208q309 0 506 -208t197 -521t-197 -521.5t-506 -208.5q-315 0 -509.5 208t-194.5 522zM309 705q0 -225 128 -375t337 -150q207 0 335 149.5t128 375.5q0 225 -128 374.5t-335 149.5q-209 0 -337 -149.5t-128 -374.5z" />
<glyph unicode="P" horiz-adv-x="1378" d="M70 0v190h180v1029h-180v190h759q244 0 373 -127t129 -324t-129 -330.5t-373 -133.5h-348v-304h205v-190h-616zM481 684h336q145 0 213 81t68 191q0 111 -67.5 187t-213.5 76h-336v-535z" />
<glyph unicode="Q" horiz-adv-x="1548" d="M70 705q0 313 194.5 521t509.5 208q309 0 506 -208t197 -521q0 -166 -56.5 -304.5t-156.5 -236.5l264 -275l-152 -149l-286 303q-70 -33 -149 -50.5t-167 -17.5q-315 0 -509.5 208t-194.5 522zM309 705q0 -225 128 -375t337 -150q207 0 335 149.5t128 375.5 q0 225 -128 374.5t-335 149.5q-209 0 -337 -149.5t-128 -374.5z" />
<glyph unicode="R" horiz-adv-x="1458" d="M70 0v190h180v1029h-180v190h757q246 0 372 -112.5t126 -307.5q0 -152 -78 -263.5t-231 -154.5l233 -381h158v-190h-305l-328 547h-293v-357h178v-190h-589zM481 735h342q135 0 202 74t67 178t-69 168t-200 64h-342v-484z" />
<glyph unicode="S" horiz-adv-x="1282" d="M96 0v414h205q31 -119 121 -188.5t240 -69.5q143 0 223 61.5t80 161.5q0 252 -368 252q-29 1 -60 -1q-22 -1 -42 -2q-386 0 -386 386q0 190 136 305t357 115q135 0 216 -41t126 -111h8v127h199v-414h-205q-27 117 -112.5 187.5t-221.5 70.5q-117 0 -195.5 -54t-78.5 -155 q0 -240 367 -240q30 0 63 2q21 1 41 1q389 0 389 -397q0 -199 -138 -317t-382 -118q-135 0 -230.5 38t-144.5 114h-8v-127h-199z" />
<glyph unicode="T" horiz-adv-x="1363" d="M70 995v414h1224v-414h-204v228h-293v-1033h233v-190h-696v190h231v1033h-291v-228h-204z" />
<glyph unicode="U" horiz-adv-x="1640" d="M70 1219v190h559v-190h-164v-656q0 -182 88 -282.5t266 -100.5t266.5 100.5t88.5 282.5v656h-164v190h559v-190h-164v-658q0 -319 -164 -452.5t-422 -133.5q-256 0 -421 133.5t-165 452.5v658h-163z" />
<glyph unicode="V" horiz-adv-x="1519" d="M33 1219v190h559v-190h-168l338 -990h6l336 990h-166v190h549v-190h-154l-442 -1219h-264l-441 1219h-153z" />
<glyph unicode="W" horiz-adv-x="2199" d="M33 1219v190h577v-190h-180l227 -967h9l311 1157h258l315 -1157h9l219 967h-179v190h568v-190h-152l-309 -1219h-293l-307 1122h-8l-303 -1122h-295l-316 1219h-151z" />
<glyph unicode="X" horiz-adv-x="1425" d="M33 0v190h149l387 523l-374 506h-144v190h557v-190h-145l252 -355l250 355h-148v190h553v-190h-151l-369 -496l397 -533h146v-190h-568v190h154l-272 381l-273 -381h160v-190h-561z" />
<glyph unicode="Y" horiz-adv-x="1427" d="M33 1219v190h571v-190h-166l275 -451h8l283 451h-150v190h541v-190h-146l-422 -660v-369h232v-190h-697v190h232v359l-414 670h-147z" />
<glyph unicode="Z" horiz-adv-x="1308" d="M102 0v141l787 1080h-567v-226h-203v414h1065v-141l-787 -1080h600v226h203v-414h-1098z" />
<glyph unicode="[" horiz-adv-x="702" d="M168 -467v1991h498v-176h-297v-1639h297v-176h-498z" />
<glyph unicode="\" horiz-adv-x="944" d="M61 1434h191l631 -1459h-191z" />
<glyph unicode="]" horiz-adv-x="702" d="M37 -291h297v1639h-297v176h500v-1991h-500v176z" />
<glyph unicode="^" d="M102 721l379 688h203l379 -688h-213l-270 510l-271 -510h-207z" />
<glyph unicode="_" horiz-adv-x="1024" d="M0 -147h1024v-175h-1024v175z" />
<glyph unicode="`" horiz-adv-x="1173" d="M211 1499h246l209 -336h-156z" />
<glyph unicode="a" horiz-adv-x="1150" d="M72 256q0 125 78.5 200.5t255.5 104.5l194 33q74 12 101.5 25.5t27.5 42.5q0 90 -47 143t-147 53t-156.5 -52t-56.5 -149h-211q2 172 119.5 269.5t306.5 97.5q207 0 311 -97.5t104 -271.5v-483h142v-172h-355v129h-8q-45 -74 -128 -114t-193 -40q-162 0 -250 78t-88 203z M293 279q0 -61 43 -99.5t127 -38.5q102 0 184 65.5t82 203.5v92q-14 -18 -40.5 -29.5t-61.5 -17.5l-172 -29q-88 -14 -125 -52t-37 -95z" />
<glyph unicode="b" horiz-adv-x="1255" d="M55 0v172h148v1155h-148v172h371v-313q0 -51 -1 -144.5t-9 -191.5h8q45 90 133 132t199 42q188 0 317 -134t129 -382t-136 -390.5t-327 -142.5q-106 0 -188 42t-127 133h-8v-150h-361zM426 500q0 -164 79 -255t195 -91q117 0 194 95t77 259t-77 251t-194 87 q-115 0 -192.5 -87t-81.5 -243v-16z" />
<glyph unicode="c" horiz-adv-x="1077" d="M53 492q0 250 138.5 391t334.5 141q109 0 176.5 -39t100.5 -106h8v120h188v-348h-196q-23 88 -82 141.5t-156 53.5q-133 0 -207.5 -96.5t-74.5 -249.5q0 -154 74.5 -250t199.5 -96q96 0 155.5 55t73.5 139h213q-16 -154 -126.5 -263.5t-323.5 -109.5q-231 0 -363.5 139.5 t-132.5 377.5z" />
<glyph unicode="d" horiz-adv-x="1255" d="M53 492q0 248 136.5 390t326.5 142q106 0 188 -42t127 -132h9q-8 98 -9.5 191.5t-1.5 144.5v141h-157v172h379v-1327h149v-172h-360v150h-9q-45 -90 -133 -132.5t-198 -42.5q-188 0 -317.5 134.5t-129.5 382.5zM283 492q0 -164 77.5 -251t194.5 -87t195.5 91t78.5 255 t-78.5 255t-195.5 91t-194.5 -95.5t-77.5 -258.5z" />
<glyph unicode="e" horiz-adv-x="1075" d="M53 496q0 238 142.5 383t353.5 145q209 0 338 -128t129 -359v-74h-735q8 -145 83.5 -227t194.5 -82q104 0 162.5 50t73.5 128h211q-16 -154 -139.5 -255.5t-307.5 -101.5q-242 0 -374 138.5t-132 382.5zM291 612h504q-14 123 -77 180.5t-167 57.5q-96 0 -166 -62.5 t-94 -175.5z" />
<glyph unicode="f" horiz-adv-x="727" d="M63 0v172h158v655h-158v172h158v142q0 172 88 265t275 93h112v-172h-94q-88 0 -123 -49t-35 -143v-136h220v-172h-220v-655h220v-172h-601z" />
<glyph unicode="g" horiz-adv-x="1249" d="M53 492q0 248 136.5 390t326.5 142q106 0 188 -42t127 -132h9v149h354v-172h-143v-782q0 -281 -141.5 -396.5t-360.5 -115.5q-199 0 -327 88t-130 260h205q0 -78 71.5 -126t180.5 -48q133 0 212 70.5t79 267.5v105h-9q-45 -90 -133 -132.5t-198 -42.5 q-188 0 -317.5 134.5t-129.5 382.5zM283 492q0 -164 77.5 -251t194.5 -87q115 0 192.5 87t81.5 242v17q0 164 -78.5 255t-195.5 91t-194.5 -95.5t-77.5 -258.5z" />
<glyph unicode="h" horiz-adv-x="1306" d="M55 0v172h148v1155h-148v172h371v-309q0 -51 -1 -144.5t-9 -191.5h8q43 84 123 127t186 43q150 0 262.5 -93t112.5 -325v-434h143v-172h-503v172h139v406q0 147 -58.5 206.5t-152.5 59.5q-104 0 -177 -85t-73 -231v-356h139v-172h-510z" />
<glyph unicode="i" horiz-adv-x="655" d="M63 0v172h158v655h-158v172h381v-827h148v-172h-529zM213 1274v225h240v-225h-240z" />
<glyph unicode="j" horiz-adv-x="604" d="M33 -276h45q66 0 91.5 36.5t25.5 112.5v954h-150v172h373v-1149q0 -137 -68.5 -221t-247.5 -84h-69v179zM186 1274v225h240v-225h-240z" />
<glyph unicode="k" horiz-adv-x="1177" d="M55 0v172h148v1155h-148v172h371v-964l311 292h-139v172h530v-172h-131l-252 -233l271 -422h129v-172h-275l-282 449l-162 -150v-127h147v-172h-518z" />
<glyph unicode="l" horiz-adv-x="628" d="M55 0v172h148v1155h-148v172h371v-1327h147v-172h-518z" />
<glyph unicode="m" horiz-adv-x="1951" d="M63 0v172h158v655h-158v172h371v-145h8q43 84 122 127t181 43q104 0 189.5 -46t128.5 -153q51 106 138 152.5t198 46.5q145 0 249.5 -91t104.5 -315v-446h143v-172h-503v172h139v420q0 139 -49 195.5t-144 56.5q-100 0 -170.5 -85t-70.5 -235v-352h139v-172h-498v172h138 v420q0 139 -51.5 195.5t-141.5 56.5q-100 0 -170 -87t-70 -235v-350h138v-172h-519z" />
<glyph unicode="n" horiz-adv-x="1325" d="M63 0v172h158v655h-158v172h371v-145h8q43 84 123 127t187 43q150 0 262 -93t112 -325v-434h144v-172h-504v172h139v406q0 147 -58.5 206.5t-154.5 59.5q-106 0 -177 -88t-71 -236v-348h140v-172h-521z" />
<glyph unicode="o" horiz-adv-x="1128" d="M53 500q0 242 145.5 383t364.5 141q231 0 371.5 -140.5t140.5 -383.5q0 -242 -145.5 -383.5t-366.5 -141.5q-231 0 -370.5 140.5t-139.5 384.5zM283 500q0 -156 78.5 -250t201.5 -94t202 94t79 250q0 162 -79 253t-202 91t-201.5 -94.5t-78.5 -249.5z" />
<glyph unicode="p" horiz-adv-x="1255" d="M55 -279h148v1106h-146v172h359v-149h8q45 90 133 132t199 42q188 0 317 -134t129 -382t-136 -390.5t-327 -142.5q-106 0 -188 42t-127 133h-8q8 -98 9 -191.5t1 -144.5v-93h221v-172h-592v172zM426 500q0 -164 79 -255t195 -91q117 0 194 95t77 259t-77 251t-194 87 t-195.5 -91t-78.5 -255z" />
<glyph unicode="q" horiz-adv-x="1255" d="M53 492q0 248 136.5 390t326.5 142q106 0 188 -42t127 -132h9v149h358v-172h-147v-1106h149v-172h-592v172h221v93q0 51 1 144t10 192h-9q-45 -90 -133 -132.5t-198 -42.5q-188 0 -317.5 134.5t-129.5 382.5zM283 492q0 -164 77.5 -251t194.5 -87t195.5 91t78.5 255 t-78.5 255t-195.5 91t-194.5 -95.5t-77.5 -258.5z" />
<glyph unicode="r" horiz-adv-x="821" d="M63 0v172h158v655h-158v172h371v-194h8q45 102 117 148t172 46h49v-206h-63q-102 0 -187.5 -68t-85.5 -223v-330h224v-172h-605z" />
<glyph unicode="s" horiz-adv-x="997" d="M74 0v334h188q18 -104 92 -153.5t164 -49.5q94 0 150.5 36t56.5 105q0 156 -240 156q-37 0 -79 -4q-26 -2 -50 -2q-270 0 -270 291q0 145 108.5 228t268.5 83q90 0 155.5 -31.5t100.5 -93.5h8v100h186v-331h-188q-18 96 -81.5 148t-151.5 52q-86 0 -138.5 -33.5 t-52.5 -99.5q0 -154 243 -154h15q30 0 65 3q26 2 50 3q274 0 274 -292q0 -164 -114.5 -242t-284.5 -78q-106 0 -174 33t-107 92h-8v-100h-186z" />
<glyph unicode="t" horiz-adv-x="724" d="M0 827v172h184v304h222v-304h256v-172h-256v-501q0 -80 31.5 -117t107.5 -37h117v-172h-154q-168 0 -246 75t-78 234v518h-184z" />
<glyph unicode="u" horiz-adv-x="1298" d="M55 827v172h363v-577q0 -147 58.5 -206.5t152.5 -59.5q104 0 173.5 87t69.5 240v344h-143v172h365v-827h149v-172h-360v145h-9q-43 -84 -119.5 -127t-183.5 -43q-150 0 -263 93.5t-113 324.5v434h-140z" />
<glyph unicode="v" horiz-adv-x="1204" d="M33 827v172h495v-172h-133l211 -602h8l211 602h-131v172h477v-172h-127l-309 -827h-256l-319 827h-127z" />
<glyph unicode="w" horiz-adv-x="1759" d="M33 827v172h506v-172h-148l146 -606h8l221 778h235l220 -778h8l145 606h-145v172h497v-172h-135l-233 -827h-264l-211 778h-9l-208 -778h-265l-233 827h-135z" />
<glyph unicode="x" horiz-adv-x="1138" d="M33 0v172h125l268 326l-270 329h-117v172h485v-172h-116l172 -215l174 215h-117v172h463v-172h-121l-268 -327l270 -328h125v-172h-498v172h121l-172 213l-172 -213h115v-172h-467z" />
<glyph unicode="y" horiz-adv-x="1204" d="M33 827v172h495v-172h-133l211 -602h8l211 602h-131v172h477v-172h-127l-411 -1106h151v-172h-540v172h178l80 220l-342 886h-127z" />
<glyph unicode="z" horiz-adv-x="993" d="M72 0v125l559 700h-363v-174h-182v348h819v-137l-547 -688h381v174h181v-348h-848z" />
<glyph unicode="{" horiz-adv-x="757" d="M33 459v155q141 0 185 60.5t44 210.5v319q0 160 75 240t265 80h125v-170h-102q-94 0 -127 -38t-33 -126v-375q0 -111 -46 -177.5t-159 -96.5v-9q113 -31 159 -97t46 -177v-391q0 -88 32.5 -126t127.5 -38h102v-170h-125q-190 0 -265 80t-75 240v335q0 150 -44 210.5 t-185 60.5z" />
<glyph unicode="|" horiz-adv-x="555" d="M180 -492v2048h195v-2048h-195z" />
<glyph unicode="}" horiz-adv-x="757" d="M31 -297h102q94 0 127 38t33 126v391q0 111 46 177.5t159 96.5v9q-113 31 -159 97.5t-46 176.5v375q0 88 -33 126t-127 38h-102v170h123q193 0 266.5 -80t73.5 -240v-319q0 -150 44 -210.5t185 -60.5v-155q-141 0 -185 -60.5t-44 -210.5v-335q0 -160 -74 -240t-266 -80 h-123v170z" />
<glyph unicode="~" d="M106 367q0 174 83 253.5t190 79.5q139 0 226 -74.5t175 -74.5q49 0 76 37t27 117h176q0 -172 -82 -253t-184 -81q-139 0 -230.5 78.5t-177.5 78.5q-49 0 -75.5 -39.5t-26.5 -121.5h-177z" />
<glyph unicode="&#xa1;" horiz-adv-x="581" d="M168 -20l59 614h125l62 -614v-390h-246v390zM168 754v245h244v-245h-244z" />
<glyph unicode="&#xa2;" d="M102 713q0 211 118 349t296 167v205h197v-205q162 -27 253 -127.5t105 -235.5h-219q-12 78 -72.5 135.5t-171.5 57.5q-121 0 -198.5 -96.5t-77.5 -249.5q0 -154 77.5 -250t198.5 -96q111 0 171.5 57t72.5 135h219q-14 -139 -106.5 -240.5t-259.5 -123.5v-220h-197v220 q-190 31 -298 168t-108 350z" />
<glyph unicode="&#xa3;" d="M2 176q0 106 69.5 165.5t180.5 59.5q35 0 67.5 -7t63.5 -19q2 14 2 27.5v27.5q0 59 -13.5 116.5t-33.5 112.5h-219v140h166q-23 63 -40.5 129.5t-17.5 138.5q0 168 104.5 267.5t291.5 99.5q190 0 283 -107.5t95 -331.5h-198q-4 152 -51 210.5t-134 58.5q-70 0 -121 -47.5 t-51 -137.5q0 -70 21.5 -140.5t48.5 -139.5h322v-140h-273q12 -43 20.5 -89t8.5 -91q0 -53 -6 -107.5t-21 -105.5q61 -43 118.5 -76.5t115.5 -33.5q59 0 98 55t41 203h190q-8 -207 -73.5 -323t-237.5 -116q-92 0 -170 45.5t-145 98.5q-43 -63 -108.5 -103.5t-157.5 -40.5 q-104 0 -170 52.5t-66 148.5zM154 184q0 -37 21.5 -61.5t64.5 -24.5q49 0 78.5 37t43.5 92q-29 20 -56 31.5t-54 11.5q-45 0 -71.5 -25.5t-26.5 -60.5z" />
<glyph unicode="&#xa5;" d="M18 1409h254l314 -571h8l315 571h236l-453 -788v-3h297v-124h-297v-146h297v-125h-297v-223h-221v223h-297v125h297v146h-297v124h297v5z" />
<glyph unicode="&#xa8;" horiz-adv-x="1173" d="M266 1229v213h211v-213h-211zM696 1229v213h209v-213h-209z" />
<glyph unicode="&#xa9;" horiz-adv-x="1589" d="M72 713q0 307 205.5 514t517.5 207q305 0 514 -207t209 -514t-206 -522.5t-517 -215.5t-517 215.5t-206 522.5zM229 713q0 -250 158 -428.5t408 -178.5q244 0 404.5 178.5t160.5 428.5t-158 415.5t-407 165.5q-250 0 -408 -165.5t-158 -415.5zM440 713q0 147 94.5 253.5 t249.5 106.5q66 0 109 -21.5t68 -54.5v66h143v-232h-156q-14 45 -48 75t-103 30q-86 0 -138.5 -65.5t-52.5 -157.5q0 -94 52.5 -160t138.5 -66q70 0 103.5 31t47.5 76h158q-18 -109 -99 -175.5t-210 -66.5q-166 0 -261.5 105.5t-95.5 255.5z" />
<glyph unicode="&#xab;" horiz-adv-x="1099" d="M102 516l293 418h183l-234 -418l234 -418h-183zM522 516l293 418h182l-233 -418l233 -418h-182z" />
<glyph unicode="&#xad;" horiz-adv-x="811" d="M115 420v192h581v-192h-581z" />
<glyph unicode="&#xae;" horiz-adv-x="1589" d="M72 713q0 307 205.5 514t517.5 207q305 0 514 -207t209 -514t-206 -522.5t-517 -215.5t-517 215.5t-206 522.5zM229 713q0 -250 158 -428.5t408 -178.5q244 0 404.5 178.5t160.5 428.5t-158 415.5t-407 165.5q-250 0 -408 -165.5t-158 -415.5zM451 360v136h79v434h-79 v135h415q133 0 202 -59.5t69 -163.5q0 -72 -40 -128.5t-110 -82.5l88 -135h82v-136h-172l-154 250h-135v-114h95v-136h-340zM696 743h164q55 0 83 26t28 71t-28 67.5t-83 22.5h-164v-187z" />
<glyph unicode="&#xb4;" horiz-adv-x="1173" d="M508 1163l209 336h246l-299 -336h-156z" />
<glyph unicode="&#xb8;" horiz-adv-x="1173" d="M449 -330h108q45 0 72.5 16.5t27.5 61.5q0 39 -27.5 57.5t-72.5 18.5h-68l62 176h74v-76q92 -4 140 -55t48 -123q0 -84 -59.5 -140.5t-180.5 -56.5h-124v121z" />
<glyph unicode="&#xbb;" horiz-adv-x="1099" d="M102 98l234 418l-234 418h183l293 -418l-293 -418h-183zM522 98l234 418l-234 418h183l292 -418l-292 -418h-183z" />
<glyph unicode="&#xbc;" horiz-adv-x="1624" d="M104 705v143h201v354l-194 -108v153l264 162h117v-561h184v-143h-572zM420 -25l713 1459h153l-713 -1459h-153zM938 201v114l131 390h178l-131 -361h144v150h165v-150h148v-143h-148v-68h95v-133h-367v133h107v68h-322z" />
<glyph unicode="&#xbd;" horiz-adv-x="1624" d="M104 705v143h201v354l-194 -108v153l264 162h117v-561h184v-143h-572zM420 -25l713 1459h153l-713 -1459h-153zM944 0q2 156 52.5 241t168.5 136l72 31q68 29 99.5 48t31.5 56q0 29 -27.5 51.5t-85.5 22.5q-61 0 -90.5 -28t-31.5 -79h-172q4 121 90 181.5t215 60.5 q123 0 200.5 -53.5t77.5 -153.5q0 -86 -51 -130t-145 -83l-72 -31q-82 -35 -105.5 -66.5t-25.5 -60.5h250v84h151v-227h-602z" />
<glyph unicode="&#xbe;" horiz-adv-x="1624" d="M80 928h164q0 -63 34.5 -88t88.5 -25q61 0 95 26.5t34 78.5q0 47 -33 68.5t-90 21.5h-72v94l135 162h-188v-86h-150v229h549v-104l-160 -181q88 -16 138.5 -66t50.5 -138q0 -111 -83 -171.5t-218 -60.5t-215 54.5t-80 185.5zM379 -25l713 1459h153l-713 -1459h-153z M938 201v114l131 390h178l-131 -361h144v150h165v-150h148v-143h-148v-68h95v-133h-367v133h107v68h-322z" />
<glyph unicode="&#xbf;" horiz-adv-x="1050" d="M68 -57q0 252 182 318.5t182 254.5v70h215v-54q0 -281 -176 -344t-176 -235q0 -86 60.5 -144.5t164.5 -58.5q129 0 187.5 72t58.5 182h217q0 -178 -111.5 -308t-351.5 -130q-201 0 -326.5 100.5t-125.5 276.5zM418 754v245h244v-245h-244z" />
<glyph unicode="&#x2c6;" horiz-adv-x="1173" d="M233 1163l263 336h182l262 -336h-195l-159 217l-158 -217h-195z" />
<glyph unicode="&#x2dc;" horiz-adv-x="1173" d="M240 1210q2 104 54 172t150 68q90 0 163 -47t130 -47q41 0 60.5 31.5t25.5 66.5h111q-2 -104 -54.5 -172t-150.5 -68q-90 0 -163.5 47.5t-129.5 47.5q-41 0 -61.5 -32t-24.5 -67h-110z" />
<glyph unicode="&#x2000;" horiz-adv-x="823" />
<glyph unicode="&#x2001;" horiz-adv-x="1647" />
<glyph unicode="&#x2002;" horiz-adv-x="823" />
<glyph unicode="&#x2003;" horiz-adv-x="1647" />
<glyph unicode="&#x2004;" horiz-adv-x="549" />
<glyph unicode="&#x2005;" horiz-adv-x="411" />
<glyph unicode="&#x2006;" horiz-adv-x="274" />
<glyph unicode="&#x2007;" horiz-adv-x="274" />
<glyph unicode="&#x2008;" horiz-adv-x="205" />
<glyph unicode="&#x2009;" horiz-adv-x="329" />
<glyph unicode="&#x200a;" horiz-adv-x="91" />
<glyph unicode="&#x2010;" horiz-adv-x="811" d="M115 420v192h581v-192h-581z" />
<glyph unicode="&#x2011;" horiz-adv-x="811" d="M115 420v192h581v-192h-581z" />
<glyph unicode="&#x2012;" horiz-adv-x="811" d="M115 420v192h581v-192h-581z" />
<glyph unicode="&#x2013;" horiz-adv-x="1138" d="M115 420v192h909v-192h-909z" />
<glyph unicode="&#x2014;" horiz-adv-x="1720" d="M115 420v192h1491v-192h-1491z" />
<glyph unicode="&#x2018;" horiz-adv-x="522" d="M141 862v225l88 322h111l-61 -305h102v-242h-240z" />
<glyph unicode="&#x2019;" horiz-adv-x="522" d="M141 1167v242h240v-225l-88 -322h-111l64 305h-105z" />
<glyph unicode="&#x201a;" horiz-adv-x="522" d="M141 0v242h240v-226l-88 -321h-111l64 305h-105z" />
<glyph unicode="&#x201c;" horiz-adv-x="917" d="M141 862v225l88 322h111l-61 -305h102v-242h-240zM537 862v225l88 322h110l-61 -305h102v-242h-239z" />
<glyph unicode="&#x201d;" horiz-adv-x="917" d="M141 1167v242h240v-225l-88 -322h-111l64 305h-105zM537 1167v242h239v-225l-88 -322h-110l63 305h-104z" />
<glyph unicode="&#x201e;" horiz-adv-x="917" d="M141 0v242h240v-226l-88 -321h-111l64 305h-105zM537 0v242h239v-226l-88 -321h-110l63 305h-104z" />
<glyph unicode="&#x2022;" horiz-adv-x="999" d="M147 516q0 147 102.5 249.5t250.5 102.5q147 0 249.5 -102t102.5 -250q0 -147 -102.5 -249.5t-249.5 -102.5t-250 102.5t-103 249.5z" />
<glyph unicode="&#x2026;" horiz-adv-x="1652" d="M147 0v262h265v-262h-265zM694 0v262h264v-262h-264zM1241 0v262h264v-262h-264z" />
<glyph unicode="&#x202f;" horiz-adv-x="329" />
<glyph unicode="&#x2039;" horiz-adv-x="681" d="M102 516l295 418h183l-234 -418l234 -418h-183z" />
<glyph unicode="&#x203a;" horiz-adv-x="681" d="M102 98l234 418l-234 418h183l295 -418l-295 -418h-183z" />
<glyph unicode="&#x205f;" horiz-adv-x="411" />
<glyph unicode="&#x20ac;" d="M-10 496l37 139h131v70v42.5t2 43.5h-131l37 139h108q35 219 157 361.5t355 142.5q180 0 304 -102.5t143 -336.5h-201q-20 145 -85 199.5t-155 54.5q-123 0 -193.5 -83t-95.5 -236h385l-36 -139h-363q-2 -20 -2 -43v-43v-70h356l-36 -139h-306q23 -162 93.5 -249 t197.5 -87q90 0 154.5 55t85.5 199h201q-18 -233 -142.5 -336t-304.5 -103q-238 0 -359.5 147.5t-154.5 373.5h-182z" />
<glyph unicode="&#x2122;" horiz-adv-x="1886" d="M47 1137v272h658v-272h-144v131h-98v-428h110v-135h-391v135h113v428h-100v-131h-148zM772 705v135h90v434h-90v135h326l186 -481h8l187 481h325v-135h-92v-434h92v-135h-348v135h90l6 358h-8l-190 -493h-133l-191 493h-8l6 -358h92v-135h-348z" />
<glyph unicode="&#x25fc;" horiz-adv-x="1000" d="M0 0v1000h1000v-1000h-1000z" />
</font>
</defs>
</svg>
