<?xml version="1.0" standalone="no"?><!DOCTYPE svg PUBLIC "-//W3C//DTD SVG 1.1//EN" "http://www.w3.org/Graphics/SVG/1.1/DTD/svg11.dtd" ><svg version="1.1" xmlns="http://www.w3.org/2000/svg"><defs><font horiz-adv-x="0" id="font"><font-face ascent="750" bbox="-120 -225 957 906" cap-height="614" descent="-250" font-family="Copyright Klim Type Foundry" font-stretch="normal" font-style="normal" font-weight="600" units-per-em="1000" x-height="447" /><missing-glyph horiz-adv-x="608" /><glyph glyph-name=".null" horiz-adv-x="0" /><glyph d="M377 614 612 0H482L427 148H197L143 0H15L250 614ZM237 256H387L312 460Z" glyph-name="A" horiz-adv-x="627" unicode="A" /><glyph d="M839 614V502H567V368H812V259H567V113H839V0H441V148H233L149 0H15L365 614ZM295 256H441V512Z" glyph-name="AE" horiz-adv-x="879" unicode="&#198;" /><glyph d="M519 669 599 791H734L641 669ZM839 614V502H567V368H812V259H567V113H839V0H441V148H233L149 0H15L365 614ZM295 256H441V512Z" glyph-name="AEacute" horiz-adv-x="879" unicode="&#508;" /><glyph d="M377 614 612 0H482L427 148H197L143 0H15L250 614ZM237 256H387L312 460ZM246 669 326 791H461L368 669Z" glyph-name="Aacute" horiz-adv-x="627" unicode="&#193;" /><glyph d="M377 614 612 0H482L427 148H197L143 0H15L250 614ZM237 256H387L312 460ZM313 663Q253 663 216 697Q179 731 179 797H267Q267 772 280 760.5Q293 749 313 749Q335 749 347.5 760.5Q360 772 360 797H448Q448 731 411 697Q374 663 313 663Z" glyph-name="Abreve" horiz-adv-x="627" unicode="&#258;" /><glyph d="M377 614 612 0H482L427 148H197L143 0H15L250 614ZM237 256H387L312 460ZM465 669H360L313 723L266 669H161L261 796H365Z" glyph-name="Acircumflex" horiz-adv-x="627" unicode="&#194;" /><glyph d="M377 614 612 0H482L427 148H197L143 0H15L250 614ZM237 256H387L312 460ZM164 730Q164 759 183 778.5Q202 798 231 798Q259 798 278.5 778.5Q298 759 298 730Q298 703 278.5 683.5Q259 664 231 664Q202 664 183 683.5Q164 703 164 730ZM329 730Q329 759 348.5 778.5Q368 798 396 798Q424 798 444 778.5Q464 759 464 730Q464 703 444 683.5Q424 664 396 664Q368 664 348.5 683.5Q329 703 329 730Z" glyph-name="Adieresis" horiz-adv-x="627" unicode="&#196;" /><glyph d="M377 614 612 0H482L427 148H197L143 0H15L250 614ZM237 256H387L312 460ZM257 669 164 791H299L379 669Z" glyph-name="Agrave" horiz-adv-x="627" unicode="&#192;" /><glyph d="M377 614 612 0H482L427 148H197L143 0H15L250 614ZM237 256H387L312 460ZM192 760H435V669H192Z" glyph-name="Amacron" horiz-adv-x="627" unicode="&#256;" /><glyph d="M377 614 612 0Q597 -21 587.5 -34Q578 -47 572.5 -56.5Q567 -66 564.5 -73Q562 -80 562 -88Q562 -97 567.5 -103Q573 -109 582 -109Q591 -109 599 -105Q607 -101 619 -93V-167Q606 -176 591 -182Q576 -188 557 -188Q518 -188 496.5 -167.5Q475 -147 475 -113Q475 -82 491 -55.5Q507 -29 529 0H482L427 148H197L143 0H15L250 614ZM237 256H387L312 460Z" glyph-name="Aogonek" horiz-adv-x="627" unicode="&#260;" /><glyph d="M377 614 612 0H482L427 148H197L143 0H15L250 614ZM237 256H387L312 460ZM412 743Q412 722 404.5 704.5Q397 687 383.5 674Q370 661 352 653.5Q334 646 313 646Q292 646 274 653.5Q256 661 242.5 674Q229 687 221.5 704.5Q214 722 214 743Q214 764 221.5 781.5Q229 799 242.5 812Q256 825 274 832.5Q292 840 313 840Q334 840 352 832.5Q370 825 383.5 812Q397 799 404.5 781.5Q412 764 412 743ZM353 743Q353 760 341.5 771.5Q330 783 313 783Q296 783 285 771.5Q274 760 274 743Q274 726 285 715Q296 704 313 704Q330 704 341.5 715Q353 726 353 743Z" glyph-name="Aring" horiz-adv-x="627" unicode="&#197;" /><glyph d="M410 713Q410 679 382 655.5Q354 632 312 632Q270 632 241.5 655.5Q213 679 213 713Q213 747 241.5 770.5Q270 794 312 794Q354 794 382 770.5Q410 747 410 713ZM351 713Q351 727 340 735.5Q329 744 312 744Q295 744 283.5 735.5Q272 727 272 713Q272 699 283.5 690.5Q295 682 312 682Q329 682 340 690.5Q351 699 351 713ZM257 812 314 906H449L378 812ZM377 614 612 0H482L427 148H197L143 0H15L250 614ZM237 256H387L312 460Z" glyph-name="Aringacute" horiz-adv-x="627" unicode="&#506;" /><glyph d="M377 614 612 0H482L427 148H197L143 0H15L250 614ZM237 256H387L312 460ZM462 802Q462 772 457 747Q452 722 442 703Q432 684 415.5 673.5Q399 663 377 663Q359 663 344 669.5Q329 676 315.5 684Q302 692 289.5 698.5Q277 705 264 705Q236 705 235 666H164Q164 696 169 721Q174 746 184 765Q194 784 210 794.5Q226 805 249 805Q267 805 282 798.5Q297 792 310.5 784Q324 776 336.5 769.5Q349 763 362 763Q389 763 391 802Z" glyph-name="Atilde" horiz-adv-x="627" unicode="&#195;" /><glyph d="M420 317Q464 303 492 264Q520 225 520 174Q520 89 465.5 44.5Q411 0 314 0H59V614H294Q391 614 446 572Q501 530 501 447Q501 397 477.5 363Q454 329 420 317ZM286 362Q379 362 379 435Q379 506 286 506H182V362ZM182 108H303Q348 108 371.5 129Q395 150 395 185Q395 221 371.5 241.5Q348 262 303 262H182Z" glyph-name="B" horiz-adv-x="553" unicode="B" /><glyph d="M29 307Q29 378 51.5 436.5Q74 495 114.5 536.5Q155 578 211 601Q267 624 334 624Q385 624 424.5 611.5Q464 599 494 576V447Q425 507 340 507Q299 507 265.5 493Q232 479 208 452.5Q184 426 171 389Q158 352 158 307Q158 262 171 225.5Q184 189 208 162.5Q232 136 265.5 122Q299 108 340 108Q384 108 421.5 122Q459 136 494 167V38Q464 15 424.5 2.5Q385 -10 334 -10Q267 -10 211 13Q155 36 114.5 77.5Q74 119 51.5 177.5Q29 236 29 307Z" glyph-name="C" horiz-adv-x="538" unicode="C" /><glyph d="M29 307Q29 378 51.5 436.5Q74 495 114.5 536.5Q155 578 211 601Q267 624 334 624Q385 624 424.5 611.5Q464 599 494 576V447Q425 507 340 507Q299 507 265.5 493Q232 479 208 452.5Q184 426 171 389Q158 352 158 307Q158 262 171 225.5Q184 189 208 162.5Q232 136 265.5 122Q299 108 340 108Q384 108 421.5 122Q459 136 494 167V38Q464 15 424.5 2.5Q385 -10 334 -10Q267 -10 211 13Q155 36 114.5 77.5Q74 119 51.5 177.5Q29 236 29 307ZM266 669 346 791H481L388 669Z" glyph-name="Cacute" horiz-adv-x="538" unicode="&#262;" /><glyph d="M29 307Q29 378 51.5 436.5Q74 495 114.5 536.5Q155 578 211 601Q267 624 334 624Q385 624 424.5 611.5Q464 599 494 576V447Q425 507 340 507Q299 507 265.5 493Q232 479 208 452.5Q184 426 171 389Q158 352 158 307Q158 262 171 225.5Q184 189 208 162.5Q232 136 265.5 122Q299 108 340 108Q384 108 421.5 122Q459 136 494 167V38Q464 15 424.5 2.5Q385 -10 334 -10Q267 -10 211 13Q155 36 114.5 77.5Q74 119 51.5 177.5Q29 236 29 307ZM181 795H286L333 741L380 795H485L385 668H281Z" glyph-name="Ccaron" horiz-adv-x="538" unicode="&#268;" /><glyph d="M29 307Q29 378 51.5 436.5Q74 495 114.5 536.5Q155 578 211 601Q267 624 334 624Q385 624 424.5 611.5Q464 599 494 576V447Q425 507 340 507Q299 507 265.5 493Q232 479 208 452.5Q184 426 171 389Q158 352 158 307Q158 262 171 225.5Q184 189 208 162.5Q232 136 265.5 122Q299 108 340 108Q384 108 421.5 122Q459 136 494 167V38Q464 15 424.5 2.5Q385 -10 334 -10Q267 -10 211 13Q155 36 114.5 77.5Q74 119 51.5 177.5Q29 236 29 307ZM209 -186 279 -47H393L319 -186Z" glyph-name="Ccedilla" horiz-adv-x="538" unicode="&#199;" /><glyph d="M29 307Q29 378 51.5 436.5Q74 495 114.5 536.5Q155 578 211 601Q267 624 334 624Q385 624 424.5 611.5Q464 599 494 576V447Q425 507 340 507Q299 507 265.5 493Q232 479 208 452.5Q184 426 171 389Q158 352 158 307Q158 262 171 225.5Q184 189 208 162.5Q232 136 265.5 122Q299 108 340 108Q384 108 421.5 122Q459 136 494 167V38Q464 15 424.5 2.5Q385 -10 334 -10Q267 -10 211 13Q155 36 114.5 77.5Q74 119 51.5 177.5Q29 236 29 307ZM485 669H380L333 723L286 669H181L281 796H385Z" glyph-name="Ccircumflex" horiz-adv-x="538" unicode="&#264;" /><glyph d="M403 734Q403 703 380.5 683Q358 663 329 663Q300 663 277.5 683Q255 703 255 734Q255 766 277.5 785.5Q300 805 329 805Q358 805 380.5 785.5Q403 766 403 734ZM29 307Q29 378 51.5 436.5Q74 495 114.5 536.5Q155 578 211 601Q267 624 334 624Q385 624 424.5 611.5Q464 599 494 576V447Q425 507 340 507Q299 507 265.5 493Q232 479 208 452.5Q184 426 171 389Q158 352 158 307Q158 262 171 225.5Q184 189 208 162.5Q232 136 265.5 122Q299 108 340 108Q384 108 421.5 122Q459 136 494 167V38Q464 15 424.5 2.5Q385 -10 334 -10Q267 -10 211 13Q155 36 114.5 77.5Q74 119 51.5 177.5Q29 236 29 307Z" glyph-name="Cdotaccent" horiz-adv-x="538" unicode="&#266;" /><glyph d="M271 113Q359 113 405.5 165Q452 217 452 307Q452 398 405.5 450Q359 502 271 502H186V113ZM59 614H276Q346 614 402 592.5Q458 571 497.5 531Q537 491 558 434Q579 377 579 307Q579 237 558 180Q537 123 497.5 83Q458 43 402 21.5Q346 0 276 0H59Z" glyph-name="D" horiz-adv-x="609" unicode="D" /><glyph d="M126 795H231L278 741L325 795H430L330 668H226ZM271 113Q359 113 405.5 165Q452 217 452 307Q452 398 405.5 450Q359 502 271 502H186V113ZM59 614H276Q346 614 402 592.5Q458 571 497.5 531Q537 491 558 434Q579 377 579 307Q579 237 558 180Q537 123 497.5 83Q458 43 402 21.5Q346 0 276 0H59Z" glyph-name="Dcaron" horiz-adv-x="609" unicode="&#270;" /><glyph d="M25 367H76V614H293Q363 614 419 592.5Q475 571 514.5 531Q554 491 575 434Q596 377 596 307Q596 237 575 180Q554 123 514.5 83Q475 43 419 21.5Q363 0 293 0H76V264H25ZM288 113Q376 113 422.5 165Q469 217 469 307Q469 398 422.5 450Q376 502 288 502H203V367H306V264H203V113Z" glyph-name="Dcroat" horiz-adv-x="626" unicode="&#272;" /><glyph d="M476 614V502H185V368H449V259H185V113H476V0H59V614Z" glyph-name="E" horiz-adv-x="516" unicode="E" /><glyph d="M204 669 284 791H419L326 669ZM476 614V502H185V368H449V259H185V113H476V0H59V614Z" glyph-name="Eacute" horiz-adv-x="516" unicode="&#201;" /><glyph d="M271 663Q211 663 174 697Q137 731 137 797H225Q225 772 238 760.5Q251 749 271 749Q293 749 305.5 760.5Q318 772 318 797H406Q406 731 369 697Q332 663 271 663ZM476 614V502H185V368H449V259H185V113H476V0H59V614Z" glyph-name="Ebreve" horiz-adv-x="516" unicode="&#276;" /><glyph d="M119 795H224L271 741L318 795H423L323 668H219ZM476 614V502H185V368H449V259H185V113H476V0H59V614Z" glyph-name="Ecaron" horiz-adv-x="516" unicode="&#282;" /><glyph d="M476 614V502H185V368H449V259H185V113H476V0H59V614ZM423 669H318L271 723L224 669H119L219 796H323Z" glyph-name="Ecircumflex" horiz-adv-x="516" unicode="&#202;" /><glyph d="M122 730Q122 759 141 778.5Q160 798 189 798Q217 798 236.5 778.5Q256 759 256 730Q256 703 236.5 683.5Q217 664 189 664Q160 664 141 683.5Q122 703 122 730ZM287 730Q287 759 306.5 778.5Q326 798 354 798Q382 798 402 778.5Q422 759 422 730Q422 703 402 683.5Q382 664 354 664Q326 664 306.5 683.5Q287 703 287 730ZM476 614V502H185V368H449V259H185V113H476V0H59V614Z" glyph-name="Edieresis" horiz-adv-x="516" unicode="&#203;" /><glyph d="M345 734Q345 703 322.5 683Q300 663 271 663Q242 663 219.5 683Q197 703 197 734Q197 766 219.5 785.5Q242 805 271 805Q300 805 322.5 785.5Q345 766 345 734ZM476 614V502H185V368H449V259H185V113H476V0H59V614Z" glyph-name="Edotaccent" horiz-adv-x="516" unicode="&#278;" /><glyph d="M217 669 124 791H259L339 669ZM476 614V502H185V368H449V259H185V113H476V0H59V614Z" glyph-name="Egrave" horiz-adv-x="516" unicode="&#200;" /><glyph d="M150 760H393V669H150ZM476 614V502H185V368H449V259H185V113H476V0H59V614Z" glyph-name="Emacron" horiz-adv-x="516" unicode="&#274;" /><glyph d="M275 -46Q295 -57 314.5 -63Q334 -69 358 -69Q403 -69 424 -45.5Q445 -22 447 35L182 409V0H59V614H179L450 226V614H573V41Q573 -76 520.5 -129.5Q468 -183 372 -183Q344 -183 319.5 -177.5Q295 -172 275 -164Z" glyph-name="Eng" horiz-adv-x="632" unicode="&#330;" /><glyph d="M476 614V502H185V368H449V259H185V113H476V0H442Q414 -39 403 -56Q392 -73 392 -88Q392 -97 397.5 -103Q403 -109 413 -109Q421 -109 429 -105Q437 -101 449 -93V-167Q436 -176 421.5 -182Q407 -188 387 -188Q348 -188 326.5 -167.5Q305 -147 305 -113Q305 -82 321 -55.5Q337 -29 360 0H59V614Z" glyph-name="Eogonek" horiz-adv-x="516" unicode="&#280;" /><glyph d="M25 367H76V614H293Q363 614 419 592.5Q475 571 514.5 531Q554 491 575 434Q596 377 596 307Q596 237 575 180Q554 123 514.5 83Q475 43 419 21.5Q363 0 293 0H76V264H25ZM288 113Q376 113 422.5 165Q469 217 469 307Q469 398 422.5 450Q376 502 288 502H203V367H306V264H203V113Z" glyph-name="Eth" horiz-adv-x="626" unicode="&#208;" /><glyph d="M20 278H68Q67 285 67 292Q67 299 67 307Q67 314 67 320Q67 326 68 333H20V410H80Q93 459 118.5 498.5Q144 538 179 566Q214 594 257 609Q300 624 350 624Q387 624 417 616.5Q447 609 472 595V474Q417 512 356 512Q305 512 267 485Q229 458 209 410H378L363 333H191Q190 326 190 320Q190 314 190 307Q190 299 190 292Q190 285 191 278H354L339 201H210Q230 154 267.5 128Q305 102 356 102Q417 102 472 140V19Q447 5 417 -2.5Q387 -10 350 -10Q301 -10 257.5 4.5Q214 19 179 46.5Q144 74 118.5 113Q93 152 80 201H20Z" glyph-name="Euro" horiz-adv-x="500" unicode="&#8364;" /><glyph d="M34 278H82Q81 285 81 292Q81 299 81 307Q81 314 81 320Q81 326 82 333H34V410H94Q107 459 132.5 498.5Q158 538 193 566Q228 594 271 609Q314 624 364 624Q401 624 431 616.5Q461 609 486 595V474Q431 512 370 512Q319 512 281 485Q243 458 223 410H392L377 333H205Q204 326 204 320Q204 314 204 307Q204 299 204 292Q204 285 205 278H368L353 201H224Q244 154 281.5 128Q319 102 370 102Q431 102 486 140V19Q461 5 431 -2.5Q401 -10 364 -10Q315 -10 271.5 4.5Q228 19 193 46.5Q158 74 132.5 113Q107 152 94 201H34Z" glyph-name="Euro.lt" horiz-adv-x="520" /><glyph d="M59 0V614H468V502H186V346H447V235H186V0Z" glyph-name="F" horiz-adv-x="500" unicode="F" /><glyph d="M335 104Q365 104 391.5 111.5Q418 119 438 136V229H334V334H554V77Q509 31 451 10.5Q393 -10 332 -10Q262 -10 206 13Q150 36 110.5 78Q71 120 50 178Q29 236 29 306Q29 377 52.5 435.5Q76 494 118 536Q160 578 218 601Q276 624 345 624Q398 624 443 610.5Q488 597 521 573V445Q483 475 441 491Q399 507 345 507Q304 507 269.5 492.5Q235 478 210 452Q185 426 171.5 388.5Q158 351 158 306Q158 261 170.5 224Q183 187 206 160.5Q229 134 261.5 119Q294 104 335 104Z" glyph-name="G" horiz-adv-x="597" unicode="G" /><glyph d="M341 663Q281 663 244 697Q207 731 207 797H295Q295 772 308 760.5Q321 749 341 749Q363 749 375.5 760.5Q388 772 388 797H476Q476 731 439 697Q402 663 341 663ZM335 104Q365 104 391.5 111.5Q418 119 438 136V229H334V334H554V77Q509 31 451 10.5Q393 -10 332 -10Q262 -10 206 13Q150 36 110.5 78Q71 120 50 178Q29 236 29 306Q29 377 52.5 435.5Q76 494 118 536Q160 578 218 601Q276 624 345 624Q398 624 443 610.5Q488 597 521 573V445Q483 475 441 491Q399 507 345 507Q304 507 269.5 492.5Q235 478 210 452Q185 426 171.5 388.5Q158 351 158 306Q158 261 170.5 224Q183 187 206 160.5Q229 134 261.5 119Q294 104 335 104Z" glyph-name="Gbreve" horiz-adv-x="597" unicode="&#286;" /><glyph d="M335 104Q365 104 391.5 111.5Q418 119 438 136V229H334V334H554V77Q509 31 451 10.5Q393 -10 332 -10Q262 -10 206 13Q150 36 110.5 78Q71 120 50 178Q29 236 29 306Q29 377 52.5 435.5Q76 494 118 536Q160 578 218 601Q276 624 345 624Q398 624 443 610.5Q488 597 521 573V445Q483 475 441 491Q399 507 345 507Q304 507 269.5 492.5Q235 478 210 452Q185 426 171.5 388.5Q158 351 158 306Q158 261 170.5 224Q183 187 206 160.5Q229 134 261.5 119Q294 104 335 104ZM493 669H388L341 723L294 669H189L289 796H393Z" glyph-name="Gcircumflex" horiz-adv-x="597" unicode="&#284;" /><glyph d="M320 -163Q299 -159 284.5 -143.5Q270 -128 270 -103Q270 -75 290.5 -57Q311 -39 341 -39Q369 -39 389.5 -57.5Q410 -76 410 -108Q410 -131 400.5 -149.5Q391 -168 377 -186L350 -225H274ZM335 104Q365 104 391.5 111.5Q418 119 438 136V229H334V334H554V77Q509 31 451 10.5Q393 -10 332 -10Q262 -10 206 13Q150 36 110.5 78Q71 120 50 178Q29 236 29 306Q29 377 52.5 435.5Q76 494 118 536Q160 578 218 601Q276 624 345 624Q398 624 443 610.5Q488 597 521 573V445Q483 475 441 491Q399 507 345 507Q304 507 269.5 492.5Q235 478 210 452Q185 426 171.5 388.5Q158 351 158 306Q158 261 170.5 224Q183 187 206 160.5Q229 134 261.5 119Q294 104 335 104Z" glyph-name="Gcommaaccent" horiz-adv-x="597" unicode="&#290;" /><glyph d="M412 734Q412 703 389.5 683Q367 663 338 663Q309 663 286.5 683Q264 703 264 734Q264 766 286.5 785.5Q309 805 338 805Q367 805 389.5 785.5Q412 766 412 734ZM335 104Q365 104 391.5 111.5Q418 119 438 136V229H334V334H554V77Q509 31 451 10.5Q393 -10 332 -10Q262 -10 206 13Q150 36 110.5 78Q71 120 50 178Q29 236 29 306Q29 377 52.5 435.5Q76 494 118 536Q160 578 218 601Q276 624 345 624Q398 624 443 610.5Q488 597 521 573V445Q483 475 441 491Q399 507 345 507Q304 507 269.5 492.5Q235 478 210 452Q185 426 171.5 388.5Q158 351 158 306Q158 261 170.5 224Q183 187 206 160.5Q229 134 261.5 119Q294 104 335 104Z" glyph-name="Gdotaccent" horiz-adv-x="597" unicode="&#288;" /><glyph d="M593 614V0H465V258H187V0H59V614H187V370H465V614Z" glyph-name="H" horiz-adv-x="652" unicode="H" /><glyph d="M25 520H74V614H202V520H481V614H609V520H658V418H609V0H481V216H202V0H74V418H25ZM481 318V418H202V318Z" glyph-name="Hbar" horiz-adv-x="683" unicode="&#294;" /><glyph d="M593 614V0H465V258H187V0H59V614H187V370H465V614ZM477 669H372L325 723L278 669H173L273 796H377Z" glyph-name="Hcircumflex" horiz-adv-x="652" unicode="&#292;" /><glyph d="M187 0H59V614H187Z" glyph-name="I" horiz-adv-x="245" unicode="I" /><glyph d="M187 0H59V614H187ZM251 150Q280 130 308 118.5Q336 107 371 107Q419 107 438 135.5Q457 164 457 229V614H586V214Q586 97 533 43.5Q480 -10 382 -10Q342 -10 306.5 1Q271 12 251 25Z" glyph-name="IJ" horiz-adv-x="631" unicode="&#306;" /><glyph d="M187 0H59V614H187ZM57 669 137 791H272L179 669Z" glyph-name="Iacute" horiz-adv-x="245" unicode="&#205;" /><glyph d="M187 0H59V614H187ZM123 663Q63 663 26 697Q-11 731 -11 797H77Q77 772 90 760.5Q103 749 123 749Q145 749 157.5 760.5Q170 772 170 797H258Q258 731 221 697Q184 663 123 663Z" glyph-name="Ibreve" horiz-adv-x="245" unicode="&#300;" /><glyph d="M187 0H59V614H187ZM276 669H171L124 723L77 669H-28L72 796H176Z" glyph-name="Icircumflex" horiz-adv-x="245" unicode="&#206;" /><glyph d="M187 0H59V614H187ZM-26 730Q-26 759 -7 778.5Q12 798 41 798Q69 798 88.5 778.5Q108 759 108 730Q108 703 88.5 683.5Q69 664 41 664Q12 664 -7 683.5Q-26 703 -26 730ZM139 730Q139 759 158.5 778.5Q178 798 206 798Q234 798 254 778.5Q274 759 274 730Q274 703 254 683.5Q234 664 206 664Q178 664 158.5 683.5Q139 703 139 730Z" glyph-name="Idieresis" horiz-adv-x="245" unicode="&#207;" /><glyph d="M187 0H59V614H187ZM198 734Q198 703 175.5 683Q153 663 124 663Q95 663 72.5 683Q50 703 50 734Q50 766 72.5 785.5Q95 805 124 805Q153 805 175.5 785.5Q198 766 198 734Z" glyph-name="Idotaccent" horiz-adv-x="245" unicode="&#304;" /><glyph d="M187 0H59V614H187ZM68 669 -25 791H110L190 669Z" glyph-name="Igrave" horiz-adv-x="245" unicode="&#204;" /><glyph d="M187 0H59V614H187ZM3 760H246V669H3Z" glyph-name="Imacron" horiz-adv-x="245" unicode="&#298;" /><glyph d="M187 0Q172 -21 162.5 -34Q153 -47 147.5 -56.5Q142 -66 139.5 -73Q137 -80 137 -88Q137 -97 142.5 -103Q148 -109 157 -109Q166 -109 173.5 -105Q181 -101 193 -93V-167Q181 -176 166 -182Q151 -188 132 -188Q92 -188 70.5 -167.5Q49 -147 49 -113Q49 -82 65.5 -55.5Q82 -29 104 0H59V614H187Z" glyph-name="Iogonek" horiz-adv-x="245" unicode="&#302;" /><glyph d="M187 0H59V614H187ZM273 802Q273 772 268 747Q263 722 253 703Q243 684 226.5 673.5Q210 663 188 663Q170 663 155 669.5Q140 676 126.5 684Q113 692 100.5 698.5Q88 705 75 705Q47 705 46 666H-25Q-25 696 -20 721Q-15 746 -5 765Q5 784 21 794.5Q37 805 60 805Q78 805 93 798.5Q108 792 121.5 784Q135 776 147.5 769.5Q160 763 173 763Q200 763 202 802Z" glyph-name="Itilde" horiz-adv-x="245" unicode="&#296;" /><glyph d="M27 150Q56 130 84 118.5Q112 107 147 107Q195 107 214 135.5Q233 164 233 229V614H362V214Q362 97 309 43.5Q256 -10 158 -10Q118 -10 82.5 1Q47 12 27 25Z" glyph-name="J" horiz-adv-x="410" unicode="J" /><glyph d="M27 150Q56 130 84 118.5Q112 107 147 107Q195 107 214 135.5Q233 164 233 229V614H362V214Q362 97 309 43.5Q256 -10 158 -10Q118 -10 82.5 1Q47 12 27 25ZM450 669H345L298 723L251 669H146L246 796H350Z" glyph-name="Jcircumflex" horiz-adv-x="410" unicode="&#308;" /><glyph d="M187 350 411 614H565L310 320L574 0H417L187 278V0H59V614H187Z" glyph-name="K" horiz-adv-x="585" unicode="K" /><glyph d="M262 -163Q241 -159 226.5 -143.5Q212 -128 212 -103Q212 -75 232.5 -57Q253 -39 283 -39Q311 -39 331.5 -57.5Q352 -76 352 -108Q352 -131 342.5 -149.5Q333 -168 319 -186L292 -225H216ZM187 350 411 614H565L310 320L574 0H417L187 278V0H59V614H187Z" glyph-name="Kcommaaccent" horiz-adv-x="585" unicode="&#310;" /><glyph d="M59 614H187V113H473V0H59Z" glyph-name="L" horiz-adv-x="507" unicode="L" /><glyph d="M67 669 147 791H282L189 669ZM59 614H187V113H473V0H59Z" glyph-name="Lacute" horiz-adv-x="507" unicode="&#313;" /><glyph d="M263 448 301 615H398L360 448ZM59 614H187V113H473V0H59Z" glyph-name="Lcaron" horiz-adv-x="507" unicode="&#317;" /><glyph d="M254 -163Q233 -159 218.5 -143.5Q204 -128 204 -103Q204 -75 224.5 -57Q245 -39 275 -39Q303 -39 323.5 -57.5Q344 -76 344 -108Q344 -131 334.5 -149.5Q325 -168 311 -186L284 -225H208ZM59 614H187V113H473V0H59Z" glyph-name="Lcommaaccent" horiz-adv-x="507" unicode="&#315;" /><glyph d="M59 614H187V113H473V0H59ZM444 325Q444 293 421.5 273.5Q399 254 370 254Q341 254 318.5 273.5Q296 293 296 325Q296 356 318.5 376Q341 396 370 396Q399 396 421.5 376Q444 356 444 325Z" glyph-name="Ldot" horiz-adv-x="507" unicode="&#319;" /><glyph d="M22 309 80 333V614H208V380L346 437V329L208 272V113H494V0H80V225L22 201Z" glyph-name="Lslash" horiz-adv-x="528" unicode="&#321;" /><glyph d="M361 132 184 396V0H59V614H178L364 324L549 614H666V0H540V396L365 132Z" glyph-name="M" horiz-adv-x="724" unicode="M" /><glyph d="M573 0H472L182 409V0H59V614H179L450 226V614H573Z" glyph-name="N" horiz-adv-x="632" unicode="N" /><glyph d="M249 669 329 791H464L371 669ZM573 0H472L182 409V0H59V614H179L450 226V614H573Z" glyph-name="Nacute" horiz-adv-x="632" unicode="&#323;" /><glyph d="M164 795H269L316 741L363 795H468L368 668H264ZM573 0H472L182 409V0H59V614H179L450 226V614H573Z" glyph-name="Ncaron" horiz-adv-x="632" unicode="&#327;" /><glyph d="M295 -163Q274 -159 259.5 -143.5Q245 -128 245 -103Q245 -75 265.5 -57Q286 -39 316 -39Q344 -39 364.5 -57.5Q385 -76 385 -108Q385 -131 375.5 -149.5Q366 -168 352 -186L325 -225H249ZM573 0H472L182 409V0H59V614H179L450 226V614H573Z" glyph-name="Ncommaaccent" horiz-adv-x="632" unicode="&#325;" /><glyph d="M465 802Q465 772 460 747Q455 722 445 703Q435 684 418.5 673.5Q402 663 380 663Q362 663 347 669.5Q332 676 318.5 684Q305 692 292.5 698.5Q280 705 267 705Q239 705 238 666H167Q167 696 172 721Q177 746 187 765Q197 784 213 794.5Q229 805 252 805Q270 805 285 798.5Q300 792 313.5 784Q327 776 339.5 769.5Q352 763 365 763Q392 763 394 802ZM573 0H472L182 409V0H59V614H179L450 226V614H573Z" glyph-name="Ntilde" horiz-adv-x="632" unicode="&#209;" /><glyph d="M610 307Q610 238 588.5 180Q567 122 528.5 80Q490 38 436.5 14Q383 -10 319 -10Q255 -10 201.5 14Q148 38 110 80Q72 122 50.5 180Q29 238 29 307Q29 376 50.5 434Q72 492 110 534.5Q148 577 201.5 600.5Q255 624 319 624Q383 624 436.5 600.5Q490 577 528.5 534.5Q567 492 588.5 434Q610 376 610 307ZM481 307Q481 352 469.5 389.5Q458 427 437 453.5Q416 480 386 495Q356 510 319 510Q283 510 253.5 495Q224 480 203 453.5Q182 427 170.5 389.5Q159 352 159 307Q159 262 170.5 224.5Q182 187 203 160.5Q224 134 253.5 119Q283 104 319 104Q356 104 386 119Q416 134 437 160.5Q458 187 469.5 224.5Q481 262 481 307Z" glyph-name="O" horiz-adv-x="640" unicode="O" /><glyph d="M792 502H520V368H765V259H520V113H792V0H332Q262 0 206 21.5Q150 43 110.5 83Q71 123 50 180Q29 237 29 307Q29 377 50 434Q71 491 110.5 531Q150 571 206 592.5Q262 614 332 614H792ZM394 113V502H338Q249 502 203 450Q157 398 157 307Q157 217 203 165Q249 113 338 113Z" glyph-name="OE" horiz-adv-x="832" unicode="&#338;" /><glyph d="M252 669 332 791H467L374 669ZM610 307Q610 238 588.5 180Q567 122 528.5 80Q490 38 436.5 14Q383 -10 319 -10Q255 -10 201.5 14Q148 38 110 80Q72 122 50.5 180Q29 238 29 307Q29 376 50.5 434Q72 492 110 534.5Q148 577 201.5 600.5Q255 624 319 624Q383 624 436.5 600.5Q490 577 528.5 534.5Q567 492 588.5 434Q610 376 610 307ZM481 307Q481 352 469.5 389.5Q458 427 437 453.5Q416 480 386 495Q356 510 319 510Q283 510 253.5 495Q224 480 203 453.5Q182 427 170.5 389.5Q159 352 159 307Q159 262 170.5 224.5Q182 187 203 160.5Q224 134 253.5 119Q283 104 319 104Q356 104 386 119Q416 134 437 160.5Q458 187 469.5 224.5Q481 262 481 307Z" glyph-name="Oacute" horiz-adv-x="640" unicode="&#211;" /><glyph d="M319 663Q259 663 222 697Q185 731 185 797H273Q273 772 286 760.5Q299 749 319 749Q341 749 353.5 760.5Q366 772 366 797H454Q454 731 417 697Q380 663 319 663ZM610 307Q610 238 588.5 180Q567 122 528.5 80Q490 38 436.5 14Q383 -10 319 -10Q255 -10 201.5 14Q148 38 110 80Q72 122 50.5 180Q29 238 29 307Q29 376 50.5 434Q72 492 110 534.5Q148 577 201.5 600.5Q255 624 319 624Q383 624 436.5 600.5Q490 577 528.5 534.5Q567 492 588.5 434Q610 376 610 307ZM481 307Q481 352 469.5 389.5Q458 427 437 453.5Q416 480 386 495Q356 510 319 510Q283 510 253.5 495Q224 480 203 453.5Q182 427 170.5 389.5Q159 352 159 307Q159 262 170.5 224.5Q182 187 203 160.5Q224 134 253.5 119Q283 104 319 104Q356 104 386 119Q416 134 437 160.5Q458 187 469.5 224.5Q481 262 481 307Z" glyph-name="Obreve" horiz-adv-x="640" unicode="&#334;" /><glyph d="M610 307Q610 238 588.5 180Q567 122 528.5 80Q490 38 436.5 14Q383 -10 319 -10Q255 -10 201.5 14Q148 38 110 80Q72 122 50.5 180Q29 238 29 307Q29 376 50.5 434Q72 492 110 534.5Q148 577 201.5 600.5Q255 624 319 624Q383 624 436.5 600.5Q490 577 528.5 534.5Q567 492 588.5 434Q610 376 610 307ZM481 307Q481 352 469.5 389.5Q458 427 437 453.5Q416 480 386 495Q356 510 319 510Q283 510 253.5 495Q224 480 203 453.5Q182 427 170.5 389.5Q159 352 159 307Q159 262 170.5 224.5Q182 187 203 160.5Q224 134 253.5 119Q283 104 319 104Q356 104 386 119Q416 134 437 160.5Q458 187 469.5 224.5Q481 262 481 307ZM471 669H366L319 723L272 669H167L267 796H371Z" glyph-name="Ocircumflex" horiz-adv-x="640" unicode="&#212;" /><glyph d="M170 730Q170 759 189 778.5Q208 798 237 798Q265 798 284.5 778.5Q304 759 304 730Q304 703 284.5 683.5Q265 664 237 664Q208 664 189 683.5Q170 703 170 730ZM335 730Q335 759 354.5 778.5Q374 798 402 798Q430 798 450 778.5Q470 759 470 730Q470 703 450 683.5Q430 664 402 664Q374 664 354.5 683.5Q335 703 335 730ZM610 307Q610 238 588.5 180Q567 122 528.5 80Q490 38 436.5 14Q383 -10 319 -10Q255 -10 201.5 14Q148 38 110 80Q72 122 50.5 180Q29 238 29 307Q29 376 50.5 434Q72 492 110 534.5Q148 577 201.5 600.5Q255 624 319 624Q383 624 436.5 600.5Q490 577 528.5 534.5Q567 492 588.5 434Q610 376 610 307ZM481 307Q481 352 469.5 389.5Q458 427 437 453.5Q416 480 386 495Q356 510 319 510Q283 510 253.5 495Q224 480 203 453.5Q182 427 170.5 389.5Q159 352 159 307Q159 262 170.5 224.5Q182 187 203 160.5Q224 134 253.5 119Q283 104 319 104Q356 104 386 119Q416 134 437 160.5Q458 187 469.5 224.5Q481 262 481 307Z" glyph-name="Odieresis" horiz-adv-x="640" unicode="&#214;" /><glyph d="M264 669 171 791H306L386 669ZM610 307Q610 238 588.5 180Q567 122 528.5 80Q490 38 436.5 14Q383 -10 319 -10Q255 -10 201.5 14Q148 38 110 80Q72 122 50.5 180Q29 238 29 307Q29 376 50.5 434Q72 492 110 534.5Q148 577 201.5 600.5Q255 624 319 624Q383 624 436.5 600.5Q490 577 528.5 534.5Q567 492 588.5 434Q610 376 610 307ZM481 307Q481 352 469.5 389.5Q458 427 437 453.5Q416 480 386 495Q356 510 319 510Q283 510 253.5 495Q224 480 203 453.5Q182 427 170.5 389.5Q159 352 159 307Q159 262 170.5 224.5Q182 187 203 160.5Q224 134 253.5 119Q283 104 319 104Q356 104 386 119Q416 134 437 160.5Q458 187 469.5 224.5Q481 262 481 307Z" glyph-name="Ograve" horiz-adv-x="640" unicode="&#210;" /><glyph d="M610 307Q610 238 588.5 180Q567 122 528.5 80Q490 38 436.5 14Q383 -10 319 -10Q255 -10 201.5 14Q148 38 110 80Q72 122 50.5 180Q29 238 29 307Q29 376 50.5 434Q72 492 110 534.5Q148 577 201.5 600.5Q255 624 319 624Q383 624 436.5 600.5Q490 577 528.5 534.5Q567 492 588.5 434Q610 376 610 307ZM481 307Q481 352 469.5 389.5Q458 427 437 453.5Q416 480 386 495Q356 510 319 510Q283 510 253.5 495Q224 480 203 453.5Q182 427 170.5 389.5Q159 352 159 307Q159 262 170.5 224.5Q182 187 203 160.5Q224 134 253.5 119Q283 104 319 104Q356 104 386 119Q416 134 437 160.5Q458 187 469.5 224.5Q481 262 481 307ZM199 669 265 791H370L301 669ZM346 669 413 791H517L449 669Z" glyph-name="Ohungarumlaut" horiz-adv-x="640" unicode="&#336;" /><glyph d="M198 760H441V669H198ZM610 307Q610 238 588.5 180Q567 122 528.5 80Q490 38 436.5 14Q383 -10 319 -10Q255 -10 201.5 14Q148 38 110 80Q72 122 50.5 180Q29 238 29 307Q29 376 50.5 434Q72 492 110 534.5Q148 577 201.5 600.5Q255 624 319 624Q383 624 436.5 600.5Q490 577 528.5 534.5Q567 492 588.5 434Q610 376 610 307ZM481 307Q481 352 469.5 389.5Q458 427 437 453.5Q416 480 386 495Q356 510 319 510Q283 510 253.5 495Q224 480 203 453.5Q182 427 170.5 389.5Q159 352 159 307Q159 262 170.5 224.5Q182 187 203 160.5Q224 134 253.5 119Q283 104 319 104Q356 104 386 119Q416 134 437 160.5Q458 187 469.5 224.5Q481 262 481 307Z" glyph-name="Omacron" horiz-adv-x="640" unicode="&#332;" /><glyph d="M102 94Q70 136 52 190Q34 244 34 307Q34 376 55.5 434Q77 492 115 534.5Q153 577 206.5 600.5Q260 624 324 624Q374 624 417 609.5Q460 595 495 569L543 627L601 583L547 518Q579 476 597 423Q615 370 615 307Q615 238 593.5 180Q572 122 533.5 80Q495 38 441.5 14Q388 -10 324 -10Q275 -10 232.5 3.5Q190 17 155 43L108 -13L50 31ZM163 307Q163 240 184 194L420 478Q401 493 377 501.5Q353 510 324 510Q288 510 258 495Q228 480 207 453.5Q186 427 174.5 389.5Q163 352 163 307ZM486 307Q486 371 465 418L230 134Q269 104 324 104Q360 104 390 119Q420 134 441.5 160.5Q463 187 474.5 224.5Q486 262 486 307Z" glyph-name="Oslash" horiz-adv-x="649" unicode="&#216;" /><glyph d="M102 94Q70 136 52 190Q34 244 34 307Q34 376 55.5 434Q77 492 115 534.5Q153 577 206.5 600.5Q260 624 324 624Q374 624 417 609.5Q460 595 495 569L543 627L601 583L547 518Q579 476 597 423Q615 370 615 307Q615 238 593.5 180Q572 122 533.5 80Q495 38 441.5 14Q388 -10 324 -10Q275 -10 232.5 3.5Q190 17 155 43L108 -13L50 31ZM163 307Q163 240 184 194L420 478Q401 493 377 501.5Q353 510 324 510Q288 510 258 495Q228 480 207 453.5Q186 427 174.5 389.5Q163 352 163 307ZM486 307Q486 371 465 418L230 134Q269 104 324 104Q360 104 390 119Q420 134 441.5 160.5Q463 187 474.5 224.5Q486 262 486 307ZM257 669 337 791H472L379 669Z" glyph-name="Oslashacute" horiz-adv-x="649" unicode="&#510;" /><glyph d="M468 802Q468 772 463 747Q458 722 448 703Q438 684 421.5 673.5Q405 663 383 663Q365 663 350 669.5Q335 676 321.5 684Q308 692 295.5 698.5Q283 705 270 705Q242 705 241 666H170Q170 696 175 721Q180 746 190 765Q200 784 216 794.5Q232 805 255 805Q273 805 288 798.5Q303 792 316.5 784Q330 776 342.5 769.5Q355 763 368 763Q395 763 397 802ZM610 307Q610 238 588.5 180Q567 122 528.5 80Q490 38 436.5 14Q383 -10 319 -10Q255 -10 201.5 14Q148 38 110 80Q72 122 50.5 180Q29 238 29 307Q29 376 50.5 434Q72 492 110 534.5Q148 577 201.5 600.5Q255 624 319 624Q383 624 436.5 600.5Q490 577 528.5 534.5Q567 492 588.5 434Q610 376 610 307ZM481 307Q481 352 469.5 389.5Q458 427 437 453.5Q416 480 386 495Q356 510 319 510Q283 510 253.5 495Q224 480 203 453.5Q182 427 170.5 389.5Q159 352 159 307Q159 262 170.5 224.5Q182 187 203 160.5Q224 134 253.5 119Q283 104 319 104Q356 104 386 119Q416 134 437 160.5Q458 187 469.5 224.5Q481 262 481 307Z" glyph-name="Otilde" horiz-adv-x="640" unicode="&#213;" /><glyph d="M186 213V0H59V614H309Q358 614 397.5 601Q437 588 465.5 562.5Q494 537 509.5 499.5Q525 462 525 413Q525 364 509.5 327Q494 290 465.5 264.5Q437 239 397.5 226Q358 213 309 213ZM399 413Q399 455 375 480Q351 505 301 505H186V322H301Q351 322 375 347.5Q399 373 399 413Z" glyph-name="P" horiz-adv-x="552" unicode="P" /><glyph d="M444 19Q388 -10 319 -10Q255 -10 201.5 14Q148 38 110 80Q72 122 50.5 180Q29 238 29 307Q29 376 50.5 434Q72 492 110 534.5Q148 577 201.5 600.5Q255 624 319 624Q383 624 436.5 600.5Q490 577 528.5 534.5Q567 492 588.5 434Q610 376 610 307Q610 238 588 181Q566 124 527 81L576 21L494 -43ZM481 307Q481 352 469.5 389.5Q458 427 437 453.5Q416 480 386 495Q356 510 319 510Q283 510 253.5 495Q224 480 203 453.5Q182 427 170.5 389.5Q159 352 159 307Q159 262 170.5 224Q182 186 203 159Q224 132 253.5 116.5Q283 101 319 101Q350 101 372 108L322 171L404 234L452 174Q481 224 481 307Z" glyph-name="Q" horiz-adv-x="639" unicode="Q" /><glyph d="M186 229V0H59V614H312Q409 614 468 564Q527 514 527 419Q527 345 489.5 299.5Q452 254 387 238L549 0H405L253 229ZM186 334H304Q352 334 376.5 357.5Q401 381 401 419Q401 458 376.5 481.5Q352 505 304 505H186Z" glyph-name="R" horiz-adv-x="563" unicode="R" /><glyph d="M186 229V0H59V614H312Q409 614 468 564Q527 514 527 419Q527 345 489.5 299.5Q452 254 387 238L549 0H405L253 229ZM186 334H304Q352 334 376.5 357.5Q401 381 401 419Q401 458 376.5 481.5Q352 505 304 505H186ZM213 669 293 791H428L335 669Z" glyph-name="Racute" horiz-adv-x="563" unicode="&#340;" /><glyph d="M128 795H233L280 741L327 795H432L332 668H228ZM186 229V0H59V614H312Q409 614 468 564Q527 514 527 419Q527 345 489.5 299.5Q452 254 387 238L549 0H405L253 229ZM186 334H304Q352 334 376.5 357.5Q401 381 401 419Q401 458 376.5 481.5Q352 505 304 505H186Z" glyph-name="Rcaron" horiz-adv-x="563" unicode="&#344;" /><glyph d="M259 -163Q238 -159 223.5 -143.5Q209 -128 209 -103Q209 -75 229.5 -57Q250 -39 280 -39Q308 -39 328.5 -57.5Q349 -76 349 -108Q349 -131 339.5 -149.5Q330 -168 316 -186L289 -225H213ZM186 229V0H59V614H312Q409 614 468 564Q527 514 527 419Q527 345 489.5 299.5Q452 254 387 238L549 0H405L253 229ZM186 334H304Q352 334 376.5 357.5Q401 381 401 419Q401 458 376.5 481.5Q352 505 304 505H186Z" glyph-name="Rcommaaccent" horiz-adv-x="563" unicode="&#342;" /><glyph d="M38 168Q80 137 130 118.5Q180 100 234 100Q281 100 312 115.5Q343 131 343 167Q343 197 324.5 211.5Q306 226 271 239L181 269Q147 280 119 295Q91 310 71.5 331.5Q52 353 41 381.5Q30 410 30 448Q30 491 47 523.5Q64 556 94 578.5Q124 601 163.5 612.5Q203 624 248 624Q305 624 350.5 611.5Q396 599 434 576V451Q394 480 350 497.5Q306 515 252 515Q210 515 182.5 500.5Q155 486 155 454Q155 425 173 411.5Q191 398 223 387L319 354Q397 328 433 284.5Q469 241 469 172Q469 127 451 92.5Q433 58 401.5 35.5Q370 13 327.5 1.5Q285 -10 236 -10Q174 -10 122.5 5.5Q71 21 38 42Z" glyph-name="S" horiz-adv-x="499" unicode="S" /><glyph d="M38 168Q80 137 130 118.5Q180 100 234 100Q281 100 312 115.5Q343 131 343 167Q343 197 324.5 211.5Q306 226 271 239L181 269Q147 280 119 295Q91 310 71.5 331.5Q52 353 41 381.5Q30 410 30 448Q30 491 47 523.5Q64 556 94 578.5Q124 601 163.5 612.5Q203 624 248 624Q305 624 350.5 611.5Q396 599 434 576V451Q394 480 350 497.5Q306 515 252 515Q210 515 182.5 500.5Q155 486 155 454Q155 425 173 411.5Q191 398 223 387L319 354Q397 328 433 284.5Q469 241 469 172Q469 127 451 92.5Q433 58 401.5 35.5Q370 13 327.5 1.5Q285 -10 236 -10Q174 -10 122.5 5.5Q71 21 38 42ZM190 669 270 791H405L312 669Z" glyph-name="Sacute" horiz-adv-x="499" unicode="&#346;" /><glyph d="M38 168Q80 137 130 118.5Q180 100 234 100Q281 100 312 115.5Q343 131 343 167Q343 197 324.5 211.5Q306 226 271 239L181 269Q147 280 119 295Q91 310 71.5 331.5Q52 353 41 381.5Q30 410 30 448Q30 491 47 523.5Q64 556 94 578.5Q124 601 163.5 612.5Q203 624 248 624Q305 624 350.5 611.5Q396 599 434 576V451Q394 480 350 497.5Q306 515 252 515Q210 515 182.5 500.5Q155 486 155 454Q155 425 173 411.5Q191 398 223 387L319 354Q397 328 433 284.5Q469 241 469 172Q469 127 451 92.5Q433 58 401.5 35.5Q370 13 327.5 1.5Q285 -10 236 -10Q174 -10 122.5 5.5Q71 21 38 42ZM105 795H210L257 741L304 795H409L309 668H205Z" glyph-name="Scaron" horiz-adv-x="499" unicode="&#352;" /><glyph d="M38 168Q80 137 130 118.5Q180 100 234 100Q281 100 312 115.5Q343 131 343 167Q343 197 324.5 211.5Q306 226 271 239L181 269Q147 280 119 295Q91 310 71.5 331.5Q52 353 41 381.5Q30 410 30 448Q30 491 47 523.5Q64 556 94 578.5Q124 601 163.5 612.5Q203 624 248 624Q305 624 350.5 611.5Q396 599 434 576V451Q394 480 350 497.5Q306 515 252 515Q210 515 182.5 500.5Q155 486 155 454Q155 425 173 411.5Q191 398 223 387L319 354Q397 328 433 284.5Q469 241 469 172Q469 127 451 92.5Q433 58 401.5 35.5Q370 13 327.5 1.5Q285 -10 236 -10Q174 -10 122.5 5.5Q71 21 38 42ZM115 -186 185 -47H299L225 -186Z" glyph-name="Scedilla" horiz-adv-x="499" unicode="&#350;" /><glyph d="M38 168Q80 137 130 118.5Q180 100 234 100Q281 100 312 115.5Q343 131 343 167Q343 197 324.5 211.5Q306 226 271 239L181 269Q147 280 119 295Q91 310 71.5 331.5Q52 353 41 381.5Q30 410 30 448Q30 491 47 523.5Q64 556 94 578.5Q124 601 163.5 612.5Q203 624 248 624Q305 624 350.5 611.5Q396 599 434 576V451Q394 480 350 497.5Q306 515 252 515Q210 515 182.5 500.5Q155 486 155 454Q155 425 173 411.5Q191 398 223 387L319 354Q397 328 433 284.5Q469 241 469 172Q469 127 451 92.5Q433 58 401.5 35.5Q370 13 327.5 1.5Q285 -10 236 -10Q174 -10 122.5 5.5Q71 21 38 42ZM409 669H304L257 723L210 669H105L205 796H309Z" glyph-name="Scircumflex" horiz-adv-x="499" unicode="&#348;" /><glyph d="M231 -163Q210 -159 195.5 -143.5Q181 -128 181 -103Q181 -75 201.5 -57Q222 -39 252 -39Q280 -39 300.5 -57.5Q321 -76 321 -108Q321 -131 311.5 -149.5Q302 -168 288 -186L261 -225H185ZM38 168Q80 137 130 118.5Q180 100 234 100Q281 100 312 115.5Q343 131 343 167Q343 197 324.5 211.5Q306 226 271 239L181 269Q147 280 119 295Q91 310 71.5 331.5Q52 353 41 381.5Q30 410 30 448Q30 491 47 523.5Q64 556 94 578.5Q124 601 163.5 612.5Q203 624 248 624Q305 624 350.5 611.5Q396 599 434 576V451Q394 480 350 497.5Q306 515 252 515Q210 515 182.5 500.5Q155 486 155 454Q155 425 173 411.5Q191 398 223 387L319 354Q397 328 433 284.5Q469 241 469 172Q469 127 451 92.5Q433 58 401.5 35.5Q370 13 327.5 1.5Q285 -10 236 -10Q174 -10 122.5 5.5Q71 21 38 42Z" glyph-name="Scommaaccent" horiz-adv-x="499" unicode="&#536;" /><glyph d="M26 614H550V502H352V0H223V502H26Z" glyph-name="T" horiz-adv-x="575" unicode="T" /><glyph d="M26 614H550V502H352V362H454V256H352V0H223V256H122V362H223V502H26Z" glyph-name="Tbar" horiz-adv-x="575" unicode="&#358;" /><glyph d="M136 795H241L288 741L335 795H440L340 668H236ZM26 614H550V502H352V0H223V502H26Z" glyph-name="Tcaron" horiz-adv-x="575" unicode="&#356;" /><glyph d="M267 -163Q246 -159 231.5 -143.5Q217 -128 217 -103Q217 -75 237.5 -57Q258 -39 288 -39Q316 -39 336.5 -57.5Q357 -76 357 -108Q357 -131 347.5 -149.5Q338 -168 324 -186L297 -225H221ZM26 614H550V502H352V0H223V502H26Z" glyph-name="Tcommaaccent" horiz-adv-x="575" unicode="&#354;" /><glyph d="M186 114V0H59V614H186V515H309Q358 515 397.5 502Q437 489 465.5 464Q494 439 509.5 401Q525 363 525 314Q525 265 509.5 228Q494 191 465.5 165.5Q437 140 397.5 127Q358 114 309 114ZM399 314Q399 356 375 381Q351 406 301 406H186V223H301Q351 223 375 248.5Q399 274 399 314Z" glyph-name="Thorn" horiz-adv-x="552" unicode="&#222;" /><glyph d="M305 -10Q248 -10 201 6.5Q154 23 120.5 55Q87 87 68.5 135.5Q50 184 50 247V614H178V260Q178 181 211 143Q244 105 305 105Q366 105 399 143Q432 181 432 260V614H560V247Q560 184 542 135.5Q524 87 490.5 55Q457 23 410 6.5Q363 -10 305 -10Z" glyph-name="U" horiz-adv-x="610" unicode="U" /><glyph d="M238 669 318 791H453L360 669ZM305 -10Q248 -10 201 6.5Q154 23 120.5 55Q87 87 68.5 135.5Q50 184 50 247V614H178V260Q178 181 211 143Q244 105 305 105Q366 105 399 143Q432 181 432 260V614H560V247Q560 184 542 135.5Q524 87 490.5 55Q457 23 410 6.5Q363 -10 305 -10Z" glyph-name="Uacute" horiz-adv-x="610" unicode="&#218;" /><glyph d="M305 663Q245 663 208 697Q171 731 171 797H259Q259 772 272 760.5Q285 749 305 749Q327 749 339.5 760.5Q352 772 352 797H440Q440 731 403 697Q366 663 305 663ZM305 -10Q248 -10 201 6.5Q154 23 120.5 55Q87 87 68.5 135.5Q50 184 50 247V614H178V260Q178 181 211 143Q244 105 305 105Q366 105 399 143Q432 181 432 260V614H560V247Q560 184 542 135.5Q524 87 490.5 55Q457 23 410 6.5Q363 -10 305 -10Z" glyph-name="Ubreve" horiz-adv-x="610" unicode="&#364;" /><glyph d="M305 -10Q248 -10 201 6.5Q154 23 120.5 55Q87 87 68.5 135.5Q50 184 50 247V614H178V260Q178 181 211 143Q244 105 305 105Q366 105 399 143Q432 181 432 260V614H560V247Q560 184 542 135.5Q524 87 490.5 55Q457 23 410 6.5Q363 -10 305 -10ZM457 669H352L305 723L258 669H153L253 796H357Z" glyph-name="Ucircumflex" horiz-adv-x="610" unicode="&#219;" /><glyph d="M156 730Q156 759 175 778.5Q194 798 223 798Q251 798 270.5 778.5Q290 759 290 730Q290 703 270.5 683.5Q251 664 223 664Q194 664 175 683.5Q156 703 156 730ZM321 730Q321 759 340.5 778.5Q360 798 388 798Q416 798 436 778.5Q456 759 456 730Q456 703 436 683.5Q416 664 388 664Q360 664 340.5 683.5Q321 703 321 730ZM305 -10Q248 -10 201 6.5Q154 23 120.5 55Q87 87 68.5 135.5Q50 184 50 247V614H178V260Q178 181 211 143Q244 105 305 105Q366 105 399 143Q432 181 432 260V614H560V247Q560 184 542 135.5Q524 87 490.5 55Q457 23 410 6.5Q363 -10 305 -10Z" glyph-name="Udieresis" horiz-adv-x="610" unicode="&#220;" /><glyph d="M249 669 156 791H291L371 669ZM305 -10Q248 -10 201 6.5Q154 23 120.5 55Q87 87 68.5 135.5Q50 184 50 247V614H178V260Q178 181 211 143Q244 105 305 105Q366 105 399 143Q432 181 432 260V614H560V247Q560 184 542 135.5Q524 87 490.5 55Q457 23 410 6.5Q363 -10 305 -10Z" glyph-name="Ugrave" horiz-adv-x="610" unicode="&#217;" /><glyph d="M305 -10Q248 -10 201 6.5Q154 23 120.5 55Q87 87 68.5 135.5Q50 184 50 247V614H178V260Q178 181 211 143Q244 105 305 105Q366 105 399 143Q432 181 432 260V614H560V247Q560 184 542 135.5Q524 87 490.5 55Q457 23 410 6.5Q363 -10 305 -10ZM185 669 251 791H356L287 669ZM332 669 399 791H503L435 669Z" glyph-name="Uhungarumlaut" horiz-adv-x="610" unicode="&#368;" /><glyph d="M184 760H427V669H184ZM305 -10Q248 -10 201 6.5Q154 23 120.5 55Q87 87 68.5 135.5Q50 184 50 247V614H178V260Q178 181 211 143Q244 105 305 105Q366 105 399 143Q432 181 432 260V614H560V247Q560 184 542 135.5Q524 87 490.5 55Q457 23 410 6.5Q363 -10 305 -10Z" glyph-name="Umacron" horiz-adv-x="610" unicode="&#362;" /><glyph d="M305 -10Q248 -10 201 6.5Q154 23 120.5 55Q87 87 68.5 135.5Q50 184 50 247V614H178V260Q178 181 211 143Q244 105 305 105Q366 105 399 143Q432 181 432 260V614H560V247Q560 165 532 113Q504 61 449 23Q396 -13 376.5 -41Q357 -69 357 -88Q357 -97 362.5 -103Q368 -109 378 -109Q387 -109 394.5 -105Q402 -101 414 -93V-167Q401 -176 386.5 -182Q372 -188 352 -188Q313 -188 291.5 -167.5Q270 -147 270 -113Q270 -85 284 -59.5Q298 -34 321 -10H305Z" glyph-name="Uogonek" horiz-adv-x="610" unicode="&#370;" /><glyph d="M305 -10Q248 -10 201 6.5Q154 23 120.5 55Q87 87 68.5 135.5Q50 184 50 247V614H178V260Q178 181 211 143Q244 105 305 105Q366 105 399 143Q432 181 432 260V614H560V247Q560 184 542 135.5Q524 87 490.5 55Q457 23 410 6.5Q363 -10 305 -10ZM404 743Q404 722 396.5 704.5Q389 687 375.5 674Q362 661 344 653.5Q326 646 305 646Q284 646 266 653.5Q248 661 234.5 674Q221 687 213.5 704.5Q206 722 206 743Q206 764 213.5 781.5Q221 799 234.5 812Q248 825 266 832.5Q284 840 305 840Q326 840 344 832.5Q362 825 375.5 812Q389 799 396.5 781.5Q404 764 404 743ZM345 743Q345 760 333.5 771.5Q322 783 305 783Q288 783 277 771.5Q266 760 266 743Q266 726 277 715Q288 704 305 704Q322 704 333.5 715Q345 726 345 743Z" glyph-name="Uring" horiz-adv-x="610" unicode="&#366;" /><glyph d="M454 802Q454 772 449 747Q444 722 434 703Q424 684 407.5 673.5Q391 663 369 663Q351 663 336 669.5Q321 676 307.5 684Q294 692 281.5 698.5Q269 705 256 705Q228 705 227 666H156Q156 696 161 721Q166 746 176 765Q186 784 202 794.5Q218 805 241 805Q259 805 274 798.5Q289 792 302.5 784Q316 776 328.5 769.5Q341 763 354 763Q381 763 383 802ZM305 -10Q248 -10 201 6.5Q154 23 120.5 55Q87 87 68.5 135.5Q50 184 50 247V614H178V260Q178 181 211 143Q244 105 305 105Q366 105 399 143Q432 181 432 260V614H560V247Q560 184 542 135.5Q524 87 490.5 55Q457 23 410 6.5Q363 -10 305 -10Z" glyph-name="Utilde" horiz-adv-x="610" unicode="&#360;" /><glyph d="M245 0 15 614H150L309 170L468 614H600L369 0Z" glyph-name="V" horiz-adv-x="614" unicode="V" /><glyph d="M449 614 555 201 656 614H782L622 0H505L397 405L289 0H172L12 614H141L241 201L349 614Z" glyph-name="W" horiz-adv-x="794" unicode="W" /><glyph d="M335 669 415 791H550L457 669ZM449 614 555 201 656 614H782L622 0H505L397 405L289 0H172L12 614H141L241 201L349 614Z" glyph-name="Wacute" horiz-adv-x="794" unicode="&#7810;" /><glyph d="M449 614 555 201 656 614H782L622 0H505L397 405L289 0H172L12 614H141L241 201L349 614ZM549 669H444L397 723L350 669H245L345 796H449Z" glyph-name="Wcircumflex" horiz-adv-x="794" unicode="&#372;" /><glyph d="M247 730Q247 759 266 778.5Q285 798 314 798Q342 798 361.5 778.5Q381 759 381 730Q381 703 361.5 683.5Q342 664 314 664Q285 664 266 683.5Q247 703 247 730ZM412 730Q412 759 431.5 778.5Q451 798 479 798Q507 798 527 778.5Q547 759 547 730Q547 703 527 683.5Q507 664 479 664Q451 664 431.5 683.5Q412 703 412 730ZM449 614 555 201 656 614H782L622 0H505L397 405L289 0H172L12 614H141L241 201L349 614Z" glyph-name="Wdieresis" horiz-adv-x="794" unicode="&#7812;" /><glyph d="M338 669 245 791H380L460 669ZM449 614 555 201 656 614H782L622 0H505L397 405L289 0H172L12 614H141L241 201L349 614Z" glyph-name="Wgrave" horiz-adv-x="794" unicode="&#7808;" /><glyph d="M366 315 579 0H435L291 213L148 0H7L220 313L17 614H162L294 415L429 614H569Z" glyph-name="X" horiz-adv-x="586" unicode="X" /><glyph d="M447 614H582L359 233V0H232V233L11 614H150L299 354Z" glyph-name="Y" horiz-adv-x="593" unicode="Y" /><glyph d="M447 614H582L359 233V0H232V233L11 614H150L299 354ZM229 669 309 791H444L351 669Z" glyph-name="Yacute" horiz-adv-x="593" unicode="&#221;" /><glyph d="M447 614H582L359 233V0H232V233L11 614H150L299 354ZM448 669H343L296 723L249 669H144L244 796H348Z" glyph-name="Ycircumflex" horiz-adv-x="593" unicode="&#374;" /><glyph d="M447 614H582L359 233V0H232V233L11 614H150L299 354ZM147 730Q147 759 166 778.5Q185 798 214 798Q242 798 261.5 778.5Q281 759 281 730Q281 703 261.5 683.5Q242 664 214 664Q185 664 166 683.5Q147 703 147 730ZM312 730Q312 759 331.5 778.5Q351 798 379 798Q407 798 427 778.5Q447 759 447 730Q447 703 427 683.5Q407 664 379 664Q351 664 331.5 683.5Q312 703 312 730Z" glyph-name="Ydieresis" horiz-adv-x="593" unicode="&#376;" /><glyph d="M447 614H582L359 233V0H232V233L11 614H150L299 354ZM240 669 147 791H282L362 669Z" glyph-name="Ygrave" horiz-adv-x="593" unicode="&#7922;" /><glyph d="M511 0H27V4L317 502H40V614H515V610L227 113H511Z" glyph-name="Z" horiz-adv-x="545" unicode="Z" /><glyph d="M511 0H27V4L317 502H40V614H515V610L227 113H511ZM214 669 294 791H429L336 669Z" glyph-name="Zacute" horiz-adv-x="545" unicode="&#377;" /><glyph d="M129 795H234L281 741L328 795H433L333 668H229ZM511 0H27V4L317 502H40V614H515V610L227 113H511Z" glyph-name="Zcaron" horiz-adv-x="545" unicode="&#381;" /><glyph d="M355 734Q355 703 332.5 683Q310 663 281 663Q252 663 229.5 683Q207 703 207 734Q207 766 229.5 785.5Q252 805 281 805Q310 805 332.5 785.5Q355 766 355 734ZM511 0H27V4L317 502H40V614H515V610L227 113H511Z" glyph-name="Zdotaccent" horiz-adv-x="545" unicode="&#379;" /><glyph d="M300 279Q300 311 274 330Q248 349 200 349Q166 349 135 339.5Q104 330 78 313V420Q102 435 142 446Q182 457 227 457Q320 457 369.5 412Q419 367 419 285V0H300V24Q289 13 259 2.5Q229 -8 192 -8Q158 -8 128 1.5Q98 11 75.5 29.5Q53 48 40 75Q27 102 27 137Q27 169 40 195.5Q53 222 76.5 240.5Q100 259 131.5 269.5Q163 280 200 280Q229 280 257.5 272Q286 264 300 254ZM300 154Q292 172 269.5 182.5Q247 193 221 193Q206 193 192 189.5Q178 186 167 179.5Q156 173 149 162.5Q142 152 142 138Q142 123 149 113Q156 103 167 96Q178 89 192 86Q206 83 221 83Q247 83 269.5 93.5Q292 104 300 122Z" glyph-name="a" horiz-adv-x="468" unicode="a" /><glyph d="M300 279Q300 311 274 330Q248 349 200 349Q166 349 135 339.5Q104 330 78 313V420Q102 435 142 446Q182 457 227 457Q320 457 369.5 412Q419 367 419 285V0H300V24Q289 13 259 2.5Q229 -8 192 -8Q158 -8 128 1.5Q98 11 75.5 29.5Q53 48 40 75Q27 102 27 137Q27 169 40 195.5Q53 222 76.5 240.5Q100 259 131.5 269.5Q163 280 200 280Q229 280 257.5 272Q286 264 300 254ZM300 154Q292 172 269.5 182.5Q247 193 221 193Q206 193 192 189.5Q178 186 167 179.5Q156 173 149 162.5Q142 152 142 138Q142 123 149 113Q156 103 167 96Q178 89 192 86Q206 83 221 83Q247 83 269.5 93.5Q292 104 300 122ZM178 508 257 650H380L290 508Z" glyph-name="aacute" horiz-adv-x="468" unicode="&#225;" /><glyph d="M300 279Q300 311 274 330Q248 349 200 349Q166 349 135 339.5Q104 330 78 313V420Q102 435 142 446Q182 457 227 457Q320 457 369.5 412Q419 367 419 285V0H300V24Q289 13 259 2.5Q229 -8 192 -8Q158 -8 128 1.5Q98 11 75.5 29.5Q53 48 40 75Q27 102 27 137Q27 169 40 195.5Q53 222 76.5 240.5Q100 259 131.5 269.5Q163 280 200 280Q229 280 257.5 272Q286 264 300 254ZM300 154Q292 172 269.5 182.5Q247 193 221 193Q206 193 192 189.5Q178 186 167 179.5Q156 173 149 162.5Q142 152 142 138Q142 123 149 113Q156 103 167 96Q178 89 192 86Q206 83 221 83Q247 83 269.5 93.5Q292 104 300 122ZM241 492Q181 492 144.5 528Q108 564 108 634H196Q196 608 207 592Q218 576 241 576Q264 576 275 592Q286 608 286 634H374Q374 564 337.5 528Q301 492 241 492Z" glyph-name="abreve" horiz-adv-x="468" unicode="&#259;" /><glyph d="M300 279Q300 311 274 330Q248 349 200 349Q166 349 135 339.5Q104 330 78 313V420Q102 435 142 446Q182 457 227 457Q320 457 369.5 412Q419 367 419 285V0H300V24Q289 13 259 2.5Q229 -8 192 -8Q158 -8 128 1.5Q98 11 75.5 29.5Q53 48 40 75Q27 102 27 137Q27 169 40 195.5Q53 222 76.5 240.5Q100 259 131.5 269.5Q163 280 200 280Q229 280 257.5 272Q286 264 300 254ZM300 154Q292 172 269.5 182.5Q247 193 221 193Q206 193 192 189.5Q178 186 167 179.5Q156 173 149 162.5Q142 152 142 138Q142 123 149 113Q156 103 167 96Q178 89 192 86Q206 83 221 83Q247 83 269.5 93.5Q292 104 300 122ZM388 502H290L241 571L192 502H94L189 647H293Z" glyph-name="acircumflex" horiz-adv-x="468" unicode="&#226;" /><glyph d="M149 508 228 650H351L261 508Z" glyph-name="acute" horiz-adv-x="500" unicode="&#180;" /><glyph d="M142 669 222 791H357L264 669Z" glyph-name="acute.cap" horiz-adv-x="500" /><glyph d="M300 279Q300 311 274 330Q248 349 200 349Q166 349 135 339.5Q104 330 78 313V420Q102 435 142 446Q182 457 227 457Q320 457 369.5 412Q419 367 419 285V0H300V24Q289 13 259 2.5Q229 -8 192 -8Q158 -8 128 1.5Q98 11 75.5 29.5Q53 48 40 75Q27 102 27 137Q27 169 40 195.5Q53 222 76.5 240.5Q100 259 131.5 269.5Q163 280 200 280Q229 280 257.5 272Q286 264 300 254ZM300 154Q292 172 269.5 182.5Q247 193 221 193Q206 193 192 189.5Q178 186 167 179.5Q156 173 149 162.5Q142 152 142 138Q142 123 149 113Q156 103 167 96Q178 89 192 86Q206 83 221 83Q247 83 269.5 93.5Q292 104 300 122ZM93 570Q93 599 112.5 618Q132 637 160 637Q187 637 206.5 618Q226 599 226 570Q226 543 206.5 523.5Q187 504 160 504Q132 504 112.5 523.5Q93 543 93 570ZM257 570Q257 599 276.5 618Q296 637 323 637Q350 637 370 618Q390 599 390 570Q390 543 370 523.5Q350 504 323 504Q296 504 276.5 523.5Q257 543 257 570Z" glyph-name="adieresis" horiz-adv-x="468" unicode="&#228;" /><glyph d="M519 -10Q413 -10 352 53Q322 25 283.5 8Q245 -9 193 -9Q159 -9 129 0.5Q99 10 76.5 28Q54 46 40.5 72Q27 98 27 131Q27 165 41 191.5Q55 218 80 236.5Q105 255 137.5 264.5Q170 274 208 274H299V283Q297 314 271 332Q245 350 200 350Q165 350 135 340Q105 330 78 313V420Q102 435 141.5 446Q181 457 225 457Q276 457 311 442Q346 427 368 399Q392 425 426.5 441Q461 457 500 457Q548 457 585 440.5Q622 424 646.5 394.5Q671 365 683.5 323.5Q696 282 696 233V193H409Q417 140 453 116Q489 92 537 92Q574 92 603.5 101Q633 110 666 131V29Q638 9 601 -0.5Q564 -10 519 -10ZM212 87Q244 87 266 100.5Q288 114 299 138V193H219Q190 193 166 181.5Q142 170 142 141Q142 113 163.5 100Q185 87 212 87ZM502 359Q471 359 446 339Q421 319 411 274H582Q580 309 559.5 334Q539 359 502 359Z" glyph-name="ae" horiz-adv-x="724" unicode="&#230;" /><glyph d="M323 508 402 650H525L435 508ZM519 -10Q413 -10 352 53Q322 25 283.5 8Q245 -9 193 -9Q159 -9 129 0.5Q99 10 76.5 28Q54 46 40.5 72Q27 98 27 131Q27 165 41 191.5Q55 218 80 236.5Q105 255 137.5 264.5Q170 274 208 274H299V283Q297 314 271 332Q245 350 200 350Q165 350 135 340Q105 330 78 313V420Q102 435 141.5 446Q181 457 225 457Q276 457 311 442Q346 427 368 399Q392 425 426.5 441Q461 457 500 457Q548 457 585 440.5Q622 424 646.5 394.5Q671 365 683.5 323.5Q696 282 696 233V193H409Q417 140 453 116Q489 92 537 92Q574 92 603.5 101Q633 110 666 131V29Q638 9 601 -0.5Q564 -10 519 -10ZM212 87Q244 87 266 100.5Q288 114 299 138V193H219Q190 193 166 181.5Q142 170 142 141Q142 113 163.5 100Q185 87 212 87ZM502 359Q471 359 446 339Q421 319 411 274H582Q580 309 559.5 334Q539 359 502 359Z" glyph-name="aeacute" horiz-adv-x="724" unicode="&#509;" /><glyph d="M300 279Q300 311 274 330Q248 349 200 349Q166 349 135 339.5Q104 330 78 313V420Q102 435 142 446Q182 457 227 457Q320 457 369.5 412Q419 367 419 285V0H300V24Q289 13 259 2.5Q229 -8 192 -8Q158 -8 128 1.5Q98 11 75.5 29.5Q53 48 40 75Q27 102 27 137Q27 169 40 195.5Q53 222 76.5 240.5Q100 259 131.5 269.5Q163 280 200 280Q229 280 257.5 272Q286 264 300 254ZM300 154Q292 172 269.5 182.5Q247 193 221 193Q206 193 192 189.5Q178 186 167 179.5Q156 173 149 162.5Q142 152 142 138Q142 123 149 113Q156 103 167 96Q178 89 192 86Q206 83 221 83Q247 83 269.5 93.5Q292 104 300 122ZM189 508 100 650H223L302 508Z" glyph-name="agrave" horiz-adv-x="468" unicode="&#224;" /><glyph d="M300 279Q300 311 274 330Q248 349 200 349Q166 349 135 339.5Q104 330 78 313V420Q102 435 142 446Q182 457 227 457Q320 457 369.5 412Q419 367 419 285V0H300V24Q289 13 259 2.5Q229 -8 192 -8Q158 -8 128 1.5Q98 11 75.5 29.5Q53 48 40 75Q27 102 27 137Q27 169 40 195.5Q53 222 76.5 240.5Q100 259 131.5 269.5Q163 280 200 280Q229 280 257.5 272Q286 264 300 254ZM300 154Q292 172 269.5 182.5Q247 193 221 193Q206 193 192 189.5Q178 186 167 179.5Q156 173 149 162.5Q142 152 142 138Q142 123 149 113Q156 103 167 96Q178 89 192 86Q206 83 221 83Q247 83 269.5 93.5Q292 104 300 122ZM123 607H360V516H123Z" glyph-name="amacron" horiz-adv-x="468" unicode="&#257;" /><glyph d="M289 522Q257 522 236.5 505.5Q216 489 216 459Q216 433 231.5 411.5Q247 390 267 368L406 214Q422 259 424 317H536Q535 266 521 219Q507 172 481 131L600 0H450L407 47Q372 20 331 5Q290 -10 244 -10Q197 -10 158.5 4Q120 18 92.5 43Q65 68 50 103.5Q35 139 35 182Q35 235 63 277.5Q91 320 136 344Q116 371 106 397.5Q96 424 96 458Q96 496 110 527Q124 558 149 579.5Q174 601 208.5 612.5Q243 624 284 624Q324 624 359.5 613Q395 602 421 583V466Q394 490 360.5 506Q327 522 289 522ZM245 89Q298 89 340 120L202 270Q179 258 164.5 234.5Q150 211 150 182Q150 141 175 115Q200 89 245 89Z" glyph-name="ampersand" horiz-adv-x="607" unicode="&amp;" /><glyph d="M300 154Q292 172 269.5 182.5Q247 193 221 193Q206 193 192 189.5Q178 186 167 179.5Q156 173 149 162.5Q142 152 142 138Q142 123 149 113Q156 103 167 96Q178 89 192 86Q206 83 221 83Q247 83 269.5 93.5Q292 104 300 122ZM300 0V24Q289 13 259 2.5Q229 -8 192 -8Q158 -8 128 1.5Q98 11 75.5 29.5Q53 48 40 75Q27 102 27 137Q27 169 40 195.5Q53 222 76.5 240.5Q100 259 131.5 269.5Q163 280 200 280Q229 280 257.5 272Q286 264 300 254V279Q300 311 274 330Q248 349 200 349Q166 349 135 339.5Q104 330 78 313V420Q102 435 142 446Q182 457 227 457Q320 457 369.5 412Q419 367 419 285V0Q404 -21 394.5 -34Q385 -47 379.5 -56.5Q374 -66 371.5 -73Q369 -80 369 -88Q369 -97 374.5 -103Q380 -109 390 -109Q399 -109 406.5 -105Q414 -101 426 -93V-167Q413 -176 398.5 -182Q384 -188 364 -188Q325 -188 303.5 -167.5Q282 -147 282 -113Q282 -82 298 -55.5Q314 -29 337 0Z" glyph-name="aogonek" horiz-adv-x="468" unicode="&#261;" /><glyph d="M73 402Q104 422 133 431Q162 440 189 440Q216 440 240 434Q264 428 287 421.5Q310 415 334 409Q358 403 385 403Q412 403 441.5 412Q471 421 504 442V352Q471 331 441.5 322Q412 313 385 313Q358 313 334 319Q310 325 287 332Q264 339 240 345Q216 351 189 351Q162 351 133 342Q104 333 73 312ZM73 248Q104 269 133 278Q162 287 189 287Q216 287 240 281Q264 275 287 268Q310 261 334 255Q358 249 385 249Q412 249 441.5 257.5Q471 266 504 288V198Q471 177 441.5 168.5Q412 160 385 160Q358 160 334 166Q310 172 287 178.5Q264 185 240 191Q216 197 189 197Q162 197 133 188Q104 179 73 159Z" glyph-name="approxequal" horiz-adv-x="576" unicode="&#8776;" /><glyph d="M44 402Q76 422 104.5 431Q133 440 160 440Q187 440 211 434Q235 428 258 421.5Q281 415 305 409Q329 403 356 403Q383 403 412.5 412Q442 421 475 442V352Q442 331 412.5 322Q383 313 356 313Q329 313 305 319Q281 325 258 332Q235 339 211 345Q187 351 160 351Q133 351 104.5 342Q76 333 44 312ZM44 248Q76 269 104.5 278Q133 287 160 287Q187 287 211 281Q235 275 258 268Q281 261 305 255Q329 249 356 249Q383 249 412.5 257.5Q442 266 475 288V198Q442 177 412.5 168.5Q383 160 356 160Q329 160 305 166Q281 172 258 178.5Q235 185 211 191Q187 197 160 197Q133 197 104.5 188Q76 179 44 159Z" glyph-name="approxequal.lt" horiz-adv-x="520" /><glyph d="M300 279Q300 311 274 330Q248 349 200 349Q166 349 135 339.5Q104 330 78 313V420Q102 435 142 446Q182 457 227 457Q320 457 369.5 412Q419 367 419 285V0H300V24Q289 13 259 2.5Q229 -8 192 -8Q158 -8 128 1.5Q98 11 75.5 29.5Q53 48 40 75Q27 102 27 137Q27 169 40 195.5Q53 222 76.5 240.5Q100 259 131.5 269.5Q163 280 200 280Q229 280 257.5 272Q286 264 300 254ZM300 154Q292 172 269.5 182.5Q247 193 221 193Q206 193 192 189.5Q178 186 167 179.5Q156 173 149 162.5Q142 152 142 138Q142 123 149 113Q156 103 167 96Q178 89 192 86Q206 83 221 83Q247 83 269.5 93.5Q292 104 300 122ZM340 584Q340 563 332.5 545.5Q325 528 311.5 515Q298 502 280 494.5Q262 487 241 487Q220 487 202 494.5Q184 502 170.5 515Q157 528 149.5 545.5Q142 563 142 584Q142 605 149.5 622.5Q157 640 170.5 653Q184 666 202 673.5Q220 681 241 681Q262 681 280 673.5Q298 666 311.5 653Q325 640 332.5 622.5Q340 605 340 584ZM281 584Q281 601 269.5 612.5Q258 624 241 624Q224 624 213 612.5Q202 601 202 584Q202 567 213 556Q224 545 241 545Q258 545 269.5 556Q281 567 281 584Z" glyph-name="aring" horiz-adv-x="468" unicode="&#229;" /><glyph d="M331 556Q331 522 302.5 498.5Q274 475 232 475Q190 475 162 498.5Q134 522 134 556Q134 590 162 613.5Q190 637 232 637Q274 637 302.5 613.5Q331 590 331 556ZM272 556Q272 570 260.5 578.5Q249 587 232 587Q215 587 204 578.5Q193 570 193 556Q193 542 204 533.5Q215 525 232 525Q249 525 260.5 533.5Q272 542 272 556ZM177 655 234 749H369L299 655ZM300 279Q300 311 274 330Q248 349 200 349Q166 349 135 339.5Q104 330 78 313V420Q102 435 142 446Q182 457 227 457Q320 457 369.5 412Q419 367 419 285V0H300V24Q289 13 259 2.5Q229 -8 192 -8Q158 -8 128 1.5Q98 11 75.5 29.5Q53 48 40 75Q27 102 27 137Q27 169 40 195.5Q53 222 76.5 240.5Q100 259 131.5 269.5Q163 280 200 280Q229 280 257.5 272Q286 264 300 254ZM300 154Q292 172 269.5 182.5Q247 193 221 193Q206 193 192 189.5Q178 186 167 179.5Q156 173 149 162.5Q142 152 142 138Q142 123 149 113Q156 103 167 96Q178 89 192 86Q206 83 221 83Q247 83 269.5 93.5Q292 104 300 122Z" glyph-name="aringacute" horiz-adv-x="468" unicode="&#507;" /><glyph d="M261 614 399 394H283L205 520L126 394H10L148 614Z" glyph-name="asciicircum" horiz-adv-x="409" unicode="^" /><glyph d="M392 347Q392 274 364 234.5Q336 195 286 195Q263 195 245.5 204Q228 213 213.5 224.5Q199 236 186.5 245Q174 254 160 254Q124 254 124 199H36Q36 271 63.5 311Q91 351 142 351Q165 351 182.5 342Q200 333 214 321.5Q228 310 241 301Q254 292 268 292Q304 292 304 347Z" glyph-name="asciitilde" horiz-adv-x="428" unicode="~" /><glyph d="M27 547 59 603 141 555V650H205V555L287 603L319 547L236 500L319 453L287 397L205 445V350H141V445L59 397L27 453L109 500Z" glyph-name="asterisk" horiz-adv-x="346" unicode="*" /><glyph d="M533 150Q529 126 536 114.5Q543 103 563 103Q609 103 637 148Q665 193 665 274Q665 327 645.5 368.5Q626 410 591.5 439Q557 468 509.5 483Q462 498 407 498Q340 498 284.5 475.5Q229 453 189.5 412.5Q150 372 128 315Q106 258 106 190Q106 111 134 59Q162 7 206 -24.5Q250 -56 303.5 -69Q357 -82 408 -82Q478 -82 531 -68.5Q584 -55 632 -34V-107Q594 -126 535.5 -140Q477 -154 408 -154Q334 -154 265 -134Q196 -114 142.5 -72Q89 -30 56.5 35Q24 100 24 190Q24 269 51.5 338Q79 407 129.5 459Q180 511 250.5 541Q321 571 407 571Q482 571 543.5 548.5Q605 526 649.5 486Q694 446 718.5 391.5Q743 337 743 274Q743 212 726 166.5Q709 121 681 91Q653 61 616.5 46Q580 31 540 31Q505 31 475 44.5Q445 58 428 84Q414 59 386.5 45.5Q359 32 331 32Q299 32 274 43.5Q249 55 231.5 75.5Q214 96 204.5 123.5Q195 151 195 183Q195 225 208.5 263.5Q222 302 246.5 331Q271 360 305 377.5Q339 395 380 395Q409 395 432 384Q455 373 465 358L471 386H574ZM448 266Q443 282 428 292.5Q413 303 391 303Q371 303 355 294Q339 285 328 269.5Q317 254 310.5 233.5Q304 213 304 191Q304 162 318.5 143.5Q333 125 362 125Q386 125 402.5 137Q419 149 430 166Z" glyph-name="at" horiz-adv-x="768" unicode="@" /><glyph d="M533 242Q529 218 536 206.5Q543 195 563 195Q609 195 637 240Q665 285 665 366Q665 419 645.5 460.5Q626 502 591.5 531Q557 560 509.5 575Q462 590 407 590Q340 590 284.5 567.5Q229 545 189.5 504.5Q150 464 128 407Q106 350 106 282Q106 203 134 151Q162 99 206 67.5Q250 36 303.5 23Q357 10 408 10Q478 10 531 23.5Q584 37 632 58V-15Q594 -34 535.5 -48Q477 -62 408 -62Q334 -62 265 -42Q196 -22 142.5 20Q89 62 56.5 127Q24 192 24 282Q24 361 51.5 430Q79 499 129.5 551Q180 603 250.5 633Q321 663 407 663Q482 663 543.5 640.5Q605 618 649.5 578Q694 538 718.5 483.5Q743 429 743 366Q743 304 726 258.5Q709 213 681 183Q653 153 616.5 138Q580 123 540 123Q505 123 475 136.5Q445 150 428 176Q414 151 386.5 137.5Q359 124 331 124Q299 124 274 135.5Q249 147 231.5 167.5Q214 188 204.5 215.5Q195 243 195 275Q195 317 208.5 355.5Q222 394 246.5 423Q271 452 305 469.5Q339 487 380 487Q409 487 432 476Q455 465 465 450L471 478H574ZM448 358Q443 374 428 384.5Q413 395 391 395Q371 395 355 386Q339 377 328 361.5Q317 346 310.5 325.5Q304 305 304 283Q304 254 318.5 235.5Q333 217 362 217Q386 217 402.5 229Q419 241 430 258Z" glyph-name="at.cap" horiz-adv-x="768" /><glyph d="M300 279Q300 311 274 330Q248 349 200 349Q166 349 135 339.5Q104 330 78 313V420Q102 435 142 446Q182 457 227 457Q320 457 369.5 412Q419 367 419 285V0H300V24Q289 13 259 2.5Q229 -8 192 -8Q158 -8 128 1.5Q98 11 75.5 29.5Q53 48 40 75Q27 102 27 137Q27 169 40 195.5Q53 222 76.5 240.5Q100 259 131.5 269.5Q163 280 200 280Q229 280 257.5 272Q286 264 300 254ZM300 154Q292 172 269.5 182.5Q247 193 221 193Q206 193 192 189.5Q178 186 167 179.5Q156 173 149 162.5Q142 152 142 138Q142 123 149 113Q156 103 167 96Q178 89 192 86Q206 83 221 83Q247 83 269.5 93.5Q292 104 300 122ZM384 643Q384 613 379 588Q374 563 363.5 544Q353 525 336.5 514.5Q320 504 298 504Q281 504 268 511Q255 518 243.5 527Q232 536 221 543Q210 550 199 550Q185 550 177.5 539Q170 528 169 508H98Q98 538 103 563Q108 588 118.5 607Q129 626 145 636.5Q161 647 184 647Q200 647 213.5 640Q227 633 239 624Q251 615 261.5 608Q272 601 283 601Q297 601 304.5 612Q312 623 313 643Z" glyph-name="atilde" horiz-adv-x="468" unicode="&#227;" /><glyph d="M178 0H53V650H178V410Q193 428 223.5 442.5Q254 457 290 457Q339 457 376.5 438.5Q414 420 440 388Q466 356 479.5 313.5Q493 271 493 223Q493 175 479.5 132.5Q466 90 440 58.5Q414 27 376.5 8.5Q339 -10 290 -10Q254 -10 223.5 4.5Q193 19 178 37ZM178 150Q189 127 211.5 112.5Q234 98 262 98Q313 98 341 133.5Q369 169 369 223Q369 277 341 313Q313 349 262 349Q235 349 212 334.5Q189 320 178 297Z" glyph-name="b" horiz-adv-x="519" unicode="b" /><glyph d="M368 -84H253L5 650H120Z" glyph-name="backslash" horiz-adv-x="373" unicode="\" /><glyph d="M368 -64H253L5 670H120Z" glyph-name="backslash.cap" horiz-adv-x="373" /><glyph d="M59 650H169V-84H59Z" glyph-name="bar" horiz-adv-x="228" unicode="|" /><glyph d="M59 670H169V-64H59Z" glyph-name="bar.cap" horiz-adv-x="228" /><glyph d="M213 52Q213 23 242 23H333V-84H225Q168 -84 132 -48Q96 -12 96 46V200Q96 229 67 229H20V337H67Q96 337 96 366V520Q96 578 132 614Q168 650 225 650H333V543H242Q213 543 213 514V366Q213 334 199.5 314.5Q186 295 166 283Q186 271 199.5 251.5Q213 232 213 200Z" glyph-name="braceleft" horiz-adv-x="353" unicode="{" /><glyph d="M213 72Q213 43 242 43H333V-64H225Q168 -64 132 -28Q96 8 96 66V220Q96 249 67 249H20V357H67Q96 357 96 386V540Q96 598 132 634Q168 670 225 670H333V563H242Q213 563 213 534V386Q213 354 199.5 334.5Q186 315 166 303Q186 291 199.5 271.5Q213 252 213 220Z" glyph-name="braceleft.cap" horiz-adv-x="353" /><glyph d="M140 200Q140 232 153.5 251.5Q167 271 187 283Q167 295 153.5 314.5Q140 334 140 366V514Q140 543 111 543H20V650H128Q185 650 221 614Q257 578 257 520V366Q257 337 286 337H333V229H286Q257 229 257 200V46Q257 -12 221 -48Q185 -84 128 -84H20V23H111Q140 23 140 52Z" glyph-name="braceright" horiz-adv-x="353" unicode="}" /><glyph d="M140 220Q140 252 153.5 271.5Q167 291 187 303Q167 315 153.5 334.5Q140 354 140 386V534Q140 563 111 563H20V670H128Q185 670 221 634Q257 598 257 540V386Q257 357 286 357H333V249H286Q257 249 257 220V66Q257 8 221 -28Q185 -64 128 -64H20V43H111Q140 43 140 72Z" glyph-name="braceright.cap" horiz-adv-x="353" /><glyph d="M175 23H302V-84H59V650H302V543H175Z" glyph-name="bracketleft" horiz-adv-x="322" unicode="[" /><glyph d="M175 43H302V-64H59V670H302V563H175Z" glyph-name="bracketleft.cap" horiz-adv-x="322" /><glyph d="M147 543H20V650H263V-84H20V23H147Z" glyph-name="bracketright" horiz-adv-x="322" unicode="]" /><glyph d="M147 563H20V670H263V-64H20V43H147Z" glyph-name="bracketright.cap" horiz-adv-x="322" /><glyph d="M250 492Q190 492 153.5 528Q117 564 117 634H205Q205 608 216 592Q227 576 250 576Q273 576 284 592Q295 608 295 634H383Q383 564 346.5 528Q310 492 250 492Z" glyph-name="breve" horiz-adv-x="500" unicode="&#728;" /><glyph d="M249 663Q189 663 152 697Q115 731 115 797H203Q203 772 216 760.5Q229 749 249 749Q271 749 283.5 760.5Q296 772 296 797H384Q384 731 347 697Q310 663 249 663Z" glyph-name="breve.cap" horiz-adv-x="500" /><glyph d="M336 262Q336 228 324 200Q312 172 291 152Q270 132 242 121Q214 110 182 110Q150 110 122 121Q94 132 73.5 152Q53 172 41 200Q29 228 29 262Q29 296 41 324Q53 352 73.5 372.5Q94 393 122 404Q150 415 182 415Q214 415 242 404Q270 393 291 372.5Q312 352 324 324Q336 296 336 262Z" glyph-name="bullet" horiz-adv-x="364" unicode="&#8226;" /><glyph d="M336 299Q336 266 324 238Q312 210 291 189.5Q270 169 242 158Q214 147 182 147Q150 147 122 158Q94 169 73.5 189.5Q53 210 41 238Q29 266 29 299Q29 333 41 361.5Q53 390 73.5 410Q94 430 122 441.5Q150 453 182 453Q214 453 242 441.5Q270 430 291 410Q312 390 324 361.5Q336 333 336 299Z" glyph-name="bullet.cap" horiz-adv-x="364" /><glyph d="M26 223Q26 277 43.5 320.5Q61 364 91.5 394Q122 424 163 440.5Q204 457 252 457Q286 457 317.5 449Q349 441 373 422V309Q329 349 267 349Q217 349 183 316Q149 283 149 223Q149 163 183 130Q217 97 267 97Q327 97 373 137V25Q349 6 317.5 -2Q286 -10 252 -10Q204 -10 163 6.5Q122 23 91.5 53Q61 83 43.5 126Q26 169 26 223Z" glyph-name="c" horiz-adv-x="405" unicode="c" /><glyph d="M189 508 268 650H391L301 508ZM26 223Q26 277 43.5 320.5Q61 364 91.5 394Q122 424 163 440.5Q204 457 252 457Q286 457 317.5 449Q349 441 373 422V309Q329 349 267 349Q217 349 183 316Q149 283 149 223Q149 163 183 130Q217 97 267 97Q327 97 373 137V25Q349 6 317.5 -2Q286 -10 252 -10Q204 -10 163 6.5Q122 23 91.5 53Q61 83 43.5 126Q26 169 26 223Z" glyph-name="cacute" horiz-adv-x="405" unicode="&#263;" /><glyph d="M302 502H198L103 647H201L250 578L299 647H397Z" glyph-name="caron" horiz-adv-x="500" unicode="&#711;" /><glyph d="M175 483 213 650H310L272 483Z" glyph-name="caron.Slovak" horiz-adv-x="500" /><glyph d="M98 795H203L250 741L297 795H402L302 668H198Z" glyph-name="caron.cap" horiz-adv-x="500" /><glyph d="M295 502H191L96 647H194L243 578L292 647H390ZM26 223Q26 277 43.5 320.5Q61 364 91.5 394Q122 424 163 440.5Q204 457 252 457Q286 457 317.5 449Q349 441 373 422V309Q329 349 267 349Q217 349 183 316Q149 283 149 223Q149 163 183 130Q217 97 267 97Q327 97 373 137V25Q349 6 317.5 -2Q286 -10 252 -10Q204 -10 163 6.5Q122 23 91.5 53Q61 83 43.5 126Q26 169 26 223Z" glyph-name="ccaron" horiz-adv-x="405" unicode="&#269;" /><glyph d="M26 223Q26 277 43.5 320.5Q61 364 91.5 394Q122 424 163 440.5Q204 457 252 457Q286 457 317.5 449Q349 441 373 422V309Q329 349 267 349Q217 349 183 316Q149 283 149 223Q149 163 183 130Q217 97 267 97Q327 97 373 137V25Q349 6 317.5 -2Q286 -10 252 -10Q204 -10 163 6.5Q122 23 91.5 53Q61 83 43.5 126Q26 169 26 223ZM129 -186 199 -47H313L239 -186Z" glyph-name="ccedilla" horiz-adv-x="405" unicode="&#231;" /><glyph d="M383 502H285L236 571L187 502H89L184 647H288ZM26 223Q26 277 43.5 320.5Q61 364 91.5 394Q122 424 163 440.5Q204 457 252 457Q286 457 317.5 449Q349 441 373 422V309Q329 349 267 349Q217 349 183 316Q149 283 149 223Q149 163 183 130Q217 97 267 97Q327 97 373 137V25Q349 6 317.5 -2Q286 -10 252 -10Q204 -10 163 6.5Q122 23 91.5 53Q61 83 43.5 126Q26 169 26 223Z" glyph-name="ccircumflex" horiz-adv-x="405" unicode="&#265;" /><glyph d="M26 223Q26 277 43.5 320.5Q61 364 91.5 394Q122 424 163 440.5Q204 457 252 457Q286 457 317.5 449Q349 441 373 422V309Q329 349 267 349Q217 349 183 316Q149 283 149 223Q149 163 183 130Q217 97 267 97Q327 97 373 137V25Q349 6 317.5 -2Q286 -10 252 -10Q204 -10 163 6.5Q122 23 91.5 53Q61 83 43.5 126Q26 169 26 223ZM315 579Q315 547 292.5 527.5Q270 508 241 508Q212 508 189.5 527.5Q167 547 167 579Q167 610 189.5 630Q212 650 241 650Q270 650 292.5 630Q315 610 315 579Z" glyph-name="cdotaccent" horiz-adv-x="405" unicode="&#267;" /><glyph d="M155 -186 225 -47H339L265 -186Z" glyph-name="cedilla" horiz-adv-x="500" unicode="&#184;" /><glyph d="M155 -186 225 -47H339L265 -186Z" glyph-name="cedilla.alt" horiz-adv-x="500" /><glyph d="M192 8Q120 27 74 85Q28 143 28 233Q28 323 74 381.5Q120 440 192 459V552H298V463Q320 460 340.5 452.5Q361 445 378 432V319Q355 339 327.5 349Q300 359 269 359Q220 359 186 326Q152 293 152 233Q152 173 186 140Q220 107 269 107Q332 107 378 147V35Q361 22 340.5 14.5Q320 7 298 3V-87H192Z" glyph-name="cent" horiz-adv-x="412" unicode="&#162;" /><glyph d="M241 8Q169 27 123 85Q77 143 77 233Q77 323 123 381.5Q169 440 241 459V552H348V463Q370 459 390 452Q410 445 427 432V319Q404 339 376.5 349Q349 359 318 359Q269 359 235 326Q201 293 201 233Q201 173 235 140Q269 107 318 107Q381 107 427 147V35Q410 22 390 14.5Q370 7 348 3V-87H241Z" glyph-name="cent.lt" horiz-adv-x="520" /><glyph d="M397 502H299L250 571L201 502H103L198 647H302Z" glyph-name="circumflex" horiz-adv-x="500" unicode="&#710;" /><glyph d="M402 669H297L250 723L203 669H98L198 796H302Z" glyph-name="circumflex.cap" horiz-adv-x="500" /><glyph d="M27 73Q27 107 49.5 129.5Q72 152 105 152Q138 152 160.5 129.5Q183 107 183 73Q183 39 160.5 16Q138 -7 105 -7Q72 -7 49.5 16Q27 39 27 73ZM27 358Q27 392 49.5 414.5Q72 437 105 437Q138 437 160.5 414.5Q183 392 183 358Q183 324 160.5 301Q138 278 105 278Q72 278 49.5 301Q27 324 27 358Z" glyph-name="colon" horiz-adv-x="210" unicode=":" /><glyph d="M52 73Q52 107 74.5 129.5Q97 152 130 152Q163 152 185.5 129.5Q208 107 208 73Q208 39 185.5 16Q163 -7 130 -7Q97 -7 74.5 16Q52 39 52 73ZM52 358Q52 392 74.5 414.5Q97 437 130 437Q163 437 185.5 414.5Q208 392 208 358Q208 324 185.5 301Q163 278 130 278Q97 278 74.5 301Q52 324 52 358Z" glyph-name="colon.tab" horiz-adv-x="260" /><glyph d="M87 3Q62 8 44.5 26Q27 44 27 75Q27 108 49.5 129.5Q72 151 105 151Q137 151 160 129.5Q183 108 183 66Q183 43 174 19.5Q165 -4 151 -24L94 -109H14Z" glyph-name="comma" horiz-adv-x="210" unicode="," /><glyph d="M112 3Q87 8 69 26Q51 44 51 75Q51 108 74 129.5Q97 151 130 151Q162 151 185 129.5Q208 108 208 66Q208 43 198.5 19.5Q189 -4 175 -24L119 -109H39Z" glyph-name="comma.tab" horiz-adv-x="260" /><glyph d="M231 -163Q210 -159 195.5 -143.5Q181 -128 181 -103Q181 -75 201.5 -57Q222 -39 252 -39Q280 -39 300.5 -57.5Q321 -76 321 -108Q321 -131 311.5 -149.5Q302 -168 288 -186L261 -225H185Z" glyph-name="commaaccent" horiz-adv-x="500" /><glyph d="M269 632Q291 627 305.5 611Q320 595 320 570Q320 541 299 523Q278 505 248 505Q219 505 198 523.5Q177 542 177 575Q177 598 186.5 617.5Q196 637 210 655L240 696H316Z" glyph-name="commaturn" horiz-adv-x="500" /><glyph d="M669 307Q669 238 644 180Q619 122 576 79.5Q533 37 475 13.5Q417 -10 352 -10Q287 -10 229 13.5Q171 37 128 79.5Q85 122 60 180Q35 238 35 307Q35 376 60 434Q85 492 128 534.5Q171 577 229 600.5Q287 624 352 624Q417 624 475 600.5Q533 577 576 534.5Q619 492 644 434Q669 376 669 307ZM622 307Q622 366 600.5 415.5Q579 465 542.5 501Q506 537 456.5 557.5Q407 578 352 578Q296 578 247 557.5Q198 537 161.5 501Q125 465 103.5 415.5Q82 366 82 307Q82 248 103.5 198.5Q125 149 161.5 113Q198 77 247 56.5Q296 36 352 36Q407 36 456.5 56.5Q506 77 542.5 113Q579 149 600.5 198.5Q622 248 622 307ZM167 309Q167 354 181.5 390.5Q196 427 222 453.5Q248 480 285 494Q322 508 367 508Q425 508 464 483V384Q423 414 376 414Q328 414 299 385.5Q270 357 270 309Q270 261 299 233Q328 205 376 205Q425 205 464 234V135Q425 110 367 110Q322 110 285 124Q248 138 222 164.5Q196 191 181.5 227.5Q167 264 167 309Z" glyph-name="copyright" horiz-adv-x="704" unicode="&#169;" /><glyph d="M341 37Q326 19 295.5 4.5Q265 -10 229 -10Q180 -10 142.5 8.5Q105 27 79 58.5Q53 90 39.5 132.5Q26 175 26 223Q26 271 39.5 313.5Q53 356 79 388Q105 420 142.5 438.5Q180 457 229 457Q265 457 295.5 442.5Q326 428 341 410V650H466V0H341ZM341 297Q330 320 307 334.5Q284 349 257 349Q206 349 178 313Q150 277 150 223Q150 169 178 133.5Q206 98 257 98Q285 98 307.5 112.5Q330 127 341 150Z" glyph-name="d" horiz-adv-x="519" unicode="d" /><glyph d="M27 558H126V650H211V558H310V475H211V276H126V475H27Z" glyph-name="dagger" horiz-adv-x="337" unicode="&#8224;" /><glyph d="M31 426H131V499H31V575H131V650H215V575H316V499H215V426H316V351H215V276H131V351H31Z" glyph-name="daggerdbl" horiz-adv-x="347" unicode="&#8225;" /><glyph d="M507 483 545 650H642L604 483ZM341 37Q326 19 295.5 4.5Q265 -10 229 -10Q180 -10 142.5 8.5Q105 27 79 58.5Q53 90 39.5 132.5Q26 175 26 223Q26 271 39.5 313.5Q53 356 79 388Q105 420 142.5 438.5Q180 457 229 457Q265 457 295.5 442.5Q326 428 341 410V650H466V0H341ZM341 297Q330 320 307 334.5Q284 349 257 349Q206 349 178 313Q150 277 150 223Q150 169 178 133.5Q206 98 257 98Q285 98 307.5 112.5Q330 127 341 150Z" glyph-name="dcaron" horiz-adv-x="519" unicode="&#271;" /><glyph d="M248 581H341V650H466V581H520V497H466V0H341V37Q326 19 295.5 4.5Q265 -10 229 -10Q180 -10 142.5 8.5Q105 27 79 58.5Q53 90 39.5 132.5Q26 175 26 223Q26 271 39.5 313.5Q53 356 79 388Q105 420 142.5 438.5Q180 457 229 457Q265 457 295.5 442.5Q326 428 341 410V497H248ZM341 297Q330 320 307 334.5Q284 349 257 349Q206 349 178 313Q150 277 150 223Q150 169 178 133.5Q206 98 257 98Q285 98 307.5 112.5Q330 127 341 150Z" glyph-name="dcroat" horiz-adv-x="519" unicode="&#273;" /><glyph d="M119 487Q119 462 136.5 444Q154 426 179 426Q203 426 220.5 444Q238 462 238 487Q238 513 220.5 531Q203 549 179 549Q154 549 136.5 531Q119 513 119 487ZM314 487Q314 459 303.5 434Q293 409 274.5 390.5Q256 372 231.5 361.5Q207 351 179 351Q151 351 126.5 361.5Q102 372 83.5 390.5Q65 409 54.5 434Q44 459 44 487Q44 515 54.5 540Q65 565 83.5 584Q102 603 126.5 613.5Q151 624 179 624Q207 624 231.5 613.5Q256 603 274.5 584Q293 565 303.5 540Q314 515 314 487Z" glyph-name="degree" horiz-adv-x="357" unicode="&#176;" /><glyph d="M101 570Q101 599 120.5 618Q140 637 168 637Q195 637 214.5 618Q234 599 234 570Q234 543 214.5 523.5Q195 504 168 504Q140 504 120.5 523.5Q101 543 101 570ZM265 570Q265 599 284.5 618Q304 637 331 637Q358 637 378 618Q398 599 398 570Q398 543 378 523.5Q358 504 331 504Q304 504 284.5 523.5Q265 543 265 570Z" glyph-name="dieresis" horiz-adv-x="500" unicode="&#168;" /><glyph d="M100 730Q100 759 119 778.5Q138 798 167 798Q195 798 214.5 778.5Q234 759 234 730Q234 703 214.5 683.5Q195 664 167 664Q138 664 119 683.5Q100 703 100 730ZM265 730Q265 759 284.5 778.5Q304 798 332 798Q360 798 380 778.5Q400 759 400 730Q400 703 380 683.5Q360 664 332 664Q304 664 284.5 683.5Q265 703 265 730Z" glyph-name="dieresis.cap" horiz-adv-x="500" /><glyph d="M64 347H496V251H64ZM210 472Q210 501 230.5 522Q251 543 280 543Q309 543 330.5 522Q352 501 352 472Q352 443 330.5 422.5Q309 402 280 402Q251 402 230.5 422.5Q210 443 210 472ZM210 126Q210 155 230.5 175.5Q251 196 280 196Q309 196 330.5 175.5Q352 155 352 126Q352 97 330.5 76Q309 55 280 55Q251 55 230.5 76Q210 97 210 126Z" glyph-name="divide" horiz-adv-x="560" unicode="&#247;" /><glyph d="M44 347H476V251H44ZM189 472Q189 501 210 522Q231 543 260 543Q289 543 310 522Q331 501 331 472Q331 443 310 422.5Q289 402 260 402Q231 402 210 422.5Q189 443 189 472ZM189 126Q189 155 210 175.5Q231 196 260 196Q289 196 310 175.5Q331 155 331 126Q331 97 310 76Q289 55 260 55Q231 55 210 76Q189 97 189 126Z" glyph-name="divide.lt" horiz-adv-x="520" /><glyph d="M187 6Q140 11 101.5 24Q63 37 37 54V175Q76 146 124.5 128Q173 110 224 110Q269 110 299 124Q329 138 329 173Q329 202 311 216Q293 230 260 243L174 271Q141 282 114 296.5Q87 311 68.5 331Q50 351 39.5 378Q29 405 29 441Q29 476 41 504Q53 532 74 553Q95 574 124 587Q153 600 187 606V698H294V606Q329 601 359 590.5Q389 580 415 564V444Q377 472 335 488.5Q293 505 242 505Q202 505 176 491Q150 477 150 447Q150 420 166.5 407Q183 394 214 383L306 352Q380 326 414.5 284.5Q449 243 449 178Q449 107 405.5 65.5Q362 24 294 10V-89H187Z" glyph-name="dollar" horiz-adv-x="481" unicode="$" /><glyph d="M208 6Q161 11 122.5 24Q84 37 58 54V175Q97 146 145.5 128Q194 110 245 110Q290 110 319.5 124Q349 138 349 173Q349 202 331 216Q313 230 281 243L194 271Q161 282 134.5 296.5Q108 311 89.5 331Q71 351 60.5 378Q50 405 50 441Q50 476 62 504Q74 532 95 553Q116 574 145 587Q174 600 208 606V698H314V606Q349 601 379.5 590.5Q410 580 436 564V444Q398 472 355.5 488.5Q313 505 262 505Q222 505 196 491Q170 477 170 447Q170 420 186.5 407Q203 394 234 383L326 352Q400 326 434.5 284.5Q469 243 469 178Q469 107 426 65.5Q383 24 314 10V-89H208Z" glyph-name="dollar.lt" horiz-adv-x="520" /><glyph d="M324 579Q324 547 301.5 527.5Q279 508 250 508Q221 508 198.5 527.5Q176 547 176 579Q176 610 198.5 630Q221 650 250 650Q279 650 301.5 630Q324 610 324 579Z" glyph-name="dotaccent" horiz-adv-x="500" unicode="&#729;" /><glyph d="M324 734Q324 703 301.5 683Q279 663 250 663Q221 663 198.5 683Q176 703 176 734Q176 766 198.5 785.5Q221 805 250 805Q279 805 301.5 785.5Q324 766 324 734Z" glyph-name="dotaccent.cap" horiz-adv-x="500" /><glyph d="M323 -109Q323 -140 301 -159.5Q279 -179 250 -179Q221 -179 199 -159.5Q177 -140 177 -109Q177 -78 199 -58.5Q221 -39 250 -39Q279 -39 301 -58.5Q323 -78 323 -109Z" glyph-name="dotbelow" horiz-adv-x="500" /><glyph d="M178 0H54V447H178Z" glyph-name="dotlessi" horiz-adv-x="232" unicode="&#305;" /><glyph d="M178 -18Q178 -93 139 -134Q100 -175 22 -175Q10 -175 -3.5 -174Q-17 -173 -26 -170V-71Q-21 -72 -13.5 -73Q-6 -74 1 -74Q28 -74 41 -60.5Q54 -47 54 -17V447H178Z" glyph-name="dotlessj" horiz-adv-x="230" unicode="&#567;" /><glyph d="M145 195Q153 140 188.5 116Q224 92 274 92Q311 92 340 101Q369 110 402 131V29Q374 9 337 -0.5Q300 -10 255 -10Q204 -10 162 6Q120 22 89.5 52Q59 82 42.5 124.5Q26 167 26 220Q26 272 41.5 316Q57 360 85 391Q113 422 151.5 439.5Q190 457 236 457Q285 457 321.5 441Q358 425 383 395.5Q408 366 420.5 325Q433 284 433 235V195ZM239 358Q208 358 184 338Q160 318 149 276H318Q316 312 296 335Q276 358 239 358Z" glyph-name="e" horiz-adv-x="460" unicode="e" /><glyph d="M180 508 259 650H382L292 508ZM145 195Q153 140 188.5 116Q224 92 274 92Q311 92 340 101Q369 110 402 131V29Q374 9 337 -0.5Q300 -10 255 -10Q204 -10 162 6Q120 22 89.5 52Q59 82 42.5 124.5Q26 167 26 220Q26 272 41.5 316Q57 360 85 391Q113 422 151.5 439.5Q190 457 236 457Q285 457 321.5 441Q358 425 383 395.5Q408 366 420.5 325Q433 284 433 235V195ZM239 358Q208 358 184 338Q160 318 149 276H318Q316 312 296 335Q276 358 239 358Z" glyph-name="eacute" horiz-adv-x="460" unicode="&#233;" /><glyph d="M145 195Q153 140 188.5 116Q224 92 274 92Q311 92 340 101Q369 110 402 131V29Q374 9 337 -0.5Q300 -10 255 -10Q204 -10 162 6Q120 22 89.5 52Q59 82 42.5 124.5Q26 167 26 220Q26 272 41.5 316Q57 360 85 391Q113 422 151.5 439.5Q190 457 236 457Q285 457 321.5 441Q358 425 383 395.5Q408 366 420.5 325Q433 284 433 235V195ZM239 358Q208 358 184 338Q160 318 149 276H318Q316 312 296 335Q276 358 239 358ZM243 492Q183 492 146.5 528Q110 564 110 634H198Q198 608 209 592Q220 576 243 576Q266 576 277 592Q288 608 288 634H376Q376 564 339.5 528Q303 492 243 492Z" glyph-name="ebreve" horiz-adv-x="460" unicode="&#277;" /><glyph d="M295 502H191L96 647H194L243 578L292 647H390ZM145 195Q153 140 188.5 116Q224 92 274 92Q311 92 340 101Q369 110 402 131V29Q374 9 337 -0.5Q300 -10 255 -10Q204 -10 162 6Q120 22 89.5 52Q59 82 42.5 124.5Q26 167 26 220Q26 272 41.5 316Q57 360 85 391Q113 422 151.5 439.5Q190 457 236 457Q285 457 321.5 441Q358 425 383 395.5Q408 366 420.5 325Q433 284 433 235V195ZM239 358Q208 358 184 338Q160 318 149 276H318Q316 312 296 335Q276 358 239 358Z" glyph-name="ecaron" horiz-adv-x="460" unicode="&#283;" /><glyph d="M390 502H292L243 571L194 502H96L191 647H295ZM145 195Q153 140 188.5 116Q224 92 274 92Q311 92 340 101Q369 110 402 131V29Q374 9 337 -0.5Q300 -10 255 -10Q204 -10 162 6Q120 22 89.5 52Q59 82 42.5 124.5Q26 167 26 220Q26 272 41.5 316Q57 360 85 391Q113 422 151.5 439.5Q190 457 236 457Q285 457 321.5 441Q358 425 383 395.5Q408 366 420.5 325Q433 284 433 235V195ZM239 358Q208 358 184 338Q160 318 149 276H318Q316 312 296 335Q276 358 239 358Z" glyph-name="ecircumflex" horiz-adv-x="460" unicode="&#234;" /><glyph d="M95 570Q95 599 114.5 618Q134 637 162 637Q189 637 208.5 618Q228 599 228 570Q228 543 208.5 523.5Q189 504 162 504Q134 504 114.5 523.5Q95 543 95 570ZM259 570Q259 599 278.5 618Q298 637 325 637Q352 637 372 618Q392 599 392 570Q392 543 372 523.5Q352 504 325 504Q298 504 278.5 523.5Q259 543 259 570ZM145 195Q153 140 188.5 116Q224 92 274 92Q311 92 340 101Q369 110 402 131V29Q374 9 337 -0.5Q300 -10 255 -10Q204 -10 162 6Q120 22 89.5 52Q59 82 42.5 124.5Q26 167 26 220Q26 272 41.5 316Q57 360 85 391Q113 422 151.5 439.5Q190 457 236 457Q285 457 321.5 441Q358 425 383 395.5Q408 366 420.5 325Q433 284 433 235V195ZM239 358Q208 358 184 338Q160 318 149 276H318Q316 312 296 335Q276 358 239 358Z" glyph-name="edieresis" horiz-adv-x="460" unicode="&#235;" /><glyph d="M145 195Q153 140 188.5 116Q224 92 274 92Q311 92 340 101Q369 110 402 131V29Q374 9 337 -0.5Q300 -10 255 -10Q204 -10 162 6Q120 22 89.5 52Q59 82 42.5 124.5Q26 167 26 220Q26 272 41.5 316Q57 360 85 391Q113 422 151.5 439.5Q190 457 236 457Q285 457 321.5 441Q358 425 383 395.5Q408 366 420.5 325Q433 284 433 235V195ZM239 358Q208 358 184 338Q160 318 149 276H318Q316 312 296 335Q276 358 239 358ZM317 579Q317 547 294.5 527.5Q272 508 243 508Q214 508 191.5 527.5Q169 547 169 579Q169 610 191.5 630Q214 650 243 650Q272 650 294.5 630Q317 610 317 579Z" glyph-name="edotaccent" horiz-adv-x="460" unicode="&#279;" /><glyph d="M145 195Q153 140 188.5 116Q224 92 274 92Q311 92 340 101Q369 110 402 131V29Q374 9 337 -0.5Q300 -10 255 -10Q204 -10 162 6Q120 22 89.5 52Q59 82 42.5 124.5Q26 167 26 220Q26 272 41.5 316Q57 360 85 391Q113 422 151.5 439.5Q190 457 236 457Q285 457 321.5 441Q358 425 383 395.5Q408 366 420.5 325Q433 284 433 235V195ZM239 358Q208 358 184 338Q160 318 149 276H318Q316 312 296 335Q276 358 239 358ZM191 508 102 650H225L304 508Z" glyph-name="egrave" horiz-adv-x="460" unicode="&#232;" /><glyph d="M250 91Q292 91 319.5 114Q347 137 347 178Q347 220 319.5 242.5Q292 265 250 265Q208 265 180 242.5Q152 220 152 178Q152 137 180 114Q208 91 250 91ZM250 369Q284 369 308.5 389.5Q333 410 333 446Q333 484 308.5 504.5Q284 525 250 525Q215 525 190.5 504.5Q166 484 166 446Q166 410 190.5 389.5Q215 369 250 369ZM250 -10Q204 -10 163.5 2Q123 14 93 37Q63 60 46 93Q29 126 29 168Q29 227 60.5 265Q92 303 136 315Q98 332 73 367Q48 402 48 451Q48 493 64.5 525.5Q81 558 108.5 579.5Q136 601 172.5 612.5Q209 624 250 624Q290 624 326.5 612.5Q363 601 390.5 579.5Q418 558 434.5 525.5Q451 493 451 451Q451 402 426 367Q401 332 363 315Q407 303 438.5 265Q470 227 470 168Q470 126 453 93Q436 60 406 37Q376 14 336 2Q296 -10 250 -10Z" glyph-name="eight" horiz-adv-x="499" unicode="8" /><glyph d="M261 91Q304 91 333 114Q362 137 362 178Q362 220 333 242.5Q304 265 261 265Q219 265 190.5 242.5Q162 220 162 178Q162 137 190.5 114Q219 91 261 91ZM261 369Q296 369 322 389.5Q348 410 348 446Q348 484 322 504.5Q296 525 261 525Q227 525 201.5 504.5Q176 484 176 446Q176 410 201.5 389.5Q227 369 261 369ZM261 -10Q215 -10 174.5 2Q134 14 104 37Q74 60 57 93Q40 126 40 168Q40 227 71.5 265Q103 303 147 315Q109 332 84 367Q59 402 59 451Q59 493 75.5 525.5Q92 558 120 579.5Q148 601 184.5 612.5Q221 624 261 624Q302 624 339 612.5Q376 601 404 579.5Q432 558 448.5 525.5Q465 493 465 451Q465 402 439.5 367Q414 332 376 315Q398 309 417.5 296Q437 283 452 264.5Q467 246 475.5 221.5Q484 197 484 168Q484 126 466.5 93Q449 60 419 37Q389 14 348 2Q307 -10 261 -10Z" glyph-name="eight.lt" horiz-adv-x="520" /><glyph d="M154 66Q171 66 183 76Q195 86 195 103Q195 119 183 128.5Q171 138 154 138Q136 138 124 128.5Q112 119 112 103Q112 86 124 76Q136 66 154 66ZM154 211Q170 211 180 220.5Q190 230 190 245Q190 260 180 269.5Q170 279 154 279Q137 279 126.5 269.5Q116 260 116 245Q116 230 126.5 220.5Q137 211 154 211ZM154 -5Q127 -5 103 2Q79 9 61.5 21.5Q44 34 33.5 52.5Q23 71 23 95Q23 125 38.5 145Q54 165 77 173Q57 184 45.5 203.5Q34 223 34 247Q34 271 43.5 290Q53 309 69.5 321.5Q86 334 108 340.5Q130 347 154 347Q177 347 198.5 340.5Q220 334 236.5 321.5Q253 309 263 290Q273 271 273 247Q273 223 261.5 203.5Q250 184 229 173Q252 165 267.5 145Q283 125 283 95Q283 71 273 52.5Q263 34 245.5 21.5Q228 9 204.5 2Q181 -5 154 -5Z" glyph-name="eightinferior" horiz-adv-x="306" unicode="&#8328;" /><glyph d="M27 73Q27 107 49.5 129.5Q72 152 105 152Q138 152 160.5 129.5Q183 107 183 73Q183 39 160.5 16Q138 -7 105 -7Q72 -7 49.5 16Q27 39 27 73ZM257 73Q257 107 279.5 129.5Q302 152 335 152Q368 152 390.5 129.5Q413 107 413 73Q413 39 390.5 16Q368 -7 335 -7Q302 -7 279.5 16Q257 39 257 73ZM487 73Q487 107 509.5 129.5Q532 152 565 152Q598 152 620.5 129.5Q643 107 643 73Q643 39 620.5 16Q598 -7 565 -7Q532 -7 509.5 16Q487 39 487 73Z" glyph-name="ellipsis" horiz-adv-x="670" unicode="&#8230;" /><glyph d="M145 195Q153 140 188.5 116Q224 92 274 92Q311 92 340 101Q369 110 402 131V29Q374 9 337 -0.5Q300 -10 255 -10Q204 -10 162 6Q120 22 89.5 52Q59 82 42.5 124.5Q26 167 26 220Q26 272 41.5 316Q57 360 85 391Q113 422 151.5 439.5Q190 457 236 457Q285 457 321.5 441Q358 425 383 395.5Q408 366 420.5 325Q433 284 433 235V195ZM239 358Q208 358 184 338Q160 318 149 276H318Q316 312 296 335Q276 358 239 358ZM125 607H362V516H125Z" glyph-name="emacron" horiz-adv-x="460" unicode="&#275;" /><glyph d="M38 307H804V217H38Z" glyph-name="emdash" horiz-adv-x="842" unicode="&#8212;" /><glyph d="M38 345H804V254H38Z" glyph-name="emdash.cap" horiz-adv-x="842" /><glyph d="M38 307H433V217H38Z" glyph-name="endash" horiz-adv-x="471" unicode="&#8211;" /><glyph d="M38 345H433V254H38Z" glyph-name="endash.cap" horiz-adv-x="471" /><glyph d="M332 266Q332 301 314 323Q296 345 259 345Q230 345 208 328.5Q186 312 178 283V0H54V447H178V406Q196 427 227.5 442Q259 457 298 457Q374 457 415 412Q456 367 456 292V-18Q456 -93 417 -134Q378 -175 300 -175Q289 -175 275.5 -174Q262 -173 253 -170V-71Q258 -72 265 -73Q272 -74 280 -74Q306 -74 319 -60.5Q332 -47 332 -17Z" glyph-name="eng" horiz-adv-x="505" unicode="&#331;" /><glyph d="M221 -111Q221 -85 231.5 -60.5Q242 -36 268 -10H255Q204 -10 162 6Q120 22 89.5 52Q59 82 42.5 124.5Q26 167 26 220Q26 272 41.5 316Q57 360 85 391Q113 422 151.5 439.5Q190 457 236 457Q285 457 321.5 441Q358 425 383 395.5Q408 366 420.5 325Q433 284 433 235V195H147Q154 140 189.5 116Q225 92 274 92Q311 92 340 101Q369 110 402 131V29Q391 22 380 15.5Q369 9 357 -1Q337 -18 322.5 -40Q308 -62 308 -82Q308 -109 329 -109Q338 -109 345.5 -105Q353 -101 365 -93V-167Q352 -176 337.5 -182Q323 -188 303 -188Q265 -188 243 -167Q221 -146 221 -111ZM239 358Q209 358 184.5 338.5Q160 319 150 276H318Q316 312 296 335Q276 358 239 358Z" glyph-name="eogonek" horiz-adv-x="460" unicode="&#281;" /><glyph d="M73 262H504V175H73ZM73 426H504V338H73Z" glyph-name="equal" horiz-adv-x="576" unicode="=" /><glyph d="M44 262H475V175H44ZM44 426H475V338H44Z" glyph-name="equal.lt" horiz-adv-x="520" /><glyph d="M113 545 176 565Q150 586 123.5 606.5Q97 627 70 646V650H227Q244 639 259 626.5Q274 614 288 601L373 629L397 567L341 549Q400 482 432 402.5Q464 323 464 234Q464 178 448 133Q432 88 403 56Q374 24 334 7Q294 -10 245 -10Q196 -10 156 7Q116 24 87 54.5Q58 85 42 127.5Q26 170 26 221Q26 272 42 314.5Q58 357 85.5 387.5Q113 418 151 434.5Q189 451 234 451Q258 451 275 444Q292 437 303 427H307Q298 444 279 466.5Q260 489 234 514L137 483ZM341 221Q341 277 316.5 312.5Q292 348 245 348Q198 348 173.5 312.5Q149 277 149 221Q149 165 173.5 130Q198 95 245 95Q292 95 316.5 130Q341 165 341 221Z" glyph-name="eth" horiz-adv-x="489" unicode="&#240;" /><glyph d="M30 70Q30 103 52.5 125.5Q75 148 108 148Q141 148 164 125.5Q187 103 187 70Q187 38 164 15.5Q141 -7 108 -7Q75 -7 52.5 15.5Q30 38 30 70ZM33 614H184L154 198H63Z" glyph-name="exclam" horiz-adv-x="217" unicode="!" /><glyph d="M30 448Q30 480 52.5 502.5Q75 525 108 525Q141 525 164 502.5Q187 480 187 448Q187 415 164 392.5Q141 370 108 370Q75 370 52.5 392.5Q30 415 30 448ZM63 320H154L184 -96H33Z" glyph-name="exclamdown" horiz-adv-x="224" unicode="&#161;" /><glyph d="M30 544Q30 576 52.5 598.5Q75 621 108 621Q141 621 164 598.5Q187 576 187 544Q187 511 164 488.5Q141 466 108 466Q75 466 52.5 488.5Q30 511 30 544ZM63 416H154L184 0H33Z" glyph-name="exclamdown.cap" horiz-adv-x="217" /><glyph d="M316 542Q306 549 294.5 551.5Q283 554 272 554Q243 554 227 538.5Q211 523 211 492V447H304V347H211V0H89V347H16V447H89V500Q89 576 132 617.5Q175 659 247 659Q289 659 316 647Z" glyph-name="f" horiz-adv-x="326" unicode="f" /><glyph d="M607 542Q597 549 586 551.5Q575 554 563 554Q535 554 518.5 538.5Q502 523 502 492V447H595V347H502V0H380V347H211V0H89V347H16V447H89V494Q89 570 132 611.5Q175 653 247 653Q289 653 316 641V536Q306 543 294.5 545.5Q283 548 272 548Q244 548 227.5 533Q211 518 211 488V447H380V500Q380 576 423.5 617.5Q467 659 538 659Q561 659 577 656Q593 653 607 647Z" glyph-name="f_f" horiz-adv-x="617" unicode="&#64256;" /><glyph d="M504 0H380V447H504ZM515 576Q515 544 493 524.5Q471 505 442 505Q412 505 390 524.5Q368 544 368 576Q368 607 390 627Q412 647 442 647Q471 647 493 627Q515 607 515 576ZM316 542Q306 549 294.5 551.5Q283 554 272 554Q243 554 227 538.5Q211 523 211 492V447H304V347H211V0H89V347H16V447H89V500Q89 576 132 617.5Q175 659 247 659Q289 659 316 647Z" glyph-name="fi" horiz-adv-x="558" unicode="&#64257;" /><glyph d="M206 397Q253 397 293.5 383.5Q334 370 364 344Q394 318 411.5 280.5Q429 243 429 194Q429 146 411.5 108Q394 70 362.5 44Q331 18 288.5 4Q246 -10 197 -10Q143 -10 102.5 3.5Q62 17 31 40V164Q63 133 103 115Q143 97 188 97Q213 97 235.5 103Q258 109 274.5 121Q291 133 300.5 151.5Q310 170 310 194Q310 242 274.5 267Q239 292 185 292Q147 292 115 285.5Q83 279 51 266V614H397V502H153V392Q164 395 177.5 396Q191 397 206 397Z" glyph-name="five" horiz-adv-x="456" unicode="5" /><glyph d="M238 397Q286 397 328 383.5Q370 370 401 344Q432 318 450 280.5Q468 243 468 194Q468 146 450 108Q432 70 399.5 44Q367 18 323.5 4Q280 -10 229 -10Q173 -10 131.5 3.5Q90 17 58 40V164Q91 133 132.5 115Q174 97 220 97Q246 97 269.5 103Q293 109 310.5 121Q328 133 338.5 151.5Q349 170 349 194Q349 218 338.5 236.5Q328 255 310 267Q292 279 268 285.5Q244 292 217 292Q178 292 144.5 285.5Q111 279 79 266V614H435V502H180V391Q191 394 207 395.5Q223 397 238 397Z" glyph-name="five.lt" horiz-adv-x="520" /><glyph d="M133 496Q186 496 221 466Q256 436 256 382Q256 329 218.5 298Q181 267 124 267Q91 267 66.5 275Q42 283 24 295V378Q41 362 65.5 352Q90 342 116 342Q139 342 154.5 351.5Q170 361 170 382Q170 403 154 413Q138 423 112 423Q92 423 71.5 419.5Q51 416 35 410V614H238V534H107V493Q117 496 133 496Z" glyph-name="fivesuperior" horiz-adv-x="279" unicode="&#8309;" /><glyph d="M504 0H380V650H504ZM316 542Q306 549 294.5 551.5Q283 554 272 554Q243 554 227 538.5Q211 523 211 492V447H304V347H211V0H89V347H16V447H89V500Q89 576 132 617.5Q175 659 247 659Q289 659 316 647Z" glyph-name="fl" horiz-adv-x="558" unicode="&#64258;" /><glyph d="M60 353H143L163 465Q177 543 222 583.5Q267 624 342 624Q362 624 379 620.5Q396 617 410 612V507Q387 519 356 519Q298 519 286 457L267 353H353V253H250L203 -14Q196 -52 184 -81.5Q172 -111 152.5 -131Q133 -151 105 -162Q77 -173 38 -173Q16 -173 -0.5 -169.5Q-17 -166 -31 -161V-62Q-20 -67 -4 -70Q12 -73 23 -73Q51 -73 62.5 -57.5Q74 -42 79 -12L125 253H60Z" glyph-name="florin" horiz-adv-x="422" unicode="&#402;" /><glyph d="M130 353H213L233 465Q247 543 292.5 583.5Q338 624 412 624Q432 624 449 620.5Q466 617 480 612V507Q457 519 426 519Q368 519 356 457L337 353H423V253H320L273 -14Q260 -89 223 -131Q186 -173 108 -173Q86 -173 69.5 -169.5Q53 -166 39 -161V-62Q50 -67 66 -70Q82 -73 93 -73Q121 -73 132.5 -57.5Q144 -42 149 -12L195 253H130Z" glyph-name="florin.lt" horiz-adv-x="520" /><glyph d="M187 226H313V355H427V226H509V121H427V0H313V121H14V125L236 614H363Z" glyph-name="four" horiz-adv-x="528" unicode="4" /><glyph d="M181 224H304V355H417V224H499V119H417V0H304V119H17V123L222 614H343Z" glyph-name="four.lt" horiz-adv-x="520" /><glyph d="M139 137H191V194H270V137H312V62H270V0H191V62H24V88L142 341H232Z" glyph-name="fourinferior" horiz-adv-x="335" unicode="&#8324;" /><glyph d="M-33 0H-120L249 614H336Z" glyph-name="fraction" horiz-adv-x="216" unicode="&#8260;" /><glyph d="M-30 0H-120L311 614H401Z" glyph-name="fraction.alt" horiz-adv-x="281" /><glyph d="M337 51Q322 34 294 20Q266 6 228 6Q180 6 142 24Q104 42 78.5 73Q53 104 39.5 145Q26 186 26 231Q26 277 39.5 318Q53 359 78.5 390Q104 421 142 439Q180 457 228 457Q266 457 294 443Q322 429 337 412V447H461V49Q461 -13 440 -55.5Q419 -98 385 -124.5Q351 -151 307.5 -163Q264 -175 218 -175Q172 -175 131.5 -164.5Q91 -154 64 -137V-15Q99 -45 135.5 -57.5Q172 -70 216 -70Q241 -70 263 -63.5Q285 -57 301.5 -44Q318 -31 327.5 -10.5Q337 10 337 37ZM337 307Q326 326 304 339.5Q282 353 254 353Q204 353 177 319Q150 285 150 231Q150 178 177 144Q204 110 254 110Q282 110 304 123Q326 136 337 156Z" glyph-name="g" horiz-adv-x="515" unicode="g" /><glyph d="M337 51Q322 34 294 20Q266 6 228 6Q180 6 142 24Q104 42 78.5 73Q53 104 39.5 145Q26 186 26 231Q26 277 39.5 318Q53 359 78.5 390Q104 421 142 439Q180 457 228 457Q266 457 294 443Q322 429 337 412V447H461V49Q461 -13 440 -55.5Q419 -98 385 -124.5Q351 -151 307.5 -163Q264 -175 218 -175Q172 -175 131.5 -164.5Q91 -154 64 -137V-15Q99 -45 135.5 -57.5Q172 -70 216 -70Q241 -70 263 -63.5Q285 -57 301.5 -44Q318 -31 327.5 -10.5Q337 10 337 37ZM337 307Q326 326 304 339.5Q282 353 254 353Q204 353 177 319Q150 285 150 231Q150 178 177 144Q204 110 254 110Q282 110 304 123Q326 136 337 156ZM272 492Q212 492 175.5 528Q139 564 139 634H227Q227 608 238 592Q249 576 272 576Q295 576 306 592Q317 608 317 634H405Q405 564 368.5 528Q332 492 272 492Z" glyph-name="gbreve" horiz-adv-x="515" unicode="&#287;" /><glyph d="M419 502H321L272 571L223 502H125L220 647H324ZM337 51Q322 34 294 20Q266 6 228 6Q180 6 142 24Q104 42 78.5 73Q53 104 39.5 145Q26 186 26 231Q26 277 39.5 318Q53 359 78.5 390Q104 421 142 439Q180 457 228 457Q266 457 294 443Q322 429 337 412V447H461V49Q461 -13 440 -55.5Q419 -98 385 -124.5Q351 -151 307.5 -163Q264 -175 218 -175Q172 -175 131.5 -164.5Q91 -154 64 -137V-15Q99 -45 135.5 -57.5Q172 -70 216 -70Q241 -70 263 -63.5Q285 -57 301.5 -44Q318 -31 327.5 -10.5Q337 10 337 37ZM337 307Q326 326 304 339.5Q282 353 254 353Q204 353 177 319Q150 285 150 231Q150 178 177 144Q204 110 254 110Q282 110 304 123Q326 136 337 156Z" glyph-name="gcircumflex" horiz-adv-x="515" unicode="&#285;" /><glyph d="M291 632Q313 627 327.5 611Q342 595 342 570Q342 541 321 523Q300 505 270 505Q241 505 220 523.5Q199 542 199 575Q199 598 208.5 617.5Q218 637 232 655L262 696H338ZM337 51Q322 34 294 20Q266 6 228 6Q180 6 142 24Q104 42 78.5 73Q53 104 39.5 145Q26 186 26 231Q26 277 39.5 318Q53 359 78.5 390Q104 421 142 439Q180 457 228 457Q266 457 294 443Q322 429 337 412V447H461V49Q461 -13 440 -55.5Q419 -98 385 -124.5Q351 -151 307.5 -163Q264 -175 218 -175Q172 -175 131.5 -164.5Q91 -154 64 -137V-15Q99 -45 135.5 -57.5Q172 -70 216 -70Q241 -70 263 -63.5Q285 -57 301.5 -44Q318 -31 327.5 -10.5Q337 10 337 37ZM337 307Q326 326 304 339.5Q282 353 254 353Q204 353 177 319Q150 285 150 231Q150 178 177 144Q204 110 254 110Q282 110 304 123Q326 136 337 156Z" glyph-name="gcommaaccent" horiz-adv-x="515" unicode="&#291;" /><glyph d="M337 51Q322 34 294 20Q266 6 228 6Q180 6 142 24Q104 42 78.5 73Q53 104 39.5 145Q26 186 26 231Q26 277 39.5 318Q53 359 78.5 390Q104 421 142 439Q180 457 228 457Q266 457 294 443Q322 429 337 412V447H461V49Q461 -13 440 -55.5Q419 -98 385 -124.5Q351 -151 307.5 -163Q264 -175 218 -175Q172 -175 131.5 -164.5Q91 -154 64 -137V-15Q99 -45 135.5 -57.5Q172 -70 216 -70Q241 -70 263 -63.5Q285 -57 301.5 -44Q318 -31 327.5 -10.5Q337 10 337 37ZM337 307Q326 326 304 339.5Q282 353 254 353Q204 353 177 319Q150 285 150 231Q150 178 177 144Q204 110 254 110Q282 110 304 123Q326 136 337 156ZM346 579Q346 547 323.5 527.5Q301 508 272 508Q243 508 220.5 527.5Q198 547 198 579Q198 610 220.5 630Q243 650 272 650Q301 650 323.5 630Q346 610 346 579Z" glyph-name="gdotaccent" horiz-adv-x="515" unicode="&#289;" /><glyph d="M54 497Q54 575 97 617Q140 659 212 659Q235 659 251 656Q267 653 281 647V542Q271 549 259.5 551.5Q248 554 237 554Q209 554 192.5 538.5Q176 523 176 492V447H502V443L398 234Q439 209 468 165Q497 121 497 60Q497 3 476 -41Q455 -85 417 -115Q379 -145 327 -160Q275 -175 212 -175V-71Q287 -71 333.5 -39Q380 -7 380 61Q380 108 347.5 138.5Q315 169 261 188V192L335 347H176V0H54Z" glyph-name="germandbls" horiz-adv-x="526" unicode="&#223;" /><glyph d="M238 508 149 650H272L351 508Z" glyph-name="grave" horiz-adv-x="500" unicode="`" /><glyph d="M235 669 142 791H277L357 669Z" glyph-name="grave.cap" horiz-adv-x="500" /><glyph d="M386 236 57 83V192L297 297L57 403V511L386 359Z" glyph-name="greater" horiz-adv-x="441" unicode="&gt;" /><glyph d="M424 236 95 83V192L335 297L95 403V511L424 359Z" glyph-name="greater.lt" horiz-adv-x="520" /><glyph d="M389 303 60 180V282L293 362L60 442V545L389 420ZM389 60H60V153H389Z" glyph-name="greaterequal" horiz-adv-x="448" unicode="&#8805;" /><glyph d="M424 303 95 180V282L329 362L95 442V545L424 420ZM424 60H95V153H424Z" glyph-name="greaterequal.lt" horiz-adv-x="520" /><glyph d="M117 61 25 222 117 383H223L131 222L223 61ZM289 61 197 222 289 383H395L303 222L395 61Z" glyph-name="guillemotleft" horiz-adv-x="420" unicode="&#171;" /><glyph d="M117 141 25 302 117 463H223L131 302L223 141ZM289 141 197 302 289 463H395L303 302L395 141Z" glyph-name="guillemotleft.cap" horiz-adv-x="420" /><glyph d="M197 61 289 222 197 383H303L395 222L303 61ZM25 61 117 222 25 383H131L223 222L131 61Z" glyph-name="guillemotright" horiz-adv-x="420" unicode="&#187;" /><glyph d="M197 141 289 302 197 463H303L395 302L303 141ZM25 141 117 302 25 463H131L223 302L131 141Z" glyph-name="guillemotright.cap" horiz-adv-x="420" /><glyph d="M117 61 25 222 117 383H229L137 222L229 61Z" glyph-name="guilsinglleft" horiz-adv-x="254" unicode="&#8249;" /><glyph d="M117 141 25 302 117 463H229L137 302L229 141Z" glyph-name="guilsinglleft.cap" horiz-adv-x="254" /><glyph d="M25 61 117 222 25 383H137L229 222L137 61Z" glyph-name="guilsinglright" horiz-adv-x="254" unicode="&#8250;" /><glyph d="M25 141 117 302 25 463H137L229 302L137 141Z" glyph-name="guilsinglright.cap" horiz-adv-x="254" /><glyph d="M54 650H178V406Q196 427 227.5 442Q259 457 298 457Q374 457 415 412Q456 367 456 292V0H332V266Q332 301 314 323Q296 345 259 345Q230 345 208 328.5Q186 312 178 283V0H54Z" glyph-name="h" horiz-adv-x="505" unicode="h" /><glyph d="M-1 581H54V650H178V581H271V497H178V406Q196 427 227.5 442Q259 457 298 457Q374 457 415 412Q456 367 456 292V0H332V266Q332 301 314 323Q296 345 259 345Q230 345 208 328.5Q186 312 178 283V0H54V497H-1Z" glyph-name="hbar" horiz-adv-x="505" unicode="&#295;" /><glyph d="M54 650H178V406Q196 427 227.5 442Q259 457 298 457Q374 457 415 412Q456 367 456 292V0H332V266Q332 301 314 323Q296 345 259 345Q230 345 208 328.5Q186 312 178 283V0H54ZM405 686H300L253 740L206 686H101L201 813H305Z" glyph-name="hcircumflex" horiz-adv-x="505" unicode="&#293;" /><glyph d="M96 508 163 650H262L194 508ZM237 508 304 650H403L335 508Z" glyph-name="hungarumlaut" horiz-adv-x="500" unicode="&#733;" /><glyph d="M91 669 157 791H262L193 669ZM238 669 305 791H409L341 669Z" glyph-name="hungarumlaut.cap" horiz-adv-x="500" /><glyph d="M38 316H279V208H38Z" glyph-name="hyphen" horiz-adv-x="317" unicode="-" /><glyph d="M38 354H279V245H38Z" glyph-name="hyphen.cap" horiz-adv-x="317" /><glyph d="M178 0H54V447H178ZM189 576Q189 544 167 524.5Q145 505 116 505Q86 505 64 524.5Q42 544 42 576Q42 607 64 627Q86 647 116 647Q145 647 167 627Q189 607 189 576Z" glyph-name="i" horiz-adv-x="232" unicode="i" /><glyph d="M56 508 135 650H258L168 508ZM178 0H54V447H178Z" glyph-name="iacute" horiz-adv-x="232" unicode="&#237;" /><glyph d="M116 492Q63 492 30 528Q-3 564 -3 634H80Q80 608 88 592Q96 576 116 576Q136 576 144 592Q152 608 152 634H235Q235 564 202 528Q169 492 116 492ZM178 0H54V447H178Z" glyph-name="ibreve" horiz-adv-x="232" unicode="&#301;" /><glyph d="M245 502H150L116 572L81 502H-14L64 647H168ZM178 0H54V447H178Z" glyph-name="icircumflex" horiz-adv-x="232" unicode="&#238;" /><glyph d="M-27 570Q-27 599 -7.5 618Q12 637 40 637Q67 637 86.5 618Q106 599 106 570Q106 543 86.5 523.5Q67 504 40 504Q12 504 -7.5 523.5Q-27 543 -27 570ZM127 570Q127 599 146 618Q165 637 193 637Q220 637 239.5 618Q259 599 259 570Q259 543 239.5 523.5Q220 504 193 504Q165 504 146 523.5Q127 543 127 570ZM178 0H54V447H178Z" glyph-name="idieresis" horiz-adv-x="232" unicode="&#239;" /><glyph d="M178 0H54V447H178ZM191 579Q191 547 168.5 527.5Q146 508 117 508Q88 508 65.5 527.5Q43 547 43 579Q43 610 65.5 630Q88 650 117 650Q146 650 168.5 630Q191 610 191 579Z" glyph-name="idotaccent" horiz-adv-x="232" /><glyph d="M178 0H54V447H178ZM65 508 -24 650H99L178 508Z" glyph-name="igrave" horiz-adv-x="232" unicode="&#236;" /><glyph d="M178 0H54V447H178ZM189 576Q189 544 167 524.5Q145 505 116 505Q86 505 64 524.5Q42 544 42 576Q42 607 64 627Q86 647 116 647Q145 647 167 627Q189 607 189 576ZM410 -18Q410 -93 371 -134Q332 -175 254 -175Q242 -175 228.5 -174Q215 -173 206 -170V-71Q211 -72 218.5 -73Q226 -74 233 -74Q260 -74 273 -60.5Q286 -47 286 -17V447H410ZM421 576Q421 544 399 524.5Q377 505 348 505Q318 505 296 524.5Q274 544 274 576Q274 607 296 627Q318 647 348 647Q377 647 399 627Q421 607 421 576Z" glyph-name="ij" horiz-adv-x="462" unicode="&#307;" /><glyph d="M178 0H54V447H178ZM12.1847 607H220.5723V516H12.1847Z" glyph-name="imacron" horiz-adv-x="232" unicode="&#299;" /><glyph d="M178 0Q163 -21 153.5 -34Q144 -47 138.5 -56.5Q133 -66 130.5 -73Q128 -80 128 -88Q128 -97 133.5 -103Q139 -109 148 -109Q157 -109 165 -105Q173 -101 185 -93V-167Q172 -176 157 -182Q142 -188 123 -188Q84 -188 62.5 -167.5Q41 -147 41 -113Q41 -82 57 -55.5Q73 -29 95 0H54V447H178ZM189 576Q189 544 167 524.5Q145 505 116 505Q86 505 64 524.5Q42 544 42 576Q42 607 64 627Q86 647 116 647Q145 647 167 627Q189 607 189 576Z" glyph-name="iogonek" horiz-adv-x="232" unicode="&#303;" /><glyph d="M240 643Q240 613 235.5 588Q231 563 222 544Q213 525 198.5 514.5Q184 504 165 504Q150 504 139 510.5Q128 517 118.5 525.5Q109 534 100.5 540.5Q92 547 83 547Q59 547 58 508H-9Q-9 538 -4.5 563Q0 588 9 607Q18 626 32 636.5Q46 647 65 647Q80 647 91 640.5Q102 634 111.5 625.5Q121 617 129.5 610.5Q138 604 147 604Q170 604 172 643ZM178 0H54V447H178Z" glyph-name="itilde" horiz-adv-x="232" unicode="&#297;" /><glyph d="M178 -18Q178 -93 139 -134Q100 -175 22 -175Q10 -175 -3.5 -174Q-17 -173 -26 -170V-71Q-21 -72 -13.5 -73Q-6 -74 1 -74Q28 -74 41 -60.5Q54 -47 54 -17V447H178ZM189 576Q189 544 167 524.5Q145 505 116 505Q86 505 64 524.5Q42 544 42 576Q42 607 64 627Q86 647 116 647Q145 647 167 627Q189 607 189 576Z" glyph-name="j" horiz-adv-x="230" unicode="j" /><glyph d="M245 502H150L116 572L81 502H-14L64 647H168ZM178 -18Q178 -93 139 -134Q100 -175 22 -175Q10 -175 -3.5 -174Q-17 -173 -26 -170V-71Q-21 -72 -13.5 -73Q-6 -74 1 -74Q28 -74 41 -60.5Q54 -47 54 -17V447H178Z" glyph-name="jcircumflex" horiz-adv-x="230" unicode="&#309;" /><glyph d="M484 0H339L178 206V0H54V650H178V270L331 447H480L294 242Z" glyph-name="k" horiz-adv-x="484" unicode="k" /><glyph d="M225 -163Q204 -159 189.5 -143.5Q175 -128 175 -103Q175 -75 195.5 -57Q216 -39 246 -39Q274 -39 294.5 -57.5Q315 -76 315 -108Q315 -131 305.5 -149.5Q296 -168 282 -186L255 -225H179ZM484 0H339L178 206V0H54V650H178V270L331 447H480L294 242Z" glyph-name="kcommaaccent" horiz-adv-x="484" unicode="&#311;" /><glyph d="M484 0H339L178 206V0H54V447H178V270L331 447H480L294 242Z" glyph-name="kgreenlandic" horiz-adv-x="484" unicode="&#312;" /><glyph d="M178 0H54V650H178Z" glyph-name="l" horiz-adv-x="232" unicode="l" /><glyph d="M54 694 134 816H269L176 694ZM178 0H54V650H178Z" glyph-name="lacute" horiz-adv-x="232" unicode="&#314;" /><glyph d="M219 483 257 650H354L316 483ZM178 0H54V650H178Z" glyph-name="lcaron" horiz-adv-x="232" unicode="&#318;" /><glyph d="M96 -163Q75 -159 60.5 -143.5Q46 -128 46 -103Q46 -75 66.5 -57Q87 -39 117 -39Q145 -39 165.5 -57.5Q186 -76 186 -108Q186 -131 176.5 -149.5Q167 -168 153 -186L126 -225H50ZM178 0H54V650H178Z" glyph-name="lcommaaccent" horiz-adv-x="232" unicode="&#316;" /><glyph d="M178 0H54V650H178ZM384 329Q384 297 361.5 277.5Q339 258 310 258Q281 258 258.5 277.5Q236 297 236 329Q236 360 258.5 380Q281 400 310 400Q339 400 361.5 380Q384 360 384 329Z" glyph-name="ldot" horiz-adv-x="390" unicode="&#320;" /><glyph d="M55 359 383 511V403L143 297L383 192V83L55 236Z" glyph-name="less" horiz-adv-x="441" unicode="&lt;" /><glyph d="M96 359 424 511V403L184 297L424 192V83L96 236Z" glyph-name="less.lt" horiz-adv-x="520" /><glyph d="M60 420 389 545V442L155 362L389 282V180L60 303ZM60 153H389V60H60Z" glyph-name="lessequal" horiz-adv-x="448" unicode="&#8804;" /><glyph d="M95 420 424 545V442L190 362L424 282V180L95 303ZM95 153H424V60H95Z" glyph-name="lessequal.lt" horiz-adv-x="520" /><glyph d="M199 425 253 456V358L199 326V0H75V267L25 237V336L75 365V650H199Z" glyph-name="lslash" horiz-adv-x="274" unicode="&#322;" /><glyph d="M411 400Q433 424 465.5 440.5Q498 457 546 457Q615 457 654 412.5Q693 368 693 292V0H569V266Q569 302 553 324Q537 346 505 346Q481 346 461.5 331.5Q442 317 436 288V0H311V266Q311 302 295.5 324Q280 346 248 346Q224 346 204 331.5Q184 317 178 288V0H54V447H178V410Q195 431 224 444Q253 457 291 457Q331 457 361.5 441Q392 425 411 400Z" glyph-name="m" horiz-adv-x="742" unicode="m" /><glyph d="M131 607H368V516H131Z" glyph-name="macron" horiz-adv-x="500" unicode="&#175;" /><glyph d="M128 760H371V669H128Z" glyph-name="macron.cap" horiz-adv-x="500" /><glyph d="M64 347H496V251H64Z" glyph-name="minus" horiz-adv-x="560" unicode="&#8722;" /><glyph d="M44 347H476V251H44Z" glyph-name="minus.lt" horiz-adv-x="520" /><glyph d="M60 418 126 484 247 363 368 484 435 418 313 298 435 177 368 110 247 231 126 110 60 177 182 298Z" glyph-name="multiply" horiz-adv-x="495" unicode="&#215;" /><glyph d="M72 418 139 484 259 363 380 484 447 418 326 298 447 177 380 110 259 231 139 110 72 177 194 298Z" glyph-name="multiply.lt" horiz-adv-x="520" /><glyph d="M54 447H178V406Q196 427 227.5 442Q259 457 298 457Q374 457 415 412Q456 367 456 292V0H332V266Q332 301 314 323Q296 345 259 345Q230 345 208 328.5Q186 312 178 283V0H54Z" glyph-name="n" horiz-adv-x="505" unicode="n" /><glyph d="M200 508 279 650H402L312 508ZM54 447H178V406Q196 427 227.5 442Q259 457 298 457Q374 457 415 412Q456 367 456 292V0H332V266Q332 301 314 323Q296 345 259 345Q230 345 208 328.5Q186 312 178 283V0H54Z" glyph-name="nacute" horiz-adv-x="505" unicode="&#324;" /><glyph d="M313 502H209L114 647H212L261 578L310 647H408ZM54 447H178V406Q196 427 227.5 442Q259 457 298 457Q374 457 415 412Q456 367 456 292V0H332V266Q332 301 314 323Q296 345 259 345Q230 345 208 328.5Q186 312 178 283V0H54Z" glyph-name="ncaron" horiz-adv-x="505" unicode="&#328;" /><glyph d="M239 -163Q218 -159 203.5 -143.5Q189 -128 189 -103Q189 -75 209.5 -57Q230 -39 260 -39Q288 -39 308.5 -57.5Q329 -76 329 -108Q329 -131 319.5 -149.5Q310 -168 296 -186L269 -225H193ZM54 447H178V406Q196 427 227.5 442Q259 457 298 457Q374 457 415 412Q456 367 456 292V0H332V266Q332 301 314 323Q296 345 259 345Q230 345 208 328.5Q186 312 178 283V0H54Z" glyph-name="ncommaaccent" horiz-adv-x="505" unicode="&#326;" /><glyph d="M247 624Q295 624 335.5 607.5Q376 591 405.5 561.5Q435 532 451.5 492Q468 452 468 405Q468 364 454.5 321.5Q441 279 407 221L279 0H145L259 199Q254 197 244.5 195.5Q235 194 227 194Q182 195 145 212Q108 229 81.5 257.5Q55 286 40.5 323.5Q26 361 26 405Q26 452 42.5 492Q59 532 88 561.5Q117 591 158 607.5Q199 624 247 624ZM141 405Q141 382 149 362.5Q157 343 171 328.5Q185 314 204.5 305.5Q224 297 247 297Q270 297 289 305.5Q308 314 322 328.5Q336 343 344 362.5Q352 382 352 405Q352 451 322.5 482Q293 513 247 513Q200 513 170.5 482Q141 451 141 405Z" glyph-name="nine" horiz-adv-x="495" unicode="9" /><glyph d="M260 624Q308 624 348.5 607.5Q389 591 418.5 561.5Q448 532 464.5 492Q481 452 481 405Q481 364 467.5 321.5Q454 279 420 221L292 0H158L272 199Q267 197 257.5 195.5Q248 194 240 194Q195 195 158 212Q121 229 94.5 257.5Q68 286 53.5 323.5Q39 361 39 405Q39 452 55.5 492Q72 532 101 561.5Q130 591 171 607.5Q212 624 260 624ZM154 405Q154 382 162 362.5Q170 343 184 328.5Q198 314 217.5 305.5Q237 297 260 297Q283 297 302 305.5Q321 314 335 328.5Q349 343 357 362.5Q365 382 365 405Q365 451 335.5 482Q306 513 260 513Q213 513 183.5 482Q154 451 154 405Z" glyph-name="nine.lt" horiz-adv-x="520" /><glyph glyph-name="nonmarkingreturn" horiz-adv-x="212" unicode="" /><glyph d="M73 425H330L393 519H476L413 425H504V338H355L303 261H504V175H246L183 81H101L163 175H73V261H221L272 338H73Z" glyph-name="notequal" horiz-adv-x="576" unicode="&#8800;" /><glyph d="M44 425H301L364 519H447L384 425H475V338H326L274 261H475V175H217L154 81H72L134 175H44V261H192L243 338H44Z" glyph-name="notequal.lt" horiz-adv-x="520" /><glyph d="M54 447H178V406Q196 427 227.5 442Q259 457 298 457Q374 457 415 412Q456 367 456 292V0H332V266Q332 301 314 323Q296 345 259 345Q230 345 208 328.5Q186 312 178 283V0H54ZM400 643Q400 613 395 588Q390 563 379.5 544Q369 525 352.5 514.5Q336 504 314 504Q297 504 284 511Q271 518 259.5 527Q248 536 237 543Q226 550 215 550Q201 550 193.5 539Q186 528 185 508H114Q114 538 119 563Q124 588 134.5 607Q145 626 161 636.5Q177 647 200 647Q216 647 229.5 640Q243 633 255 624Q267 615 277.5 608Q288 601 299 601Q313 601 320.5 612Q328 623 329 643Z" glyph-name="ntilde" horiz-adv-x="505" unicode="&#241;" /><glyph d="M534 159H430L392 0H293L331 159H213L175 0H78L116 159H20L39 245H136L166 369H64L82 455H186L224 614H322L283 455H401L440 614H538L500 455H596L577 369H480L450 245H552ZM233 245H351L381 369H263Z" glyph-name="numbersign" horiz-adv-x="616" unicode="#" /><glyph d="M464 223Q464 172 448 129Q432 86 403 55Q374 24 334 7Q294 -10 245 -10Q196 -10 156 7Q116 24 87 55Q58 86 42 129Q26 172 26 223Q26 275 42 318Q58 361 87 392Q116 423 156 440Q196 457 245 457Q294 457 334 440Q374 423 403 392Q432 361 448 318Q464 275 464 223ZM341 223Q341 280 316.5 316Q292 352 245 352Q198 352 173.5 316Q149 280 149 223Q149 167 173.5 131Q198 95 245 95Q292 95 316.5 131Q341 167 341 223Z" glyph-name="o" horiz-adv-x="489" unicode="o" /><glyph d="M183 508 262 650H385L295 508ZM464 223Q464 172 448 129Q432 86 403 55Q374 24 334 7Q294 -10 245 -10Q196 -10 156 7Q116 24 87 55Q58 86 42 129Q26 172 26 223Q26 275 42 318Q58 361 87 392Q116 423 156 440Q196 457 245 457Q294 457 334 440Q374 423 403 392Q432 361 448 318Q464 275 464 223ZM341 223Q341 280 316.5 316Q292 352 245 352Q198 352 173.5 316Q149 280 149 223Q149 167 173.5 131Q198 95 245 95Q292 95 316.5 131Q341 167 341 223Z" glyph-name="oacute" horiz-adv-x="489" unicode="&#243;" /><glyph d="M464 223Q464 172 448 129Q432 86 403 55Q374 24 334 7Q294 -10 245 -10Q196 -10 156 7Q116 24 87 55Q58 86 42 129Q26 172 26 223Q26 275 42 318Q58 361 87 392Q116 423 156 440Q196 457 245 457Q294 457 334 440Q374 423 403 392Q432 361 448 318Q464 275 464 223ZM341 223Q341 280 316.5 316Q292 352 245 352Q198 352 173.5 316Q149 280 149 223Q149 167 173.5 131Q198 95 245 95Q292 95 316.5 131Q341 167 341 223ZM246 492Q186 492 149.5 528Q113 564 113 634H201Q201 608 212 592Q223 576 246 576Q269 576 280 592Q291 608 291 634H379Q379 564 342.5 528Q306 492 246 492Z" glyph-name="obreve" horiz-adv-x="489" unicode="&#335;" /><glyph d="M393 502H295L246 571L197 502H99L194 647H298ZM464 223Q464 172 448 129Q432 86 403 55Q374 24 334 7Q294 -10 245 -10Q196 -10 156 7Q116 24 87 55Q58 86 42 129Q26 172 26 223Q26 275 42 318Q58 361 87 392Q116 423 156 440Q196 457 245 457Q294 457 334 440Q374 423 403 392Q432 361 448 318Q464 275 464 223ZM341 223Q341 280 316.5 316Q292 352 245 352Q198 352 173.5 316Q149 280 149 223Q149 167 173.5 131Q198 95 245 95Q292 95 316.5 131Q341 167 341 223Z" glyph-name="ocircumflex" horiz-adv-x="489" unicode="&#244;" /><glyph d="M98 570Q98 599 117.5 618Q137 637 165 637Q192 637 211.5 618Q231 599 231 570Q231 543 211.5 523.5Q192 504 165 504Q137 504 117.5 523.5Q98 543 98 570ZM262 570Q262 599 281.5 618Q301 637 328 637Q355 637 375 618Q395 599 395 570Q395 543 375 523.5Q355 504 328 504Q301 504 281.5 523.5Q262 543 262 570ZM464 223Q464 172 448 129Q432 86 403 55Q374 24 334 7Q294 -10 245 -10Q196 -10 156 7Q116 24 87 55Q58 86 42 129Q26 172 26 223Q26 275 42 318Q58 361 87 392Q116 423 156 440Q196 457 245 457Q294 457 334 440Q374 423 403 392Q432 361 448 318Q464 275 464 223ZM341 223Q341 280 316.5 316Q292 352 245 352Q198 352 173.5 316Q149 280 149 223Q149 167 173.5 131Q198 95 245 95Q292 95 316.5 131Q341 167 341 223Z" glyph-name="odieresis" horiz-adv-x="489" unicode="&#246;" /><glyph d="M245 457Q292 457 330.5 440Q369 423 398 393Q426 423 463 440Q500 457 545 457Q594 457 630.5 441Q667 425 692 395.5Q717 366 729.5 325Q742 284 742 235V195H454Q462 140 497.5 116Q533 92 583 92Q620 92 649 101Q678 110 711 131V29Q683 9 646 -0.5Q609 -10 564 -10Q512 -10 470 7Q428 24 399 54Q370 25 331.5 7.5Q293 -10 245 -10Q196 -10 156 7Q116 24 87 55Q58 86 42 129Q26 172 26 223Q26 275 42 318Q58 361 87 392Q116 423 156 440Q196 457 245 457ZM341 223Q341 280 316.5 316Q292 352 245 352Q198 352 173.5 316Q149 280 149 223Q149 167 173.5 131Q198 95 245 95Q292 95 316.5 131Q341 167 341 223ZM548 358Q518 358 493.5 338Q469 318 459 276H627Q625 312 605 335Q585 358 548 358Z" glyph-name="oe" horiz-adv-x="769" unicode="&#339;" /><glyph d="M314 6Q299 -15 288.5 -29.5Q278 -44 272 -54.5Q266 -65 263 -72.5Q260 -80 260 -88Q260 -97 265.5 -103Q271 -109 281 -109Q289 -109 297 -105Q305 -101 317 -93V-167Q304 -176 289.5 -182Q275 -188 255 -188Q216 -188 194.5 -167.5Q173 -147 173 -113Q173 -81 191 -53.5Q209 -26 233 6Z" glyph-name="ogonek" horiz-adv-x="500" unicode="&#731;" /><glyph d="M464 223Q464 172 448 129Q432 86 403 55Q374 24 334 7Q294 -10 245 -10Q196 -10 156 7Q116 24 87 55Q58 86 42 129Q26 172 26 223Q26 275 42 318Q58 361 87 392Q116 423 156 440Q196 457 245 457Q294 457 334 440Q374 423 403 392Q432 361 448 318Q464 275 464 223ZM341 223Q341 280 316.5 316Q292 352 245 352Q198 352 173.5 316Q149 280 149 223Q149 167 173.5 131Q198 95 245 95Q292 95 316.5 131Q341 167 341 223ZM194 508 105 650H228L307 508Z" glyph-name="ograve" horiz-adv-x="489" unicode="&#242;" /><glyph d="M121 508 188 650H287L219 508ZM262 508 329 650H428L360 508ZM464 223Q464 172 448 129Q432 86 403 55Q374 24 334 7Q294 -10 245 -10Q196 -10 156 7Q116 24 87 55Q58 86 42 129Q26 172 26 223Q26 275 42 318Q58 361 87 392Q116 423 156 440Q196 457 245 457Q294 457 334 440Q374 423 403 392Q432 361 448 318Q464 275 464 223ZM341 223Q341 280 316.5 316Q292 352 245 352Q198 352 173.5 316Q149 280 149 223Q149 167 173.5 131Q198 95 245 95Q292 95 316.5 131Q341 167 341 223Z" glyph-name="ohungarumlaut" horiz-adv-x="489" unicode="&#337;" /><glyph d="M128 607H365V516H128ZM464 223Q464 172 448 129Q432 86 403 55Q374 24 334 7Q294 -10 245 -10Q196 -10 156 7Q116 24 87 55Q58 86 42 129Q26 172 26 223Q26 275 42 318Q58 361 87 392Q116 423 156 440Q196 457 245 457Q294 457 334 440Q374 423 403 392Q432 361 448 318Q464 275 464 223ZM341 223Q341 280 316.5 316Q292 352 245 352Q198 352 173.5 316Q149 280 149 223Q149 167 173.5 131Q198 95 245 95Q292 95 316.5 131Q341 167 341 223Z" glyph-name="omacron" horiz-adv-x="489" unicode="&#333;" /><glyph d="M285 0H160V468L17 397V522L204 614H285Z" glyph-name="one" horiz-adv-x="345" unicode="1" /><glyph d="M62 111H219V468L64 390V516L262 614H343V111H481V0H62Z" glyph-name="one.lt" horiz-adv-x="520" /><glyph d="M210 273H119V510L32 467V559L147 614H210ZM168 0H78L509 614H599ZM679 80V0H425V2L524 134Q548 166 561 185.5Q574 205 574 225Q574 242 562.5 252Q551 262 531 262Q505 262 479 247Q453 232 436 219V307Q456 324 487 335Q518 346 556 346Q607 346 637 318.5Q667 291 667 245Q667 213 650 183.5Q633 154 611 123L580 80Z" glyph-name="onehalf" horiz-adv-x="720" unicode="&#189;" /><glyph d="M210 273H119V510L32 467V559L147 614H210ZM168 0H78L509 614H599ZM489 137H541V194H620V137H662V62H620V0H541V62H374V88L492 341H582Z" glyph-name="onequarter" horiz-adv-x="702" unicode="&#188;" /><glyph d="M196 273H105V510L18 467V559L133 614H196Z" glyph-name="onesuperior" horiz-adv-x="237" unicode="&#185;" /><glyph d="M189 499Q189 517 172.5 529Q156 541 124 541Q103 541 82.5 535Q62 529 44 518V601Q62 611 89.5 618Q117 625 149 625Q216 625 250.5 594Q285 563 285 504V317H189V332Q181 324 161.5 317.5Q142 311 118 311Q96 311 76 317.5Q56 324 41 336Q26 348 17.5 366Q9 384 9 408Q9 453 42 479Q75 505 124 505Q143 505 161.5 499.5Q180 494 189 488ZM189 419Q184 429 172 435Q160 441 145 441Q129 441 115.5 433.5Q102 426 102 410Q102 394 115.5 387Q129 380 145 380Q160 380 172 385.5Q184 391 189 401Z" glyph-name="ordfeminine" horiz-adv-x="308" unicode="&#170;" /><glyph d="M315 468Q315 397 273 353.5Q231 310 162 310Q128 310 99.5 321.5Q71 333 51 354Q31 375 19.5 404Q8 433 8 468Q8 502 19.5 531Q31 560 51 581Q71 602 99.5 613.5Q128 625 162 625Q196 625 224 613.5Q252 602 272.5 581Q293 560 304 531Q315 502 315 468ZM214 468Q214 500 200.5 520.5Q187 541 162 541Q137 541 123.5 520.5Q110 500 110 468Q110 436 123.5 415.5Q137 395 162 395Q187 395 200.5 415.5Q214 436 214 468Z" glyph-name="ordmasculine" horiz-adv-x="324" unicode="&#186;" /><glyph d="M81 67Q31 129 31 223Q31 275 47 318Q63 361 92 392Q121 423 161 440Q201 457 250 457Q285 457 316 448Q347 439 373 422L414 472L462 436L417 381Q442 351 455.5 311Q469 271 469 223Q469 172 453 129Q437 86 408 55Q379 24 339 7Q299 -10 250 -10Q178 -10 126 25L83 -28L34 9ZM348 223Q348 240 345.5 255Q343 270 338 284L196 110Q218 93 250 93Q297 93 322.5 130Q348 167 348 223ZM152 223Q152 189 161 164L303 336Q280 353 250 353Q203 353 177.5 316.5Q152 280 152 223Z" glyph-name="oslash" horiz-adv-x="499" unicode="&#248;" /><glyph d="M81 67Q31 129 31 223Q31 275 47 318Q63 361 92 392Q121 423 161 440Q201 457 250 457Q285 457 316 448Q347 439 373 422L414 472L462 436L417 381Q442 351 455.5 311Q469 271 469 223Q469 172 453 129Q437 86 408 55Q379 24 339 7Q299 -10 250 -10Q178 -10 126 25L83 -28L34 9ZM348 223Q348 240 345.5 255Q343 270 338 284L196 110Q218 93 250 93Q297 93 322.5 130Q348 167 348 223ZM152 223Q152 189 161 164L303 336Q280 353 250 353Q203 353 177.5 316.5Q152 280 152 223ZM188 508 267 650H390L300 508Z" glyph-name="oslashacute" horiz-adv-x="499" unicode="&#511;" /><glyph d="M464 223Q464 172 448 129Q432 86 403 55Q374 24 334 7Q294 -10 245 -10Q196 -10 156 7Q116 24 87 55Q58 86 42 129Q26 172 26 223Q26 275 42 318Q58 361 87 392Q116 423 156 440Q196 457 245 457Q294 457 334 440Q374 423 403 392Q432 361 448 318Q464 275 464 223ZM341 223Q341 280 316.5 316Q292 352 245 352Q198 352 173.5 316Q149 280 149 223Q149 167 173.5 131Q198 95 245 95Q292 95 316.5 131Q341 167 341 223ZM389 643Q389 613 384 588Q379 563 368.5 544Q358 525 341.5 514.5Q325 504 303 504Q286 504 273 511Q260 518 248.5 527Q237 536 226 543Q215 550 204 550Q190 550 182.5 539Q175 528 174 508H103Q103 538 108 563Q113 588 123.5 607Q134 626 150 636.5Q166 647 189 647Q205 647 218.5 640Q232 633 244 624Q256 615 266.5 608Q277 601 288 601Q302 601 309.5 612Q317 623 318 643Z" glyph-name="otilde" horiz-adv-x="489" unicode="&#245;" /><glyph d="M178 -165H54V447H178V410Q193 428 223.5 442.5Q254 457 290 457Q339 457 377 438Q415 419 441 387Q467 355 480.5 312.5Q494 270 494 223Q494 176 480.5 133.5Q467 91 441 59Q415 27 377 8.5Q339 -10 290 -10Q254 -10 223.5 4.5Q193 19 178 37ZM178 150Q189 127 212 112.5Q235 98 262 98Q313 98 341 133.5Q369 169 369 223Q369 277 341 313Q313 349 262 349Q234 349 211.5 334.5Q189 320 178 297Z" glyph-name="p" horiz-adv-x="519" unicode="p" /><glyph d="M388 614H479V-90H388ZM233 259Q194 259 154.5 269Q115 279 83.5 301Q52 323 32.5 356.5Q13 390 13 437Q13 484 32.5 517.5Q52 551 83.5 572.5Q115 594 154.5 604Q194 614 233 614H324V-90H233Z" glyph-name="paragraph" horiz-adv-x="538" unicode="&#182;" /><glyph d="M30 283Q30 353 49 413Q68 473 104 520.5Q140 568 191 601.5Q242 635 305 650V525Q271 516 242 495Q213 474 192 443.5Q171 413 159.5 372.5Q148 332 148 283Q148 234 159.5 193.5Q171 153 192 122Q213 91 242 70.5Q271 50 305 41V-84Q242 -69 191 -35.5Q140 -2 104 45.5Q68 93 49 153Q30 213 30 283Z" glyph-name="parenleft" horiz-adv-x="325" unicode="(" /><glyph d="M30 303Q30 373 49 433Q68 493 104 540.5Q140 588 191 621.5Q242 655 305 670V545Q271 536 242 515Q213 494 192 463.5Q171 433 159.5 392.5Q148 352 148 303Q148 254 159.5 213.5Q171 173 192 142Q213 111 242 90.5Q271 70 305 61V-64Q242 -49 191 -15.5Q140 18 104 65.5Q68 113 49 173Q30 233 30 303Z" glyph-name="parenleft.cap" horiz-adv-x="325" /><glyph d="M295 283Q295 213 276 153Q257 93 221 45.5Q185 -2 134 -35.5Q83 -69 20 -84V41Q54 50 83 70.5Q112 91 133 122Q154 153 165.5 193.5Q177 234 177 283Q177 332 165.5 372.5Q154 413 133 443.5Q112 474 83 495Q54 516 20 525V650Q83 635 134 601.5Q185 568 221 520.5Q257 473 276 413Q295 353 295 283Z" glyph-name="parenright" horiz-adv-x="325" unicode=")" /><glyph d="M295 303Q295 233 276 173Q257 113 221 65.5Q185 18 134 -15.5Q83 -49 20 -64V61Q54 70 83 90.5Q112 111 133 142Q154 173 165.5 213.5Q177 254 177 303Q177 352 165.5 392.5Q154 433 133 463.5Q112 494 83 515Q54 536 20 545V670Q83 655 134 621.5Q185 588 221 540.5Q257 493 276 433Q295 373 295 303Z" glyph-name="parenright.cap" horiz-adv-x="325" /><glyph d="M110 481Q110 457 127 440Q144 423 169 423Q193 423 210.5 440Q228 457 228 481Q228 506 210.5 523.5Q193 541 169 541Q144 541 127 523.5Q110 506 110 481ZM483 614H567L187 0H103ZM643 133Q643 103 632 77Q621 51 601.5 31.5Q582 12 556.5 1Q531 -10 501 -10Q471 -10 445.5 1Q420 12 400.5 31.5Q381 51 370 77Q359 103 359 133Q359 162 370 188Q381 214 400.5 233Q420 252 445.5 263Q471 274 501 274Q531 274 556.5 263Q582 252 601.5 233Q621 214 632 188Q643 162 643 133ZM311 481Q311 452 300 426Q289 400 269.5 381Q250 362 224.5 351Q199 340 169 340Q139 340 113.5 351Q88 362 68.5 381Q49 400 38 426Q27 452 27 481Q27 511 38 537Q49 563 68.5 582.5Q88 602 113.5 613Q139 624 169 624Q199 624 224.5 613Q250 602 269.5 582.5Q289 563 300 537Q311 511 311 481ZM560 133Q560 157 543 174Q526 191 501 191Q476 191 458.5 174Q441 157 441 133Q441 108 458.5 90.5Q476 73 501 73Q526 73 543 90.5Q560 108 560 133Z" glyph-name="percent" horiz-adv-x="670" unicode="%" /><glyph d="M20 501Q20 526 29.5 548.5Q39 571 55.5 588Q72 605 94 614.5Q116 624 141 624Q167 624 189.5 614.5Q212 605 228.5 588Q245 571 254.5 548.5Q264 526 264 501Q264 476 254.5 454Q245 432 228.5 415.5Q212 399 189.5 389.5Q167 380 141 380Q116 380 94 389.5Q72 399 55.5 415.5Q39 432 29.5 454Q20 476 20 501ZM91 501Q91 480 105.5 465.5Q120 451 141 451Q163 451 178 465.5Q193 480 193 501Q193 523 178 538Q163 553 141 553Q120 553 105.5 538Q91 523 91 501ZM500 113Q500 87 490.5 65Q481 43 464.5 26Q448 9 426 -0.5Q404 -10 379 -10Q353 -10 330.5 -0.5Q308 9 291.5 26Q275 43 265.5 65Q256 87 256 113Q256 138 265.5 160Q275 182 291.5 198.5Q308 215 330.5 224.5Q353 234 379 234Q404 234 426 224.5Q448 215 464.5 198.5Q481 182 490.5 160Q500 138 500 113ZM429 113Q429 134 414.5 148.5Q400 163 379 163Q357 163 342 148.5Q327 134 327 113Q327 91 342 76Q357 61 379 61Q400 61 414.5 76Q429 91 429 113ZM406 614H489L114 0H31Z" glyph-name="percent.lt" horiz-adv-x="520" /><glyph d="M27 73Q27 107 49.5 129.5Q72 152 105 152Q138 152 160.5 129.5Q183 107 183 73Q183 39 160.5 16Q138 -7 105 -7Q72 -7 49.5 16Q27 39 27 73Z" glyph-name="period" horiz-adv-x="210" unicode="." /><glyph d="M51 73Q51 107 74 129.5Q97 152 130 152Q163 152 185.5 129.5Q208 107 208 73Q208 39 185.5 16Q163 -7 130 -7Q97 -7 74 16Q51 39 51 73Z" glyph-name="period.tab" horiz-adv-x="260" /><glyph d="M29 263Q29 297 51.5 319.5Q74 342 107 342Q140 342 162.5 319.5Q185 297 185 263Q185 229 162.5 206Q140 183 107 183Q74 183 51.5 206Q29 229 29 263Z" glyph-name="periodcentered" horiz-adv-x="214" unicode="&#183;" /><glyph d="M29 300Q29 334 51.5 356.5Q74 379 107 379Q140 379 162.5 356.5Q185 334 185 300Q185 266 162.5 243Q140 220 107 220Q74 220 51.5 243Q29 266 29 300Z" glyph-name="periodcentered.cap" horiz-adv-x="214" /><glyph d="M483 614H567L187 0H103ZM643 133Q643 103 632 77Q621 51 601.5 31.5Q582 12 556.5 1Q531 -10 501 -10Q471 -10 445.5 1Q420 12 400.5 31.5Q381 51 370 77Q359 103 359 133Q359 162 370 188Q381 214 400.5 233Q420 252 445.5 263Q471 274 501 274Q531 274 556.5 263Q582 252 601.5 233Q621 214 632 188Q643 162 643 133ZM27 481Q27 511 38 537Q49 563 68.5 582.5Q88 602 113.5 613Q139 624 169 624Q199 624 224.5 613Q250 602 269.5 582.5Q289 563 300 537Q311 511 311 481Q311 452 300 426Q289 400 269.5 381Q250 362 224.5 351Q199 340 169 340Q139 340 113.5 351Q88 362 68.5 381Q49 400 38 426Q27 452 27 481ZM560 133Q560 157 543 174Q526 191 501 191Q476 191 458.5 174Q441 157 441 133Q441 108 458.5 90.5Q476 73 501 73Q526 73 543 90.5Q560 108 560 133ZM957 133Q957 103 946 77Q935 51 916 31.5Q897 12 871.5 1Q846 -10 816 -10Q786 -10 760 1Q734 12 714.5 31.5Q695 51 684 77Q673 103 673 133Q673 162 684 188Q695 214 714.5 233Q734 252 760 263Q786 274 816 274Q846 274 871.5 263Q897 252 916 233Q935 214 946 188Q957 162 957 133ZM874 133Q874 157 857 174Q840 191 816 191Q791 191 773.5 174Q756 157 756 133Q756 108 773.5 90.5Q791 73 816 73Q840 73 857 90.5Q874 108 874 133ZM110 481Q110 457 127 440Q144 423 169 423Q193 423 210.5 440Q228 457 228 481Q228 506 210.5 523.5Q193 541 169 541Q144 541 127 523.5Q110 506 110 481Z" glyph-name="perthousand" horiz-adv-x="984" unicode="&#8240;" /><glyph d="M29 501Q29 526 38.5 548.5Q48 571 64.5 588Q81 605 103 614.5Q125 624 151 624Q176 624 198.5 614.5Q221 605 237.5 588Q254 571 263.5 548.5Q273 526 273 501Q273 476 263.5 454Q254 432 237.5 415.5Q221 399 198.5 389.5Q176 380 151 380Q125 380 103 389.5Q81 399 64.5 415.5Q48 432 38.5 454Q29 476 29 501ZM100 501Q100 480 114.5 465.5Q129 451 151 451Q172 451 187 465.5Q202 480 202 501Q202 523 187 538Q172 553 151 553Q129 553 114.5 538Q100 523 100 501ZM510 113Q510 87 500.5 65Q491 43 474.5 26Q458 9 435.5 -0.5Q413 -10 388 -10Q362 -10 340 -0.5Q318 9 301 26Q284 43 274.5 65Q265 87 265 113Q265 138 274.5 160Q284 182 301 198.5Q318 215 340 224.5Q362 234 388 234Q413 234 435.5 224.5Q458 215 474.5 198.5Q491 182 500.5 160Q510 138 510 113ZM438 113Q438 134 423.5 148.5Q409 163 388 163Q366 163 351 148.5Q336 134 336 113Q336 91 351 76Q366 61 388 61Q409 61 423.5 76Q438 91 438 113ZM420 614H503L118 0H35ZM776 113Q776 87 766.5 65Q757 43 740.5 26Q724 9 701.5 -0.5Q679 -10 654 -10Q628 -10 606 -0.5Q584 9 567 26Q550 43 540.5 65Q531 87 531 113Q531 138 540.5 160Q550 182 567 198.5Q584 215 606 224.5Q628 234 654 234Q679 234 701.5 224.5Q724 215 740.5 198.5Q757 182 766.5 160Q776 138 776 113ZM705 113Q705 134 690 148.5Q675 163 654 163Q633 163 617.5 148.5Q602 134 602 113Q602 91 617.5 76Q633 61 654 61Q675 61 690 76Q705 91 705 113Z" glyph-name="perthousand.lt" horiz-adv-x="800" /><glyph d="M328 515V347H496V251H328V84H233V251H64V347H233V515Z" glyph-name="plus" horiz-adv-x="560" unicode="+" /><glyph d="M308 515V347H476V251H308V84H212V251H44V347H212V515Z" glyph-name="plus.lt" horiz-adv-x="520" /><glyph d="M330 548V418H494V328H330V198H240V328H75V418H240V548ZM75 153H494V62H75Z" glyph-name="plusminus" horiz-adv-x="569" unicode="&#177;" /><glyph d="M305 548V418H469V328H305V198H214V328H50V418H214V548ZM50 153H469V62H50Z" glyph-name="plusminus.lt" horiz-adv-x="520" /><glyph d="M669 307Q669 238 644 180Q619 122 576 79.5Q533 37 475 13.5Q417 -10 352 -10Q287 -10 229 13.5Q171 37 128 79.5Q85 122 60 180Q35 238 35 307Q35 376 60 434Q85 492 128 534.5Q171 577 229 600.5Q287 624 352 624Q417 624 475 600.5Q533 577 576 534.5Q619 492 644 434Q669 376 669 307ZM622 307Q622 366 600.5 415.5Q579 465 542.5 501Q506 537 456.5 557.5Q407 578 352 578Q296 578 247 557.5Q198 537 161.5 501Q125 465 103.5 415.5Q82 366 82 307Q82 248 103.5 198.5Q125 149 161.5 113Q198 77 247 56.5Q296 36 352 36Q407 36 456.5 56.5Q506 77 542.5 113Q579 149 600.5 198.5Q622 248 622 307ZM321 235V124H225V493H390Q450 493 487.5 460Q525 427 525 364Q525 301 487.5 268Q450 235 390 235ZM430 364Q430 384 418.5 396.5Q407 409 381 409H321V319H381Q407 319 418.5 331.5Q430 344 430 364Z" glyph-name="published" horiz-adv-x="704" /><glyph d="M341 37Q326 19 295.5 4.5Q265 -10 229 -10Q180 -10 142 8.5Q104 27 78 59Q52 91 38.5 133.5Q25 176 25 223Q25 270 38.5 312.5Q52 355 78 387Q104 419 142 438Q180 457 229 457Q265 457 295.5 442.5Q326 428 341 410V447H465V-165H341ZM341 297Q330 320 307.5 334.5Q285 349 257 349Q206 349 178 313Q150 277 150 223Q150 169 178 133.5Q206 98 257 98Q284 98 307 112.5Q330 127 341 150Z" glyph-name="q" horiz-adv-x="519" unicode="q" /><glyph d="M205 314Q217 329 230 342Q243 355 253.5 368.5Q264 382 270.5 396.5Q277 411 277 429Q277 503 191 503Q165 503 140.5 496Q116 489 94.5 478Q73 467 54 453Q35 439 20 425V551Q53 582 103 603Q153 624 213 624Q302 624 355 576Q408 528 408 444Q408 416 399 392Q390 368 376 347Q362 326 345 306.5Q328 287 311 269Q288 245 281.5 228.5Q275 212 274 198H152Q153 216 156 230Q159 244 165 257.5Q171 271 180.5 284Q190 297 205 314ZM131 70Q131 104 153.5 126Q176 148 209 148Q243 148 266 126Q289 104 289 70Q289 38 266 15.5Q243 -7 209 -7Q176 -7 153.5 15.5Q131 38 131 70Z" glyph-name="question" horiz-adv-x="428" unicode="?" /><glyph d="M223 204Q211 189 198 176Q185 163 174.5 149.5Q164 136 157.5 121.5Q151 107 151 89Q151 15 237 15Q263 15 287.5 22Q312 29 333.5 40Q355 51 374 65Q393 79 408 93V-33Q375 -64 325 -85Q275 -106 215 -106Q126 -106 73 -58Q20 -10 20 74Q20 102 29 126Q38 150 52 171Q66 192 83 211.5Q100 231 117 249Q140 273 146.5 289.5Q153 306 154 320H276Q275 302 272 288Q269 274 263 260.5Q257 247 247.5 233.5Q238 220 223 204ZM297 448Q297 414 274.5 392Q252 370 219 370Q185 370 162 392Q139 414 139 448Q139 480 162 502.5Q185 525 219 525Q252 525 274.5 502.5Q297 480 297 448Z" glyph-name="questiondown" horiz-adv-x="428" unicode="&#191;" /><glyph d="M223 300Q211 285 198 272Q185 259 174.5 245.5Q164 232 157.5 217.5Q151 203 151 185Q151 111 237 111Q263 111 287.5 118Q312 125 333.5 136Q355 147 374 161Q393 175 408 189V63Q375 32 325 11Q275 -10 215 -10Q126 -10 73 38Q20 86 20 170Q20 198 29 222Q38 246 52 267Q66 288 83 307.5Q100 327 117 345Q140 369 146.5 385.5Q153 402 154 416H276Q275 398 272 384Q269 370 263 356.5Q257 343 247.5 329.5Q238 316 223 300ZM297 544Q297 510 274.5 488Q252 466 219 466Q185 466 162 488Q139 510 139 544Q139 576 162 598.5Q185 621 219 621Q252 621 274.5 598.5Q297 576 297 544Z" glyph-name="questiondown.cap" horiz-adv-x="428" /><glyph d="M38 614H139V366H38ZM188 614H289V366H188Z" glyph-name="quotedbl" horiz-adv-x="327" unicode="&quot;" /><glyph d="M88 0Q62 5 44.5 23.5Q27 42 27 72Q27 105 49.5 126.5Q72 148 105 148Q137 148 160.5 126.5Q184 105 184 63Q184 40 174.5 16.5Q165 -7 151 -27L96 -110H17ZM283 0Q257 5 239.5 23.5Q222 42 222 72Q222 105 244.5 126.5Q267 148 300 148Q332 148 355.5 126.5Q379 105 379 63Q379 40 369.5 16.5Q360 -7 346 -27L291 -110H212Z" glyph-name="quotedblbase" horiz-adv-x="400" unicode="&#8222;" /><glyph d="M117 504Q143 499 160.5 480.5Q178 462 178 432Q178 399 155.5 377.5Q133 356 100 356Q68 356 44.5 377.5Q21 399 21 441Q21 464 30.5 487.5Q40 511 54 531L109 614H188ZM312 504Q338 499 355.5 480.5Q373 462 373 432Q373 399 350.5 377.5Q328 356 295 356Q263 356 239.5 377.5Q216 399 216 441Q216 464 225.5 487.5Q235 511 249 531L304 614H383Z" glyph-name="quotedblleft" horiz-adv-x="400" unicode="&#8220;" /><glyph d="M88 476Q62 481 44.5 499.5Q27 518 27 548Q27 581 49.5 602.5Q72 624 105 624Q137 624 160.5 602.5Q184 581 184 539Q184 516 174.5 492.5Q165 469 151 449L96 366H17ZM283 476Q257 481 239.5 499.5Q222 518 222 548Q222 581 244.5 602.5Q267 624 300 624Q332 624 355.5 602.5Q379 581 379 539Q379 516 369.5 492.5Q360 469 346 449L291 366H212Z" glyph-name="quotedblright" horiz-adv-x="400" unicode="&#8221;" /><glyph d="M117 504Q143 499 160.5 480.5Q178 462 178 432Q178 399 155.5 377.5Q133 356 100 356Q68 356 44.5 377.5Q21 399 21 441Q21 464 30.5 487.5Q40 511 54 531L109 614H188Z" glyph-name="quoteleft" horiz-adv-x="205" unicode="&#8216;" /><glyph d="M88 476Q62 481 44.5 499.5Q27 518 27 548Q27 581 49.5 602.5Q72 624 105 624Q137 624 160.5 602.5Q184 581 184 539Q184 516 174.5 492.5Q165 469 151 449L96 366H17Z" glyph-name="quoteright" horiz-adv-x="205" unicode="&#8217;" /><glyph d="M88 0Q62 5 44.5 23.5Q27 42 27 72Q27 105 49.5 126.5Q72 148 105 148Q137 148 160.5 126.5Q184 105 184 63Q184 40 174.5 16.5Q165 -7 151 -27L96 -110H17Z" glyph-name="quotesinglbase" horiz-adv-x="205" unicode="&#8218;" /><glyph d="M38 614H144V366H38Z" glyph-name="quotesingle" horiz-adv-x="182" unicode="'" /><glyph d="M325 325Q299 340 263 340Q231 340 208 324Q185 308 178 277V0H54V447H178V403Q192 427 218.5 442Q245 457 278 457Q294 457 307 454.5Q320 452 325 449Z" glyph-name="r" horiz-adv-x="351" unicode="r" /><glyph d="M130 508 209 650H332L242 508ZM325 325Q299 340 263 340Q231 340 208 324Q185 308 178 277V0H54V447H178V403Q192 427 218.5 442Q245 457 278 457Q294 457 307 454.5Q320 452 325 449Z" glyph-name="racute" horiz-adv-x="351" unicode="&#341;" /><glyph d="M244 502H140L45 647H143L192 578L241 647H339ZM325 325Q299 340 263 340Q231 340 208 324Q185 308 178 277V0H54V447H178V403Q192 427 218.5 442Q245 457 278 457Q294 457 307 454.5Q320 452 325 449Z" glyph-name="rcaron" horiz-adv-x="351" unicode="&#345;" /><glyph d="M94 -163Q73 -159 58.5 -143.5Q44 -128 44 -103Q44 -75 64.5 -57Q85 -39 115 -39Q143 -39 163.5 -57.5Q184 -76 184 -108Q184 -131 174.5 -149.5Q165 -168 151 -186L124 -225H48ZM325 325Q299 340 263 340Q231 340 208 324Q185 308 178 277V0H54V447H178V403Q192 427 218.5 442Q245 457 278 457Q294 457 307 454.5Q320 452 325 449Z" glyph-name="rcommaaccent" horiz-adv-x="351" unicode="&#343;" /><glyph d="M384 441Q384 401 369.5 367.5Q355 334 330.5 309.5Q306 285 273 271.5Q240 258 203 258Q166 258 133 271.5Q100 285 75.5 309.5Q51 334 36.5 367.5Q22 401 22 441Q22 481 36.5 514.5Q51 548 75.5 572.5Q100 597 133 610.5Q166 624 203 624Q240 624 273 610.5Q306 597 330.5 572.5Q355 548 369.5 514.5Q384 481 384 441ZM351 441Q351 474 339.5 502Q328 530 308 550.5Q288 571 261 582Q234 593 203 593Q172 593 145 582Q118 571 98 550.5Q78 530 66.5 502Q55 474 55 441Q55 408 66.5 380Q78 352 98 331.5Q118 311 145 300Q172 289 203 289Q234 289 261 300Q288 311 308 331.5Q328 352 339.5 380Q351 408 351 441ZM182 407V346H128V538H218Q250 538 269.5 520.5Q289 503 289 471Q289 426 252 413L296 346H236L199 407ZM237 471Q237 493 212 493H182V450H212Q237 450 237 471Z" glyph-name="registered" horiz-adv-x="407" unicode="&#174;" /><glyph d="M349 584Q349 563 341.5 545.5Q334 528 320.5 515Q307 502 289 494.5Q271 487 250 487Q229 487 211 494.5Q193 502 179.5 515Q166 528 158.5 545.5Q151 563 151 584Q151 605 158.5 622.5Q166 640 179.5 653Q193 666 211 673.5Q229 681 250 681Q271 681 289 673.5Q307 666 320.5 653Q334 640 341.5 622.5Q349 605 349 584ZM290 584Q290 601 278.5 612.5Q267 624 250 624Q233 624 222 612.5Q211 601 211 584Q211 567 222 556Q233 545 250 545Q267 545 278.5 556Q290 567 290 584Z" glyph-name="ring" horiz-adv-x="500" unicode="&#730;" /><glyph d="M349 743Q349 722 341.5 704.5Q334 687 320.5 674Q307 661 289 653.5Q271 646 250 646Q229 646 211 653.5Q193 661 179.5 674Q166 687 158.5 704.5Q151 722 151 743Q151 764 158.5 781.5Q166 799 179.5 812Q193 825 211 832.5Q229 840 250 840Q271 840 289 832.5Q307 825 320.5 812Q334 799 341.5 781.5Q349 764 349 743ZM290 743Q290 760 278.5 771.5Q267 783 250 783Q233 783 222 771.5Q211 760 211 743Q211 726 222 715Q233 704 250 704Q267 704 278.5 715Q290 726 290 743Z" glyph-name="ring.cap" horiz-adv-x="500" /><glyph d="M35 150Q67 121 109.5 104.5Q152 88 189 88Q217 88 236 97Q255 106 255 126Q255 145 241 153.5Q227 162 204 170L161 182Q102 198 68 228.5Q34 259 34 317Q34 350 47.5 376Q61 402 84 420Q107 438 139 447.5Q171 457 209 457Q252 457 287 447Q322 437 352 417V304Q322 328 287.5 343.5Q253 359 215 359Q189 359 172 349.5Q155 340 155 321Q155 303 167.5 295Q180 287 203 279L253 264Q317 246 347 214Q377 182 377 128Q377 94 363 68.5Q349 43 324.5 25.5Q300 8 266 -1Q232 -10 193 -10Q148 -10 106 1.5Q64 13 35 35Z" glyph-name="s" horiz-adv-x="406" unicode="s" /><glyph d="M151 508 230 650H353L263 508ZM35 150Q67 121 109.5 104.5Q152 88 189 88Q217 88 236 97Q255 106 255 126Q255 145 241 153.5Q227 162 204 170L161 182Q102 198 68 228.5Q34 259 34 317Q34 350 47.5 376Q61 402 84 420Q107 438 139 447.5Q171 457 209 457Q252 457 287 447Q322 437 352 417V304Q322 328 287.5 343.5Q253 359 215 359Q189 359 172 349.5Q155 340 155 321Q155 303 167.5 295Q180 287 203 279L253 264Q317 246 347 214Q377 182 377 128Q377 94 363 68.5Q349 43 324.5 25.5Q300 8 266 -1Q232 -10 193 -10Q148 -10 106 1.5Q64 13 35 35Z" glyph-name="sacute" horiz-adv-x="406" unicode="&#347;" /><glyph d="M265 502H161L66 647H164L213 578L262 647H360ZM35 150Q67 121 109.5 104.5Q152 88 189 88Q217 88 236 97Q255 106 255 126Q255 145 241 153.5Q227 162 204 170L161 182Q102 198 68 228.5Q34 259 34 317Q34 350 47.5 376Q61 402 84 420Q107 438 139 447.5Q171 457 209 457Q252 457 287 447Q322 437 352 417V304Q322 328 287.5 343.5Q253 359 215 359Q189 359 172 349.5Q155 340 155 321Q155 303 167.5 295Q180 287 203 279L253 264Q317 246 347 214Q377 182 377 128Q377 94 363 68.5Q349 43 324.5 25.5Q300 8 266 -1Q232 -10 193 -10Q148 -10 106 1.5Q64 13 35 35Z" glyph-name="scaron" horiz-adv-x="406" unicode="&#353;" /><glyph d="M35 150Q67 121 109.5 104.5Q152 88 189 88Q217 88 236 97Q255 106 255 126Q255 145 241 153.5Q227 162 204 170L161 182Q102 198 68 228.5Q34 259 34 317Q34 350 47.5 376Q61 402 84 420Q107 438 139 447.5Q171 457 209 457Q252 457 287 447Q322 437 352 417V304Q322 328 287.5 343.5Q253 359 215 359Q189 359 172 349.5Q155 340 155 321Q155 303 167.5 295Q180 287 203 279L253 264Q317 246 347 214Q377 182 377 128Q377 94 363 68.5Q349 43 324.5 25.5Q300 8 266 -1Q232 -10 193 -10Q148 -10 106 1.5Q64 13 35 35ZM70 -186 140 -47H254L180 -186Z" glyph-name="scedilla" horiz-adv-x="406" unicode="&#351;" /><glyph d="M360 502H262L213 571L164 502H66L161 647H265ZM35 150Q67 121 109.5 104.5Q152 88 189 88Q217 88 236 97Q255 106 255 126Q255 145 241 153.5Q227 162 204 170L161 182Q102 198 68 228.5Q34 259 34 317Q34 350 47.5 376Q61 402 84 420Q107 438 139 447.5Q171 457 209 457Q252 457 287 447Q322 437 352 417V304Q322 328 287.5 343.5Q253 359 215 359Q189 359 172 349.5Q155 340 155 321Q155 303 167.5 295Q180 287 203 279L253 264Q317 246 347 214Q377 182 377 128Q377 94 363 68.5Q349 43 324.5 25.5Q300 8 266 -1Q232 -10 193 -10Q148 -10 106 1.5Q64 13 35 35Z" glyph-name="scircumflex" horiz-adv-x="406" unicode="&#349;" /><glyph d="M178 -163Q157 -159 142.5 -143.5Q128 -128 128 -103Q128 -75 148.5 -57Q169 -39 199 -39Q227 -39 247.5 -57.5Q268 -76 268 -108Q268 -131 258.5 -149.5Q249 -168 235 -186L208 -225H132ZM35 150Q67 121 109.5 104.5Q152 88 189 88Q217 88 236 97Q255 106 255 126Q255 145 241 153.5Q227 162 204 170L161 182Q102 198 68 228.5Q34 259 34 317Q34 350 47.5 376Q61 402 84 420Q107 438 139 447.5Q171 457 209 457Q252 457 287 447Q322 437 352 417V304Q322 328 287.5 343.5Q253 359 215 359Q189 359 172 349.5Q155 340 155 321Q155 303 167.5 295Q180 287 203 279L253 264Q317 246 347 214Q377 182 377 128Q377 94 363 68.5Q349 43 324.5 25.5Q300 8 266 -1Q232 -10 193 -10Q148 -10 106 1.5Q64 13 35 35Z" glyph-name="scommaaccent" horiz-adv-x="406" unicode="&#537;" /><glyph d="M168 356Q148 351 140 338Q132 325 132 310Q132 290 148 275.5Q164 261 184 248L305 168Q325 173 333 186Q341 199 341 214Q341 234 325 248.5Q309 263 289 276ZM93 422Q83 436 77.5 452Q72 468 72 491Q72 521 85 545.5Q98 570 120.5 587.5Q143 605 174.5 614.5Q206 624 244 624Q327 624 389 584V472Q359 496 324 511Q289 526 251 526Q225 526 208.5 516Q192 506 192 487Q192 470 204 458.5Q216 447 237 434L344 366Q367 352 387 337Q407 322 421.5 304.5Q436 287 444.5 266.5Q453 246 453 220Q453 183 434 151.5Q415 120 380 101Q390 87 395.5 71Q401 55 401 33Q401 3 388 -21.5Q375 -46 352 -63.5Q329 -81 297.5 -90.5Q266 -100 229 -100Q145 -100 83 -60V52Q114 28 149 13Q184 -2 222 -2Q248 -2 264.5 8Q281 18 281 37Q281 54 269 65.5Q257 77 236 90L128 158Q105 172 85.5 187Q66 202 51.5 219.5Q37 237 28.5 257.5Q20 278 20 304Q20 341 39 372.5Q58 404 93 422Z" glyph-name="section" horiz-adv-x="473" unicode="&#167;" /><glyph d="M87 3Q62 8 44.5 26Q27 44 27 75Q27 108 49.5 129.5Q72 151 105 151Q137 151 160 129.5Q183 108 183 66Q183 43 174 19.5Q165 -4 151 -24L94 -109H14ZM27 358Q27 392 49.5 414.5Q72 437 105 437Q138 437 160.5 414.5Q183 392 183 358Q183 324 160.5 301Q138 278 105 278Q72 278 49.5 301Q27 324 27 358Z" glyph-name="semicolon" horiz-adv-x="210" unicode=";" /><glyph d="M112 3Q87 8 69.5 26Q52 44 52 75Q52 108 74.5 129.5Q97 151 130 151Q162 151 185 129.5Q208 108 208 66Q208 43 199 19.5Q190 -4 176 -24L119 -109H39ZM52 358Q52 392 74.5 414.5Q97 437 130 437Q163 437 185.5 414.5Q208 392 208 358Q208 324 185.5 301Q163 278 130 278Q97 278 74.5 301Q52 324 52 358Z" glyph-name="semicolon.tab" horiz-adv-x="260" /><glyph d="M181 0H49L280 502H16V614H459V611Z" glyph-name="seven" horiz-adv-x="466" unicode="7" /><glyph d="M222 0H91L322 502H39V614H501V611Z" glyph-name="seven.lt" horiz-adv-x="520" /><glyph d="M127 273H31L151 534H17V614H282V612Z" glyph-name="sevensuperior" horiz-adv-x="300" unicode="&#8311;" /><glyph d="M248 -10Q200 -10 159.5 6.5Q119 23 89.5 52.5Q60 82 43.5 122Q27 162 27 209Q27 250 40.5 292.5Q54 335 88 393L216 614H350L236 415Q241 417 250.5 418.5Q260 420 268 420Q313 418 350 401.5Q387 385 413.5 356.5Q440 328 454.5 290Q469 252 469 209Q469 162 452.5 122Q436 82 407 52.5Q378 23 337 6.5Q296 -10 248 -10ZM354 209Q354 231 346 251Q338 271 324 285.5Q310 300 290.5 308.5Q271 317 248 317Q225 317 206 308.5Q187 300 173 285.5Q159 271 151 251Q143 231 143 209Q143 163 172.5 132Q202 101 248 101Q295 101 324.5 132Q354 163 354 209Z" glyph-name="six" horiz-adv-x="495" unicode="6" /><glyph d="M260 -10Q212 -10 171.5 6.5Q131 23 101.5 52.5Q72 82 55.5 122Q39 162 39 209Q39 250 52.5 292.5Q66 335 100 393L228 614H362L248 415Q253 417 262.5 418.5Q272 420 280 420Q325 418 362 401.5Q399 385 425.5 356.5Q452 328 466.5 290Q481 252 481 209Q481 162 464.5 122Q448 82 419 52.5Q390 23 349 6.5Q308 -10 260 -10ZM366 209Q366 231 358 251Q350 271 336 285.5Q322 300 302.5 308.5Q283 317 260 317Q237 317 218 308.5Q199 300 185 285.5Q171 271 163 251Q155 231 155 209Q155 163 184.5 132Q214 101 260 101Q307 101 336.5 132Q366 163 366 209Z" glyph-name="six.lt" horiz-adv-x="520" /><glyph d="M253 650H368L120 -84H5Z" glyph-name="slash" horiz-adv-x="373" unicode="/" /><glyph d="M253 670H368L120 -64H5Z" glyph-name="slash.cap" horiz-adv-x="373" /><glyph glyph-name="space" horiz-adv-x="212" unicode=" " /><glyph glyph-name="space.tab" horiz-adv-x="260" /><glyph d="M28 352H100V410Q100 459 116 498.5Q132 538 161 566Q190 594 230 609Q270 624 319 624Q354 624 385.5 615.5Q417 607 437 594V483Q416 497 388.5 505.5Q361 514 327 514Q279 514 249.5 484Q220 454 220 394V352H351V254H220V194Q220 168 215 143Q210 118 199 103H452V0H28V103H80Q90 120 95 140.5Q100 161 100 194V254H28Z" glyph-name="sterling" horiz-adv-x="472" unicode="&#163;" /><glyph d="M55 352H127V410Q127 459 143 498.5Q159 538 187.5 566Q216 594 256.5 609Q297 624 346 624Q381 624 412 615.5Q443 607 463 594V483Q442 497 415 505.5Q388 514 354 514Q305 514 276 484Q247 454 247 394V352H377V254H247V194Q247 168 242 143Q237 118 226 103H478V0H55V103H107Q117 120 122 140.5Q127 161 127 194V254H55Z" glyph-name="sterling.lt" horiz-adv-x="520" /><glyph d="M230 0H106V347H21V447H106V568H230V447H325V347H230Z" glyph-name="t" horiz-adv-x="346" unicode="t" /><glyph d="M230 274H299V181H230V0H106V181H43V274H106V347H21V447H106V568H230V447H325V347H230Z" glyph-name="tbar" horiz-adv-x="346" unicode="&#359;" /><glyph d="M272 490 310 657H407L369 490ZM230 0H106V347H21V447H106V568H230V447H325V347H230Z" glyph-name="tcaron" horiz-adv-x="346" unicode="&#357;" /><glyph d="M149 -163Q128 -159 113.5 -143.5Q99 -128 99 -103Q99 -75 119.5 -57Q140 -39 170 -39Q198 -39 218.5 -57.5Q239 -76 239 -108Q239 -131 229.5 -149.5Q220 -168 206 -186L179 -225H103ZM230 0H106V347H21V447H106V568H230V447H325V347H230Z" glyph-name="tcommaaccent" horiz-adv-x="346" unicode="&#355;" /><glyph d="M178 -165H54V650H178V410Q193 428 223.5 442.5Q254 457 290 457Q339 457 377 438Q415 419 441 387Q467 355 480.5 312.5Q494 270 494 223Q494 176 480.5 133.5Q467 91 441 59Q415 27 377 8.5Q339 -10 290 -10Q254 -10 223.5 4.5Q193 19 178 37ZM178 150Q189 127 212 112.5Q235 98 262 98Q313 98 341 133.5Q369 169 369 223Q369 277 341 313Q313 349 262 349Q234 349 211.5 334.5Q189 320 178 297Z" glyph-name="thorn" horiz-adv-x="519" unicode="&#254;" /><glyph d="M31 614H413V611L286 368Q346 349 381 304.5Q416 260 416 194Q416 146 398.5 108.5Q381 71 352 44.5Q323 18 283.5 4Q244 -10 201 -10Q139 -10 97.5 4.5Q56 19 26 42V166Q61 134 103 116Q145 98 190 98Q241 98 269.5 121Q298 144 298 193Q298 221 285.5 241Q273 261 250.5 273.5Q228 286 198 292Q168 298 134 297V300L240 502H31Z" glyph-name="three" horiz-adv-x="447" unicode="3" /><glyph d="M60 614H460V611L323 369Q387 351 425 305Q463 259 463 193Q463 145 445 107.5Q427 70 396 43.5Q365 17 324 3Q283 -11 238 -11Q173 -11 130 3.5Q87 18 55 41V165Q91 133 135 115Q179 97 227 97Q279 97 312 120.5Q345 144 345 192Q345 220 331 240Q317 260 292.5 273Q268 286 236 292Q204 298 168 297V300L282 502H60Z" glyph-name="three.lt" horiz-adv-x="520" /><glyph d="M26 341H256V339L189 207Q220 194 237.5 169.5Q255 145 255 112Q255 84 245 62.5Q235 41 217.5 26Q200 11 176.5 3Q153 -5 127 -5Q92 -5 67 3Q42 11 24 24V108Q66 71 117 71Q141 71 154.5 81Q168 91 168 111Q168 137 142.5 148Q117 159 84 157V158L137 261H26Z" glyph-name="threeinferior" horiz-adv-x="279" unicode="&#8323;" /><glyph d="M184 0H94L525 614H615ZM46 614H276V612L209 480Q241 466 258 441.5Q275 417 275 384Q275 356 265 334.5Q255 313 237.5 298Q220 283 197 275Q174 267 148 267Q112 267 87.5 275.5Q63 284 45 296V381Q65 363 88.5 353Q112 343 137 343Q188 343 188 383Q188 410 163 420.5Q138 431 105 429V431L157 533H46ZM505 137H557V194H636V137H678V62H636V0H557V62H390V88L508 341H598Z" glyph-name="threequarters" horiz-adv-x="718" unicode="&#190;" /><glyph d="M25 614H255V612L188 480Q220 466 237 441.5Q254 417 254 384Q254 356 244 334.5Q234 313 216.5 298Q199 283 176 275Q153 267 127 267Q91 267 66.5 275.5Q42 284 24 296V381Q44 363 67.5 353Q91 343 116 343Q167 343 167 383Q167 410 142 420.5Q117 431 84 429V431L136 533H25Z" glyph-name="threesuperior" horiz-adv-x="278" unicode="&#179;" /><glyph d="M393 643Q393 613 388 588Q383 563 372.5 544Q362 525 345.5 514.5Q329 504 307 504Q290 504 277 511Q264 518 252.5 527Q241 536 230 543Q219 550 208 550Q194 550 186.5 539Q179 528 178 508H107Q107 538 112 563Q117 588 127.5 607Q138 626 154 636.5Q170 647 193 647Q209 647 222.5 640Q236 633 248 624Q260 615 270.5 608Q281 601 292 601Q306 601 313.5 612Q321 623 322 643Z" glyph-name="tilde" horiz-adv-x="500" unicode="&#732;" /><glyph d="M399 802Q399 772 394 747Q389 722 379 703Q369 684 352.5 673.5Q336 663 314 663Q296 663 281 669.5Q266 676 252.5 684Q239 692 226.5 698.5Q214 705 201 705Q173 705 172 666H101Q101 696 106 721Q111 746 121 765Q131 784 147 794.5Q163 805 186 805Q204 805 219 798.5Q234 792 247.5 784Q261 776 273.5 769.5Q286 763 299 763Q326 763 328 802Z" glyph-name="tilde.cap" horiz-adv-x="500" /><glyph d="M20 614H248V550H171V360H97V550H20ZM414 412 353 498V360H281V614H349L417 515L485 614H552V360H481V498L419 412Z" glyph-name="trademark" horiz-adv-x="590" unicode="&#8482;" /><glyph d="M437 111V0H17V4L196 238Q217 266 235 289.5Q253 313 266 335.5Q279 358 286.5 380Q294 402 294 426Q294 462 271.5 484Q249 506 205 506Q180 506 155.5 499Q131 492 109 480.5Q87 469 67.5 454.5Q48 440 33 426V551Q66 582 117 603Q168 624 228 624Q318 624 370.5 575Q423 526 423 442Q423 412 414 382.5Q405 353 389.5 324.5Q374 296 354 267.5Q334 239 312 209L237 111Z" glyph-name="two" horiz-adv-x="462" unicode="2" /><glyph d="M462 111V0H30V4L209 238Q231 266 249 289.5Q267 313 280 335.5Q293 358 300 380Q307 402 307 426Q307 462 285 484Q263 506 219 506Q193 506 169 499Q145 492 123 480.5Q101 469 81.5 454.5Q62 440 46 426V551Q79 582 130.5 603Q182 624 242 624Q331 624 383.5 575Q436 526 436 442Q436 412 427 382.5Q418 353 402.5 324.5Q387 296 367 267.5Q347 239 325 209L250 111Z" glyph-name="two.lt" horiz-adv-x="520" /><glyph d="M271 80V0H17V2L116 134Q140 166 153 185.5Q166 205 166 225Q166 242 154.5 252Q143 262 123 262Q97 262 71 247Q45 232 28 219V307Q48 324 79 335Q110 346 148 346Q199 346 229 318.5Q259 291 259 245Q259 213 242 183.5Q225 154 203 123L172 80Z" glyph-name="twoinferior" horiz-adv-x="291" unicode="&#8322;" /><glyph d="M271 353V273H17V275L116 407Q140 438 153 457.5Q166 477 166 498Q166 515 154.5 525Q143 535 123 535Q97 535 71 520Q45 505 28 491V580Q48 596 79 607.5Q110 619 148 619Q199 619 229 591Q259 563 259 517Q259 485 242 456Q225 427 203 396L172 353Z" glyph-name="twosuperior" horiz-adv-x="291" unicode="&#178;" /><glyph d="M450 0H326V41Q307 20 276 5Q245 -10 206 -10Q131 -10 90 35Q49 80 49 155V447H173V180Q173 145 190.5 123Q208 101 245 101Q274 101 296 117.5Q318 134 325 163V447H450Z" glyph-name="u" horiz-adv-x="503" unicode="u" /><glyph d="M191 508 270 650H393L303 508ZM450 0H326V41Q307 20 276 5Q245 -10 206 -10Q131 -10 90 35Q49 80 49 155V447H173V180Q173 145 190.5 123Q208 101 245 101Q274 101 296 117.5Q318 134 325 163V447H450Z" glyph-name="uacute" horiz-adv-x="503" unicode="&#250;" /><glyph d="M450 0H326V41Q307 20 276 5Q245 -10 206 -10Q131 -10 90 35Q49 80 49 155V447H173V180Q173 145 190.5 123Q208 101 245 101Q274 101 296 117.5Q318 134 325 163V447H450ZM252 492Q192 492 155.5 528Q119 564 119 634H207Q207 608 218 592Q229 576 252 576Q275 576 286 592Q297 608 297 634H385Q385 564 348.5 528Q312 492 252 492Z" glyph-name="ubreve" horiz-adv-x="503" unicode="&#365;" /><glyph d="M399 502H301L252 571L203 502H105L200 647H304ZM450 0H326V41Q307 20 276 5Q245 -10 206 -10Q131 -10 90 35Q49 80 49 155V447H173V180Q173 145 190.5 123Q208 101 245 101Q274 101 296 117.5Q318 134 325 163V447H450Z" glyph-name="ucircumflex" horiz-adv-x="503" unicode="&#251;" /><glyph d="M104 570Q104 599 123.5 618Q143 637 171 637Q198 637 217.5 618Q237 599 237 570Q237 543 217.5 523.5Q198 504 171 504Q143 504 123.5 523.5Q104 543 104 570ZM268 570Q268 599 287.5 618Q307 637 334 637Q361 637 381 618Q401 599 401 570Q401 543 381 523.5Q361 504 334 504Q307 504 287.5 523.5Q268 543 268 570ZM450 0H326V41Q307 20 276 5Q245 -10 206 -10Q131 -10 90 35Q49 80 49 155V447H173V180Q173 145 190.5 123Q208 101 245 101Q274 101 296 117.5Q318 134 325 163V447H450Z" glyph-name="udieresis" horiz-adv-x="503" unicode="&#252;" /><glyph d="M450 0H326V41Q307 20 276 5Q245 -10 206 -10Q131 -10 90 35Q49 80 49 155V447H173V180Q173 145 190.5 123Q208 101 245 101Q274 101 296 117.5Q318 134 325 163V447H450ZM201 508 112 650H235L314 508Z" glyph-name="ugrave" horiz-adv-x="503" unicode="&#249;" /><glyph d="M450 0H326V41Q307 20 276 5Q245 -10 206 -10Q131 -10 90 35Q49 80 49 155V447H173V180Q173 145 190.5 123Q208 101 245 101Q274 101 296 117.5Q318 134 325 163V447H450ZM128 508 195 650H294L226 508ZM269 508 336 650H435L367 508Z" glyph-name="uhungarumlaut" horiz-adv-x="503" unicode="&#369;" /><glyph d="M450 0H326V41Q307 20 276 5Q245 -10 206 -10Q131 -10 90 35Q49 80 49 155V447H173V180Q173 145 190.5 123Q208 101 245 101Q274 101 296 117.5Q318 134 325 163V447H450ZM134 607H371V516H134Z" glyph-name="umacron" horiz-adv-x="503" unicode="&#363;" /><glyph d="M20 -42H361V-143H20Z" glyph-name="underscore" horiz-adv-x="381" unicode="_" /><glyph d="M210 273H119V510L32 467V559L147 614H210ZM168 0H78L509 614H599ZM454 341H684V339L617 207Q648 194 665.5 169.5Q683 145 683 112Q683 84 673 62.5Q663 41 645.5 26Q628 11 604.5 3Q581 -5 555 -5Q520 -5 495 3Q470 11 452 24V108Q494 71 545 71Q569 71 582.5 81Q596 91 596 111Q596 137 570.5 148Q545 159 512 157V158L565 261H454Z" glyph-name="uni2153" horiz-adv-x="728" unicode="&#8531;" /><glyph d="M233 0H143L574 614H664ZM292 356V276H38V278L137 410Q161 441 174 460.5Q187 480 187 501Q187 518 175.5 528Q164 538 144 538Q118 538 92 523Q66 508 49 494V583Q69 599 100 610.5Q131 622 169 622Q220 622 250 594Q280 566 280 520Q280 488 263 459Q246 430 224 399L193 356ZM519 341H749V339L682 207Q713 194 730.5 169.5Q748 145 748 112Q748 84 738 62.5Q728 41 710.5 26Q693 11 669.5 3Q646 -5 620 -5Q585 -5 560 3Q535 11 517 24V108Q559 71 610 71Q634 71 647.5 81Q661 91 661 111Q661 137 635.5 148Q610 159 577 157V158L630 261H519Z" glyph-name="uni2154" horiz-adv-x="794" unicode="&#8532;" /><glyph d="M210 273H119V510L32 467V559L147 614H210ZM168 0H78L509 614H599ZM551 66Q568 66 580 76Q592 86 592 103Q592 119 580 128.5Q568 138 551 138Q533 138 521 128.5Q509 119 509 103Q509 86 521 76Q533 66 551 66ZM551 211Q567 211 577 220.5Q587 230 587 245Q587 260 577 269.5Q567 279 551 279Q534 279 523.5 269.5Q513 260 513 245Q513 230 523.5 220.5Q534 211 551 211ZM551 -5Q524 -5 500 2Q476 9 458.5 21.5Q441 34 430.5 52.5Q420 71 420 95Q420 125 435.5 145Q451 165 474 173Q454 184 442.5 203.5Q431 223 431 247Q431 271 440.5 290Q450 309 466.5 321.5Q483 334 505 340.5Q527 347 551 347Q574 347 595.5 340.5Q617 334 633.5 321.5Q650 309 660 290Q670 271 670 247Q670 223 658.5 203.5Q647 184 626 173Q649 165 664.5 145Q680 125 680 95Q680 71 670 52.5Q660 34 642.5 21.5Q625 9 601.5 2Q578 -5 551 -5Z" glyph-name="uni215B" horiz-adv-x="728" unicode="&#8539;" /><glyph d="M184 0H94L525 614H615ZM46 614H276V612L209 480Q241 466 258 441.5Q275 417 275 384Q275 356 265 334.5Q255 313 237.5 298Q220 283 197 275Q174 267 148 267Q112 267 87.5 275.5Q63 284 45 296V381Q65 363 88.5 353Q112 343 137 343Q188 343 188 383Q188 410 163 420.5Q138 431 105 429V431L157 533H46ZM567 66Q584 66 596 76Q608 86 608 103Q608 119 596 128.5Q584 138 567 138Q549 138 537 128.5Q525 119 525 103Q525 86 537 76Q549 66 567 66ZM567 211Q583 211 593 220.5Q603 230 603 245Q603 260 593 269.5Q583 279 567 279Q550 279 539.5 269.5Q529 260 529 245Q529 230 539.5 220.5Q550 211 567 211ZM567 -5Q540 -5 516 2Q492 9 474.5 21.5Q457 34 446.5 52.5Q436 71 436 95Q436 125 451.5 145Q467 165 490 173Q470 184 458.5 203.5Q447 223 447 247Q447 271 456.5 290Q466 309 482.5 321.5Q499 334 521 340.5Q543 347 567 347Q590 347 611.5 340.5Q633 334 649.5 321.5Q666 309 676 290Q686 271 686 247Q686 223 674.5 203.5Q663 184 642 173Q665 165 680.5 145Q696 125 696 95Q696 71 686 52.5Q676 34 658.5 21.5Q641 9 617.5 2Q594 -5 567 -5Z" glyph-name="uni215C" horiz-adv-x="744" unicode="&#8540;" /><glyph d="M188 0H98L529 614H619ZM571 66Q588 66 600 76Q612 86 612 103Q612 119 600 128.5Q588 138 571 138Q553 138 541 128.5Q529 119 529 103Q529 86 541 76Q553 66 571 66ZM571 211Q587 211 597 220.5Q607 230 607 245Q607 260 597 269.5Q587 279 571 279Q554 279 543.5 269.5Q533 260 533 245Q533 230 543.5 220.5Q554 211 571 211ZM571 -5Q544 -5 520 2Q496 9 478.5 21.5Q461 34 450.5 52.5Q440 71 440 95Q440 125 455.5 145Q471 165 494 173Q474 184 462.5 203.5Q451 223 451 247Q451 271 460.5 290Q470 309 486.5 321.5Q503 334 525 340.5Q547 347 571 347Q594 347 615.5 340.5Q637 334 653.5 321.5Q670 309 680 290Q690 271 690 247Q690 223 678.5 203.5Q667 184 646 173Q669 165 684.5 145Q700 125 700 95Q700 71 690 52.5Q680 34 662.5 21.5Q645 9 621.5 2Q598 -5 571 -5ZM155 496Q208 496 243 466Q278 436 278 382Q278 329 240.5 298Q203 267 146 267Q113 267 88.5 275Q64 283 46 295V378Q63 362 87.5 352Q112 342 138 342Q161 342 176.5 351.5Q192 361 192 382Q192 403 176 413Q160 423 134 423Q114 423 93.5 419.5Q73 416 57 410V614H260V534H129V493Q139 496 155 496Z" glyph-name="uni215D" horiz-adv-x="748" unicode="&#8541;" /><glyph d="M149 0H59L490 614H580ZM531 66Q548 66 560 76Q572 86 572 103Q572 119 560 128.5Q548 138 531 138Q513 138 501 128.5Q489 119 489 103Q489 86 501 76Q513 66 531 66ZM531 211Q547 211 557 220.5Q567 230 567 245Q567 260 557 269.5Q547 279 531 279Q514 279 503.5 269.5Q493 260 493 245Q493 230 503.5 220.5Q514 211 531 211ZM531 -5Q504 -5 480 2Q456 9 438.5 21.5Q421 34 410.5 52.5Q400 71 400 95Q400 125 415.5 145Q431 165 454 173Q434 184 422.5 203.5Q411 223 411 247Q411 271 420.5 290Q430 309 446.5 321.5Q463 334 485 340.5Q507 347 531 347Q554 347 575.5 340.5Q597 334 613.5 321.5Q630 309 640 290Q650 271 650 247Q650 223 638.5 203.5Q627 184 606 173Q629 165 644.5 145Q660 125 660 95Q660 71 650 52.5Q640 34 622.5 21.5Q605 9 581.5 2Q558 -5 531 -5ZM149 273H53L173 534H39V614H304V612Z" glyph-name="uni215E" horiz-adv-x="708" unicode="&#8542;" /><glyph d="M450 0Q435 -21 425.5 -34Q416 -47 410 -56.5Q404 -66 402 -73Q400 -80 400 -88Q400 -97 405 -103Q410 -109 420 -109Q429 -109 436.5 -105Q444 -101 456 -93V-167Q443 -176 428.5 -182Q414 -188 395 -188Q355 -188 333.5 -167.5Q312 -147 312 -113Q312 -82 328.5 -55.5Q345 -29 367 0H326V41Q307 20 276 5Q245 -10 206 -10Q131 -10 90 35Q49 80 49 155V447H173V180Q173 145 190.5 123Q208 101 245 101Q274 101 296 117.5Q318 134 325 163V447H450Z" glyph-name="uogonek" horiz-adv-x="503" unicode="&#371;" /><glyph d="M351 584Q351 563 343.5 545.5Q336 528 322.5 515Q309 502 291 494.5Q273 487 252 487Q231 487 213 494.5Q195 502 181.5 515Q168 528 160.5 545.5Q153 563 153 584Q153 605 160.5 622.5Q168 640 181.5 653Q195 666 213 673.5Q231 681 252 681Q273 681 291 673.5Q309 666 322.5 653Q336 640 343.5 622.5Q351 605 351 584ZM292 584Q292 601 280.5 612.5Q269 624 252 624Q235 624 224 612.5Q213 601 213 584Q213 567 224 556Q235 545 252 545Q269 545 280.5 556Q292 567 292 584ZM450 0H326V41Q307 20 276 5Q245 -10 206 -10Q131 -10 90 35Q49 80 49 155V447H173V180Q173 145 190.5 123Q208 101 245 101Q274 101 296 117.5Q318 134 325 163V447H450Z" glyph-name="uring" horiz-adv-x="503" unicode="&#367;" /><glyph d="M450 0H326V41Q307 20 276 5Q245 -10 206 -10Q131 -10 90 35Q49 80 49 155V447H173V180Q173 145 190.5 123Q208 101 245 101Q274 101 296 117.5Q318 134 325 163V447H450ZM395 643Q395 613 390 588Q385 563 374.5 544Q364 525 347.5 514.5Q331 504 309 504Q292 504 279 511Q266 518 254.5 527Q243 536 232 543Q221 550 210 550Q196 550 188.5 539Q181 528 180 508H109Q109 538 114 563Q119 588 129.5 607Q140 626 156 636.5Q172 647 195 647Q211 647 224.5 640Q238 633 250 624Q262 615 272.5 608Q283 601 294 601Q308 601 315.5 612Q323 623 324 643Z" glyph-name="utilde" horiz-adv-x="503" unicode="&#361;" /><glyph d="M182 0 13 447H143L246 150L347 447H472L302 0Z" glyph-name="v" horiz-adv-x="485" unicode="v" /><glyph d="M459 162 539 447H659L523 0H409L336 274L263 0H149L13 447H137L217 162L290 447H385Z" glyph-name="w" horiz-adv-x="672" unicode="w" /><glyph d="M274 508 353 650H476L386 508ZM459 162 539 447H659L523 0H409L336 274L263 0H149L13 447H137L217 162L290 447H385Z" glyph-name="wacute" horiz-adv-x="672" unicode="&#7811;" /><glyph d="M483 502H385L336 571L287 502H189L284 647H388ZM459 162 539 447H659L523 0H409L336 274L263 0H149L13 447H137L217 162L290 447H385Z" glyph-name="wcircumflex" horiz-adv-x="672" unicode="&#373;" /><glyph d="M188 570Q188 599 207.5 618Q227 637 255 637Q282 637 301.5 618Q321 599 321 570Q321 543 301.5 523.5Q282 504 255 504Q227 504 207.5 523.5Q188 543 188 570ZM352 570Q352 599 371.5 618Q391 637 418 637Q445 637 465 618Q485 599 485 570Q485 543 465 523.5Q445 504 418 504Q391 504 371.5 523.5Q352 543 352 570ZM459 162 539 447H659L523 0H409L336 274L263 0H149L13 447H137L217 162L290 447H385Z" glyph-name="wdieresis" horiz-adv-x="672" unicode="&#7813;" /><glyph d="M459 162 539 447H659L523 0H409L336 274L263 0H149L13 447H137L217 162L290 447H385ZM284 508 195 650H318L397 508Z" glyph-name="wgrave" horiz-adv-x="672" unicode="&#7809;" /><glyph d="M306 231 469 0H332L236 140L139 0H9L170 228L18 447H155L241 320L329 447H459Z" glyph-name="x" horiz-adv-x="477" unicode="x" /><glyph d="M119 -165 184 -2 13 447H144L247 150L349 447H474L241 -165Z" glyph-name="y" horiz-adv-x="487" unicode="y" /><glyph d="M119 -165 184 -2 13 447H144L247 150L349 447H474L241 -165ZM185 508 264 650H387L297 508Z" glyph-name="yacute" horiz-adv-x="487" unicode="&#253;" /><glyph d="M119 -165 184 -2 13 447H144L247 150L349 447H474L241 -165ZM394 502H296L247 571L198 502H100L195 647H299Z" glyph-name="ycircumflex" horiz-adv-x="487" unicode="&#375;" /><glyph d="M119 -165 184 -2 13 447H144L247 150L349 447H474L241 -165ZM99 570Q99 599 118.5 618Q138 637 166 637Q193 637 212.5 618Q232 599 232 570Q232 543 212.5 523.5Q193 504 166 504Q138 504 118.5 523.5Q99 543 99 570ZM263 570Q263 599 282.5 618Q302 637 329 637Q356 637 376 618Q396 599 396 570Q396 543 376 523.5Q356 504 329 504Q302 504 282.5 523.5Q263 543 263 570Z" glyph-name="ydieresis" horiz-adv-x="487" unicode="&#255;" /><glyph d="M65 340H170L19 614H156L283 372L410 614H542L389 340H495V256H343V200H495V116H343V0H217V116H65V200H217V256H65Z" glyph-name="yen" horiz-adv-x="561" unicode="&#165;" /><glyph d="M47 340H153L14 614H148L263 377L376 614H506L365 340H471V256H322V200H471V116H322V0H196V116H47V200H196V256H47Z" glyph-name="yen.lt" horiz-adv-x="520" /><glyph d="M119 -165 184 -2 13 447H144L247 150L349 447H474L241 -165ZM195 508 106 650H229L308 508Z" glyph-name="ygrave" horiz-adv-x="487" unicode="&#7923;" /><glyph d="M404 0H22V4L223 347H33V447H404V443L207 100H404Z" glyph-name="z" horiz-adv-x="436" unicode="z" /><glyph d="M159 508 238 650H361L271 508ZM404 0H22V4L223 347H33V447H404V443L207 100H404Z" glyph-name="zacute" horiz-adv-x="436" unicode="&#378;" /><glyph d="M274 502H170L75 647H173L222 578L271 647H369ZM404 0H22V4L223 347H33V447H404V443L207 100H404Z" glyph-name="zcaron" horiz-adv-x="436" unicode="&#382;" /><glyph d="M404 0H22V4L223 347H33V447H404V443L207 100H404ZM296 579Q296 547 273.5 527.5Q251 508 222 508Q193 508 170.5 527.5Q148 547 148 579Q148 610 170.5 630Q193 650 222 650Q251 650 273.5 630Q296 610 296 579Z" glyph-name="zdotaccent" horiz-adv-x="436" unicode="&#380;" /><glyph d="M274 -10Q220 -10 175.5 13Q131 36 99 78Q67 120 49.5 178.5Q32 237 32 307Q32 377 49.5 435.5Q67 494 99 536Q131 578 175.5 601Q220 624 274 624Q328 624 372.5 601Q417 578 449 536Q481 494 498.5 435.5Q516 377 516 307Q516 237 498.5 178.5Q481 120 449 78Q417 36 372.5 13Q328 -10 274 -10ZM274 510Q243 510 221 494.5Q199 479 184.5 451.5Q170 424 163.5 387Q157 350 157 307Q157 264 163.5 227Q170 190 184.5 162.5Q199 135 221 119.5Q243 104 274 104Q305 104 327 119.5Q349 135 363 162.5Q377 190 384 227Q391 264 391 307Q391 350 384 387Q377 424 363 451.5Q349 479 327 494.5Q305 510 274 510Z" glyph-name="zero" horiz-adv-x="548" unicode="0" /><glyph d="M260 -10Q206 -10 162.5 13Q119 36 88.5 78Q58 120 41.5 178.5Q25 237 25 307Q25 377 41.5 435.5Q58 494 88.5 536Q119 578 162.5 601Q206 624 260 624Q314 624 357.5 601Q401 578 431.5 536Q462 494 478.5 435.5Q495 377 495 307Q495 237 478.5 178.5Q462 120 431.5 78Q401 36 357.5 13Q314 -10 260 -10ZM260 510Q230 510 209 494.5Q188 479 174.5 451.5Q161 424 155 387Q149 350 149 307Q149 264 155 227Q161 190 174.5 162.5Q188 135 209 119.5Q230 104 260 104Q290 104 310.5 119.5Q331 135 344.5 162.5Q358 190 364 227Q370 264 370 307Q370 350 364 387Q358 424 344.5 451.5Q331 479 310.5 494.5Q290 510 260 510Z" glyph-name="zero.lt" horiz-adv-x="520" /></font>
</defs>
</svg>
