<?xml version="1.0" standalone="no"?>
<!DOCTYPE svg PUBLIC "-//W3C//DTD SVG 1.1//EN" "http://www.w3.org/Graphics/SVG/1.1/DTD/svg11.dtd">
<svg xmlns="http://www.w3.org/2000/svg">
<metadata>Telerik</metadata>
<defs>
<font id="widgets" horiz-adv-x="1024" >
<font-face font-family="widgets" font-weight="400" font-stretch="normal" units-per-em="1024" ascent="880" descent="-144" />
<missing-glyph horiz-adv-x="1024" />
<glyph glyph-name="actionsheet" unicode="&#xe800;" d="m85-59h854l-86-85h-768v85z m0 86h768l86 85h-854v-85z m0 170h768l86 86h-854v-86z m854 683v-512h-854v512h854z m-86-85h-682v-342h682v342z" horiz-adv-x="1024" />
<glyph glyph-name="application" unicode="&#xe801;" d="m85 709v-682h512v-171h342v853h-854z m768-768h-170v171h-512v512h682v-683z m-768 0h171v-85h-171v85z m598 470h-427v85h512l-85-85z m-427-171v85h341l-85-85h-256z m85-299h171v-85h-171v85z m598 939v-85h-171v85h171z m-256-85h-342v85h342v-85z m-427 0h-171v85h171v-85z" horiz-adv-x="1024" />
<glyph glyph-name="areacharts" unicode="&#xe802;" d="m683 489l-171 170-299-298-213 213v-121-426-43-43h939 85v86 682 121l-341-341z m256-462h-854v341l128-128 299 299 171-171 256 256v-597z" horiz-adv-x="1024" />
<glyph glyph-name="autocomplete" unicode="&#xe803;" d="m853 62l-120-121h-562v683h-86v-683-85h86 597l171 171v640h-86v-605z m-597 519v-85h427l85 85h-512z m512-170h-512v-86h427l85 86z m-512-256h256l85 85h-341v-85z m341 682v-85h342l85 85h-427z m-597 43h512v-171h-512v171z" horiz-adv-x="1024" />
<glyph glyph-name="barcharts" unicode="&#xe804;" d="m0 27v-86h939l85 86h-1024z m512 554h171v-469h-171v469z m256 214h171v-683h-171v683z m-512-86h171v-597h-171v597z m-256-213h171v-384h-171v384z" horiz-adv-x="1024" />
<glyph glyph-name="barcode" unicode="&#xe805;" d="m43-59h85v854l-85-86v-768z m170 256h86v598l-86-86v-512z m171-256h85v854l-85-86v-768z m171 256h85v598l-85-86v-512z m170 0h86v598l-86-86v-512z m171 512v-768h85v854l-85-86z" horiz-adv-x="1024" />
<glyph glyph-name="boxplotcharts" unicode="&#xe806;" d="m0 27v-86h939l85 86h-1024z m512 469h171v-128h-171v128z m-256 43h171v-86h-171v86z m-256-43h171v-213h-171v213z m128 299l-85-86v-170h85v256z m256-43l-85-85v-86h85v171z m256-43l-85-85v-85h85v170z m-597-469h85v-128h-85v128z m256 171h85v-171h-85v171z m469 0h171v-86h-171v86z m43-128h85v-86h-85v86z m85 384l-85-86v-128h85v214z m-341-342h85v-170h-85v170z" horiz-adv-x="1024" />
<glyph glyph-name="bubblecharts" unicode="&#xe807;" d="m0 69v-85h939l85 85h-1024z m192 299c35 0 64-29 64-64s-29-64-64-64-64 29-64 64 29 64 64 64z m661 341c47 0 86-38 86-85s-39-85-86-85-85 38-85 85 38 85 85 85z m-213-554c94 0 171 76 171 170s-77 171-171 171-171-76-171-171 77-170 171-170z m0 270c55 0 100-45 100-100s-45-99-100-99-100 44-100 99 45 100 100 100z m-299-14c71 0 128 57 128 128s-57 128-128 128-128-58-128-128 58-128 128-128z m0 170c24 0 43-19 43-42s-19-43-43-43-42 19-42 43 19 42 42 42z" horiz-adv-x="1024" />
<glyph glyph-name="bulletcharts" unicode="&#xe808;" d="m0 539h512v-171h-512v171z m683 0h256v-171h-256v171z m-128-256h85v426l-85-85v-341z m-555-171h1024l-85-85h-939v85z" horiz-adv-x="1024" />
<glyph glyph-name="button" unicode="&#xe809;" d="m811 411h-598v-86h512l86 86z m-811 256v-598h1024v598h-1024z m939-512h-854v426h854v-426z" horiz-adv-x="1024" />
<glyph glyph-name="buttongroup" unicode="&#xe80a;" d="m43 539v-384h981v384h-981z m85-299v213h213v-213h-213z m299 0v213h213v-213h-213z m512 0h-214v213h214v-213z" horiz-adv-x="1024" />
<glyph glyph-name="calendar" unicode="&#xe80b;" d="m853 62l-120-121h-562v726h-86v-726-85h86 597l171 171v640h-86v-605z m-213 818h85v-171h-85v171z m-256-341l-85-86v-341h85v427z m85-86h171v-85h-85l-86-85v-86l86-85h85l85 85h-170v86h85l85 85v85l-85 86h-85l-86-86z m-170 427h85v-171h-85v171z m-299-43h256v-85h-256v85z m768 0v-85h171l85 85h-256z m-341 0h170v-85h-170v85z" horiz-adv-x="1024" />
<glyph glyph-name="colorpicker" unicode="&#xe80c;" d="m512 880c0 0-384-341-384-640 0-212 172-384 384-384 212 0 384 172 384 384 0 299-384 640-384 640z m0-939c-165 0-299 134-299 299 0 256 299 524 299 524s299-268 299-524c0-165-134-299-299-299z m-43 214v-86c118 0 214 96 214 214h-86c0-71-57-128-128-128z" horiz-adv-x="1024" />
<glyph glyph-name="datasource" unicode="&#xe80d;" d="m512 453c47 0 85-38 85-85s-38-85-85-85-85 38-85 85 38 85 85 85z m512-128l-85 86h-136l68 67-60 61-171-171 171-171 60 61-68 67h221z m-811 214l-60-61 68-67h-221l85-86h136l-68-67 60-61 171 171-171 171z m470 128l-61 60-67-68v221l-86-85v-136l-67 68-61-60 171-171 171 171z m-342-598l61-60 67 68v-221l86 85v136l67-68 61 60-171 171-171-171z" horiz-adv-x="1024" />
<glyph glyph-name="datepicker" unicode="&#xe80e;" d="m427 581h128v-128h-128v128z m170 0h128v-128h-128v128z m-341-170h128v-128h-128v128z m171 0h128v-128h-128v128z m170 0h128v-128h-128v128z m-341-171h128v-128h-128v128z m171 0h128v-128h-128v128z m384-178l-121-121h-519v768h-86v-853h86 554l171 171v682h-85v-647z m-811 818v-85h939l85 85h-1024z" horiz-adv-x="1024" />
<glyph glyph-name="diagram" unicode="&#xe80f;" d="m207 508l165 165 61-61-165-165-61 61z m305 329c47 0 85-38 85-85s-38-85-85-85-85 38-85 85 38 85 85 85z m-384-384c47 0 85-38 85-85s-38-85-85-85-85 38-85 85 38 85 85 85z m463 159l61 61 165-165-61-61-165 165z m305-159c47 0 85-38 85-85s-38-85-85-85-85 38-85 85 38 85 85 85z m-384-384c47 0 85-38 85-85s-38-85-85-85-85 38-85 85 38 85 85 85z m-43 512h86v-426h-86v426z" horiz-adv-x="1024" />
<glyph glyph-name="donutcharts" unicode="&#xe810;" d="m470 621v86c-154-19-276-141-295-295h86c18 107 102 191 209 209z m43-508c-127 0-232 92-252 213h-86c21-168 164-298 338-298 188 0 341 153 341 341 0 174-130 317-298 338v-86c121-20 213-125 213-252 0-141-115-256-256-256z m424 299h86c-21 248-219 446-467 467v-85c201-20 362-181 381-382z m-851-43c0 221 169 403 384 425v85c-262-22-469-242-469-510 0-115 38-221 103-306l60 61c-49 69-78 154-78 245z m427-427c-113 0-216 45-292 117l-61-60c92-88 216-142 353-142 268 0 488 207 510 469h-86c-21-215-203-384-424-384z" horiz-adv-x="1024" />
<glyph glyph-name="draganddrop" unicode="&#xe811;" d="m341 709h-85v-597-85h85 256l86 85h-342v597z m-170-170h-86v-598-85h86 256l85 85h-341v598z m682 341h-341-85v-85-512-86h85 256l171 171v427 85h-86z m0-477l-120-120h-221v512h341v-392z" horiz-adv-x="1024" />
<glyph glyph-name="drawer" unicode="&#xe812;" d="m85 69h854l-86-85h-768v85z m0 86h768l86 85h-854v-85z m0 170h768l86 86h-854v-86z m0 171h768l86 85h-854v-85z m854 256h-854v-85h768l86 85z" horiz-adv-x="1024" />
<glyph glyph-name="dropdownlist" unicode="&#xe813;" d="m853 62l-120-121h-562v768h-86v-768-85h86 597l171 171v682h-86v-647z m-597 562v-85h427l85 85h-512z m-256 256v-85h939l85 85h-1024z m256-512h427l85 85h-512v-85z m0-171h256l85 86h-341v-86z" horiz-adv-x="1024" />
<glyph glyph-name="editor" unicode="&#xe814;" d="m171 624v-85h341l85 85h-426z m426-171h-426v-85h341l85 85z m-426-256h170l86 86h-256v-86z m256-50l-121-120h121l597 597v121l-597-598z m341-85l-121-121h-562v854h683v-171l85 85v171h-85-768v-85-854-85h85 598l170 171v298l-85-85v-178z" horiz-adv-x="1024" />
<glyph glyph-name="effects" unicode="&#xe815;" d="m256 539l-60-61 110-110-110-110 60-61 171 171-171 171z m572-61l-60 61-171-171 171-171 60 61-110 110 110 110z m-487-366l61-60 110 110 110-110 61 60-171 171-171-171z m342 512l-61 60-110-110-110 110-61-60 171-171 171 171z" horiz-adv-x="1024" />
<glyph glyph-name="funnelcharts" unicode="&#xe816;" d="m43 837v-85l341-341v-512l85 85v462l-306 306h698l-306-306v-377l85 86v256l341 341v85h-938z" horiz-adv-x="1024" />
<glyph glyph-name="globalization" unicode="&#xe817;" d="m512 880c-283 0-512-229-512-512s229-512 512-512c283 0 512 229 512 512s-229 512-512 512z m43-381c55 3 107 11 156 23 7-35 11-72 13-111h-169v88z m0 86v201c56-23 104-90 135-183-42-9-87-16-135-18z m-86 201v-201c-48 2-93 9-135 18 31 93 79 160 135 183z m0-287v-88h-169c2 39 6 76 13 111 49-12 101-20 156-23z m-254-88h-128c7 64 28 124 60 177 26-15 54-29 85-41-9-43-15-89-17-136z m0-86c2-47 8-93 17-136-31-12-59-26-85-41-32 53-53 113-60 177h128z m85 0h169v-88c-55-3-107-11-156-23-7 35-11 72-13 111z m169-174v-201c-56 23-104 90-135 183 42 9 87 16 135 18z m86-201v201c48-2 93-9 135-18-31-93-79-160-135-183z m0 287v88h169c-2-39-6-76-13-111-49 12-101 20-156 23z m254 88h128c-7-64-28-124-60-177-26 15-54 29-85 41 9 43 15 89 17 136z m0 86c-2 47-8 93-17 136 31 12 59 26 85 41 32-53 53-113 60-177h-128z m19 243c-18-10-38-19-59-27-15 43-33 83-54 117 42-24 81-54 113-90z m-519 90c-21-34-39-73-54-117-21 8-41 17-59 27 32 36 71 66 113 90z m-113-662c18 10 38 19 59 27 15-43 33-83 55-117-43 24-82 54-114 90z m518-90c22 34 40 74 55 117 21-8 41-17 59-27-32-36-71-66-114-90z" horiz-adv-x="1024" />
<glyph glyph-name="grid" unicode="&#xe818;" d="m256 27l85 85h128v-85l86 85h128v-85l85 85 85 85h-85v128l85 86h-85v128l85 85h-85v85h-85v-85h-128v85h-86v-85h-128v85h-85v-85h-85v-85h85v-128h-85v-86h85v-128h-85v-85h85v-85z m427 170h-128v128h128v-128z m0 342v-128h-128v128h128z m-342 0h128v-128h-128v128z m0-214h128v-128h-128v128z m-341 555v-85-854-42-43h853l171 171v768 85h-1024z m939-818l-121-121h-733v854h854v-733z" horiz-adv-x="1024" />
<glyph glyph-name="layout" unicode="&#xe819;" d="m85 709v-682h256v-171h342v171h256v682h-854z m768-597h-256v-171h-170v171h-256v512h682v-512z m-768-171h171v-85h-171v85z m598 470h-427v85h512l-85-85z m-427-171v85h341l-85-85h-256z m512-299h171v-85h-171v85z m171 939v-85h-171v85h171z m-256-85h-342v85h342v-85z m-427 0h-171v85h171v-85z" horiz-adv-x="1024" />
<glyph glyph-name="lineargauge" unicode="&#xe81a;" d="m427 411h170v-512h-170v512z m0 426h170v-256h-170v256z m-171-298v-86h427l85 86h-512z" horiz-adv-x="1024" />
<glyph glyph-name="linecharts" unicode="&#xe81b;" d="m0-59h1024v-85h-1024v85z m512 505l-171-171-341 342v-121l341-341 171 170 256-256 256 256v121l-256-256-256 256z m213 43l-213 213-238-238 60-61 178 178 213-213 299 299v120l-299-298z m-632-206l-93-93v-121l153 153-60 61z" horiz-adv-x="1024" />
<glyph glyph-name="listview" unicode="&#xe81c;" d="m640 325h-85v-85-256-85h85 171l170 170v171 85h-85-256z m256-220l-121-121h-135v256h256v-135z m-768 220h-85v-85-256-85h85 171l170 170v171 85h-85-256z m256-220l-121-121h-135v256h256v-135z m512 732h-256-85v-85-256-85h85 171l170 170v171 85h-85z m0-220l-121-121h-135v256h256v-135z m-768 220h-85v-85-256-85h85 171l170 170v171 85h-85-256z m256-220l-121-121h-135v256h256v-135z" horiz-adv-x="1024" />
<glyph glyph-name="map" unicode="&#xe81d;" d="m512 880c-212 0-384-172-384-384 0-299 384-640 384-640s384 341 384 640c0 212-172 384-384 384z m0-908c0 0-299 268-299 524 0 165 134 299 299 299s299-134 299-299c0-256-299-524-299-524z m0 737c-118 0-213-95-213-213s95-213 213-213c118 0 213 95 213 213s-95 213-213 213z m0-341c-71 0-128 57-128 128s57 128 128 128 128-57 128-128-57-128-128-128z" horiz-adv-x="1024" />
<glyph glyph-name="maskedtextbox" unicode="&#xe81e;" d="m0 667v-598h1024v598h-1024z m939-512h-854v426h854v-426z m-768 145l60-60 68 68 67-68h0l61 60-68 68 68 68-61 60-67-68-68 68-60-60 67-68-67-68z m298 0l61-60 67 68 68-68h0l60 60-67 68 67 68-60 60-68-68-67 68-61-60 68-68-68-68z" horiz-adv-x="1024" />
<glyph glyph-name="menu" unicode="&#xe81f;" d="m981 795h-682v-86h597l85 86z m-682-342h597l85 86h-682v-86z m0-256h597l85 86h-682v-86z m0-256h597l85 86h-682v-86z m-256 896h170v-170h-170v170z m0-256h170v-170h-170v170z m0-256h170v-170h-170v170z m0-256h170v-170h-170v170z" horiz-adv-x="1024" />
<glyph glyph-name="modalview" unicode="&#xe820;" d="m85 709v-853h683l171 171h0v682h-854z m768-647l-120-121h-562v683h682v-562z m-170 306h-427v85h512l-85-85z m256 512v-85h-854v85h854z m-683-683v86h341l-85-86h-256z" horiz-adv-x="1024" />
<glyph glyph-name="multiselect" unicode="&#xe821;" d="m853 62l-120-121h-562v598h-86v-598-85h86 597l171 171v512h-86v-477z m-85 391h-512v-85h427l85 85z m-768 171h939l85 85h-1024v-85z m256-427h256l85 86h-341v-86z m768 683h-597v-85h512l85 85z m-1024 0h341v-85h-341v85z" horiz-adv-x="1024" />
<glyph glyph-name="mvvm" unicode="&#xe822;" d="m620 90l-108 107-60-60 67-67c-2 0-5-1-7-1-165 0-299 134-299 299 0 106 56 199 139 252l-28 29-33 33c-98-70-163-184-163-314 0-212 172-384 384-384 3 0 5 0 8 1l-68-69 60-60 110 110 56 56 5 5-61 60-2 3z m-74 660l69 70-60 60-111-110-31-31-29-30 60-60 111-110 60 60-65 65c147-19 261-144 261-296 0-95-45-180-114-234l46-47 14-14c85 70 139 176 139 295 0 201-154 365-350 382z" horiz-adv-x="1024" />
<glyph glyph-name="navbar" unicode="&#xe823;" d="m85 709v-853h683l171 171v682h-854z m768-647l-120-121h-562v683h682v-562z m-170 306h-427v85h512l-85-85z m256 512v-85h-171v85h171z m-683-683v86h341l-85-86h-256z m427 598h-342v85h342v-85z m-427 0h-171v85h171v-85z" horiz-adv-x="1024" />
<glyph glyph-name="notification" unicode="&#xe824;" d="m43 880v-768h554v-256h86l298 299v725h-938z m853-690l-213-213v135 43 42h-555v598h768v-605z m-171 434h-512v-85h427l85 85z m-256-256l86 85h-342v-85h256z" horiz-adv-x="1024" />
<glyph glyph-name="numerictextbox" unicode="&#xe825;" d="m0 667v-598h1024v598h-1024z m939-512h-854v426h854v-426z m-427 170h-341v-85h256l85 85z m256 171h85v-85h-85v85z m0-171h85v-85h-85v85z" horiz-adv-x="1024" />
<glyph glyph-name="panelbar" unicode="&#xe826;" d="m981 880h-938v-85h853l85 85z m-170-341h-598v-86h512l86 86z m-598-256h342l85 85h-427v-85z m-170-256h853l85 85h-938v-85z m0-171h853l85 85h-938v-85z m0 853v-85-427h85v427h768l85 85h-853-85z" horiz-adv-x="1024" />
<glyph glyph-name="piecharts" unicode="&#xe827;" d="m556 879v-467h467c-21 248-219 446-467 467z m85-103c133-41 237-146 279-279h-279v279z m-171 103c-262-22-469-241-469-510 0-126 46-241 121-330l348 348v492z m-85-457l-250-250c-32 61-49 128-49 197 0 188 126 352 299 407v-354z m-202-444c89-75 204-121 330-121 268 0 488 207 510 469h-492l-348-348z m737 263c-55-173-219-299-407-299-69 0-137 17-197 49l250 250h354z" horiz-adv-x="1024" />
<glyph glyph-name="polarcharts" unicode="&#xe828;" d="m725 496l-426 384-299-725 512 128 43-427 384 299 85 512-299-171z m135-294l-236-184-37 371-444-111 188 458 383-345 196 112-50-301z" horiz-adv-x="1024" />
<glyph glyph-name="popover" unicode="&#xe829;" d="m256 368h512l-85-85h-427v85z m0-256h256l85 85h-341v-85z m683 512v-768h-854v768h214l153 153 60 60 213-213h214z m-86-85h-163l-178 178-178-178h-163v-598h682v598z" horiz-adv-x="1024" />
<glyph glyph-name="progressbar" unicode="&#xe82a;" d="m1024 752h-171v-85h86l85 85z m-1024 43h768v-171h-768v171z m597-811h342l85 85h-427v-85z m-597 128h512v-171h-512v171z m256 213h683l85 86h-768v-86z m-256 128h171v-170h-171v170z" horiz-adv-x="1024" />
<glyph glyph-name="qrcode" unicode="&#xe82b;" d="m0 27h171v-171h-171v171z m85 170v86h-85v-86-85h85v85z m427-170v85h-85-86v-85-86h86v86h85z m85 170h86 85 85v86h-85-85-86-85v-86-85h85v85z m86-256h85v-85h-85v85z m-256 0v-85h85 85v85h-85-85z m256 939h85v-85h-85v85z m-427-939h85v-85h-85v85z m683 512v-85h85v85 86h-85v-86z m-854 0h86v-85h-86v85z m256-256h86v86h-86-85v-86h85z m-170 171h85v-85h-85v85z m0 256h85v-85h-85v85z m170 171h86v-86h-86v86z m171-86h85v86 85h-85-85v-85h85v-86z m-512-85h85v-85h-85v85z m171-512h85v-85h-85v85z m512 256h85v85h-85-86v-85h86z m-171 171h85v-86h-85v86z m-85 85h-86v-85-86h-85v-85h85 86v85 86h85v85h-85z m170-597h86v-86h-86v86z m86 85h85v-85h-85v85z m256-256h85v85h-85-86v-85h86z m-171 171h85v-86h-85v86z m171 170v-85h-86v-85h86 85v85 85 86h-85v-86z m-171 512h-85v-85-85h85 85v85h-85v85z m-597 86h85 85v85h-85-85-171v-171h171v86z m682 85v-171-85h86v85h85v171h-171z" horiz-adv-x="1024" />
<glyph glyph-name="radarcharts" unicode="&#xe82c;" d="m981 411h-352l251 145-42 74-252-145 78 135-74 42-78-135v306l-85 0v-306l-118 205-74-43 118-204-194 111-43-73 194-112h-310v-86h310l-258-149 42-74 259 149-112-192 74-43 112 193v-353l85 0v353l147-256 74 43-147 255 161-93 43 74-161 93h352v86z m-512-128c-47 0-85 38-85 85 0 47 38 85 85 85s86-38 86-85c0-47-39-85-86-85z" horiz-adv-x="1024" />
<glyph glyph-name="radialgauge" unicode="&#xe82d;" d="m430 112h121l473 473v121l-594-594z m82 597c119 0 226-48 303-127l61 61c-93 94-222 152-364 152-283 0-512-230-512-512 0-131 49-250 130-340l60 60c-65 75-105 173-105 280 0 235 191 426 427 426z m410-311c11-37 17-75 17-115 0-107-40-205-105-280l60-60c81 90 130 209 130 340 0 64-12 126-34 182l-68-67z" horiz-adv-x="1024" />
<glyph glyph-name="scattercharts" unicode="&#xe82e;" d="m0 69v-85h939l85 85h-1024z m384 555c47 0 85-38 85-85s-38-86-85-86-85 39-85 86 38 85 85 85z m256-128c47 0 85-38 85-85s-38-86-85-86-85 39-85 86 38 85 85 85z m-427-128c47 0 86-38 86-85s-39-86-86-86-85 39-85 86 38 85 85 85z m640 384c47 0 86-38 86-85s-39-86-86-86-85 39-85 86 38 85 85 85z" horiz-adv-x="1024" />
<glyph glyph-name="scheduler" unicode="&#xe82f;" d="m853 62l-120-121h-562v726h-86v-726-85h86 597l171 171v640h-86v-605z m-213 818h85v-171h-85v171z m-341 0h85v-171h-85v171z m-299-43h256v-85h-256v85z m768 0v-85h171l85 85h-256z m-341 0h170v-85h-170v85z m-171-298v-86h43v-85h-43v-85h43v-86h-43v-85h43v-85l85 85h85v-85l86 85h85v-85l85 85 86 85h-86v86l86 85h-86v85l86 86h-86v42h-85v-42h-85v42h-86v-42h-85v42h-85v-42h-43z m128-342v86h85v-86h-85z m256 0h-85v86h85v-86z m0 256v-85h-85v85h85z m-171 0v-85h-85v85h85z" horiz-adv-x="1024" />
<glyph glyph-name="scroller" unicode="&#xe830;" d="m43 880v-853h597l171 170v683h-768z m682-647l-120-121h-477v683h597v-562z m-170 306h-342v85h427l-85-85z m-342-171v85h256l-85-85h-171z m-85-427h427l-86-85h-341v85z m853 768v-341l-85-85v426h85z" horiz-adv-x="1024" />
<glyph glyph-name="scrollview" unicode="&#xe831;" d="m85 752v-597h854v597h-854z m768-512h-682v427h682v-427z m-170 256h-427v85h512l-85-85z m-43-427h85v-85h-85v85z m-384 256v86h341l-85-86h-256z m213-256h86v-85h-86v85z m-170 0h85v-85h-85v85z" horiz-adv-x="1024" />
<glyph glyph-name="singlepageapp" unicode="&#xe832;" d="m768 624h-512v-85h427l85 85z m85 256h-682-86v-85-854-85h86 597l171 171v768 85h-86z m0-818l-120-121h-562v854h682v-733z m-85 391h-512v-85h427l85 85z m-256-256l85 86h-341v-86h256z" horiz-adv-x="1024" />
<glyph glyph-name="slider" unicode="&#xe833;" d="m1024 752h-171v-85h86l85 85z m-1024 0h512v-85h-512v85z m512-768h427l85 85h-512v-85z m-512 85h171v-85h-171v85z m683 256h256l85 86h-341v-86z m-683 86h341v-86h-341v86z m597 384h171v-171h-171v171z m-170-342h170v-170h-170v170z m-171-341h171v-171h-171v171z" horiz-adv-x="1024" />
<glyph glyph-name="sortable" unicode="&#xe834;" d="m213 411h512l86 85h-598v-85z m0 256v-86h683l85 86h-768z m0-427h342l85 85h-427v-85z m0-171h171l85 86h-256v-86z m-170 768h85v-938h-85v938z" horiz-adv-x="1024" />
<glyph glyph-name="sparklines" unicode="&#xe835;" d="m512 361l-171-171-341 341v-120l341-342 171 171 256-256 256 256v121l-256-256-256 256z m213 42l-213 214-238-239 60-60 178 178 213-213 299 298v121l-299-299z m-725-298v-121l153 153-60 60-93-92z" horiz-adv-x="1024" />
<glyph glyph-name="splitter" unicode="&#xe836;" d="m469-144l86 85v939l-86-85v-939z m-384 512l61-60 238-239v121l-178 178 178 178v121l-238-239-61-60z m793 60l-238 239v-121l178-178-178-178v-121l238 239 61 60-61 60z" horiz-adv-x="1024" />
<glyph glyph-name="splitview" unicode="&#xe837;" d="m43 69h213l-85-85h-128v85z m0 86h128l85 85h-213v-85z m0 170h128l85 86h-213v-86z m0 171h128l85 85h-213v-85z m0 171h128l85 85h-213v-85z m938 85v-768h-640v768h640z m-85-683v598h-469v-598h469z" horiz-adv-x="1024" />
<glyph glyph-name="stockchart" unicode="&#xe838;" d="m0 27v-86h939l85 86h-1024z m512 469h171v-128h-171v128z m-256 43h171v-86h-171v86z m-256-43h171v-213h-171v213z m128 299l-85-86v-170h85v256z m256-43l-85-85v-86h85v171z m256-43l-85-85v-85h85v170z m-597-469h85v-128h-85v128z m256 171h85v-171h-85v171z m469 0h171v-86h-171v86z m43-128h85v-86h-85v86z m85 384l-85-86v-128h85v214z m-341-342h85v-170h-85v170z" horiz-adv-x="1024" />
<glyph glyph-name="switch" unicode="&#xe839;" d="m0 624v-512h1024v512h-1024z m939-427h-854v342h854v-342z m-427 86h-341v170h341v-170z" horiz-adv-x="1024" />
<glyph glyph-name="tabstrip" unicode="&#xe83a;" d="m427 709v171h-86-256v-43-42-854-85h86 597l171 171v597 85h-86-426z m426-647l-120-121h-562v854h170v-86-85h86 426v-562z m-597 306h427l85 85h-512v-85z m512 512h171v-85h-171v85z m-512-683h256l85 86h-341v-86z m256 683h171v-85h-171v85z" horiz-adv-x="1024" />
<glyph glyph-name="tabstrip-mobile" unicode="&#xe83b;" d="m85 880v-1024h342v171h512v853h-854z m768-768h-512v-171h-170v854h682v-683z m-170 427h-427v85h512l-85-85z m85-598h171v-85h-171v85z m-512 427v85h341l-85-85h-256z m256-427h171v-85h-171v85z" horiz-adv-x="1024" />
<glyph glyph-name="templates" unicode="&#xe83c;" d="m853 880h-682-86v-85-854-85h86 597l171 171v768 85h-86z m0-818l-120-121h-562v854h682v-733z m-85 647h-512v-85h427l85 85z m-171-170h-341v-86h256l85 86z m171-256h-512v-86h427l85 86z m-256-256l85 85h-341v-85h256z" horiz-adv-x="1024" />
<glyph glyph-name="timepicker" unicode="&#xe83d;" d="m512 368v213l-85 86v-299-85h85 299l-86 85h-213z m0 512c-283 0-512-229-512-512s229-512 512-512 512 229 512 512-229 512-512 512z m0-939c-236 0-427 191-427 427 0 236 191 427 427 427 236 0 427-191 427-427 0-236-191-427-427-427z" horiz-adv-x="1024" />
<glyph glyph-name="tooltip" unicode="&#xe83e;" d="m768 581h-512v-85h427l85 85z m-171-170h-341v-86h256l85 86z m-512 426v-42-43-597-43-43h214l153-153 0 0 60-60 60 60 153 153h214v86 597 43 42h-854z m768-682h-42-86-35l-178-178-178 178h-35-86-42v597h682v-597z" horiz-adv-x="1024" />
<glyph glyph-name="treeview" unicode="&#xe83f;" d="m981 795h-682v-86h597l85 86z m-426-342h341l85 86h-426v-86z m256-256h85l85 86h-170v-86z m-256-256h341l85 86h-426v-86z m-512 896h170v-170h-170v170z m256-256h170v-170h-170v170z m256-256h170v-170h-170v170z m-256-256h170v-170h-170v170z" horiz-adv-x="1024" />
<glyph glyph-name="upload" unicode="&#xe840;" d="m597 880c-117 0-213-96-213-213v-512c0-71 57-128 128-128 71 0 128 57 128 128v512l-85-86v-426c0-24-19-43-43-43s-43 19-43 43v512c0 70 58 128 128 128 71 0 128-58 128-128v-512c0-118-95-214-213-214-118 0-213 96-213 214v512l-86-86v-426c0-165 134-299 299-299s299 134 299 299v512c0 117-96 213-214 213z" horiz-adv-x="1024" />
<glyph glyph-name="validator" unicode="&#xe841;" d="m469 283l86 85v256h-86v-341z m0-86h86v-85h-86v85z m43 683c-283 0-512-229-512-512s229-512 512-512 512 229 512 512-229 512-512 512z m0-939c-236 0-427 191-427 427 0 236 191 427 427 427 236 0 427-191 427-427 0-236-191-427-427-427z" horiz-adv-x="1024" />
<glyph glyph-name="window" unicode="&#xe842;" d="m171 709h-86v-85-683-85h86 597l171 171h0v597 85h-86-682z m682-647l-120-121h-562v683h682v-562z m-85 391h-512v-85h427l85 85z m85 427h86v-85h-86v85z m-170 0h85v-85h-85v85z m-598 0h512v-85h-512v85z m427-683l85 86h-341v-86h256z" horiz-adv-x="1024" />
<glyph glyph-name="gantt" unicode="&#xe843;" d="m939 880h-854-85v-85-854-85h85 768l171 171v768 85h-85z m0-818l-121-121h-733v854h854v-733z m-86 135l-170-170-86 85h-170v85h426z m-256 512l-170-170-86 85h-170v85h426z m128-256l-170-170-86 85h-170v85h426z" horiz-adv-x="1024" />
<glyph glyph-name="pivotgrid" unicode="&#xe844;" d="m768-16l85-85h-768l470 469-470 469h768l-85-85h-477l384-384-384-384h477z" horiz-adv-x="1024" />
<glyph glyph-name="treemap" unicode="&#xe845;" d="m43 880v-1024h938v1024h-938z m85-939v427h341v-427h-341z m427 0v171h128v-171h-128z m213 0v171h128v-171h-128z m128 256h-341v171h341v-171z m0 256h-768v342h768v-342z" horiz-adv-x="1024" />
<glyph glyph-name="rangebarcharts" unicode="&#xe846;" d="m0 27h1024l-85-86h-939v86z m512 341h171v299h-171v-299z m-256-128h171v299h-171v-299z m512 384h171v171h-171v-171z m-768-512h171v171h-171v-171z" horiz-adv-x="1024" />
<glyph glyph-name="waterfallcharts" unicode="&#xe847;" d="m0 27h1024l-85-86h-939v86z m512 256h171v298h-171v-298z m256 0h171v170h-171v-170z m-512 298h171v214h-171v-214z m-256-469h171v683h-171v-683z" horiz-adv-x="1024" />
<glyph glyph-name="combobox" unicode="&#xe848;" d="m939 709v-682l-171-171h-597-86v85 768h86v-768h562l120 121v647h86z m-683-170h427l85 85h-512v-85z m512 256h171l85 85h-256v-85z m-768 0h683v85h-683v-85z m256-427h427l85 85h-512v-85z m0-171h256l85 86h-341v-86z" horiz-adv-x="1024" />
</font>
</defs>
</svg>
