<svg xmlns="http://www.w3.org/2000/svg" xmlns:xlink="http://www.w3.org/1999/xlink" version="1.1" id="Layer_1" x="0px" y="0px" style="enable-background:new 0 0 2000 2000;" height="150px" width="106px" xml:space="preserve" viewBox="631.99 547.8 788.26 904.27">
	<style type="text/css">
		.st0{fill:none;stroke:#0B1122;stroke-width:47.0486;stroke-linecap:round;stroke-linejoin:round;stroke-miterlimit:10;}
		.st1{fill:#0B1122;}
		.st2{fill:none;stroke:#14254C;stroke-width:104.5525;stroke-linecap:round;stroke-linejoin:round;stroke-miterlimit:10;}
		.st3{fill:none;stroke:#0C1B38;stroke-width:78.4143;stroke-linecap:round;stroke-miterlimit:10;}
		.st4{fill:#8174F2;}
		.st5{fill:#0C1B38;}
		.st6{fill:#E7AA6A;}
		.st7{fill:#E26841;}
		.st8{fill:#EEF5FF;}
		.st9{fill:#4F5D6C;}
	</style>
	<g>
		<path class="st0" d="M723.7,1237.5c11.8,47.5,23.5,95,35.3,142.5"/>
		<path class="st1" d="M788.6,1383c1,16.7-12.4,30.8-29.2,30.6l-11-0.1l-98.8-1.2c-8.6-0.1-16-6.4-17.4-15.1   c-1.5-9.7,5.2-18.8,14.9-20.4l52.6-9.2l54.3-11.2C771.2,1352.8,787.6,1365.4,788.6,1383L788.6,1383z"/>
		<path class="st2" d="M1034.1,1192.7c-103-137.5-230.5-179.8-283.3-141.7c-56.8,41-26.1,174.6-24,183.3"/>
		<path class="st3" d="M1010.1,863.6c-105.4-13.1-192.5,68.8-191.7,156.2c0.7,74,64.5,144.9,152.1,154.2"/>
		<path class="st3" d="M1108,863.6c105.4-13.1,192.5,68.8,191.7,156.2c-0.7,74-64.5,144.9-152.1,154.2"/>
		<path d="M1204.6,1064.3l4.5-124.8c3-81.4-68-145.8-147.9-134.2l0,0c-77.6,11.3-127.2,89.2-105.4,165.2l34.5,120   c14.8,51.4,63.9,84.8,116.6,79.2h0C1161,1164,1202.6,1119.1,1204.6,1064.3z"/>
		<path class="st1" d="M932.5,1322.1c-13.7-9.6-32.7-5.6-41.4,8.8l-5.6,9.4l-50.8,84.8c-4.4,7.3-3,17,3.7,22.7   c7.5,6.4,18.8,5.5,25.1-2L899,1406l38-40.3C949.1,1352.8,947,1332.2,932.5,1322.1L932.5,1322.1z"/>
		<path class="st0" d="M1163.2,1330c-29.1,3.2-59,6.1-89.4,8.6c-55.8,4.5-109.7,7.4-161.7,8.9"/>
		<path class="st2" d="M1139.4,1174.4c22.6-0.8,55-0.5,93.6,4.7c53.8,7.3,81.3,10.5,103.1,31.2c20.8,19.8,37.3,54.9,30.2,79.4   c-22.1,75.8-274.5,59.3-297.1,57.7"/>
		<g>
			<path class="st4" d="M1150.3,749.8c28.6-11.3,48.6-9.1,61.5-11.9c23.7-5.2,52.3-34.8,72.7-143.2c-16.9-4.8-33.7-9.6-50.6-14.4    c-3.8,85.1-25.7,115-46.6,125.5c-9.5,4.8-22.5,8.2-39.6,20.4c-20,14.3-30.8,33.5-36.8,47.4    C1119.2,766.5,1132.4,756.9,1150.3,749.8z"/>
			<path class="st4" d="M1208.2,565c-14.7-5.7-29.5-11.5-44.2-17.2c7.3,59.9-6.2,93.7-20.4,113.6c-9.8,13.7-22.1,26.5-31.2,50.4    c-8.4,21.8-5.8,43-2.5,57.1c5.3-14.5,14.9-34.5,33-52.6c16.4-16.5,28.1-23.1,37.4-31.1C1197.7,670,1214.9,638.4,1208.2,565z"/>
		</g>
		<g>
			<path class="st5" d="M1080.4,711.3l-10.8,0.4c-44.5,1.5-78.5,40.3-74.2,84.6l8.2,82.7c4,40.4,38.7,70.8,79.3,69.5h0    c40.6-1.3,73.2-34,74.5-74.6l2.7-83.1C1161.4,746.3,1124.9,709.8,1080.4,711.3z"/>

				<rect x="995.9" y="795.4" transform="matrix(-0.9994 3.316386e-02 -3.316386e-02 -0.9994 2183.395 1595.6785)" class="st4" width="165" height="41.1"/>
			<path class="st6" d="M1012.5,860.6l132.4-4.4c3.1-0.1,5.6-2.7,5.5-5.9l-1-30.8c-0.1-3.1-2.7-5.6-5.9-5.5l-132.4,4.4    c-3.1,0.1-5.6,2.7-5.5,5.9l1,30.8C1006.7,858.2,1009.3,860.7,1012.5,860.6z"/>
			<polygon class="st7" points="1065.8,858.8 1084.1,858.2 1082.9,823   "/>
			<g>
				<path class="st8" d="M1021.8,850.4l18.9-0.6c0.9,0,1.6-0.8,1.5-1.6l-0.3-8.6c0-0.9-0.8-1.6-1.6-1.5l-18.9,0.6     c-0.9,0-1.6,0.8-1.5,1.6l0.3,8.6C1020.2,849.7,1021,850.4,1021.8,850.4z"/>
				<path class="st8" d="M1112,847.4l18.9-0.6c0.9,0,1.6-0.8,1.5-1.6l-0.3-8.6c0-0.9-0.8-1.6-1.6-1.5l-18.9,0.6     c-0.9,0-1.6,0.8-1.5,1.6l0.3,8.6C1110.4,846.7,1111.1,847.4,1112,847.4z"/>
			</g>
			<circle cx="1031.7" cy="849.1" r="6"/>
			<circle cx="1121.8" cy="846.1" r="6"/>
		</g>
		<g>
			<rect x="906.3" y="1031.2" class="st9" width="371.7" height="269.2"/>
			<rect x="906.3" y="1293.9" width="371.7" height="24.1"/>
		</g>
		<path class="st8" d="M1101.4,1157.7l-14.7-19.5l-2.1,17.8l-19.5,14.7l17.8,2.1l14.7,19.5l2.1-17.8l19.5-14.7L1101.4,1157.7z    M1091.7,1168.6c-1.8-0.2-3.1-1.9-2.9-3.7c0.2-1.8,1.9-3.1,3.7-2.9c1.8,0.2,3.1,1.9,2.9,3.7   C1095.2,1167.5,1093.5,1168.8,1091.7,1168.6z"/>
	</g>
</svg>
