<?xml version="1.0" encoding="utf-8"?>
<!-- Generator: Adobe Illustrator 14.0.0, SVG Export Plug-In . SVG Version: 6.00 Build 43363)  -->
<!DOCTYPE svg PUBLIC "-//W3C//DTD SVG 1.1//EN" "http://www.w3.org/Graphics/SVG/1.1/DTD/svg11.dtd">
<svg version="1.1" id="Layer_1" xmlns="http://www.w3.org/2000/svg" xmlns:xlink="http://www.w3.org/1999/xlink" x="0px" y="0px"
	 width="35px" height="22px" viewBox="0 0 35 22" enable-background="new 0 0 35 22" xml:space="preserve">
<path fill-rule="evenodd" clip-rule="evenodd" fill="#3AABF0" d="M2.5,0H7c1.38,0,2.5,1.118,2.5,2.5C9.5,3.881,8.38,5,7,5H2.5
	C1.12,5,0,3.881,0,2.5C0,1.119,1.12,0,2.5,0L2.5,0z"/>
<path fill-rule="evenodd" clip-rule="evenodd" fill="#3AABF0" d="M2.5,16H7c1.38,0,2.5,1.118,2.5,2.5C9.5,19.881,8.38,21,7,21H2.5
	C1.12,21,0,19.881,0,18.5C0,17.118,1.12,16,2.5,16L2.5,16z"/>
<path fill-rule="evenodd" clip-rule="evenodd" fill="#3AABF0" d="M15.031,0H32.5C33.881,0,35,1.119,35,2.5c0,1.38-1.119,2.5-2.5,2.5
	H15.031c-1.38,0-2.5-1.12-2.5-2.5C12.531,1.119,13.651,0,15.031,0L15.031,0z"/>
<path fill-rule="evenodd" clip-rule="evenodd" fill="#3AABF0" d="M32.5,8H28c-1.381,0-2.5,1.118-2.5,2.5c0,1.381,1.119,2.5,2.5,2.5
	h4.5c1.38,0,2.5-1.119,2.5-2.5C35,9.118,33.88,8,32.5,8L32.5,8z"/>
<path fill-rule="evenodd" clip-rule="evenodd" fill="#3AABF0" d="M19.969,8H2.5C1.119,8,0,9.118,0,10.5C0,11.881,1.119,13,2.5,13
	h17.469c1.38,0,2.5-1.119,2.5-2.5C22.469,9.118,21.349,8,19.969,8L19.969,8z"/>
<path fill-rule="evenodd" clip-rule="evenodd" fill="#3AABF0" d="M15.031,16H32.5c1.381,0,2.5,1.119,2.5,2.5S33.881,21,32.5,21
	H15.031c-1.38,0-2.5-1.119-2.5-2.5S13.651,16,15.031,16L15.031,16z"/>
</svg>
