<?xml version="1.0" encoding="utf-8"?>
<!-- Generator: Adobe Illustrator 23.0.1, SVG Export Plug-In . SVG Version: 6.00 Build 0)  -->
<svg version="1.1" id="Layer_1" xmlns="http://www.w3.org/2000/svg" xmlns:xlink="http://www.w3.org/1999/xlink" x="0px" y="0px"
	 viewBox="0 0 15 21" style="enable-background:new 0 0 15 21;" xml:space="preserve">
<style type="text/css">
	.st0{enable-background:new    ;}
</style>
<g class="st0">
	<path d="M15,3v15H0V3H15z M14.4,3.6H0.6v13.7h13.8V3.6z M3.1,7.4c-0.4,0-0.6-0.2-0.6-0.6c0-0.4,0.2-0.6,0.6-0.6
		c0.4,0,0.6,0.2,0.6,0.6C3.8,7.2,3.5,7.4,3.1,7.4z M3.1,11.1c-0.4,0-0.6-0.2-0.6-0.6c0-0.4,0.2-0.6,0.6-0.6c0.4,0,0.6,0.2,0.6,0.6
		C3.8,10.9,3.5,11.1,3.1,11.1z M3.1,14.9c-0.4,0-0.6-0.2-0.6-0.6c0-0.4,0.2-0.6,0.6-0.6c0.4,0,0.6,0.2,0.6,0.6
		C3.8,14.7,3.5,14.9,3.1,14.9z M5,7.1V6.4h7.5v0.6H5z M5,10.8v-0.6h7.5v0.6H5z M5,14.6v-0.6h7.5v0.6H5z"/>
</g>
</svg>
