<svg xmlns="http://www.w3.org/2000/svg" xmlns:xlink="http://www.w3.org/1999/xlink" width="58" height="50.001" viewBox="0 0 58 50.001"><defs><style>.a,.b{fill:#31475c;}.a{clip-rule:evenodd;}.b,.c,.d,.f,.g,.i,.j,.l,.n,.o,.p{fill-rule:evenodd;}.c{fill:#a3d8f1;}.d{fill:#22b573;}.e,.f{fill:#e26841;}.g,.m{fill:#14254c;}.h{clip-path:url(#a);}.i{fill:#e9ac6a;}.j{fill:#dc7f1b;}.k{fill:#fff;}.l{fill:#231f20;}.o{fill:#00264b;}.p{fill:#e3f6ff;}</style><clipPath id="a"><path class="a" d="M24.756,28.773A8.628,8.628,0,1,1,16.128,20.1a8.635,8.635,0,0,1,8.628,8.673" transform="translate(-7.5 -20.1)"/></clipPath></defs><g transform="translate(-1030 -355)"><g transform="translate(1030 355)"><path class="c" d="M49.741,25a25.5,25.5,0,0,1-2.274,10.5,24.77,24.77,0,0,1-18.76,14.143A17.455,17.455,0,0,1,24.871,50a25.929,25.929,0,0,1-5.329-.571A24.932,24.932,0,0,1,6.893,42.286a24.421,24.421,0,0,1-4.477-6.571,16.384,16.384,0,0,1-.711-1.643A24.218,24.218,0,0,1,0,25a24.871,24.871,0,1,1,49.741,0Z" transform="translate(0)"/><g transform="translate(33.507 8.107)"><path class="d" d="M40.9-5.642c3.49-1.815,7.161-2.843,9.87-1.391,1.5.847,1.866,2,3.25,2.42,1.805.544,4.514-.484,8.907-5.686l2.467,2.662C58.954-1.226,55.524-.5,53.538-1.347c-1.565-.6-1.926-2.057-4.032-3.327A12.534,12.534,0,0,0,40.9-5.642" transform="translate(-40.9 12.656)"/><path class="d" d="M42.4-7.544c1.745-4.476,5.9-7.078,9.629-6.594a8.016,8.016,0,0,1,5.236,3.327c-.963.544-1.926,1.149-2.889,1.694a8.173,8.173,0,0,0-3.25-1.694C46.552-11.9,42.7-7.846,42.4-7.544" transform="translate(-41.497 14.195)"/></g><g transform="translate(16.841 0.011)"><path class="e" d="M0,7.741,8.828,8.3a4.638,4.638,0,0,0,4.536-2.77,4.63,4.63,0,0,1,5.71-2.54L23.6,4.516l.33-2.682L17.858.157a4.633,4.633,0,0,0-5.549,2.807L12,3.775A4.647,4.647,0,0,1,8.242,6.713Z" transform="translate(0 5.825) rotate(-7)"/><path class="e" d="M0,13.286l7.1-2.454A4.647,4.647,0,0,0,9.98,7.921l.664-1.972A4.633,4.633,0,0,1,15.18,2.786l5.581.18L20.922,0,13.356.157a4.639,4.639,0,0,0-4.421,3.62L8.3,6.594A4.659,4.659,0,0,1,6.17,9.546Z" transform="translate(1.131)"/></g><g transform="translate(1.554 8.14)"><g transform="translate(0 0)"><path class="f" d="M30.14,58.774l-.357,2.867a23.214,23.214,0,0,1-3.851.287,26.017,26.017,0,0,1-5.348-.573A25.018,25.018,0,0,1,7.892,54.187,24.506,24.506,0,0,1,3.4,47.593a14.81,14.81,0,0,1,9.983-5.949,20.042,20.042,0,0,1,2.068-.143,6.883,6.883,0,0,1,1.212.072,15.012,15.012,0,0,1,8.7,3.727,14.842,14.842,0,0,1,4.492,7.239A15.179,15.179,0,0,1,30.14,58.774Z" transform="translate(-2.687 -20.068)"/><path class="b" d="M17.3,44l10.482,9.175,9.412-5.017L30.064,42.42a4.4,4.4,0,0,1-1.64-3.369V32.6H17.3Z" transform="translate(-6.675 -17.548)"/><path class="b" d="M16.3,32.6V44l-1.64,1.434L7.605,51.666a24.507,24.507,0,0,1-4.492-6.594A16.441,16.441,0,0,1,2.4,43.423l1.141-1a4.4,4.4,0,0,0,1.64-3.369V32.6Z" transform="translate(-2.4 -17.548)"/><path class="g" d="M21.032,11.6H17.11A10.938,10.938,0,0,0,6.2,22.567V33.749a4.333,4.333,0,0,0,4.35,4.372H21.032a4.333,4.333,0,0,0,4.35-4.372V15.972a4.378,4.378,0,0,0-4.35-4.372" transform="translate(-3.49 -11.6)"/><path class="b" d="M24.756,28.773A8.628,8.628,0,1,1,16.128,20.1a8.635,8.635,0,0,1,8.628,8.673" transform="translate(-3.863 -14.007)"/><g class="h" transform="translate(3.637 6.093)"><path class="i" d="M9.1,38.952V23.326a7.487,7.487,0,1,1,14.974,0V40.171Z" transform="translate(-7.959 -18.882)"/></g><path class="j" d="M14.6,32.409h3.922V25.6Z" transform="translate(-5.901 -15.565)"/><path class="k" d="M20.3,38.2a4.718,4.718,0,0,0,2.852-.717,4.515,4.515,0,0,0,1.64-1.649l-.713-.43a4.106,4.106,0,0,1-1.355,1.362,3.707,3.707,0,0,1-2.353.573Z" transform="translate(-7.536 -18.341)"/><path class="l" d="M26.74,27.288H25.1a.793.793,0,0,1,.784-.788h.143a.783.783,0,0,1,.713.788" transform="translate(-8.914 -15.82)"/><path class="l" d="M13.24,27.288H11.6a.793.793,0,0,1,.784-.788h.143a.735.735,0,0,1,.713.788" transform="translate(-5.04 -15.82)"/><path class="m" d="M7.5,24.36H25.4V23.5H7.5Z" transform="translate(-3.863 -14.97)"/><path class="m" d="M7.5,29.86H25.4V29H7.5Z" transform="translate(-3.863 -16.528)"/><path class="m" d="M7.5,40.832H24.328V39.9H7.5Z" transform="translate(-3.863 -19.615)"/><path class="m" d="M7.5,35.332H25.4V34.4H7.5Z" transform="translate(-3.863 -18.057)"/></g><g transform="translate(17.414 3.791)"><path class="n" d="M55.329,47.208A24.856,24.856,0,0,1,36.5,61.4a17.515,17.515,0,0,1-3.851.358,26.017,26.017,0,0,1-5.348-.573l-.285-2.007a16.236,16.236,0,0,1,.285-6.451,15.712,15.712,0,0,1,4.635-7.67,4.083,4.083,0,0,1,.57-.5A15.509,15.509,0,0,1,42.636,40.9,15.982,15.982,0,0,1,55.329,47.208Z" transform="translate(-26.822 -23.69)"/><path class="o" d="M20.815,6.515,19.5-2.343h0A8.891,8.891,0,0,1,28.377-11.2a8.891,8.891,0,0,1,8.877,8.857L36.137,6.515a7.729,7.729,0,0,1-7.628,6.676A7.846,7.846,0,0,1,20.815,6.515Z" transform="translate(-15.385 11.2)"/><path class="d" d="M19.2,3.034H37.284V-.8H19.2Z" transform="translate(-15.283 7.674)"/><path class="i" d="M34.62,6.563H23.77A2.195,2.195,0,0,1,21.6,4.381h0A2.195,2.195,0,0,1,23.77,2.2H34.62a2.195,2.195,0,0,1,2.17,2.181h0a2.195,2.195,0,0,1-2.17,2.181" transform="translate(-16.104 6.657)"/><path class="o" d="M23.6,5.427a.723.723,0,1,1,1.447,0" transform="translate(-16.789 5.81)"/><path class="o" d="M36.8,5.527a.723.723,0,1,1,1.447,0" transform="translate(-21.309 5.776)"/><path class="j" d="M30.8,6.935h1.907V3.3Z" transform="translate(-19.255 6.284)"/></g></g></g><g transform="translate(1030 355)"><path class="p" d="M49.741,25a25.5,25.5,0,0,1-2.274,10.5,24.77,24.77,0,0,1-18.76,14.143A17.455,17.455,0,0,1,24.871,50a25.929,25.929,0,0,1-5.329-.571A24.932,24.932,0,0,1,6.893,42.286a24.421,24.421,0,0,1-4.477-6.571,16.384,16.384,0,0,1-.711-1.643A24.218,24.218,0,0,1,0,25a24.871,24.871,0,1,1,49.741,0Z"/><g transform="translate(33.507 8.107)"><path class="d" d="M40.9-5.642c3.49-1.815,7.161-2.843,9.87-1.391,1.5.847,1.866,2,3.25,2.42,1.805.544,4.514-.484,8.907-5.686l2.467,2.662C58.954-1.226,55.524-.5,53.538-1.347c-1.565-.6-1.926-2.057-4.032-3.327A12.534,12.534,0,0,0,40.9-5.642" transform="translate(-40.9 12.656)"/><path class="d" d="M42.4-7.544c1.745-4.476,5.9-7.078,9.629-6.594a8.016,8.016,0,0,1,5.236,3.327c-.963.544-1.926,1.149-2.889,1.694a8.173,8.173,0,0,0-3.25-1.694C46.552-11.9,42.7-7.846,42.4-7.544" transform="translate(-41.497 14.195)"/></g><g transform="translate(16.841 0.01)"><path class="e" d="M0,7.741,8.828,8.3a4.638,4.638,0,0,0,4.536-2.77,4.63,4.63,0,0,1,5.71-2.54L23.6,4.516l.33-2.682L17.858.157a4.633,4.633,0,0,0-5.549,2.807L12,3.775A4.647,4.647,0,0,1,8.242,6.713Z" transform="translate(0 5.825) rotate(-7)"/><path class="e" d="M0,13.286l7.1-2.454A4.647,4.647,0,0,0,9.98,7.921l.664-1.972A4.633,4.633,0,0,1,15.18,2.786l5.581.18L20.922,0,13.356.157a4.639,4.639,0,0,0-4.421,3.62L8.3,6.594A4.659,4.659,0,0,1,6.17,9.546Z" transform="translate(1.131)"/></g><g transform="translate(1.555 8.141)"><g transform="translate(0 0)"><path class="f" d="M30.14,58.774l-.357,2.867a23.214,23.214,0,0,1-3.851.287,26.017,26.017,0,0,1-5.348-.573A25.018,25.018,0,0,1,7.892,54.187,24.506,24.506,0,0,1,3.4,47.593a14.81,14.81,0,0,1,9.983-5.949,20.042,20.042,0,0,1,2.068-.143,6.883,6.883,0,0,1,1.212.072,15.012,15.012,0,0,1,8.7,3.727,14.842,14.842,0,0,1,4.492,7.239A15.179,15.179,0,0,1,30.14,58.774Z" transform="translate(-2.687 -20.068)"/><path class="b" d="M17.3,44l10.482,9.175,9.412-5.017L30.064,42.42a4.4,4.4,0,0,1-1.64-3.369V32.6H17.3Z" transform="translate(-6.675 -17.548)"/><path class="b" d="M16.3,32.6V44l-1.64,1.434L7.605,51.666a24.507,24.507,0,0,1-4.492-6.594A16.441,16.441,0,0,1,2.4,43.423l1.141-1a4.4,4.4,0,0,0,1.64-3.369V32.6Z" transform="translate(-2.4 -17.548)"/><path class="g" d="M21.032,11.6H17.11A10.938,10.938,0,0,0,6.2,22.567V33.749a4.333,4.333,0,0,0,4.35,4.372H21.032a4.333,4.333,0,0,0,4.35-4.372V15.972a4.378,4.378,0,0,0-4.35-4.372" transform="translate(-3.49 -11.6)"/><path class="b" d="M24.756,28.773A8.628,8.628,0,1,1,16.128,20.1a8.635,8.635,0,0,1,8.628,8.673" transform="translate(-3.863 -14.007)"/><g class="h" transform="translate(3.637 6.093)"><path class="i" d="M9.1,38.952V23.326a7.487,7.487,0,1,1,14.974,0V40.171Z" transform="translate(-7.959 -18.882)"/></g><path class="j" d="M14.6,32.409h3.922V25.6Z" transform="translate(-5.901 -15.565)"/><path class="k" d="M20.3,38.2a4.718,4.718,0,0,0,2.852-.717,4.515,4.515,0,0,0,1.64-1.649l-.713-.43a4.106,4.106,0,0,1-1.355,1.362,3.707,3.707,0,0,1-2.353.573Z" transform="translate(-7.536 -18.341)"/><path class="l" d="M26.74,27.288H25.1a.793.793,0,0,1,.784-.788h.143a.783.783,0,0,1,.713.788" transform="translate(-8.914 -15.82)"/><path class="l" d="M13.24,27.288H11.6a.793.793,0,0,1,.784-.788h.143a.735.735,0,0,1,.713.788" transform="translate(-5.04 -15.82)"/><path class="m" d="M7.5,24.36H25.4V23.5H7.5Z" transform="translate(-3.863 -14.97)"/><path class="m" d="M7.5,29.86H25.4V29H7.5Z" transform="translate(-3.863 -16.528)"/><path class="m" d="M7.5,40.832H24.328V39.9H7.5Z" transform="translate(-3.863 -19.615)"/><path class="m" d="M7.5,35.332H25.4V34.4H7.5Z" transform="translate(-3.863 -18.057)"/></g><g transform="translate(17.414 3.791)"><path class="n" d="M55.329,47.208A24.856,24.856,0,0,1,36.5,61.4a17.515,17.515,0,0,1-3.851.358,26.017,26.017,0,0,1-5.348-.573l-.285-2.007a16.236,16.236,0,0,1,.285-6.451,15.712,15.712,0,0,1,4.635-7.67,4.083,4.083,0,0,1,.57-.5A15.509,15.509,0,0,1,42.636,40.9,15.982,15.982,0,0,1,55.329,47.208Z" transform="translate(-26.822 -23.69)"/><path class="o" d="M20.815,6.515,19.5-2.343h0A8.891,8.891,0,0,1,28.377-11.2a8.891,8.891,0,0,1,8.877,8.857L36.137,6.515a7.729,7.729,0,0,1-7.628,6.676A7.846,7.846,0,0,1,20.815,6.515Z" transform="translate(-15.385 11.2)"/><path class="d" d="M19.2,3.034H37.284V-.8H19.2Z" transform="translate(-15.283 7.674)"/><path class="i" d="M34.62,6.563H23.77A2.195,2.195,0,0,1,21.6,4.381h0A2.195,2.195,0,0,1,23.77,2.2H34.62a2.195,2.195,0,0,1,2.17,2.181h0a2.195,2.195,0,0,1-2.17,2.181" transform="translate(-16.104 6.657)"/><path class="o" d="M23.6,5.427a.723.723,0,1,1,1.447,0" transform="translate(-16.789 5.81)"/><path class="o" d="M36.8,5.527a.723.723,0,1,1,1.447,0" transform="translate(-21.309 5.776)"/><path class="j" d="M30.8,6.935h1.907V3.3Z" transform="translate(-19.255 6.284)"/></g></g></g></g></svg>