<svg xmlns="http://www.w3.org/2000/svg" xmlns:xlink="http://www.w3.org/1999/xlink" width="49.803" height="50" viewBox="0 0 49.803 50"><defs><style>.a{fill:#a3d8f1;}.b{fill:none;}.c{fill:#e3f6ff;}.d{fill:#e26841;}.e{clip-path:url(#a);}.f{clip-path:url(#b);}.g{fill:#31475c;}.h{fill:#14254c;}.i{clip-path:url(#d);}.j{fill:#e9ac6a;}.k{fill:#dc7f1b;}.l{fill:#fff;}.m{fill:#231f20;}</style><clipPath id="a"><ellipse class="a" cx="24.902" cy="25" rx="24.902" ry="25"/></clipPath><clipPath id="b"><path class="b" d="M0,25.477A25.42,25.42,0,0,0,25.362,50.955h0A25.42,25.42,0,0,0,50.723,25.477h0A25.42,25.42,0,0,0,25.362,0h0A25.42,25.42,0,0,0,0,25.477Z" transform="translate(0 0)"/></clipPath><clipPath id="d"><path class="b" d="M0,9.461a9.439,9.439,0,0,0,9.418,9.461h0a9.439,9.439,0,0,0,9.418-9.461h0A9.439,9.439,0,0,0,9.418,0h0A9.439,9.439,0,0,0,0,9.461Z" transform="translate(0 0)"/></clipPath></defs><g transform="translate(-1461.851 -3038)"><ellipse class="c" cx="24.902" cy="25" rx="24.902" ry="25" transform="translate(1461.851 3038)"/><g transform="translate(1461.851 3038)"><g transform="translate(25.488 2.273)"><path class="d" d="M0,7.784l8.892.572a4.662,4.662,0,0,0,4.564-2.783A4.657,4.657,0,0,1,19.2,3.023l4.561,1.533.331-2.7L17.977.169a4.659,4.659,0,0,0-5.584,2.819l-.315.816A4.669,4.669,0,0,1,8.3,6.756Z" transform="translate(0 4.352)"/><path class="d" d="M0,13.358l7.146-2.467a4.675,4.675,0,0,0,2.9-2.927l.668-1.983A4.664,4.664,0,0,1,15.282,2.8l5.618.181L21.063,0,13.445.157A4.669,4.669,0,0,0,8.995,3.8L8.351,6.63A4.685,4.685,0,0,1,6.211,9.6Z" transform="translate(0.721)"/></g><g class="e"><g transform="translate(-0.734 -0.13)"><g transform="translate(0 0.506)"><g transform="translate(0 0)"><path class="b" d="M0,25.477A25.42,25.42,0,0,0,25.362,50.955h0A25.42,25.42,0,0,0,50.723,25.477h0A25.42,25.42,0,0,0,25.362,0h0A25.42,25.42,0,0,0,0,25.477Z" transform="translate(0 0)"/><g class="f"><path class="d" d="M26.459,48.621,4.524,51.255.194,17.859a15.38,15.38,0,1,1,30.358,0Z" transform="translate(10.477 32.501)"/></g></g><g transform="translate(23.584 25.555)"><path class="g" d="M0,12.455l11.444,10.06L21.7,17.005l-7.77-6.244a4.74,4.74,0,0,1-1.767-3.694V0H0Z" transform="translate(0 0)"/></g><g transform="translate(0.504 0)"><path class="b" d="M0,25.477A25.42,25.42,0,0,0,25.362,50.955h0A25.42,25.42,0,0,0,50.723,25.477h0A25.42,25.42,0,0,0,25.362,0h0A25.42,25.42,0,0,0,0,25.477Z" transform="translate(0 0)"/><g class="f" transform="translate(0)"><path class="g" d="M21.7,12.455,10.252,22.514,0,17.005l7.77-6.244A4.74,4.74,0,0,0,9.537,7.067V0H21.7Z" transform="translate(4.96 25.555)"/></g></g><g transform="translate(14.882 9.029)"><path class="h" d="M16.213,0H11.921A11.948,11.948,0,0,0,0,11.975V24.191a4.78,4.78,0,0,0,4.768,4.79H16.213a4.779,4.779,0,0,0,4.768-4.79V4.79A4.779,4.779,0,0,0,16.213,0" transform="translate(0 0)"/></g><g transform="translate(15.955 15.736)"><path class="g" d="M18.835,9.461A9.418,9.418,0,1,1,9.418,0a9.439,9.439,0,0,1,9.418,9.461" transform="translate(0 0)"/></g></g><g transform="translate(15.955 16.242)"><path class="b" d="M0,9.461a9.439,9.439,0,0,0,9.418,9.461h0a9.439,9.439,0,0,0,9.418-9.461h0A9.439,9.439,0,0,0,9.418,0h0A9.439,9.439,0,0,0,0,9.461Z" transform="translate(0 0)"/><g class="i" transform="translate(0 0)"><path class="j" d="M0,25.384V8.255A8.236,8.236,0,0,1,8.218,0h0a8.236,8.236,0,0,1,8.217,8.255V26.72Z" transform="translate(1.2 -3.379)"/></g></g><g transform="translate(0 0)"><path class="b" d="M0,25.477A25.42,25.42,0,0,0,25.362,50.955h0A25.42,25.42,0,0,0,50.723,25.477h0A25.42,25.42,0,0,0,25.362,0h0A25.42,25.42,0,0,0,0,25.477Z" transform="translate(0 0)"/><g class="f"><path class="k" d="M0,7.425H4.292V0Z" transform="translate(21.438 20.553)"/></g><g transform="translate(25.944 28.207)"><path class="l" d="M0,3.123a5.342,5.342,0,0,0,3.132-.787A5.385,5.385,0,0,0,4.961.5L4.147,0a4.449,4.449,0,0,1-1.51,1.517,4.422,4.422,0,0,1-2.59.65Z" transform="translate(0 0)"/></g><g transform="translate(29.684 21.281)"><path class="m" d="M1.768.829H0A.827.827,0,0,1,.825,0H.943a.827.827,0,0,1,.825.829" transform="translate(0 0)"/></g><g transform="translate(19.193 21.281)"><path class="m" d="M1.768.829H0A.827.827,0,0,1,.825,0H.943a.827.827,0,0,1,.825.829" transform="translate(0 0)"/></g><g transform="translate(15.955 18.805)"><path class="h" d="M0,1.248H19.551V0H0Z" transform="translate(0 0)"/></g><g transform="translate(15.955 23.099)"><path class="h" d="M0,1.248H19.551V0H0Z" transform="translate(0 0)"/></g><g transform="translate(15.955 31.797)"><path class="h" d="M0,1.248H18.359V0H0Z" transform="translate(0 0)"/></g><g transform="translate(15.955 27.503)"><path class="h" d="M0,1.248H19.551V0H0Z" transform="translate(0 0)"/></g></g></g></g></g></g></svg>