<svg xmlns="http://www.w3.org/2000/svg" xmlns:xlink="http://www.w3.org/1999/xlink" width="116.603" height="100" viewBox="0 0 116.603 100"><defs><style>.a,.f{fill:#31475c;}.a{clip-rule:evenodd;}.b{fill:#e3f6ff;}.b,.c,.e,.f,.g,.i,.j,.l,.n,.o{fill-rule:evenodd;}.c{fill:#22b573;}.d,.e{fill:#e26841;}.g,.m{fill:#14254c;}.h{clip-path:url(#a);}.i{fill:#e9ac6a;}.j{fill:#dc7f1b;}.k{fill:#fff;}.l{fill:#231f20;}.o{fill:#00264b;}</style><clipPath id="a"><path class="a" d="M42.191,37.446A17.346,17.346,0,1,1,24.846,20.1,17.314,17.314,0,0,1,42.191,37.446" transform="translate(-7.5 -20.1)"/></clipPath></defs><path class="b" d="M100,50a50.779,50.779,0,0,1-4.571,21A49.766,49.766,0,0,1,57.714,99.286,35.268,35.268,0,0,1,50,100a52.387,52.387,0,0,1-10.714-1.143A50.189,50.189,0,0,1,13.857,84.571a48.832,48.832,0,0,1-9-13.143,32.68,32.68,0,0,1-1.429-3.286A48.216,48.216,0,0,1,0,50a50,50,0,0,1,100,0Z"/><g transform="translate(67.361 16.215)"><path class="c" d="M40.9-.984c7.017-3.63,14.4-5.686,19.842-2.783,3.025,1.694,3.751,3.993,6.533,4.839C70.9,2.162,76.349.1,85.181-10.3l4.96,5.323C77.2,7.848,70.3,9.3,66.307,7.606,63.162,6.4,62.436,3.492,58.2.952c-5.807-3.267-12.462-2.9-17.3-1.936" transform="translate(-40.9 15.013)"/><path class="c" d="M42.4-.893C45.909-9.846,54.257-15.048,61.758-14.08A16.118,16.118,0,0,1,72.284-7.426c-1.936,1.089-3.872,2.3-5.807,3.388a16.46,16.46,0,0,0-6.533-3.388C50.748-9.6,43-1.5,42.4-.893" transform="translate(-40.585 14.195)"/></g><g transform="translate(32.778 -4.482)"><path class="d" d="M0,15.483l17.756,1.139a9.314,9.314,0,0,0,9.115-5.535A9.313,9.313,0,0,1,38.346,6.013l9.109,3.049.66-5.363L35.9.336A9.312,9.312,0,0,0,24.748,5.943l-.63,1.622a9.318,9.318,0,0,1-7.542,5.872Z" transform="translate(1.078 16.153) rotate(-7)"/><path class="d" d="M0,26.571l14.27-4.907a9.318,9.318,0,0,0,5.794-5.823L21.4,11.9a9.312,9.312,0,0,1,9.118-6.325l11.22.359L42.062,0,26.85.313a9.314,9.314,0,0,0-8.887,7.241l-1.286,5.633A9.32,9.32,0,0,1,12.4,19.093Z" transform="translate(3.353 4.504)"/></g><g transform="translate(3.124 16.279)"><g transform="translate(0 0)"><path class="e" d="M57.157,76.049l-.717,5.734a46.907,46.907,0,0,1-7.741.573A52.566,52.566,0,0,1,37.948,81.21,50.363,50.363,0,0,1,12.431,66.874,49,49,0,0,1,3.4,53.685a29.8,29.8,0,0,1,20.069-11.9,40.5,40.5,0,0,1,4.157-.287,13.909,13.909,0,0,1,2.437.143A30.259,30.259,0,0,1,47.553,49.1a29.662,29.662,0,0,1,9.031,14.479A30.206,30.206,0,0,1,57.157,76.049Z" transform="translate(-1.966 1.364)"/><path class="f" d="M17.3,55.394l21.073,18.35L57.3,63.708,42.96,52.24a8.78,8.78,0,0,1-3.3-6.738V32.6H17.3Z" transform="translate(4.06 -2.495)"/><path class="f" d="M30.354,32.6V55.394l-3.3,2.867L12.865,70.733A49,49,0,0,1,3.834,57.544a32.794,32.794,0,0,1-1.434-3.3L4.694,52.24a8.78,8.78,0,0,0,3.3-6.738V32.6Z" transform="translate(-2.4 -2.495)"/><path class="g" d="M36.017,11.6H28.133A21.933,21.933,0,0,0,6.2,33.534V55.9a8.688,8.688,0,0,0,8.745,8.745H36.017A8.688,8.688,0,0,0,44.762,55.9V20.345A8.779,8.779,0,0,0,36.017,11.6" transform="translate(-0.753 -11.6)"/><path class="f" d="M42.191,37.446A17.346,17.346,0,1,1,24.846,20.1,17.314,17.314,0,0,1,42.191,37.446" transform="translate(-0.189 -7.915)"/><g class="h" transform="translate(7.311 12.185)"><path class="i" d="M9.1,62.1V30.852a15.052,15.052,0,1,1,30.1,0V64.541Z" transform="translate(-6.806 -21.964)"/></g><path class="j" d="M14.6,39.219h7.884V25.6Z" transform="translate(2.889 -5.53)"/><path class="k" d="M20.3,40.991a9.524,9.524,0,0,0,5.734-1.434,9.052,9.052,0,0,0,3.3-3.3L27.9,35.4a8.234,8.234,0,0,1-2.724,2.724,7.483,7.483,0,0,1-4.731,1.147Z" transform="translate(5.36 -1.281)"/><path class="l" d="M28.4,28.077H25.1A1.591,1.591,0,0,1,26.677,26.5h.287A1.57,1.57,0,0,1,28.4,28.077" transform="translate(7.441 -5.14)"/><path class="l" d="M14.9,28.077H11.6A1.591,1.591,0,0,1,13.177,26.5h.287A1.473,1.473,0,0,1,14.9,28.077" transform="translate(1.588 -5.14)"/><path class="m" d="M7.5,25.22H43.481V23.5H7.5Z" transform="translate(-0.189 -6.441)"/><path class="m" d="M7.5,30.72H43.481V29H7.5Z" transform="translate(-0.189 -4.056)"/><path class="m" d="M7.5,41.764H41.331V39.9H7.5Z" transform="translate(-0.189 0.67)"/><path class="m" d="M7.5,36.264H43.481V34.4H7.5Z" transform="translate(-0.189 -1.715)"/></g><g transform="translate(35.01 7.583)"><path class="n" d="M84.131,53.515A49.939,49.939,0,0,1,46.286,81.9a35.389,35.389,0,0,1-7.741.717A52.566,52.566,0,0,1,27.794,81.47l-.573-4.014a32.309,32.309,0,0,1,.573-12.9,31.4,31.4,0,0,1,9.318-15.339,8.2,8.2,0,0,1,1.147-1A31.277,31.277,0,0,1,58.615,40.9,32.186,32.186,0,0,1,84.131,53.515Z" transform="translate(-26.822 -6.479)"/><path class="o" d="M22.144,24.229,19.5,6.515h0a17.848,17.848,0,0,1,35.694,0L52.947,24.229A15.512,15.512,0,0,1,37.611,37.582,15.748,15.748,0,0,1,22.144,24.229Z" transform="translate(-11.228 11.2)"/><path class="c" d="M19.2,6.868H55.555V-.8H19.2Z" transform="translate(-11.325 14.549)"/><path class="i" d="M47.776,10.925H25.963A4.4,4.4,0,0,1,21.6,6.563h0A4.4,4.4,0,0,1,25.963,2.2H47.776a4.4,4.4,0,0,1,4.363,4.363h0a4.4,4.4,0,0,1-4.363,4.363" transform="translate(-10.552 15.515)"/><path class="o" d="M23.6,6.154a1.454,1.454,0,0,1,2.908,0" transform="translate(-9.908 16.32)"/><path class="o" d="M36.8,6.254a1.454,1.454,0,0,1,2.908,0" transform="translate(-5.657 16.352)"/><path class="j" d="M30.8,10.571h3.834V3.3Z" transform="translate(-7.589 15.869)"/></g></g></svg>