<svg xmlns="http://www.w3.org/2000/svg" xmlns:xlink="http://www.w3.org/1999/xlink" width="54.789" height="50" viewBox="0 0 54.789 50"><defs><style>.a{fill:#a3d8f1;}.b{fill:#fff;}.c{fill:#e3f6ff;}.d{fill:#22b573;}.e{clip-path:url(#a);}.f,.h,.i,.k{fill:none;}.f{stroke:#0c1b38;stroke-width:15px;}.f,.i,.k{stroke-linecap:round;}.f,.h{stroke-miterlimit:10;}.g{fill:#4f5d6c;}.h{stroke:#000;stroke-width:24.468px;}.i{stroke:#0c1121;stroke-width:20.645px;}.i,.k{stroke-linejoin:round;}.j{fill:#0c1121;}.k{stroke:#14254c;stroke-width:45.877px;}.l{fill:#0c1b38;}.m{fill:#e9ac6a;}.n{fill:#e26841;}</style><clipPath id="a"><ellipse class="a" cx="25" cy="25" rx="25" ry="25"/></clipPath></defs><path class="b" d="M25,0A25,25,0,1,1,0,25,25,25,0,0,1,25,0Z" transform="translate(4.789)"/><path class="c" d="M25,0A25,25,0,1,1,0,25,25,25,0,0,1,25,0Z" transform="translate(4.789)"/><g transform="translate(0 6.387)"><path class="d" d="M3047.651,2312.682c-2.346-2.534-2.922-4.708-3.743-5.943-1.51-2.271-5.767-4.058-17.929-1.777q.275,2.936.551,5.873c9.054-3.067,13.065-1.986,15.017-.222a22.954,22.954,0,0,0,3.742,3.308,12.541,12.541,0,0,0,6.447,1.924A16.018,16.018,0,0,1,3047.651,2312.682Z" transform="translate(-3025.979 -2303.904)"/><path class="d" d="M3025.979,2330.694v5.323c5.964-3.2,10.045-3.156,12.7-2.482a22.325,22.325,0,0,0,6.536,1.217,10.943,10.943,0,0,0,6.075-2.056,16.23,16.23,0,0,1-6.835-1.31,45.222,45.222,0,0,1-4.773-2.642C3037.38,2327.528,3033.375,2327.01,3025.979,2330.694Z" transform="translate(-3025.979 -2320.459)"/></g><g class="e" transform="translate(4.789)"><g transform="translate(-93.22 -39.448)"><path class="f" d="M3158.423,2320.2c18.422.072,32.691-11.85,34.372-25.491,1.5-12.174-7.529-21.622-9.028-23.143" transform="translate(-3025.686 -2241.567)"/><g transform="translate(140.281 32.473)"><path class="g" d="M3190.9,2280.589l3.91,5.661-.427.9-10.234.814-5.834-8.447.427-.9,6.7-.532Z" transform="translate(-3178.317 -2278.085)"/></g><g transform="translate(145.983)"><path class="g" d="M3207.782,2211.544l7.493-15.771a1.324,1.324,0,0,0-.629-1.763l-3.031-1.44a1.324,1.324,0,0,0-1.764.626l-16.5,34.564,5.424,2.577,3.259-6.706Z" transform="translate(-3193.356 -2192.443)"/></g><g transform="translate(146.388 17.597)"><path d="M4.441,0H7.761A4.442,4.442,0,0,1,12.2,4.442V6.214a6.114,6.114,0,0,1-6.114,6.114h0A6.088,6.088,0,0,1,0,6.24v-1.8A4.441,4.441,0,0,1,4.441,0Z" transform="translate(0 11.06) rotate(-65.013)"/></g><line class="h" x1="0.362" y2="13.59" transform="translate(92.983 150.45)"/><path d="M3122.324,2410.724l.617-16.3a17.039,17.039,0,0,0-19.476-17.506h0a17.039,17.039,0,0,0-13.918,21.594l4.53,15.665a14.412,14.412,0,0,0,15.363,10.329h0A14.412,14.412,0,0,0,3122.324,2410.724Z" transform="translate(-2982.505 -2306.86)"/><path class="i" d="M2880.457,2587.494l-24.893,16.163" transform="translate(-2837.664 -2437.7)"/><path class="j" d="M3142.515,2624.924a3.984,3.984,0,0,0,4.028,4.218l1.514-.02,13.631-.171a2.46,2.46,0,0,0,.346-4.891l-7.252-1.266-7.487-1.539a3.984,3.984,0,0,0-4.78,3.67Z" transform="translate(-3015.806 -2458.608)"/><path class="j" d="M2829.957,2624.924a3.984,3.984,0,0,1-4.028,4.218l-1.514-.02-13.631-.171a2.46,2.46,0,0,1-.346-4.891l7.252-1.266,7.488-1.539a3.984,3.984,0,0,1,4.78,3.67Z" transform="translate(-2808.354 -2458.608)"/><path class="i" d="M3181.652,2580.636q-4.9,3.572-10.118,7.153-9.553,6.549-18.739,12.147" transform="translate(-3022.192 -2433.443)"/><path class="k" d="M3153.983,2510.345c1.316-.068,2.835-.113,4.528-.1a67.285,67.285,0,0,1,17.386,2.161c6.93,1.963,14.414,4.082,15.951,8.847,1.835,5.687-4.994,14.545-17.025,21.072" transform="translate(-3022.929 -2389.741)"/><path class="k" d="M2980.833,2503.885a265.317,265.317,0,0,0-83.919,36.168" transform="translate(-2863.334 -2385.794)"/><g transform="translate(120.812 120.509)"><path class="j" d="M3126.972,2510.262" transform="translate(-3126.972 -2510.262)"/></g><path d="M3113.329,2473.737l-30.668-9.576h0q-7.513,2.636-15.388,5.195-9.408,3.053-18.472,5.71a36.317,36.317,0,0,0,64.527-1.328Z" transform="translate(-2957.63 -2361.132)"/><rect class="d" width="28.905" height="9.663" transform="matrix(-0.988, 0.157, -0.157, -0.988, 141.819, 114.807)"/><g transform="translate(88.27 158.094)"><path d="M4.442,0H7.761A4.442,4.442,0,0,1,12.2,4.442V6.214a6.114,6.114,0,0,1-6.114,6.114h0A6.088,6.088,0,0,1,0,6.24v-1.8A4.442,4.442,0,0,1,4.442,0Z" transform="translate(0 0.173) rotate(-0.814)"/></g><path class="f" d="M3071.4,2423.256a79.7,79.7,0,0,0-13.65,24.011,80.547,80.547,0,0,0-3.783,38.155" transform="translate(-2960.337 -2335.738)"/><g transform="translate(88.431 45.835)"><path class="d" d="M3047.651,2312.682c-2.346-2.534-2.922-4.708-3.743-5.943-1.51-2.271-5.767-4.058-17.929-1.777q.275,2.936.551,5.873c9.054-3.067,13.065-1.986,15.017-.222a22.954,22.954,0,0,0,3.742,3.308,12.541,12.541,0,0,0,6.447,1.924A16.018,16.018,0,0,1,3047.651,2312.682Z" transform="translate(-3025.979 -2303.904)"/><path class="d" d="M3025.979,2330.694v5.323c5.964-3.2,10.045-3.156,12.7-2.482a22.325,22.325,0,0,0,6.536,1.217,10.943,10.943,0,0,0,6.075-2.056,16.23,16.23,0,0,1-6.835-1.31,45.222,45.222,0,0,1-4.773-2.642C3037.38,2327.528,3033.375,2327.01,3025.979,2330.694Z" transform="translate(-3025.979 -2320.459)"/></g><g transform="translate(107.159 48.564)"><path class="l" d="M3102.688,2320.539l-1.492.088a10.633,10.633,0,0,0-9.931,11.928l1.415,11.375a10.634,10.634,0,0,0,11.175,9.3h0a10.634,10.634,0,0,0,10.012-10.544l.077-11.462A10.634,10.634,0,0,0,3102.688,2320.539Z" transform="translate(-3091.101 -2320.52)"/><rect class="d" width="22.763" height="5.663" transform="translate(23.056 13.94) rotate(176.647)"/><rect class="m" width="19.841" height="5.817" rx="2.908" transform="translate(21.774 17.046) rotate(176.647)"/><path class="n" d="M3117.6,2359.105l2.521-.148-.284-4.845Z" transform="translate(-3107.5 -2341.375)"/><g transform="translate(3.692 13.468)"><rect class="b" width="3.052" height="1.622" rx="0.811" transform="matrix(-0.998, 0.058, -0.058, -0.998, 3.142, 2.346)"/><rect class="b" width="3.052" height="1.622" rx="0.811" transform="translate(15.56 1.619) rotate(176.647)"/></g><circle cx="0.821" cy="0.821" r="0.821" transform="translate(3.739 14.32)"/><circle cx="0.821" cy="0.821" r="0.821" transform="translate(16.157 13.592)"/></g></g></g></svg>