<svg xmlns="http://www.w3.org/2000/svg" xmlns:xlink="http://www.w3.org/1999/xlink" width="109.579" height="100" viewBox="0 0 109.579 100"><defs><style>.a{fill:#a3d8f1;}.b{fill:#fff;}.c{fill:#e3f6ff;}.d{fill:#22b573;}.e{clip-path:url(#a);}.f,.h,.i,.k{fill:none;}.f{stroke:#0c1b38;stroke-width:30px;}.f,.i,.k{stroke-linecap:round;}.f,.h{stroke-miterlimit:10;}.g{fill:#4f5d6c;}.h{stroke:#000;stroke-width:24.468px;}.i{stroke:#0c1121;stroke-width:20.645px;}.i,.k{stroke-linejoin:round;}.j{fill:#0c1121;}.k{stroke:#14254c;stroke-width:45.877px;}.l{fill:#0c1b38;}.m{fill:#e9ac6a;}.n{fill:#e26841;}</style><clipPath id="a"><ellipse class="a" cx="50" cy="50" rx="50" ry="50" transform="translate(-11251.149 -21710)"/></clipPath></defs><path class="b" d="M50,0A50,50,0,1,1,0,50,50,50,0,0,1,50,0Z" transform="translate(9.579)"/><path class="c" d="M50,0A50,50,0,1,1,0,50,50,50,0,0,1,50,0Z" transform="translate(9.579)"/><g transform="translate(0 12.775)"><path class="d" d="M3069.323,2321.46c-4.692-5.069-5.845-9.417-7.486-11.886-3.02-4.542-11.533-8.116-35.858-3.554q.551,5.872,1.1,11.746c18.109-6.134,26.13-3.972,30.034-.445,1.776,1.6,3.541,4.037,7.484,6.616a25.081,25.081,0,0,0,12.894,3.849A32.051,32.051,0,0,1,3069.323,2321.46Z" transform="translate(-3025.979 -2303.904)"/><path class="d" d="M3025.979,2333.547v10.646c11.927-6.4,20.09-6.311,25.405-4.964,3.669.93,7.343,2.455,13.071,2.433a21.891,21.891,0,0,0,12.15-4.112,32.467,32.467,0,0,1-13.671-2.619c-4.782-2.1-7.1-3.994-9.546-5.285C3048.781,2327.215,3040.771,2326.18,3025.979,2333.547Z" transform="translate(-3025.979 -2313.077)"/></g><g class="e" transform="translate(11260.729 21710)"><g transform="translate(-12096.358 -23981.338)"><path class="f" d="M3158.423,2368.839c36.843.145,65.382-23.7,68.744-50.983,3-24.348-15.059-43.243-18.055-46.286" transform="translate(-2234.18 -19.121)"/><g transform="translate(939.33 2257.389)"><path class="g" d="M3203.488,2283.094l7.821,11.323-.855,1.8-20.468,1.627-11.668-16.894.855-1.8,13.4-1.065Z" transform="translate(-3178.317 -2278.085)"/></g><g transform="translate(950.734 2192.443)"><path class="g" d="M3222.208,2230.646l14.987-31.541a2.648,2.648,0,0,0-1.258-3.526l-6.063-2.879a2.647,2.647,0,0,0-3.528,1.252l-32.99,69.127,10.849,5.154,6.518-13.412Z" transform="translate(-3193.356 -2192.443)"/></g><g transform="translate(951.545 2227.636)"><path d="M8.291,0h7.822A8.291,8.291,0,0,1,24.4,8.291v4.952A11.413,11.413,0,0,1,12.991,24.656H11.365A11.365,11.365,0,0,1,0,13.291v-5A8.291,8.291,0,0,1,8.291,0Z" transform="translate(0 22.12) rotate(-65.013)"/></g><line class="h" x1="0.724" y2="27.18" transform="translate(844.735 2493.343)"/><path d="M3155.778,2444.706l1.234-32.591a34.077,34.077,0,0,0-38.951-35.012h0a34.077,34.077,0,0,0-27.836,43.189l9.06,31.33a28.825,28.825,0,0,0,30.725,20.658h0A28.824,28.824,0,0,0,3155.778,2444.706Z" transform="translate(-2217.373 -44.536)"/><path class="i" d="M2905.35,2587.494l-49.786,32.326" transform="translate(-2160.994 -95.464)"/><path class="j" d="M3142.522,2628.677a7.968,7.968,0,0,0,8.055,8.435l3.028-.039,27.262-.343a4.921,4.921,0,0,0,.692-9.783l-14.5-2.532-14.975-3.078a7.969,7.969,0,0,0-9.56,7.34Z" transform="translate(-2230.335 -103.603)"/><path class="j" d="M2851.56,2628.677a7.969,7.969,0,0,1-8.055,8.435l-3.028-.039-27.262-.343a4.921,4.921,0,0,1-.693-9.783l14.5-2.532,14.975-3.078a7.968,7.968,0,0,1,9.56,7.34Z" transform="translate(-2149.586 -103.603)"/><path class="i" d="M3210.51,2580.636q-9.805,7.145-20.237,14.306-19.106,13.1-37.478,24.294" transform="translate(-2232.82 -93.807)"/><path class="k" d="M3153.983,2510.447c2.631-.136,5.669-.226,9.057-.2,5.714.044,20.339.235,34.771,4.322,13.86,3.926,28.827,8.165,31.9,17.693,3.67,11.374-9.988,29.089-34.05,42.144" transform="translate(-2233.107 -76.797)"/><path class="k" d="M3064.752,2503.885a530.633,530.633,0,0,0-167.838,72.336" transform="translate(-2170.987 -75.261)"/><g transform="translate(900.392 2433.461)"><path class="j" d="M3126.972,2510.262" transform="translate(-3126.972 -2510.262)"/></g><path d="M3177.856,2483.313l-61.336-19.153h0q-15.026,5.272-30.776,10.39-18.815,6.107-36.943,11.419a72.634,72.634,0,0,0,129.055-2.656Z" transform="translate(-2207.69 -65.661)"/><rect class="d" width="57.81" height="19.325" transform="matrix(-0.988, 0.157, -0.157, -0.988, 942.407, 2422.056)"/><g transform="translate(835.308 2508.631)"><path d="M8.291,0h7.822A8.291,8.291,0,0,1,24.4,8.291v4.952A11.413,11.413,0,0,1,12.992,24.656H11.365A11.365,11.365,0,0,1,0,13.291v-5A8.291,8.291,0,0,1,8.291,0Z" transform="translate(0 0.347) rotate(-0.814)"/></g><path class="f" d="M3089.63,2423.256a159.413,159.413,0,0,0-27.3,48.023,161.1,161.1,0,0,0-7.566,76.309" transform="translate(-2208.744 -55.776)"/><g transform="translate(835.63 2284.113)"><path class="d" d="M3069.323,2321.46c-4.692-5.069-5.845-9.417-7.486-11.886-3.02-4.542-11.533-8.116-35.858-3.554q.551,5.872,1.1,11.746c18.109-6.134,26.13-3.972,30.034-.445,1.776,1.6,3.541,4.037,7.484,6.616a25.081,25.081,0,0,0,12.894,3.849A32.051,32.051,0,0,1,3069.323,2321.46Z" transform="translate(-3025.979 -2303.904)"/><path class="d" d="M3025.979,2333.547v10.646c11.927-6.4,20.09-6.311,25.405-4.964,3.669.93,7.343,2.455,13.071,2.433a21.891,21.891,0,0,0,12.15-4.112,32.467,32.467,0,0,1-13.671-2.619c-4.782-2.1-7.1-3.994-9.546-5.285C3048.781,2327.215,3040.771,2326.18,3025.979,2333.547Z" transform="translate(-3025.979 -2313.077)"/></g><g transform="translate(873.087 2289.57)"><path class="l" d="M3114.193,2320.557l-2.984.175a21.267,21.267,0,0,0-19.861,23.857l2.83,22.75a21.268,21.268,0,0,0,22.349,18.605h0a21.268,21.268,0,0,0,20.024-21.088l.154-22.924A21.268,21.268,0,0,0,3114.193,2320.557Z" transform="translate(-3091.019 -2320.52)"/><rect class="d" width="45.527" height="11.326" transform="translate(46.111 27.879) rotate(176.647)"/><rect class="m" width="39.681" height="11.634" rx="5.817" transform="translate(43.547 34.093) rotate(176.647)"/><path class="n" d="M3117.6,2364.1l5.041-.3-.568-9.691Z" transform="translate(-3097.402 -2328.638)"/><g transform="translate(7.384 26.937)"><rect class="b" width="6.105" height="3.243" rx="1.622" transform="matrix(-0.998, 0.058, -0.058, -0.998, 6.284, 4.693)"/><rect class="b" width="6.105" height="3.243" rx="1.622" transform="translate(31.121 3.237) rotate(176.647)"/></g><circle cx="1.643" cy="1.643" r="1.643" transform="translate(7.477 28.64)"/><circle cx="1.643" cy="1.643" r="1.643" transform="translate(32.314 27.185)"/></g></g></g></svg>