<svg xmlns="http://www.w3.org/2000/svg" xmlns:xlink="http://www.w3.org/1999/xlink" width="1920" height="95.951" viewBox="0 0 1920 95.951"><defs><style>.a,.e{fill:#5392e4;}.b{clip-path:url(#a);}.c{opacity:0.598;fill:url(#b);}.d{opacity:0.154;fill:url(#c);}.e{opacity:0.2;}</style><clipPath id="a"><path class="a" d="M0,0H1920V95.951H0Z"/></clipPath><linearGradient id="b" x1="0.512" y1="0.225" x2="0.483" y2="1.824" gradientUnits="objectBoundingBox"><stop offset="0" stop-color="#68a1ef" stop-opacity="0.306"/><stop offset="1" stop-color="#1b74c1" stop-opacity="0.698"/></linearGradient><linearGradient id="c" x1="0.581" y1="0.251" x2="0.482" y2="1.943" gradientUnits="objectBoundingBox"><stop offset="0" stop-color="#84afff"/><stop offset="1" stop-color="#4494d0" stop-opacity="0.698"/></linearGradient></defs><g class="b"><path class="c" d="M-7438.842-8733.241c-17.286.01-20.236,4.395-66.286-14.667s-289.863-119.766-289.863-119.766v343.4l1920.25.061-.025-375.128s-516.888,278.009-550.769,297.53c-43.05,24.8-68.657,23.52-117.171,8.01s-342.608-113.962-373.081-123.348-43.227-15.955-74.064-16.007S-7421.555-8733.25-7438.842-8733.241Z" transform="translate(7795.004 8620.369)"/><path class="d" d="M-7792-8569.906s241.153-180.438,281.83-212.71,69.553-28.639,95.726-29.346,419.675,0,419.675,0,31.859-2.827,69.713,9.825,345.665,102.873,345.665,102.873,37.481,11.554,75.915-9.16,158.317-89.235,196.987-108.217,54.5-14.206,121.036-7.489,313.422,27.493,313.422,27.493l.412,246.054L-7792-8550.641Z" transform="translate(7792.001 8822.232)"/><path class="e" d="M0,0H1920V95.951H0Z"/></g></svg>