<?xml version="1.0" encoding="utf-8"?>
<!-- Generator: Adobe Illustrator 14.0.0, SVG Export Plug-In . SVG Version: 6.00 Build 43363)  -->
<!DOCTYPE svg PUBLIC "-//W3C//DTD SVG 1.1//EN" "http://www.w3.org/Graphics/SVG/1.1/DTD/svg11.dtd">
<svg version="1.1" id="Layer_1" xmlns="http://www.w3.org/2000/svg" xmlns:xlink="http://www.w3.org/1999/xlink" x="0px" y="0px"
	 width="16px" height="16px" viewBox="0 0 16 16" enable-background="new 0 0 16 16" xml:space="preserve">
<style type="text/css">
	.st0{fill:#929BA4;}
</style>
<path class="st0" d="M8,2C4.7,2,2,4.7,2,8s2.7,6,6,6s6-2.7,6-6C14,4.7,11.3,2,8,2z M13,8c0,2.8-2.2,5-5,5c-2.8,0-5-2.2-5-5
	s2.2-5,5-5C10.8,3,13,5.2,13,8z M9,9H7V5h2V9z M9,11H7v-1h2V11z"/>
</svg>
