<?xml version="1.0" encoding="utf-8"?>
<!-- Generator: Adobe Illustrator 23.0.1, SVG Export Plug-In . SVG Version: 6.00 Build 0)  -->
<svg version="1.1" id="logos" xmlns="http://www.w3.org/2000/svg" xmlns:xlink="http://www.w3.org/1999/xlink" x="0px" y="0px"
	 viewBox="0 0 594 61" style="enable-background:new 0 0 594 61;" xml:space="preserve">
<style type="text/css">
	.st0{fill:#4B4E52;}
	.st1{fill:#5CE500;}
</style>
<g>
	<g>
		<g>
			<path class="st0" d="M265.3,14.8h28.5v2.7H281v32.3H278V17.5h-12.8V14.8z"/>
			<path class="st0" d="M302.3,47.8c2.9,0,5-0.7,7.1-2.5v2.8c-1.9,1.5-4.4,2.2-7.4,2.2c-7.1,0-11.8-5-11.8-12.9
				c0-7.8,4.2-13.4,10.9-13.4c6.6,0,10,5,10,12.4v1h-18.2C293.1,44.2,297.1,47.8,302.3,47.8z M293.2,35.1h15.3
				c-0.2-4.4-2.3-8.6-7.3-8.6C297.1,26.5,293.9,29.6,293.2,35.1z"/>
			<path class="st0" d="M318.3,49.8h-2.9V12.8h2.9V49.8z"/>
			<path class="st0" d="M334.6,47.8c2.9,0,5-0.7,7.1-2.5v2.8c-1.9,1.5-4.4,2.2-7.4,2.2c-7.1,0-11.8-5-11.8-12.9
				c0-7.8,4.2-13.4,10.9-13.4c6.6,0,10,5,10,12.4v1h-18.2C325.4,44.2,329.4,47.8,334.6,47.8z M325.5,35.1h15.3
				c-0.2-4.4-2.3-8.6-7.3-8.6C329.4,26.5,326.2,29.6,325.5,35.1z"/>
			<path class="st0" d="M359.6,27.1c-0.7-0.3-1.4-0.5-2.3-0.5c-3.1,0-5.5,2.2-6.7,5.5v17.7h-2.9V24.5h2.9v4c1.1-2.5,3.7-4.6,6.8-4.6
				c1,0,1.7,0.2,2.2,0.3V27.1z"/>
			<path class="st0" d="M364.1,18.8c-1.1,0-1.9-0.9-1.9-1.9c0-1,0.9-1.9,1.9-1.9s1.9,0.9,1.9,1.9C366,17.9,365.2,18.8,364.1,18.8z
				 M365.5,49.8h-2.9V24.5h2.9V49.8z"/>
			<path class="st0" d="M390.8,49.8h-3.5l-13.2-13v13h-2.9V12.8h2.9v22.8l12.8-11.1h3.7l-13.5,11.6L390.8,49.8z"/>
			<path class="st0" d="M407.4,45.1c2.2,1.7,4.2,2.5,6.6,2.5c4.5,0,6.6-2.6,6.6-9V14.8h2.9v23.9c0,8-3.4,11.6-9.5,11.6
				c-2.9,0-5.2-1.1-6.6-2.2V45.1z"/>
			<path class="st0" d="M448.8,49.8H446v-4c-1.5,2.4-4.4,4.6-8,4.6c-5.8,0-8.8-3.7-8.8-9.1V24.5h2.8v16.4c0,3.9,2,6.8,6.5,6.8
				c3.5,0,6.3-2.5,7.5-5.5V24.5h2.8V49.8z"/>
			<path class="st0" d="M453,44.8c2.2,1.9,4.8,3.1,8.1,3.1c3.1,0,6-1.3,6-4.5c0-2.2-1.4-3.5-4-4.4l-4.2-1.5
				c-3.4-1.3-5.9-2.9-5.9-6.7c0-4.3,3.8-6.7,8.4-6.7c2.7,0,5.4,0.8,7.4,2.3v3.1c-2.1-1.7-4.3-2.8-7.4-2.8c-3,0-5.6,1.4-5.6,4.1
				c0,2.4,1.6,3.3,4.3,4.3l4.4,1.7c3.5,1.2,5.4,3.4,5.4,6.6c0,4.6-4,7.1-8.9,7.1c-3.4,0-6.4-1.1-8-2.5V44.8z"/>
			<path class="st0" d="M480,49.8h-2.9V27h-5.4v-2.5h5.4V18h2.9v6.5h6V27h-6V49.8z"/>
			<path class="st0" d="M505.3,41.8l-13.2-21.4v29.5h-2.9v-35h2.6l13.6,22.2l13.7-22.2h2.4v35h-2.9V20.4l-13.2,21.4H505.3z"/>
			<path class="st0" d="M537.6,50.3c-6.7,0-11.2-5.4-11.2-13.2c0-7.8,4.5-13.2,11.2-13.2c6.7,0,11.2,5.4,11.2,13.2
				C548.8,45,544.3,50.3,537.6,50.3z M537.6,26.5c-5,0-8.3,4.3-8.3,10.7s3.3,10.7,8.3,10.7c5.1,0,8.4-4.3,8.4-10.7
				S542.6,26.5,537.6,26.5z"/>
			<path class="st0" d="M563.4,24c2.5,0,5,0.7,6.7,2.2v2.9c-2-1.8-4.1-2.6-6.6-2.6c-5,0-9.1,3.9-9.1,10.6s4,10.6,9.1,10.6
				c2.5,0,4.6-0.7,6.6-2.6v2.9c-1.8,1.5-4.3,2.2-6.7,2.2c-6.8,0-11.8-5.2-11.8-13.2C551.5,29.2,556.6,24,563.4,24z"/>
			<path class="st0" d="M593.2,49.8h-3.5l-13.2-13v13h-2.9V12.8h2.9v22.8l12.8-11.1h3.7l-13.5,11.6L593.2,49.8z"/>
		</g>
		<path class="st0" d="M397.4,26.5c-2,0-3.7-1.6-3.7-3.7c0-2.2,1.7-3.7,3.7-3.7s3.7,1.6,3.7,3.7C401.1,24.9,399.4,26.5,397.4,26.5
			 M397.4,19.7c-1.7,0-3,1.3-3,3.1c0,1.8,1.3,3.1,3,3.1c1.7,0,3-1.3,3-3.1C400.4,21,399,19.7,397.4,19.7 M397,23.5v1.2h-1.1v-3.9
			h1.8c0.9,0,1.4,0.5,1.4,1.4c0,0.6-0.3,1-0.8,1.2l0.9,1.4h-1.2l-0.8-1.2H397z M397.6,21.7H397v0.9h0.6c0.3,0,0.5-0.2,0.5-0.4
			C398.1,21.9,397.9,21.7,397.6,21.7"/>
	</g>
	<path class="st1" d="M48.6,41.1c0,0.6-0.4,1.3-0.9,1.6l-12.5,7.2V22L11,8.1l12.5-7.2c0.5-0.3,1.3-0.3,1.8,0l23.2,13.4V41.1z
		 M29.8,25.1l-16.5-9.5c-0.5-0.3-1.3-0.3-1.8,0L0.3,22L17.7,32l0,20.1l11.2-6.4c0.5-0.3,0.9-1,0.9-1.6V25.1z M0.3,42.1l12.1,7V35.1
		L0.3,42.1z"/>
	<g>
		<path class="st0" d="M75.1,14.2H62v35.6h5.8v-14h7.4c8,0,12.4-3.9,12.4-11C87.5,21.7,86.3,14.2,75.1,14.2 M81.6,25
			c0,4-2.1,5.7-7.2,5.7h-6.6V19.5h7.4C79.5,19.5,81.6,21.3,81.6,25 M104.9,23.9l0.4,0.2l-1,5.3l-0.7-0.2c-0.6-0.2-1.1-0.3-1.7-0.3
			c-5.4,0-5.9,4.3-5.9,9.6v11.3h-5.4V23.7h5.1v3.2c1.4-2.1,3-3.2,5.2-3.5C102.4,23.2,103.8,23.4,104.9,23.9 M118.2,23.2
			c-4.3,0-7.7,1.6-9.8,4.7c-2.3,3.2-2.6,7-2.6,9c0,8.3,4.9,13.6,12.5,13.6c9.2,0,12.5-7.4,12.5-13.8c0-3.7-1.1-7-3-9.4
			C125.4,24.6,122.1,23.2,118.2,23.2 M118.2,45.6c-4.2,0-6.9-3.4-6.9-8.8c0-5.5,2.6-8.9,6.9-8.9c4.2,0,6.9,3.4,6.9,8.8
			C125.1,42.2,122.4,45.6,118.2,45.6 M176,23.9l0.4,0.2l-1,5.3l-0.7-0.2c-0.6-0.2-1.1-0.3-1.7-0.3c-5.4,0-5.9,4.3-5.9,9.6v11.3h-5.4
			V23.7h5.1v3.2c1.4-2.1,3-3.2,5.2-3.5C173.6,23.2,175,23.4,176,23.9 M195.4,41.5l-0.1,0.3c-1.1,3.2-3.8,3.9-5.9,3.9
			c-4.1,0-6.7-2.7-7-7.1H201L201,38c0.1-0.6,0.1-1.5,0.1-2.1c0-0.2,0-0.3,0-0.5c-0.3-7.3-5-12.2-11.9-12.2c-4,0-7.3,1.6-9.5,4.5
			c-1.8,2.4-2.8,5.7-2.8,9.1c0,8.1,5,13.5,12.5,13.5c5.8,0,9.8-2.9,11.2-8.3l0.2-0.6H195.4z M182.7,33.8c0.5-3.6,2.9-5.9,6.5-5.9
			c2.7,0,5.9,1.6,6.3,5.9H182.7z M152,25.9c-1.7-1.8-4.1-2.7-6.9-2.7c-7.9,0-11.5,7-11.5,13.5c0,6.6,3.6,13.4,11.5,13.4
			c2.7,0,5-1,6.7-2.7c0,1.2,0,2.2-0.1,2.7c-0.3,4.3-2.4,6.3-6.5,6.3c-2.3,0-4.9-0.8-5.4-3.1l-0.1-0.5l-5.3,0l0.1,0.7
			c0.6,4.6,4.6,7.5,10.6,7.5c5.2,0,8.9-2,10.8-5.7c0.9-1.8,1.3-4.4,1.3-7.8V23.7H152V25.9z M145.4,45.2c-1.9,0-6.3-0.9-6.3-8.8
			c0-5.2,2.5-8.4,6.4-8.4c3.1,0,6.3,2.2,6.3,8.4C151.9,41.9,149.4,45.2,145.4,45.2 M226,42c0,4.2-3.5,8.4-11.2,8.4
			c-6.8,0-10.9-3-11.4-8.3l-0.1-0.6h5.3l0.1,0.4c0.7,3.2,3.7,3.9,6.2,3.9c2.7,0,5.6-0.9,5.6-3.3c0-1.2-0.8-2.1-2.4-2.6
			c-0.9-0.3-2.1-0.6-3.3-0.9c-2.1-0.6-4.3-1.2-5.6-1.7c-3.3-1.2-5.2-3.5-5.2-6.3c0-5.3,5.1-7.6,10.2-7.6c6.8,0,10.3,2.6,10.8,7.8
			l0,0.5l-5.2,0l-0.1-0.4c-0.5-3-3.5-3.5-5.3-3.5c-1.5,0-5,0.3-5,2.8c0,1.1,1,2,3,2.6c0.6,0.2,1.5,0.4,2.5,0.7
			c2.1,0.6,4.8,1.2,6.1,1.7C224.4,36.6,226,38.8,226,42 M251,42c0,4.2-3.5,8.4-11.2,8.4c-6.8,0-10.9-3-11.4-8.3l-0.1-0.6h5.3
			l0.1,0.4c0.7,3.2,3.7,3.9,6.2,3.9c2.7,0,5.6-0.9,5.6-3.3c0-1.2-0.8-2.1-2.4-2.6c-0.9-0.3-2.1-0.6-3.3-0.9
			c-2.1-0.6-4.3-1.2-5.6-1.7c-3.3-1.2-5.2-3.5-5.2-6.3c0-5.3,5.1-7.6,10.2-7.6c6.8,0,10.3,2.6,10.8,7.8l0,0.5l-5.2,0l-0.1-0.4
			c-0.5-3-3.5-3.5-5.3-3.5c-1.5,0-5,0.3-5,2.8c0,1.1,1,2,3,2.6c0.6,0.2,1.5,0.4,2.5,0.7c2.1,0.6,4.8,1.2,6.1,1.7
			C249.3,36.6,251,38.8,251,42"/>
		<path class="st0" d="M255.3,26.5c-2,0-3.7-1.6-3.7-3.7c0-2.2,1.7-3.7,3.7-3.7c2,0,3.7,1.6,3.7,3.7
			C258.9,24.9,257.3,26.5,255.3,26.5 M255.3,19.7c-1.7,0-3,1.3-3,3.1c0,1.8,1.3,3.1,3,3.1c1.7,0,3-1.3,3-3.1
			C258.3,21,256.9,19.7,255.3,19.7 M254.8,23.5v1.2h-1.1v-3.9h1.8c0.9,0,1.4,0.5,1.4,1.4c0,0.6-0.3,1-0.8,1.2l0.9,1.4h-1.2l-0.8-1.2
			H254.8z M255.4,21.7h-0.6v0.9h0.6c0.3,0,0.5-0.2,0.5-0.4C256,21.9,255.8,21.7,255.4,21.7"/>
	</g>
</g>
</svg>
