<?xml version="1.0" encoding="utf-8"?>
<!-- Generator: Adobe Illustrator 23.0.1, SVG Export Plug-In . SVG Version: 6.00 Build 0)  -->
<svg version="1.1" id="logos" xmlns="http://www.w3.org/2000/svg" xmlns:xlink="http://www.w3.org/1999/xlink" x="0px" y="0px"
	 viewBox="0 0 224.7 61" style="enable-background:new 0 0 224.7 61;" xml:space="preserve">
<style type="text/css">
	.st0{fill:#4B4E52;}
</style>
<g>
	<g>
		<g>
			<path class="st0" d="M1,14.3h28.5v2.7H16.7v32.3h-2.9V16.9H1V14.3z"/>
			<path class="st0" d="M38,47.3c2.9,0,5-0.7,7.1-2.5v2.8c-1.9,1.5-4.4,2.2-7.4,2.2c-7.1,0-11.8-5-11.8-12.9
				c0-7.8,4.2-13.4,10.9-13.4c6.6,0,10,5,10,12.4v1H28.8C28.8,43.7,32.8,47.3,38,47.3z M28.9,34.5h15.3c-0.2-4.4-2.3-8.6-7.3-8.6
				C32.8,25.9,29.6,29,28.9,34.5z"/>
			<path class="st0" d="M49.5,44.2c2.2,1.9,4.8,3.1,8.1,3.1c3.1,0,6-1.3,6-4.5c0-2.2-1.4-3.5-4-4.4l-4.2-1.5
				c-3.4-1.3-5.9-2.9-5.9-6.7c0-4.3,3.8-6.7,8.4-6.7c2.7,0,5.4,0.8,7.4,2.3v3.1c-2.1-1.7-4.3-2.8-7.4-2.8c-3,0-5.6,1.4-5.6,4.1
				c0,2.4,1.6,3.3,4.3,4.3L61,36c3.5,1.2,5.4,3.4,5.4,6.6c0,4.6-4,7.1-8.9,7.1c-3.4,0-6.4-1.1-8-2.5V44.2z"/>
			<path class="st0" d="M76.5,49.3h-2.9V26.4h-5.4v-2.5h5.4v-6.5h2.9v6.5h6v2.5h-6V49.3z"/>
			<path class="st0" d="M96.5,42.9c3.4,3,6.8,4.2,10.8,4.2c5,0,8.2-2.5,8.2-6.6c0-3.5-2-5-6.3-6.8l-5.1-2.2c-3.6-1.5-7.6-3.6-7.6-9
				c0-5.9,5-8.9,10.6-8.9c3.6,0,7.2,1.1,9.8,3V20c-2.7-2.3-5.8-3.5-9.7-3.5c-4.3,0-7.8,2.1-7.8,6.2c0,3.4,2.4,4.9,6.1,6.4l5.4,2.3
				c5.1,2.2,7.5,4.7,7.5,9.2c0,5.6-4.7,9.3-11.1,9.3c-4.7,0-8.6-1.5-10.8-3.5V42.9z"/>
			<path class="st0" d="M126.6,49.3h-2.9V26.4h-5.4v-2.5h5.4v-6.5h2.9v6.5h6v2.5h-6V49.3z"/>
			<path class="st0" d="M155.1,49.3h-2.8v-4c-1.5,2.4-4.4,4.6-8,4.6c-5.8,0-8.8-3.7-8.8-9.1V23.9h2.8v16.4c0,3.9,2,6.8,6.5,6.8
				c3.5,0,6.3-2.5,7.5-5.5V23.9h2.8V49.3z"/>
			<path class="st0" d="M178.4,45.5c-1.4,2.2-4.4,4.3-7.9,4.3c-7.5,0-11.1-6.2-11.1-13.2s3.6-13.2,11.1-13.2c3.5,0,6.4,2.1,7.9,4.3
				V12.2h2.8v37.1h-2.8V45.5z M178.4,31.1c-1.7-3.2-4.6-5-7.6-5c-5.3,0-8.4,4.4-8.4,10.5s3.1,10.5,8.4,10.5c3.1,0,5.9-1.8,7.6-5
				V31.1z"/>
			<path class="st0" d="M188.4,18.2c-1.1,0-1.9-0.9-1.9-1.9c0-1,0.9-1.9,1.9-1.9s1.9,0.9,1.9,1.9C190.4,17.3,189.5,18.2,188.4,18.2z
				 M189.9,49.3H187V23.9h2.9V49.3z"/>
			<path class="st0" d="M205.2,49.8c-6.7,0-11.2-5.4-11.2-13.2c0-7.8,4.5-13.2,11.2-13.2c6.7,0,11.2,5.4,11.2,13.2
				C216.4,44.4,211.9,49.8,205.2,49.8z M205.2,25.9c-5,0-8.3,4.3-8.3,10.7s3.3,10.7,8.3,10.7c5.1,0,8.4-4.3,8.4-10.7
				S210.3,25.9,205.2,25.9z"/>
		</g>
		<path class="st0" d="M220.5,25.9c-2,0-3.7-1.6-3.7-3.7c0-2.2,1.7-3.7,3.7-3.7s3.7,1.6,3.7,3.7C224.1,24.4,222.5,25.9,220.5,25.9
			 M220.5,19.1c-1.7,0-3,1.3-3,3.1c0,1.8,1.3,3.1,3,3.1c1.7,0,3-1.3,3-3.1C223.5,20.4,222.1,19.1,220.5,19.1 M220,22.9v1.2h-1.1
			v-3.9h1.8c0.9,0,1.4,0.5,1.4,1.4c0,0.6-0.3,1-0.8,1.2l0.9,1.4h-1.2l-0.8-1.2H220z M220.6,21.1H220V22h0.6c0.3,0,0.5-0.2,0.5-0.4
			C221.2,21.3,221,21.1,220.6,21.1"/>
	</g>
</g>
</svg>
