<?xml version="1.0" encoding="utf-8"?>
<!-- Generator: Adobe Illustrator 22.1.0, SVG Export Plug-In . SVG Version: 6.00 Build 0)  -->
<svg version="1.1" id="logos" xmlns="http://www.w3.org/2000/svg" xmlns:xlink="http://www.w3.org/1999/xlink" x="0px" y="0px"
	 viewBox="0 0 561 62" style="enable-background:new 0 0 561 62;" xml:space="preserve">
<style type="text/css">
	.st0{fill:#4B4E52;}
</style>
<g>
	<g>
		<g>
			<path class="st0" d="M1.3,15h28.5v2.7H17V50h-2.9V17.7H1.3V15z"/>
			<path class="st0" d="M38.3,48c2.9,0,5-0.7,7.1-2.5v2.8c-1.9,1.5-4.4,2.2-7.4,2.2c-7.1,0-11.8-5-11.8-12.9
				c0-7.8,4.2-13.4,10.9-13.4c6.6,0,10,5,10,12.4v1H29.1C29.1,44.4,33.1,48,38.3,48z M29.2,35.2h15.3c-0.2-4.4-2.3-8.6-7.3-8.6
				C33.1,26.7,29.9,29.8,29.2,35.2z"/>
			<path class="st0" d="M54.3,50h-2.9V12.9h2.9V50z"/>
			<path class="st0" d="M70.6,48c2.9,0,5-0.7,7.1-2.5v2.8c-1.9,1.5-4.4,2.2-7.4,2.2c-7.1,0-11.8-5-11.8-12.9
				c0-7.8,4.2-13.4,10.9-13.4c6.6,0,10,5,10,12.4v1H61.4C61.4,44.4,65.4,48,70.6,48z M61.5,35.2h15.3c-0.2-4.4-2.3-8.6-7.3-8.6
				C65.4,26.7,62.2,29.8,61.5,35.2z"/>
			<path class="st0" d="M95.6,27.3c-0.7-0.3-1.4-0.5-2.3-0.5c-3.1,0-5.5,2.2-6.7,5.5V50h-2.9V24.7h2.9v4c1.1-2.5,3.7-4.6,6.8-4.6
				c1,0,1.7,0.2,2.2,0.3V27.3z"/>
			<path class="st0" d="M100.1,18.9c-1.1,0-1.9-0.9-1.9-1.9c0-1,0.9-1.9,1.9-1.9S102,16,102,17C102,18.1,101.2,18.9,100.1,18.9z
				 M101.5,50h-2.9V24.7h2.9V50z"/>
			<path class="st0" d="M126.8,50h-3.5l-13.2-13v13h-2.9V12.9h2.9v22.8l12.8-11.1h3.7l-13.5,11.6L126.8,50z"/>
			<path class="st0" d="M145.7,36.2V15h2.9v20.8c0,8.2,4.4,12,10.5,12c6,0,10.5-3.8,10.5-12V15h2.9v21.2c0,9.6-5.9,14.3-13.5,14.3
				C151.6,50.5,145.7,45.8,145.7,36.2z"/>
			<path class="st0" d="M181.8,50h-2.9V15h2.9V50z"/>
			<path class="st0" d="M212.3,15.6c-0.7-0.4-1.6-0.6-2.6-0.6c-2.7,0-4.6,1.9-4.6,5.5v4.3h5.9v2.5h-5.9V50h-2.8V27.1h-4.1v-2.5h4.1
				v-4.6c0-4.6,3-7.7,7.1-7.7c1.1,0,2,0.2,2.9,0.5V15.6z"/>
			<path class="st0" d="M222.6,50.5c-6.7,0-11.2-5.4-11.2-13.2c0-7.8,4.5-13.2,11.2-13.2c6.7,0,11.2,5.4,11.2,13.2
				C233.8,45.2,229.3,50.5,222.6,50.5z M222.6,26.7c-5,0-8.3,4.3-8.3,10.7s3.3,10.7,8.3,10.7c5.1,0,8.4-4.3,8.4-10.7
				S227.7,26.7,222.6,26.7z"/>
			<path class="st0" d="M250,27.3c-0.7-0.3-1.4-0.5-2.3-0.5c-3.1,0-5.5,2.2-6.7,5.5V50h-2.9V24.7h2.9v4c1.1-2.5,3.7-4.6,6.8-4.6
				c1,0,1.7,0.2,2.2,0.3V27.3z"/>
			<path class="st0" d="M279.7,15l13.9,35h-2.9l-4.6-11.5h-15.5L266.1,50h-2.9L277,15H279.7z M271.6,35.9h13.5l-6.7-17.1L271.6,35.9
				z"/>
			<path class="st0" d="M295.4,43.7c3.4,3,6.8,4.2,10.8,4.2c5,0,8.2-2.5,8.2-6.6c0-3.5-2-5-6.3-6.8l-5.1-2.2c-3.6-1.5-7.6-3.6-7.6-9
				c0-5.9,5-8.9,10.6-8.9c3.6,0,7.2,1.1,9.8,3v3.2c-2.7-2.3-5.8-3.5-9.7-3.5c-4.3,0-7.8,2.1-7.8,6.2c0,3.4,2.4,4.9,6.1,6.4l5.4,2.3
				c5.1,2.2,7.5,4.7,7.5,9.2c0,5.6-4.7,9.3-11.1,9.3c-4.7,0-8.6-1.5-10.8-3.5V43.7z"/>
			<path class="st0" d="M324.7,34.9V50h-2.9V15h12.4c6.8,0,11.3,3.4,11.3,9.9c0,6.6-4.5,10-11.3,10H324.7z M334.1,17.6h-9.3v14.6
				h9.3c5.4,0,8.6-2.7,8.6-7.3C342.6,20.4,339.5,17.6,334.1,17.6z"/>
			<path class="st0" d="M343.4,45.8c1.2,0,2.2,1,2.2,2.2c0,1.2-1,2.2-2.2,2.2c-1.1,0-2.1-1-2.1-2.2
				C341.3,46.8,342.3,45.8,343.4,45.8z"/>
			<path class="st0" d="M376.8,50h-1.9l-21.4-30.4V50h-2.8V15h2.8L374,44.2V15h2.8V50z"/>
			<path class="st0" d="M405.2,15v2.7h-18.9v12.9h17.1v2.7h-17.1v14h18.9V50h-21.7V15H405.2z"/>
			<path class="st0" d="M408.2,15h28.5v2.7h-12.8V50h-2.9V17.7h-12.8V15z"/>
			<path class="st0" d="M466.9,15l13.9,35h-2.9l-4.6-11.5h-15.5L453.3,50h-2.9l13.9-35H466.9z M458.8,35.9h13.5l-6.7-17.1
				L458.8,35.9z"/>
			<path class="st0" d="M482.6,45.3c2.2,1.7,4.2,2.5,6.6,2.5c4.5,0,6.6-2.6,6.6-9V15h2.9v23.9c0,8-3.4,11.6-9.5,11.6
				c-2.9,0-5.2-1.1-6.6-2.2V45.3z"/>
			<path class="st0" d="M517,15l13.9,35h-2.9l-4.6-11.5h-15.5L503.4,50h-2.9l13.9-35H517z M508.9,35.9h13.5l-6.7-17.1L508.9,35.9z"
				/>
			<path class="st0" d="M548.4,32.2L560.8,50h-3.3l-10.8-15.4L535.9,50h-3.2l12.4-17.7l-12-17.3h3.3l10.4,14.9L557.2,15h3.2
				L548.4,32.2z"/>
		</g>
		<path class="st0" d="M133.4,26.7c-2,0-3.7-1.6-3.7-3.7c0-2.2,1.7-3.7,3.7-3.7c2,0,3.7,1.6,3.7,3.7
			C137.1,25.1,135.4,26.7,133.4,26.7 M133.4,19.9c-1.7,0-3,1.3-3,3.1c0,1.8,1.3,3.1,3,3.1c1.7,0,3-1.3,3-3.1
			C136.4,21.1,135.1,19.9,133.4,19.9 M133,23.6v1.2h-1.1V21h1.8c0.9,0,1.4,0.5,1.4,1.4c0,0.6-0.3,1-0.8,1.2l0.9,1.4h-1.2l-0.8-1.2
			H133z M133.6,21.9H133v0.9h0.6c0.3,0,0.5-0.2,0.5-0.4C134.1,22.1,133.9,21.9,133.6,21.9"/>
	</g>
</g>
</svg>
