<svg xmlns="http://www.w3.org/2000/svg" xmlns:xlink="http://www.w3.org/1999/xlink" viewBox="260 0 297 60">
  <defs>
    <style>
      .cls-2 {
        fill: #4b4e52;
      }

      .cls-3 {
        fill: #5ce500;
      }
    </style>
  </defs>
  <g id="Fiddler_Logo_-_b_" data-name="Fiddler Logo - b " class="cls-1">
    <g id="Group_5" data-name="Group 5" transform="translate(0 0.025)">
      <g id="Group_4" data-name="Group 4">
        <g id="Group_2" data-name="Group 2">
          <g id="Group_1" data-name="Group 1">
            <path id="Path_1" data-name="Path 1" class="cls-2" d="M265,14.2h28.5v2.7H280.7V49.2h-2.9V16.9H265Z"/>
            <path id="Path_2" data-name="Path 2" class="cls-2" d="M302,47.2a9.985,9.985,0,0,0,7.1-2.5v2.8a11.633,11.633,0,0,1-7.4,2.2c-7.1,0-11.8-5-11.8-12.9,0-7.8,4.2-13.4,10.9-13.4,6.6,0,10,5,10,12.4v1H292.6C292.8,43.6,296.8,47.2,302,47.2Zm-9.1-12.8h15.3c-.2-4.4-2.3-8.6-7.3-8.6C296.8,25.9,293.6,29,292.9,34.4Z"/>
            <path id="Path_3" data-name="Path 3" class="cls-2" d="M318,49.2h-2.9V12.1H318Z"/>
            <path id="Path_4" data-name="Path 4" class="cls-2" d="M334.3,47.2a9.985,9.985,0,0,0,7.1-2.5v2.8a11.633,11.633,0,0,1-7.4,2.2c-7.1,0-11.8-5-11.8-12.9,0-7.8,4.2-13.4,10.9-13.4,6.6,0,10,5,10,12.4v1H324.9C325.1,43.6,329.1,47.2,334.3,47.2Zm-9.1-12.8h15.3c-.2-4.4-2.3-8.6-7.3-8.6C329.1,25.9,325.9,29,325.2,34.4Z"/>
            <path id="Path_5" data-name="Path 5" class="cls-2" d="M359.3,26.5A5.555,5.555,0,0,0,357,26c-3.1,0-5.5,2.2-6.7,5.5V49.2h-2.9V23.9h2.9v4a7.635,7.635,0,0,1,6.8-4.6,9.633,9.633,0,0,1,2.2.3Z"/>
            <path id="Path_6" data-name="Path 6" class="cls-2" d="M363.8,18.1a1.9,1.9,0,0,1-1.9-1.9,1.9,1.9,0,1,1,3.8,0A1.839,1.839,0,0,1,363.8,18.1Zm1.4,31.1h-2.9V23.9h2.9Z"/>
            <path id="Path_7" data-name="Path 7" class="cls-2" d="M390.5,49.2H387l-13.2-13v13h-2.9V12.1h2.9V34.9l12.8-11.1h3.7L376.8,35.4Z"/>
            <path id="Path_8" data-name="Path 8" class="cls-2" d="M410.1,49.2v-35h20.3v2.7H413V30.2h16.5v2.6H413V49.2h-2.9Z"/>
            <path id="Path_9" data-name="Path 9" class="cls-2" d="M435.7,18.1a1.9,1.9,0,0,1-1.9-1.9,1.9,1.9,0,1,1,3.8,0A1.9,1.9,0,0,1,435.7,18.1Zm1.4,31.1h-2.9V23.9h2.9Z"/>
            <path id="Path_10" data-name="Path 10" class="cls-2" d="M460.2,45.4a9.7,9.7,0,0,1-7.9,4.3c-7.5,0-11.1-6.2-11.1-13.2s3.6-13.2,11.1-13.2a9.849,9.849,0,0,1,7.9,4.3V12.1H463V49.2h-2.8Zm0-14.4a8.757,8.757,0,0,0-7.6-5c-5.3,0-8.4,4.4-8.4,10.5S447.3,47,452.6,47c3.1,0,5.9-1.8,7.6-5Z"/>
            <path id="Path_11" data-name="Path 11" class="cls-2" d="M486.2,45.4a9.7,9.7,0,0,1-7.9,4.3c-7.5,0-11.1-6.2-11.1-13.2s3.6-13.2,11.1-13.2a9.849,9.849,0,0,1,7.9,4.3V12.1H489V49.2h-2.8Zm0-14.4a8.757,8.757,0,0,0-7.6-5c-5.3,0-8.4,4.4-8.4,10.5S473.3,47,478.6,47c3.1,0,5.9-1.8,7.6-5Z"/>
            <path id="Path_12" data-name="Path 12" class="cls-2" d="M497.7,49.2h-2.9V12.1h2.9Z"/>
            <path id="Path_13" data-name="Path 13" class="cls-2" d="M514,47.2a9.985,9.985,0,0,0,7.1-2.5v2.8a11.633,11.633,0,0,1-7.4,2.2c-7.1,0-11.8-5-11.8-12.9,0-7.8,4.2-13.4,10.9-13.4,6.6,0,10,5,10,12.4v1H504.6C504.8,43.6,508.8,47.2,514,47.2Zm-9.1-12.8h15.3c-.2-4.4-2.3-8.6-7.3-8.6C508.8,25.9,505.6,29,504.9,34.4Z"/>
            <path id="Path_14" data-name="Path 14" class="cls-2" d="M539,26.5a5.556,5.556,0,0,0-2.3-.5c-3.1,0-5.5,2.2-6.7,5.5V49.2h-2.9V23.9H530v4a7.635,7.635,0,0,1,6.8-4.6,9.633,9.633,0,0,1,2.2.3Z"/>
          </g>
          <path id="Path_15" data-name="Path 15" class="cls-2" d="M397.1,25.9a3.691,3.691,0,0,1-3.7-3.7,3.629,3.629,0,0,1,3.7-3.7,3.7,3.7,0,1,1,0,7.4m0-6.8a2.971,2.971,0,0,0-3,3.1,3,3,0,1,0,6,0,3.032,3.032,0,0,0-3-3.1m-.5,3.8v1.2h-1.1V20.2h1.8a1.265,1.265,0,0,1,1.4,1.4,1.206,1.206,0,0,1-.8,1.2l.9,1.4h-1.2l-.8-1.2h-.2Zm.7-1.8h-.6V22h.6a.458.458,0,0,0,.5-.4.472.472,0,0,0-.5-.5"/>
          <path id="Path_16" data-name="Path 16" class="cls-2" d="M542.3,19.6h4.4v.9h-1.6v4.2H544V20.5h-1.7Zm7.8,4-1.5-2.2v3.4h-1.1V19.6h1l1.6,2.4,1.6-2.4h1v5.2h-1.1V21.4l-1.4,2.2Z"/>
        </g>
      </g>
    </g>
  </g>
</svg>
