<?xml version="1.0" encoding="utf-8"?>
<!-- Generator: Adobe Illustrator 22.1.0, SVG Export Plug-In . SVG Version: 6.00 Build 0)  -->
<svg version="1.1" id="Layer_1" xmlns="http://www.w3.org/2000/svg" xmlns:xlink="http://www.w3.org/1999/xlink" x="0px" y="0px"
	 viewBox="0 0 353.6 60.4" style="enable-background:new 0 0 353.6 60.4;" xml:space="preserve">
<style type="text/css">
	.st0{fill:#4B4E52;}
</style>
<g>
	<g>
		<path class="st0" d="M0,14.2h28.5v2.7H15.7v32.4h-2.9V16.9H0V14.2z"/>
		<path class="st0" d="M37,47.3c2.9,0,5-0.7,7.1-2.5v2.8c-1.9,1.5-4.4,2.2-7.4,2.2c-7.1,0-11.8-5-11.8-13c0-7.8,4.2-13.4,10.9-13.4
			c6.6,0,10,5,10,12.4v1H27.8C27.8,43.7,31.8,47.3,37,47.3z M27.9,34.5h15.3C43.1,30.1,41,26,35.9,26C31.8,26,28.6,29,27.9,34.5z"/>
		<path class="st0" d="M53,49.3h-2.9V12.2H53V49.3z"/>
		<path class="st0" d="M69.3,47.3c2.9,0,5-0.7,7.1-2.5v2.8c-1.9,1.5-4.4,2.2-7.4,2.2c-7.1,0-11.8-5-11.8-13
			c0-7.8,4.2-13.4,10.9-13.4c6.6,0,10,5,10,12.4v1H60.1C60.1,43.7,64.1,47.3,69.3,47.3z M60.2,34.5h15.3c-0.2-4.5-2.3-8.6-7.3-8.6
			C64.1,26,60.9,29,60.2,34.5z"/>
		<path class="st0" d="M94.3,26.6c-0.7-0.3-1.4-0.5-2.3-0.5c-3.1,0-5.5,2.2-6.7,5.5v17.7h-2.9V24h2.9V28c1.1-2.5,3.7-4.6,6.8-4.6
			c1,0,1.7,0.2,2.2,0.3V26.6z"/>
		<path class="st0" d="M98.8,18.2c-1.1,0-1.9-0.9-1.9-1.9c0-1,0.9-1.9,1.9-1.9s1.9,0.9,1.9,1.9C100.7,17.3,99.9,18.2,98.8,18.2z
			 M100.2,49.3h-2.9V24h2.9V49.3z"/>
		<path class="st0" d="M125.5,49.3H122l-13.2-13v13H106V12.2h2.9V35L121.6,24h3.7l-13.5,11.6L125.5,49.3z"/>
		<path class="st0" d="M144.4,35.5V14.2h2.9v20.8c0,8.2,4.4,12.1,10.5,12.1c6,0,10.5-3.8,10.5-12.1V14.2h2.9v21.2
			c0,9.7-5.9,14.3-13.5,14.3C150.3,49.8,144.4,45.1,144.4,35.5z"/>
		<path class="st0" d="M180.5,49.3h-2.9V14.2h2.9V49.3z"/>
		<path class="st0" d="M211,14.8c-0.7-0.4-1.6-0.6-2.6-0.6c-2.7,0-4.6,1.9-4.6,5.5V24h5.9v2.5h-5.9v22.9h-2.8V26.4H197V24h4.1v-4.6
			c0-4.6,3-7.7,7.1-7.7c1.1,0,2,0.2,2.9,0.5V14.8z"/>
		<path class="st0" d="M221.3,49.8c-6.7,0-11.2-5.4-11.2-13.2c0-7.8,4.5-13.2,11.2-13.2c6.7,0,11.2,5.4,11.2,13.2
			C232.5,44.5,228,49.8,221.3,49.8z M221.3,26c-5,0-8.3,4.3-8.3,10.7s3.3,10.7,8.3,10.7c5.1,0,8.4-4.3,8.4-10.7S226.4,26,221.3,26z"
			/>
		<path class="st0" d="M248.7,26.6c-0.7-0.3-1.4-0.5-2.3-0.5c-3.1,0-5.5,2.2-6.7,5.5v17.7h-2.9V24h2.9V28c1.1-2.5,3.7-4.6,6.8-4.6
			c1,0,1.7,0.2,2.2,0.3V26.6z"/>
		<path class="st0" d="M283.4,14.2l8.2,30.2l8.1-30.2h2.9l-9.5,35.1h-2.6l-8.3-29.9L274,49.3h-2.6l-9.6-35.1h2.9l8.1,30.2l8.2-30.2
			H283.4z"/>
		<path class="st0" d="M308.9,34.2v15.1H306V14.2h12.4c6.8,0,11.3,3.4,11.3,9.9c0,6.6-4.5,10-11.3,10H308.9z M318.2,16.9h-9.3v14.6
			h9.3c5.4,0,8.6-2.7,8.6-7.3C326.8,19.6,323.6,16.9,318.2,16.9z"/>
		<path class="st0" d="M333.3,49.3V14.2h20.3v2.7h-17.4v13.4h16.5v2.6h-16.5v16.4H333.3z"/>
	</g>
	<path class="st0" d="M132.1,25.9c-2,0-3.7-1.6-3.7-3.7c0-2.2,1.7-3.7,3.7-3.7s3.7,1.6,3.7,3.7C135.8,24.4,134.1,25.9,132.1,25.9
		 M132.1,19.1c-1.7,0-3,1.3-3,3.1c0,1.8,1.3,3.1,3,3.1c1.7,0,3-1.3,3-3.1C135.1,20.4,133.8,19.1,132.1,19.1 M131.7,22.9v1.2h-1.1
		v-3.9h1.8c0.9,0,1.4,0.5,1.4,1.4c0,0.6-0.3,1-0.8,1.2l0.9,1.4h-1.2l-0.8-1.2H131.7z M132.3,21.1h-0.6V22h0.6c0.3,0,0.5-0.2,0.5-0.4
		C132.8,21.3,132.6,21.1,132.3,21.1"/>
</g>
</svg>
