<?xml version="1.0" encoding="utf-8"?>
<!-- Generator: Adobe Illustrator 23.0.1, SVG Export Plug-In . SVG Version: 6.00 Build 0)  -->
<svg version="1.1" id="logos" xmlns="http://www.w3.org/2000/svg" xmlns:xlink="http://www.w3.org/1999/xlink" x="0px" y="0px"
	 viewBox="0 0 427.1 62" style="enable-background:new 0 0 427.1 62;" xml:space="preserve">
<style type="text/css">
	.st0{fill:#4B4E52;}
</style>
<g>
	<g>
		<g>
			<path class="st0" d="M0.3,15h28.5v2.7H16V50h-2.9V17.7H0.3V15z"/>
			<path class="st0" d="M37.4,48c2.9,0,5-0.7,7.1-2.5v2.8c-1.9,1.5-4.4,2.2-7.4,2.2c-7.1,0-11.8-5-11.8-12.9
				c0-7.8,4.2-13.4,10.9-13.4c6.6,0,10,5,10,12.4v1H28.1C28.1,44.4,32.1,48,37.4,48z M28.2,35.2h15.3c-0.2-4.4-2.3-8.6-7.3-8.6
				C32.1,26.7,28.9,29.8,28.2,35.2z"/>
			<path class="st0" d="M53.3,50h-2.9V12.9h2.9V50z"/>
			<path class="st0" d="M69.7,48c2.9,0,5-0.7,7.1-2.5v2.8c-1.9,1.5-4.4,2.2-7.4,2.2c-7.1,0-11.8-5-11.8-12.9
				c0-7.8,4.2-13.4,10.9-13.4c6.6,0,10,5,10,12.4v1H60.4C60.4,44.4,64.4,48,69.7,48z M60.6,35.2h15.3c-0.2-4.4-2.3-8.6-7.3-8.6
				C64.4,26.7,61.2,29.8,60.6,35.2z"/>
			<path class="st0" d="M94.6,27.3c-0.7-0.3-1.4-0.5-2.3-0.5c-3.1,0-5.5,2.2-6.7,5.5V50h-2.9V24.7h2.9v4c1.1-2.5,3.7-4.6,6.8-4.6
				c1,0,1.7,0.2,2.2,0.3V27.3z"/>
			<path class="st0" d="M99.1,18.9c-1.1,0-1.9-0.9-1.9-1.9c0-1,0.9-1.9,1.9-1.9s1.9,0.9,1.9,1.9C101.1,18.1,100.2,18.9,99.1,18.9z
				 M100.6,50h-2.9V24.7h2.9V50z"/>
			<path class="st0" d="M125.9,50h-3.5l-13.2-13v13h-2.9V12.9h2.9v22.8l12.8-11.1h3.7l-13.5,11.6L125.9,50z"/>
			<path class="st0" d="M142.5,45.3c2.2,1.7,4.2,2.5,6.6,2.5c4.5,0,6.6-2.6,6.6-9V15h2.9v23.9c0,8-3.4,11.6-9.5,11.6
				c-2.9,0-5.2-1.1-6.6-2.2V45.3z"/>
			<path class="st0" d="M183.9,50h-2.8v-4c-1.5,2.4-4.4,4.6-8,4.6c-5.8,0-8.8-3.7-8.8-9.1V24.7h2.8V41c0,3.9,2,6.8,6.5,6.8
				c3.5,0,6.3-2.5,7.5-5.5V24.7h2.8V50z"/>
			<path class="st0" d="M188.1,44.9c2.2,1.9,4.8,3.1,8.1,3.1c3.1,0,6-1.3,6-4.5c0-2.2-1.4-3.5-4-4.4l-4.2-1.5
				c-3.4-1.3-5.9-2.9-5.9-6.7c0-4.3,3.8-6.7,8.4-6.7c2.7,0,5.4,0.8,7.4,2.3v3.1c-2.1-1.7-4.3-2.8-7.4-2.8c-3,0-5.6,1.4-5.6,4.1
				c0,2.4,1.6,3.3,4.3,4.3l4.4,1.7c3.5,1.2,5.4,3.4,5.4,6.6c0,4.6-4,7.1-8.9,7.1c-3.4,0-6.4-1.1-8-2.5V44.9z"/>
			<path class="st0" d="M215.1,50h-2.9V27.1h-5.4v-2.5h5.4v-6.5h2.9v6.5h6v2.5h-6V50z"/>
			<path class="st0" d="M224.3,15H235c10.1,0,17,6.8,17,17.5S245.1,50,235,50h-10.7V15z M235,47.3c8.6,0,14-5.9,14-14.8
				s-5.4-14.8-14-14.8h-7.8v29.6H235z"/>
			<path class="st0" d="M266.9,48c2.9,0,5-0.7,7.1-2.5v2.8c-1.9,1.5-4.4,2.2-7.4,2.2c-7.1,0-11.8-5-11.8-12.9
				c0-7.8,4.2-13.4,10.9-13.4c6.6,0,10,5,10,12.4v1h-18.2C257.6,44.4,261.6,48,266.9,48z M257.7,35.2h15.3c-0.2-4.4-2.3-8.6-7.3-8.6
				C261.6,26.7,258.4,29.8,257.7,35.2z"/>
			<path class="st0" d="M290.3,24.2c2.5,0,5,0.7,6.7,2.2v2.9c-2-1.8-4.1-2.6-6.6-2.6c-5,0-9.1,3.9-9.1,10.6s4,10.6,9.1,10.6
				c2.5,0,4.6-0.7,6.6-2.6v2.9c-1.8,1.5-4.3,2.2-6.7,2.2c-6.8,0-11.8-5.2-11.8-13.2C278.5,29.4,283.5,24.2,290.3,24.2z"/>
			<path class="st0" d="M310.1,50.5c-6.7,0-11.2-5.4-11.2-13.2c0-7.8,4.5-13.2,11.2-13.2c6.7,0,11.2,5.4,11.2,13.2
				C321.3,45.2,316.8,50.5,310.1,50.5z M310.1,26.7c-5,0-8.3,4.3-8.3,10.7s3.3,10.7,8.3,10.7c5.1,0,8.4-4.3,8.4-10.7
				S315.2,26.7,310.1,26.7z"/>
			<path class="st0" d="M350.7,24.2c5.1,0,7.7,3.6,7.7,8.7V50h-2.8V33.3c0-3.9-1.7-6.5-5.4-6.5c-3.1,0-5.7,2.3-6.7,5.3V50h-2.9V33.3
				c0-3.9-1.7-6.5-5.4-6.5c-3.1,0-5.7,2.3-6.7,5.3V50h-2.9V24.7h2.9v3.9c1.3-2.4,3.9-4.4,7.3-4.4c3.6,0,6,2,7.1,4.8
				C344.2,26.5,347.1,24.2,350.7,24.2z"/>
			<path class="st0" d="M366.9,59.7h-2.9v-35h2.9v3.8c1.4-2.2,4.4-4.3,7.9-4.3c7.5,0,11.1,6.2,11.1,13.2s-3.6,13.2-11.1,13.2
				c-3.5,0-6.4-2.1-7.9-4.3V59.7z M366.9,42.9c1.7,3.2,4.5,5,7.6,5c5.4,0,8.5-4.4,8.5-10.5s-3.1-10.5-8.5-10.5c-3.1,0-5.9,1.8-7.6,5
				V42.9z"/>
			<path class="st0" d="M391.5,18.9c-1.1,0-1.9-0.9-1.9-1.9c0-1,0.9-1.9,1.9-1.9s1.9,0.9,1.9,1.9C393.5,18.1,392.6,18.9,391.5,18.9z
				 M393,50h-2.9V24.7h2.9V50z"/>
			<path class="st0" d="M401.6,50h-2.9V12.9h2.9V50z"/>
			<path class="st0" d="M417.9,48c2.9,0,5-0.7,7.1-2.5v2.8c-1.9,1.5-4.4,2.2-7.4,2.2c-7.1,0-11.8-5-11.8-12.9
				c0-7.8,4.2-13.4,10.9-13.4c6.6,0,10,5,10,12.4v1h-18.2C408.7,44.4,412.7,48,417.9,48z M408.8,35.2h15.3c-0.2-4.4-2.3-8.6-7.3-8.6
				C412.7,26.7,409.5,29.8,408.8,35.2z"/>
		</g>
		<path class="st0" d="M132.4,26.7c-2,0-3.7-1.6-3.7-3.7c0-2.2,1.7-3.7,3.7-3.7c2,0,3.7,1.6,3.7,3.7
			C136.1,25.1,134.5,26.7,132.4,26.7 M132.4,19.9c-1.7,0-3,1.3-3,3.1c0,1.8,1.3,3.1,3,3.1c1.7,0,3-1.3,3-3.1
			C135.5,21.1,134.1,19.9,132.4,19.9 M132,23.6v1.2h-1.1V21h1.8c0.9,0,1.4,0.5,1.4,1.4c0,0.6-0.3,1-0.8,1.2l0.9,1.4h-1.2l-0.8-1.2
			H132z M132.6,21.9H132v0.9h0.6c0.3,0,0.5-0.2,0.5-0.4C133.1,22.1,132.9,21.9,132.6,21.9"/>
	</g>
</g>
</svg>
