<?xml version="1.0" encoding="utf-8"?>
<!-- Generator: Adobe Illustrator 23.0.1, SVG Export Plug-In . SVG Version: 6.00 Build 0)  -->
<svg version="1.1" id="logos" xmlns="http://www.w3.org/2000/svg" xmlns:xlink="http://www.w3.org/1999/xlink" x="0px" y="0px"
	 viewBox="0 0 489 61" style="enable-background:new 0 0 489 61;" xml:space="preserve">
<style type="text/css">
	.st0{fill:#4B4E52;}
	.st1{fill:#5CE500;}
</style>
<g>
	<g>
		<g>
			<path class="st0" d="M265.3,14.3h28.5v2.7H281v32.3H278V16.9h-12.8V14.3z"/>
			<path class="st0" d="M302.3,47.3c2.9,0,5-0.7,7.1-2.5v2.8c-1.9,1.5-4.4,2.2-7.4,2.2c-7.1,0-11.8-5-11.8-12.9
				c0-7.8,4.2-13.4,10.9-13.4c6.6,0,10,5,10,12.4v1h-18.2C293.1,43.7,297.1,47.3,302.3,47.3z M293.2,34.5h15.3
				c-0.2-4.4-2.3-8.6-7.3-8.6C297.1,25.9,293.9,29,293.2,34.5z"/>
			<path class="st0" d="M313.8,44.2c2.2,1.9,4.8,3.1,8.1,3.1c3.1,0,6-1.3,6-4.5c0-2.2-1.4-3.5-4-4.4l-4.2-1.5
				c-3.4-1.3-5.9-2.9-5.9-6.7c0-4.3,3.8-6.7,8.4-6.7c2.7,0,5.4,0.8,7.4,2.3v3.1c-2.1-1.7-4.3-2.8-7.4-2.8c-3,0-5.6,1.4-5.6,4.1
				c0,2.4,1.6,3.3,4.3,4.3l4.4,1.7c3.5,1.2,5.4,3.4,5.4,6.6c0,4.6-4,7.1-8.9,7.1c-3.4,0-6.4-1.1-8-2.5V44.2z"/>
			<path class="st0" d="M340.8,49.3h-2.9V26.4h-5.4v-2.5h5.4v-6.5h2.9v6.5h6v2.5h-6V49.3z"/>
			<path class="st0" d="M360.8,42.9c3.4,3,6.8,4.2,10.8,4.2c5,0,8.2-2.5,8.2-6.6c0-3.5-2-5-6.3-6.8l-5.1-2.2c-3.6-1.5-7.6-3.6-7.6-9
				c0-5.9,5-8.9,10.6-8.9c3.6,0,7.2,1.1,9.8,3V20c-2.7-2.3-5.8-3.5-9.7-3.5c-4.3,0-7.8,2.1-7.8,6.2c0,3.4,2.4,4.9,6.1,6.4l5.4,2.3
				c5.1,2.2,7.5,4.7,7.5,9.2c0,5.6-4.7,9.3-11.1,9.3c-4.7,0-8.6-1.5-10.8-3.5V42.9z"/>
			<path class="st0" d="M390.9,49.3H388V26.4h-5.4v-2.5h5.4v-6.5h2.9v6.5h6v2.5h-6V49.3z"/>
			<path class="st0" d="M419.4,49.3h-2.8v-4c-1.5,2.4-4.4,4.6-8,4.6c-5.8,0-8.8-3.7-8.8-9.1V23.9h2.8v16.4c0,3.9,2,6.8,6.5,6.8
				c3.5,0,6.3-2.5,7.5-5.5V23.9h2.8V49.3z"/>
			<path class="st0" d="M442.7,45.5c-1.4,2.2-4.4,4.3-7.9,4.3c-7.5,0-11.1-6.2-11.1-13.2s3.6-13.2,11.1-13.2c3.5,0,6.4,2.1,7.9,4.3
				V12.2h2.8v37.1h-2.8V45.5z M442.7,31.1c-1.7-3.2-4.6-5-7.6-5c-5.3,0-8.4,4.4-8.4,10.5s3.1,10.5,8.4,10.5c3.1,0,5.9-1.8,7.6-5
				V31.1z"/>
			<path class="st0" d="M452.7,18.2c-1.1,0-1.9-0.9-1.9-1.9c0-1,0.9-1.9,1.9-1.9s1.9,0.9,1.9,1.9C454.7,17.3,453.8,18.2,452.7,18.2z
				 M454.2,49.3h-2.9V23.9h2.9V49.3z"/>
			<path class="st0" d="M469.5,49.8c-6.7,0-11.2-5.4-11.2-13.2c0-7.8,4.5-13.2,11.2-13.2c6.7,0,11.2,5.4,11.2,13.2
				C480.7,44.4,476.2,49.8,469.5,49.8z M469.5,25.9c-5,0-8.3,4.3-8.3,10.7s3.3,10.7,8.3,10.7c5.1,0,8.4-4.3,8.4-10.7
				S474.6,25.9,469.5,25.9z"/>
		</g>
		<path class="st0" d="M484.8,25.9c-2,0-3.7-1.6-3.7-3.7c0-2.2,1.7-3.7,3.7-3.7s3.7,1.6,3.7,3.7C488.5,24.4,486.8,25.9,484.8,25.9
			 M484.8,19.1c-1.7,0-3,1.3-3,3.1c0,1.8,1.3,3.1,3,3.1c1.7,0,3-1.3,3-3.1C487.8,20.4,486.4,19.1,484.8,19.1 M484.3,22.9v1.2h-1.1
			v-3.9h1.8c0.9,0,1.4,0.5,1.4,1.4c0,0.6-0.3,1-0.8,1.2l0.9,1.4h-1.2l-0.8-1.2H484.3z M485,21.1h-0.6V22h0.6c0.3,0,0.5-0.2,0.5-0.4
			C485.5,21.3,485.3,21.1,485,21.1"/>
	</g>
	<path class="st1" d="M48.6,40.5c0,0.6-0.4,1.3-0.9,1.6l-12.5,7.2V21.4L11,7.5l12.5-7.2C24,0,24.8,0,25.3,0.3l23.2,13.4V40.5z
		 M29.8,24.5l-16.5-9.5c-0.5-0.3-1.3-0.3-1.8,0L0.3,21.4l17.4,10.1l0,20.1l11.2-6.4c0.5-0.3,0.9-1,0.9-1.6V24.5z M0.3,41.5l12.1,7
		V34.6L0.3,41.5z"/>
	<g>
		<path class="st0" d="M75.1,13.7H62v35.6h5.8v-14h7.4c8,0,12.4-3.9,12.4-11C87.5,21.1,86.3,13.7,75.1,13.7 M81.6,24.4
			c0,4-2.1,5.7-7.2,5.7h-6.6V18.9h7.4C79.5,18.9,81.6,20.7,81.6,24.4 M104.9,23.3l0.4,0.2l-1,5.3l-0.7-0.2c-0.6-0.2-1.1-0.3-1.7-0.3
			c-5.4,0-5.9,4.3-5.9,9.6v11.3h-5.4V23.1h5.1v3.2c1.4-2.1,3-3.2,5.2-3.5C102.4,22.6,103.8,22.8,104.9,23.3 M118.2,22.6
			c-4.3,0-7.7,1.6-9.8,4.7c-2.3,3.2-2.6,7-2.6,9c0,8.3,4.9,13.6,12.5,13.6c9.2,0,12.5-7.4,12.5-13.8c0-3.7-1.1-7-3-9.4
			C125.4,24,122.1,22.6,118.2,22.6 M118.2,45c-4.2,0-6.9-3.4-6.9-8.8c0-5.5,2.6-8.9,6.9-8.9c4.2,0,6.9,3.4,6.9,8.8
			C125.1,41.6,122.4,45,118.2,45 M176,23.3l0.4,0.2l-1,5.3l-0.7-0.2c-0.6-0.2-1.1-0.3-1.7-0.3c-5.4,0-5.9,4.3-5.9,9.6v11.3h-5.4
			V23.1h5.1v3.2c1.4-2.1,3-3.2,5.2-3.5C173.6,22.6,175,22.8,176,23.3 M195.4,40.9l-0.1,0.3c-1.1,3.2-3.8,3.9-5.9,3.9
			c-4.1,0-6.7-2.7-7-7.1H201l0.1-0.5c0.1-0.6,0.1-1.5,0.1-2.1c0-0.2,0-0.3,0-0.5c-0.3-7.3-5-12.2-11.9-12.2c-4,0-7.3,1.6-9.5,4.5
			c-1.8,2.4-2.8,5.7-2.8,9.1c0,8.1,5,13.5,12.5,13.5c5.8,0,9.8-2.9,11.2-8.3l0.2-0.6H195.4z M182.7,33.2c0.5-3.6,2.9-5.9,6.5-5.9
			c2.7,0,5.9,1.6,6.3,5.9H182.7z M152,25.3c-1.7-1.8-4.1-2.7-6.9-2.7c-7.9,0-11.5,7-11.5,13.5c0,6.6,3.6,13.4,11.5,13.4
			c2.7,0,5-1,6.7-2.7c0,1.2,0,2.2-0.1,2.7c-0.3,4.3-2.4,6.3-6.5,6.3c-2.3,0-4.9-0.8-5.4-3.1l-0.1-0.5l-5.3,0l0.1,0.7
			c0.6,4.6,4.6,7.5,10.6,7.5c5.2,0,8.9-2,10.8-5.7c0.9-1.8,1.3-4.4,1.3-7.8V23.1H152V25.3z M145.4,44.6c-1.9,0-6.3-0.9-6.3-8.8
			c0-5.2,2.5-8.4,6.4-8.4c3.1,0,6.3,2.2,6.3,8.4C151.9,41.3,149.4,44.6,145.4,44.6 M226,41.4c0,4.2-3.5,8.4-11.2,8.4
			c-6.8,0-10.9-3-11.4-8.3l-0.1-0.6h5.3l0.1,0.4c0.7,3.2,3.7,3.9,6.2,3.9c2.7,0,5.6-0.9,5.6-3.3c0-1.2-0.8-2.1-2.4-2.6
			c-0.9-0.3-2.1-0.6-3.3-0.9c-2.1-0.6-4.3-1.2-5.6-1.7c-3.3-1.2-5.2-3.5-5.2-6.3c0-5.3,5.1-7.6,10.2-7.6c6.8,0,10.3,2.6,10.8,7.8
			l0,0.5l-5.2,0l-0.1-0.4c-0.5-3-3.5-3.5-5.3-3.5c-1.5,0-5,0.3-5,2.8c0,1.1,1,2,3,2.6c0.6,0.2,1.5,0.4,2.5,0.7
			c2.1,0.6,4.8,1.2,6.1,1.7C224.4,36,226,38.2,226,41.4 M251,41.4c0,4.2-3.5,8.4-11.2,8.4c-6.8,0-10.9-3-11.4-8.3l-0.1-0.6h5.3
			l0.1,0.4c0.7,3.2,3.7,3.9,6.2,3.9c2.7,0,5.6-0.9,5.6-3.3c0-1.2-0.8-2.1-2.4-2.6c-0.9-0.3-2.1-0.6-3.3-0.9
			c-2.1-0.6-4.3-1.2-5.6-1.7c-3.3-1.2-5.2-3.5-5.2-6.3c0-5.3,5.1-7.6,10.2-7.6c6.8,0,10.3,2.6,10.8,7.8l0,0.5l-5.2,0l-0.1-0.4
			c-0.5-3-3.5-3.5-5.3-3.5c-1.5,0-5,0.3-5,2.8c0,1.1,1,2,3,2.6c0.6,0.2,1.5,0.4,2.5,0.7c2.1,0.6,4.8,1.2,6.1,1.7
			C249.3,36,251,38.2,251,41.4"/>
		<path class="st0" d="M255.3,25.9c-2,0-3.7-1.6-3.7-3.7c0-2.2,1.7-3.7,3.7-3.7c2,0,3.7,1.6,3.7,3.7
			C258.9,24.4,257.3,25.9,255.3,25.9 M255.3,19.1c-1.7,0-3,1.3-3,3.1c0,1.8,1.3,3.1,3,3.1c1.7,0,3-1.3,3-3.1
			C258.3,20.4,256.9,19.1,255.3,19.1 M254.8,22.9v1.2h-1.1v-3.9h1.8c0.9,0,1.4,0.5,1.4,1.4c0,0.6-0.3,1-0.8,1.2l0.9,1.4h-1.2
			l-0.8-1.2H254.8z M255.4,21.1h-0.6V22h0.6c0.3,0,0.5-0.2,0.5-0.4C256,21.3,255.8,21.1,255.4,21.1"/>
	</g>
</g>
</svg>
