<?xml version="1.0" encoding="utf-8"?>
<!-- Generator: Adobe Illustrator 22.1.0, SVG Export Plug-In . SVG Version: 6.00 Build 0)  -->
<svg version="1.1" id="logos" xmlns="http://www.w3.org/2000/svg" xmlns:xlink="http://www.w3.org/1999/xlink" x="0px" y="0px"
	 viewBox="0 0 832 61" style="enable-background:new 0 0 832 61;" xml:space="preserve">
<style type="text/css">
	.st0{fill:#4B4E52;}
	.st1{fill:#5CE500;}
</style>
<g>
	<g>
		<g>
			<path class="st0" d="M265.3,14.4h28.5v2.7H281v32.3H278V17.1h-12.8V14.4z"/>
			<path class="st0" d="M302.3,47.4c2.9,0,5-0.7,7.1-2.5v2.8c-1.9,1.5-4.4,2.2-7.4,2.2c-7.1,0-11.8-5-11.8-12.9
				c0-7.8,4.2-13.4,10.9-13.4c6.6,0,10,5,10,12.4v1h-18.2C293.1,43.8,297.1,47.4,302.3,47.4z M293.2,34.7h15.3
				c-0.2-4.4-2.3-8.6-7.3-8.6C297.1,26.1,293.9,29.2,293.2,34.7z"/>
			<path class="st0" d="M318.3,49.4h-2.9V12.4h2.9V49.4z"/>
			<path class="st0" d="M334.6,47.4c2.9,0,5-0.7,7.1-2.5v2.8c-1.9,1.5-4.4,2.2-7.4,2.2c-7.1,0-11.8-5-11.8-12.9
				c0-7.8,4.2-13.4,10.9-13.4c6.6,0,10,5,10,12.4v1h-18.2C325.4,43.8,329.4,47.4,334.6,47.4z M325.5,34.7h15.3
				c-0.2-4.4-2.3-8.6-7.3-8.6C329.4,26.1,326.2,29.2,325.5,34.7z"/>
			<path class="st0" d="M359.6,26.7c-0.7-0.3-1.4-0.5-2.3-0.5c-3.1,0-5.5,2.2-6.7,5.5v17.7h-2.9V24.1h2.9v4c1.1-2.5,3.7-4.6,6.8-4.6
				c1,0,1.7,0.2,2.2,0.3V26.7z"/>
			<path class="st0" d="M364.1,18.4c-1.1,0-1.9-0.9-1.9-1.9c0-1,0.9-1.9,1.9-1.9s1.9,0.9,1.9,1.9C366,17.5,365.2,18.4,364.1,18.4z
				 M365.5,49.4h-2.9V24.1h2.9V49.4z"/>
			<path class="st0" d="M390.8,49.4h-3.5l-13.2-13v13h-2.9V12.4h2.9v22.8l12.8-11.1h3.7l-13.5,11.6L390.8,49.4z"/>
			<path class="st0" d="M410.4,14.4h10.7c10.1,0,17,6.8,17,17.5s-6.8,17.5-17,17.5h-10.7V14.4z M421.1,46.7c8.6,0,14-5.9,14-14.8
				s-5.4-14.8-14-14.8h-7.8v29.6H421.1z"/>
			<path class="st0" d="M452.1,49.9c-6.7,0-11.2-5.4-11.2-13.2c0-7.8,4.5-13.2,11.2-13.2c6.7,0,11.2,5.4,11.2,13.2
				C463.3,44.6,458.8,49.9,452.1,49.9z M452.1,26.1c-5,0-8.3,4.3-8.3,10.7s3.3,10.7,8.3,10.7c5.1,0,8.4-4.3,8.4-10.7
				S457.2,26.1,452.1,26.1z"/>
			<path class="st0" d="M477.9,23.6c2.5,0,5,0.7,6.7,2.2v2.9c-2-1.8-4.1-2.6-6.6-2.6c-5,0-9.1,3.9-9.1,10.6s4,10.6,9.1,10.6
				c2.5,0,4.6-0.7,6.6-2.6v2.9c-1.8,1.5-4.3,2.2-6.7,2.2c-6.8,0-11.8-5.2-11.8-13.2C466.1,28.8,471.1,23.6,477.9,23.6z"/>
			<path class="st0" d="M507.7,49.4h-2.8v-4c-1.5,2.4-4.4,4.6-8,4.6c-5.8,0-8.8-3.7-8.8-9.1V24.1h2.8v16.4c0,3.9,2,6.8,6.5,6.8
				c3.5,0,6.3-2.5,7.5-5.5V24.1h2.8V49.4z"/>
			<path class="st0" d="M538.5,23.6c5.1,0,7.7,3.6,7.7,8.7v17.1h-2.8V32.7c0-3.9-1.7-6.5-5.4-6.5c-3.1,0-5.7,2.3-6.7,5.3v17.9h-2.9
				V32.7c0-3.9-1.7-6.5-5.4-6.5c-3.1,0-5.7,2.3-6.7,5.3v17.9h-2.9V24.1h2.9V28c1.3-2.4,3.9-4.4,7.3-4.4c3.6,0,6,2,7.1,4.8
				C532.1,25.9,534.9,23.6,538.5,23.6z"/>
			<path class="st0" d="M562.4,47.4c2.9,0,5-0.7,7.1-2.5v2.8c-1.9,1.5-4.4,2.2-7.4,2.2c-7.1,0-11.8-5-11.8-12.9
				c0-7.8,4.2-13.4,10.9-13.4c6.6,0,10,5,10,12.4v1h-18.2C553.2,43.8,557.2,47.4,562.4,47.4z M553.3,34.7h15.3
				c-0.2-4.4-2.3-8.6-7.3-8.6C557.2,26.1,554,29.2,553.3,34.7z"/>
			<path class="st0" d="M575.5,24.1h2.9v4c1.5-2.4,4.5-4.6,8.1-4.6c5.8,0,8.8,3.7,8.8,9.1v16.8h-2.8V33.1c0-3.9-2-6.8-6.5-6.8
				c-3.5,0-6.3,2.5-7.6,5.5v17.7h-2.9V24.1z"/>
			<path class="st0" d="M605.7,49.4h-2.9V26.6h-5.4v-2.5h5.4v-6.5h2.9v6.5h6v2.5h-6V49.4z"/>
			<path class="st0" d="M631,34.3v15.1h-2.9v-35h12.4c6.8,0,11.3,3.4,11.3,9.9c0,6.6-4.5,10-11.3,10H631z M640.3,17H631v14.6h9.3
				c5.4,0,8.6-2.7,8.6-7.3C648.9,19.8,645.7,17,640.3,17z"/>
			<path class="st0" d="M667.2,26.7c-0.7-0.3-1.4-0.5-2.3-0.5c-3.1,0-5.5,2.2-6.7,5.5v17.7h-2.9V24.1h2.9v4c1.1-2.5,3.7-4.6,6.8-4.6
				c1,0,1.7,0.2,2.2,0.3V26.7z"/>
			<path class="st0" d="M678.9,49.9c-6.7,0-11.2-5.4-11.2-13.2c0-7.8,4.5-13.2,11.2-13.2c6.7,0,11.2,5.4,11.2,13.2
				C690.2,44.6,685.7,49.9,678.9,49.9z M678.9,26.1c-5,0-8.3,4.3-8.3,10.7s3.3,10.7,8.3,10.7c5.1,0,8.4-4.3,8.4-10.7
				S684,26.1,678.9,26.1z"/>
			<path class="st0" d="M704.7,23.6c2.5,0,5,0.7,6.7,2.2v2.9c-2-1.8-4.1-2.6-6.6-2.6c-5,0-9.1,3.9-9.1,10.6s4,10.6,9.1,10.6
				c2.5,0,4.6-0.7,6.6-2.6v2.9c-1.8,1.5-4.3,2.2-6.7,2.2c-6.8,0-11.8-5.2-11.8-13.2C692.9,28.8,698,23.6,704.7,23.6z"/>
			<path class="st0" d="M725.4,47.4c2.9,0,5-0.7,7.1-2.5v2.8c-1.9,1.5-4.4,2.2-7.4,2.2c-7.1,0-11.8-5-11.8-12.9
				c0-7.8,4.2-13.4,10.9-13.4c6.6,0,10,5,10,12.4v1h-18.2C716.2,43.8,720.2,47.4,725.4,47.4z M716.3,34.7h15.3
				c-0.2-4.4-2.3-8.6-7.3-8.6C720.2,26.1,717,29.2,716.3,34.7z"/>
			<path class="st0" d="M736.9,44.4c2.2,1.9,4.8,3.1,8.1,3.1c3.1,0,6-1.3,6-4.5c0-2.2-1.4-3.5-4-4.4l-4.2-1.5
				c-3.4-1.3-5.9-2.9-5.9-6.7c0-4.3,3.8-6.7,8.4-6.7c2.7,0,5.4,0.8,7.4,2.3V29c-2.1-1.7-4.3-2.8-7.4-2.8c-3,0-5.6,1.4-5.6,4.1
				c0,2.4,1.6,3.3,4.3,4.3l4.4,1.7c3.5,1.2,5.4,3.4,5.4,6.6c0,4.6-4,7.1-8.9,7.1c-3.4,0-6.4-1.1-8-2.5V44.4z"/>
			<path class="st0" d="M756.7,44.4c2.2,1.9,4.8,3.1,8.1,3.1c3.1,0,6-1.3,6-4.5c0-2.2-1.4-3.5-4-4.4l-4.2-1.5
				c-3.4-1.3-5.9-2.9-5.9-6.7c0-4.3,3.8-6.7,8.4-6.7c2.7,0,5.4,0.8,7.4,2.3V29c-2.1-1.7-4.3-2.8-7.4-2.8c-3,0-5.6,1.4-5.6,4.1
				c0,2.4,1.6,3.3,4.3,4.3l4.4,1.7c3.5,1.2,5.4,3.4,5.4,6.6c0,4.6-4,7.1-8.9,7.1c-3.4,0-6.4-1.1-8-2.5V44.4z"/>
			<path class="st0" d="M779,18.4c-1.1,0-1.9-0.9-1.9-1.9c0-1,0.9-1.9,1.9-1.9s1.9,0.9,1.9,1.9C781,17.5,780.1,18.4,779,18.4z
				 M780.5,49.4h-2.9V24.1h2.9V49.4z"/>
			<path class="st0" d="M786.2,24.1h2.9v4c1.5-2.4,4.5-4.6,8.1-4.6c5.8,0,8.8,3.7,8.8,9.1v16.8h-2.8V33.1c0-3.9-2-6.8-6.5-6.8
				c-3.5,0-6.3,2.5-7.6,5.5v17.7h-2.9V24.1z"/>
			<path class="st0" d="M828.7,45.2c-1.4,2.1-4.3,4.2-7.8,4.2c-7.4,0-10.9-6.1-10.9-12.9c0-6.8,3.5-12.9,10.9-12.9
				c3.5,0,6.4,2.1,7.8,4.2v-3.7h2.8v23.5c0,8.4-5.6,12-11.6,12c-3.2,0-6-1-7.9-2.4V54c2.5,2.3,5.2,3.1,7.9,3.1c5,0,8.8-3,8.8-9.3
				V45.2z M828.7,31.1c-1.7-3.1-4.5-4.9-7.5-4.9c-5.2,0-8.3,4.3-8.3,10.3c0,6,3.1,10.3,8.3,10.3c3,0,5.9-1.8,7.5-4.9V31.1z"/>
		</g>
		<path class="st0" d="M397.4,26.1c-2,0-3.7-1.6-3.7-3.7c0-2.2,1.7-3.7,3.7-3.7s3.7,1.6,3.7,3.7C401.1,24.5,399.4,26.1,397.4,26.1
			 M397.4,19.3c-1.7,0-3,1.3-3,3.1c0,1.8,1.3,3.1,3,3.1c1.7,0,3-1.3,3-3.1C400.4,20.6,399,19.3,397.4,19.3 M397,23.1v1.2h-1.1v-3.9
			h1.8c0.9,0,1.4,0.5,1.4,1.4c0,0.6-0.3,1-0.8,1.2l0.9,1.4h-1.2l-0.8-1.2H397z M397.6,21.3H397v0.9h0.6c0.3,0,0.5-0.2,0.5-0.4
			C398.1,21.5,397.9,21.3,397.6,21.3"/>
	</g>
	<path class="st1" d="M48.6,40.7c0,0.6-0.4,1.3-0.9,1.6l-12.5,7.2V21.6L11,7.6l12.5-7.2c0.5-0.3,1.3-0.3,1.8,0l23.2,13.4V40.7z
		 M29.8,24.7l-16.5-9.5c-0.5-0.3-1.3-0.3-1.8,0L0.3,21.6l17.4,10.1l0,20.1l11.2-6.4c0.5-0.3,0.9-1,0.9-1.6V24.7z M0.3,41.7l12.1,7
		V34.7L0.3,41.7z"/>
	<g>
		<path class="st0" d="M75.1,13.8H62v35.6h5.8v-14h7.4c8,0,12.4-3.9,12.4-11C87.5,21.3,86.3,13.8,75.1,13.8 M81.6,24.6
			c0,4-2.1,5.7-7.2,5.7h-6.6V19.1h7.4C79.5,19.1,81.6,20.9,81.6,24.6 M104.9,23.5l0.4,0.2l-1,5.3l-0.7-0.2c-0.6-0.2-1.1-0.3-1.7-0.3
			c-5.4,0-5.9,4.3-5.9,9.6v11.3h-5.4V23.3h5.1v3.2c1.4-2.1,3-3.2,5.2-3.5C102.4,22.8,103.8,23,104.9,23.5 M118.2,22.8
			c-4.3,0-7.7,1.6-9.8,4.7c-2.3,3.2-2.6,7-2.6,9c0,8.3,4.9,13.6,12.5,13.6c9.2,0,12.5-7.4,12.5-13.8c0-3.7-1.1-7-3-9.4
			C125.4,24.2,122.1,22.8,118.2,22.8 M118.2,45.2c-4.2,0-6.9-3.4-6.9-8.8c0-5.5,2.6-8.9,6.9-8.9c4.2,0,6.9,3.4,6.9,8.8
			C125.1,41.8,122.4,45.2,118.2,45.2 M176,23.5l0.4,0.2l-1,5.3l-0.7-0.2c-0.6-0.2-1.1-0.3-1.7-0.3c-5.4,0-5.9,4.3-5.9,9.6v11.3h-5.4
			V23.3h5.1v3.2c1.4-2.1,3-3.2,5.2-3.5C173.6,22.8,175,23,176,23.5 M195.4,41.1l-0.1,0.3c-1.1,3.2-3.8,3.9-5.9,3.9
			c-4.1,0-6.7-2.7-7-7.1H201l0.1-0.5c0.1-0.6,0.1-1.5,0.1-2.1c0-0.2,0-0.3,0-0.5c-0.3-7.3-5-12.2-11.9-12.2c-4,0-7.3,1.6-9.5,4.5
			c-1.8,2.4-2.8,5.7-2.8,9.1c0,8.1,5,13.5,12.5,13.5c5.8,0,9.8-2.9,11.2-8.3l0.2-0.6H195.4z M182.7,33.4c0.5-3.6,2.9-5.9,6.5-5.9
			c2.7,0,5.9,1.6,6.3,5.9H182.7z M152,25.5c-1.7-1.8-4.1-2.7-6.9-2.7c-7.9,0-11.5,7-11.5,13.5c0,6.6,3.6,13.4,11.5,13.4
			c2.7,0,5-1,6.7-2.7c0,1.2,0,2.2-0.1,2.7c-0.3,4.3-2.4,6.3-6.5,6.3c-2.3,0-4.9-0.8-5.4-3.1l-0.1-0.5l-5.3,0l0.1,0.7
			c0.6,4.6,4.6,7.5,10.6,7.5c5.2,0,8.9-2,10.8-5.7c0.9-1.8,1.3-4.4,1.3-7.8V23.3H152V25.5z M145.4,44.8c-1.9,0-6.3-0.9-6.3-8.8
			c0-5.2,2.5-8.4,6.4-8.4c3.1,0,6.3,2.2,6.3,8.4C151.9,41.5,149.4,44.8,145.4,44.8 M226,41.6c0,4.2-3.5,8.4-11.2,8.4
			c-6.8,0-10.9-3-11.4-8.3l-0.1-0.6h5.3l0.1,0.4c0.7,3.2,3.7,3.9,6.2,3.9c2.7,0,5.6-0.9,5.6-3.3c0-1.2-0.8-2.1-2.4-2.6
			c-0.9-0.3-2.1-0.6-3.3-0.9c-2.1-0.6-4.3-1.2-5.6-1.7c-3.3-1.2-5.2-3.5-5.2-6.3c0-5.3,5.1-7.6,10.2-7.6c6.8,0,10.3,2.6,10.8,7.8
			l0,0.5l-5.2,0l-0.1-0.4c-0.5-3-3.5-3.5-5.3-3.5c-1.5,0-5,0.3-5,2.8c0,1.1,1,2,3,2.6c0.6,0.2,1.5,0.4,2.5,0.7
			c2.1,0.6,4.8,1.2,6.1,1.7C224.4,36.2,226,38.4,226,41.6 M251,41.6c0,4.2-3.5,8.4-11.2,8.4c-6.8,0-10.9-3-11.4-8.3l-0.1-0.6h5.3
			l0.1,0.4c0.7,3.2,3.7,3.9,6.2,3.9c2.7,0,5.6-0.9,5.6-3.3c0-1.2-0.8-2.1-2.4-2.6c-0.9-0.3-2.1-0.6-3.3-0.9
			c-2.1-0.6-4.3-1.2-5.6-1.7c-3.3-1.2-5.2-3.5-5.2-6.3c0-5.3,5.1-7.6,10.2-7.6c6.8,0,10.3,2.6,10.8,7.8l0,0.5l-5.2,0l-0.1-0.4
			c-0.5-3-3.5-3.5-5.3-3.5c-1.5,0-5,0.3-5,2.8c0,1.1,1,2,3,2.6c0.6,0.2,1.5,0.4,2.5,0.7c2.1,0.6,4.8,1.2,6.1,1.7
			C249.3,36.2,251,38.4,251,41.6"/>
		<path class="st0" d="M255.3,26.1c-2,0-3.7-1.6-3.7-3.7c0-2.2,1.7-3.7,3.7-3.7c2,0,3.7,1.6,3.7,3.7
			C258.9,24.5,257.3,26.1,255.3,26.1 M255.3,19.3c-1.7,0-3,1.3-3,3.1c0,1.8,1.3,3.1,3,3.1c1.7,0,3-1.3,3-3.1
			C258.3,20.6,256.9,19.3,255.3,19.3 M254.8,23.1v1.2h-1.1v-3.9h1.8c0.9,0,1.4,0.5,1.4,1.4c0,0.6-0.3,1-0.8,1.2l0.9,1.4h-1.2
			l-0.8-1.2H254.8z M255.4,21.3h-0.6v0.9h0.6c0.3,0,0.5-0.2,0.5-0.4C256,21.5,255.8,21.3,255.4,21.3"/>
	</g>
</g>
</svg>
