<?xml version="1.0" encoding="utf-8"?>
<!-- Generator: Adobe Illustrator 23.0.1, SVG Export Plug-In . SVG Version: 6.00 Build 0)  -->
<svg version="1.1" id="logos" xmlns="http://www.w3.org/2000/svg" xmlns:xlink="http://www.w3.org/1999/xlink" x="0px" y="0px"
	 viewBox="0 0 381.3 62" style="enable-background:new 0 0 381.3 62;" xml:space="preserve">
<style type="text/css">
	.st0{fill:#4B4E52;}
</style>
<g>
	<g>
		<g>
			<path class="st0" d="M0.6,15.2h28.5v2.7H16.3v32.3h-2.9V17.9H0.6V15.2z"/>
			<path class="st0" d="M37.6,48.2c2.9,0,5-0.7,7.1-2.5v2.8c-1.9,1.5-4.4,2.2-7.4,2.2c-7.1,0-11.8-5-11.8-12.9
				c0-7.8,4.2-13.4,10.9-13.4c6.6,0,10,5,10,12.4v1H28.4C28.4,44.6,32.4,48.2,37.6,48.2z M28.5,35.4h15.3c-0.2-4.4-2.3-8.6-7.3-8.6
				C32.4,26.9,29.2,30,28.5,35.4z"/>
			<path class="st0" d="M49.1,45.1c2.2,1.9,4.8,3.1,8.1,3.1c3.1,0,6-1.3,6-4.5c0-2.2-1.4-3.5-4-4.4L55,37.8
				c-3.4-1.3-5.9-2.9-5.9-6.7c0-4.3,3.8-6.7,8.4-6.7c2.7,0,5.4,0.8,7.4,2.3v3.1c-2.1-1.7-4.3-2.8-7.4-2.8c-3,0-5.6,1.4-5.6,4.1
				c0,2.4,1.6,3.3,4.3,4.3l4.4,1.7c3.5,1.2,5.4,3.4,5.4,6.6c0,4.6-4,7.1-8.9,7.1c-3.4,0-6.4-1.1-8-2.5V45.1z"/>
			<path class="st0" d="M76.1,50.2h-2.9V27.3h-5.4v-2.5h5.4v-6.5h2.9v6.5h6v2.5h-6V50.2z"/>
			<path class="st0" d="M96.1,43.9c3.4,3,6.8,4.2,10.8,4.2c5,0,8.2-2.5,8.2-6.6c0-3.5-2-5-6.3-6.8l-5.1-2.2c-3.6-1.5-7.6-3.6-7.6-9
				c0-5.9,5-8.9,10.6-8.9c3.6,0,7.2,1.1,9.8,3v3.2c-2.7-2.3-5.8-3.5-9.7-3.5c-4.3,0-7.8,2.1-7.8,6.2c0,3.4,2.4,4.9,6.1,6.4l5.4,2.3
				c5.1,2.2,7.5,4.7,7.5,9.2c0,5.6-4.7,9.3-11.1,9.3c-4.7,0-8.6-1.5-10.8-3.5V43.9z"/>
			<path class="st0" d="M126.2,50.2h-2.9V27.3H118v-2.5h5.4v-6.5h2.9v6.5h6v2.5h-6V50.2z"/>
			<path class="st0" d="M154.8,50.2H152v-4c-1.5,2.4-4.4,4.6-8,4.6c-5.8,0-8.8-3.7-8.8-9.1V24.9h2.8v16.4c0,3.9,2,6.8,6.5,6.8
				c3.5,0,6.3-2.5,7.5-5.5V24.9h2.8V50.2z"/>
			<path class="st0" d="M178,46.4c-1.4,2.2-4.4,4.3-7.9,4.3c-7.5,0-11.1-6.2-11.1-13.2s3.6-13.2,11.1-13.2c3.5,0,6.4,2.1,7.9,4.3
				V13.2h2.8v37.1H178V46.4z M178,32c-1.7-3.2-4.6-5-7.6-5c-5.3,0-8.4,4.4-8.4,10.5s3.1,10.5,8.4,10.5c3.1,0,5.9-1.8,7.6-5V32z"/>
			<path class="st0" d="M188.1,19.1c-1.1,0-1.9-0.9-1.9-1.9c0-1,0.9-1.9,1.9-1.9s1.9,0.9,1.9,1.9C190,18.3,189.1,19.1,188.1,19.1z
				 M189.5,50.2h-2.9V24.9h2.9V50.2z"/>
			<path class="st0" d="M204.8,50.7c-6.7,0-11.2-5.4-11.2-13.2c0-7.8,4.5-13.2,11.2-13.2c6.7,0,11.2,5.4,11.2,13.2
				C216,45.4,211.5,50.7,204.8,50.7z M204.8,26.9c-5,0-8.3,4.3-8.3,10.7s3.3,10.7,8.3,10.7c5.1,0,8.4-4.3,8.4-10.7
				S209.9,26.9,204.8,26.9z"/>
			<path class="st0" d="M244.3,15.8c-0.7-0.4-1.6-0.6-2.6-0.6c-2.7,0-4.6,1.9-4.6,5.5v4.3h5.9v2.5h-5.9v22.9h-2.8V27.3h-4.1v-2.5
				h4.1v-4.6c0-4.6,3-7.7,7.1-7.7c1.1,0,2,0.2,2.9,0.5V15.8z"/>
			<path class="st0" d="M254.5,50.7c-6.7,0-11.2-5.4-11.2-13.2c0-7.8,4.5-13.2,11.2-13.2c6.7,0,11.2,5.4,11.2,13.2
				C265.8,45.4,261.3,50.7,254.5,50.7z M254.5,26.9c-5,0-8.3,4.3-8.3,10.7s3.3,10.7,8.3,10.7c5.1,0,8.4-4.3,8.4-10.7
				S259.6,26.9,254.5,26.9z"/>
			<path class="st0" d="M281.9,27.5c-0.7-0.3-1.4-0.5-2.3-0.5c-3.1,0-5.5,2.2-6.7,5.5v17.7H270V24.9h2.9v4c1.1-2.5,3.7-4.6,6.8-4.6
				c1,0,1.7,0.2,2.2,0.3V27.5z"/>
			<path class="st0" d="M311.6,15.2l13.9,35h-2.9L318,38.7h-15.5L298,50.2h-2.9l13.9-35H311.6z M303.5,36.1H317L310.3,19L303.5,36.1
				z"/>
			<path class="st0" d="M331.7,35.1v15.1h-2.9v-35h12.4c6.8,0,11.3,3.4,11.3,9.9c0,6.6-4.5,10-11.3,10H331.7z M341.1,17.8h-9.3v14.6
				h9.3c5.4,0,8.6-2.7,8.6-7.3C349.6,20.6,346.5,17.8,341.1,17.8z"/>
			<path class="st0" d="M359.1,50.2h-2.9v-35h2.9V50.2z"/>
			<path class="st0" d="M363.8,45.1c2.2,1.9,4.8,3.1,8.1,3.1c3.1,0,6-1.3,6-4.5c0-2.2-1.4-3.5-4-4.4l-4.2-1.5
				c-3.4-1.3-5.9-2.9-5.9-6.7c0-4.3,3.8-6.7,8.4-6.7c2.7,0,5.4,0.8,7.4,2.3v3.1c-2.1-1.7-4.3-2.8-7.4-2.8c-3,0-5.6,1.4-5.6,4.1
				c0,2.4,1.6,3.3,4.3,4.3l4.4,1.7c3.5,1.2,5.4,3.4,5.4,6.6c0,4.6-4,7.1-8.9,7.1c-3.4,0-6.4-1.1-8-2.5V45.1z"/>
		</g>
		<path class="st0" d="M220.1,26.9c-2,0-3.7-1.6-3.7-3.7c0-2.2,1.7-3.7,3.7-3.7s3.7,1.6,3.7,3.7C223.8,25.3,222.1,26.9,220.1,26.9
			 M220.1,20.1c-1.7,0-3,1.3-3,3.1c0,1.8,1.3,3.1,3,3.1c1.7,0,3-1.3,3-3.1C223.1,21.3,221.8,20.1,220.1,20.1 M219.7,23.8v1.2h-1.1
			v-3.9h1.8c0.9,0,1.4,0.5,1.4,1.4c0,0.6-0.3,1-0.8,1.2l0.9,1.4h-1.2l-0.8-1.2H219.7z M220.3,22.1h-0.6V23h0.6
			c0.3,0,0.5-0.2,0.5-0.4C220.8,22.3,220.6,22.1,220.3,22.1"/>
	</g>
</g>
</svg>
