<?xml version="1.0" encoding="utf-8"?>
<!-- Generator: Adobe Illustrator 23.0.1, SVG Export Plug-In . SVG Version: 6.00 Build 0)  -->
<svg version="1.1" id="logos" xmlns="http://www.w3.org/2000/svg" xmlns:xlink="http://www.w3.org/1999/xlink" x="0px" y="0px"
	 viewBox="0 0 553 61" style="enable-background:new 0 0 553 61;" xml:space="preserve">
<style type="text/css">
	.st0{fill:#4B4E52;}
	.st1{fill:#5CE500;}
</style>
<g>
	<g>
		<g>
			<path class="st0" d="M265.3,14.3h28.5V17H281v32.3H278V17h-12.8V14.3z"/>
			<path class="st0" d="M302.3,47.3c2.9,0,5-0.7,7.1-2.5v2.8c-1.9,1.5-4.4,2.2-7.4,2.2c-7.1,0-11.8-5-11.8-12.9
				c0-7.8,4.2-13.4,10.9-13.4c6.6,0,10,5,10,12.4v1h-18.2C293.1,43.7,297.1,47.3,302.3,47.3z M293.2,34.5h15.3
				c-0.2-4.4-2.3-8.6-7.3-8.6C297.1,26,293.9,29,293.2,34.5z"/>
			<path class="st0" d="M318.3,49.3h-2.9V12.2h2.9V49.3z"/>
			<path class="st0" d="M334.6,47.3c2.9,0,5-0.7,7.1-2.5v2.8c-1.9,1.5-4.4,2.2-7.4,2.2c-7.1,0-11.8-5-11.8-12.9
				c0-7.8,4.2-13.4,10.9-13.4c6.6,0,10,5,10,12.4v1h-18.2C325.4,43.7,329.4,47.3,334.6,47.3z M325.5,34.5h15.3
				c-0.2-4.4-2.3-8.6-7.3-8.6C329.4,26,326.2,29,325.5,34.5z"/>
			<path class="st0" d="M359.6,26.6c-0.7-0.3-1.4-0.5-2.3-0.5c-3.1,0-5.5,2.2-6.7,5.5v17.7h-2.9V24h2.9v4c1.1-2.5,3.7-4.6,6.8-4.6
				c1,0,1.7,0.2,2.2,0.3V26.6z"/>
			<path class="st0" d="M364.1,18.2c-1.1,0-1.9-0.9-1.9-1.9c0-1,0.9-1.9,1.9-1.9s1.9,0.9,1.9,1.9C366,17.4,365.2,18.2,364.1,18.2z
				 M365.5,49.3h-2.9V24h2.9V49.3z"/>
			<path class="st0" d="M390.8,49.3h-3.5l-13.2-13v13h-2.9V12.2h2.9V35L386.9,24h3.7l-13.5,11.6L390.8,49.3z"/>
			<path class="st0" d="M410.4,49.3v-35h20.3V17h-17.4v13.3h16.5v2.6h-16.5v16.4H410.4z"/>
			<path class="st0" d="M436,18.2c-1.1,0-1.9-0.9-1.9-1.9c0-1,0.9-1.9,1.9-1.9s1.9,0.9,1.9,1.9C437.9,17.4,437,18.2,436,18.2z
				 M437.4,49.3h-2.9V24h2.9V49.3z"/>
			<path class="st0" d="M460.5,45.5c-1.4,2.2-4.4,4.3-7.9,4.3c-7.5,0-11.1-6.2-11.1-13.2s3.6-13.2,11.1-13.2c3.5,0,6.4,2.1,7.9,4.3
				V12.2h2.8v37.1h-2.8V45.5z M460.5,31.1c-1.7-3.2-4.6-5-7.6-5c-5.3,0-8.4,4.4-8.4,10.5s3.1,10.5,8.4,10.5c3.1,0,5.9-1.8,7.6-5
				V31.1z"/>
			<path class="st0" d="M486.5,45.5c-1.4,2.2-4.4,4.3-7.9,4.3c-7.5,0-11.1-6.2-11.1-13.2s3.6-13.2,11.1-13.2c3.5,0,6.4,2.1,7.9,4.3
				V12.2h2.8v37.1h-2.8V45.5z M486.5,31.1c-1.7-3.2-4.6-5-7.6-5c-5.3,0-8.4,4.4-8.4,10.5s3.1,10.5,8.4,10.5c3.1,0,5.9-1.8,7.6-5
				V31.1z"/>
			<path class="st0" d="M498,49.3h-2.9V12.2h2.9V49.3z"/>
			<path class="st0" d="M514.3,47.3c2.9,0,5-0.7,7.1-2.5v2.8c-1.9,1.5-4.4,2.2-7.4,2.2c-7.1,0-11.8-5-11.8-12.9
				c0-7.8,4.2-13.4,10.9-13.4c6.6,0,10,5,10,12.4v1h-18.2C505.1,43.7,509.1,47.3,514.3,47.3z M505.2,34.5h15.3
				c-0.2-4.4-2.3-8.6-7.3-8.6C509.1,26,505.9,29,505.2,34.5z"/>
			<path class="st0" d="M539.3,26.6c-0.7-0.3-1.4-0.5-2.3-0.5c-3.1,0-5.5,2.2-6.7,5.5v17.7h-2.9V24h2.9v4c1.1-2.5,3.7-4.6,6.8-4.6
				c1,0,1.7,0.2,2.2,0.3V26.6z"/>
		</g>
		<path class="st0" d="M397.4,26c-2,0-3.7-1.6-3.7-3.7c0-2.2,1.7-3.7,3.7-3.7s3.7,1.6,3.7,3.7C401.1,24.4,399.4,26,397.4,26
			 M397.4,19.2c-1.7,0-3,1.3-3,3.1c0,1.8,1.3,3.1,3,3.1c1.7,0,3-1.3,3-3.1C400.4,20.4,399,19.2,397.4,19.2 M397,22.9v1.2h-1.1v-3.9
			h1.8c0.9,0,1.4,0.5,1.4,1.4c0,0.6-0.3,1-0.8,1.2l0.9,1.4h-1.2l-0.8-1.2H397z M397.6,21.2H397v0.9h0.6c0.3,0,0.5-0.2,0.5-0.4
			C398.1,21.4,397.9,21.2,397.6,21.2"/>
		<path class="st0" d="M542.6,19.7h4.4v0.9h-1.6v4.2h-1.1v-4.2h-1.7V19.7z M550.4,23.7l-1.5-2.2v3.4h-1.1v-5.2h1l1.6,2.4l1.6-2.4h1
			v5.2h-1.1v-3.4l-1.4,2.2H550.4z"/>
	</g>
	<path class="st1" d="M48.6,40.5c0,0.6-0.4,1.3-0.9,1.6l-12.5,7.2V21.4L11,7.5l12.5-7.2C24,0,24.8,0,25.3,0.3l23.2,13.4V40.5z
		 M29.8,24.5L13.3,15c-0.5-0.3-1.3-0.3-1.8,0L0.3,21.4l17.4,10.1l0,20.1l11.2-6.4c0.5-0.3,0.9-1,0.9-1.6V24.5z M0.3,41.6l12.1,7
		V34.6L0.3,41.6z"/>
	<g>
		<path class="st0" d="M75.1,13.7H62v35.6h5.8v-14h7.4c8,0,12.4-3.9,12.4-11C87.5,21.2,86.3,13.7,75.1,13.7 M81.6,24.5
			c0,4-2.1,5.7-7.2,5.7h-6.6V19h7.4C79.5,19,81.6,20.8,81.6,24.5 M104.9,23.4l0.4,0.2l-1,5.3l-0.7-0.2c-0.6-0.2-1.1-0.3-1.7-0.3
			c-5.4,0-5.9,4.3-5.9,9.6v11.3h-5.4V23.2h5.1v3.2c1.4-2.1,3-3.2,5.2-3.5C102.4,22.7,103.8,22.9,104.9,23.4 M118.2,22.6
			c-4.3,0-7.7,1.6-9.8,4.7c-2.3,3.2-2.6,7-2.6,9c0,8.3,4.9,13.6,12.5,13.6c9.2,0,12.5-7.4,12.5-13.8c0-3.7-1.1-7-3-9.4
			C125.4,24.1,122.1,22.6,118.2,22.6 M118.2,45.1c-4.2,0-6.9-3.4-6.9-8.8c0-5.5,2.6-8.9,6.9-8.9c4.2,0,6.9,3.4,6.9,8.8
			C125.1,41.7,122.4,45.1,118.2,45.1 M176,23.4l0.4,0.2l-1,5.3l-0.7-0.2c-0.6-0.2-1.1-0.3-1.7-0.3c-5.4,0-5.9,4.3-5.9,9.6v11.3h-5.4
			V23.2h5.1v3.2c1.4-2.1,3-3.2,5.2-3.5C173.6,22.7,175,22.9,176,23.4 M195.4,40.9l-0.1,0.3c-1.1,3.2-3.8,3.9-5.9,3.9
			c-4.1,0-6.7-2.7-7-7.1H201l0.1-0.5c0.1-0.6,0.1-1.5,0.1-2.1c0-0.2,0-0.3,0-0.5c-0.3-7.3-5-12.2-11.9-12.2c-4,0-7.3,1.6-9.5,4.5
			c-1.8,2.4-2.8,5.7-2.8,9.1c0,8.1,5,13.5,12.5,13.5c5.8,0,9.8-2.9,11.2-8.3l0.2-0.6H195.4z M182.7,33.3c0.5-3.6,2.9-5.9,6.5-5.9
			c2.7,0,5.9,1.6,6.3,5.9H182.7z M152,25.4c-1.7-1.8-4.1-2.7-6.9-2.7c-7.9,0-11.5,7-11.5,13.5c0,6.6,3.6,13.4,11.5,13.4
			c2.7,0,5-1,6.7-2.7c0,1.2,0,2.2-0.1,2.7c-0.3,4.3-2.4,6.3-6.5,6.3c-2.3,0-4.9-0.8-5.4-3.1l-0.1-0.5l-5.3,0l0.1,0.7
			c0.6,4.6,4.6,7.5,10.6,7.5c5.2,0,8.9-2,10.8-5.7c0.9-1.8,1.3-4.4,1.3-7.8V23.2H152V25.4z M145.4,44.6c-1.9,0-6.3-0.9-6.3-8.8
			c0-5.2,2.5-8.4,6.4-8.4c3.1,0,6.3,2.2,6.3,8.4C151.9,41.3,149.4,44.6,145.4,44.6 M226,41.4c0,4.2-3.5,8.4-11.2,8.4
			c-6.8,0-10.9-3-11.4-8.3l-0.1-0.6h5.3l0.1,0.4c0.7,3.2,3.7,3.9,6.2,3.9c2.7,0,5.6-0.9,5.6-3.3c0-1.2-0.8-2.1-2.4-2.6
			c-0.9-0.3-2.1-0.6-3.3-0.9c-2.1-0.6-4.3-1.2-5.6-1.7c-3.3-1.2-5.2-3.5-5.2-6.3c0-5.3,5.1-7.6,10.2-7.6c6.8,0,10.3,2.6,10.8,7.8
			l0,0.5l-5.2,0l-0.1-0.4c-0.5-3-3.5-3.5-5.3-3.5c-1.5,0-5,0.3-5,2.8c0,1.1,1,2,3,2.6c0.6,0.2,1.5,0.4,2.5,0.7
			c2.1,0.6,4.8,1.2,6.1,1.7C224.4,36.1,226,38.3,226,41.4 M251,41.4c0,4.2-3.5,8.4-11.2,8.4c-6.8,0-10.9-3-11.4-8.3l-0.1-0.6h5.3
			l0.1,0.4c0.7,3.2,3.7,3.9,6.2,3.9c2.7,0,5.6-0.9,5.6-3.3c0-1.2-0.8-2.1-2.4-2.6c-0.9-0.3-2.1-0.6-3.3-0.9
			c-2.1-0.6-4.3-1.2-5.6-1.7c-3.3-1.2-5.2-3.5-5.2-6.3c0-5.3,5.1-7.6,10.2-7.6c6.8,0,10.3,2.6,10.8,7.8l0,0.5l-5.2,0l-0.1-0.4
			c-0.5-3-3.5-3.5-5.3-3.5c-1.5,0-5,0.3-5,2.8c0,1.1,1,2,3,2.6c0.6,0.2,1.5,0.4,2.5,0.7c2.1,0.6,4.8,1.2,6.1,1.7
			C249.3,36.1,251,38.3,251,41.4"/>
		<path class="st0" d="M255.3,26c-2,0-3.7-1.6-3.7-3.7c0-2.2,1.7-3.7,3.7-3.7c2,0,3.7,1.6,3.7,3.7C258.9,24.4,257.3,26,255.3,26
			 M255.3,19.2c-1.7,0-3,1.3-3,3.1c0,1.8,1.3,3.1,3,3.1c1.7,0,3-1.3,3-3.1C258.3,20.4,256.9,19.2,255.3,19.2 M254.8,22.9v1.2h-1.1
			v-3.9h1.8c0.9,0,1.4,0.5,1.4,1.4c0,0.6-0.3,1-0.8,1.2l0.9,1.4h-1.2l-0.8-1.2H254.8z M255.4,21.2h-0.6v0.9h0.6
			c0.3,0,0.5-0.2,0.5-0.4C256,21.4,255.8,21.2,255.4,21.2"/>
	</g>
</g>
</svg>
