<?xml version="1.0" encoding="utf-8"?>
<!-- Generator: Adobe Illustrator 22.1.0, SVG Export Plug-In . SVG Version: 6.00 Build 0)  -->
<svg version="1.1" id="Layer_1" xmlns="http://www.w3.org/2000/svg" xmlns:xlink="http://www.w3.org/1999/xlink" x="0px" y="0px"
	 viewBox="0 0 618.6 60.4" style="enable-background:new 0 0 618.6 60.4;" xml:space="preserve">
<style type="text/css">
	.st0{fill:#4B4E52;}
	.st1{fill:#5CE500;}
</style>
<g>
	<g>
		<path class="st0" d="M265,14.2h28.5v2.7h-12.8v32.4h-2.9V16.9H265V14.2z"/>
		<path class="st0" d="M302,47.3c2.9,0,5-0.7,7.1-2.5v2.8c-1.9,1.5-4.4,2.2-7.4,2.2c-7.1,0-11.8-5-11.8-13c0-7.8,4.2-13.4,10.9-13.4
			c6.6,0,10,5,10,12.4v1h-18.2C292.8,43.7,296.8,47.3,302,47.3z M292.9,34.5h15.3c-0.2-4.5-2.3-8.6-7.3-8.6
			C296.8,26,293.6,29,292.9,34.5z"/>
		<path class="st0" d="M318,49.3h-2.9V12.2h2.9V49.3z"/>
		<path class="st0" d="M334.3,47.3c2.9,0,5-0.7,7.1-2.5v2.8c-1.9,1.5-4.4,2.2-7.4,2.2c-7.1,0-11.8-5-11.8-13
			c0-7.8,4.2-13.4,10.9-13.4c6.6,0,10,5,10,12.4v1h-18.2C325.1,43.7,329.1,47.3,334.3,47.3z M325.2,34.5h15.3
			c-0.2-4.5-2.3-8.6-7.3-8.6C329.1,26,325.9,29,325.2,34.5z"/>
		<path class="st0" d="M359.3,26.6c-0.7-0.3-1.4-0.5-2.3-0.5c-3.1,0-5.5,2.2-6.7,5.5v17.7h-2.9V24h2.9V28c1.1-2.5,3.7-4.6,6.8-4.6
			c1,0,1.7,0.2,2.2,0.3V26.6z"/>
		<path class="st0" d="M363.8,18.2c-1.1,0-1.9-0.9-1.9-1.9c0-1,0.9-1.9,1.9-1.9s1.9,0.9,1.9,1.9C365.7,17.3,364.9,18.2,363.8,18.2z
			 M365.2,49.3h-2.9V24h2.9V49.3z"/>
		<path class="st0" d="M390.5,49.3H387l-13.2-13v13h-2.9V12.2h2.9V35L386.6,24h3.7l-13.5,11.6L390.5,49.3z"/>
		<path class="st0" d="M409.4,35.5V14.2h2.9v20.8c0,8.2,4.4,12.1,10.5,12.1c6,0,10.5-3.8,10.5-12.1V14.2h2.9v21.2
			c0,9.7-5.9,14.3-13.5,14.3C415.3,49.8,409.4,45.1,409.4,35.5z"/>
		<path class="st0" d="M445.5,49.3h-2.9V14.2h2.9V49.3z"/>
		<path class="st0" d="M476,14.8c-0.7-0.4-1.6-0.6-2.6-0.6c-2.7,0-4.6,1.9-4.6,5.5V24h5.9v2.5h-5.9v22.9H466V26.4h-4.1V24h4.1v-4.6
			c0-4.6,3-7.7,7.1-7.7c1.1,0,2,0.2,2.9,0.5V14.8z"/>
		<path class="st0" d="M486.3,49.8c-6.7,0-11.2-5.4-11.2-13.2c0-7.8,4.5-13.2,11.2-13.2c6.7,0,11.2,5.4,11.2,13.2
			C497.5,44.5,493,49.8,486.3,49.8z M486.3,26c-5,0-8.3,4.3-8.3,10.7s3.3,10.7,8.3,10.7c5.1,0,8.4-4.3,8.4-10.7S491.3,26,486.3,26z"
			/>
		<path class="st0" d="M513.7,26.6c-0.7-0.3-1.4-0.5-2.3-0.5c-3.1,0-5.5,2.2-6.7,5.5v17.7h-2.9V24h2.9V28c1.1-2.5,3.7-4.6,6.8-4.6
			c1,0,1.7,0.2,2.2,0.3V26.6z"/>
		<path class="st0" d="M548.4,14.2l8.2,30.2l8.1-30.2h2.9L558,49.3h-2.6l-8.3-29.9l-8.2,29.9h-2.6l-9.6-35.1h2.9l8.1,30.2l8.2-30.2
			H548.4z"/>
		<path class="st0" d="M573.8,34.2v15.1h-2.9V14.2h12.4c6.8,0,11.3,3.4,11.3,9.9c0,6.6-4.5,10-11.3,10H573.8z M583.2,16.9h-9.3v14.6
			h9.3c5.4,0,8.6-2.7,8.6-7.3C591.7,19.6,588.6,16.9,583.2,16.9z"/>
		<path class="st0" d="M598.3,49.3V14.2h20.3v2.7h-17.4v13.4h16.5v2.6h-16.5v16.4H598.3z"/>
	</g>
	<path class="st0" d="M397.1,25.9c-2,0-3.7-1.6-3.7-3.7c0-2.2,1.7-3.7,3.7-3.7c2,0,3.7,1.6,3.7,3.7
		C400.8,24.4,399.1,25.9,397.1,25.9 M397.1,19.1c-1.7,0-3,1.3-3,3.1c0,1.8,1.3,3.1,3,3.1c1.7,0,3-1.3,3-3.1
		C400.1,20.4,398.7,19.1,397.1,19.1 M396.6,22.9v1.2h-1.1v-3.9h1.8c0.9,0,1.4,0.5,1.4,1.4c0,0.6-0.3,1-0.8,1.2l0.9,1.4h-1.2
		l-0.8-1.2H396.6z M397.3,21.1h-0.6V22h0.6c0.3,0,0.5-0.2,0.5-0.4C397.8,21.3,397.6,21.1,397.3,21.1"/>
</g>
<path class="st1" d="M48.3,40.5c0,0.6-0.4,1.3-0.9,1.6l-12.5,7.2V21.4l-24.1-14l12.5-7.2c0.5-0.3,1.3-0.3,1.8,0l23.2,13.4V40.5z
	 M29.5,24.5L13,14.9c-0.5-0.3-1.3-0.3-1.8,0L0,21.4l17.4,10.1l0,20.2l11.2-6.5c0.5-0.3,0.9-1,0.9-1.6V24.5z M0,41.6l12.1,7v-14
	L0,41.6z"/>
<g>
	<path class="st0" d="M74.8,13.7H61.7v35.7h5.8v-14h7.4c8,0,12.4-3.9,12.4-11C87.2,21.1,86,13.7,74.8,13.7 M81.3,24.4
		c0,4-2.1,5.7-7.2,5.7h-6.6V18.9h7.4C79.2,18.9,81.3,20.7,81.3,24.4 M104.6,23.3l0.4,0.2l-1,5.3l-0.7-0.2c-0.6-0.2-1.1-0.3-1.7-0.3
		c-5.4,0-5.9,4.3-5.9,9.6v11.4h-5.4V23.1h5.1v3.2c1.4-2.1,3-3.2,5.2-3.5C102.1,22.6,103.5,22.8,104.6,23.3 M117.8,22.6
		c-4.3,0-7.7,1.6-9.8,4.7c-2.3,3.2-2.6,7-2.6,9c0,8.3,4.9,13.6,12.5,13.6c9.2,0,12.5-7.4,12.5-13.8c0-3.7-1.1-7-3.1-9.4
		C125.1,24,121.8,22.6,117.8,22.6 M117.8,45.1c-4.2,0-6.9-3.4-6.9-8.8c0-5.5,2.6-8.9,6.9-8.9c4.2,0,6.9,3.4,6.9,8.8
		C124.8,41.7,122.1,45.1,117.8,45.1 M175.7,23.3l0.4,0.2l-1,5.3l-0.7-0.2c-0.6-0.2-1.1-0.3-1.7-0.3c-5.4,0-5.9,4.3-5.9,9.6v11.4
		h-5.4V23.1h5.1v3.2c1.4-2.1,3-3.2,5.2-3.5C173.3,22.6,174.7,22.8,175.7,23.3 M195.1,40.9l-0.1,0.3c-1.1,3.2-3.8,3.9-5.9,3.9
		c-4.1,0-6.7-2.7-7-7.1h18.5l0.1-0.5c0.1-0.6,0.1-1.5,0.1-2.1c0-0.2,0-0.3,0-0.5c-0.3-7.3-5-12.3-11.9-12.3c-4,0-7.3,1.6-9.5,4.5
		c-1.8,2.4-2.8,5.7-2.8,9.1c0,8.1,5,13.5,12.5,13.5c5.8,0,9.8-2.9,11.2-8.3l0.2-0.6H195.1z M182.4,33.3c0.5-3.6,2.9-5.9,6.5-5.9
		c2.7,0,5.9,1.6,6.3,5.9H182.4z M151.7,25.3c-1.7-1.8-4.1-2.7-6.9-2.7c-7.9,0-11.5,7-11.5,13.5c0,6.7,3.6,13.4,11.5,13.4
		c2.7,0,5-1,6.7-2.7c0,1.2,0,2.3-0.1,2.7c-0.3,4.3-2.4,6.3-6.5,6.3c-2.3,0-4.9-0.8-5.4-3.1l-0.1-0.5l-5.3,0l0.1,0.7
		c0.6,4.6,4.6,7.5,10.6,7.5c5.2,0,8.9-2,10.8-5.7c0.9-1.8,1.3-4.4,1.3-7.8V23.1h-5.1V25.3z M145.1,44.6c-1.9,0-6.3-0.9-6.3-8.8
		c0-5.2,2.5-8.5,6.4-8.5c3.1,0,6.3,2.2,6.3,8.5C151.5,41.3,149.1,44.6,145.1,44.6 M225.7,41.4c0,4.2-3.5,8.4-11.2,8.4
		c-6.8,0-10.9-3-11.4-8.3l-0.1-0.6h5.3l0.1,0.4c0.7,3.2,3.7,3.9,6.2,3.9c2.7,0,5.6-0.9,5.6-3.3c0-1.2-0.8-2.1-2.4-2.6
		c-0.9-0.3-2.1-0.6-3.3-0.9c-2.1-0.6-4.3-1.2-5.6-1.7c-3.3-1.2-5.2-3.5-5.2-6.4c0-5.3,5.1-7.6,10.2-7.6c6.8,0,10.3,2.6,10.8,7.8
		l0,0.5l-5.2,0l-0.1-0.4c-0.5-3-3.5-3.5-5.3-3.5c-1.5,0-5,0.3-5,2.8c0,1.1,1,2,3,2.6c0.6,0.2,1.5,0.4,2.5,0.7
		c2.1,0.6,4.8,1.2,6.1,1.7C224,36.1,225.7,38.3,225.7,41.4 M250.7,41.4c0,4.2-3.5,8.4-11.2,8.4c-6.8,0-10.9-3-11.4-8.3l-0.1-0.6h5.3
		l0.1,0.4c0.7,3.2,3.7,3.9,6.2,3.9c2.7,0,5.6-0.9,5.6-3.3c0-1.2-0.8-2.1-2.4-2.6c-0.9-0.3-2.1-0.6-3.3-0.9c-2.1-0.6-4.3-1.2-5.6-1.7
		c-3.3-1.2-5.2-3.5-5.2-6.4c0-5.3,5.1-7.6,10.2-7.6c6.8,0,10.3,2.6,10.8,7.8l0,0.5l-5.2,0l-0.1-0.4c-0.5-3-3.5-3.5-5.3-3.5
		c-1.5,0-5,0.3-5,2.8c0,1.1,1,2,3,2.6c0.6,0.2,1.5,0.4,2.5,0.7c2.1,0.6,4.8,1.2,6.1,1.7C249,36.1,250.7,38.3,250.7,41.4"/>
	<path class="st0" d="M255,25.9c-2,0-3.7-1.6-3.7-3.7c0-2.2,1.7-3.7,3.7-3.7s3.7,1.6,3.7,3.7C258.6,24.4,257,25.9,255,25.9
		 M255,19.1c-1.7,0-3,1.3-3,3.1c0,1.8,1.3,3.1,3,3.1c1.7,0,3-1.3,3-3.1C258,20.4,256.6,19.1,255,19.1 M254.5,22.9v1.2h-1.1v-3.9h1.8
		c0.9,0,1.4,0.5,1.4,1.4c0,0.6-0.3,1-0.8,1.2l0.9,1.4h-1.2l-0.8-1.2H254.5z M255.1,21.1h-0.6V22h0.6c0.3,0,0.5-0.2,0.5-0.4
		C255.7,21.3,255.5,21.1,255.1,21.1"/>
</g>
</svg>
