<?xml version="1.0" encoding="utf-8"?>
<!-- Generator: Adobe Illustrator 22.1.0, SVG Export Plug-In . SVG Version: 6.00 Build 0)  -->
<svg version="1.1" id="logos" xmlns="http://www.w3.org/2000/svg" xmlns:xlink="http://www.w3.org/1999/xlink" x="0px" y="0px"
	 viewBox="0 0 446.3 61" style="enable-background:new 0 0 446.3 61;" xml:space="preserve">
<style type="text/css">
	.st0{fill:#4B4E52;}
</style>
<g>
	<g>
		<g>
			<path class="st0" d="M0.6,14.3h28.5V17H16.3v32.3h-2.9V17H0.6V14.3z"/>
			<path class="st0" d="M37.6,47.3c2.9,0,5-0.7,7.1-2.5v2.8c-1.9,1.5-4.4,2.2-7.4,2.2c-7.1,0-11.8-5-11.8-12.9
				c0-7.8,4.2-13.4,10.9-13.4c6.6,0,10,5,10,12.4v1H28.4C28.4,43.8,32.4,47.3,37.6,47.3z M28.5,34.6h15.3c-0.2-4.4-2.3-8.6-7.3-8.6
				C32.4,26,29.2,29.1,28.5,34.6z"/>
			<path class="st0" d="M53.6,49.3h-2.9V12.3h2.9V49.3z"/>
			<path class="st0" d="M70,47.3c2.9,0,5-0.7,7.1-2.5v2.8c-1.9,1.5-4.4,2.2-7.4,2.2c-7.1,0-11.8-5-11.8-12.9
				c0-7.8,4.2-13.4,10.9-13.4c6.6,0,10,5,10,12.4v1H60.7C60.7,43.8,64.7,47.3,70,47.3z M60.8,34.6h15.3C76,30.1,73.9,26,68.9,26
				C64.7,26,61.5,29.1,60.8,34.6z"/>
			<path class="st0" d="M94.9,26.7c-0.7-0.3-1.4-0.5-2.3-0.5c-3.1,0-5.5,2.2-6.7,5.5v17.7H83V24h2.9v4c1.1-2.5,3.7-4.6,6.8-4.6
				c1,0,1.7,0.2,2.2,0.3V26.7z"/>
			<path class="st0" d="M99.4,18.3c-1.1,0-1.9-0.9-1.9-1.9c0-1,0.9-1.9,1.9-1.9s1.9,0.9,1.9,1.9C101.4,17.4,100.5,18.3,99.4,18.3z
				 M100.8,49.3H98V24h2.9V49.3z"/>
			<path class="st0" d="M126.1,49.3h-3.5l-13.2-13v13h-2.9V12.3h2.9v22.8L122.2,24h3.7l-13.5,11.6L126.1,49.3z"/>
			<path class="st0" d="M145.1,35.5V14.3h2.9v20.8c0,8.2,4.4,12,10.5,12c6,0,10.5-3.8,10.5-12V14.3h2.9v21.2
				c0,9.6-5.9,14.3-13.5,14.3C150.9,49.9,145.1,45.2,145.1,35.5z"/>
			<path class="st0" d="M181.2,49.3h-2.9v-35h2.9V49.3z"/>
			<path class="st0" d="M211.6,14.9c-0.7-0.4-1.6-0.6-2.6-0.6c-2.7,0-4.6,1.9-4.6,5.5V24h5.9v2.5h-5.9v22.9h-2.8V26.5h-4.1V24h4.1
				v-4.6c0-4.6,3-7.7,7.1-7.7c1.1,0,2,0.2,2.9,0.5V14.9z"/>
			<path class="st0" d="M221.9,49.9c-6.7,0-11.2-5.4-11.2-13.2c0-7.8,4.5-13.2,11.2-13.2c6.7,0,11.2,5.4,11.2,13.2
				C233.1,44.5,228.6,49.9,221.9,49.9z M221.9,26c-5,0-8.3,4.3-8.3,10.7s3.3,10.7,8.3,10.7c5.1,0,8.4-4.3,8.4-10.7S227,26,221.9,26z
				"/>
			<path class="st0" d="M249.3,26.7c-0.7-0.3-1.4-0.5-2.3-0.5c-3.1,0-5.5,2.2-6.7,5.5v17.7h-2.9V24h2.9v4c1.1-2.5,3.7-4.6,6.8-4.6
				c1,0,1.7,0.2,2.2,0.3V26.7z"/>
			<path class="st0" d="M263.4,43c3.4,3,6.8,4.2,10.8,4.2c5,0,8.2-2.5,8.2-6.6c0-3.5-2-5-6.3-6.8l-5.1-2.2c-3.6-1.5-7.6-3.6-7.6-9
				c0-5.9,5-8.9,10.6-8.9c3.6,0,7.2,1.1,9.8,3V20c-2.7-2.3-5.8-3.5-9.7-3.5c-4.3,0-7.8,2.1-7.8,6.2c0,3.4,2.4,4.9,6.1,6.4l5.4,2.3
				c5.1,2.2,7.5,4.7,7.5,9.2c0,5.6-4.7,9.3-11.1,9.3c-4.7,0-8.6-1.5-10.8-3.5V43z"/>
			<path class="st0" d="M290.7,18.3c-1.1,0-1.9-0.9-1.9-1.9c0-1,0.9-1.9,1.9-1.9s1.9,0.9,1.9,1.9C292.6,17.4,291.8,18.3,290.7,18.3z
				 M292.1,49.3h-2.9V24h2.9V49.3z"/>
			<path class="st0" d="M300.7,49.3h-2.9V12.3h2.9V49.3z"/>
			<path class="st0" d="M313.8,49.3L303.7,24h3l8.3,21.4l8.3-21.4h2.9l-10,25.3H313.8z"/>
			<path class="st0" d="M338.8,47.3c2.9,0,5-0.7,7.1-2.5v2.8c-1.9,1.5-4.4,2.2-7.4,2.2c-7.1,0-11.8-5-11.8-12.9
				c0-7.8,4.2-13.4,10.9-13.4c6.6,0,10,5,10,12.4v1h-18.2C329.5,43.8,333.5,47.3,338.8,47.3z M329.6,34.6H345
				c-0.2-4.4-2.3-8.6-7.3-8.6C333.5,26,330.3,29.1,329.6,34.6z"/>
			<path class="st0" d="M363.7,26.7c-0.7-0.3-1.4-0.5-2.3-0.5c-3.1,0-5.5,2.2-6.7,5.5v17.7h-2.9V24h2.9v4c1.1-2.5,3.7-4.6,6.8-4.6
				c1,0,1.7,0.2,2.2,0.3V26.7z"/>
			<path class="st0" d="M369.6,49.3h-2.9V12.3h2.9V49.3z"/>
			<path class="st0" d="M376.8,18.3c-1.1,0-1.9-0.9-1.9-1.9c0-1,0.9-1.9,1.9-1.9s1.9,0.9,1.9,1.9C378.8,17.4,377.9,18.3,376.8,18.3z
				 M378.3,49.3h-2.9V24h2.9V49.3z"/>
			<path class="st0" d="M401.1,45.1c-1.4,2.1-4.3,4.2-7.8,4.2c-7.4,0-10.9-6.1-10.9-12.9c0-6.8,3.5-12.9,10.9-12.9
				c3.5,0,6.4,2.1,7.8,4.2V24h2.8v23.5c0,8.4-5.6,12-11.6,12c-3.2,0-6-1-7.9-2.4v-3.2c2.5,2.3,5.2,3.1,7.9,3.1c5,0,8.8-3,8.8-9.3
				V45.1z M401.1,31c-1.7-3.1-4.5-4.9-7.5-4.9c-5.2,0-8.3,4.3-8.3,10.3c0,6,3.1,10.3,8.3,10.3c3,0,5.9-1.8,7.5-4.9V31z"/>
			<path class="st0" d="M409.7,12.3h2.9v15.8c1.5-2.4,4.5-4.6,8.1-4.6c5.8,0,8.8,3.7,8.8,9.1v16.8h-2.8V33c0-3.9-2-6.8-6.5-6.8
				c-3.5,0-6.3,2.5-7.6,5.5v17.7h-2.9V12.3z"/>
			<path class="st0" d="M440,49.3h-2.9V26.5h-5.4V24h5.4v-6.5h2.9V24h6v2.5h-6V49.3z"/>
		</g>
		<path class="st0" d="M132.7,26c-2,0-3.7-1.6-3.7-3.7c0-2.2,1.7-3.7,3.7-3.7c2,0,3.7,1.6,3.7,3.7C136.4,24.4,134.7,26,132.7,26
			 M132.7,19.2c-1.7,0-3,1.3-3,3.1c0,1.8,1.3,3.1,3,3.1c1.7,0,3-1.3,3-3.1C135.7,20.5,134.4,19.2,132.7,19.2 M132.3,23v1.2h-1.1
			v-3.9h1.8c0.9,0,1.4,0.5,1.4,1.4c0,0.6-0.3,1-0.8,1.2l0.9,1.4h-1.2l-0.8-1.2H132.3z M132.9,21.2h-0.6v0.9h0.6
			c0.3,0,0.5-0.2,0.5-0.4C133.4,21.4,133.2,21.2,132.9,21.2"/>
	</g>
</g>
</svg>
