<?xml version="1.0" encoding="utf-8"?>
<!-- Generator: Adobe Illustrator 23.0.1, SVG Export Plug-In . SVG Version: 6.00 Build 0)  -->
<svg version="1.1" id="logos" xmlns="http://www.w3.org/2000/svg" xmlns:xlink="http://www.w3.org/1999/xlink" x="0px" y="0px"
	 viewBox="0 0 565.2 62" style="enable-background:new 0 0 565.2 62;" xml:space="preserve">
<style type="text/css">
	.st0{fill:#4B4E52;}
</style>
<g>
	<g>
		<g>
			<path class="st0" d="M1.5,14.9H30v2.7H17.1v32.3h-2.9V17.6H1.5V14.9z"/>
			<path class="st0" d="M38.5,47.9c2.9,0,5-0.7,7.1-2.5v2.8c-1.9,1.5-4.4,2.2-7.4,2.2c-7.1,0-11.8-5-11.8-12.9
				c0-7.8,4.2-13.4,10.9-13.4c6.6,0,10,5,10,12.4v1H29.3C29.3,44.3,33.3,47.9,38.5,47.9z M29.4,35.2h15.3c-0.2-4.4-2.3-8.6-7.3-8.6
				C33.3,26.6,30.1,29.7,29.4,35.2z"/>
			<path class="st0" d="M54.5,49.9h-2.9V12.9h2.9V49.9z"/>
			<path class="st0" d="M70.8,47.9c2.9,0,5-0.7,7.1-2.5v2.8c-1.9,1.5-4.4,2.2-7.4,2.2c-7.1,0-11.8-5-11.8-12.9
				c0-7.8,4.2-13.4,10.9-13.4c6.6,0,10,5,10,12.4v1H61.6C61.6,44.3,65.6,47.9,70.8,47.9z M61.7,35.2H77c-0.2-4.4-2.3-8.6-7.3-8.6
				C65.6,26.6,62.4,29.7,61.7,35.2z"/>
			<path class="st0" d="M95.8,27.2c-0.7-0.3-1.4-0.5-2.3-0.5c-3.1,0-5.5,2.2-6.7,5.5v17.7h-2.9V24.6h2.9v4c1.1-2.5,3.7-4.6,6.8-4.6
				c1,0,1.7,0.2,2.2,0.3V27.2z"/>
			<path class="st0" d="M100.3,18.9c-1.1,0-1.9-0.9-1.9-1.9c0-1,0.9-1.9,1.9-1.9s1.9,0.9,1.9,1.9C102.2,18,101.4,18.9,100.3,18.9z
				 M101.7,49.9h-2.9V24.6h2.9V49.9z"/>
			<path class="st0" d="M127,49.9h-3.5l-13.2-13v13h-2.9V12.9h2.9v22.8l12.8-11.1h3.7l-13.5,11.6L127,49.9z"/>
			<path class="st0" d="M145.9,36.1V14.9h2.9v20.8c0,8.2,4.4,12,10.5,12c6,0,10.5-3.8,10.5-12V14.9h2.9v21.2
				c0,9.6-5.9,14.3-13.5,14.3C151.8,50.4,145.9,45.8,145.9,36.1z"/>
			<path class="st0" d="M182,49.9h-2.9v-35h2.9V49.9z"/>
			<path class="st0" d="M212.5,15.5c-0.7-0.4-1.6-0.6-2.6-0.6c-2.7,0-4.6,1.9-4.6,5.5v4.3h5.9v2.5h-5.9v22.9h-2.8V27.1h-4.1v-2.5
				h4.1V20c0-4.6,3-7.7,7.1-7.7c1.1,0,2,0.2,2.9,0.5V15.5z"/>
			<path class="st0" d="M222.8,50.4c-6.7,0-11.2-5.4-11.2-13.2c0-7.8,4.5-13.2,11.2-13.2c6.7,0,11.2,5.4,11.2,13.2
				C234,45.1,229.5,50.4,222.8,50.4z M222.8,26.6c-5,0-8.3,4.3-8.3,10.7s3.3,10.7,8.3,10.7c5.1,0,8.4-4.3,8.4-10.7
				S227.8,26.6,222.8,26.6z"/>
			<path class="st0" d="M250.2,27.2c-0.7-0.3-1.4-0.5-2.3-0.5c-3.1,0-5.5,2.2-6.7,5.5v17.7h-2.9V24.6h2.9v4c1.1-2.5,3.7-4.6,6.8-4.6
				c1,0,1.7,0.2,2.2,0.3V27.2z"/>
			<path class="st0" d="M279.9,14.9l13.9,35h-2.9l-4.6-11.5h-15.5l-4.5,11.5h-2.9l13.9-35H279.9z M271.8,35.8h13.5l-6.7-17.1
				L271.8,35.8z"/>
			<path class="st0" d="M295.6,43.6c3.4,3,6.8,4.2,10.8,4.2c5,0,8.2-2.5,8.2-6.6c0-3.5-2-5-6.3-6.8l-5.1-2.2c-3.6-1.5-7.6-3.6-7.6-9
				c0-5.9,5-8.9,10.6-8.9c3.6,0,7.2,1.1,9.8,3v3.2c-2.7-2.3-5.8-3.5-9.7-3.5c-4.3,0-7.8,2.1-7.8,6.2c0,3.4,2.4,4.9,6.1,6.4l5.4,2.3
				c5.1,2.2,7.5,4.7,7.5,9.2c0,5.6-4.7,9.3-11.1,9.3c-4.7,0-8.6-1.5-10.8-3.5V43.6z"/>
			<path class="st0" d="M324.9,34.8v15.1H322v-35h12.4c6.8,0,11.3,3.4,11.3,9.9c0,6.6-4.5,10-11.3,10H324.9z M334.3,17.5h-9.3v14.6
				h9.3c5.4,0,8.6-2.7,8.6-7.3C342.8,20.3,339.7,17.5,334.3,17.5z"/>
			<path class="st0" d="M343.6,45.7c1.2,0,2.2,1,2.2,2.2c0,1.2-1,2.2-2.2,2.2c-1.1,0-2.1-1-2.1-2.2
				C341.5,46.7,342.4,45.7,343.6,45.7z"/>
			<path class="st0" d="M377,49.9H375l-21.4-30.4v30.4h-2.8v-35h2.8l20.5,29.2V14.9h2.8V49.9z"/>
			<path class="st0" d="M405.4,14.9v2.7h-18.9v12.9h17.1v2.7h-17.1v14h18.9v2.7h-21.7v-35H405.4z"/>
			<path class="st0" d="M408.3,14.9h28.5v2.7H424v32.3h-2.9V17.6h-12.8V14.9z"/>
			<path class="st0" d="M467.3,14.4c4.2,0,7.2,1.1,9.6,3v3.2c-2.9-2.5-5.9-3.5-9.5-3.5c-7.5,0-12.9,5.8-12.9,15.3
				s5.5,15.3,12.9,15.3c3.6,0,6.6-1,9.5-3.5v3.2c-2.3,1.9-5.4,3-9.6,3c-8.8,0-15.8-6.9-15.8-18S458.5,14.4,467.3,14.4z"/>
			<path class="st0" d="M493.9,50.4c-8.9,0-15.4-7.3-15.4-18c0-10.7,6.6-18,15.4-18c9,0,15.5,7.3,15.5,18
				C509.4,43.1,502.8,50.4,493.9,50.4z M493.9,17.1c-7.4,0-12.5,6.3-12.5,15.3s5.1,15.3,12.5,15.3c7.5,0,12.5-6.3,12.5-15.3
				S501.4,17.1,493.9,17.1z"/>
			<path class="st0" d="M517,34.5v15.4h-2.9v-35h12.1c6.8,0,11.3,3.4,11.3,9.8c0,5.6-3.5,8.9-9,9.6l10.6,15.6h-3.4l-10.4-15.4H517z
				 M517,31.9h9.1c5.4,0,8.6-2.7,8.6-7.2c0-4.6-3.2-7.2-8.6-7.2H517V31.9z"/>
			<path class="st0" d="M564.5,14.9v2.7h-18.9v12.9h17.1v2.7h-17.1v14h18.9v2.7h-21.7v-35H564.5z"/>
		</g>
		<path class="st0" d="M133.6,26.6c-2,0-3.7-1.6-3.7-3.7c0-2.2,1.7-3.7,3.7-3.7s3.7,1.6,3.7,3.7C137.3,25,135.6,26.6,133.6,26.6
			 M133.6,19.8c-1.7,0-3,1.3-3,3.1c0,1.8,1.3,3.1,3,3.1c1.7,0,3-1.3,3-3.1C136.6,21.1,135.2,19.8,133.6,19.8 M133.1,23.6v1.2H132
			v-3.9h1.8c0.9,0,1.4,0.5,1.4,1.4c0,0.6-0.3,1-0.8,1.2l0.9,1.4h-1.2l-0.8-1.2H133.1z M133.8,21.8h-0.6v0.9h0.6
			c0.3,0,0.5-0.2,0.5-0.4C134.3,22,134.1,21.8,133.8,21.8"/>
	</g>
</g>
</svg>
