<?xml version="1.0" encoding="utf-8"?>
<!-- Generator: Adobe Illustrator 22.1.0, SVG Export Plug-In . SVG Version: 6.00 Build 0)  -->
<svg version="1.1" id="logos" xmlns="http://www.w3.org/2000/svg" xmlns:xlink="http://www.w3.org/1999/xlink" x="0px" y="0px"
	 viewBox="0 0 825 62" style="enable-background:new 0 0 825 62;" xml:space="preserve">
<style type="text/css">
	.st0{fill:#4B4E52;}
	.st1{fill:#5CE500;}
</style>
<g>
	<g>
		<g>
			<path class="st0" d="M265.3,15h28.5v2.7H281V50H278V17.7h-12.8V15z"/>
			<path class="st0" d="M302.3,48c2.9,0,5-0.7,7.1-2.5v2.8c-1.9,1.5-4.4,2.2-7.4,2.2c-7.1,0-11.8-5-11.8-12.9
				c0-7.8,4.2-13.4,10.9-13.4c6.6,0,10,5,10,12.4v1h-18.2C293.1,44.4,297.1,48,302.3,48z M293.2,35.2h15.3c-0.2-4.4-2.3-8.6-7.3-8.6
				C297.1,26.7,293.9,29.8,293.2,35.2z"/>
			<path class="st0" d="M318.3,50h-2.9V12.9h2.9V50z"/>
			<path class="st0" d="M334.6,48c2.9,0,5-0.7,7.1-2.5v2.8c-1.9,1.5-4.4,2.2-7.4,2.2c-7.1,0-11.8-5-11.8-12.9
				c0-7.8,4.2-13.4,10.9-13.4c6.6,0,10,5,10,12.4v1h-18.2C325.4,44.4,329.4,48,334.6,48z M325.5,35.2h15.3c-0.2-4.4-2.3-8.6-7.3-8.6
				C329.4,26.7,326.2,29.8,325.5,35.2z"/>
			<path class="st0" d="M359.6,27.3c-0.7-0.3-1.4-0.5-2.3-0.5c-3.1,0-5.5,2.2-6.7,5.5V50h-2.9V24.7h2.9v4c1.1-2.5,3.7-4.6,6.8-4.6
				c1,0,1.7,0.2,2.2,0.3V27.3z"/>
			<path class="st0" d="M364.1,18.9c-1.1,0-1.9-0.9-1.9-1.9c0-1,0.9-1.9,1.9-1.9S366,16,366,17C366,18.1,365.2,18.9,364.1,18.9z
				 M365.5,50h-2.9V24.7h2.9V50z"/>
			<path class="st0" d="M390.8,50h-3.5l-13.2-13v13h-2.9V12.9h2.9v22.8l12.8-11.1h3.7l-13.5,11.6L390.8,50z"/>
			<path class="st0" d="M409.7,36.2V15h2.9v20.8c0,8.2,4.4,12,10.5,12c6,0,10.5-3.8,10.5-12V15h2.9v21.2c0,9.6-5.9,14.3-13.5,14.3
				C415.6,50.5,409.7,45.8,409.7,36.2z"/>
			<path class="st0" d="M445.8,50h-2.9V15h2.9V50z"/>
			<path class="st0" d="M476.3,15.6c-0.7-0.4-1.6-0.6-2.6-0.6c-2.7,0-4.6,1.9-4.6,5.5v4.3h5.9v2.5h-5.9V50h-2.8V27.1h-4.1v-2.5h4.1
				v-4.6c0-4.6,3-7.7,7.1-7.7c1.1,0,2,0.2,2.9,0.5V15.6z"/>
			<path class="st0" d="M486.6,50.5c-6.7,0-11.2-5.4-11.2-13.2c0-7.8,4.5-13.2,11.2-13.2c6.7,0,11.2,5.4,11.2,13.2
				C497.8,45.2,493.3,50.5,486.6,50.5z M486.6,26.7c-5,0-8.3,4.3-8.3,10.7s3.3,10.7,8.3,10.7c5.1,0,8.4-4.3,8.4-10.7
				S491.7,26.7,486.6,26.7z"/>
			<path class="st0" d="M514,27.3c-0.7-0.3-1.4-0.5-2.3-0.5c-3.1,0-5.5,2.2-6.7,5.5V50h-2.9V24.7h2.9v4c1.1-2.5,3.7-4.6,6.8-4.6
				c1,0,1.7,0.2,2.2,0.3V27.3z"/>
			<path class="st0" d="M543.7,15l13.9,35h-2.9l-4.6-11.5h-15.5L530.1,50h-2.9L541,15H543.7z M535.6,35.9H549l-6.7-17.1L535.6,35.9z
				"/>
			<path class="st0" d="M559.4,43.7c3.4,3,6.8,4.2,10.8,4.2c5,0,8.2-2.5,8.2-6.6c0-3.5-2-5-6.3-6.8l-5.1-2.2c-3.6-1.5-7.6-3.6-7.6-9
				c0-5.9,5-8.9,10.6-8.9c3.6,0,7.2,1.1,9.8,3v3.2c-2.7-2.3-5.8-3.5-9.7-3.5c-4.3,0-7.8,2.1-7.8,6.2c0,3.4,2.4,4.9,6.1,6.4l5.4,2.3
				c5.1,2.2,7.5,4.7,7.5,9.2c0,5.6-4.7,9.3-11.1,9.3c-4.7,0-8.6-1.5-10.8-3.5V43.7z"/>
			<path class="st0" d="M588.7,34.9V50h-2.9V15h12.4c6.8,0,11.3,3.4,11.3,9.9c0,6.6-4.5,10-11.3,10H588.7z M598.1,17.6h-9.3v14.6
				h9.3c5.4,0,8.6-2.7,8.6-7.3C606.6,20.4,603.5,17.6,598.1,17.6z"/>
			<path class="st0" d="M607.4,45.8c1.2,0,2.2,1,2.2,2.2c0,1.2-1,2.2-2.2,2.2c-1.1,0-2.1-1-2.1-2.2
				C605.3,46.8,606.2,45.8,607.4,45.8z"/>
			<path class="st0" d="M640.8,50h-1.9l-21.4-30.4V50h-2.8V15h2.8L638,44.2V15h2.8V50z"/>
			<path class="st0" d="M669.2,15v2.7h-18.9v12.9h17.1v2.7h-17.1v14h18.9V50h-21.7V15H669.2z"/>
			<path class="st0" d="M672.1,15h28.5v2.7h-12.8V50h-2.9V17.7h-12.8V15z"/>
			<path class="st0" d="M730.9,15l13.9,35h-2.9l-4.6-11.5h-15.5L717.3,50h-2.9l13.9-35H730.9z M722.8,35.9h13.5l-6.7-17.1
				L722.8,35.9z"/>
			<path class="st0" d="M746.6,45.3c2.2,1.7,4.2,2.5,6.6,2.5c4.5,0,6.6-2.6,6.6-9V15h2.9v23.9c0,8-3.4,11.6-9.5,11.6
				c-2.9,0-5.2-1.1-6.6-2.2V45.3z"/>
			<path class="st0" d="M781,15l13.9,35h-2.9l-4.6-11.5h-15.5L767.3,50h-2.9l13.9-35H781z M772.9,35.9h13.5l-6.7-17.1L772.9,35.9z"
				/>
			<path class="st0" d="M812.4,32.2L824.8,50h-3.3l-10.8-15.4L799.9,50h-3.2l12.4-17.7l-12-17.3h3.3l10.4,14.9L821.2,15h3.2
				L812.4,32.2z"/>
		</g>
		<path class="st0" d="M397.4,26.7c-2,0-3.7-1.6-3.7-3.7c0-2.2,1.7-3.7,3.7-3.7s3.7,1.6,3.7,3.7C401.1,25.1,399.4,26.7,397.4,26.7
			 M397.4,19.9c-1.7,0-3,1.3-3,3.1c0,1.8,1.3,3.1,3,3.1c1.7,0,3-1.3,3-3.1C400.4,21.1,399,19.9,397.4,19.9 M397,23.6v1.2h-1.1V21
			h1.8c0.9,0,1.4,0.5,1.4,1.4c0,0.6-0.3,1-0.8,1.2l0.9,1.4h-1.2l-0.8-1.2H397z M397.6,21.9H397v0.9h0.6c0.3,0,0.5-0.2,0.5-0.4
			C398.1,22.1,397.9,21.9,397.6,21.9"/>
	</g>
	<path class="st1" d="M48.6,41.2c0,0.6-0.4,1.3-0.9,1.6L35.2,50V22.1L11,8.2L23.5,1c0.5-0.3,1.3-0.3,1.8,0l23.2,13.4V41.2z
		 M29.8,25.2l-16.5-9.5c-0.5-0.3-1.3-0.3-1.8,0L0.3,22.1l17.4,10.1l0,20.1l11.2-6.4c0.5-0.3,0.9-1,0.9-1.6V25.2z M0.3,42.3l12.1,7
		V35.3L0.3,42.3z"/>
	<g>
		<path class="st0" d="M75.1,14.4H62V50h5.8V36h7.4c8,0,12.4-3.9,12.4-11C87.5,21.9,86.3,14.4,75.1,14.4 M81.6,25.2
			c0,4-2.1,5.7-7.2,5.7h-6.6V19.7h7.4C79.5,19.7,81.6,21.5,81.6,25.2 M104.9,24.1l0.4,0.2l-1,5.3l-0.7-0.2c-0.6-0.2-1.1-0.3-1.7-0.3
			c-5.4,0-5.9,4.3-5.9,9.6V50h-5.4V23.9h5.1V27c1.4-2.1,3-3.2,5.2-3.5C102.4,23.4,103.8,23.6,104.9,24.1 M118.2,23.3
			c-4.3,0-7.7,1.6-9.8,4.7c-2.3,3.2-2.6,7-2.6,9c0,8.3,4.9,13.6,12.5,13.6c9.2,0,12.5-7.4,12.5-13.8c0-3.7-1.1-7-3-9.4
			C125.4,24.8,122.1,23.3,118.2,23.3 M118.2,45.8c-4.2,0-6.9-3.4-6.9-8.8c0-5.5,2.6-8.9,6.9-8.9c4.2,0,6.9,3.4,6.9,8.8
			C125.1,42.4,122.4,45.8,118.2,45.8 M176,24.1l0.4,0.2l-1,5.3l-0.7-0.2c-0.6-0.2-1.1-0.3-1.7-0.3c-5.4,0-5.9,4.3-5.9,9.6V50h-5.4
			V23.9h5.1V27c1.4-2.1,3-3.2,5.2-3.5C173.6,23.4,175,23.6,176,24.1 M195.4,41.6l-0.1,0.3c-1.1,3.2-3.8,3.9-5.9,3.9
			c-4.1,0-6.7-2.7-7-7.1H201l0.1-0.5c0.1-0.6,0.1-1.5,0.1-2.1c0-0.2,0-0.3,0-0.5c-0.3-7.3-5-12.2-11.9-12.2c-4,0-7.3,1.6-9.5,4.5
			c-1.8,2.4-2.8,5.7-2.8,9.1c0,8.1,5,13.5,12.5,13.5c5.8,0,9.8-2.9,11.2-8.3l0.2-0.6H195.4z M182.7,34c0.5-3.6,2.9-5.9,6.5-5.9
			c2.7,0,5.9,1.6,6.3,5.9H182.7z M152,26.1c-1.7-1.8-4.1-2.7-6.9-2.7c-7.9,0-11.5,7-11.5,13.5c0,6.6,3.6,13.4,11.5,13.4
			c2.7,0,5-1,6.7-2.7c0,1.2,0,2.2-0.1,2.7c-0.3,4.3-2.4,6.3-6.5,6.3c-2.3,0-4.9-0.8-5.4-3.1l-0.1-0.5l-5.3,0l0.1,0.7
			c0.6,4.6,4.6,7.5,10.6,7.5c5.2,0,8.9-2,10.8-5.7c0.9-1.8,1.3-4.4,1.3-7.8V23.9H152V26.1z M145.4,45.3c-1.9,0-6.3-0.9-6.3-8.8
			c0-5.2,2.5-8.4,6.4-8.4c3.1,0,6.3,2.2,6.3,8.4C151.9,42,149.4,45.3,145.4,45.3 M226,42.1c0,4.2-3.5,8.4-11.2,8.4
			c-6.8,0-10.9-3-11.4-8.3l-0.1-0.6h5.3l0.1,0.4c0.7,3.2,3.7,3.9,6.2,3.9c2.7,0,5.6-0.9,5.6-3.3c0-1.2-0.8-2.1-2.4-2.6
			c-0.9-0.3-2.1-0.6-3.3-0.9c-2.1-0.6-4.3-1.2-5.6-1.7c-3.3-1.2-5.2-3.5-5.2-6.3c0-5.3,5.1-7.6,10.2-7.6c6.8,0,10.3,2.6,10.8,7.8
			l0,0.5l-5.2,0l-0.1-0.4c-0.5-3-3.5-3.5-5.3-3.5c-1.5,0-5,0.3-5,2.8c0,1.1,1,2,3,2.6c0.6,0.2,1.5,0.4,2.5,0.7
			c2.1,0.6,4.8,1.2,6.1,1.7C224.4,36.8,226,39,226,42.1 M251,42.1c0,4.2-3.5,8.4-11.2,8.4c-6.8,0-10.9-3-11.4-8.3l-0.1-0.6h5.3
			l0.1,0.4c0.7,3.2,3.7,3.9,6.2,3.9c2.7,0,5.6-0.9,5.6-3.3c0-1.2-0.8-2.1-2.4-2.6c-0.9-0.3-2.1-0.6-3.3-0.9
			c-2.1-0.6-4.3-1.2-5.6-1.7c-3.3-1.2-5.2-3.5-5.2-6.3c0-5.3,5.1-7.6,10.2-7.6c6.8,0,10.3,2.6,10.8,7.8l0,0.5l-5.2,0l-0.1-0.4
			c-0.5-3-3.5-3.5-5.3-3.5c-1.5,0-5,0.3-5,2.8c0,1.1,1,2,3,2.6c0.6,0.2,1.5,0.4,2.5,0.7c2.1,0.6,4.8,1.2,6.1,1.7
			C249.3,36.8,251,39,251,42.1"/>
		<path class="st0" d="M255.3,26.7c-2,0-3.7-1.6-3.7-3.7c0-2.2,1.7-3.7,3.7-3.7c2,0,3.7,1.6,3.7,3.7
			C258.9,25.1,257.3,26.7,255.3,26.7 M255.3,19.9c-1.7,0-3,1.3-3,3.1c0,1.8,1.3,3.1,3,3.1c1.7,0,3-1.3,3-3.1
			C258.3,21.1,256.9,19.9,255.3,19.9 M254.8,23.6v1.2h-1.1V21h1.8c0.9,0,1.4,0.5,1.4,1.4c0,0.6-0.3,1-0.8,1.2l0.9,1.4h-1.2l-0.8-1.2
			H254.8z M255.4,21.9h-0.6v0.9h0.6c0.3,0,0.5-0.2,0.5-0.4C256,22.1,255.8,21.9,255.4,21.9"/>
	</g>
</g>
</svg>
