<?xml version="1.0" encoding="utf-8"?>
<!-- Generator: Adobe Illustrator 23.0.1, SVG Export Plug-In . SVG Version: 6.00 Build 0)  -->
<svg version="1.1" id="logos" xmlns="http://www.w3.org/2000/svg" xmlns:xlink="http://www.w3.org/1999/xlink" x="0px" y="0px"
	 viewBox="0 0 333.5 61" style="enable-background:new 0 0 333.5 61;" xml:space="preserve">
<style type="text/css">
	.st0{fill:#4B4E52;}
</style>
<g>
	<g>
		<g>
			<path class="st0" d="M0.8,14.4h28.5v2.7H16.5v32.3h-2.9V17.1H0.8V14.4z"/>
			<path class="st0" d="M37.8,47.4c2.9,0,5-0.7,7.1-2.5v2.8c-1.9,1.5-4.4,2.2-7.4,2.2c-7.1,0-11.8-5-11.8-12.9
				c0-7.8,4.2-13.4,10.9-13.4c6.6,0,10,5,10,12.4v1H28.6C28.6,43.8,32.6,47.4,37.8,47.4z M28.7,34.7H44c-0.2-4.4-2.3-8.6-7.3-8.6
				C32.6,26.1,29.4,29.2,28.7,34.7z"/>
			<path class="st0" d="M53.8,49.4h-2.9V12.4h2.9V49.4z"/>
			<path class="st0" d="M70.1,47.4c2.9,0,5-0.7,7.1-2.5v2.8c-1.9,1.5-4.4,2.2-7.4,2.2c-7.1,0-11.8-5-11.8-12.9
				c0-7.8,4.2-13.4,10.9-13.4c6.6,0,10,5,10,12.4v1H60.9C60.9,43.8,64.9,47.4,70.1,47.4z M61,34.7h15.3c-0.2-4.4-2.3-8.6-7.3-8.6
				C64.9,26.1,61.7,29.2,61,34.7z"/>
			<path class="st0" d="M95.1,26.7c-0.7-0.3-1.4-0.5-2.3-0.5c-3.1,0-5.5,2.2-6.7,5.5v17.7h-2.9V24.1H86v4c1.1-2.5,3.7-4.6,6.8-4.6
				c1,0,1.7,0.2,2.2,0.3V26.7z"/>
			<path class="st0" d="M99.6,18.4c-1.1,0-1.9-0.9-1.9-1.9c0-1,0.9-1.9,1.9-1.9s1.9,0.9,1.9,1.9C101.5,17.5,100.7,18.4,99.6,18.4z
				 M101,49.4h-2.9V24.1h2.9V49.4z"/>
			<path class="st0" d="M126.3,49.4h-3.5l-13.2-13v13h-2.9V12.4h2.9v22.8l12.8-11.1h3.7l-13.5,11.6L126.3,49.4z"/>
			<path class="st0" d="M148.8,34v15.4h-2.9v-35H158c6.8,0,11.3,3.4,11.3,9.8c0,5.6-3.5,8.9-9,9.6L171,49.4h-3.4L157.2,34H148.8z
				 M148.8,31.4h9.1c5.4,0,8.6-2.7,8.6-7.2c0-4.6-3.2-7.2-8.6-7.2h-9.1V31.4z"/>
			<path class="st0" d="M184.2,47.4c2.9,0,5-0.7,7.1-2.5v2.8c-1.9,1.5-4.4,2.2-7.4,2.2c-7.1,0-11.8-5-11.8-12.9
				c0-7.8,4.2-13.4,10.9-13.4c6.6,0,10,5,10,12.4v1H175C175,43.8,178.9,47.4,184.2,47.4z M175.1,34.7h15.3c-0.2-4.4-2.3-8.6-7.3-8.6
				C178.9,26.1,175.8,29.2,175.1,34.7z"/>
			<path class="st0" d="M200.1,59.1h-2.9v-35h2.9v3.8c1.4-2.2,4.4-4.3,7.9-4.3c7.5,0,11.1,6.2,11.1,13.2s-3.6,13.2-11.1,13.2
				c-3.5,0-6.4-2.1-7.9-4.3V59.1z M200.1,42.3c1.7,3.2,4.5,5,7.6,5c5.4,0,8.5-4.4,8.5-10.5s-3.1-10.5-8.5-10.5c-3.1,0-5.9,1.8-7.6,5
				V42.3z"/>
			<path class="st0" d="M233.1,49.9c-6.7,0-11.2-5.4-11.2-13.2c0-7.8,4.5-13.2,11.2-13.2c6.7,0,11.2,5.4,11.2,13.2
				C244.3,44.6,239.8,49.9,233.1,49.9z M233.1,26.1c-5,0-8.3,4.3-8.3,10.7s3.3,10.7,8.3,10.7c5.1,0,8.4-4.3,8.4-10.7
				S238.2,26.1,233.1,26.1z"/>
			<path class="st0" d="M260.5,26.7c-0.7-0.3-1.4-0.5-2.3-0.5c-3.1,0-5.5,2.2-6.7,5.5v17.7h-2.9V24.1h2.9v4c1.1-2.5,3.7-4.6,6.8-4.6
				c1,0,1.7,0.2,2.2,0.3V26.7z"/>
			<path class="st0" d="M270.5,49.4h-2.9V26.6h-5.4v-2.5h5.4v-6.5h2.9v6.5h6v2.5h-6V49.4z"/>
			<path class="st0" d="M281,18.4c-1.1,0-1.9-0.9-1.9-1.9c0-1,0.9-1.9,1.9-1.9s1.9,0.9,1.9,1.9C283,17.5,282.1,18.4,281,18.4z
				 M282.4,49.4h-2.9V24.1h2.9V49.4z"/>
			<path class="st0" d="M288.2,24.1h2.9v4c1.5-2.4,4.5-4.6,8.1-4.6c5.8,0,8.8,3.7,8.8,9.1v16.8h-2.8V33.1c0-3.9-2-6.8-6.5-6.8
				c-3.5,0-6.3,2.5-7.6,5.5v17.7h-2.9V24.1z"/>
			<path class="st0" d="M330.7,45.2c-1.4,2.1-4.3,4.2-7.8,4.2c-7.4,0-10.9-6.1-10.9-12.9c0-6.8,3.5-12.9,10.9-12.9
				c3.5,0,6.4,2.1,7.8,4.2v-3.7h2.8v23.5c0,8.4-5.6,12-11.6,12c-3.2,0-6-1-7.9-2.4V54c2.5,2.3,5.2,3.1,7.9,3.1c5,0,8.8-3,8.8-9.3
				V45.2z M330.7,31.1c-1.7-3.1-4.5-4.9-7.5-4.9c-5.2,0-8.3,4.3-8.3,10.3c0,6,3.1,10.3,8.3,10.3c3,0,5.9-1.8,7.5-4.9V31.1z"/>
		</g>
		<path class="st0" d="M132.9,26.1c-2,0-3.7-1.6-3.7-3.7c0-2.2,1.7-3.7,3.7-3.7s3.7,1.6,3.7,3.7C136.6,24.5,134.9,26.1,132.9,26.1
			 M132.9,19.3c-1.7,0-3,1.3-3,3.1c0,1.8,1.3,3.1,3,3.1c1.7,0,3-1.3,3-3.1C135.9,20.6,134.6,19.3,132.9,19.3 M132.5,23.1v1.2h-1.1
			v-3.9h1.8c0.9,0,1.4,0.5,1.4,1.4c0,0.6-0.3,1-0.8,1.2l0.9,1.4h-1.2l-0.8-1.2H132.5z M133.1,21.3h-0.6v0.9h0.6
			c0.3,0,0.5-0.2,0.5-0.4C133.6,21.5,133.4,21.3,133.1,21.3"/>
	</g>
</g>
</svg>
