<?xml version="1.0" encoding="utf-8"?>
<!-- Generator: Adobe Illustrator 23.0.1, SVG Export Plug-In . SVG Version: 6.00 Build 0)  -->
<svg version="1.1" id="logos" xmlns="http://www.w3.org/2000/svg" xmlns:xlink="http://www.w3.org/1999/xlink" x="0px" y="0px"
	 viewBox="0 0 544.8 62" style="enable-background:new 0 0 544.8 62;" xml:space="preserve">
<style type="text/css">
	.st0{fill:#4B4E52;}
</style>
<g>
	<g>
		<g>
			<path class="st0" d="M1.1,15.1h28.5v2.7H16.8v32.3h-2.9V17.8H1.1V15.1z"/>
			<path class="st0" d="M38.1,48.1c2.9,0,5-0.7,7.1-2.5v2.8c-1.9,1.5-4.4,2.2-7.4,2.2c-7.1,0-11.8-5-11.8-12.9
				c0-7.8,4.2-13.4,10.9-13.4c6.6,0,10,5,10,12.4v1H28.9C28.9,44.5,32.9,48.1,38.1,48.1z M29,35.3h15.3c-0.2-4.4-2.3-8.6-7.3-8.6
				C32.9,26.8,29.7,29.8,29,35.3z"/>
			<path class="st0" d="M54.1,50.1h-2.9V13h2.9V50.1z"/>
			<path class="st0" d="M70.4,48.1c2.9,0,5-0.7,7.1-2.5v2.8c-1.9,1.5-4.4,2.2-7.4,2.2c-7.1,0-11.8-5-11.8-12.9
				c0-7.8,4.2-13.4,10.9-13.4c6.6,0,10,5,10,12.4v1H61.2C61.2,44.5,65.2,48.1,70.4,48.1z M61.3,35.3h15.3c-0.2-4.4-2.3-8.6-7.3-8.6
				C65.2,26.8,62,29.8,61.3,35.3z"/>
			<path class="st0" d="M95.4,27.4c-0.7-0.3-1.4-0.5-2.3-0.5c-3.1,0-5.5,2.2-6.7,5.5v17.7h-2.9V24.8h2.9v4c1.1-2.5,3.7-4.6,6.8-4.6
				c1,0,1.7,0.2,2.2,0.3V27.4z"/>
			<path class="st0" d="M99.9,19c-1.1,0-1.9-0.9-1.9-1.9c0-1,0.9-1.9,1.9-1.9s1.9,0.9,1.9,1.9C101.8,18.2,101,19,99.9,19z
				 M101.3,50.1h-2.9V24.8h2.9V50.1z"/>
			<path class="st0" d="M126.6,50.1h-3.5l-13.2-13v13h-2.9V13h2.9v22.8l12.8-11.1h3.7l-13.5,11.6L126.6,50.1z"/>
			<path class="st0" d="M145.5,36.3V15.1h2.9v20.8c0,8.2,4.4,12,10.5,12c6,0,10.5-3.8,10.5-12V15.1h2.9v21.2
				c0,9.6-5.9,14.3-13.5,14.3C151.4,50.6,145.5,45.9,145.5,36.3z"/>
			<path class="st0" d="M181.6,50.1h-2.9v-35h2.9V50.1z"/>
			<path class="st0" d="M212.1,15.6c-0.7-0.4-1.6-0.6-2.6-0.6c-2.7,0-4.6,1.9-4.6,5.5v4.3h5.9v2.5h-5.9v22.9h-2.8V27.2H198v-2.5h4.1
				v-4.6c0-4.6,3-7.7,7.1-7.7c1.1,0,2,0.2,2.9,0.5V15.6z"/>
			<path class="st0" d="M222.4,50.6c-6.7,0-11.2-5.4-11.2-13.2c0-7.8,4.5-13.2,11.2-13.2c6.7,0,11.2,5.4,11.2,13.2
				C233.6,45.2,229.1,50.6,222.4,50.6z M222.4,26.8c-5,0-8.3,4.3-8.3,10.7s3.3,10.7,8.3,10.7c5.1,0,8.4-4.3,8.4-10.7
				S227.5,26.8,222.4,26.8z"/>
			<path class="st0" d="M249.8,27.4c-0.7-0.3-1.4-0.5-2.3-0.5c-3.1,0-5.5,2.2-6.7,5.5v17.7h-2.9V24.8h2.9v4c1.1-2.5,3.7-4.6,6.8-4.6
				c1,0,1.7,0.2,2.2,0.3V27.4z"/>
			<path class="st0" d="M279.5,15.1l13.9,35h-2.9l-4.6-11.5h-15.5l-4.5,11.5H263l13.9-35H279.5z M271.4,35.9h13.5l-6.7-17.1
				L271.4,35.9z"/>
			<path class="st0" d="M295.2,43.8c3.4,3,6.8,4.2,10.8,4.2c5,0,8.2-2.5,8.2-6.6c0-3.5-2-5-6.3-6.8l-5.1-2.2c-3.6-1.5-7.6-3.6-7.6-9
				c0-5.9,5-8.9,10.6-8.9c3.6,0,7.2,1.1,9.8,3v3.2c-2.7-2.3-5.8-3.5-9.7-3.5c-4.3,0-7.8,2.1-7.8,6.2c0,3.4,2.4,4.9,6.1,6.4l5.4,2.3
				c5.1,2.2,7.5,4.7,7.5,9.2c0,5.6-4.7,9.3-11.1,9.3c-4.7,0-8.6-1.5-10.8-3.5V43.8z"/>
			<path class="st0" d="M324.5,35v15.1h-2.9v-35H334c6.8,0,11.3,3.4,11.3,9.9c0,6.6-4.5,10-11.3,10H324.5z M333.9,17.7h-9.3v14.6
				h9.3c5.4,0,8.6-2.7,8.6-7.3C342.4,20.4,339.3,17.7,333.9,17.7z"/>
			<path class="st0" d="M343.2,45.9c1.2,0,2.2,1,2.2,2.2c0,1.2-1,2.2-2.2,2.2c-1.1,0-2.1-1-2.1-2.2C341.1,46.8,342,45.9,343.2,45.9z
				"/>
			<path class="st0" d="M376.6,50.1h-1.9l-21.4-30.4v30.4h-2.8v-35h2.8l20.5,29.2V15.1h2.8V50.1z"/>
			<path class="st0" d="M405,15.1v2.7h-18.9v12.9h17.1v2.7h-17.1v14H405v2.7h-21.7v-35H405z"/>
			<path class="st0" d="M408,15.1h28.5v2.7h-12.8v32.3h-2.9V17.8H408V15.1z"/>
			<path class="st0" d="M469.5,42l-13.2-21.4v29.5h-2.9v-35h2.6l13.6,22.2l13.7-22.2h2.4v35h-2.9V20.6L469.6,42H469.5z"/>
			<path class="st0" d="M502.8,50.1l-13.8-35h3l12.1,31l12.2-31h3l-13.9,35H502.8z"/>
			<path class="st0" d="M534.9,14.6c4.2,0,7.2,1.1,9.6,3v3.2c-2.9-2.5-5.9-3.5-9.5-3.5c-7.5,0-12.9,5.8-12.9,15.3
				s5.5,15.3,12.9,15.3c3.6,0,6.6-1,9.5-3.5v3.2c-2.3,1.9-5.4,3-9.6,3c-8.8,0-15.8-6.9-15.8-18S526.1,14.6,534.9,14.6z"/>
		</g>
		<path class="st0" d="M133.2,26.7c-2,0-3.7-1.6-3.7-3.7c0-2.2,1.7-3.7,3.7-3.7c2,0,3.7,1.6,3.7,3.7
			C136.9,25.2,135.2,26.7,133.2,26.7 M133.2,19.9c-1.7,0-3,1.3-3,3.1c0,1.8,1.3,3.1,3,3.1c1.7,0,3-1.3,3-3.1
			C136.2,21.2,134.9,19.9,133.2,19.9 M132.8,23.7V25h-1.1V21h1.8c0.9,0,1.4,0.5,1.4,1.4c0,0.6-0.3,1-0.8,1.2l0.9,1.4h-1.2l-0.8-1.2
			H132.8z M133.4,22h-0.6v0.9h0.6c0.3,0,0.5-0.2,0.5-0.4C133.9,22.1,133.7,22,133.4,22"/>
	</g>
</g>
</svg>
