<?xml version="1.0" encoding="utf-8"?>
<!-- Generator: Adobe Illustrator 23.0.1, SVG Export Plug-In . SVG Version: 6.00 Build 0)  -->
<svg version="1.1" id="logos" xmlns="http://www.w3.org/2000/svg" xmlns:xlink="http://www.w3.org/1999/xlink" x="0px" y="0px"
	 viewBox="0 0 809 62" style="enable-background:new 0 0 809 62;" xml:space="preserve">
<style type="text/css">
	.st0{fill:#4B4E52;}
	.st1{fill:#5CE500;}
</style>
<g>
	<g>
		<g>
			<path class="st0" d="M265.3,15.1h28.5v2.7H281v32.3H278V17.8h-12.8V15.1z"/>
			<path class="st0" d="M302.3,48.1c2.9,0,5-0.7,7.1-2.5v2.8c-1.9,1.5-4.4,2.2-7.4,2.2c-7.1,0-11.8-5-11.8-12.9
				c0-7.8,4.2-13.4,10.9-13.4c6.6,0,10,5,10,12.4v1h-18.2C293.1,44.5,297.1,48.1,302.3,48.1z M293.2,35.3h15.3
				c-0.2-4.4-2.3-8.6-7.3-8.6C297.1,26.8,293.9,29.8,293.2,35.3z"/>
			<path class="st0" d="M318.3,50.1h-2.9V13h2.9V50.1z"/>
			<path class="st0" d="M334.6,48.1c2.9,0,5-0.7,7.1-2.5v2.8c-1.9,1.5-4.4,2.2-7.4,2.2c-7.1,0-11.8-5-11.8-12.9
				c0-7.8,4.2-13.4,10.9-13.4c6.6,0,10,5,10,12.4v1h-18.2C325.4,44.5,329.4,48.1,334.6,48.1z M325.5,35.3h15.3
				c-0.2-4.4-2.3-8.6-7.3-8.6C329.4,26.8,326.2,29.8,325.5,35.3z"/>
			<path class="st0" d="M359.6,27.4c-0.7-0.3-1.4-0.5-2.3-0.5c-3.1,0-5.5,2.2-6.7,5.5v17.7h-2.9V24.8h2.9v4c1.1-2.5,3.7-4.6,6.8-4.6
				c1,0,1.7,0.2,2.2,0.3V27.4z"/>
			<path class="st0" d="M364.1,19c-1.1,0-1.9-0.9-1.9-1.9c0-1,0.9-1.9,1.9-1.9s1.9,0.9,1.9,1.9C366,18.2,365.2,19,364.1,19z
				 M365.5,50.1h-2.9V24.8h2.9V50.1z"/>
			<path class="st0" d="M390.8,50.1h-3.5l-13.2-13v13h-2.9V13h2.9v22.8l12.8-11.1h3.7l-13.5,11.6L390.8,50.1z"/>
			<path class="st0" d="M409.7,36.3V15.1h2.9v20.8c0,8.2,4.4,12,10.5,12c6,0,10.5-3.8,10.5-12V15.1h2.9v21.2
				c0,9.6-5.9,14.3-13.5,14.3C415.6,50.6,409.7,45.9,409.7,36.3z"/>
			<path class="st0" d="M445.8,50.1h-2.9v-35h2.9V50.1z"/>
			<path class="st0" d="M476.3,15.6c-0.7-0.4-1.6-0.6-2.6-0.6c-2.7,0-4.6,1.9-4.6,5.5v4.3h5.9v2.5h-5.9v22.9h-2.8V27.2h-4.1v-2.5
				h4.1v-4.6c0-4.6,3-7.7,7.1-7.7c1.1,0,2,0.2,2.9,0.5V15.6z"/>
			<path class="st0" d="M486.6,50.6c-6.7,0-11.2-5.4-11.2-13.2c0-7.8,4.5-13.2,11.2-13.2c6.7,0,11.2,5.4,11.2,13.2
				C497.8,45.2,493.3,50.6,486.6,50.6z M486.6,26.8c-5,0-8.3,4.3-8.3,10.7s3.3,10.7,8.3,10.7c5.1,0,8.4-4.3,8.4-10.7
				S491.7,26.8,486.6,26.8z"/>
			<path class="st0" d="M514,27.4c-0.7-0.3-1.4-0.5-2.3-0.5c-3.1,0-5.5,2.2-6.7,5.5v17.7h-2.9V24.8h2.9v4c1.1-2.5,3.7-4.6,6.8-4.6
				c1,0,1.7,0.2,2.2,0.3V27.4z"/>
			<path class="st0" d="M543.7,15.1l13.9,35h-2.9l-4.6-11.5h-15.5l-4.5,11.5h-2.9l13.9-35H543.7z M535.6,35.9H549l-6.7-17.1
				L535.6,35.9z"/>
			<path class="st0" d="M559.4,43.8c3.4,3,6.8,4.2,10.8,4.2c5,0,8.2-2.5,8.2-6.6c0-3.5-2-5-6.3-6.8l-5.1-2.2c-3.6-1.5-7.6-3.6-7.6-9
				c0-5.9,5-8.9,10.6-8.9c3.6,0,7.2,1.1,9.8,3v3.2c-2.7-2.3-5.8-3.5-9.7-3.5c-4.3,0-7.8,2.1-7.8,6.2c0,3.4,2.4,4.9,6.1,6.4l5.4,2.3
				c5.1,2.2,7.5,4.7,7.5,9.2c0,5.6-4.7,9.3-11.1,9.3c-4.7,0-8.6-1.5-10.8-3.5V43.8z"/>
			<path class="st0" d="M588.7,35v15.1h-2.9v-35h12.4c6.8,0,11.3,3.4,11.3,9.9c0,6.6-4.5,10-11.3,10H588.7z M598.1,17.7h-9.3v14.6
				h9.3c5.4,0,8.6-2.7,8.6-7.3C606.6,20.4,603.5,17.7,598.1,17.7z"/>
			<path class="st0" d="M607.4,45.9c1.2,0,2.2,1,2.2,2.2c0,1.2-1,2.2-2.2,2.2c-1.1,0-2.1-1-2.1-2.2
				C605.3,46.8,606.2,45.9,607.4,45.9z"/>
			<path class="st0" d="M640.8,50.1h-1.9l-21.4-30.4v30.4h-2.8v-35h2.8L638,44.3V15.1h2.8V50.1z"/>
			<path class="st0" d="M669.2,15.1v2.7h-18.9v12.9h17.1v2.7h-17.1v14h18.9v2.7h-21.7v-35H669.2z"/>
			<path class="st0" d="M672.1,15.1h28.5v2.7h-12.8v32.3h-2.9V17.8h-12.8V15.1z"/>
			<path class="st0" d="M733.7,42l-13.2-21.4v29.5h-2.9v-35h2.6l13.6,22.2l13.7-22.2h2.4v35H747V20.6L733.8,42H733.7z"/>
			<path class="st0" d="M767,50.1l-13.8-35h3l12.1,31l12.2-31h3l-13.9,35H767z"/>
			<path class="st0" d="M799.1,14.6c4.2,0,7.2,1.1,9.6,3v3.2c-2.9-2.5-5.9-3.5-9.5-3.5c-7.5,0-12.9,5.8-12.9,15.3
				s5.5,15.3,12.9,15.3c3.6,0,6.6-1,9.5-3.5v3.2c-2.3,1.9-5.4,3-9.6,3c-8.8,0-15.8-6.9-15.8-18S790.2,14.6,799.1,14.6z"/>
		</g>
		<path class="st0" d="M397.4,26.7c-2,0-3.7-1.6-3.7-3.7c0-2.2,1.7-3.7,3.7-3.7s3.7,1.6,3.7,3.7C401.1,25.2,399.4,26.7,397.4,26.7
			 M397.4,19.9c-1.7,0-3,1.3-3,3.1c0,1.8,1.3,3.1,3,3.1c1.7,0,3-1.3,3-3.1C400.4,21.2,399,19.9,397.4,19.9 M397,23.7V25h-1.1V21h1.8
			c0.9,0,1.4,0.5,1.4,1.4c0,0.6-0.3,1-0.8,1.2l0.9,1.4h-1.2l-0.8-1.2H397z M397.6,22H397v0.9h0.6c0.3,0,0.5-0.2,0.5-0.4
			C398.1,22.1,397.9,22,397.6,22"/>
	</g>
	<path class="st1" d="M48.6,41.3c0,0.6-0.4,1.3-0.9,1.6l-12.5,7.2V22.2L11,8.3l12.5-7.2c0.5-0.3,1.3-0.3,1.8,0l23.2,13.4V41.3z
		 M29.8,25.3l-16.5-9.5c-0.5-0.3-1.3-0.3-1.8,0L0.3,22.2l17.4,10.1l0,20.1L28.9,46c0.5-0.3,0.9-1,0.9-1.6V25.3z M0.3,42.3l12.1,7
		V35.4L0.3,42.3z"/>
	<g>
		<path class="st0" d="M75.1,14.5H62v35.6h5.8v-14h7.4c8,0,12.4-3.9,12.4-11C87.5,21.9,86.3,14.5,75.1,14.5 M81.6,25.3
			c0,4-2.1,5.7-7.2,5.7h-6.6V19.7h7.4C79.5,19.7,81.6,21.5,81.6,25.3 M104.9,24.1l0.4,0.2l-1,5.3l-0.7-0.2c-0.6-0.2-1.1-0.3-1.7-0.3
			c-5.4,0-5.9,4.3-5.9,9.6v11.3h-5.4V23.9h5.1v3.2c1.4-2.1,3-3.2,5.2-3.5C102.4,23.4,103.8,23.6,104.9,24.1 M118.2,23.4
			c-4.3,0-7.7,1.6-9.8,4.7c-2.3,3.2-2.6,7-2.6,9c0,8.3,4.9,13.6,12.5,13.6c9.2,0,12.5-7.4,12.5-13.8c0-3.7-1.1-7-3-9.4
			C125.4,24.8,122.1,23.4,118.2,23.4 M118.2,45.8c-4.2,0-6.9-3.4-6.9-8.8c0-5.5,2.6-8.9,6.9-8.9c4.2,0,6.9,3.4,6.9,8.8
			C125.1,42.4,122.4,45.8,118.2,45.8 M176,24.1l0.4,0.2l-1,5.3l-0.7-0.2c-0.6-0.2-1.1-0.3-1.7-0.3c-5.4,0-5.9,4.3-5.9,9.6v11.3h-5.4
			V23.9h5.1v3.2c1.4-2.1,3-3.2,5.2-3.5C173.6,23.4,175,23.6,176,24.1 M195.4,41.7l-0.1,0.3c-1.1,3.2-3.8,3.9-5.9,3.9
			c-4.1,0-6.7-2.7-7-7.1H201l0.1-0.5c0.1-0.6,0.1-1.5,0.1-2.1c0-0.2,0-0.3,0-0.5c-0.3-7.3-5-12.2-11.9-12.2c-4,0-7.3,1.6-9.5,4.5
			c-1.8,2.4-2.8,5.7-2.8,9.1c0,8.1,5,13.5,12.5,13.5c5.8,0,9.8-2.9,11.2-8.3l0.2-0.6H195.4z M182.7,34.1c0.5-3.6,2.9-5.9,6.5-5.9
			c2.7,0,5.9,1.6,6.3,5.9H182.7z M152,26.1c-1.7-1.8-4.1-2.7-6.9-2.7c-7.9,0-11.5,7-11.5,13.5c0,6.6,3.6,13.4,11.5,13.4
			c2.7,0,5-1,6.7-2.7c0,1.2,0,2.2-0.1,2.7c-0.3,4.3-2.4,6.3-6.5,6.3c-2.3,0-4.9-0.8-5.4-3.1l-0.1-0.5l-5.3,0l0.1,0.7
			c0.6,4.6,4.6,7.5,10.6,7.5c5.2,0,8.9-2,10.8-5.7c0.9-1.8,1.3-4.4,1.3-7.8V23.9H152V26.1z M145.4,45.4c-1.9,0-6.3-0.9-6.3-8.8
			c0-5.2,2.5-8.4,6.4-8.4c3.1,0,6.3,2.2,6.3,8.4C151.9,42.1,149.4,45.4,145.4,45.4 M226,42.2c0,4.2-3.5,8.4-11.2,8.4
			c-6.8,0-10.9-3-11.4-8.3l-0.1-0.6h5.3l0.1,0.4c0.7,3.2,3.7,3.9,6.2,3.9c2.7,0,5.6-0.9,5.6-3.3c0-1.2-0.8-2.1-2.4-2.6
			c-0.9-0.3-2.1-0.6-3.3-0.9c-2.1-0.6-4.3-1.2-5.6-1.7c-3.3-1.2-5.2-3.5-5.2-6.3c0-5.3,5.1-7.6,10.2-7.6c6.8,0,10.3,2.6,10.8,7.8
			l0,0.5l-5.2,0l-0.1-0.4c-0.5-3-3.5-3.5-5.3-3.5c-1.5,0-5,0.3-5,2.8c0,1.1,1,2,3,2.6c0.6,0.2,1.5,0.4,2.5,0.7
			c2.1,0.6,4.8,1.2,6.1,1.7C224.4,36.8,226,39,226,42.2 M251,42.2c0,4.2-3.5,8.4-11.2,8.4c-6.8,0-10.9-3-11.4-8.3l-0.1-0.6h5.3
			l0.1,0.4c0.7,3.2,3.7,3.9,6.2,3.9c2.7,0,5.6-0.9,5.6-3.3c0-1.2-0.8-2.1-2.4-2.6c-0.9-0.3-2.1-0.6-3.3-0.9
			c-2.1-0.6-4.3-1.2-5.6-1.7c-3.3-1.2-5.2-3.5-5.2-6.3c0-5.3,5.1-7.6,10.2-7.6c6.8,0,10.3,2.6,10.8,7.8l0,0.5l-5.2,0l-0.1-0.4
			c-0.5-3-3.5-3.5-5.3-3.5c-1.5,0-5,0.3-5,2.8c0,1.1,1,2,3,2.6c0.6,0.2,1.5,0.4,2.5,0.7c2.1,0.6,4.8,1.2,6.1,1.7
			C249.3,36.8,251,39,251,42.2"/>
		<path class="st0" d="M255.3,26.7c-2,0-3.7-1.6-3.7-3.7c0-2.2,1.7-3.7,3.7-3.7c2,0,3.7,1.6,3.7,3.7
			C258.9,25.2,257.3,26.7,255.3,26.7 M255.3,19.9c-1.7,0-3,1.3-3,3.1c0,1.8,1.3,3.1,3,3.1c1.7,0,3-1.3,3-3.1
			C258.3,21.2,256.9,19.9,255.3,19.9 M254.8,23.7V25h-1.1V21h1.8c0.9,0,1.4,0.5,1.4,1.4c0,0.6-0.3,1-0.8,1.2l0.9,1.4h-1.2l-0.8-1.2
			H254.8z M255.4,22h-0.6v0.9h0.6c0.3,0,0.5-0.2,0.5-0.4C256,22.1,255.8,22,255.4,22"/>
	</g>
</g>
</svg>
