<?xml version="1.0" encoding="utf-8"?>
<!-- Generator: Adobe Illustrator 23.0.1, SVG Export Plug-In . SVG Version: 6.00 Build 0)  -->
<svg version="1.1" id="logos" xmlns="http://www.w3.org/2000/svg" xmlns:xlink="http://www.w3.org/1999/xlink" x="0px" y="0px"
	 viewBox="0 0 288.8 61" style="enable-background:new 0 0 288.8 61;" xml:space="preserve">
<style type="text/css">
	.st0{fill:#4B4E52;}
</style>
<g>
	<g>
		<g>
			<path class="st0" d="M1.1,14.3h28.5V17H16.7v32.3h-2.9V17H1.1V14.3z"/>
			<path class="st0" d="M38.1,47.3c2.9,0,5-0.7,7.1-2.5v2.8c-1.9,1.5-4.4,2.2-7.4,2.2c-7.1,0-11.8-5-11.8-12.9
				c0-7.8,4.2-13.4,10.9-13.4c6.6,0,10,5,10,12.4v1H28.9C28.9,43.7,32.8,47.3,38.1,47.3z M29,34.5h15.3C44.1,30.1,42,26,37,26
				C32.8,26,29.7,29,29,34.5z"/>
			<path class="st0" d="M54,49.3h-2.9V12.2H54V49.3z"/>
			<path class="st0" d="M70.4,47.3c2.9,0,5-0.7,7.1-2.5v2.8c-1.9,1.5-4.4,2.2-7.4,2.2c-7.1,0-11.8-5-11.8-12.9
				c0-7.8,4.2-13.4,10.9-13.4c6.6,0,10,5,10,12.4v1H61.2C61.2,43.7,65.2,47.3,70.4,47.3z M61.3,34.5h15.3c-0.2-4.4-2.3-8.6-7.3-8.6
				C65.2,26,62,29,61.3,34.5z"/>
			<path class="st0" d="M95.4,26.6c-0.7-0.3-1.4-0.5-2.3-0.5c-3.1,0-5.5,2.2-6.7,5.5v17.7h-2.9V24h2.9v4c1.1-2.5,3.7-4.6,6.8-4.6
				c1,0,1.7,0.2,2.2,0.3V26.6z"/>
			<path class="st0" d="M99.9,18.2c-1.1,0-1.9-0.9-1.9-1.9c0-1,0.9-1.9,1.9-1.9s1.9,0.9,1.9,1.9C101.8,17.4,101,18.2,99.9,18.2z
				 M101.3,49.3h-2.9V24h2.9V49.3z"/>
			<path class="st0" d="M126.6,49.3h-3.5l-13.2-13v13H107V12.2h2.9V35L122.7,24h3.7l-13.5,11.6L126.6,49.3z"/>
			<path class="st0" d="M146.2,49.3v-35h20.3V17h-17.4v13.3h16.5v2.6h-16.5v16.4H146.2z"/>
			<path class="st0" d="M171.7,18.2c-1.1,0-1.9-0.9-1.9-1.9c0-1,0.9-1.9,1.9-1.9s1.9,0.9,1.9,1.9C173.7,17.4,172.8,18.2,171.7,18.2z
				 M173.2,49.3h-2.9V24h2.9V49.3z"/>
			<path class="st0" d="M196.2,45.5c-1.4,2.2-4.4,4.3-7.9,4.3c-7.5,0-11.1-6.2-11.1-13.2s3.6-13.2,11.1-13.2c3.5,0,6.4,2.1,7.9,4.3
				V12.2h2.8v37.1h-2.8V45.5z M196.2,31.1c-1.7-3.2-4.6-5-7.6-5c-5.3,0-8.4,4.4-8.4,10.5s3.1,10.5,8.4,10.5c3.1,0,5.9-1.8,7.6-5
				V31.1z"/>
			<path class="st0" d="M222.3,45.5c-1.4,2.2-4.4,4.3-7.9,4.3c-7.5,0-11.1-6.2-11.1-13.2s3.6-13.2,11.1-13.2c3.5,0,6.4,2.1,7.9,4.3
				V12.2h2.8v37.1h-2.8V45.5z M222.3,31.1c-1.7-3.2-4.6-5-7.6-5c-5.3,0-8.4,4.4-8.4,10.5s3.1,10.5,8.4,10.5c3.1,0,5.9-1.8,7.6-5
				V31.1z"/>
			<path class="st0" d="M233.8,49.3h-2.9V12.2h2.9V49.3z"/>
			<path class="st0" d="M250.1,47.3c2.9,0,5-0.7,7.1-2.5v2.8c-1.9,1.5-4.4,2.2-7.4,2.2c-7.1,0-11.8-5-11.8-12.9
				c0-7.8,4.2-13.4,10.9-13.4c6.6,0,10,5,10,12.4v1h-18.2C240.9,43.7,244.9,47.3,250.1,47.3z M241,34.5h15.3
				c-0.2-4.4-2.3-8.6-7.3-8.6C244.9,26,241.7,29,241,34.5z"/>
			<path class="st0" d="M275.1,26.6c-0.7-0.3-1.4-0.5-2.3-0.5c-3.1,0-5.5,2.2-6.7,5.5v17.7h-2.9V24h2.9v4c1.1-2.5,3.7-4.6,6.8-4.6
				c1,0,1.7,0.2,2.2,0.3V26.6z"/>
		</g>
		<path class="st0" d="M133.2,26c-2,0-3.7-1.6-3.7-3.7c0-2.2,1.7-3.7,3.7-3.7c2,0,3.7,1.6,3.7,3.7C136.8,24.4,135.2,26,133.2,26
			 M133.2,19.2c-1.7,0-3,1.3-3,3.1c0,1.8,1.3,3.1,3,3.1c1.7,0,3-1.3,3-3.1C136.2,20.4,134.8,19.2,133.2,19.2 M132.7,22.9v1.2h-1.1
			v-3.9h1.8c0.9,0,1.4,0.5,1.4,1.4c0,0.6-0.3,1-0.8,1.2l0.9,1.4h-1.2l-0.8-1.2H132.7z M133.3,21.2h-0.6v0.9h0.6
			c0.3,0,0.5-0.2,0.5-0.4C133.9,21.4,133.7,21.2,133.3,21.2"/>
		<path class="st0" d="M278.4,19.7h4.4v0.9h-1.6v4.2h-1.1v-4.2h-1.7V19.7z M286.2,23.7l-1.5-2.2v3.4h-1.1v-5.2h1l1.6,2.4l1.6-2.4h1
			v5.2h-1.1v-3.4l-1.4,2.2H286.2z"/>
	</g>
</g>
</svg>
