<?xml version="1.0" encoding="utf-8"?>
<!-- Generator: Adobe Illustrator 23.0.1, SVG Export Plug-In . SVG Version: 6.00 Build 0)  -->
<svg version="1.1" id="logos" xmlns="http://www.w3.org/2000/svg" xmlns:xlink="http://www.w3.org/1999/xlink" x="0px" y="0px"
	 viewBox="0 0 363.9 61" style="enable-background:new 0 0 363.9 61;" xml:space="preserve">
<style type="text/css">
	.st0{fill:#4B4E52;}
</style>
<g>
	<g>
		<g>
			<path class="st0" d="M1.1,14.4h28.5v2.7H16.8v32.3h-2.9V17.1H1.1V14.4z"/>
			<path class="st0" d="M38.2,47.4c2.9,0,5-0.7,7.1-2.5v2.8c-1.9,1.5-4.4,2.2-7.4,2.2c-7.1,0-11.8-5-11.8-12.9
				c0-7.8,4.2-13.4,10.9-13.4c6.6,0,10,5,10,12.4v1H28.9C28.9,43.8,32.9,47.4,38.2,47.4z M29.1,34.6h15.3c-0.2-4.4-2.3-8.6-7.3-8.6
				C32.9,26.1,29.7,29.2,29.1,34.6z"/>
			<path class="st0" d="M54.1,49.4h-2.9V12.3h2.9V49.4z"/>
			<path class="st0" d="M70.5,47.4c2.9,0,5-0.7,7.1-2.5v2.8c-1.9,1.5-4.4,2.2-7.4,2.2c-7.1,0-11.8-5-11.8-12.9
				c0-7.8,4.2-13.4,10.9-13.4c6.6,0,10,5,10,12.4v1H61.3C61.3,43.8,65.2,47.4,70.5,47.4z M61.4,34.6h15.3c-0.2-4.4-2.3-8.6-7.3-8.6
				C65.2,26.1,62.1,29.2,61.4,34.6z"/>
			<path class="st0" d="M95.4,26.7c-0.7-0.3-1.4-0.5-2.3-0.5c-3.1,0-5.5,2.2-6.7,5.5v17.7h-2.9V24.1h2.9v4c1.1-2.5,3.7-4.6,6.8-4.6
				c1,0,1.7,0.2,2.2,0.3V26.7z"/>
			<path class="st0" d="M100,18.3c-1.1,0-1.9-0.9-1.9-1.9c0-1,0.9-1.9,1.9-1.9s1.9,0.9,1.9,1.9C101.9,17.5,101,18.3,100,18.3z
				 M101.4,49.4h-2.9V24.1h2.9V49.4z"/>
			<path class="st0" d="M126.7,49.4h-3.5l-13.2-13v13h-2.9V12.3h2.9v22.8l12.8-11.1h3.7l-13.5,11.6L126.7,49.4z"/>
			<path class="st0" d="M145.6,35.6V14.4h2.9v20.8c0,8.2,4.4,12,10.5,12c6,0,10.5-3.8,10.5-12V14.4h2.9v21.2
				c0,9.6-5.9,14.3-13.5,14.3C151.5,49.9,145.6,45.2,145.6,35.6z"/>
			<path class="st0" d="M181.7,49.4h-2.9v-35h2.9V49.4z"/>
			<path class="st0" d="M212.2,15c-0.7-0.4-1.6-0.6-2.6-0.6c-2.7,0-4.6,1.9-4.6,5.5v4.3h5.9v2.5H205v22.9h-2.8V26.5h-4.1v-2.5h4.1
				v-4.6c0-4.6,3-7.7,7.1-7.7c1.1,0,2,0.2,2.9,0.5V15z"/>
			<path class="st0" d="M222.4,49.9c-6.7,0-11.2-5.4-11.2-13.2c0-7.8,4.5-13.2,11.2-13.2c6.7,0,11.2,5.4,11.2,13.2
				C233.7,44.5,229.2,49.9,222.4,49.9z M222.4,26.1c-5,0-8.3,4.3-8.3,10.7s3.3,10.7,8.3,10.7c5.1,0,8.4-4.3,8.4-10.7
				S227.5,26.1,222.4,26.1z"/>
			<path class="st0" d="M249.9,26.7c-0.7-0.3-1.4-0.5-2.3-0.5c-3.1,0-5.5,2.2-6.7,5.5v17.7H238V24.1h2.9v4c1.1-2.5,3.7-4.6,6.8-4.6
				c1,0,1.7,0.2,2.2,0.3V26.7z"/>
			<path class="st0" d="M265.5,35.6V14.4h2.9v20.8c0,8.2,4.4,12,10.5,12c6,0,10.5-3.8,10.5-12V14.4h2.9v21.2
				c0,9.6-5.9,14.3-13.5,14.3C271.4,49.9,265.5,45.2,265.5,35.6z"/>
			<path class="st0" d="M317,14.4l8.2,30.1l8.1-30.1h2.9l-9.5,35H324l-8.3-29.8l-8.2,29.8H305l-9.6-35h2.9l8.1,30.1l8.2-30.1H317z"
				/>
			<path class="st0" d="M342.4,34.3v15.1h-2.9v-35h12.4c6.8,0,11.3,3.4,11.3,9.9c0,6.6-4.5,10-11.3,10H342.4z M351.8,17h-9.3v14.6
				h9.3c5.4,0,8.6-2.7,8.6-7.3C360.3,19.8,357.2,17,351.8,17z"/>
		</g>
		<path class="st0" d="M133.3,26.1c-2,0-3.7-1.6-3.7-3.7c0-2.2,1.7-3.7,3.7-3.7c2,0,3.7,1.6,3.7,3.7
			C136.9,24.5,135.3,26.1,133.3,26.1 M133.3,19.2c-1.7,0-3,1.3-3,3.1c0,1.8,1.3,3.1,3,3.1c1.7,0,3-1.3,3-3.1
			C136.3,20.5,134.9,19.2,133.3,19.2 M132.8,23v1.2h-1.1v-3.9h1.8c0.9,0,1.4,0.5,1.4,1.4c0,0.6-0.3,1-0.8,1.2l0.9,1.4h-1.2l-0.8-1.2
			H132.8z M133.4,21.3h-0.6v0.9h0.6c0.3,0,0.5-0.2,0.5-0.4C133.9,21.5,133.8,21.3,133.4,21.3"/>
	</g>
</g>
</svg>
