<?xml version="1.0" encoding="utf-8"?>
<!-- Generator: Adobe Illustrator 22.1.0, SVG Export Plug-In . SVG Version: 6.00 Build 0)  -->
<svg version="1.1" id="logos" xmlns="http://www.w3.org/2000/svg" xmlns:xlink="http://www.w3.org/1999/xlink" x="0px" y="0px"
	 viewBox="0 0 711 61" style="enable-background:new 0 0 711 61;" xml:space="preserve">
<style type="text/css">
	.st0{fill:#4B4E52;}
	.st1{fill:#5CE500;}
</style>
<g>
	<g>
		<g>
			<path class="st0" d="M265.3,14.3h28.5V17H281v32.3H278V17h-12.8V14.3z"/>
			<path class="st0" d="M302.3,47.3c2.9,0,5-0.7,7.1-2.5v2.8c-1.9,1.5-4.4,2.2-7.4,2.2c-7.1,0-11.8-5-11.8-12.9
				c0-7.8,4.2-13.4,10.9-13.4c6.6,0,10,5,10,12.4v1h-18.2C293.1,43.8,297.1,47.3,302.3,47.3z M293.2,34.6h15.3
				c-0.2-4.4-2.3-8.6-7.3-8.6C297.1,26,293.9,29.1,293.2,34.6z"/>
			<path class="st0" d="M318.3,49.3h-2.9V12.3h2.9V49.3z"/>
			<path class="st0" d="M334.6,47.3c2.9,0,5-0.7,7.1-2.5v2.8c-1.9,1.5-4.4,2.2-7.4,2.2c-7.1,0-11.8-5-11.8-12.9
				c0-7.8,4.2-13.4,10.9-13.4c6.6,0,10,5,10,12.4v1h-18.2C325.4,43.8,329.4,47.3,334.6,47.3z M325.5,34.6h15.3
				c-0.2-4.4-2.3-8.6-7.3-8.6C329.4,26,326.2,29.1,325.5,34.6z"/>
			<path class="st0" d="M359.6,26.7c-0.7-0.3-1.4-0.5-2.3-0.5c-3.1,0-5.5,2.2-6.7,5.5v17.7h-2.9V24h2.9v4c1.1-2.5,3.7-4.6,6.8-4.6
				c1,0,1.7,0.2,2.2,0.3V26.7z"/>
			<path class="st0" d="M364.1,18.3c-1.1,0-1.9-0.9-1.9-1.9c0-1,0.9-1.9,1.9-1.9s1.9,0.9,1.9,1.9C366,17.4,365.2,18.3,364.1,18.3z
				 M365.5,49.3h-2.9V24h2.9V49.3z"/>
			<path class="st0" d="M390.8,49.3h-3.5l-13.2-13v13h-2.9V12.3h2.9v22.8L386.9,24h3.7l-13.5,11.6L390.8,49.3z"/>
			<path class="st0" d="M409.7,35.5V14.3h2.9v20.8c0,8.2,4.4,12,10.5,12c6,0,10.5-3.8,10.5-12V14.3h2.9v21.2
				c0,9.6-5.9,14.3-13.5,14.3C415.6,49.9,409.7,45.2,409.7,35.5z"/>
			<path class="st0" d="M445.8,49.3h-2.9v-35h2.9V49.3z"/>
			<path class="st0" d="M476.3,14.9c-0.7-0.4-1.6-0.6-2.6-0.6c-2.7,0-4.6,1.9-4.6,5.5V24h5.9v2.5h-5.9v22.9h-2.8V26.5h-4.1V24h4.1
				v-4.6c0-4.6,3-7.7,7.1-7.7c1.1,0,2,0.2,2.9,0.5V14.9z"/>
			<path class="st0" d="M486.6,49.9c-6.7,0-11.2-5.4-11.2-13.2c0-7.8,4.5-13.2,11.2-13.2c6.7,0,11.2,5.4,11.2,13.2
				C497.8,44.5,493.3,49.9,486.6,49.9z M486.6,26c-5,0-8.3,4.3-8.3,10.7s3.3,10.7,8.3,10.7c5.1,0,8.4-4.3,8.4-10.7
				S491.7,26,486.6,26z"/>
			<path class="st0" d="M514,26.7c-0.7-0.3-1.4-0.5-2.3-0.5c-3.1,0-5.5,2.2-6.7,5.5v17.7h-2.9V24h2.9v4c1.1-2.5,3.7-4.6,6.8-4.6
				c1,0,1.7,0.2,2.2,0.3V26.7z"/>
			<path class="st0" d="M528.1,43c3.4,3,6.8,4.2,10.8,4.2c5,0,8.2-2.5,8.2-6.6c0-3.5-2-5-6.3-6.8l-5.1-2.2c-3.6-1.5-7.6-3.6-7.6-9
				c0-5.9,5-8.9,10.6-8.9c3.6,0,7.2,1.1,9.8,3V20c-2.7-2.3-5.8-3.5-9.7-3.5c-4.3,0-7.8,2.1-7.8,6.2c0,3.4,2.4,4.9,6.1,6.4l5.4,2.3
				c5.1,2.2,7.5,4.7,7.5,9.2c0,5.6-4.7,9.3-11.1,9.3c-4.7,0-8.6-1.5-10.8-3.5V43z"/>
			<path class="st0" d="M555.3,18.3c-1.1,0-1.9-0.9-1.9-1.9c0-1,0.9-1.9,1.9-1.9s1.9,0.9,1.9,1.9C557.3,17.4,556.4,18.3,555.3,18.3z
				 M556.8,49.3h-2.9V24h2.9V49.3z"/>
			<path class="st0" d="M565.4,49.3h-2.9V12.3h2.9V49.3z"/>
			<path class="st0" d="M578.4,49.3L568.3,24h3l8.3,21.4L588,24h2.9l-10,25.3H578.4z"/>
			<path class="st0" d="M603.4,47.3c2.9,0,5-0.7,7.1-2.5v2.8c-1.9,1.5-4.4,2.2-7.4,2.2c-7.1,0-11.8-5-11.8-12.9
				c0-7.8,4.2-13.4,10.9-13.4c6.6,0,10,5,10,12.4v1h-18.2C594.2,43.8,598.2,47.3,603.4,47.3z M594.3,34.6h15.3
				c-0.2-4.4-2.3-8.6-7.3-8.6C598.2,26,595,29.1,594.3,34.6z"/>
			<path class="st0" d="M628.4,26.7c-0.7-0.3-1.4-0.5-2.3-0.5c-3.1,0-5.5,2.2-6.7,5.5v17.7h-2.9V24h2.9v4c1.1-2.5,3.7-4.6,6.8-4.6
				c1,0,1.7,0.2,2.2,0.3V26.7z"/>
			<path class="st0" d="M634.3,49.3h-2.9V12.3h2.9V49.3z"/>
			<path class="st0" d="M641.5,18.3c-1.1,0-1.9-0.9-1.9-1.9c0-1,0.9-1.9,1.9-1.9s1.9,0.9,1.9,1.9C643.4,17.4,642.6,18.3,641.5,18.3z
				 M642.9,49.3h-2.9V24h2.9V49.3z"/>
			<path class="st0" d="M665.8,45.1c-1.4,2.1-4.3,4.2-7.8,4.2c-7.4,0-10.9-6.1-10.9-12.9c0-6.8,3.5-12.9,10.9-12.9
				c3.5,0,6.4,2.1,7.8,4.2V24h2.8v23.5c0,8.4-5.6,12-11.6,12c-3.2,0-6-1-7.9-2.4v-3.2c2.5,2.3,5.2,3.1,7.9,3.1c5,0,8.8-3,8.8-9.3
				V45.1z M665.8,31c-1.7-3.1-4.5-4.9-7.5-4.9c-5.2,0-8.3,4.3-8.3,10.3c0,6,3.1,10.3,8.3,10.3c3,0,5.9-1.8,7.5-4.9V31z"/>
			<path class="st0" d="M674.4,12.3h2.9v15.8c1.5-2.4,4.5-4.6,8.1-4.6c5.8,0,8.8,3.7,8.8,9.1v16.8h-2.8V33c0-3.9-2-6.8-6.5-6.8
				c-3.5,0-6.3,2.5-7.6,5.5v17.7h-2.9V12.3z"/>
			<path class="st0" d="M704.6,49.3h-2.9V26.5h-5.4V24h5.4v-6.5h2.9V24h6v2.5h-6V49.3z"/>
		</g>
		<path class="st0" d="M397.4,26c-2,0-3.7-1.6-3.7-3.7c0-2.2,1.7-3.7,3.7-3.7s3.7,1.6,3.7,3.7C401.1,24.4,399.4,26,397.4,26
			 M397.4,19.2c-1.7,0-3,1.3-3,3.1c0,1.8,1.3,3.1,3,3.1c1.7,0,3-1.3,3-3.1C400.4,20.5,399,19.2,397.4,19.2 M397,23v1.2h-1.1v-3.9
			h1.8c0.9,0,1.4,0.5,1.4,1.4c0,0.6-0.3,1-0.8,1.2l0.9,1.4h-1.2l-0.8-1.2H397z M397.6,21.2H397v0.9h0.6c0.3,0,0.5-0.2,0.5-0.4
			C398.1,21.4,397.9,21.2,397.6,21.2"/>
	</g>
	<path class="st1" d="M48.6,40.6c0,0.6-0.4,1.3-0.9,1.6l-12.5,7.2V21.5L11,7.6l12.5-7.2c0.5-0.3,1.3-0.3,1.8,0l23.2,13.4V40.6z
		 M29.8,24.6L13.3,15c-0.5-0.3-1.3-0.3-1.8,0L0.3,21.5l17.4,10.1l0,20.1l11.2-6.4c0.5-0.3,0.9-1,0.9-1.6V24.6z M0.3,41.6l12.1,7
		V34.6L0.3,41.6z"/>
	<g>
		<path class="st0" d="M75.1,13.7H62v35.6h5.8v-14h7.4c8,0,12.4-3.9,12.4-11C87.5,21.2,86.3,13.7,75.1,13.7 M81.6,24.5
			c0,4-2.1,5.7-7.2,5.7h-6.6V19h7.4C79.5,19,81.6,20.8,81.6,24.5 M104.9,23.4l0.4,0.2l-1,5.3l-0.7-0.2c-0.6-0.2-1.1-0.3-1.7-0.3
			c-5.4,0-5.9,4.3-5.9,9.6v11.3h-5.4V23.2h5.1v3.2c1.4-2.1,3-3.2,5.2-3.5C102.4,22.7,103.8,22.9,104.9,23.4 M118.2,22.7
			c-4.3,0-7.7,1.6-9.8,4.7c-2.3,3.2-2.6,7-2.6,9c0,8.3,4.9,13.6,12.5,13.6c9.2,0,12.5-7.4,12.5-13.8c0-3.7-1.1-7-3-9.4
			C125.4,24.1,122.1,22.7,118.2,22.7 M118.2,45.1c-4.2,0-6.9-3.4-6.9-8.8c0-5.5,2.6-8.9,6.9-8.9c4.2,0,6.9,3.4,6.9,8.8
			C125.1,41.7,122.4,45.1,118.2,45.1 M176,23.4l0.4,0.2l-1,5.3l-0.7-0.2c-0.6-0.2-1.1-0.3-1.7-0.3c-5.4,0-5.9,4.3-5.9,9.6v11.3h-5.4
			V23.2h5.1v3.2c1.4-2.1,3-3.2,5.2-3.5C173.6,22.7,175,22.9,176,23.4 M195.4,41l-0.1,0.3c-1.1,3.2-3.8,3.9-5.9,3.9
			c-4.1,0-6.7-2.7-7-7.1H201l0.1-0.5c0.1-0.6,0.1-1.5,0.1-2.1c0-0.2,0-0.3,0-0.5c-0.3-7.3-5-12.2-11.9-12.2c-4,0-7.3,1.6-9.5,4.5
			c-1.8,2.4-2.8,5.7-2.8,9.1c0,8.1,5,13.5,12.5,13.5c5.8,0,9.8-2.9,11.2-8.3l0.2-0.6H195.4z M182.7,33.3c0.5-3.6,2.9-5.9,6.5-5.9
			c2.7,0,5.9,1.6,6.3,5.9H182.7z M152,25.4c-1.7-1.8-4.1-2.7-6.9-2.7c-7.9,0-11.5,7-11.5,13.5c0,6.6,3.6,13.4,11.5,13.4
			c2.7,0,5-1,6.7-2.7c0,1.2,0,2.2-0.1,2.7c-0.3,4.3-2.4,6.3-6.5,6.3c-2.3,0-4.9-0.8-5.4-3.1l-0.1-0.5l-5.3,0l0.1,0.7
			c0.6,4.6,4.6,7.5,10.6,7.5c5.2,0,8.9-2,10.8-5.7c0.9-1.8,1.3-4.4,1.3-7.8V23.2H152V25.4z M145.4,44.7c-1.9,0-6.3-0.9-6.3-8.8
			c0-5.2,2.5-8.4,6.4-8.4c3.1,0,6.3,2.2,6.3,8.4C151.9,41.4,149.4,44.7,145.4,44.7 M226,41.5c0,4.2-3.5,8.4-11.2,8.4
			c-6.8,0-10.9-3-11.4-8.3l-0.1-0.6h5.3l0.1,0.4c0.7,3.2,3.7,3.9,6.2,3.9c2.7,0,5.6-0.9,5.6-3.3c0-1.2-0.8-2.1-2.4-2.6
			c-0.9-0.3-2.1-0.6-3.3-0.9c-2.1-0.6-4.3-1.2-5.6-1.7c-3.3-1.2-5.2-3.5-5.2-6.3c0-5.3,5.1-7.6,10.2-7.6c6.8,0,10.3,2.6,10.8,7.8
			l0,0.5l-5.2,0l-0.1-0.4c-0.5-3-3.5-3.5-5.3-3.5c-1.5,0-5,0.3-5,2.8c0,1.1,1,2,3,2.6c0.6,0.2,1.5,0.4,2.5,0.7
			c2.1,0.6,4.8,1.2,6.1,1.7C224.4,36.1,226,38.3,226,41.5 M251,41.5c0,4.2-3.5,8.4-11.2,8.4c-6.8,0-10.9-3-11.4-8.3l-0.1-0.6h5.3
			l0.1,0.4c0.7,3.2,3.7,3.9,6.2,3.9c2.7,0,5.6-0.9,5.6-3.3c0-1.2-0.8-2.1-2.4-2.6c-0.9-0.3-2.1-0.6-3.3-0.9
			c-2.1-0.6-4.3-1.2-5.6-1.7c-3.3-1.2-5.2-3.5-5.2-6.3c0-5.3,5.1-7.6,10.2-7.6c6.8,0,10.3,2.6,10.8,7.8l0,0.5l-5.2,0l-0.1-0.4
			c-0.5-3-3.5-3.5-5.3-3.5c-1.5,0-5,0.3-5,2.8c0,1.1,1,2,3,2.6c0.6,0.2,1.5,0.4,2.5,0.7c2.1,0.6,4.8,1.2,6.1,1.7
			C249.3,36.1,251,38.3,251,41.5"/>
		<path class="st0" d="M255.3,26c-2,0-3.7-1.6-3.7-3.7c0-2.2,1.7-3.7,3.7-3.7c2,0,3.7,1.6,3.7,3.7C258.9,24.4,257.3,26,255.3,26
			 M255.3,19.2c-1.7,0-3,1.3-3,3.1c0,1.8,1.3,3.1,3,3.1c1.7,0,3-1.3,3-3.1C258.3,20.5,256.9,19.2,255.3,19.2 M254.8,23v1.2h-1.1
			v-3.9h1.8c0.9,0,1.4,0.5,1.4,1.4c0,0.6-0.3,1-0.8,1.2l0.9,1.4h-1.2l-0.8-1.2H254.8z M255.4,21.2h-0.6v0.9h0.6
			c0.3,0,0.5-0.2,0.5-0.4C256,21.4,255.8,21.2,255.4,21.2"/>
	</g>
</g>
</svg>
