<svg xmlns="http://www.w3.org/2000/svg" xmlns:xlink="http://www.w3.org/1999/xlink" viewBox="0 0 555 60">
  <defs>
    <style>
      .cls-1 {
        clip-path: url(#clip-Fiddler_Logo_-_b_);
      }

      .cls-2 {
        fill: #4b4e52;
      }

      .cls-3 {
        fill: #5ce500;
      }
    </style>
    <clipPath id="clip-Fiddler_Logo_-_b_">
      <rect width="555" height="60"/>
    </clipPath>
  </defs>
  <g id="Fiddler_Logo_-_b_" data-name="Fiddler Logo - b " class="cls-1">
    <g id="Group_5" data-name="Group 5" transform="translate(0 0.025)">
      <g id="Group_4" data-name="Group 4">
        <g id="Group_2" data-name="Group 2">
          <g id="Group_1" data-name="Group 1">
            <path id="Path_1" data-name="Path 1" class="cls-2" d="M265,14.2h28.5v2.7H280.7V49.2h-2.9V16.9H265Z"/>
            <path id="Path_2" data-name="Path 2" class="cls-2" d="M302,47.2a9.985,9.985,0,0,0,7.1-2.5v2.8a11.633,11.633,0,0,1-7.4,2.2c-7.1,0-11.8-5-11.8-12.9,0-7.8,4.2-13.4,10.9-13.4,6.6,0,10,5,10,12.4v1H292.6C292.8,43.6,296.8,47.2,302,47.2Zm-9.1-12.8h15.3c-.2-4.4-2.3-8.6-7.3-8.6C296.8,25.9,293.6,29,292.9,34.4Z"/>
            <path id="Path_3" data-name="Path 3" class="cls-2" d="M318,49.2h-2.9V12.1H318Z"/>
            <path id="Path_4" data-name="Path 4" class="cls-2" d="M334.3,47.2a9.985,9.985,0,0,0,7.1-2.5v2.8a11.633,11.633,0,0,1-7.4,2.2c-7.1,0-11.8-5-11.8-12.9,0-7.8,4.2-13.4,10.9-13.4,6.6,0,10,5,10,12.4v1H324.9C325.1,43.6,329.1,47.2,334.3,47.2Zm-9.1-12.8h15.3c-.2-4.4-2.3-8.6-7.3-8.6C329.1,25.9,325.9,29,325.2,34.4Z"/>
            <path id="Path_5" data-name="Path 5" class="cls-2" d="M359.3,26.5A5.555,5.555,0,0,0,357,26c-3.1,0-5.5,2.2-6.7,5.5V49.2h-2.9V23.9h2.9v4a7.635,7.635,0,0,1,6.8-4.6,9.633,9.633,0,0,1,2.2.3Z"/>
            <path id="Path_6" data-name="Path 6" class="cls-2" d="M363.8,18.1a1.9,1.9,0,0,1-1.9-1.9,1.9,1.9,0,1,1,3.8,0A1.839,1.839,0,0,1,363.8,18.1Zm1.4,31.1h-2.9V23.9h2.9Z"/>
            <path id="Path_7" data-name="Path 7" class="cls-2" d="M390.5,49.2H387l-13.2-13v13h-2.9V12.1h2.9V34.9l12.8-11.1h3.7L376.8,35.4Z"/>
            <path id="Path_8" data-name="Path 8" class="cls-2" d="M410.1,49.2v-35h20.3v2.7H413V30.2h16.5v2.6H413V49.2h-2.9Z"/>
            <path id="Path_9" data-name="Path 9" class="cls-2" d="M435.7,18.1a1.9,1.9,0,0,1-1.9-1.9,1.9,1.9,0,1,1,3.8,0A1.9,1.9,0,0,1,435.7,18.1Zm1.4,31.1h-2.9V23.9h2.9Z"/>
            <path id="Path_10" data-name="Path 10" class="cls-2" d="M460.2,45.4a9.7,9.7,0,0,1-7.9,4.3c-7.5,0-11.1-6.2-11.1-13.2s3.6-13.2,11.1-13.2a9.849,9.849,0,0,1,7.9,4.3V12.1H463V49.2h-2.8Zm0-14.4a8.757,8.757,0,0,0-7.6-5c-5.3,0-8.4,4.4-8.4,10.5S447.3,47,452.6,47c3.1,0,5.9-1.8,7.6-5Z"/>
            <path id="Path_11" data-name="Path 11" class="cls-2" d="M486.2,45.4a9.7,9.7,0,0,1-7.9,4.3c-7.5,0-11.1-6.2-11.1-13.2s3.6-13.2,11.1-13.2a9.849,9.849,0,0,1,7.9,4.3V12.1H489V49.2h-2.8Zm0-14.4a8.757,8.757,0,0,0-7.6-5c-5.3,0-8.4,4.4-8.4,10.5S473.3,47,478.6,47c3.1,0,5.9-1.8,7.6-5Z"/>
            <path id="Path_12" data-name="Path 12" class="cls-2" d="M497.7,49.2h-2.9V12.1h2.9Z"/>
            <path id="Path_13" data-name="Path 13" class="cls-2" d="M514,47.2a9.985,9.985,0,0,0,7.1-2.5v2.8a11.633,11.633,0,0,1-7.4,2.2c-7.1,0-11.8-5-11.8-12.9,0-7.8,4.2-13.4,10.9-13.4,6.6,0,10,5,10,12.4v1H504.6C504.8,43.6,508.8,47.2,514,47.2Zm-9.1-12.8h15.3c-.2-4.4-2.3-8.6-7.3-8.6C508.8,25.9,505.6,29,504.9,34.4Z"/>
            <path id="Path_14" data-name="Path 14" class="cls-2" d="M539,26.5a5.556,5.556,0,0,0-2.3-.5c-3.1,0-5.5,2.2-6.7,5.5V49.2h-2.9V23.9H530v4a7.635,7.635,0,0,1,6.8-4.6,9.633,9.633,0,0,1,2.2.3Z"/>
          </g>
          <path id="Path_15" data-name="Path 15" class="cls-2" d="M397.1,25.9a3.691,3.691,0,0,1-3.7-3.7,3.629,3.629,0,0,1,3.7-3.7,3.7,3.7,0,1,1,0,7.4m0-6.8a2.971,2.971,0,0,0-3,3.1,3,3,0,1,0,6,0,3.032,3.032,0,0,0-3-3.1m-.5,3.8v1.2h-1.1V20.2h1.8a1.265,1.265,0,0,1,1.4,1.4,1.206,1.206,0,0,1-.8,1.2l.9,1.4h-1.2l-.8-1.2h-.2Zm.7-1.8h-.6V22h.6a.458.458,0,0,0,.5-.4.472.472,0,0,0-.5-.5"/>
          <path id="Path_16" data-name="Path 16" class="cls-2" d="M542.3,19.6h4.4v.9h-1.6v4.2H544V20.5h-1.7Zm7.8,4-1.5-2.2v3.4h-1.1V19.6h1l1.6,2.4,1.6-2.4h1v5.2h-1.1V21.4l-1.4,2.2Z"/>
        </g>
        <path id="Path_17" data-name="Path 17" class="cls-3" d="M48.3,40.4a2.036,2.036,0,0,1-.9,1.6L34.9,49.2V21.4L10.7,7.4,23.2.2A1.912,1.912,0,0,1,25,.2L48.2,13.6V40.4ZM29.5,24.5,13,14.9a1.912,1.912,0,0,0-1.8,0L0,21.4,17.4,31.5V51.6l11.2-6.4a2.036,2.036,0,0,0,.9-1.6V24.5ZM0,41.5l12.1,7v-14Z"/>
        <g id="Group_3" data-name="Group 3">
          <path id="Path_18" data-name="Path 18" class="cls-2" d="M74.8,13.6H61.7V49.2h5.8v-14h7.4c8,0,12.4-3.9,12.4-11-.1-3.1-1.3-10.6-12.5-10.6m6.5,10.8c0,4-2.1,5.7-7.2,5.7H67.5V18.9h7.4c4.3,0,6.4,1.8,6.4,5.5m23.3-1.1.4.2-1,5.3-.7-.2a5.079,5.079,0,0,0-1.7-.3c-5.4,0-5.9,4.3-5.9,9.6V49.2H90.3V23.1h5.1v3.2a7.1,7.1,0,0,1,5.2-3.5,7.4,7.4,0,0,1,4,.5m13.2-.7c-4.3,0-7.7,1.6-9.8,4.7a15.634,15.634,0,0,0-2.6,9c0,8.3,4.9,13.6,12.5,13.6,9.2,0,12.5-7.4,12.5-13.8a14.563,14.563,0,0,0-3.1-9.4,11.76,11.76,0,0,0-9.5-4.1m0,22.4c-4.2,0-6.9-3.4-6.9-8.8,0-5.5,2.6-8.9,6.9-8.9,4.2,0,6.9,3.4,6.9,8.8.1,5.5-2.6,8.9-6.9,8.9m57.9-21.7.4.2-1,5.3-.7-.2a5.079,5.079,0,0,0-1.7-.3c-5.4,0-5.9,4.3-5.9,9.6V49.2h-5.4V23.1h5.1v3.2a7.365,7.365,0,0,1,9.2-3m19.4,17.5-.1.3c-1.1,3.2-3.8,3.9-5.9,3.9-4.1,0-6.7-2.7-7-7.1h18.5l.1-.5a14.768,14.768,0,0,0,.1-2.1v-.5c-.3-7.3-5-12.2-11.9-12.2a11.489,11.489,0,0,0-9.5,4.5,15.361,15.361,0,0,0-2.8,9.1c0,8.1,5,13.5,12.5,13.5,5.8,0,9.8-2.9,11.2-8.3l.2-.6h-5.4Zm-12.7-7.6c.5-3.6,2.9-5.9,6.5-5.9a6.11,6.11,0,0,1,6.3,5.9Zm-30.7-7.9a9.189,9.189,0,0,0-6.9-2.7c-7.9,0-11.5,7-11.5,13.5,0,6.6,3.6,13.4,11.5,13.4a9.275,9.275,0,0,0,6.7-2.7,18.64,18.64,0,0,1-.1,2.7c-.3,4.3-2.4,6.3-6.5,6.3-2.3,0-4.9-.8-5.4-3.1l-.1-.5h-5.3l.1.7c.6,4.6,4.6,7.5,10.6,7.5,5.2,0,8.9-2,10.8-5.7.9-1.8,1.3-4.4,1.3-7.8V23.1h-5.1v2.2Zm-6.6,19.2c-1.9,0-6.3-.9-6.3-8.8,0-5.2,2.5-8.4,6.4-8.4,3.1,0,6.3,2.2,6.3,8.4,0,5.6-2.4,8.8-6.4,8.8m80.6-3.1c0,4.2-3.5,8.4-11.2,8.4-6.8,0-10.9-3-11.4-8.3l-.1-.6h5.3l.1.4c.7,3.2,3.7,3.9,6.2,3.9,2.7,0,5.6-.9,5.6-3.3,0-1.2-.8-2.1-2.4-2.6-.9-.3-2.1-.6-3.3-.9-2.1-.6-4.3-1.2-5.6-1.7-3.3-1.2-5.2-3.5-5.2-6.3,0-5.3,5.1-7.6,10.2-7.6,6.8,0,10.3,2.6,10.8,7.8v.5h-5.2l-.1-.4c-.5-3-3.5-3.5-5.3-3.5-1.5,0-5,.3-5,2.8,0,1.1,1,2,3,2.6.6.2,1.5.4,2.5.7,2.1.6,4.8,1.2,6.1,1.7,3.3,1,5,3.2,5,6.4m25,0c0,4.2-3.5,8.4-11.2,8.4-6.8,0-10.9-3-11.4-8.3l-.1-.6h5.3l.1.4c.7,3.2,3.7,3.9,6.2,3.9,2.7,0,5.6-.9,5.6-3.3,0-1.2-.8-2.1-2.4-2.6-.9-.3-2.1-.6-3.3-.9-2.1-.6-4.3-1.2-5.6-1.7-3.3-1.2-5.2-3.5-5.2-6.3,0-5.3,5.1-7.6,10.2-7.6,6.8,0,10.3,2.6,10.8,7.8v.5h-5.2l-.1-.4c-.5-3-3.5-3.5-5.3-3.5-1.5,0-5,.3-5,2.8,0,1.1,1,2,3,2.6.6.2,1.5.4,2.5.7,2.1.6,4.8,1.2,6.1,1.7,3.3,1,5,3.2,5,6.4"/>
          <path id="Path_19" data-name="Path 19" class="cls-2" d="M255,25.9a3.691,3.691,0,0,1-3.7-3.7,3.629,3.629,0,0,1,3.7-3.7,3.691,3.691,0,0,1,3.7,3.7,3.756,3.756,0,0,1-3.7,3.7m0-6.8a2.971,2.971,0,0,0-3,3.1,3,3,0,1,0,6,0,3.032,3.032,0,0,0-3-3.1m-.5,3.8v1.2h-1.1V20.2h1.8a1.265,1.265,0,0,1,1.4,1.4,1.206,1.206,0,0,1-.8,1.2l.9,1.4h-1.2l-.8-1.2h-.2Zm.6-1.8h-.6V22h.6a.458.458,0,0,0,.5-.4c.1-.3-.1-.5-.5-.5"/>
        </g>
      </g>
    </g>
  </g>
</svg>
