<?xml version="1.0" encoding="utf-8"?>
<!-- Generator: Adobe Illustrator 22.1.0, SVG Export Plug-In . SVG Version: 6.00 Build 0)  -->
<svg version="1.1" id="logos" xmlns="http://www.w3.org/2000/svg" xmlns:xlink="http://www.w3.org/1999/xlink" x="0px" y="0px"
	 viewBox="0 0 568.7 61" style="enable-background:new 0 0 568.7 61;" xml:space="preserve">
<style type="text/css">
	.st0{fill:#4B4E52;}
</style>
<g>
	<g>
		<g>
			<path class="st0" d="M1.9,14.4h28.5v2.7H17.6v32.3h-2.9V17.1H1.9V14.4z"/>
			<path class="st0" d="M39,47.4c2.9,0,5-0.7,7.1-2.5v2.8c-1.9,1.5-4.4,2.2-7.4,2.2c-7.1,0-11.8-5-11.8-12.9
				c0-7.8,4.2-13.4,10.9-13.4c6.6,0,10,5,10,12.4v1H29.7C29.7,43.8,33.7,47.4,39,47.4z M29.9,34.7h15.3c-0.2-4.4-2.3-8.6-7.3-8.6
				C33.7,26.1,30.5,29.2,29.9,34.7z"/>
			<path class="st0" d="M54.9,49.4h-2.9V12.4h2.9V49.4z"/>
			<path class="st0" d="M71.3,47.4c2.9,0,5-0.7,7.1-2.5v2.8c-1.9,1.5-4.4,2.2-7.4,2.2c-7.1,0-11.8-5-11.8-12.9
				c0-7.8,4.2-13.4,10.9-13.4c6.6,0,10,5,10,12.4v1H62.1C62.1,43.8,66,47.4,71.3,47.4z M62.2,34.7h15.3c-0.2-4.4-2.3-8.6-7.3-8.6
				C66,26.1,62.8,29.2,62.2,34.7z"/>
			<path class="st0" d="M96.2,26.7c-0.7-0.3-1.4-0.5-2.3-0.5c-3.1,0-5.5,2.2-6.7,5.5v17.7h-2.9V24.1h2.9v4c1.1-2.5,3.7-4.6,6.8-4.6
				c1,0,1.7,0.2,2.2,0.3V26.7z"/>
			<path class="st0" d="M100.8,18.4c-1.1,0-1.9-0.9-1.9-1.9c0-1,0.9-1.9,1.9-1.9s1.9,0.9,1.9,1.9C102.7,17.5,101.8,18.4,100.8,18.4z
				 M102.2,49.4h-2.9V24.1h2.9V49.4z"/>
			<path class="st0" d="M127.5,49.4h-3.5l-13.2-13v13h-2.9V12.4h2.9v22.8l12.8-11.1h3.7l-13.5,11.6L127.5,49.4z"/>
			<path class="st0" d="M147.1,14.4h10.7c10.1,0,17,6.8,17,17.5s-6.8,17.5-17,17.5h-10.7V14.4z M157.7,46.7c8.6,0,14-5.9,14-14.8
				s-5.4-14.8-14-14.8H150v29.6H157.7z"/>
			<path class="st0" d="M188.8,49.9c-6.7,0-11.2-5.4-11.2-13.2c0-7.8,4.5-13.2,11.2-13.2c6.7,0,11.2,5.4,11.2,13.2
				C200,44.6,195.5,49.9,188.8,49.9z M188.8,26.1c-5,0-8.3,4.3-8.3,10.7s3.3,10.7,8.3,10.7c5.1,0,8.4-4.3,8.4-10.7
				S193.8,26.1,188.8,26.1z"/>
			<path class="st0" d="M214.6,23.6c2.5,0,5,0.7,6.7,2.2v2.9c-2-1.8-4.1-2.6-6.6-2.6c-5,0-9.1,3.9-9.1,10.6s4,10.6,9.1,10.6
				c2.5,0,4.6-0.7,6.6-2.6v2.9c-1.8,1.5-4.3,2.2-6.7,2.2c-6.8,0-11.8-5.2-11.8-13.2C202.8,28.8,207.8,23.6,214.6,23.6z"/>
			<path class="st0" d="M244.3,49.4h-2.8v-4c-1.5,2.4-4.4,4.6-8,4.6c-5.8,0-8.8-3.7-8.8-9.1V24.1h2.8v16.4c0,3.9,2,6.8,6.5,6.8
				c3.5,0,6.3-2.5,7.5-5.5V24.1h2.8V49.4z"/>
			<path class="st0" d="M275.2,23.6c5.1,0,7.7,3.6,7.7,8.7v17.1h-2.8V32.7c0-3.9-1.7-6.5-5.4-6.5c-3.1,0-5.7,2.3-6.7,5.3v17.9h-2.9
				V32.7c0-3.9-1.7-6.5-5.4-6.5c-3.1,0-5.7,2.3-6.7,5.3v17.9h-2.9V24.1h2.9V28c1.3-2.4,3.9-4.4,7.3-4.4c3.6,0,6,2,7.1,4.8
				C268.7,25.9,271.6,23.6,275.2,23.6z"/>
			<path class="st0" d="M299.1,47.4c2.9,0,5-0.7,7.1-2.5v2.8c-1.9,1.5-4.4,2.2-7.4,2.2c-7.1,0-11.8-5-11.8-12.9
				c0-7.8,4.2-13.4,10.9-13.4c6.6,0,10,5,10,12.4v1h-18.2C289.9,43.8,293.9,47.4,299.1,47.4z M290,34.7h15.3
				c-0.2-4.4-2.3-8.6-7.3-8.6C293.9,26.1,290.7,29.2,290,34.7z"/>
			<path class="st0" d="M312.1,24.1h2.9v4c1.5-2.4,4.5-4.6,8.1-4.6c5.8,0,8.8,3.7,8.8,9.1v16.8h-2.8V33.1c0-3.9-2-6.8-6.5-6.8
				c-3.5,0-6.3,2.5-7.6,5.5v17.7h-2.9V24.1z"/>
			<path class="st0" d="M342.4,49.4h-2.9V26.6h-5.4v-2.5h5.4v-6.5h2.9v6.5h6v2.5h-6V49.4z"/>
			<path class="st0" d="M367.7,34.3v15.1h-2.9v-35h12.4c6.8,0,11.3,3.4,11.3,9.9c0,6.6-4.5,10-11.3,10H367.7z M377,17h-9.3v14.6h9.3
				c5.4,0,8.6-2.7,8.6-7.3C385.5,19.8,382.4,17,377,17z"/>
			<path class="st0" d="M403.8,26.7c-0.7-0.3-1.4-0.5-2.3-0.5c-3.1,0-5.5,2.2-6.7,5.5v17.7h-2.9V24.1h2.9v4c1.1-2.5,3.7-4.6,6.8-4.6
				c1,0,1.7,0.2,2.2,0.3V26.7z"/>
			<path class="st0" d="M415.6,49.9c-6.7,0-11.2-5.4-11.2-13.2c0-7.8,4.5-13.2,11.2-13.2c6.7,0,11.2,5.4,11.2,13.2
				C426.8,44.6,422.3,49.9,415.6,49.9z M415.6,26.1c-5,0-8.3,4.3-8.3,10.7s3.3,10.7,8.3,10.7c5.1,0,8.4-4.3,8.4-10.7
				S420.7,26.1,415.6,26.1z"/>
			<path class="st0" d="M441.4,23.6c2.5,0,5,0.7,6.7,2.2v2.9c-2-1.8-4.1-2.6-6.6-2.6c-5,0-9.1,3.9-9.1,10.6s4,10.6,9.1,10.6
				c2.5,0,4.6-0.7,6.6-2.6v2.9c-1.8,1.5-4.3,2.2-6.7,2.2c-6.8,0-11.8-5.2-11.8-13.2C429.6,28.8,434.6,23.6,441.4,23.6z"/>
			<path class="st0" d="M462.1,47.4c2.9,0,5-0.7,7.1-2.5v2.8c-1.9,1.5-4.4,2.2-7.4,2.2c-7.1,0-11.8-5-11.8-12.9
				c0-7.8,4.2-13.4,10.9-13.4c6.6,0,10,5,10,12.4v1h-18.2C452.9,43.8,456.9,47.4,462.1,47.4z M453,34.7h15.3
				c-0.2-4.4-2.3-8.6-7.3-8.6C456.9,26.1,453.7,29.2,453,34.7z"/>
			<path class="st0" d="M473.6,44.4c2.2,1.9,4.8,3.1,8.1,3.1c3.1,0,6-1.3,6-4.5c0-2.2-1.4-3.5-4-4.4l-4.2-1.5
				c-3.4-1.3-5.9-2.9-5.9-6.7c0-4.3,3.8-6.7,8.4-6.7c2.7,0,5.4,0.8,7.4,2.3V29c-2.1-1.7-4.3-2.8-7.4-2.8c-3,0-5.6,1.4-5.6,4.1
				c0,2.4,1.6,3.3,4.3,4.3l4.4,1.7c3.5,1.2,5.4,3.4,5.4,6.6c0,4.6-4,7.1-8.9,7.1c-3.4,0-6.4-1.1-8-2.5V44.4z"/>
			<path class="st0" d="M493.4,44.4c2.2,1.9,4.8,3.1,8.1,3.1c3.1,0,6-1.3,6-4.5c0-2.2-1.4-3.5-4-4.4l-4.2-1.5
				c-3.4-1.3-5.9-2.9-5.9-6.7c0-4.3,3.8-6.7,8.4-6.7c2.7,0,5.4,0.8,7.4,2.3V29c-2.1-1.7-4.3-2.8-7.4-2.8c-3,0-5.6,1.4-5.6,4.1
				c0,2.4,1.6,3.3,4.3,4.3l4.4,1.7c3.5,1.2,5.4,3.4,5.4,6.6c0,4.6-4,7.1-8.9,7.1c-3.4,0-6.4-1.1-8-2.5V44.4z"/>
			<path class="st0" d="M515.7,18.4c-1.1,0-1.9-0.9-1.9-1.9c0-1,0.9-1.9,1.9-1.9s1.9,0.9,1.9,1.9C517.6,17.5,516.8,18.4,515.7,18.4z
				 M517.1,49.4h-2.9V24.1h2.9V49.4z"/>
			<path class="st0" d="M522.9,24.1h2.9v4c1.5-2.4,4.5-4.6,8.1-4.6c5.8,0,8.8,3.7,8.8,9.1v16.8h-2.8V33.1c0-3.9-2-6.8-6.5-6.8
				c-3.5,0-6.3,2.5-7.6,5.5v17.7h-2.9V24.1z"/>
			<path class="st0" d="M565.4,45.2c-1.4,2.1-4.3,4.2-7.8,4.2c-7.4,0-10.9-6.1-10.9-12.9c0-6.8,3.5-12.9,10.9-12.9
				c3.5,0,6.4,2.1,7.8,4.2v-3.7h2.8v23.5c0,8.4-5.6,12-11.6,12c-3.2,0-6-1-7.9-2.4V54c2.5,2.3,5.2,3.1,7.9,3.1c5,0,8.8-3,8.8-9.3
				V45.2z M565.4,31.1c-1.7-3.1-4.5-4.9-7.5-4.9c-5.2,0-8.3,4.3-8.3,10.3c0,6,3.1,10.3,8.3,10.3c3,0,5.9-1.8,7.5-4.9V31.1z"/>
		</g>
		<path class="st0" d="M134,26.1c-2,0-3.7-1.6-3.7-3.7c0-2.2,1.7-3.7,3.7-3.7c2,0,3.7,1.6,3.7,3.7C137.7,24.5,136.1,26.1,134,26.1
			 M134,19.3c-1.7,0-3,1.3-3,3.1c0,1.8,1.3,3.1,3,3.1c1.7,0,3-1.3,3-3.1C137.1,20.6,135.7,19.3,134,19.3 M133.6,23.1v1.2h-1.1v-3.9
			h1.8c0.9,0,1.4,0.5,1.4,1.4c0,0.6-0.3,1-0.8,1.2l0.9,1.4h-1.2l-0.8-1.2H133.6z M134.2,21.3h-0.6v0.9h0.6c0.3,0,0.5-0.2,0.5-0.4
			C134.7,21.5,134.6,21.3,134.2,21.3"/>
	</g>
</g>
</svg>
