<?xml version="1.0" encoding="utf-8"?>
<!-- Generator: Adobe Illustrator 23.0.1, SVG Export Plug-In . SVG Version: 6.00 Build 0)  -->
<svg version="1.1" id="logos" xmlns="http://www.w3.org/2000/svg" xmlns:xlink="http://www.w3.org/1999/xlink" x="0px" y="0px"
	 viewBox="0 0 329.6 61" style="enable-background:new 0 0 329.6 61;" xml:space="preserve">
<style type="text/css">
	.st0{fill:#4B4E52;}
</style>
<g>
	<g>
		<g>
			<path class="st0" d="M0.9,14.8h28.5v2.7H16.6v32.3h-2.9V17.5H0.9V14.8z"/>
			<path class="st0" d="M37.9,47.8c2.9,0,5-0.7,7.1-2.5v2.8c-1.9,1.5-4.4,2.2-7.4,2.2c-7.1,0-11.8-5-11.8-12.9
				c0-7.8,4.2-13.4,10.9-13.4c6.6,0,10,5,10,12.4v1H28.7C28.7,44.2,32.7,47.8,37.9,47.8z M28.8,35.1h15.3c-0.2-4.4-2.3-8.6-7.3-8.6
				C32.7,26.5,29.5,29.6,28.8,35.1z"/>
			<path class="st0" d="M53.9,49.8H51V12.8h2.9V49.8z"/>
			<path class="st0" d="M70.2,47.8c2.9,0,5-0.7,7.1-2.5v2.8c-1.9,1.5-4.4,2.2-7.4,2.2c-7.1,0-11.8-5-11.8-12.9
				c0-7.8,4.2-13.4,10.9-13.4c6.6,0,10,5,10,12.4v1H61C61,44.2,65,47.8,70.2,47.8z M61.1,35.1h15.3c-0.2-4.4-2.3-8.6-7.3-8.6
				C65,26.5,61.8,29.6,61.1,35.1z"/>
			<path class="st0" d="M95.2,27.1c-0.7-0.3-1.4-0.5-2.3-0.5c-3.1,0-5.5,2.2-6.7,5.5v17.7h-2.9V24.5h2.9v4c1.1-2.5,3.7-4.6,6.8-4.6
				c1,0,1.7,0.2,2.2,0.3V27.1z"/>
			<path class="st0" d="M99.7,18.8c-1.1,0-1.9-0.9-1.9-1.9c0-1,0.9-1.9,1.9-1.9s1.9,0.9,1.9,1.9C101.6,17.9,100.8,18.8,99.7,18.8z
				 M101.1,49.8h-2.9V24.5h2.9V49.8z"/>
			<path class="st0" d="M126.4,49.8h-3.5l-13.2-13v13h-2.9V12.8h2.9v22.8l12.8-11.1h3.7l-13.5,11.6L126.4,49.8z"/>
			<path class="st0" d="M143.1,45.1c2.2,1.7,4.2,2.5,6.6,2.5c4.5,0,6.6-2.6,6.6-9V14.8h2.9v23.9c0,8-3.4,11.6-9.5,11.6
				c-2.9,0-5.2-1.1-6.6-2.2V45.1z"/>
			<path class="st0" d="M184.4,49.8h-2.8v-4c-1.5,2.4-4.4,4.6-8,4.6c-5.8,0-8.8-3.7-8.8-9.1V24.5h2.8v16.4c0,3.9,2,6.8,6.5,6.8
				c3.5,0,6.3-2.5,7.5-5.5V24.5h2.8V49.8z"/>
			<path class="st0" d="M188.6,44.8c2.2,1.9,4.8,3.1,8.1,3.1c3.1,0,6-1.3,6-4.5c0-2.2-1.4-3.5-4-4.4l-4.2-1.5
				c-3.4-1.3-5.9-2.9-5.9-6.7c0-4.3,3.8-6.7,8.4-6.7c2.7,0,5.4,0.8,7.4,2.3v3.1c-2.1-1.7-4.3-2.8-7.4-2.8c-3,0-5.6,1.4-5.6,4.1
				c0,2.4,1.6,3.3,4.3,4.3l4.4,1.7c3.5,1.2,5.4,3.4,5.4,6.6c0,4.6-4,7.1-8.9,7.1c-3.4,0-6.4-1.1-8-2.5V44.8z"/>
			<path class="st0" d="M215.6,49.8h-2.9V27h-5.4v-2.5h5.4V18h2.9v6.5h6V27h-6V49.8z"/>
			<path class="st0" d="M240.9,41.8l-13.2-21.4v29.5h-2.9v-35h2.6l13.6,22.2l13.7-22.2h2.4v35h-2.9V20.4l-13.2,21.4H240.9z"/>
			<path class="st0" d="M273.2,50.3c-6.7,0-11.2-5.4-11.2-13.2c0-7.8,4.5-13.2,11.2-13.2c6.7,0,11.2,5.4,11.2,13.2
				C284.4,45,279.9,50.3,273.2,50.3z M273.2,26.5c-5,0-8.3,4.3-8.3,10.7s3.3,10.7,8.3,10.7c5.1,0,8.4-4.3,8.4-10.7
				S278.2,26.5,273.2,26.5z"/>
			<path class="st0" d="M299,24c2.5,0,5,0.7,6.7,2.2v2.9c-2-1.8-4.1-2.6-6.6-2.6c-5,0-9.1,3.9-9.1,10.6s4,10.6,9.1,10.6
				c2.5,0,4.6-0.7,6.6-2.6v2.9c-1.8,1.5-4.3,2.2-6.7,2.2c-6.8,0-11.8-5.2-11.8-13.2C287.2,29.2,292.2,24,299,24z"/>
			<path class="st0" d="M328.8,49.8h-3.5l-13.2-13v13h-2.9V12.8h2.9v22.8l12.8-11.1h3.7l-13.5,11.6L328.8,49.8z"/>
		</g>
		<path class="st0" d="M133,26.5c-2,0-3.7-1.6-3.7-3.7c0-2.2,1.7-3.7,3.7-3.7c2,0,3.7,1.6,3.7,3.7C136.7,24.9,135,26.5,133,26.5
			 M133,19.7c-1.7,0-3,1.3-3,3.1c0,1.8,1.3,3.1,3,3.1c1.7,0,3-1.3,3-3.1C136,21,134.7,19.7,133,19.7 M132.6,23.5v1.2h-1.1v-3.9h1.8
			c0.9,0,1.4,0.5,1.4,1.4c0,0.6-0.3,1-0.8,1.2l0.9,1.4h-1.2l-0.8-1.2H132.6z M133.2,21.7h-0.6v0.9h0.6c0.3,0,0.5-0.2,0.5-0.4
			C133.7,21.9,133.5,21.7,133.2,21.7"/>
	</g>
</g>
</svg>
