<?xml version="1.0" encoding="utf-8"?>
<!-- Generator: Adobe Illustrator 23.0.1, SVG Export Plug-In . SVG Version: 6.00 Build 0)  -->
<svg version="1.1" id="logos" xmlns="http://www.w3.org/2000/svg" xmlns:xlink="http://www.w3.org/1999/xlink" x="0px" y="0px"
	 viewBox="0 0 459.3 62" style="enable-background:new 0 0 459.3 62;" xml:space="preserve">
<style type="text/css">
	.st0{fill:#4B4E52;}
</style>
<g>
	<g>
		<g>
			<path class="st0" d="M0.6,15h28.5v2.7H16.3V50h-2.9V17.7H0.6V15z"/>
			<path class="st0" d="M37.6,48c2.9,0,5-0.7,7.1-2.5v2.8c-1.9,1.5-4.4,2.2-7.4,2.2c-7.1,0-11.8-5-11.8-12.9
				c0-7.8,4.2-13.4,10.9-13.4c6.6,0,10,5,10,12.4v1H28.4C28.4,44.4,32.4,48,37.6,48z M28.5,35.2h15.3c-0.2-4.4-2.3-8.6-7.3-8.6
				C32.4,26.7,29.2,29.8,28.5,35.2z"/>
			<path class="st0" d="M53.6,50h-2.9V12.9h2.9V50z"/>
			<path class="st0" d="M69.9,48c2.9,0,5-0.7,7.1-2.5v2.8c-1.9,1.5-4.4,2.2-7.4,2.2c-7.1,0-11.8-5-11.8-12.9
				c0-7.8,4.2-13.4,10.9-13.4c6.6,0,10,5,10,12.4v1H60.7C60.7,44.4,64.7,48,69.9,48z M60.8,35.2h15.3c-0.2-4.4-2.3-8.6-7.3-8.6
				C64.7,26.7,61.5,29.8,60.8,35.2z"/>
			<path class="st0" d="M94.9,27.3c-0.7-0.3-1.4-0.5-2.3-0.5c-3.1,0-5.5,2.2-6.7,5.5V50H83V24.7h2.9v4c1.1-2.5,3.7-4.6,6.8-4.6
				c1,0,1.7,0.2,2.2,0.3V27.3z"/>
			<path class="st0" d="M99.4,18.9c-1.1,0-1.9-0.9-1.9-1.9c0-1,0.9-1.9,1.9-1.9s1.9,0.9,1.9,1.9C101.3,18.1,100.5,18.9,99.4,18.9z
				 M100.8,50H98V24.7h2.9V50z"/>
			<path class="st0" d="M126.1,50h-3.5l-13.2-13v13h-2.9V12.9h2.9v22.8l12.8-11.1h3.7l-13.5,11.6L126.1,50z"/>
			<path class="st0" d="M145,36.2V15h2.9v20.8c0,8.2,4.4,12,10.5,12c6,0,10.5-3.8,10.5-12V15h2.9v21.2c0,9.6-5.9,14.3-13.5,14.3
				C150.9,50.5,145,45.8,145,36.2z"/>
			<path class="st0" d="M181.1,50h-2.9V15h2.9V50z"/>
			<path class="st0" d="M211.6,15.6c-0.7-0.4-1.6-0.6-2.6-0.6c-2.7,0-4.6,1.9-4.6,5.5v4.3h5.9v2.5h-5.9V50h-2.8V27.1h-4.1v-2.5h4.1
				v-4.6c0-4.6,3-7.7,7.1-7.7c1.1,0,2,0.2,2.9,0.5V15.6z"/>
			<path class="st0" d="M221.9,50.5c-6.7,0-11.2-5.4-11.2-13.2c0-7.8,4.5-13.2,11.2-13.2c6.7,0,11.2,5.4,11.2,13.2
				C233.1,45.2,228.6,50.5,221.9,50.5z M221.9,26.7c-5,0-8.3,4.3-8.3,10.7s3.3,10.7,8.3,10.7c5.1,0,8.4-4.3,8.4-10.7
				S226.9,26.7,221.9,26.7z"/>
			<path class="st0" d="M249.3,27.3c-0.7-0.3-1.4-0.5-2.3-0.5c-3.1,0-5.5,2.2-6.7,5.5V50h-2.9V24.7h2.9v4c1.1-2.5,3.7-4.6,6.8-4.6
				c1,0,1.7,0.2,2.2,0.3V27.3z"/>
			<path class="st0" d="M284,15l8.2,30.1l8.1-30.1h2.9l-9.5,35H291l-8.3-29.8L274.5,50H272l-9.6-35h2.9l8.1,30.1l8.2-30.1H284z"/>
			<path class="st0" d="M307.9,18.9c-1.1,0-1.9-0.9-1.9-1.9c0-1,0.9-1.9,1.9-1.9s1.9,0.9,1.9,1.9C309.9,18.1,309,18.9,307.9,18.9z
				 M309.4,50h-2.9V24.7h2.9V50z"/>
			<path class="st0" d="M315.1,24.7h2.9v4c1.5-2.4,4.5-4.6,8.1-4.6c5.8,0,8.8,3.7,8.8,9.1V50H332V33.6c0-3.9-2-6.8-6.5-6.8
				c-3.5,0-6.3,2.5-7.6,5.5V50h-2.9V24.7z"/>
			<path class="st0" d="M340.9,50V15h20.3v2.7h-17.4V31h16.5v2.6h-16.5V50H340.9z"/>
			<path class="st0" d="M374.5,50.5c-6.7,0-11.2-5.4-11.2-13.2c0-7.8,4.5-13.2,11.2-13.2c6.7,0,11.2,5.4,11.2,13.2
				C385.7,45.2,381.2,50.5,374.5,50.5z M374.5,26.7c-5,0-8.3,4.3-8.3,10.7s3.3,10.7,8.3,10.7c5.1,0,8.4-4.3,8.4-10.7
				S379.6,26.7,374.5,26.7z"/>
			<path class="st0" d="M401.9,27.3c-0.7-0.3-1.4-0.5-2.3-0.5c-3.1,0-5.5,2.2-6.7,5.5V50H390V24.7h2.9v4c1.1-2.5,3.7-4.6,6.8-4.6
				c1,0,1.7,0.2,2.2,0.3V27.3z"/>
			<path class="st0" d="M430.1,24.2c5.1,0,7.7,3.6,7.7,8.7V50H435V33.3c0-3.9-1.7-6.5-5.4-6.5c-3.1,0-5.7,2.3-6.7,5.3V50H420V33.3
				c0-3.9-1.7-6.5-5.4-6.5c-3.1,0-5.7,2.3-6.7,5.3V50H405V24.7h2.9v3.9c1.3-2.4,3.9-4.4,7.3-4.4c3.6,0,6,2,7.1,4.8
				C423.6,26.5,426.5,24.2,430.1,24.2z"/>
			<path class="st0" d="M441.8,44.9c2.2,1.9,4.8,3.1,8.1,3.1c3.1,0,6-1.3,6-4.5c0-2.2-1.4-3.5-4-4.4l-4.2-1.5
				c-3.4-1.3-5.9-2.9-5.9-6.7c0-4.3,3.8-6.7,8.4-6.7c2.7,0,5.4,0.8,7.4,2.3v3.1c-2.1-1.7-4.3-2.8-7.4-2.8c-3,0-5.6,1.4-5.6,4.1
				c0,2.4,1.6,3.3,4.3,4.3l4.4,1.7c3.5,1.2,5.4,3.4,5.4,6.6c0,4.6-4,7.1-8.9,7.1c-3.4,0-6.4-1.1-8-2.5V44.9z"/>
		</g>
		<path class="st0" d="M132.7,26.7c-2,0-3.7-1.6-3.7-3.7c0-2.2,1.7-3.7,3.7-3.7c2,0,3.7,1.6,3.7,3.7
			C136.4,25.1,134.7,26.7,132.7,26.7 M132.7,19.9c-1.7,0-3,1.3-3,3.1c0,1.8,1.3,3.1,3,3.1c1.7,0,3-1.3,3-3.1
			C135.7,21.1,134.3,19.9,132.7,19.9 M132.3,23.6v1.2h-1.1V21h1.8c0.9,0,1.4,0.5,1.4,1.4c0,0.6-0.3,1-0.8,1.2l0.9,1.4h-1.2l-0.8-1.2
			H132.3z M132.9,21.9h-0.6v0.9h0.6c0.3,0,0.5-0.2,0.5-0.4C133.4,22.1,133.2,21.9,132.9,21.9"/>
	</g>
</g>
</svg>
