<?xml version="1.0" encoding="utf-8"?>
<!-- Generator: Adobe Illustrator 23.0.1, SVG Export Plug-In . SVG Version: 6.00 Build 0)  -->
<svg version="1.1" id="logos" xmlns="http://www.w3.org/2000/svg" xmlns:xlink="http://www.w3.org/1999/xlink" x="0px" y="0px"
	 viewBox="0 0 422 62" style="enable-background:new 0 0 422 62;" xml:space="preserve">
<style type="text/css">
	.st0{fill:#4B4E52;}
</style>
<g>
	<g>
		<g>
			<path class="st0" d="M1.2,15.2h28.5v2.7H16.9v32.3H14V17.9H1.2V15.2z"/>
			<path class="st0" d="M38.3,48.2c2.9,0,5-0.7,7.1-2.5v2.8C43.5,50,41,50.7,38,50.7c-7.1,0-11.8-5-11.8-12.9
				c0-7.8,4.2-13.4,10.9-13.4c6.6,0,10,5,10,12.4v1H29C29,44.6,33,48.2,38.3,48.2z M29.1,35.4h15.3c-0.2-4.4-2.3-8.6-7.3-8.6
				C33,26.9,29.8,30,29.1,35.4z"/>
			<path class="st0" d="M54.2,50.2h-2.9V13.2h2.9V50.2z"/>
			<path class="st0" d="M70.6,48.2c2.9,0,5-0.7,7.1-2.5v2.8c-1.9,1.5-4.4,2.2-7.4,2.2c-7.1,0-11.8-5-11.8-12.9
				c0-7.8,4.2-13.4,10.9-13.4c6.6,0,10,5,10,12.4v1H61.3C61.3,44.6,65.3,48.2,70.6,48.2z M61.5,35.4h15.3c-0.2-4.4-2.3-8.6-7.3-8.6
				C65.3,26.9,62.1,30,61.5,35.4z"/>
			<path class="st0" d="M95.5,27.5c-0.7-0.3-1.4-0.5-2.3-0.5c-3.1,0-5.5,2.2-6.7,5.5v17.7h-2.9V24.9h2.9v4c1.1-2.5,3.7-4.6,6.8-4.6
				c1,0,1.7,0.2,2.2,0.3V27.5z"/>
			<path class="st0" d="M100,19.1c-1.1,0-1.9-0.9-1.9-1.9c0-1,0.9-1.9,1.9-1.9s1.9,0.9,1.9,1.9C102,18.3,101.1,19.1,100,19.1z
				 M101.5,50.2h-2.9V24.9h2.9V50.2z"/>
			<path class="st0" d="M126.8,50.2h-3.5l-13.2-13v13h-2.9V13.2h2.9V36l12.8-11.1h3.7L113,36.5L126.8,50.2z"/>
			<path class="st0" d="M145.7,36.4V15.2h2.9V36c0,8.2,4.4,12,10.5,12c6,0,10.5-3.8,10.5-12V15.2h2.9v21.2c0,9.6-5.9,14.3-13.5,14.3
				C151.6,50.7,145.7,46.1,145.7,36.4z"/>
			<path class="st0" d="M181.8,50.2h-2.9v-35h2.9V50.2z"/>
			<path class="st0" d="M212.3,15.8c-0.7-0.4-1.6-0.6-2.6-0.6c-2.7,0-4.6,1.9-4.6,5.5v4.3h5.9v2.5h-5.9v22.9h-2.8V27.4h-4.1v-2.5
				h4.1v-4.6c0-4.6,3-7.7,7.1-7.7c1.1,0,2,0.2,2.9,0.5V15.8z"/>
			<path class="st0" d="M222.5,50.7c-6.7,0-11.2-5.4-11.2-13.2c0-7.8,4.5-13.2,11.2-13.2c6.7,0,11.2,5.4,11.2,13.2
				C233.8,45.4,229.3,50.7,222.5,50.7z M222.5,26.9c-5,0-8.3,4.3-8.3,10.7s3.3,10.7,8.3,10.7c5.1,0,8.4-4.3,8.4-10.7
				S227.6,26.9,222.5,26.9z"/>
			<path class="st0" d="M250,27.5c-0.7-0.3-1.4-0.5-2.3-0.5c-3.1,0-5.5,2.2-6.7,5.5v17.7H238V24.9h2.9v4c1.1-2.5,3.7-4.6,6.8-4.6
				c1,0,1.7,0.2,2.2,0.3V27.5z"/>
			<path class="st0" d="M278.9,32.4l12.4,17.8H288l-10.8-15.4l-10.8,15.4h-3.2l12.4-17.7l-12-17.3h3.3l10.4,14.9l10.4-14.9h3.2
				L278.9,32.4z"/>
			<path class="st0" d="M308.4,32.7c0-3.4-2.4-5.6-6.3-5.6c-2.9,0-5.3,0.9-7.4,2.2v-2.7c1.7-1.1,4.5-2.1,7.6-2.1
				c5.4,0,8.7,3.1,8.7,8.1v17.7h-2.7v-2.4c-1.1,1.3-3.9,2.8-7,2.8c-5.1,0-9.3-3-9.3-7.8c0-4.7,4.2-7.8,9.5-7.8c3,0,5.8,1.4,6.9,2.7
				V32.7z M308.4,41.2c-0.8-2.2-3.6-3.8-6.7-3.8c-3.6,0-6.9,1.8-6.9,5.4c0,3.6,3.3,5.4,6.9,5.4c3.1,0,5.9-1.6,6.7-3.8V41.2z"/>
			<path class="st0" d="M341.8,24.4c5.1,0,7.7,3.6,7.7,8.7v17.1h-2.8V33.5c0-3.9-1.7-6.5-5.4-6.5c-3.1,0-5.7,2.3-6.7,5.3v17.9h-2.9
				V33.5c0-3.9-1.7-6.5-5.4-6.5c-3.1,0-5.7,2.3-6.7,5.3v17.9h-2.9V24.9h2.9v3.9c1.3-2.4,3.9-4.4,7.3-4.4c3.6,0,6,2,7.1,4.8
				C335.4,26.7,338.2,24.4,341.8,24.4z"/>
			<path class="st0" d="M369.4,32.7c0-3.4-2.4-5.6-6.3-5.6c-2.9,0-5.3,0.9-7.4,2.2v-2.7c1.7-1.1,4.5-2.1,7.6-2.1
				c5.4,0,8.7,3.1,8.7,8.1v17.7h-2.7v-2.4c-1.1,1.3-3.9,2.8-7,2.8c-5.1,0-9.3-3-9.3-7.8c0-4.7,4.2-7.8,9.5-7.8c3,0,5.8,1.4,6.9,2.7
				V32.7z M369.4,41.2c-0.8-2.2-3.6-3.8-6.7-3.8c-3.6,0-6.9,1.8-6.9,5.4c0,3.6,3.3,5.4,6.9,5.4c3.1,0,5.9-1.6,6.7-3.8V41.2z"/>
			<path class="st0" d="M389.7,27.5c-0.7-0.3-1.4-0.5-2.3-0.5c-3.1,0-5.5,2.2-6.7,5.5v17.7h-2.9V24.9h2.9v4c1.1-2.5,3.7-4.6,6.8-4.6
				c1,0,1.7,0.2,2.2,0.3V27.5z"/>
			<path class="st0" d="M394.2,19.1c-1.1,0-1.9-0.9-1.9-1.9c0-1,0.9-1.9,1.9-1.9s1.9,0.9,1.9,1.9C396.1,18.3,395.2,19.1,394.2,19.1z
				 M395.6,50.2h-2.9V24.9h2.9V50.2z"/>
			<path class="st0" d="M401.3,24.9h2.9v4c1.5-2.4,4.5-4.6,8.1-4.6c5.8,0,8.8,3.7,8.8,9.1v16.8h-2.8V33.9c0-3.9-2-6.8-6.5-6.8
				c-3.5,0-6.3,2.5-7.6,5.5v17.7h-2.9V24.9z"/>
		</g>
		<path class="st0" d="M133.3,26.9c-2,0-3.7-1.6-3.7-3.7c0-2.2,1.7-3.7,3.7-3.7s3.7,1.6,3.7,3.7C137,25.3,135.4,26.9,133.3,26.9
			 M133.3,20.1c-1.7,0-3,1.3-3,3.1c0,1.8,1.3,3.1,3,3.1c1.7,0,3-1.3,3-3.1C136.4,21.3,135,20.1,133.3,20.1 M132.9,23.9v1.2h-1.1
			v-3.9h1.8c0.9,0,1.4,0.5,1.4,1.4c0,0.6-0.3,1-0.8,1.2l0.9,1.4H134l-0.8-1.2H132.9z M133.5,22.1h-0.6V23h0.6c0.3,0,0.5-0.2,0.5-0.4
			C134,22.3,133.9,22.1,133.5,22.1"/>
	</g>
</g>
</svg>
