<?xml version="1.0" encoding="utf-8"?>
<!-- Generator: Adobe Illustrator 23.0.1, SVG Export Plug-In . SVG Version: 6.00 Build 0)  -->
<svg version="1.1" id="logos" xmlns="http://www.w3.org/2000/svg" xmlns:xlink="http://www.w3.org/1999/xlink" x="0px" y="0px"
	 viewBox="0 0 185 61" style="enable-background:new 0 0 185 61;" xml:space="preserve">
<style type="text/css">
	.st0{fill:#4B4E52;}
</style>
<g>
	<g>
		<path class="st0" d="M3.9,30.5l17.7-16h3.8L6.7,31.4l19.2,18.2H22l-18.1-17v17H1v-35h2.9V30.5z"/>
		<path class="st0" d="M37.4,47.5c2.9,0,5-0.7,7.1-2.5v2.8c-1.9,1.5-4.4,2.2-7.4,2.2c-7.1,0-11.8-5-11.8-12.9
			c0-7.8,4.2-13.4,10.9-13.4c6.6,0,10,5,10,12.4v1H28.2C28.2,44,32.2,47.5,37.4,47.5z M28.3,34.8h15.3c-0.2-4.4-2.3-8.6-7.3-8.6
			C32.2,26.2,29,29.3,28.3,34.8z"/>
		<path class="st0" d="M50.5,24.2h2.9v4c1.5-2.4,4.5-4.6,8.1-4.6c5.8,0,8.8,3.7,8.8,9.1v16.8h-2.8V33.2c0-3.9-2-6.8-6.5-6.8
			c-3.5,0-6.3,2.5-7.6,5.5v17.7h-2.9V24.2z"/>
		<path class="st0" d="M93.2,45.8c-1.4,2.2-4.4,4.3-7.9,4.3c-7.5,0-11.1-6.2-11.1-13.2s3.6-13.2,11.1-13.2c3.5,0,6.4,2.1,7.9,4.3
			V12.5H96v37.1h-2.8V45.8z M93.2,31.4c-1.7-3.2-4.6-5-7.6-5c-5.3,0-8.4,4.4-8.4,10.5s3.1,10.5,8.4,10.5c3.1,0,5.9-1.8,7.6-5V31.4z"
			/>
		<path class="st0" d="M111.6,50.1c-6.7,0-11.2-5.4-11.2-13.2c0-7.8,4.5-13.2,11.2-13.2c6.7,0,11.2,5.4,11.2,13.2
			C122.8,44.7,118.3,50.1,111.6,50.1z M111.6,26.2c-5,0-8.3,4.3-8.3,10.7s3.3,10.7,8.3,10.7c5.1,0,8.4-4.3,8.4-10.7
			S116.6,26.2,111.6,26.2z"/>
		<path class="st0" d="M136.2,35.7V14.5h2.9v20.8c0,8.2,4.4,12,10.5,12c6,0,10.5-3.8,10.5-12V14.5h2.9v21.2
			c0,9.6-5.9,14.3-13.5,14.3C142.1,50.1,136.2,45.4,136.2,35.7z"/>
		<path class="st0" d="M172.3,49.5h-2.9v-35h2.9V49.5z"/>
	</g>
	<path class="st0" d="M180.9,26.2c-2,0-3.7-1.6-3.7-3.7c0-2.2,1.7-3.7,3.7-3.7c2,0,3.7,1.6,3.7,3.7
		C184.6,24.6,182.9,26.2,180.9,26.2 M180.9,19.4c-1.7,0-3,1.3-3,3.1c0,1.8,1.3,3.1,3,3.1c1.7,0,3-1.3,3-3.1
		C183.9,20.7,182.5,19.4,180.9,19.4 M180.4,23.2v1.2h-1.1v-3.9h1.8c0.9,0,1.4,0.5,1.4,1.4c0,0.6-0.3,1-0.8,1.2l0.9,1.4h-1.2
		l-0.8-1.2H180.4z M181.1,21.4h-0.6v0.9h0.6c0.3,0,0.5-0.2,0.5-0.4C181.6,21.6,181.4,21.4,181.1,21.4"/>
</g>
</svg>
