<?xml version="1.0" encoding="utf-8"?>
<!-- Generator: Adobe Illustrator 23.0.1, SVG Export Plug-In . SVG Version: 6.00 Build 0)  -->
<svg version="1.1" id="logos" xmlns="http://www.w3.org/2000/svg" xmlns:xlink="http://www.w3.org/1999/xlink" x="0px" y="0px"
	 viewBox="0 0 414.9 61" style="enable-background:new 0 0 414.9 61;" xml:space="preserve">
<style type="text/css">
	.st0{fill:#4B4E52;}
</style>
<g>
	<g>
		<g>
			<path class="st0" d="M1.2,14.4h28.5v2.7H16.9v32.3H14V17.1H1.2V14.4z"/>
			<path class="st0" d="M38.2,47.4c2.9,0,5-0.7,7.1-2.5v2.8c-1.9,1.5-4.4,2.2-7.4,2.2c-7.1,0-11.8-5-11.8-12.9
				c0-7.8,4.2-13.4,10.9-13.4c6.6,0,10,5,10,12.4v1H29C29,43.8,33,47.4,38.2,47.4z M29.1,34.7h15.3c-0.2-4.4-2.3-8.6-7.3-8.6
				C33,26.1,29.8,29.2,29.1,34.7z"/>
			<path class="st0" d="M54.2,49.4h-2.9V12.4h2.9V49.4z"/>
			<path class="st0" d="M70.6,47.4c2.9,0,5-0.7,7.1-2.5v2.8c-1.9,1.5-4.4,2.2-7.4,2.2c-7.1,0-11.8-5-11.8-12.9
				c0-7.8,4.2-13.4,10.9-13.4c6.6,0,10,5,10,12.4v1H61.3C61.3,43.8,65.3,47.4,70.6,47.4z M61.4,34.7h15.3c-0.2-4.4-2.3-8.6-7.3-8.6
				C65.3,26.1,62.1,29.2,61.4,34.7z"/>
			<path class="st0" d="M95.5,26.7c-0.7-0.3-1.4-0.5-2.3-0.5c-3.1,0-5.5,2.2-6.7,5.5v17.7h-2.9V24.1h2.9v4c1.1-2.5,3.7-4.6,6.8-4.6
				c1,0,1.7,0.2,2.2,0.3V26.7z"/>
			<path class="st0" d="M100,18.4c-1.1,0-1.9-0.9-1.9-1.9c0-1,0.9-1.9,1.9-1.9s1.9,0.9,1.9,1.9C102,17.5,101.1,18.4,100,18.4z
				 M101.4,49.4h-2.9V24.1h2.9V49.4z"/>
			<path class="st0" d="M126.7,49.4h-3.5l-13.2-13v13h-2.9V12.4h2.9v22.8l12.8-11.1h3.7L113,35.7L126.7,49.4z"/>
			<path class="st0" d="M149.3,34v15.4h-2.9v-35h12.1c6.8,0,11.3,3.4,11.3,9.8c0,5.6-3.5,8.9-9,9.6l10.6,15.6H168L157.6,34H149.3z
				 M149.3,31.4h9.1c5.4,0,8.6-2.7,8.6-7.2c0-4.6-3.2-7.2-8.6-7.2h-9.1V31.4z"/>
			<path class="st0" d="M184.6,47.4c2.9,0,5-0.7,7.1-2.5v2.8c-1.9,1.5-4.4,2.2-7.4,2.2c-7.1,0-11.8-5-11.8-12.9
				c0-7.8,4.2-13.4,10.9-13.4c6.6,0,10,5,10,12.4v1h-18.2C175.4,43.8,179.4,47.4,184.6,47.4z M175.5,34.7h15.3
				c-0.2-4.4-2.3-8.6-7.3-8.6C179.4,26.1,176.2,29.2,175.5,34.7z"/>
			<path class="st0" d="M200.5,59.1h-2.9v-35h2.9v3.8c1.4-2.2,4.4-4.3,7.9-4.3c7.5,0,11.1,6.2,11.1,13.2s-3.6,13.2-11.1,13.2
				c-3.5,0-6.4-2.1-7.9-4.3V59.1z M200.5,42.3c1.7,3.2,4.5,5,7.6,5c5.4,0,8.5-4.4,8.5-10.5s-3.1-10.5-8.5-10.5c-3.1,0-5.9,1.8-7.6,5
				V42.3z"/>
			<path class="st0" d="M233.5,49.9c-6.7,0-11.2-5.4-11.2-13.2c0-7.8,4.5-13.2,11.2-13.2c6.7,0,11.2,5.4,11.2,13.2
				C244.7,44.6,240.2,49.9,233.5,49.9z M233.5,26.1c-5,0-8.3,4.3-8.3,10.7s3.3,10.7,8.3,10.7c5.1,0,8.4-4.3,8.4-10.7
				S238.6,26.1,233.5,26.1z"/>
			<path class="st0" d="M260.9,26.7c-0.7-0.3-1.4-0.5-2.3-0.5c-3.1,0-5.5,2.2-6.7,5.5v17.7H249V24.1h2.9v4c1.1-2.5,3.7-4.6,6.8-4.6
				c1,0,1.7,0.2,2.2,0.3V26.7z"/>
			<path class="st0" d="M270.9,49.4h-2.9V26.6h-5.4v-2.5h5.4v-6.5h2.9v6.5h6v2.5h-6V49.4z"/>
			<path class="st0" d="M291,43.1c3.4,3,6.8,4.2,10.8,4.2c5,0,8.2-2.5,8.2-6.6c0-3.5-2-5-6.3-6.8l-5.1-2.2c-3.6-1.5-7.6-3.6-7.6-9
				c0-5.9,5-8.9,10.6-8.9c3.6,0,7.2,1.1,9.8,3v3.2c-2.7-2.3-5.8-3.5-9.7-3.5c-4.3,0-7.8,2.1-7.8,6.2c0,3.4,2.4,4.9,6.1,6.4l5.4,2.3
				c5.1,2.2,7.5,4.7,7.5,9.2c0,5.6-4.7,9.3-11.1,9.3c-4.7,0-8.6-1.5-10.8-3.5V43.1z"/>
			<path class="st0" d="M327.7,47.4c2.9,0,5-0.7,7.1-2.5v2.8c-1.9,1.5-4.4,2.2-7.4,2.2c-7.1,0-11.8-5-11.8-12.9
				c0-7.8,4.2-13.4,10.9-13.4c6.6,0,10,5,10,12.4v1h-18.2C318.5,43.8,322.5,47.4,327.7,47.4z M318.6,34.7h15.3
				c-0.2-4.4-2.3-8.6-7.3-8.6C322.5,26.1,319.3,29.2,318.6,34.7z"/>
			<path class="st0" d="M352.7,26.7c-0.7-0.3-1.4-0.5-2.3-0.5c-3.1,0-5.5,2.2-6.7,5.5v17.7h-2.9V24.1h2.9v4c1.1-2.5,3.7-4.6,6.8-4.6
				c1,0,1.7,0.2,2.2,0.3V26.7z"/>
			<path class="st0" d="M364.4,49.4l-10.1-25.3h3l8.3,21.4l8.3-21.4h2.9l-10,25.3H364.4z"/>
			<path class="st0" d="M389.4,47.4c2.9,0,5-0.7,7.1-2.5v2.8c-1.9,1.5-4.4,2.2-7.4,2.2c-7.1,0-11.8-5-11.8-12.9
				c0-7.8,4.2-13.4,10.9-13.4c6.6,0,10,5,10,12.4v1h-18.2C380.2,43.8,384.2,47.4,389.4,47.4z M380.3,34.7h15.3
				c-0.2-4.4-2.3-8.6-7.3-8.6C384.2,26.1,381,29.2,380.3,34.7z"/>
			<path class="st0" d="M414.4,26.7c-0.7-0.3-1.4-0.5-2.3-0.5c-3.1,0-5.5,2.2-6.7,5.5v17.7h-2.9V24.1h2.9v4c1.1-2.5,3.7-4.6,6.8-4.6
				c1,0,1.7,0.2,2.2,0.3V26.7z"/>
		</g>
		<path class="st0" d="M133.3,26.1c-2,0-3.7-1.6-3.7-3.7c0-2.2,1.7-3.7,3.7-3.7s3.7,1.6,3.7,3.7C137,24.5,135.3,26.1,133.3,26.1
			 M133.3,19.3c-1.7,0-3,1.3-3,3.1c0,1.8,1.3,3.1,3,3.1c1.7,0,3-1.3,3-3.1C136.3,20.6,135,19.3,133.3,19.3 M132.9,23.1v1.2h-1.1
			v-3.9h1.8c0.9,0,1.4,0.5,1.4,1.4c0,0.6-0.3,1-0.8,1.2l0.9,1.4H134l-0.8-1.2H132.9z M133.5,21.3h-0.6v0.9h0.6
			c0.3,0,0.5-0.2,0.5-0.4C134,21.5,133.8,21.3,133.5,21.3"/>
	</g>
</g>
</svg>
