<?xml version="1.0" encoding="utf-8"?>
<!-- Generator: Adobe Illustrator 14.0.0, SVG Export Plug-In . SVG Version: 6.00 Build 43363)  -->
<!DOCTYPE svg PUBLIC "-//W3C//DTD SVG 1.1//EN" "http://www.w3.org/Graphics/SVG/1.1/DTD/svg11.dtd">
<svg version="1.1" id="Layer_1" xmlns="http://www.w3.org/2000/svg" xmlns:xlink="http://www.w3.org/1999/xlink" x="0px" y="0px"
	 width="16px" height="16px" viewBox="0 0 16 16" enable-background="new 0 0 16 16" xml:space="preserve">
<path fill="#010101" d="M6,1C3.238,1,1,3.239,1,6c0,2.762,2.238,5,5,5c2.761,0,5-2.238,5-5C11,3.239,8.761,1,6,1z M10,6
	c0,2.209-1.791,4-4,4S2,8.209,2,6s1.791-4,4-4S10,3.791,10,6z M14.5,13.5c0,1.104,0.104,1-1,1l-3-3c0-1.104-0.104-1,1-1L14.5,13.5z"
	/>
</svg>
