<svg width="240" height="127" viewBox="0 0 240 127" fill="none" xmlns="http://www.w3.org/2000/svg">
<g clip-path="url(#clip0_9517_205326)">
<g clip-path="url(#clip1_9517_205326)">
<mask id="path-3-inside-1_9517_205326" fill="white">
<path d="M0 0H240V18.0376H0V0Z"/>
</mask>
<rect width="20.0418" height="18.0376" fill="#2A417E"/>
<mask id="path-5-inside-2_9517_205326" fill="white">
<path d="M20.0417 0H75.0313V18.0376H20.0417V0Z"/>
</mask>
<path d="M20.0417 0H75.0313V18.0376H20.0417V0Z" fill="#2A417E"/>
<path d="M20.0417 18.0376H20.5428V0H20.0417H19.5407V18.0376H20.0417Z" fill="#3958AC" mask="url(#path-5-inside-2_9517_205326)"/>
<rect x="26.0542" y="7.51562" width="33.4029" height="3.00626" rx="1.50313" fill="#6581CD"/>
<mask id="path-8-inside-3_9517_205326" fill="white">
<path d="M75.0312 0H130.021V18.0376H75.0312V0Z"/>
</mask>
<path d="M75.0312 0H130.021V18.0376H75.0312V0Z" fill="#2A417E"/>
<path d="M75.0312 18.0376H75.5323V0H75.0312H74.5302V18.0376H75.0312Z" fill="#3958AC" mask="url(#path-8-inside-3_9517_205326)"/>
<rect x="81.0439" y="7.51562" width="33.4029" height="3.00626" rx="1.50313" fill="#6581CD"/>
<mask id="path-11-inside-4_9517_205326" fill="white">
<path d="M130.021 0H185.01V18.0376H130.021V0Z"/>
</mask>
<path d="M130.021 0H185.01V18.0376H130.021V0Z" fill="#2A417E"/>
<path d="M130.021 18.0376H130.522V0H130.021H129.52V18.0376H130.021Z" fill="#3958AC" mask="url(#path-11-inside-4_9517_205326)"/>
<rect x="136.033" y="7.51562" width="33.4029" height="3.00626" rx="1.50313" fill="#6581CD"/>
<mask id="path-14-inside-5_9517_205326" fill="white">
<path d="M185.01 0H240V18.0376H185.01V0Z"/>
</mask>
<path d="M185.01 0H240V18.0376H185.01V0Z" fill="#2A417E"/>
<path d="M185.01 18.0376H185.512V0H185.01H184.509V18.0376H185.01Z" fill="#3958AC" mask="url(#path-14-inside-5_9517_205326)"/>
<rect x="191.023" y="7.51562" width="33.4029" height="3.00626" rx="1.50313" fill="#6581CD"/>
</g>
<path d="M240 18.0376V17.5365H0V18.0376V18.5386H240V18.0376Z" fill="#3958AC" mask="url(#path-3-inside-1_9517_205326)"/>
<g clip-path="url(#clip2_9517_205326)">
<mask id="path-17-inside-6_9517_205326" fill="white">
<path d="M0 18.0371H240V36.0747H0V18.0371Z"/>
</mask>
<rect width="20.0418" height="18.0376" transform="translate(0 18.0371)" fill="#19274C"/>
<g clip-path="url(#clip3_9517_205326)">
<path d="M11.0229 23.5479L11.8733 25.7038L14.0292 26.5542L11.8733 27.4045L11.0229 29.5604L10.1725 27.4045L8.01663 26.5542L10.1725 25.7038L11.0229 23.5479ZM7.48521 28.528L6.01245 29.0594L7.48521 29.5908L8.01663 31.0636L8.54805 29.5908L10.0208 29.0594L8.54805 28.528L8.01663 27.0552L7.48521 28.528ZM7.11694 24.1514L6.01245 24.55L7.11694 24.9486L7.51558 26.0531L7.91423 24.9486L9.01871 24.55L7.91423 24.1514L7.51558 23.0469L7.11694 24.1514Z" fill="#90ABDA"/>
</g>
<mask id="path-20-inside-7_9517_205326" fill="white">
<path d="M20.0417 18.0371H75.0313V36.0747H20.0417V18.0371Z"/>
</mask>
<path d="M20.0417 18.0371H75.0313V36.0747H20.0417V18.0371Z" fill="#19274C"/>
<path d="M20.0417 36.0747H20.5428V18.0371H20.0417H19.5407V36.0747H20.0417Z" fill="#3958AC" mask="url(#path-20-inside-7_9517_205326)"/>
<rect x="26.0542" y="25.5527" width="30.0626" height="3.00626" rx="1.50313" fill="#3958AC"/>
<mask id="path-23-inside-8_9517_205326" fill="white">
<path d="M75.0312 18.0371H130.021V36.0747H75.0312V18.0371Z"/>
</mask>
<path d="M75.0312 18.0371H130.021V36.0747H75.0312V18.0371Z" fill="#19274C"/>
<path d="M75.0312 36.0747H75.5323V18.0371H75.0312H74.5302V36.0747H75.0312Z" fill="#3958AC" mask="url(#path-23-inside-8_9517_205326)"/>
<rect x="81.0437" y="25.5527" width="30.0626" height="3.00626" rx="1.50313" fill="#3958AC"/>
<mask id="path-26-inside-9_9517_205326" fill="white">
<path d="M130.021 18.0371H185.01V36.0747H130.021V18.0371Z"/>
</mask>
<path d="M130.021 18.0371H185.01V36.0747H130.021V18.0371Z" fill="#19274C"/>
<path d="M130.021 36.0747H130.522V18.0371H130.021H129.52V36.0747H130.021Z" fill="#3958AC" mask="url(#path-26-inside-9_9517_205326)"/>
<rect x="136.033" y="25.5527" width="30.0626" height="3.00626" rx="1.50313" fill="#3958AC"/>
<mask id="path-29-inside-10_9517_205326" fill="white">
<path d="M185.01 18.0371H240V36.0747H185.01V18.0371Z"/>
</mask>
<path d="M185.01 18.0371H240V36.0747H185.01V18.0371Z" fill="#19274C"/>
<path d="M185.01 36.0747H185.512V18.0371H185.01H184.509V36.0747H185.01Z" fill="#3958AC" mask="url(#path-29-inside-10_9517_205326)"/>
<rect x="191.023" y="25.5527" width="30.0626" height="3.00626" rx="1.50313" fill="#3958AC"/>
</g>
<path d="M240 36.0747V35.5736H0V36.0747V36.5757H240V36.0747Z" fill="#3958AC" mask="url(#path-17-inside-6_9517_205326)"/>
<g clip-path="url(#clip4_9517_205326)">
<mask id="path-32-inside-11_9517_205326" fill="white">
<path d="M0 36.0742H240V54.1118H0V36.0742Z"/>
</mask>
<rect width="20.0418" height="18.0376" transform="translate(0 36.0742)" fill="#121D39"/>
<g clip-path="url(#clip5_9517_205326)">
<path d="M11.0229 41.585L11.8733 43.7409L14.0292 44.5913L11.8733 45.4417L11.0229 47.5976L10.1725 45.4417L8.01663 44.5913L10.1725 43.7409L11.0229 41.585ZM7.48521 46.5651L6.01245 47.0965L7.48521 47.6279L8.01663 49.1007L8.54805 47.6279L10.0208 47.0965L8.54805 46.5651L8.01663 45.0923L7.48521 46.5651ZM7.11694 42.1885L6.01245 42.5871L7.11694 42.9858L7.51558 44.0902L7.91423 42.9858L9.01871 42.5871L7.91423 42.1885L7.51558 41.084L7.11694 42.1885Z" fill="#90ABDA"/>
</g>
<rect x="5.0105" y="39.582" width="10.0209" height="10.0209" rx="2.00418" fill="#6581CD" fill-opacity="0.3"/>
<mask id="path-36-inside-12_9517_205326" fill="white">
<path d="M20.0417 36.0742H75.0313V54.1118H20.0417V36.0742Z"/>
</mask>
<path d="M20.0417 36.0742H75.0313V54.1118H20.0417V36.0742Z" fill="#121D39"/>
<path d="M20.0417 54.1118H20.5428V36.0742H20.0417H19.5407V54.1118H20.0417Z" fill="#3958AC" mask="url(#path-36-inside-12_9517_205326)"/>
<rect x="26.0542" y="43.5898" width="30.0626" height="3.00626" rx="1.50313" fill="#3958AC"/>
<mask id="path-39-inside-13_9517_205326" fill="white">
<path d="M75.0312 36.0742H130.021V54.1118H75.0312V36.0742Z"/>
</mask>
<path d="M75.0312 36.0742H130.021V54.1118H75.0312V36.0742Z" fill="#121D39"/>
<path d="M75.0312 54.1118H75.5323V36.0742H75.0312H74.5302V54.1118H75.0312Z" fill="#3958AC" mask="url(#path-39-inside-13_9517_205326)"/>
<rect x="81.0437" y="43.5898" width="30.0626" height="3.00626" rx="1.50313" fill="#3958AC"/>
<mask id="path-42-inside-14_9517_205326" fill="white">
<path d="M130.021 36.0742H185.01V54.1118H130.021V36.0742Z"/>
</mask>
<path d="M130.021 36.0742H185.01V54.1118H130.021V36.0742Z" fill="#121D39"/>
<path d="M130.021 54.1118H130.522V36.0742H130.021H129.52V54.1118H130.021Z" fill="#3958AC" mask="url(#path-42-inside-14_9517_205326)"/>
<rect x="136.033" y="43.5898" width="30.0626" height="3.00626" rx="1.50313" fill="#3958AC"/>
<mask id="path-45-inside-15_9517_205326" fill="white">
<path d="M185.01 36.0742H240V54.1118H185.01V36.0742Z"/>
</mask>
<path d="M185.01 36.0742H240V54.1118H185.01V36.0742Z" fill="#121D39"/>
<path d="M185.01 54.1118H185.512V36.0742H185.01H184.509V54.1118H185.01Z" fill="#3958AC" mask="url(#path-45-inside-15_9517_205326)"/>
<rect x="191.023" y="43.5898" width="30.0626" height="3.00626" rx="1.50313" fill="#3958AC"/>
</g>
<path d="M240 54.1118V53.6108H0V54.1118V54.6128H240V54.1118Z" fill="#3958AC" mask="url(#path-32-inside-11_9517_205326)"/>
<g clip-path="url(#clip6_9517_205326)">
<mask id="path-48-inside-16_9517_205326" fill="white">
<path d="M0 54.1133H240V72.1509H0V54.1133Z"/>
</mask>
<rect width="20.0418" height="18.0376" transform="translate(0 54.1133)" fill="#19274C"/>
<g clip-path="url(#clip7_9517_205326)">
<path d="M11.0229 59.6241L11.8733 61.78L14.0292 62.6304L11.8733 63.4807L11.0229 65.6366L10.1725 63.4807L8.01663 62.6304L10.1725 61.78L11.0229 59.6241ZM7.48521 64.6042L6.01245 65.1356L7.48521 65.667L8.01663 67.1397L8.54805 65.667L10.0208 65.1356L8.54805 64.6042L8.01663 63.1314L7.48521 64.6042ZM7.11694 60.2275L6.01245 60.6262L7.11694 61.0248L7.51558 62.1293L7.91423 61.0248L9.01871 60.6262L7.91423 60.2275L7.51558 59.123L7.11694 60.2275Z" fill="#90ABDA"/>
</g>
<mask id="path-51-inside-17_9517_205326" fill="white">
<path d="M20.0417 54.1133H75.0313V72.1509H20.0417V54.1133Z"/>
</mask>
<path d="M20.0417 54.1133H75.0313V72.1509H20.0417V54.1133Z" fill="#19274C"/>
<path d="M20.0417 72.1509H20.5428V54.1133H20.0417H19.5407V72.1509H20.0417Z" fill="#3958AC" mask="url(#path-51-inside-17_9517_205326)"/>
<rect x="26.0542" y="61.6289" width="30.0626" height="3.00626" rx="1.50313" fill="#3958AC"/>
<mask id="path-54-inside-18_9517_205326" fill="white">
<path d="M75.0312 54.1133H130.021V72.1509H75.0312V54.1133Z"/>
</mask>
<path d="M75.0312 54.1133H130.021V72.1509H75.0312V54.1133Z" fill="#19274C"/>
<path d="M75.0312 72.1509H75.5323V54.1133H75.0312H74.5302V72.1509H75.0312Z" fill="#3958AC" mask="url(#path-54-inside-18_9517_205326)"/>
<rect x="81.0437" y="61.6289" width="30.0626" height="3.00626" rx="1.50313" fill="#3958AC"/>
<mask id="path-57-inside-19_9517_205326" fill="white">
<path d="M130.021 54.1133H185.01V72.1509H130.021V54.1133Z"/>
</mask>
<path d="M130.021 54.1133H185.01V72.1509H130.021V54.1133Z" fill="#19274C"/>
<path d="M130.021 72.1509H130.522V54.1133H130.021H129.52V72.1509H130.021Z" fill="#3958AC" mask="url(#path-57-inside-19_9517_205326)"/>
<rect x="136.033" y="61.6289" width="30.0626" height="3.00626" rx="1.50313" fill="#3958AC"/>
<mask id="path-60-inside-20_9517_205326" fill="white">
<path d="M185.01 54.1133H240V72.1509H185.01V54.1133Z"/>
</mask>
<path d="M185.01 54.1133H240V72.1509H185.01V54.1133Z" fill="#19274C"/>
<path d="M185.01 72.1509H185.512V54.1133H185.01H184.509V72.1509H185.01Z" fill="#3958AC" mask="url(#path-60-inside-20_9517_205326)"/>
<rect x="191.023" y="61.6289" width="30.0626" height="3.00626" rx="1.50313" fill="#3958AC"/>
</g>
<path d="M240 72.1509V71.6498H0V72.1509V72.6519H240V72.1509Z" fill="#3958AC" mask="url(#path-48-inside-16_9517_205326)"/>
<g clip-path="url(#clip8_9517_205326)">
<mask id="path-63-inside-21_9517_205326" fill="white">
<path d="M0 72.1504H240V90.188H0V72.1504Z"/>
</mask>
<rect width="20.0418" height="18.0376" transform="translate(0 72.1504)" fill="#121D39"/>
<g clip-path="url(#clip9_9517_205326)">
<path d="M11.0229 77.6612L11.8733 79.8171L14.0292 80.6675L11.8733 81.5178L11.0229 83.6737L10.1725 81.5178L8.01663 80.6675L10.1725 79.8171L11.0229 77.6612ZM7.48521 82.6413L6.01245 83.1727L7.48521 83.7041L8.01663 85.1769L8.54805 83.7041L10.0208 83.1727L8.54805 82.6413L8.01663 81.1685L7.48521 82.6413ZM7.11694 78.2646L6.01245 78.6633L7.11694 79.0619L7.51558 80.1664L7.91423 79.0619L9.01871 78.6633L7.91423 78.2646L7.51558 77.1602L7.11694 78.2646Z" fill="#90ABDA"/>
</g>
<mask id="path-66-inside-22_9517_205326" fill="white">
<path d="M20.0417 72.1504H75.0313V90.188H20.0417V72.1504Z"/>
</mask>
<path d="M20.0417 72.1504H75.0313V90.188H20.0417V72.1504Z" fill="#121D39"/>
<path d="M20.0417 90.188H20.5428V72.1504H20.0417H19.5407V90.188H20.0417Z" fill="#3958AC" mask="url(#path-66-inside-22_9517_205326)"/>
<rect x="26.0542" y="79.666" width="30.0626" height="3.00626" rx="1.50313" fill="#3958AC"/>
<mask id="path-69-inside-23_9517_205326" fill="white">
<path d="M75.0312 72.1504H130.021V90.188H75.0312V72.1504Z"/>
</mask>
<path d="M75.0312 72.1504H130.021V90.188H75.0312V72.1504Z" fill="#121D39"/>
<path d="M75.0312 90.188H75.5323V72.1504H75.0312H74.5302V90.188H75.0312Z" fill="#3958AC" mask="url(#path-69-inside-23_9517_205326)"/>
<rect x="81.0439" y="79.666" width="30.0626" height="3.00626" rx="1.50313" fill="#3958AC"/>
<mask id="path-72-inside-24_9517_205326" fill="white">
<path d="M130.021 72.1504H185.01V90.188H130.021V72.1504Z"/>
</mask>
<path d="M130.021 72.1504H185.01V90.188H130.021V72.1504Z" fill="#121D39"/>
<path d="M130.021 90.188H130.522V72.1504H130.021H129.52V90.188H130.021Z" fill="#3958AC" mask="url(#path-72-inside-24_9517_205326)"/>
<rect x="136.033" y="79.666" width="30.0626" height="3.00626" rx="1.50313" fill="#3958AC"/>
<mask id="path-75-inside-25_9517_205326" fill="white">
<path d="M185.01 72.1504H240V90.188H185.01V72.1504Z"/>
</mask>
<path d="M185.01 72.1504H240V90.188H185.01V72.1504Z" fill="#121D39"/>
<path d="M185.01 90.188H185.512V72.1504H185.01H184.509V90.188H185.01Z" fill="#3958AC" mask="url(#path-75-inside-25_9517_205326)"/>
<rect x="191.023" y="79.666" width="30.0626" height="3.00626" rx="1.50313" fill="#3958AC"/>
</g>
<path d="M240 90.188V89.6869H0V90.188V90.689H240V90.188Z" fill="#3958AC" mask="url(#path-63-inside-21_9517_205326)"/>
<g clip-path="url(#clip10_9517_205326)">
<mask id="path-78-inside-26_9517_205326" fill="white">
<path d="M0 90.1875H240V108.225H0V90.1875Z"/>
</mask>
<rect width="20.0418" height="18.0376" transform="translate(0 90.1875)" fill="#19274C"/>
<g clip-path="url(#clip11_9517_205326)">
<path d="M11.0229 95.6983L11.8733 97.8542L14.0292 98.7046L11.8733 99.5549L11.0229 101.711L10.1725 99.5549L8.01663 98.7046L10.1725 97.8542L11.0229 95.6983ZM7.48521 100.678L6.01245 101.21L7.48521 101.741L8.01663 103.214L8.54805 101.741L10.0208 101.21L8.54805 100.678L8.01663 99.2056L7.48521 100.678ZM7.11694 96.3018L6.01245 96.7004L7.11694 97.099L7.51558 98.2035L7.91423 97.099L9.01871 96.7004L7.91423 96.3018L7.51558 95.1973L7.11694 96.3018Z" fill="#90ABDA"/>
</g>
<mask id="path-81-inside-27_9517_205326" fill="white">
<path d="M20.0417 90.1875H75.0313V108.225H20.0417V90.1875Z"/>
</mask>
<path d="M20.0417 90.1875H75.0313V108.225H20.0417V90.1875Z" fill="#19274C"/>
<path d="M20.0417 108.225H20.5428V90.1875H20.0417H19.5407V108.225H20.0417Z" fill="#3958AC" mask="url(#path-81-inside-27_9517_205326)"/>
<rect x="26.0542" y="97.7031" width="30.0626" height="3.00626" rx="1.50313" fill="#3958AC"/>
<mask id="path-84-inside-28_9517_205326" fill="white">
<path d="M75.0312 90.1875H130.021V108.225H75.0312V90.1875Z"/>
</mask>
<path d="M75.0312 90.1875H130.021V108.225H75.0312V90.1875Z" fill="#19274C"/>
<path d="M75.0312 108.225H75.5323V90.1875H75.0312H74.5302V108.225H75.0312Z" fill="#3958AC" mask="url(#path-84-inside-28_9517_205326)"/>
<rect x="81.0437" y="97.7031" width="30.0626" height="3.00626" rx="1.50313" fill="#3958AC"/>
<mask id="path-87-inside-29_9517_205326" fill="white">
<path d="M130.021 90.1875H185.01V108.225H130.021V90.1875Z"/>
</mask>
<path d="M130.021 90.1875H185.01V108.225H130.021V90.1875Z" fill="#19274C"/>
<path d="M130.021 108.225H130.522V90.1875H130.021H129.52V108.225H130.021Z" fill="#3958AC" mask="url(#path-87-inside-29_9517_205326)"/>
<rect x="136.033" y="97.7031" width="30.0626" height="3.00626" rx="1.50313" fill="#3958AC"/>
<mask id="path-90-inside-30_9517_205326" fill="white">
<path d="M185.01 90.1875H240V108.225H185.01V90.1875Z"/>
</mask>
<path d="M185.01 90.1875H240V108.225H185.01V90.1875Z" fill="#19274C"/>
<path d="M185.01 108.225H185.512V90.1875H185.01H184.509V108.225H185.01Z" fill="#3958AC" mask="url(#path-90-inside-30_9517_205326)"/>
<rect x="191.023" y="97.7031" width="30.0626" height="3.00626" rx="1.50313" fill="#3958AC"/>
</g>
<path d="M240 108.225V107.724H0V108.225V108.726H240V108.225Z" fill="#3958AC" mask="url(#path-78-inside-26_9517_205326)"/>
<g clip-path="url(#clip12_9517_205326)">
<mask id="path-93-inside-31_9517_205326" fill="white">
<path d="M0 108.225H240V126.262H0V108.225Z"/>
</mask>
<rect width="20.0418" height="18.0376" transform="translate(0 108.225)" fill="#121D39"/>
<g clip-path="url(#clip13_9517_205326)">
<path d="M11.0229 113.735L11.8733 115.891L14.0292 116.742L11.8733 117.592L11.0229 119.748L10.1725 117.592L8.01663 116.742L10.1725 115.891L11.0229 113.735ZM7.48521 118.715L6.01245 119.247L7.48521 119.778L8.01663 121.251L8.54805 119.778L10.0208 119.247L8.54805 118.715L8.01663 117.243L7.48521 118.715ZM7.11694 114.339L6.01245 114.738L7.11694 115.136L7.51558 116.241L7.91423 115.136L9.01871 114.738L7.91423 114.339L7.51558 113.234L7.11694 114.339Z" fill="#90ABDA"/>
</g>
<mask id="path-96-inside-32_9517_205326" fill="white">
<path d="M20.0417 108.225H75.0313V126.262H20.0417V108.225Z"/>
</mask>
<path d="M20.0417 108.225H75.0313V126.262H20.0417V108.225Z" fill="#121D39"/>
<path d="M20.0417 126.262H20.5428V108.225H20.0417H19.5407V126.262H20.0417Z" fill="#3958AC" mask="url(#path-96-inside-32_9517_205326)"/>
<rect x="26.0542" y="115.74" width="30.0626" height="3.00626" rx="1.50313" fill="#3958AC"/>
<mask id="path-99-inside-33_9517_205326" fill="white">
<path d="M75.0312 108.225H130.021V126.262H75.0312V108.225Z"/>
</mask>
<path d="M75.0312 108.225H130.021V126.262H75.0312V108.225Z" fill="#121D39"/>
<path d="M75.0312 126.262H75.5323V108.225H75.0312H74.5302V126.262H75.0312Z" fill="#3958AC" mask="url(#path-99-inside-33_9517_205326)"/>
<rect x="81.0437" y="115.74" width="30.0626" height="3.00626" rx="1.50313" fill="#3958AC"/>
<mask id="path-102-inside-34_9517_205326" fill="white">
<path d="M130.021 108.225H185.01V126.262H130.021V108.225Z"/>
</mask>
<path d="M130.021 108.225H185.01V126.262H130.021V108.225Z" fill="#121D39"/>
<path d="M130.021 126.262H130.522V108.225H130.021H129.52V126.262H130.021Z" fill="#3958AC" mask="url(#path-102-inside-34_9517_205326)"/>
<rect x="136.033" y="115.74" width="30.0626" height="3.00626" rx="1.50313" fill="#3958AC"/>
<mask id="path-105-inside-35_9517_205326" fill="white">
<path d="M185.01 108.225H240V126.262H185.01V108.225Z"/>
</mask>
<path d="M185.01 108.225H240V126.262H185.01V108.225Z" fill="#121D39"/>
<path d="M185.01 126.262H185.512V108.225H185.01H184.509V126.262H185.01Z" fill="#3958AC" mask="url(#path-105-inside-35_9517_205326)"/>
<rect x="191.023" y="115.74" width="30.0626" height="3.00626" rx="1.50313" fill="#3958AC"/>
</g>
<path d="M240 126.262V125.761H0V126.262V126.763H240V126.262Z" fill="#3958AC" mask="url(#path-93-inside-31_9517_205326)"/>
<g filter="url(#filter0_dd_9517_205326)">
<path d="M5.0105 49.6035H155.324V77.662H5.0105V49.6035Z" fill="#121D39"/>
<path d="M155.073 49.8545V77.4111H5.26147V49.8545H155.073Z" stroke="#3958AC" stroke-width="0.501044"/>
<path d="M13.5278 56.3682H146.806C147.774 56.3684 148.559 57.1528 148.559 58.1211V69.1445C148.559 70.1128 147.774 70.8982 146.806 70.8984H13.5278C12.5595 70.8983 11.775 70.1129 11.7749 69.1445V58.1211C11.775 57.1528 12.5595 56.3683 13.5278 56.3682Z" fill="#19274C"/>
<path d="M13.5278 56.3682H146.806C147.774 56.3684 148.559 57.1528 148.559 58.1211V69.1445C148.559 70.1128 147.774 70.8982 146.806 70.8984H13.5278C12.5595 70.8983 11.775 70.1129 11.7749 69.1445V58.1211C11.775 57.1528 12.5595 56.3683 13.5278 56.3682Z" stroke="#3958AC" stroke-width="0.501044"/>
<path d="M19.3698 67.1396H17.7072C17.5479 67.1396 17.4187 67.0275 17.4187 66.8891C17.4187 66.7507 17.5479 66.6386 17.7072 66.6386H18.2502V65.9241C17.1607 65.8516 16.6163 65.3709 16.3482 64.9627C16.0368 64.4883 16.0332 64.0142 16.0332 63.9943C16.0332 63.8559 16.1624 63.7438 16.3216 63.7438C16.4809 63.7438 16.6094 63.8554 16.61 63.9934C16.61 64.0018 16.618 64.3728 16.8599 64.7305C17.1748 65.1963 17.7396 65.4326 18.5386 65.4326C19.3376 65.4326 19.9024 65.1965 20.2172 64.7305C20.4606 64.3706 20.467 63.9971 20.4671 63.9934C20.4671 63.855 20.5963 63.7433 20.7555 63.7433C20.9148 63.7433 21.044 63.8561 21.044 63.9943C21.044 64.0142 21.0404 64.4883 20.7289 64.9627C20.4609 65.3711 19.9165 65.8516 18.827 65.9241V66.6386H19.37C19.5292 66.6386 19.6584 66.7507 19.6584 66.8891C19.6584 67.0275 19.5292 67.1396 19.37 67.1396H19.3698ZM18.5386 64.9684C17.9768 64.9684 17.5407 64.7478 17.3107 64.3472C17.1466 64.0615 17.1418 63.7836 17.1418 63.7529V61.3405C17.1418 61.3098 17.1465 61.032 17.3107 60.7461C17.5407 60.3456 17.9768 60.125 18.5386 60.125C19.1004 60.125 19.5364 60.3456 19.7664 60.7461C19.9305 61.0319 19.9354 61.3098 19.9354 61.3405V63.7529C19.9354 63.7836 19.9307 64.0613 19.7664 64.3472C19.5364 64.7478 19.1004 64.9684 18.5386 64.9684ZM18.5386 60.626C18.1987 60.626 17.9682 60.7344 17.8341 60.9574C17.7225 61.1429 17.7186 61.34 17.7186 61.3421V63.753C17.7186 63.753 17.7225 63.9506 17.8341 64.1362C17.9682 64.3591 18.1987 64.4675 18.5386 64.4675C18.8785 64.4675 19.109 64.3591 19.243 64.1362C19.3547 63.9506 19.3586 63.7535 19.3586 63.7515V61.3405C19.3586 61.3405 19.3547 61.1429 19.243 60.9574C19.109 60.7344 18.8785 60.626 18.5386 60.626Z" fill="#90ABDA"/>
<rect width="0.501044" height="8.0167" transform="translate(25.5532 59.625)" fill="#3958AC"/>
<rect x="32.0669" y="62.1309" width="41.0856" height="3.00626" rx="1.50313" fill="#6581CD"/>
<path d="M145.142 63.8818L138.637 66.6197C138.432 66.7063 138.226 66.4937 138.305 66.2757L139.061 64.1869C139.095 64.0935 139.176 64.0277 139.27 64.0162C142.679 63.6332 141.542 63.756 142.679 63.6332C141.542 63.5105 142.679 63.6332 139.27 63.2502C139.176 63.2387 139.095 63.1729 139.061 63.0795L138.305 60.9907C138.226 60.7727 138.432 60.5601 138.637 60.6468L145.142 63.3846C145.356 63.4744 145.356 63.7921 145.142 63.8818Z" fill="#90ABDA"/>
</g>
</g>
<rect x="0.250522" y="0.250522" width="239.499" height="125.762" stroke="#3958AC" stroke-width="0.501044"/>
<defs>
<filter id="filter0_dd_9517_205326" x="0.010498" y="47.6035" width="160.313" height="39.0586" filterUnits="userSpaceOnUse" color-interpolation-filters="sRGB">
<feFlood flood-opacity="0" result="BackgroundImageFix"/>
<feColorMatrix in="SourceAlpha" type="matrix" values="0 0 0 0 0 0 0 0 0 0 0 0 0 0 0 0 0 0 127 0" result="hardAlpha"/>
<feOffset dy="4"/>
<feGaussianBlur stdDeviation="2.5"/>
<feColorMatrix type="matrix" values="0 0 0 0 0.239216 0 0 0 0 0.341176 0 0 0 0 0.847059 0 0 0 0.04 0"/>
<feBlend mode="normal" in2="BackgroundImageFix" result="effect1_dropShadow_9517_205326"/>
<feColorMatrix in="SourceAlpha" type="matrix" values="0 0 0 0 0 0 0 0 0 0 0 0 0 0 0 0 0 0 127 0" result="hardAlpha"/>
<feOffset dy="2"/>
<feGaussianBlur stdDeviation="2"/>
<feColorMatrix type="matrix" values="0 0 0 0 0.239216 0 0 0 0 0.341176 0 0 0 0 0.847059 0 0 0 0.03 0"/>
<feBlend mode="normal" in2="effect1_dropShadow_9517_205326" result="effect2_dropShadow_9517_205326"/>
<feBlend mode="normal" in="SourceGraphic" in2="effect2_dropShadow_9517_205326" result="shape"/>
</filter>
<clipPath id="clip0_9517_205326">
<rect width="240" height="126.263" fill="white"/>
</clipPath>
<clipPath id="clip1_9517_205326">
<path d="M0 0H240V18.0376H0V0Z" fill="white"/>
</clipPath>
<clipPath id="clip2_9517_205326">
<path d="M0 18.0371H240V36.0747H0V18.0371Z" fill="white"/>
</clipPath>
<clipPath id="clip3_9517_205326">
<rect width="8.0167" height="8.0167" fill="white" transform="translate(6.01245 23.0469)"/>
</clipPath>
<clipPath id="clip4_9517_205326">
<path d="M0 36.0742H240V54.1118H0V36.0742Z" fill="white"/>
</clipPath>
<clipPath id="clip5_9517_205326">
<rect width="8.0167" height="8.0167" fill="white" transform="translate(6.01245 41.084)"/>
</clipPath>
<clipPath id="clip6_9517_205326">
<path d="M0 54.1133H240V72.1509H0V54.1133Z" fill="white"/>
</clipPath>
<clipPath id="clip7_9517_205326">
<rect width="8.0167" height="8.0167" fill="white" transform="translate(6.01245 59.123)"/>
</clipPath>
<clipPath id="clip8_9517_205326">
<path d="M0 72.1504H240V90.188H0V72.1504Z" fill="white"/>
</clipPath>
<clipPath id="clip9_9517_205326">
<rect width="8.0167" height="8.0167" fill="white" transform="translate(6.01245 77.1602)"/>
</clipPath>
<clipPath id="clip10_9517_205326">
<path d="M0 90.1875H240V108.225H0V90.1875Z" fill="white"/>
</clipPath>
<clipPath id="clip11_9517_205326">
<rect width="8.0167" height="8.0167" fill="white" transform="translate(6.01245 95.1973)"/>
</clipPath>
<clipPath id="clip12_9517_205326">
<path d="M0 108.225H240V126.262H0V108.225Z" fill="white"/>
</clipPath>
<clipPath id="clip13_9517_205326">
<rect width="8.0167" height="8.0167" fill="white" transform="translate(6.01245 113.234)"/>
</clipPath>
</defs>
</svg>
