<svg width="160" height="85" viewBox="0 0 160 85" fill="none" xmlns="http://www.w3.org/2000/svg">
<g clip-path="url(#clip0_9517_207639)">
<g clip-path="url(#clip1_9517_207639)">
<mask id="path-3-inside-1_9517_207639" fill="white">
<path d="M0 0H160V12.0251H0V0Z"/>
</mask>
<rect width="13.3612" height="12.0251" fill="#2A417E"/>
<mask id="path-5-inside-2_9517_207639" fill="white">
<path d="M13.3611 0H50.0208V12.0251H13.3611V0Z"/>
</mask>
<path d="M13.3611 0H50.0208V12.0251H13.3611V0Z" fill="#2A417E"/>
<path d="M13.3611 12.0251H13.6951V0H13.3611H13.0271V12.0251H13.3611Z" fill="#3958AC" mask="url(#path-5-inside-2_9517_207639)"/>
<rect x="17.3696" y="5.00977" width="22.2686" height="2.00418" rx="1.00209" fill="#6581CD"/>
<mask id="path-8-inside-3_9517_207639" fill="white">
<path d="M50.021 0H86.6807V12.0251H50.021V0Z"/>
</mask>
<path d="M50.021 0H86.6807V12.0251H50.021V0Z" fill="#2A417E"/>
<path d="M50.021 12.0251H50.355V0H50.021H49.687V12.0251H50.021Z" fill="#3958AC" mask="url(#path-8-inside-3_9517_207639)"/>
<rect x="54.0293" y="5.00977" width="22.2686" height="2.00418" rx="1.00209" fill="#6581CD"/>
<mask id="path-11-inside-4_9517_207639" fill="white">
<path d="M86.6807 0H123.34V12.0251H86.6807V0Z"/>
</mask>
<path d="M86.6807 0H123.34V12.0251H86.6807V0Z" fill="#2A417E"/>
<path d="M86.6807 12.0251H87.0147V0H86.6807H86.3466V12.0251H86.6807Z" fill="#3958AC" mask="url(#path-11-inside-4_9517_207639)"/>
<rect x="90.689" y="5.00977" width="22.2686" height="2.00418" rx="1.00209" fill="#6581CD"/>
<mask id="path-14-inside-5_9517_207639" fill="white">
<path d="M123.34 0H160V12.0251H123.34V0Z"/>
</mask>
<path d="M123.34 0H160V12.0251H123.34V0Z" fill="#2A417E"/>
<path d="M123.34 12.0251H123.674V0H123.34H123.006V12.0251H123.34Z" fill="#3958AC" mask="url(#path-14-inside-5_9517_207639)"/>
<rect x="127.349" y="5.00977" width="22.2686" height="2.00418" rx="1.00209" fill="#6581CD"/>
</g>
<path d="M160 12.0251V11.691H0V12.0251V12.3591H160V12.0251Z" fill="#3958AC" mask="url(#path-3-inside-1_9517_207639)"/>
<g clip-path="url(#clip2_9517_207639)">
<mask id="path-17-inside-6_9517_207639" fill="white">
<path d="M0 12.0254H160V24.0504H0V12.0254Z"/>
</mask>
<rect width="13.3612" height="12.0251" transform="translate(0 12.0254)" fill="#19274C"/>
<g clip-path="url(#clip3_9517_207639)">
<path d="M7.34859 15.6993L7.9155 17.1365L9.35277 17.7034L7.9155 18.2703L7.34859 19.7076L6.78168 18.2703L5.34442 17.7034L6.78168 17.1365L7.34859 15.6993ZM4.99014 19.0193L4.0083 19.3736L4.99014 19.7279L5.34442 20.7097L5.6987 19.7279L6.68053 19.3736L5.6987 19.0193L5.34442 18.0375L4.99014 19.0193ZM4.74463 16.1016L4.0083 16.3673L4.74463 16.6331L5.01039 17.3694L5.27615 16.6331L6.01248 16.3673L5.27615 16.1016L5.01039 15.3652L4.74463 16.1016Z" fill="#90ABDA"/>
</g>
<mask id="path-20-inside-7_9517_207639" fill="white">
<path d="M13.3611 12.0254H50.0208V24.0504H13.3611V12.0254Z"/>
</mask>
<path d="M13.3611 12.0254H50.0208V24.0504H13.3611V12.0254Z" fill="#19274C"/>
<path d="M13.3611 24.0504H13.6951V12.0254H13.3611H13.0271V24.0504H13.3611Z" fill="#3958AC" mask="url(#path-20-inside-7_9517_207639)"/>
<rect x="17.3694" y="17.0352" width="20.0418" height="2.00418" rx="1.00209" fill="#3958AC"/>
<mask id="path-23-inside-8_9517_207639" fill="white">
<path d="M50.021 12.0254H86.6807V24.0504H50.021V12.0254Z"/>
</mask>
<path d="M50.021 12.0254H86.6807V24.0504H50.021V12.0254Z" fill="#19274C"/>
<path d="M50.021 24.0504H50.355V12.0254H50.021H49.687V24.0504H50.021Z" fill="#3958AC" mask="url(#path-23-inside-8_9517_207639)"/>
<rect x="54.0293" y="17.0352" width="20.0418" height="2.00418" rx="1.00209" fill="#3958AC"/>
<mask id="path-26-inside-9_9517_207639" fill="white">
<path d="M86.6807 12.0254H123.34V24.0504H86.6807V12.0254Z"/>
</mask>
<path d="M86.6807 12.0254H123.34V24.0504H86.6807V12.0254Z" fill="#19274C"/>
<path d="M86.6807 24.0504H87.0147V12.0254H86.6807H86.3466V24.0504H86.6807Z" fill="#3958AC" mask="url(#path-26-inside-9_9517_207639)"/>
<rect x="90.689" y="17.0352" width="20.0418" height="2.00418" rx="1.00209" fill="#3958AC"/>
<mask id="path-29-inside-10_9517_207639" fill="white">
<path d="M123.34 12.0254H160V24.0504H123.34V12.0254Z"/>
</mask>
<path d="M123.34 12.0254H160V24.0504H123.34V12.0254Z" fill="#19274C"/>
<path d="M123.34 24.0504H123.674V12.0254H123.34H123.006V24.0504H123.34Z" fill="#3958AC" mask="url(#path-29-inside-10_9517_207639)"/>
<rect x="127.349" y="17.0352" width="20.0418" height="2.00418" rx="1.00209" fill="#3958AC"/>
</g>
<path d="M160 24.0504V23.7164H0V24.0504V24.3845H160V24.0504Z" fill="#3958AC" mask="url(#path-17-inside-6_9517_207639)"/>
<g clip-path="url(#clip4_9517_207639)">
<mask id="path-32-inside-11_9517_207639" fill="white">
<path d="M0 24.0508H160V36.0758H0V24.0508Z"/>
</mask>
<rect width="13.3612" height="12.0251" transform="translate(0 24.0508)" fill="#121D39"/>
<g clip-path="url(#clip5_9517_207639)">
<path d="M7.34859 27.7247L7.9155 29.1619L9.35277 29.7288L7.9155 30.2957L7.34859 31.733L6.78168 30.2957L5.34442 29.7288L6.78168 29.1619L7.34859 27.7247ZM4.99014 31.0447L4.0083 31.399L4.99014 31.7533L5.34442 32.7351L5.6987 31.7533L6.68053 31.399L5.6987 31.0447L5.34442 30.0629L4.99014 31.0447ZM4.74463 28.127L4.0083 28.3927L4.74463 28.6585L5.01039 29.3948L5.27615 28.6585L6.01248 28.3927L5.27615 28.127L5.01039 27.3906L4.74463 28.127Z" fill="#90ABDA"/>
</g>
<rect x="3.34033" y="26.3887" width="6.68058" height="6.68058" rx="1.33612" fill="#6581CD" fill-opacity="0.3"/>
<mask id="path-36-inside-12_9517_207639" fill="white">
<path d="M13.3611 24.0508H50.0208V36.0758H13.3611V24.0508Z"/>
</mask>
<path d="M13.3611 24.0508H50.0208V36.0758H13.3611V24.0508Z" fill="#121D39"/>
<path d="M13.3611 36.0758H13.6951V24.0508H13.3611H13.0271V36.0758H13.3611Z" fill="#3958AC" mask="url(#path-36-inside-12_9517_207639)"/>
<rect x="17.3694" y="29.0605" width="20.0418" height="2.00418" rx="1.00209" fill="#3958AC"/>
<mask id="path-39-inside-13_9517_207639" fill="white">
<path d="M50.021 24.0508H86.6807V36.0758H50.021V24.0508Z"/>
</mask>
<path d="M50.021 24.0508H86.6807V36.0758H50.021V24.0508Z" fill="#121D39"/>
<path d="M50.021 36.0758H50.355V24.0508H50.021H49.687V36.0758H50.021Z" fill="#3958AC" mask="url(#path-39-inside-13_9517_207639)"/>
<rect x="54.0293" y="29.0605" width="20.0418" height="2.00418" rx="1.00209" fill="#3958AC"/>
<mask id="path-42-inside-14_9517_207639" fill="white">
<path d="M86.6807 24.0508H123.34V36.0758H86.6807V24.0508Z"/>
</mask>
<path d="M86.6807 24.0508H123.34V36.0758H86.6807V24.0508Z" fill="#121D39"/>
<path d="M86.6807 36.0758H87.0147V24.0508H86.6807H86.3466V36.0758H86.6807Z" fill="#3958AC" mask="url(#path-42-inside-14_9517_207639)"/>
<rect x="90.689" y="29.0605" width="20.0418" height="2.00418" rx="1.00209" fill="#3958AC"/>
<mask id="path-45-inside-15_9517_207639" fill="white">
<path d="M123.34 24.0508H160V36.0758H123.34V24.0508Z"/>
</mask>
<path d="M123.34 24.0508H160V36.0758H123.34V24.0508Z" fill="#121D39"/>
<path d="M123.34 36.0758H123.674V24.0508H123.34H123.006V36.0758H123.34Z" fill="#3958AC" mask="url(#path-45-inside-15_9517_207639)"/>
<rect x="127.349" y="29.0605" width="20.0418" height="2.00418" rx="1.00209" fill="#3958AC"/>
</g>
<path d="M160 36.0758V35.7418H0V36.0758V36.4099H160V36.0758Z" fill="#3958AC" mask="url(#path-32-inside-11_9517_207639)"/>
<g clip-path="url(#clip6_9517_207639)">
<mask id="path-48-inside-16_9517_207639" fill="white">
<path d="M0 36.0742H160V48.0993H0V36.0742Z"/>
</mask>
<rect width="13.3612" height="12.0251" transform="translate(0 36.0742)" fill="#19274C"/>
<g clip-path="url(#clip7_9517_207639)">
<path d="M7.34859 39.7481L7.9155 41.1854L9.35277 41.7523L7.9155 42.3192L7.34859 43.7564L6.78168 42.3192L5.34442 41.7523L6.78168 41.1854L7.34859 39.7481ZM4.99014 43.0681L4.0083 43.4224L4.99014 43.7767L5.34442 44.7585L5.6987 43.7767L6.68053 43.4224L5.6987 43.0681L5.34442 42.0863L4.99014 43.0681ZM4.74463 40.1504L4.0083 40.4162L4.74463 40.6819L5.01039 41.4182L5.27615 40.6819L6.01248 40.4162L5.27615 40.1504L5.01039 39.4141L4.74463 40.1504Z" fill="#90ABDA"/>
</g>
<mask id="path-51-inside-17_9517_207639" fill="white">
<path d="M13.3611 36.0742H50.0208V48.0993H13.3611V36.0742Z"/>
</mask>
<path d="M13.3611 36.0742H50.0208V48.0993H13.3611V36.0742Z" fill="#19274C"/>
<path d="M13.3611 48.0993H13.6951V36.0742H13.3611H13.0271V48.0993H13.3611Z" fill="#3958AC" mask="url(#path-51-inside-17_9517_207639)"/>
<rect x="17.3694" y="41.084" width="20.0418" height="2.00418" rx="1.00209" fill="#3958AC"/>
<mask id="path-54-inside-18_9517_207639" fill="white">
<path d="M50.021 36.0742H86.6807V48.0993H50.021V36.0742Z"/>
</mask>
<path d="M50.021 36.0742H86.6807V48.0993H50.021V36.0742Z" fill="#19274C"/>
<path d="M50.021 48.0993H50.355V36.0742H50.021H49.687V48.0993H50.021Z" fill="#3958AC" mask="url(#path-54-inside-18_9517_207639)"/>
<rect x="54.0293" y="41.084" width="20.0418" height="2.00418" rx="1.00209" fill="#3958AC"/>
<mask id="path-57-inside-19_9517_207639" fill="white">
<path d="M86.6807 36.0742H123.34V48.0993H86.6807V36.0742Z"/>
</mask>
<path d="M86.6807 36.0742H123.34V48.0993H86.6807V36.0742Z" fill="#19274C"/>
<path d="M86.6807 48.0993H87.0147V36.0742H86.6807H86.3466V48.0993H86.6807Z" fill="#3958AC" mask="url(#path-57-inside-19_9517_207639)"/>
<rect x="90.689" y="41.084" width="20.0418" height="2.00418" rx="1.00209" fill="#3958AC"/>
<mask id="path-60-inside-20_9517_207639" fill="white">
<path d="M123.34 36.0742H160V48.0993H123.34V36.0742Z"/>
</mask>
<path d="M123.34 36.0742H160V48.0993H123.34V36.0742Z" fill="#19274C"/>
<path d="M123.34 48.0993H123.674V36.0742H123.34H123.006V48.0993H123.34Z" fill="#3958AC" mask="url(#path-60-inside-20_9517_207639)"/>
<rect x="127.349" y="41.084" width="20.0418" height="2.00418" rx="1.00209" fill="#3958AC"/>
</g>
<path d="M160 48.0993V47.7652H0V48.0993V48.4333H160V48.0993Z" fill="#3958AC" mask="url(#path-48-inside-16_9517_207639)"/>
<g clip-path="url(#clip8_9517_207639)">
<mask id="path-63-inside-21_9517_207639" fill="white">
<path d="M0 48.0996H160V60.1247H0V48.0996Z"/>
</mask>
<rect width="13.3612" height="12.0251" transform="translate(0 48.0996)" fill="#121D39"/>
<g clip-path="url(#clip9_9517_207639)">
<path d="M7.34859 51.7735L7.9155 53.2107L9.35277 53.7777L7.9155 54.3446L7.34859 55.7818L6.78168 54.3446L5.34442 53.7777L6.78168 53.2107L7.34859 51.7735ZM4.99014 55.0935L4.0083 55.4478L4.99014 55.8021L5.34442 56.7839L5.6987 55.8021L6.68053 55.4478L5.6987 55.0935L5.34442 54.1117L4.99014 55.0935ZM4.74463 52.1758L4.0083 52.4415L4.74463 52.7073L5.01039 53.4436L5.27615 52.7073L6.01248 52.4415L5.27615 52.1758L5.01039 51.4395L4.74463 52.1758Z" fill="#90ABDA"/>
</g>
<mask id="path-66-inside-22_9517_207639" fill="white">
<path d="M13.3611 48.0996H50.0208V60.1247H13.3611V48.0996Z"/>
</mask>
<path d="M13.3611 48.0996H50.0208V60.1247H13.3611V48.0996Z" fill="#121D39"/>
<path d="M13.3611 60.1247H13.6951V48.0996H13.3611H13.0271V60.1247H13.3611Z" fill="#3958AC" mask="url(#path-66-inside-22_9517_207639)"/>
<rect x="17.3694" y="53.1094" width="20.0418" height="2.00418" rx="1.00209" fill="#3958AC"/>
<mask id="path-69-inside-23_9517_207639" fill="white">
<path d="M50.021 48.0996H86.6807V60.1247H50.021V48.0996Z"/>
</mask>
<path d="M50.021 48.0996H86.6807V60.1247H50.021V48.0996Z" fill="#121D39"/>
<path d="M50.021 60.1247H50.355V48.0996H50.021H49.687V60.1247H50.021Z" fill="#3958AC" mask="url(#path-69-inside-23_9517_207639)"/>
<rect x="54.0293" y="53.1094" width="20.0418" height="2.00418" rx="1.00209" fill="#3958AC"/>
<mask id="path-72-inside-24_9517_207639" fill="white">
<path d="M86.6807 48.0996H123.34V60.1247H86.6807V48.0996Z"/>
</mask>
<path d="M86.6807 48.0996H123.34V60.1247H86.6807V48.0996Z" fill="#121D39"/>
<path d="M86.6807 60.1247H87.0147V48.0996H86.6807H86.3466V60.1247H86.6807Z" fill="#3958AC" mask="url(#path-72-inside-24_9517_207639)"/>
<rect x="90.689" y="53.1094" width="20.0418" height="2.00418" rx="1.00209" fill="#3958AC"/>
<mask id="path-75-inside-25_9517_207639" fill="white">
<path d="M123.34 48.0996H160V60.1247H123.34V48.0996Z"/>
</mask>
<path d="M123.34 48.0996H160V60.1247H123.34V48.0996Z" fill="#121D39"/>
<path d="M123.34 60.1247H123.674V48.0996H123.34H123.006V60.1247H123.34Z" fill="#3958AC" mask="url(#path-75-inside-25_9517_207639)"/>
<rect x="127.349" y="53.1094" width="20.0418" height="2.00418" rx="1.00209" fill="#3958AC"/>
</g>
<path d="M160 60.1247V59.7906H0V60.1247V60.4587H160V60.1247Z" fill="#3958AC" mask="url(#path-63-inside-21_9517_207639)"/>
<g clip-path="url(#clip10_9517_207639)">
<mask id="path-78-inside-26_9517_207639" fill="white">
<path d="M0 60.125H160V72.1501H0V60.125Z"/>
</mask>
<rect width="13.3612" height="12.0251" transform="translate(0 60.125)" fill="#19274C"/>
<g clip-path="url(#clip11_9517_207639)">
<path d="M7.34859 63.7989L7.9155 65.2361L9.35277 65.803L7.9155 66.37L7.34859 67.8072L6.78168 66.37L5.34442 65.803L6.78168 65.2361L7.34859 63.7989ZM4.99014 67.1189L4.0083 67.4732L4.99014 67.8275L5.34442 68.8093L5.6987 67.8275L6.68053 67.4732L5.6987 67.1189L5.34442 66.1371L4.99014 67.1189ZM4.74463 64.2012L4.0083 64.4669L4.74463 64.7327L5.01039 65.469L5.27615 64.7327L6.01248 64.4669L5.27615 64.2012L5.01039 63.4648L4.74463 64.2012Z" fill="#90ABDA"/>
</g>
<mask id="path-81-inside-27_9517_207639" fill="white">
<path d="M13.3611 60.125H50.0208V72.1501H13.3611V60.125Z"/>
</mask>
<path d="M13.3611 60.125H50.0208V72.1501H13.3611V60.125Z" fill="#19274C"/>
<path d="M13.3611 72.1501H13.6951V60.125H13.3611H13.0271V72.1501H13.3611Z" fill="#3958AC" mask="url(#path-81-inside-27_9517_207639)"/>
<rect x="17.3694" y="65.1348" width="20.0418" height="2.00418" rx="1.00209" fill="#3958AC"/>
<mask id="path-84-inside-28_9517_207639" fill="white">
<path d="M50.021 60.125H86.6807V72.1501H50.021V60.125Z"/>
</mask>
<path d="M50.021 60.125H86.6807V72.1501H50.021V60.125Z" fill="#19274C"/>
<path d="M50.021 72.1501H50.355V60.125H50.021H49.687V72.1501H50.021Z" fill="#3958AC" mask="url(#path-84-inside-28_9517_207639)"/>
<rect x="54.0293" y="65.1348" width="20.0418" height="2.00418" rx="1.00209" fill="#3958AC"/>
<mask id="path-87-inside-29_9517_207639" fill="white">
<path d="M86.6807 60.125H123.34V72.1501H86.6807V60.125Z"/>
</mask>
<path d="M86.6807 60.125H123.34V72.1501H86.6807V60.125Z" fill="#19274C"/>
<path d="M86.6807 72.1501H87.0147V60.125H86.6807H86.3466V72.1501H86.6807Z" fill="#3958AC" mask="url(#path-87-inside-29_9517_207639)"/>
<rect x="90.689" y="65.1348" width="20.0418" height="2.00418" rx="1.00209" fill="#3958AC"/>
<mask id="path-90-inside-30_9517_207639" fill="white">
<path d="M123.34 60.125H160V72.1501H123.34V60.125Z"/>
</mask>
<path d="M123.34 60.125H160V72.1501H123.34V60.125Z" fill="#19274C"/>
<path d="M123.34 72.1501H123.674V60.125H123.34H123.006V72.1501H123.34Z" fill="#3958AC" mask="url(#path-90-inside-30_9517_207639)"/>
<rect x="127.349" y="65.1348" width="20.0418" height="2.00418" rx="1.00209" fill="#3958AC"/>
</g>
<path d="M160 72.1501V71.816H0V72.1501V72.4841H160V72.1501Z" fill="#3958AC" mask="url(#path-78-inside-26_9517_207639)"/>
<g clip-path="url(#clip12_9517_207639)">
<mask id="path-93-inside-31_9517_207639" fill="white">
<path d="M0 72.1504H160V84.1754H0V72.1504Z"/>
</mask>
<rect width="13.3612" height="12.0251" transform="translate(0 72.1504)" fill="#121D39"/>
<g clip-path="url(#clip13_9517_207639)">
<path d="M7.34859 75.8243L7.9155 77.2615L9.35277 77.8284L7.9155 78.3953L7.34859 79.8326L6.78168 78.3953L5.34442 77.8284L6.78168 77.2615L7.34859 75.8243ZM4.99014 79.1443L4.0083 79.4986L4.99014 79.8529L5.34442 80.8347L5.6987 79.8529L6.68053 79.4986L5.6987 79.1443L5.34442 78.1625L4.99014 79.1443ZM4.74463 76.2266L4.0083 76.4923L4.74463 76.7581L5.01039 77.4944L5.27615 76.7581L6.01248 76.4923L5.27615 76.2266L5.01039 75.4902L4.74463 76.2266Z" fill="#90ABDA"/>
</g>
<mask id="path-96-inside-32_9517_207639" fill="white">
<path d="M13.3611 72.1504H50.0208V84.1754H13.3611V72.1504Z"/>
</mask>
<path d="M13.3611 72.1504H50.0208V84.1754H13.3611V72.1504Z" fill="#121D39"/>
<path d="M13.3611 84.1754H13.6951V72.1504H13.3611H13.0271V84.1754H13.3611Z" fill="#3958AC" mask="url(#path-96-inside-32_9517_207639)"/>
<rect x="17.3696" y="77.1602" width="20.0418" height="2.00418" rx="1.00209" fill="#3958AC"/>
<mask id="path-99-inside-33_9517_207639" fill="white">
<path d="M50.021 72.1504H86.6807V84.1754H50.021V72.1504Z"/>
</mask>
<path d="M50.021 72.1504H86.6807V84.1754H50.021V72.1504Z" fill="#121D39"/>
<path d="M50.021 84.1754H50.355V72.1504H50.021H49.687V84.1754H50.021Z" fill="#3958AC" mask="url(#path-99-inside-33_9517_207639)"/>
<rect x="54.0293" y="77.1602" width="20.0418" height="2.00418" rx="1.00209" fill="#3958AC"/>
<mask id="path-102-inside-34_9517_207639" fill="white">
<path d="M86.6807 72.1504H123.34V84.1754H86.6807V72.1504Z"/>
</mask>
<path d="M86.6807 72.1504H123.34V84.1754H86.6807V72.1504Z" fill="#121D39"/>
<path d="M86.6807 84.1754H87.0147V72.1504H86.6807H86.3466V84.1754H86.6807Z" fill="#3958AC" mask="url(#path-102-inside-34_9517_207639)"/>
<rect x="90.689" y="77.1602" width="20.0418" height="2.00418" rx="1.00209" fill="#3958AC"/>
<mask id="path-105-inside-35_9517_207639" fill="white">
<path d="M123.34 72.1504H160V84.1754H123.34V72.1504Z"/>
</mask>
<path d="M123.34 72.1504H160V84.1754H123.34V72.1504Z" fill="#121D39"/>
<path d="M123.34 84.1754H123.674V72.1504H123.34H123.006V84.1754H123.34Z" fill="#3958AC" mask="url(#path-105-inside-35_9517_207639)"/>
<rect x="127.349" y="77.1602" width="20.0418" height="2.00418" rx="1.00209" fill="#3958AC"/>
</g>
<path d="M160 84.1754V83.8414H0V84.1754V84.5095H160V84.1754Z" fill="#3958AC" mask="url(#path-93-inside-31_9517_207639)"/>
<g filter="url(#filter0_dd_9517_207639)">
<path d="M3.34033 33.0684H103.549V51.774H3.34033V33.0684Z" fill="#121D39"/>
<path d="M103.382 33.2354V51.6074H3.50732V33.2354H103.382Z" stroke="#3958AC" stroke-width="0.334029"/>
<path d="M9.01855 37.5771H97.8701C98.5157 37.5771 99.0399 38.1005 99.04 38.7461V46.0947C99.04 46.7404 98.5158 47.2637 97.8701 47.2637H9.01855C8.37296 47.2636 7.84961 46.7403 7.84961 46.0947V38.7461C7.84971 38.1006 8.37302 37.5772 9.01855 37.5771Z" fill="#19274C"/>
<path d="M9.01855 37.5771H97.8701C98.5157 37.5771 99.0399 38.1005 99.04 38.7461V46.0947C99.04 46.7404 98.5158 47.2637 97.8701 47.2637H9.01855C8.37296 47.2636 7.84961 46.7403 7.84961 46.0947V38.7461C7.84971 38.1006 8.37302 37.5772 9.01855 37.5771Z" stroke="#3958AC" stroke-width="0.334029"/>
<path d="M12.9134 44.7584H11.8049C11.6988 44.7584 11.6127 44.6837 11.6127 44.5914C11.6127 44.4992 11.6988 44.4244 11.8049 44.4244H12.1669V43.9481C11.4406 43.8998 11.0777 43.5793 10.899 43.3072C10.6914 42.9909 10.689 42.6748 10.689 42.6616C10.689 42.5693 10.7751 42.4946 10.8812 42.4946C10.9874 42.4946 11.0731 42.569 11.0735 42.6609C11.0735 42.6666 11.0788 42.9139 11.2401 43.1524C11.45 43.4629 11.8265 43.6204 12.3592 43.6204C12.8919 43.6204 13.2684 43.463 13.4783 43.1524C13.6405 42.9124 13.6448 42.6635 13.6449 42.6609C13.6449 42.5687 13.731 42.4942 13.8372 42.4942C13.9433 42.4942 14.0295 42.5694 14.0295 42.6616C14.0295 42.6748 14.0271 42.9909 13.8194 43.3072C13.6407 43.5794 13.2778 43.8998 12.5515 43.9481V44.4244H12.9135C13.0197 44.4244 13.1058 44.4992 13.1058 44.5914C13.1058 44.6837 13.0197 44.7584 12.9135 44.7584H12.9134ZM12.3592 43.3109C11.9847 43.3109 11.694 43.1639 11.5406 42.8969C11.4312 42.7064 11.428 42.5211 11.428 42.5006V40.8924C11.428 40.8719 11.4311 40.6867 11.5406 40.4961C11.694 40.2291 11.9847 40.082 12.3592 40.082C12.7337 40.082 13.0245 40.2291 13.1778 40.4961C13.2872 40.6866 13.2904 40.8719 13.2904 40.8924V42.5006C13.2904 42.5211 13.2873 42.7062 13.1778 42.8969C13.0245 43.1639 12.7337 43.3109 12.3592 43.3109ZM12.3592 40.4161C12.1326 40.4161 11.9789 40.4883 11.8896 40.6369C11.8152 40.7606 11.8126 40.8921 11.8126 40.8934V42.5007C11.8126 42.5007 11.8152 42.6324 11.8896 42.7561C11.9789 42.9048 12.1326 42.977 12.3592 42.977C12.5858 42.977 12.7395 42.9048 12.8288 42.7561C12.9033 42.6324 12.9059 42.501 12.9059 42.4997V40.8924C12.9059 40.8924 12.9033 40.7606 12.8288 40.6369C12.7395 40.4883 12.5858 40.4161 12.3592 40.4161Z" fill="#90ABDA"/>
<rect width="0.334029" height="5.34447" transform="translate(17.0354 39.748)" fill="#3958AC"/>
<rect x="21.3777" y="41.418" width="27.3904" height="2.00418" rx="1.00209" fill="#6581CD"/>
<path d="M96.7617 42.5859L92.425 44.4112C92.2877 44.4689 92.1508 44.3272 92.2034 44.1819L92.7076 42.7893C92.7301 42.727 92.7838 42.6832 92.8467 42.6755C95.1195 42.4202 94.3615 42.502 95.1195 42.4202C94.3615 42.3384 95.1195 42.4202 92.8467 42.1648C92.7838 42.1572 92.7301 42.1133 92.7076 42.0511L92.2034 40.6585C92.1508 40.5132 92.2877 40.3715 92.425 40.4292L96.7617 42.2544C96.9039 42.3143 96.9039 42.5261 96.7617 42.5859Z" fill="#90ABDA"/>
</g>
</g>
<rect x="0.167015" y="0.167015" width="159.666" height="83.8413" stroke="#3958AC" stroke-width="0.334029"/>
<defs>
<filter id="filter0_dd_9517_207639" x="-1.65967" y="31.0684" width="110.209" height="29.7051" filterUnits="userSpaceOnUse" color-interpolation-filters="sRGB">
<feFlood flood-opacity="0" result="BackgroundImageFix"/>
<feColorMatrix in="SourceAlpha" type="matrix" values="0 0 0 0 0 0 0 0 0 0 0 0 0 0 0 0 0 0 127 0" result="hardAlpha"/>
<feOffset dy="4"/>
<feGaussianBlur stdDeviation="2.5"/>
<feColorMatrix type="matrix" values="0 0 0 0 0.239216 0 0 0 0 0.341176 0 0 0 0 0.847059 0 0 0 0.04 0"/>
<feBlend mode="normal" in2="BackgroundImageFix" result="effect1_dropShadow_9517_207639"/>
<feColorMatrix in="SourceAlpha" type="matrix" values="0 0 0 0 0 0 0 0 0 0 0 0 0 0 0 0 0 0 127 0" result="hardAlpha"/>
<feOffset dy="2"/>
<feGaussianBlur stdDeviation="2"/>
<feColorMatrix type="matrix" values="0 0 0 0 0.239216 0 0 0 0 0.341176 0 0 0 0 0.847059 0 0 0 0.03 0"/>
<feBlend mode="normal" in2="effect1_dropShadow_9517_207639" result="effect2_dropShadow_9517_207639"/>
<feBlend mode="normal" in="SourceGraphic" in2="effect2_dropShadow_9517_207639" result="shape"/>
</filter>
<clipPath id="clip0_9517_207639">
<rect width="160" height="84.1754" fill="white"/>
</clipPath>
<clipPath id="clip1_9517_207639">
<path d="M0 0H160V12.0251H0V0Z" fill="white"/>
</clipPath>
<clipPath id="clip2_9517_207639">
<path d="M0 12.0254H160V24.0504H0V12.0254Z" fill="white"/>
</clipPath>
<clipPath id="clip3_9517_207639">
<rect width="5.34447" height="5.34447" fill="white" transform="translate(4.0083 15.3652)"/>
</clipPath>
<clipPath id="clip4_9517_207639">
<path d="M0 24.0508H160V36.0758H0V24.0508Z" fill="white"/>
</clipPath>
<clipPath id="clip5_9517_207639">
<rect width="5.34447" height="5.34447" fill="white" transform="translate(4.0083 27.3906)"/>
</clipPath>
<clipPath id="clip6_9517_207639">
<path d="M0 36.0742H160V48.0993H0V36.0742Z" fill="white"/>
</clipPath>
<clipPath id="clip7_9517_207639">
<rect width="5.34447" height="5.34447" fill="white" transform="translate(4.0083 39.4141)"/>
</clipPath>
<clipPath id="clip8_9517_207639">
<path d="M0 48.0996H160V60.1247H0V48.0996Z" fill="white"/>
</clipPath>
<clipPath id="clip9_9517_207639">
<rect width="5.34447" height="5.34447" fill="white" transform="translate(4.0083 51.4395)"/>
</clipPath>
<clipPath id="clip10_9517_207639">
<path d="M0 60.125H160V72.1501H0V60.125Z" fill="white"/>
</clipPath>
<clipPath id="clip11_9517_207639">
<rect width="5.34447" height="5.34447" fill="white" transform="translate(4.0083 63.4648)"/>
</clipPath>
<clipPath id="clip12_9517_207639">
<path d="M0 72.1504H160V84.1754H0V72.1504Z" fill="white"/>
</clipPath>
<clipPath id="clip13_9517_207639">
<rect width="5.34447" height="5.34447" fill="white" transform="translate(4.0083 75.4902)"/>
</clipPath>
</defs>
</svg>
