<svg width="160" height="85" viewBox="0 0 160 85" fill="none" xmlns="http://www.w3.org/2000/svg">
<g clip-path="url(#clip0_9517_207074)">
<g clip-path="url(#clip1_9517_207074)">
<mask id="path-3-inside-1_9517_207074" fill="white">
<path d="M0 0H160V12.0251H0V0Z"/>
</mask>
<rect width="13.3612" height="12.0251" fill="#E4ECF6"/>
<mask id="path-5-inside-2_9517_207074" fill="white">
<path d="M13.3612 0H50.0209V12.0251H13.3612V0Z"/>
</mask>
<path d="M13.3612 0H50.0209V12.0251H13.3612V0Z" fill="#E4ECF6"/>
<path d="M13.3612 12.0251H13.6952V0H13.3612H13.0271V12.0251H13.3612Z" fill="#C2D1EB" mask="url(#path-5-inside-2_9517_207074)"/>
<rect x="17.3695" y="5.00977" width="22.2686" height="2.00418" rx="1.00209" fill="#90ABDA"/>
<mask id="path-8-inside-3_9517_207074" fill="white">
<path d="M50.0209 0H86.6806V12.0251H50.0209V0Z"/>
</mask>
<path d="M50.0209 0H86.6806V12.0251H50.0209V0Z" fill="#E4ECF6"/>
<path d="M50.0209 12.0251H50.3549V0H50.0209H49.6868V12.0251H50.0209Z" fill="#C2D1EB" mask="url(#path-8-inside-3_9517_207074)"/>
<rect x="54.0292" y="5.00977" width="22.2686" height="2.00418" rx="1.00209" fill="#90ABDA"/>
<mask id="path-11-inside-4_9517_207074" fill="white">
<path d="M86.6806 0H123.34V12.0251H86.6806V0Z"/>
</mask>
<path d="M86.6806 0H123.34V12.0251H86.6806V0Z" fill="#E4ECF6"/>
<path d="M86.6806 12.0251H87.0146V0H86.6806H86.3466V12.0251H86.6806Z" fill="#C2D1EB" mask="url(#path-11-inside-4_9517_207074)"/>
<rect x="90.6889" y="5.00977" width="22.2686" height="2.00418" rx="1.00209" fill="#90ABDA"/>
<mask id="path-14-inside-5_9517_207074" fill="white">
<path d="M123.34 0H160V12.0251H123.34V0Z"/>
</mask>
<path d="M123.34 0H160V12.0251H123.34V0Z" fill="#E4ECF6"/>
<path d="M123.34 12.0251H123.674V0H123.34H123.006V12.0251H123.34Z" fill="#C2D1EB" mask="url(#path-14-inside-5_9517_207074)"/>
<rect x="127.349" y="5.00977" width="22.2686" height="2.00418" rx="1.00209" fill="#90ABDA"/>
</g>
<path d="M160 12.0251V11.691H0V12.0251V12.3591H160V12.0251Z" fill="#C2D1EB" mask="url(#path-3-inside-1_9517_207074)"/>
<g clip-path="url(#clip2_9517_207074)">
<mask id="path-17-inside-6_9517_207074" fill="white">
<path d="M0 12.0254H160V24.0504H0V12.0254Z"/>
</mask>
<rect width="13.3612" height="12.0251" transform="translate(0 12.0254)" fill="white"/>
<g clip-path="url(#clip3_9517_207074)">
<path d="M7.34865 15.6993L7.91556 17.1365L9.35283 17.7034L7.91556 18.2703L7.34865 19.7076L6.78174 18.2703L5.34448 17.7034L6.78174 17.1365L7.34865 15.6993ZM4.9902 19.0193L4.00836 19.3736L4.9902 19.7279L5.34448 20.7097L5.69876 19.7279L6.6806 19.3736L5.69876 19.0193L5.34448 18.0375L4.9902 19.0193ZM4.74469 16.1016L4.00836 16.3673L4.74469 16.6331L5.01045 17.3694L5.27621 16.6331L6.01254 16.3673L5.27621 16.1016L5.01045 15.3652L4.74469 16.1016Z" fill="#5473C8"/>
</g>
<mask id="path-20-inside-7_9517_207074" fill="white">
<path d="M13.3612 12.0254H50.0209V24.0504H13.3612V12.0254Z"/>
</mask>
<path d="M13.3612 12.0254H50.0209V24.0504H13.3612V12.0254Z" fill="white"/>
<path d="M13.3612 24.0504H13.6952V12.0254H13.3612H13.0271V24.0504H13.3612Z" fill="#C2D1EB" mask="url(#path-20-inside-7_9517_207074)"/>
<rect x="17.3695" y="17.0352" width="20.0418" height="2.00418" rx="1.00209" fill="#C2D1EB"/>
<mask id="path-23-inside-8_9517_207074" fill="white">
<path d="M50.0209 12.0254H86.6806V24.0504H50.0209V12.0254Z"/>
</mask>
<path d="M50.0209 12.0254H86.6806V24.0504H50.0209V12.0254Z" fill="white"/>
<path d="M50.0209 24.0504H50.3549V12.0254H50.0209H49.6868V24.0504H50.0209Z" fill="#C2D1EB" mask="url(#path-23-inside-8_9517_207074)"/>
<rect x="54.0292" y="17.0352" width="20.0418" height="2.00418" rx="1.00209" fill="#C2D1EB"/>
<mask id="path-26-inside-9_9517_207074" fill="white">
<path d="M86.6806 12.0254H123.34V24.0504H86.6806V12.0254Z"/>
</mask>
<path d="M86.6806 12.0254H123.34V24.0504H86.6806V12.0254Z" fill="white"/>
<path d="M86.6806 24.0504H87.0146V12.0254H86.6806H86.3466V24.0504H86.6806Z" fill="#C2D1EB" mask="url(#path-26-inside-9_9517_207074)"/>
<rect x="90.689" y="17.0352" width="20.0418" height="2.00418" rx="1.00209" fill="#C2D1EB"/>
<mask id="path-29-inside-10_9517_207074" fill="white">
<path d="M123.34 12.0254H160V24.0504H123.34V12.0254Z"/>
</mask>
<path d="M123.34 12.0254H160V24.0504H123.34V12.0254Z" fill="white"/>
<path d="M123.34 24.0504H123.674V12.0254H123.34H123.006V24.0504H123.34Z" fill="#C2D1EB" mask="url(#path-29-inside-10_9517_207074)"/>
<rect x="127.349" y="17.0352" width="20.0418" height="2.00418" rx="1.00209" fill="#C2D1EB"/>
</g>
<path d="M160 24.0504V23.7164H0V24.0504V24.3845H160V24.0504Z" fill="#C2D1EB" mask="url(#path-17-inside-6_9517_207074)"/>
<g clip-path="url(#clip4_9517_207074)">
<mask id="path-32-inside-11_9517_207074" fill="white">
<path d="M0 24.0508H160V36.0758H0V24.0508Z"/>
</mask>
<rect width="13.3612" height="12.0251" transform="translate(0 24.0508)" fill="#F2F6FB"/>
<g clip-path="url(#clip5_9517_207074)">
<path d="M7.34865 27.7247L7.91556 29.1619L9.35283 29.7288L7.91556 30.2957L7.34865 31.733L6.78174 30.2957L5.34448 29.7288L6.78174 29.1619L7.34865 27.7247ZM4.9902 31.0447L4.00836 31.399L4.9902 31.7533L5.34448 32.7351L5.69876 31.7533L6.6806 31.399L5.69876 31.0447L5.34448 30.0629L4.9902 31.0447ZM4.74469 28.127L4.00836 28.3927L4.74469 28.6585L5.01045 29.3948L5.27621 28.6585L6.01254 28.3927L5.27621 28.127L5.01045 27.3906L4.74469 28.127Z" fill="#5473C8"/>
</g>
<rect x="3.3403" y="26.3887" width="6.68058" height="6.68058" rx="1.33612" fill="#5473C8" fill-opacity="0.1"/>
<mask id="path-36-inside-12_9517_207074" fill="white">
<path d="M13.3612 24.0508H50.0209V36.0758H13.3612V24.0508Z"/>
</mask>
<path d="M13.3612 24.0508H50.0209V36.0758H13.3612V24.0508Z" fill="#F2F6FB"/>
<path d="M13.3612 36.0758H13.6952V24.0508H13.3612H13.0271V36.0758H13.3612Z" fill="#C2D1EB" mask="url(#path-36-inside-12_9517_207074)"/>
<rect x="17.3695" y="29.0605" width="20.0418" height="2.00418" rx="1.00209" fill="#C2D1EB"/>
<mask id="path-39-inside-13_9517_207074" fill="white">
<path d="M50.0209 24.0508H86.6806V36.0758H50.0209V24.0508Z"/>
</mask>
<path d="M50.0209 24.0508H86.6806V36.0758H50.0209V24.0508Z" fill="#F2F6FB"/>
<path d="M50.0209 36.0758H50.3549V24.0508H50.0209H49.6868V36.0758H50.0209Z" fill="#C2D1EB" mask="url(#path-39-inside-13_9517_207074)"/>
<rect x="54.0292" y="29.0605" width="20.0418" height="2.00418" rx="1.00209" fill="#C2D1EB"/>
<mask id="path-42-inside-14_9517_207074" fill="white">
<path d="M86.6806 24.0508H123.34V36.0758H86.6806V24.0508Z"/>
</mask>
<path d="M86.6806 24.0508H123.34V36.0758H86.6806V24.0508Z" fill="#F2F6FB"/>
<path d="M86.6806 36.0758H87.0146V24.0508H86.6806H86.3466V36.0758H86.6806Z" fill="#C2D1EB" mask="url(#path-42-inside-14_9517_207074)"/>
<rect x="90.689" y="29.0605" width="20.0418" height="2.00418" rx="1.00209" fill="#C2D1EB"/>
<mask id="path-45-inside-15_9517_207074" fill="white">
<path d="M123.34 24.0508H160V36.0758H123.34V24.0508Z"/>
</mask>
<path d="M123.34 24.0508H160V36.0758H123.34V24.0508Z" fill="#F2F6FB"/>
<path d="M123.34 36.0758H123.674V24.0508H123.34H123.006V36.0758H123.34Z" fill="#C2D1EB" mask="url(#path-45-inside-15_9517_207074)"/>
<rect x="127.349" y="29.0605" width="20.0418" height="2.00418" rx="1.00209" fill="#C2D1EB"/>
</g>
<path d="M160 36.0758V35.7418H0V36.0758V36.4099H160V36.0758Z" fill="#C2D1EB" mask="url(#path-32-inside-11_9517_207074)"/>
<g clip-path="url(#clip6_9517_207074)">
<mask id="path-48-inside-16_9517_207074" fill="white">
<path d="M0 36.0742H160V48.0993H0V36.0742Z"/>
</mask>
<rect width="13.3612" height="12.0251" transform="translate(0 36.0742)" fill="white"/>
<g clip-path="url(#clip7_9517_207074)">
<path d="M7.34865 39.7481L7.91556 41.1854L9.35283 41.7523L7.91556 42.3192L7.34865 43.7564L6.78174 42.3192L5.34448 41.7523L6.78174 41.1854L7.34865 39.7481ZM4.9902 43.0681L4.00836 43.4224L4.9902 43.7767L5.34448 44.7585L5.69876 43.7767L6.6806 43.4224L5.69876 43.0681L5.34448 42.0863L4.9902 43.0681ZM4.74469 40.1504L4.00836 40.4162L4.74469 40.6819L5.01045 41.4182L5.27621 40.6819L6.01254 40.4162L5.27621 40.1504L5.01045 39.4141L4.74469 40.1504Z" fill="#5473C8"/>
</g>
<mask id="path-51-inside-17_9517_207074" fill="white">
<path d="M13.3612 36.0742H50.0209V48.0993H13.3612V36.0742Z"/>
</mask>
<path d="M13.3612 36.0742H50.0209V48.0993H13.3612V36.0742Z" fill="white"/>
<path d="M13.3612 48.0993H13.6952V36.0742H13.3612H13.0271V48.0993H13.3612Z" fill="#C2D1EB" mask="url(#path-51-inside-17_9517_207074)"/>
<rect x="17.3695" y="41.084" width="20.0418" height="2.00418" rx="1.00209" fill="#C2D1EB"/>
<mask id="path-54-inside-18_9517_207074" fill="white">
<path d="M50.0209 36.0742H86.6806V48.0993H50.0209V36.0742Z"/>
</mask>
<path d="M50.0209 36.0742H86.6806V48.0993H50.0209V36.0742Z" fill="white"/>
<path d="M50.0209 48.0993H50.3549V36.0742H50.0209H49.6868V48.0993H50.0209Z" fill="#C2D1EB" mask="url(#path-54-inside-18_9517_207074)"/>
<rect x="54.0292" y="41.084" width="20.0418" height="2.00418" rx="1.00209" fill="#C2D1EB"/>
<mask id="path-57-inside-19_9517_207074" fill="white">
<path d="M86.6806 36.0742H123.34V48.0993H86.6806V36.0742Z"/>
</mask>
<path d="M86.6806 36.0742H123.34V48.0993H86.6806V36.0742Z" fill="white"/>
<path d="M86.6806 48.0993H87.0146V36.0742H86.6806H86.3466V48.0993H86.6806Z" fill="#C2D1EB" mask="url(#path-57-inside-19_9517_207074)"/>
<rect x="90.689" y="41.084" width="20.0418" height="2.00418" rx="1.00209" fill="#C2D1EB"/>
<mask id="path-60-inside-20_9517_207074" fill="white">
<path d="M123.34 36.0742H160V48.0993H123.34V36.0742Z"/>
</mask>
<path d="M123.34 36.0742H160V48.0993H123.34V36.0742Z" fill="white"/>
<path d="M123.34 48.0993H123.674V36.0742H123.34H123.006V48.0993H123.34Z" fill="#C2D1EB" mask="url(#path-60-inside-20_9517_207074)"/>
<rect x="127.349" y="41.084" width="20.0418" height="2.00418" rx="1.00209" fill="#C2D1EB"/>
</g>
<path d="M160 48.0993V47.7652H0V48.0993V48.4333H160V48.0993Z" fill="#C2D1EB" mask="url(#path-48-inside-16_9517_207074)"/>
<g clip-path="url(#clip8_9517_207074)">
<mask id="path-63-inside-21_9517_207074" fill="white">
<path d="M0 48.0996H160V60.1247H0V48.0996Z"/>
</mask>
<rect width="13.3612" height="12.0251" transform="translate(0 48.0996)" fill="#F2F6FB"/>
<g clip-path="url(#clip9_9517_207074)">
<path d="M7.34865 51.7735L7.91556 53.2107L9.35283 53.7777L7.91556 54.3446L7.34865 55.7818L6.78174 54.3446L5.34448 53.7777L6.78174 53.2107L7.34865 51.7735ZM4.9902 55.0935L4.00836 55.4478L4.9902 55.8021L5.34448 56.7839L5.69876 55.8021L6.6806 55.4478L5.69876 55.0935L5.34448 54.1117L4.9902 55.0935ZM4.74469 52.1758L4.00836 52.4415L4.74469 52.7073L5.01045 53.4436L5.27621 52.7073L6.01254 52.4415L5.27621 52.1758L5.01045 51.4395L4.74469 52.1758Z" fill="#5473C8"/>
</g>
<mask id="path-66-inside-22_9517_207074" fill="white">
<path d="M13.3612 48.0996H50.0209V60.1247H13.3612V48.0996Z"/>
</mask>
<path d="M13.3612 48.0996H50.0209V60.1247H13.3612V48.0996Z" fill="#F2F6FB"/>
<path d="M13.3612 60.1247H13.6952V48.0996H13.3612H13.0271V60.1247H13.3612Z" fill="#C2D1EB" mask="url(#path-66-inside-22_9517_207074)"/>
<rect x="17.3695" y="53.1094" width="20.0418" height="2.00418" rx="1.00209" fill="#C2D1EB"/>
<mask id="path-69-inside-23_9517_207074" fill="white">
<path d="M50.0209 48.0996H86.6806V60.1247H50.0209V48.0996Z"/>
</mask>
<path d="M50.0209 48.0996H86.6806V60.1247H50.0209V48.0996Z" fill="#F2F6FB"/>
<path d="M50.0209 60.1247H50.3549V48.0996H50.0209H49.6868V60.1247H50.0209Z" fill="#C2D1EB" mask="url(#path-69-inside-23_9517_207074)"/>
<rect x="54.0292" y="53.1094" width="20.0418" height="2.00418" rx="1.00209" fill="#C2D1EB"/>
<mask id="path-72-inside-24_9517_207074" fill="white">
<path d="M86.6806 48.0996H123.34V60.1247H86.6806V48.0996Z"/>
</mask>
<path d="M86.6806 48.0996H123.34V60.1247H86.6806V48.0996Z" fill="#F2F6FB"/>
<path d="M86.6806 60.1247H87.0146V48.0996H86.6806H86.3466V60.1247H86.6806Z" fill="#C2D1EB" mask="url(#path-72-inside-24_9517_207074)"/>
<rect x="90.689" y="53.1094" width="20.0418" height="2.00418" rx="1.00209" fill="#C2D1EB"/>
<mask id="path-75-inside-25_9517_207074" fill="white">
<path d="M123.34 48.0996H160V60.1247H123.34V48.0996Z"/>
</mask>
<path d="M123.34 48.0996H160V60.1247H123.34V48.0996Z" fill="#F2F6FB"/>
<path d="M123.34 60.1247H123.674V48.0996H123.34H123.006V60.1247H123.34Z" fill="#C2D1EB" mask="url(#path-75-inside-25_9517_207074)"/>
<rect x="127.349" y="53.1094" width="20.0418" height="2.00418" rx="1.00209" fill="#C2D1EB"/>
</g>
<path d="M160 60.1247V59.7906H0V60.1247V60.4587H160V60.1247Z" fill="#C2D1EB" mask="url(#path-63-inside-21_9517_207074)"/>
<g clip-path="url(#clip10_9517_207074)">
<mask id="path-78-inside-26_9517_207074" fill="white">
<path d="M0 60.125H160V72.1501H0V60.125Z"/>
</mask>
<rect width="13.3612" height="12.0251" transform="translate(0 60.125)" fill="white"/>
<g clip-path="url(#clip11_9517_207074)">
<path d="M7.34865 63.7989L7.91556 65.2361L9.35283 65.803L7.91556 66.37L7.34865 67.8072L6.78174 66.37L5.34448 65.803L6.78174 65.2361L7.34865 63.7989ZM4.9902 67.1189L4.00836 67.4732L4.9902 67.8275L5.34448 68.8093L5.69876 67.8275L6.6806 67.4732L5.69876 67.1189L5.34448 66.1371L4.9902 67.1189ZM4.74469 64.2012L4.00836 64.4669L4.74469 64.7327L5.01045 65.469L5.27621 64.7327L6.01254 64.4669L5.27621 64.2012L5.01045 63.4648L4.74469 64.2012Z" fill="#5473C8"/>
</g>
<mask id="path-81-inside-27_9517_207074" fill="white">
<path d="M13.3612 60.125H50.0209V72.1501H13.3612V60.125Z"/>
</mask>
<path d="M13.3612 60.125H50.0209V72.1501H13.3612V60.125Z" fill="white"/>
<path d="M13.3612 72.1501H13.6952V60.125H13.3612H13.0271V72.1501H13.3612Z" fill="#C2D1EB" mask="url(#path-81-inside-27_9517_207074)"/>
<rect x="17.3695" y="65.1348" width="20.0418" height="2.00418" rx="1.00209" fill="#C2D1EB"/>
<mask id="path-84-inside-28_9517_207074" fill="white">
<path d="M50.0209 60.125H86.6806V72.1501H50.0209V60.125Z"/>
</mask>
<path d="M50.0209 60.125H86.6806V72.1501H50.0209V60.125Z" fill="white"/>
<path d="M50.0209 72.1501H50.3549V60.125H50.0209H49.6868V72.1501H50.0209Z" fill="#C2D1EB" mask="url(#path-84-inside-28_9517_207074)"/>
<rect x="54.0292" y="65.1348" width="20.0418" height="2.00418" rx="1.00209" fill="#C2D1EB"/>
<mask id="path-87-inside-29_9517_207074" fill="white">
<path d="M86.6806 60.125H123.34V72.1501H86.6806V60.125Z"/>
</mask>
<path d="M86.6806 60.125H123.34V72.1501H86.6806V60.125Z" fill="white"/>
<path d="M86.6806 72.1501H87.0146V60.125H86.6806H86.3466V72.1501H86.6806Z" fill="#C2D1EB" mask="url(#path-87-inside-29_9517_207074)"/>
<rect x="90.689" y="65.1348" width="20.0418" height="2.00418" rx="1.00209" fill="#C2D1EB"/>
<mask id="path-90-inside-30_9517_207074" fill="white">
<path d="M123.34 60.125H160V72.1501H123.34V60.125Z"/>
</mask>
<path d="M123.34 60.125H160V72.1501H123.34V60.125Z" fill="white"/>
<path d="M123.34 72.1501H123.674V60.125H123.34H123.006V72.1501H123.34Z" fill="#C2D1EB" mask="url(#path-90-inside-30_9517_207074)"/>
<rect x="127.349" y="65.1348" width="20.0418" height="2.00418" rx="1.00209" fill="#C2D1EB"/>
</g>
<path d="M160 72.1501V71.816H0V72.1501V72.4841H160V72.1501Z" fill="#C2D1EB" mask="url(#path-78-inside-26_9517_207074)"/>
<g clip-path="url(#clip12_9517_207074)">
<mask id="path-93-inside-31_9517_207074" fill="white">
<path d="M0 72.1504H160V84.1754H0V72.1504Z"/>
</mask>
<rect width="13.3612" height="12.0251" transform="translate(0 72.1504)" fill="#F2F6FB"/>
<g clip-path="url(#clip13_9517_207074)">
<path d="M7.34865 75.8243L7.91556 77.2615L9.35283 77.8284L7.91556 78.3953L7.34865 79.8326L6.78174 78.3953L5.34448 77.8284L6.78174 77.2615L7.34865 75.8243ZM4.9902 79.1443L4.00836 79.4986L4.9902 79.8529L5.34448 80.8347L5.69876 79.8529L6.6806 79.4986L5.69876 79.1443L5.34448 78.1625L4.9902 79.1443ZM4.74469 76.2266L4.00836 76.4923L4.74469 76.7581L5.01045 77.4944L5.27621 76.7581L6.01254 76.4923L5.27621 76.2266L5.01045 75.4902L4.74469 76.2266Z" fill="#5473C8"/>
</g>
<mask id="path-96-inside-32_9517_207074" fill="white">
<path d="M13.3612 72.1504H50.0209V84.1754H13.3612V72.1504Z"/>
</mask>
<path d="M13.3612 72.1504H50.0209V84.1754H13.3612V72.1504Z" fill="#F2F6FB"/>
<path d="M13.3612 84.1754H13.6952V72.1504H13.3612H13.0271V84.1754H13.3612Z" fill="#C2D1EB" mask="url(#path-96-inside-32_9517_207074)"/>
<rect x="17.3695" y="77.1602" width="20.0418" height="2.00418" rx="1.00209" fill="#C2D1EB"/>
<mask id="path-99-inside-33_9517_207074" fill="white">
<path d="M50.0209 72.1504H86.6806V84.1754H50.0209V72.1504Z"/>
</mask>
<path d="M50.0209 72.1504H86.6806V84.1754H50.0209V72.1504Z" fill="#F2F6FB"/>
<path d="M50.0209 84.1754H50.3549V72.1504H50.0209H49.6868V84.1754H50.0209Z" fill="#C2D1EB" mask="url(#path-99-inside-33_9517_207074)"/>
<rect x="54.0292" y="77.1602" width="20.0418" height="2.00418" rx="1.00209" fill="#C2D1EB"/>
<mask id="path-102-inside-34_9517_207074" fill="white">
<path d="M86.6806 72.1504H123.34V84.1754H86.6806V72.1504Z"/>
</mask>
<path d="M86.6806 72.1504H123.34V84.1754H86.6806V72.1504Z" fill="#F2F6FB"/>
<path d="M86.6806 84.1754H87.0146V72.1504H86.6806H86.3466V84.1754H86.6806Z" fill="#C2D1EB" mask="url(#path-102-inside-34_9517_207074)"/>
<rect x="90.6889" y="77.1602" width="20.0418" height="2.00418" rx="1.00209" fill="#C2D1EB"/>
<mask id="path-105-inside-35_9517_207074" fill="white">
<path d="M123.34 72.1504H160V84.1754H123.34V72.1504Z"/>
</mask>
<path d="M123.34 72.1504H160V84.1754H123.34V72.1504Z" fill="#F2F6FB"/>
<path d="M123.34 84.1754H123.674V72.1504H123.34H123.006V84.1754H123.34Z" fill="#C2D1EB" mask="url(#path-105-inside-35_9517_207074)"/>
<rect x="127.349" y="77.1602" width="20.0418" height="2.00418" rx="1.00209" fill="#C2D1EB"/>
</g>
<path d="M160 84.1754V83.8414H0V84.1754V84.5095H160V84.1754Z" fill="#C2D1EB" mask="url(#path-93-inside-31_9517_207074)"/>
<g filter="url(#filter0_dd_9517_207074)">
<path d="M3.34027 33.0684H103.549V51.774H3.34027V33.0684Z" fill="white"/>
<path d="M103.382 33.2354V51.6074H3.50726V33.2354H103.382Z" stroke="#C2D1EB" stroke-width="0.334029"/>
<path d="M9.01859 37.5771H97.8701C98.5158 37.5771 99.04 38.1005 99.0401 38.7461V46.0947C99.0401 46.7404 98.5158 47.2637 97.8701 47.2637H9.01859C8.37299 47.2636 7.84964 46.7403 7.84964 46.0947V38.7461C7.84974 38.1006 8.37305 37.5772 9.01859 37.5771Z" fill="white"/>
<path d="M9.01859 37.5771H97.8701C98.5158 37.5771 99.04 38.1005 99.0401 38.7461V46.0947C99.0401 46.7404 98.5158 47.2637 97.8701 47.2637H9.01859C8.37299 47.2636 7.84964 46.7403 7.84964 46.0947V38.7461C7.84974 38.1006 8.37305 37.5772 9.01859 37.5771Z" stroke="#C2D1EB" stroke-width="0.334029"/>
<path d="M12.9132 44.7584H11.8048C11.6986 44.7584 11.6125 44.6837 11.6125 44.5914C11.6125 44.4992 11.6986 44.4244 11.8048 44.4244H12.1668V43.9481C11.4405 43.8998 11.0775 43.5793 10.8988 43.3072C10.6912 42.9909 10.6888 42.6748 10.6888 42.6616C10.6888 42.5693 10.7749 42.4946 10.8811 42.4946C10.9872 42.4946 11.0729 42.569 11.0734 42.6609C11.0734 42.6666 11.0787 42.9139 11.24 43.1524C11.4499 43.4629 11.8264 43.6204 12.3591 43.6204C12.8917 43.6204 13.2682 43.463 13.4782 43.1524C13.6404 42.9124 13.6447 42.6635 13.6448 42.6609C13.6448 42.5687 13.7309 42.4942 13.837 42.4942C13.9432 42.4942 14.0293 42.5694 14.0293 42.6616C14.0293 42.6748 14.0269 42.9909 13.8193 43.3072C13.6406 43.5794 13.2776 43.8998 12.5513 43.9481V44.4244H12.9133C13.0195 44.4244 13.1056 44.4992 13.1056 44.5914C13.1056 44.6837 13.0195 44.7584 12.9133 44.7584H12.9132ZM12.3591 43.3109C11.9845 43.3109 11.6938 43.1639 11.5405 42.8969C11.4311 42.7064 11.4279 42.5211 11.4279 42.5006V40.8924C11.4279 40.8719 11.431 40.6867 11.5405 40.4961C11.6938 40.2291 11.9845 40.082 12.3591 40.082C12.7336 40.082 13.0243 40.2291 13.1776 40.4961C13.287 40.6866 13.2903 40.8719 13.2903 40.8924V42.5006C13.2903 42.5211 13.2871 42.7062 13.1776 42.8969C13.0243 43.1639 12.7336 43.3109 12.3591 43.3109ZM12.3591 40.4161C12.1324 40.4161 11.9788 40.4883 11.8894 40.6369C11.815 40.7606 11.8124 40.8921 11.8124 40.8934V42.5007C11.8124 42.5007 11.815 42.6324 11.8894 42.7561C11.9788 42.9048 12.1324 42.977 12.3591 42.977C12.5857 42.977 12.7393 42.9048 12.8287 42.7561C12.9031 42.6324 12.9057 42.501 12.9057 42.4997V40.8924C12.9057 40.8924 12.9031 40.7606 12.8287 40.6369C12.7393 40.4883 12.5857 40.4161 12.3591 40.4161Z" fill="#5473C8"/>
<rect width="0.334029" height="5.34447" transform="translate(17.0355 39.748)" fill="#C2D1EB"/>
<rect x="21.3778" y="41.418" width="27.3904" height="2.00418" rx="1.00209" fill="#90ABDA"/>
<path d="M96.7618 42.5859L92.4252 44.4112C92.2879 44.4689 92.151 44.3272 92.2036 44.1819L92.7078 42.7893C92.7303 42.727 92.784 42.6832 92.8469 42.6755C95.1197 42.4202 94.3617 42.502 95.1197 42.4202C94.3617 42.3384 95.1197 42.4202 92.8469 42.1648C92.784 42.1572 92.7303 42.1133 92.7078 42.0511L92.2036 40.6585C92.151 40.5132 92.2879 40.3715 92.4252 40.4292L96.7618 42.2544C96.904 42.3143 96.904 42.5261 96.7618 42.5859Z" fill="#5473C8"/>
</g>
</g>
<rect x="0.167015" y="0.167015" width="159.666" height="83.8413" stroke="#C2D1EB" stroke-width="0.334029"/>
<defs>
<filter id="filter0_dd_9517_207074" x="1.67012" y="32.4003" width="103.549" height="22.3794" filterUnits="userSpaceOnUse" color-interpolation-filters="sRGB">
<feFlood flood-opacity="0" result="BackgroundImageFix"/>
<feColorMatrix in="SourceAlpha" type="matrix" values="0 0 0 0 0 0 0 0 0 0 0 0 0 0 0 0 0 0 127 0" result="hardAlpha"/>
<feOffset dy="1.33612"/>
<feGaussianBlur stdDeviation="0.835073"/>
<feColorMatrix type="matrix" values="0 0 0 0 0.239216 0 0 0 0 0.341176 0 0 0 0 0.847059 0 0 0 0.04 0"/>
<feBlend mode="normal" in2="BackgroundImageFix" result="effect1_dropShadow_9517_207074"/>
<feColorMatrix in="SourceAlpha" type="matrix" values="0 0 0 0 0 0 0 0 0 0 0 0 0 0 0 0 0 0 127 0" result="hardAlpha"/>
<feOffset dy="0.668059"/>
<feGaussianBlur stdDeviation="0.668059"/>
<feColorMatrix type="matrix" values="0 0 0 0 0.239216 0 0 0 0 0.341176 0 0 0 0 0.847059 0 0 0 0.03 0"/>
<feBlend mode="normal" in2="effect1_dropShadow_9517_207074" result="effect2_dropShadow_9517_207074"/>
<feBlend mode="normal" in="SourceGraphic" in2="effect2_dropShadow_9517_207074" result="shape"/>
</filter>
<clipPath id="clip0_9517_207074">
<rect width="160" height="84.1754" fill="white"/>
</clipPath>
<clipPath id="clip1_9517_207074">
<path d="M0 0H160V12.0251H0V0Z" fill="white"/>
</clipPath>
<clipPath id="clip2_9517_207074">
<path d="M0 12.0254H160V24.0504H0V12.0254Z" fill="white"/>
</clipPath>
<clipPath id="clip3_9517_207074">
<rect width="5.34447" height="5.34447" fill="white" transform="translate(4.00836 15.3652)"/>
</clipPath>
<clipPath id="clip4_9517_207074">
<path d="M0 24.0508H160V36.0758H0V24.0508Z" fill="white"/>
</clipPath>
<clipPath id="clip5_9517_207074">
<rect width="5.34447" height="5.34447" fill="white" transform="translate(4.00836 27.3906)"/>
</clipPath>
<clipPath id="clip6_9517_207074">
<path d="M0 36.0742H160V48.0993H0V36.0742Z" fill="white"/>
</clipPath>
<clipPath id="clip7_9517_207074">
<rect width="5.34447" height="5.34447" fill="white" transform="translate(4.00836 39.4141)"/>
</clipPath>
<clipPath id="clip8_9517_207074">
<path d="M0 48.0996H160V60.1247H0V48.0996Z" fill="white"/>
</clipPath>
<clipPath id="clip9_9517_207074">
<rect width="5.34447" height="5.34447" fill="white" transform="translate(4.00836 51.4395)"/>
</clipPath>
<clipPath id="clip10_9517_207074">
<path d="M0 60.125H160V72.1501H0V60.125Z" fill="white"/>
</clipPath>
<clipPath id="clip11_9517_207074">
<rect width="5.34447" height="5.34447" fill="white" transform="translate(4.00836 63.4648)"/>
</clipPath>
<clipPath id="clip12_9517_207074">
<path d="M0 72.1504H160V84.1754H0V72.1504Z" fill="white"/>
</clipPath>
<clipPath id="clip13_9517_207074">
<rect width="5.34447" height="5.34447" fill="white" transform="translate(4.00836 75.4902)"/>
</clipPath>
</defs>
</svg>
