<svg width="160" height="89" viewBox="0 0 160 89" fill="none" xmlns="http://www.w3.org/2000/svg">
<g clip-path="url(#clip0_9517_207638)">
<rect x="0.167015" y="0.167015" width="159.666" height="15.6994" fill="#2A417E"/>
<rect x="0.167015" y="0.167015" width="159.666" height="15.6994" stroke="#3958AC" stroke-width="0.334029"/>
<rect x="3.00635" y="3.00586" width="10.0209" height="10.0209" rx="5.01044" fill="#90ABDA"/>
<g clip-path="url(#clip1_9517_207638)">
<path d="M8.68477 5.67778L9.25169 7.11504L10.689 7.68195L9.25169 8.24887L8.68477 9.68613L8.11786 8.24887L6.6806 7.68195L8.11786 7.11504L8.68477 5.67778ZM6.32632 8.99782L5.34448 9.3521L6.32632 9.70638L6.6806 10.6882L7.03488 9.70638L8.01672 9.3521L7.03488 8.99782L6.6806 8.01598L6.32632 8.99782ZM6.08081 6.08008L5.34448 6.34584L6.08081 6.6116L6.34657 7.34793L6.61233 6.6116L7.34866 6.34584L6.61233 6.08008L6.34657 5.34375L6.08081 6.08008Z" fill="#19274C"/>
</g>
<g clip-path="url(#clip2_9517_207638)">
<path d="M114.238 4.34198C114.238 3.60406 114.836 3.00586 115.574 3.00586H144.301V13.0267H115.574C114.836 13.0267 114.238 12.4285 114.238 11.6906V4.34198Z" fill="#3958AC"/>
<rect x="118.246" y="7.01367" width="22.0459" height="2.00418" rx="1.00209" fill="#90ABDA"/>
</g>
<rect x="114.405" y="3.17287" width="29.7286" height="9.68685" rx="1.1691" stroke="#3958AC" stroke-width="0.334029"/>
<rect x="146.973" y="3.00586" width="10.0209" height="10.0209" rx="1.33612" fill="#3958AC"/>
<path d="M151.816 6.67982C152.092 6.67982 152.317 6.45435 152.317 6.17878C152.317 5.9032 152.092 5.67773 151.816 5.67773C151.541 5.67773 151.315 5.9032 151.315 6.17878C151.315 6.45435 151.541 6.67982 151.816 6.67982Z" fill="#90ABDA"/>
<path d="M151.816 7.34788C151.541 7.34788 151.315 7.57335 151.315 7.84892C151.315 8.1245 151.541 8.34997 151.816 8.34997C152.092 8.34997 152.317 8.1245 152.317 7.84892C152.317 7.57335 152.092 7.34788 151.816 7.34788Z" fill="#90ABDA"/>
<path d="M151.816 9.01803C151.541 9.01803 151.315 9.2435 151.315 9.51907C151.315 9.79464 151.541 10.0201 151.816 10.0201C152.092 10.0201 152.317 9.79464 152.317 9.51907C152.317 9.2435 152.092 9.01803 151.816 9.01803Z" fill="#90ABDA"/>
<g clip-path="url(#clip3_9517_207638)">
<mask id="path-12-inside-1_9517_207638" fill="white">
<path d="M0 16.0332H160V28.0583H0V16.0332Z"/>
</mask>
<rect width="40" height="12.0251" transform="translate(0 16.0332)" fill="#2A417E"/>
<rect x="4.0083" y="21.043" width="22.2686" height="2.00418" rx="1.00209" fill="#6581CD"/>
<mask id="path-15-inside-2_9517_207638" fill="white">
<path d="M40 16.0332H80V28.0583H40V16.0332Z"/>
</mask>
<path d="M40 16.0332H80V28.0583H40V16.0332Z" fill="#2A417E"/>
<path d="M40 28.0583H40.334V16.0332H40H39.666V28.0583H40Z" fill="#3958AC" mask="url(#path-15-inside-2_9517_207638)"/>
<rect x="44.0083" y="21.043" width="22.2686" height="2.00418" rx="1.00209" fill="#6581CD"/>
<mask id="path-18-inside-3_9517_207638" fill="white">
<path d="M80 16.0332H120V28.0583H80V16.0332Z"/>
</mask>
<path d="M80 16.0332H120V28.0583H80V16.0332Z" fill="#2A417E"/>
<path d="M80 28.0583H80.334V16.0332H80H79.666V28.0583H80Z" fill="#3958AC" mask="url(#path-18-inside-3_9517_207638)"/>
<rect x="84.0083" y="21.043" width="22.2686" height="2.00418" rx="1.00209" fill="#6581CD"/>
<mask id="path-21-inside-4_9517_207638" fill="white">
<path d="M120 16.0332H160V28.0583H120V16.0332Z"/>
</mask>
<path d="M120 16.0332H160V28.0583H120V16.0332Z" fill="#2A417E"/>
<path d="M120 28.0583H120.334V16.0332H120H119.666V28.0583H120Z" fill="#3958AC" mask="url(#path-21-inside-4_9517_207638)"/>
<rect x="124.008" y="21.043" width="22.2686" height="2.00418" rx="1.00209" fill="#6581CD"/>
</g>
<path d="M160 28.0583V27.7242H0V28.0583V28.3923H160V28.0583Z" fill="#3958AC" mask="url(#path-12-inside-1_9517_207638)"/>
<g clip-path="url(#clip4_9517_207638)">
<mask id="path-24-inside-5_9517_207638" fill="white">
<path d="M0 28.0586H160V40.0836H0V28.0586Z"/>
</mask>
<rect width="40" height="12.0251" transform="translate(0 28.0586)" fill="#19274C"/>
<rect x="4.0083" y="33.0684" width="20.0418" height="2.00418" rx="1.00209" fill="#3958AC"/>
<mask id="path-27-inside-6_9517_207638" fill="white">
<path d="M40 28.0586H80V40.0836H40V28.0586Z"/>
</mask>
<path d="M40 28.0586H80V40.0836H40V28.0586Z" fill="#19274C"/>
<path d="M40 40.0836H40.334V28.0586H40H39.666V40.0836H40Z" fill="#3958AC" mask="url(#path-27-inside-6_9517_207638)"/>
<rect x="44.0083" y="33.0684" width="20.0418" height="2.00418" rx="1.00209" fill="#3958AC"/>
<mask id="path-30-inside-7_9517_207638" fill="white">
<path d="M80 28.0586H120V40.0836H80V28.0586Z"/>
</mask>
<path d="M80 28.0586H120V40.0836H80V28.0586Z" fill="#19274C"/>
<path d="M80 40.0836H80.334V28.0586H80H79.666V40.0836H80Z" fill="#3958AC" mask="url(#path-30-inside-7_9517_207638)"/>
<rect x="84.0083" y="33.0684" width="20.0418" height="2.00418" rx="1.00209" fill="#3958AC"/>
<mask id="path-33-inside-8_9517_207638" fill="white">
<path d="M120 28.0586H160V40.0836H120V28.0586Z"/>
</mask>
<path d="M120 28.0586H160V40.0836H120V28.0586Z" fill="#19274C"/>
<path d="M120 40.0836H120.334V28.0586H120H119.666V40.0836H120Z" fill="#3958AC" mask="url(#path-33-inside-8_9517_207638)"/>
<rect x="124.008" y="33.0684" width="20.0418" height="2.00418" rx="1.00209" fill="#3958AC"/>
</g>
<path d="M160 40.0836V39.7496H0V40.0836V40.4177H160V40.0836Z" fill="#3958AC" mask="url(#path-24-inside-5_9517_207638)"/>
<g clip-path="url(#clip5_9517_207638)">
<mask id="path-36-inside-9_9517_207638" fill="white">
<path d="M0 40.084H160V52.109H0V40.084Z"/>
</mask>
<rect width="40" height="12.0251" transform="translate(0 40.084)" fill="#121D39"/>
<rect x="4.0083" y="45.0938" width="20.0418" height="2.00418" rx="1.00209" fill="#3958AC"/>
<mask id="path-39-inside-10_9517_207638" fill="white">
<path d="M40 40.084H80V52.109H40V40.084Z"/>
</mask>
<path d="M40 40.084H80V52.109H40V40.084Z" fill="#121D39"/>
<path d="M40 52.109H40.334V40.084H40H39.666V52.109H40Z" fill="#3958AC" mask="url(#path-39-inside-10_9517_207638)"/>
<rect x="44.0083" y="45.0938" width="20.0418" height="2.00418" rx="1.00209" fill="#3958AC"/>
<mask id="path-42-inside-11_9517_207638" fill="white">
<path d="M80 40.084H120V52.109H80V40.084Z"/>
</mask>
<path d="M80 40.084H120V52.109H80V40.084Z" fill="#121D39"/>
<path d="M80 52.109H80.334V40.084H80H79.666V52.109H80Z" fill="#3958AC" mask="url(#path-42-inside-11_9517_207638)"/>
<rect x="84.0083" y="45.0938" width="20.0418" height="2.00418" rx="1.00209" fill="#3958AC"/>
<mask id="path-45-inside-12_9517_207638" fill="white">
<path d="M120 40.084H160V52.109H120V40.084Z"/>
</mask>
<path d="M120 40.084H160V52.109H120V40.084Z" fill="#121D39"/>
<path d="M120 52.109H120.334V40.084H120H119.666V52.109H120Z" fill="#3958AC" mask="url(#path-45-inside-12_9517_207638)"/>
<rect x="124.008" y="45.0938" width="20.0418" height="2.00418" rx="1.00209" fill="#3958AC"/>
</g>
<path d="M160 52.109V51.775H0V52.109V52.4431H160V52.109Z" fill="#3958AC" mask="url(#path-36-inside-9_9517_207638)"/>
<g clip-path="url(#clip6_9517_207638)">
<mask id="path-48-inside-13_9517_207638" fill="white">
<path d="M0 52.1094H160V64.1344H0V52.1094Z"/>
</mask>
<rect width="40" height="12.0251" transform="translate(0 52.1094)" fill="#19274C"/>
<rect x="4.0083" y="57.1191" width="20.0418" height="2.00418" rx="1.00209" fill="#3958AC"/>
<mask id="path-51-inside-14_9517_207638" fill="white">
<path d="M40 52.1094H80V64.1344H40V52.1094Z"/>
</mask>
<path d="M40 52.1094H80V64.1344H40V52.1094Z" fill="#19274C"/>
<path d="M40 64.1344H40.334V52.1094H40H39.666V64.1344H40Z" fill="#3958AC" mask="url(#path-51-inside-14_9517_207638)"/>
<rect x="44.0083" y="57.1191" width="20.0418" height="2.00418" rx="1.00209" fill="#3958AC"/>
<mask id="path-54-inside-15_9517_207638" fill="white">
<path d="M80 52.1094H120V64.1344H80V52.1094Z"/>
</mask>
<path d="M80 52.1094H120V64.1344H80V52.1094Z" fill="#19274C"/>
<path d="M80 64.1344H80.334V52.1094H80H79.666V64.1344H80Z" fill="#3958AC" mask="url(#path-54-inside-15_9517_207638)"/>
<rect x="84.0083" y="57.1191" width="20.0418" height="2.00418" rx="1.00209" fill="#3958AC"/>
<mask id="path-57-inside-16_9517_207638" fill="white">
<path d="M120 52.1094H160V64.1344H120V52.1094Z"/>
</mask>
<path d="M120 52.1094H160V64.1344H120V52.1094Z" fill="#19274C"/>
<path d="M120 64.1344H120.334V52.1094H120H119.666V64.1344H120Z" fill="#3958AC" mask="url(#path-57-inside-16_9517_207638)"/>
<rect x="124.008" y="57.1191" width="20.0418" height="2.00418" rx="1.00209" fill="#3958AC"/>
</g>
<path d="M160 64.1344V63.8004H0V64.1344V64.4685H160V64.1344Z" fill="#3958AC" mask="url(#path-48-inside-13_9517_207638)"/>
<g clip-path="url(#clip7_9517_207638)">
<mask id="path-60-inside-17_9517_207638" fill="white">
<path d="M0 64.1328H160V76.1579H0V64.1328Z"/>
</mask>
<rect width="40" height="12.0251" transform="translate(0 64.1328)" fill="#121D39"/>
<rect x="4.0083" y="69.1426" width="20.0418" height="2.00418" rx="1.00209" fill="#3958AC"/>
<mask id="path-63-inside-18_9517_207638" fill="white">
<path d="M40 64.1328H80V76.1579H40V64.1328Z"/>
</mask>
<path d="M40 64.1328H80V76.1579H40V64.1328Z" fill="#121D39"/>
<path d="M40 76.1579H40.334V64.1328H40H39.666V76.1579H40Z" fill="#3958AC" mask="url(#path-63-inside-18_9517_207638)"/>
<rect x="44.0083" y="69.1426" width="20.0418" height="2.00418" rx="1.00209" fill="#3958AC"/>
<mask id="path-66-inside-19_9517_207638" fill="white">
<path d="M80 64.1328H120V76.1579H80V64.1328Z"/>
</mask>
<path d="M80 64.1328H120V76.1579H80V64.1328Z" fill="#121D39"/>
<path d="M80 76.1579H80.334V64.1328H80H79.666V76.1579H80Z" fill="#3958AC" mask="url(#path-66-inside-19_9517_207638)"/>
<rect x="84.0083" y="69.1426" width="20.0418" height="2.00418" rx="1.00209" fill="#3958AC"/>
<mask id="path-69-inside-20_9517_207638" fill="white">
<path d="M120 64.1328H160V76.1579H120V64.1328Z"/>
</mask>
<path d="M120 64.1328H160V76.1579H120V64.1328Z" fill="#121D39"/>
<path d="M120 76.1579H120.334V64.1328H120H119.666V76.1579H120Z" fill="#3958AC" mask="url(#path-69-inside-20_9517_207638)"/>
<rect x="124.008" y="69.1426" width="20.0418" height="2.00418" rx="1.00209" fill="#3958AC"/>
</g>
<path d="M160 76.1579V75.8238H0V76.1579V76.4919H160V76.1579Z" fill="#3958AC" mask="url(#path-60-inside-17_9517_207638)"/>
<g clip-path="url(#clip8_9517_207638)">
<mask id="path-72-inside-21_9517_207638" fill="white">
<path d="M0 76.1582H160V88.1833H0V76.1582Z"/>
</mask>
<rect width="40" height="12.0251" transform="translate(0 76.1582)" fill="#19274C"/>
<rect x="4.0083" y="81.168" width="20.0418" height="2.00418" rx="1.00209" fill="#3958AC"/>
<mask id="path-75-inside-22_9517_207638" fill="white">
<path d="M40 76.1582H80V88.1833H40V76.1582Z"/>
</mask>
<path d="M40 76.1582H80V88.1833H40V76.1582Z" fill="#19274C"/>
<path d="M40 88.1833H40.334V76.1582H40H39.666V88.1833H40Z" fill="#3958AC" mask="url(#path-75-inside-22_9517_207638)"/>
<rect x="44.0083" y="81.168" width="20.0418" height="2.00418" rx="1.00209" fill="#3958AC"/>
<mask id="path-78-inside-23_9517_207638" fill="white">
<path d="M80 76.1582H120V88.1833H80V76.1582Z"/>
</mask>
<path d="M80 76.1582H120V88.1833H80V76.1582Z" fill="#19274C"/>
<path d="M80 88.1833H80.334V76.1582H80H79.666V88.1833H80Z" fill="#3958AC" mask="url(#path-78-inside-23_9517_207638)"/>
<rect x="84.0083" y="81.168" width="20.0418" height="2.00418" rx="1.00209" fill="#3958AC"/>
<mask id="path-81-inside-24_9517_207638" fill="white">
<path d="M120 76.1582H160V88.1833H120V76.1582Z"/>
</mask>
<path d="M120 76.1582H160V88.1833H120V76.1582Z" fill="#19274C"/>
<path d="M120 88.1833H120.334V76.1582H120H119.666V88.1833H120Z" fill="#3958AC" mask="url(#path-81-inside-24_9517_207638)"/>
<rect x="124.008" y="81.168" width="20.0418" height="2.00418" rx="1.00209" fill="#3958AC"/>
</g>
<path d="M160 88.1833V87.8492H0V88.1833V88.5173H160V88.1833Z" fill="#3958AC" mask="url(#path-72-inside-21_9517_207638)"/>
<rect y="40.084" width="160" height="36.0752" fill="#6581CD" fill-opacity="0.3"/>
<g filter="url(#filter0_d_9517_207638)">
<g clip-path="url(#clip9_9517_207638)">
<rect x="7.68262" y="13.3613" width="59.1232" height="63.7996" fill="#19274C"/>
<mask id="path-87-inside-25_9517_207638" fill="white">
<path d="M7.68262 13.3613H66.8058V29.3947H7.68262V13.3613Z"/>
</mask>
<path d="M7.68262 13.3613H66.8058V29.3947H7.68262V13.3613Z" fill="#19274C"/>
<path d="M66.8058 29.3947V29.0607H7.68262V29.3947V29.7288H66.8058V29.3947Z" fill="#3958AC" mask="url(#path-87-inside-25_9517_207638)"/>
<rect x="11.2456" y="16.3672" width="22.714" height="10.0209" rx="5.01044" fill="#3958AC"/>
<rect x="14.8086" y="20.4863" width="15.5881" height="1.78149" rx="0.890746" fill="#90ABDA"/>
<path d="M40.3062 18.6504H44.9826C45.197 18.6504 45.3723 18.8258 45.3723 19.0401V22.5474C45.3723 22.7617 45.197 22.9371 44.9826 22.9371H41.0856L39.9165 24.1062V19.0401C39.9165 18.8258 40.0919 18.6504 40.3062 18.6504ZM44.9819 22.5474L44.9826 22.5467V19.0408L44.9819 19.0401H40.3069L40.3062 19.0408V23.1654L40.9242 22.5474H44.9819Z" fill="#90ABDA"/>
<rect x="47.5435" y="20.4863" width="15.5881" height="1.78149" rx="0.890746" fill="#90ABDA"/>
<rect width="59.1232" height="31.7328" transform="translate(7.68262 29.3945)" fill="#121D39"/>
<rect x="14.5773" y="32.9216" width="45.3339" height="24.0684" rx="0.684198" fill="#19274C"/>
<rect x="14.5773" y="32.9216" width="45.3339" height="24.0684" rx="0.684198" stroke="#3958AC" stroke-width="0.315784"/>
<path d="M58.2246 56.8493L57.9272 56.5519L59.1904 55.2888L59.4877 55.5862L58.2246 56.8493ZM59.2733 54.1099L58.9759 53.8125L56.4509 56.3375L56.7483 56.6348L59.2733 54.1099Z" fill="#6581CD"/>
<g clip-path="url(#clip10_9517_207638)">
<path d="M21.8959 39.7468C21.9084 39.741 21.9207 39.7325 21.9332 39.7204C21.9213 39.7302 21.9089 39.739 21.8959 39.7468ZM24.3425 40.6685V41.0443H19.0816V40.6685H24.3425ZM23.95 36.8134L23.0285 35.8938C22.8877 35.7533 22.6618 35.7458 22.5119 35.8765L22.493 35.893L20.3751 37.6753L20.1585 37.8574C20.1341 37.878 20.1134 37.901 20.0967 37.9256C20.0958 37.9267 20.0951 37.9278 20.0945 37.9288C20.013 38.0562 20.0248 38.2262 20.1389 38.3402L20.1638 38.3651L20.1632 38.3665L19.9988 38.765L19.6988 39.4924L19.1257 40.0643C19.0745 40.1154 19.0701 40.1706 19.1008 40.2219C19.1257 40.2632 19.1944 40.2928 19.2351 40.2928C19.4784 40.2925 20.1005 40.2879 20.2303 40.2881L20.3631 40.1556L20.9443 39.9384L21.4832 39.6957C21.5492 39.7612 21.6352 39.7938 21.721 39.7938C21.7824 39.7938 21.8437 39.7771 21.8975 39.744C21.9104 39.7362 21.9228 39.7274 21.9347 39.7175L21.9349 39.7173C21.9504 39.7047 21.965 39.6904 21.9784 39.6747L23.9504 37.3479L23.9673 37.3286C24.098 37.1789 24.0904 36.9539 23.9498 36.8134H23.95ZM19.6988 40.0229L19.9645 39.7576L20.0975 39.8902C19.8899 39.9649 19.8234 39.9814 19.6987 40.0229H19.6988ZM20.7864 39.6568L20.5156 39.7966L20.1045 39.3512L20.4216 38.601L21.2202 39.4332L20.7863 39.6569L20.7864 39.6568ZM21.6883 39.361L20.4727 38.1532L22.7614 36.1608L23.6827 37.0803L21.6886 39.361H21.6883Z" fill="#90ABDA"/>
</g>
<path d="M19.8748 39.4145L20.3758 38.0784L22.714 36.0742L23.7161 37.0763L21.712 39.4145L20.0418 40.0826H19.5408L19.8748 39.4145Z" fill="#90ABDA"/>
<path d="M19.7078 38.0801L21.7119 40.0843" stroke="#19274C" stroke-width="0.267223"/>
<path d="M18.7056 38.748L20.3757 40.4182" stroke="#19274C" stroke-width="0.267223"/>
<rect x="26.7224" y="37.4121" width="14.0292" height="2.3382" rx="1.1691" fill="#6581CD"/>
<rect width="59.1232" height="16.0334" transform="translate(7.68262 61.127)" fill="#19274C"/>
<rect x="11.051" y="64.1328" width="31.0647" height="10.0209" rx="5.01044" fill="#90ABDA"/>
<path d="M17.5773 66.933L18.1132 68.2917L19.472 68.8277L18.1132 69.3636L17.5773 70.7224L17.0413 69.3636L15.6826 68.8277L17.0413 68.2917L17.5773 66.933ZM15.3476 70.0717L14.4194 70.4066L15.3476 70.7415L15.6826 71.6697L16.0175 70.7415L16.9457 70.4066L16.0175 70.0717L15.6826 69.1435L15.3476 70.0717ZM15.1155 67.3133L14.4194 67.5645L15.1155 67.8158L15.3668 68.5119L15.618 67.8158L16.3141 67.5645L15.618 67.3133L15.3668 66.6172L15.1155 67.3133Z" fill="#19274C"/>
<rect x="21.156" y="68.3008" width="14.7366" height="1.68418" rx="0.84209" fill="#19274C"/>
</g>
<rect x="7.84051" y="13.5192" width="58.8074" height="63.4838" stroke="#3958AC" stroke-width="0.315784"/>
</g>
<g clip-path="url(#clip11_9517_207638)">
<path d="M153.503 47.4284C153.516 47.4227 153.528 47.4141 153.541 47.402C153.529 47.4119 153.516 47.4207 153.503 47.4284ZM155.95 48.3501V48.7259H150.689V48.3501H155.95ZM155.557 44.4951L154.636 43.5755C154.495 43.4349 154.269 43.4274 154.119 43.5581L154.1 43.5747L151.983 45.3569L151.766 45.5391C151.742 45.5596 151.721 45.5826 151.704 45.6073C151.703 45.6083 151.703 45.6094 151.702 45.6105C151.62 45.7379 151.632 45.9078 151.746 46.0218L151.771 46.0467L151.771 46.0481L151.606 46.4467L151.306 47.1741L150.733 47.746C150.682 47.797 150.677 47.8522 150.708 47.9036C150.733 47.9449 150.802 47.9745 150.842 47.9745C151.086 47.9741 151.708 47.9695 151.838 47.9698L151.971 47.8372L152.552 47.6201L153.091 47.3773C153.157 47.4429 153.243 47.4754 153.328 47.4754C153.39 47.4754 153.451 47.4587 153.505 47.4256C153.518 47.4179 153.53 47.409 153.542 47.3992L153.542 47.3989C153.558 47.3864 153.572 47.3721 153.586 47.3563L155.558 45.0295L155.575 45.0103C155.705 44.8605 155.698 44.6355 155.557 44.4951H155.557ZM151.306 47.7045L151.572 47.4392L151.705 47.5718C151.497 47.6465 151.431 47.6631 151.306 47.7045H151.306ZM152.394 47.3385L152.123 47.4782L151.712 47.0328L152.029 46.2826L152.828 47.1149L152.394 47.3386L152.394 47.3385ZM153.296 47.0427L152.08 45.8349L154.369 43.8424L155.29 44.7619L153.296 47.0427H153.296Z" fill="#90ABDA"/>
</g>
<path d="M151.482 47.0981L151.983 45.762L154.321 43.7578L155.324 44.7599L153.319 47.0981L151.649 47.7662H151.148L151.482 47.0981Z" fill="#90ABDA"/>
<path d="M151.315 45.7617L153.319 47.7659" stroke="#2A417E" stroke-width="0.267223"/>
<path d="M150.313 46.4297L151.983 48.0998" stroke="#2A417E" stroke-width="0.267223"/>
</g>
<rect x="0.167015" y="0.167015" width="159.666" height="87.8497" stroke="#3958AC" stroke-width="0.334029"/>
<defs>
<filter id="filter0_d_9517_207638" x="4.68262" y="13.3613" width="65.1233" height="69.7988" filterUnits="userSpaceOnUse" color-interpolation-filters="sRGB">
<feFlood flood-opacity="0" result="BackgroundImageFix"/>
<feColorMatrix in="SourceAlpha" type="matrix" values="0 0 0 0 0 0 0 0 0 0 0 0 0 0 0 0 0 0 127 0" result="hardAlpha"/>
<feOffset dy="3"/>
<feGaussianBlur stdDeviation="1.5"/>
<feColorMatrix type="matrix" values="0 0 0 0 0 0 0 0 0 0 0 0 0 0 0 0 0 0 0.06 0"/>
<feBlend mode="normal" in2="BackgroundImageFix" result="effect1_dropShadow_9517_207638"/>
<feBlend mode="normal" in="SourceGraphic" in2="effect1_dropShadow_9517_207638" result="shape"/>
</filter>
<clipPath id="clip0_9517_207638">
<rect width="160" height="88.1837" fill="white"/>
</clipPath>
<clipPath id="clip1_9517_207638">
<rect width="5.34447" height="5.34447" fill="white" transform="translate(5.34448 5.34375)"/>
</clipPath>
<clipPath id="clip2_9517_207638">
<rect x="114.238" y="3.00586" width="30.0626" height="10.0209" rx="1.33612" fill="white"/>
</clipPath>
<clipPath id="clip3_9517_207638">
<path d="M0 16.0332H160V28.0583H0V16.0332Z" fill="white"/>
</clipPath>
<clipPath id="clip4_9517_207638">
<path d="M0 28.0586H160V40.0836H0V28.0586Z" fill="white"/>
</clipPath>
<clipPath id="clip5_9517_207638">
<path d="M0 40.084H160V52.109H0V40.084Z" fill="white"/>
</clipPath>
<clipPath id="clip6_9517_207638">
<path d="M0 52.1094H160V64.1344H0V52.1094Z" fill="white"/>
</clipPath>
<clipPath id="clip7_9517_207638">
<path d="M0 64.1328H160V76.1579H0V64.1328Z" fill="white"/>
</clipPath>
<clipPath id="clip8_9517_207638">
<path d="M0 76.1582H160V88.1833H0V76.1582Z" fill="white"/>
</clipPath>
<clipPath id="clip9_9517_207638">
<rect x="7.68262" y="13.3613" width="59.1232" height="63.7996" fill="white"/>
</clipPath>
<clipPath id="clip10_9517_207638">
<rect width="6.01253" height="6.01253" fill="white" transform="translate(18.7056 35.4062)"/>
</clipPath>
<clipPath id="clip11_9517_207638">
<rect width="6.01253" height="6.01253" fill="white" transform="translate(150.313 43.0898)"/>
</clipPath>
</defs>
</svg>
