<svg width="160" height="89" viewBox="0 0 160 89" fill="none" xmlns="http://www.w3.org/2000/svg">
<g clip-path="url(#clip0_10963_54210)">
<rect x="0.167015" y="0.167015" width="159.666" height="15.6994" fill="#2A417E"/>
<rect x="0.167015" y="0.167015" width="159.666" height="15.6994" stroke="#3958AC" stroke-width="0.334029"/>
<g filter="url(#filter0_d_10963_54210)">
<g clip-path="url(#clip1_10963_54210)">
<path d="M43.2568 8.0163C43.2568 5.24911 45.5001 3.00586 48.2673 3.00586H111.733C114.5 3.00586 116.743 5.24911 116.743 8.0163V8.0163C116.743 10.7835 114.5 13.0267 111.733 13.0267H48.2673C45.5001 13.0267 43.2568 10.7835 43.2568 8.0163V8.0163Z" fill="#19274C"/>
<g clip-path="url(#clip2_10963_54210)">
<path d="M49.6032 5.67778L50.17 7.11515L51.6074 7.68195L50.17 8.24876L49.6032 9.68613L49.0364 8.24876L47.5991 7.68195L49.0364 7.11515L49.6032 5.67778ZM47.2442 8.9972L46.2629 9.3521L47.2442 9.70701L47.5991 10.6882L47.954 9.70701L48.9352 9.3521L47.954 8.9972L47.5991 8.01598L47.2442 8.9972ZM46.9999 6.0807L46.2629 6.34584L46.9988 6.61202L47.265 7.34793L47.5312 6.61202L48.2671 6.34584L47.5312 6.07966L47.265 5.34375L46.9988 6.07966L46.9999 6.0807Z" fill="#90ABDA"/>
</g>
<rect x="54.2798" y="7.01367" width="25.0522" height="2.00418" rx="1.00209" fill="#3958AC"/>
<g clip-path="url(#clip3_10963_54210)">
<path d="M107.724 8.01616C107.724 5.80241 109.519 4.00781 111.733 4.00781V4.00781C113.946 4.00781 115.741 5.80241 115.741 8.01616V8.01616C115.741 10.2299 113.946 12.0245 111.733 12.0245V12.0245C109.519 12.0245 107.724 10.2299 107.724 8.01616V8.01616Z" fill="#2A417E"/>
<path d="M111.855 6.54861C111.855 6.43331 111.949 6.33984 112.064 6.33984C112.18 6.33984 112.273 6.43331 112.273 6.54861V10.1394C112.273 10.2547 112.18 10.3482 112.064 10.3482C111.949 10.3482 111.855 10.2547 111.855 10.1394V6.54861Z" fill="#90ABDA"/>
<path d="M111.928 6.69917C111.846 6.61764 111.846 6.48546 111.928 6.40393C112.009 6.3224 112.142 6.3224 112.223 6.40393L113.581 7.76204C113.663 7.84357 113.663 7.97576 113.581 8.05729C113.5 8.13882 113.368 8.13882 113.286 8.05729L111.928 6.69917Z" fill="#90ABDA"/>
<path d="M112.195 6.6992C112.277 6.61767 112.277 6.48549 112.195 6.40396C112.114 6.32243 111.982 6.32243 111.9 6.40396L110.542 7.76208C110.46 7.8436 110.46 7.97579 110.542 8.05732C110.623 8.13885 110.756 8.13885 110.837 8.05732L112.195 6.6992Z" fill="#90ABDA"/>
</g>
</g>
<path d="M48.2676 3.17285H111.732C114.407 3.17285 116.576 5.34165 116.576 8.0166C116.576 10.6914 114.407 12.8594 111.732 12.8594H48.2676C45.5927 12.8594 43.424 10.6914 43.4238 8.0166C43.4238 5.34165 45.5926 3.17285 48.2676 3.17285Z" stroke="#3958AC" stroke-width="0.334029"/>
</g>
<g clip-path="url(#clip4_10963_54210)">
<mask id="path-13-inside-1_10963_54210" fill="white">
<path d="M0 16.0332H160V28.0583H0V16.0332Z"/>
</mask>
<rect width="40" height="12.0251" transform="translate(0 16.0332)" fill="#2A417E"/>
<rect x="4.0083" y="21.043" width="22.2686" height="2.00418" rx="1.00209" fill="#6581CD"/>
<mask id="path-16-inside-2_10963_54210" fill="white">
<path d="M40 16.0332H80V28.0583H40V16.0332Z"/>
</mask>
<path d="M40 16.0332H80V28.0583H40V16.0332Z" fill="#2A417E"/>
<path d="M40 28.0583H40.334V16.0332H40H39.666V28.0583H40Z" fill="#3958AC" mask="url(#path-16-inside-2_10963_54210)"/>
<rect x="44.0083" y="21.043" width="22.2686" height="2.00418" rx="1.00209" fill="#6581CD"/>
<mask id="path-19-inside-3_10963_54210" fill="white">
<path d="M80 16.0332H120V28.0583H80V16.0332Z"/>
</mask>
<path d="M80 16.0332H120V28.0583H80V16.0332Z" fill="#2A417E"/>
<path d="M80 28.0583H80.334V16.0332H80H79.666V28.0583H80Z" fill="#3958AC" mask="url(#path-19-inside-3_10963_54210)"/>
<rect x="84.0083" y="21.043" width="22.2686" height="2.00418" rx="1.00209" fill="#6581CD"/>
<mask id="path-22-inside-4_10963_54210" fill="white">
<path d="M120 16.0332H160V28.0583H120V16.0332Z"/>
</mask>
<path d="M120 16.0332H160V28.0583H120V16.0332Z" fill="#2A417E"/>
<path d="M120 28.0583H120.334V16.0332H120H119.666V28.0583H120Z" fill="#3958AC" mask="url(#path-22-inside-4_10963_54210)"/>
<rect x="124.008" y="21.043" width="22.2686" height="2.00418" rx="1.00209" fill="#6581CD"/>
</g>
<path d="M160 28.0583V27.7242H0V28.0583V28.3923H160V28.0583Z" fill="#3958AC" mask="url(#path-13-inside-1_10963_54210)"/>
<g clip-path="url(#clip5_10963_54210)">
<mask id="path-25-inside-5_10963_54210" fill="white">
<path d="M0 28.0586H160V40.0836H0V28.0586Z"/>
</mask>
<rect width="40" height="12.0251" transform="translate(0 28.0586)" fill="#19274C"/>
<rect x="4.0083" y="33.0684" width="20.0418" height="2.00418" rx="1.00209" fill="#3958AC"/>
<mask id="path-28-inside-6_10963_54210" fill="white">
<path d="M40 28.0586H80V40.0836H40V28.0586Z"/>
</mask>
<path d="M40 28.0586H80V40.0836H40V28.0586Z" fill="#19274C"/>
<path d="M40 40.0836H40.334V28.0586H40H39.666V40.0836H40Z" fill="#3958AC" mask="url(#path-28-inside-6_10963_54210)"/>
<rect x="44.0083" y="33.0684" width="20.0418" height="2.00418" rx="1.00209" fill="#3958AC"/>
<mask id="path-31-inside-7_10963_54210" fill="white">
<path d="M80 28.0586H120V40.0836H80V28.0586Z"/>
</mask>
<path d="M80 28.0586H120V40.0836H80V28.0586Z" fill="#19274C"/>
<path d="M80 40.0836H80.334V28.0586H80H79.666V40.0836H80Z" fill="#3958AC" mask="url(#path-31-inside-7_10963_54210)"/>
<rect x="84.0083" y="33.0684" width="20.0418" height="2.00418" rx="1.00209" fill="#3958AC"/>
<mask id="path-34-inside-8_10963_54210" fill="white">
<path d="M120 28.0586H160V40.0836H120V28.0586Z"/>
</mask>
<path d="M120 28.0586H160V40.0836H120V28.0586Z" fill="#19274C"/>
<path d="M120 40.0836H120.334V28.0586H120H119.666V40.0836H120Z" fill="#3958AC" mask="url(#path-34-inside-8_10963_54210)"/>
<rect x="124.008" y="33.0684" width="20.0418" height="2.00418" rx="1.00209" fill="#3958AC"/>
</g>
<path d="M160 40.0836V39.7496H0V40.0836V40.4177H160V40.0836Z" fill="#3958AC" mask="url(#path-25-inside-5_10963_54210)"/>
<g clip-path="url(#clip6_10963_54210)">
<mask id="path-37-inside-9_10963_54210" fill="white">
<path d="M0 40.084H160V52.109H0V40.084Z"/>
</mask>
<rect width="40" height="12.0251" transform="translate(0 40.084)" fill="#121D39"/>
<rect x="4.0083" y="45.0938" width="20.0418" height="2.00418" rx="1.00209" fill="#3958AC"/>
<mask id="path-40-inside-10_10963_54210" fill="white">
<path d="M40 40.084H80V52.109H40V40.084Z"/>
</mask>
<path d="M40 40.084H80V52.109H40V40.084Z" fill="#121D39"/>
<path d="M40 52.109H40.334V40.084H40H39.666V52.109H40Z" fill="#3958AC" mask="url(#path-40-inside-10_10963_54210)"/>
<rect x="44.0083" y="45.0938" width="20.0418" height="2.00418" rx="1.00209" fill="#3958AC"/>
<mask id="path-43-inside-11_10963_54210" fill="white">
<path d="M80 40.084H120V52.109H80V40.084Z"/>
</mask>
<path d="M80 40.084H120V52.109H80V40.084Z" fill="#121D39"/>
<path d="M80 52.109H80.334V40.084H80H79.666V52.109H80Z" fill="#3958AC" mask="url(#path-43-inside-11_10963_54210)"/>
<rect x="84.0083" y="45.0938" width="20.0418" height="2.00418" rx="1.00209" fill="#3958AC"/>
<mask id="path-46-inside-12_10963_54210" fill="white">
<path d="M120 40.084H160V52.109H120V40.084Z"/>
</mask>
<path d="M120 40.084H160V52.109H120V40.084Z" fill="#121D39"/>
<path d="M120 52.109H120.334V40.084H120H119.666V52.109H120Z" fill="#3958AC" mask="url(#path-46-inside-12_10963_54210)"/>
<rect x="124.008" y="45.0938" width="20.0418" height="2.00418" rx="1.00209" fill="#3958AC"/>
</g>
<path d="M160 52.109V51.775H0V52.109V52.4431H160V52.109Z" fill="#3958AC" mask="url(#path-37-inside-9_10963_54210)"/>
<g clip-path="url(#clip7_10963_54210)">
<mask id="path-49-inside-13_10963_54210" fill="white">
<path d="M0 52.1094H160V64.1344H0V52.1094Z"/>
</mask>
<rect width="40" height="12.0251" transform="translate(0 52.1094)" fill="#19274C"/>
<rect x="4.0083" y="57.1191" width="20.0418" height="2.00418" rx="1.00209" fill="#3958AC"/>
<mask id="path-52-inside-14_10963_54210" fill="white">
<path d="M40 52.1094H80V64.1344H40V52.1094Z"/>
</mask>
<path d="M40 52.1094H80V64.1344H40V52.1094Z" fill="#19274C"/>
<path d="M40 64.1344H40.334V52.1094H40H39.666V64.1344H40Z" fill="#3958AC" mask="url(#path-52-inside-14_10963_54210)"/>
<rect x="44.0083" y="57.1191" width="20.0418" height="2.00418" rx="1.00209" fill="#3958AC"/>
<mask id="path-55-inside-15_10963_54210" fill="white">
<path d="M80 52.1094H120V64.1344H80V52.1094Z"/>
</mask>
<path d="M80 52.1094H120V64.1344H80V52.1094Z" fill="#19274C"/>
<path d="M80 64.1344H80.334V52.1094H80H79.666V64.1344H80Z" fill="#3958AC" mask="url(#path-55-inside-15_10963_54210)"/>
<rect x="84.0083" y="57.1191" width="20.0418" height="2.00418" rx="1.00209" fill="#3958AC"/>
<mask id="path-58-inside-16_10963_54210" fill="white">
<path d="M120 52.1094H160V64.1344H120V52.1094Z"/>
</mask>
<path d="M120 52.1094H160V64.1344H120V52.1094Z" fill="#19274C"/>
<path d="M120 64.1344H120.334V52.1094H120H119.666V64.1344H120Z" fill="#3958AC" mask="url(#path-58-inside-16_10963_54210)"/>
<rect x="124.008" y="57.1191" width="20.0418" height="2.00418" rx="1.00209" fill="#3958AC"/>
</g>
<path d="M160 64.1344V63.8004H0V64.1344V64.4685H160V64.1344Z" fill="#3958AC" mask="url(#path-49-inside-13_10963_54210)"/>
<g clip-path="url(#clip8_10963_54210)">
<mask id="path-61-inside-17_10963_54210" fill="white">
<path d="M0 64.1328H160V76.1579H0V64.1328Z"/>
</mask>
<rect width="40" height="12.0251" transform="translate(0 64.1328)" fill="#121D39"/>
<rect x="4.0083" y="69.1426" width="20.0418" height="2.00418" rx="1.00209" fill="#3958AC"/>
<mask id="path-64-inside-18_10963_54210" fill="white">
<path d="M40 64.1328H80V76.1579H40V64.1328Z"/>
</mask>
<path d="M40 64.1328H80V76.1579H40V64.1328Z" fill="#121D39"/>
<path d="M40 76.1579H40.334V64.1328H40H39.666V76.1579H40Z" fill="#3958AC" mask="url(#path-64-inside-18_10963_54210)"/>
<rect x="44.0083" y="69.1426" width="20.0418" height="2.00418" rx="1.00209" fill="#3958AC"/>
<mask id="path-67-inside-19_10963_54210" fill="white">
<path d="M80 64.1328H120V76.1579H80V64.1328Z"/>
</mask>
<path d="M80 64.1328H120V76.1579H80V64.1328Z" fill="#121D39"/>
<path d="M80 76.1579H80.334V64.1328H80H79.666V76.1579H80Z" fill="#3958AC" mask="url(#path-67-inside-19_10963_54210)"/>
<rect x="84.0083" y="69.1426" width="20.0418" height="2.00418" rx="1.00209" fill="#3958AC"/>
<mask id="path-70-inside-20_10963_54210" fill="white">
<path d="M120 64.1328H160V76.1579H120V64.1328Z"/>
</mask>
<path d="M120 64.1328H160V76.1579H120V64.1328Z" fill="#121D39"/>
<path d="M120 76.1579H120.334V64.1328H120H119.666V76.1579H120Z" fill="#3958AC" mask="url(#path-70-inside-20_10963_54210)"/>
<rect x="124.008" y="69.1426" width="20.0418" height="2.00418" rx="1.00209" fill="#3958AC"/>
</g>
<path d="M160 76.1579V75.8238H0V76.1579V76.4919H160V76.1579Z" fill="#3958AC" mask="url(#path-61-inside-17_10963_54210)"/>
<g clip-path="url(#clip9_10963_54210)">
<mask id="path-73-inside-21_10963_54210" fill="white">
<path d="M0 76.1582H160V88.1833H0V76.1582Z"/>
</mask>
<rect width="40" height="12.0251" transform="translate(0 76.1582)" fill="#19274C"/>
<rect x="4.0083" y="81.168" width="20.0418" height="2.00418" rx="1.00209" fill="#3958AC"/>
<mask id="path-76-inside-22_10963_54210" fill="white">
<path d="M40 76.1582H80V88.1833H40V76.1582Z"/>
</mask>
<path d="M40 76.1582H80V88.1833H40V76.1582Z" fill="#19274C"/>
<path d="M40 88.1833H40.334V76.1582H40H39.666V88.1833H40Z" fill="#3958AC" mask="url(#path-76-inside-22_10963_54210)"/>
<rect x="44.0083" y="81.168" width="20.0418" height="2.00418" rx="1.00209" fill="#3958AC"/>
<mask id="path-79-inside-23_10963_54210" fill="white">
<path d="M80 76.1582H120V88.1833H80V76.1582Z"/>
</mask>
<path d="M80 76.1582H120V88.1833H80V76.1582Z" fill="#19274C"/>
<path d="M80 88.1833H80.334V76.1582H80H79.666V88.1833H80Z" fill="#3958AC" mask="url(#path-79-inside-23_10963_54210)"/>
<rect x="84.0083" y="81.168" width="20.0418" height="2.00418" rx="1.00209" fill="#3958AC"/>
<mask id="path-82-inside-24_10963_54210" fill="white">
<path d="M120 76.1582H160V88.1833H120V76.1582Z"/>
</mask>
<path d="M120 76.1582H160V88.1833H120V76.1582Z" fill="#19274C"/>
<path d="M120 88.1833H120.334V76.1582H120H119.666V88.1833H120Z" fill="#3958AC" mask="url(#path-82-inside-24_10963_54210)"/>
<rect x="124.008" y="81.168" width="20.0418" height="2.00418" rx="1.00209" fill="#3958AC"/>
</g>
<path d="M160 88.1833V87.8492H0V88.1833V88.5173H160V88.1833Z" fill="#3958AC" mask="url(#path-73-inside-21_10963_54210)"/>
<rect y="40.084" width="160" height="36.0752" fill="#6581CD" fill-opacity="0.3"/>
<g clip-path="url(#clip10_10963_54210)">
<path d="M153.503 47.4284C153.516 47.4227 153.528 47.4141 153.541 47.402C153.529 47.4119 153.516 47.4207 153.503 47.4284ZM155.95 48.3501V48.7259H150.689V48.3501H155.95ZM155.557 44.4951L154.636 43.5755C154.495 43.4349 154.269 43.4274 154.119 43.5581L154.1 43.5747L151.983 45.3569L151.766 45.5391C151.742 45.5596 151.721 45.5826 151.704 45.6073C151.703 45.6083 151.703 45.6094 151.702 45.6105C151.62 45.7379 151.632 45.9078 151.746 46.0218L151.771 46.0467L151.771 46.0481L151.606 46.4467L151.306 47.1741L150.733 47.746C150.682 47.797 150.677 47.8522 150.708 47.9036C150.733 47.9449 150.802 47.9745 150.842 47.9745C151.086 47.9741 151.708 47.9695 151.838 47.9698L151.971 47.8372L152.552 47.6201L153.091 47.3773C153.157 47.4429 153.243 47.4754 153.328 47.4754C153.39 47.4754 153.451 47.4587 153.505 47.4256C153.518 47.4179 153.53 47.409 153.542 47.3992L153.542 47.3989C153.558 47.3864 153.572 47.3721 153.586 47.3563L155.558 45.0295L155.575 45.0103C155.705 44.8605 155.698 44.6355 155.557 44.4951H155.557ZM151.306 47.7045L151.572 47.4392L151.705 47.5718C151.497 47.6465 151.431 47.6631 151.306 47.7045H151.306ZM152.394 47.3385L152.123 47.4782L151.712 47.0328L152.029 46.2826L152.828 47.1149L152.394 47.3386L152.394 47.3385ZM153.296 47.0427L152.08 45.8349L154.369 43.8424L155.29 44.7619L153.296 47.0427H153.296Z" fill="#90ABDA"/>
</g>
<path d="M151.482 47.0981L151.983 45.762L154.321 43.7578L155.324 44.7599L153.319 47.0981L151.649 47.7662H151.148L151.482 47.0981Z" fill="#90ABDA"/>
<path d="M151.315 45.7617L153.32 47.7659" stroke="#2A417E" stroke-width="0.267223"/>
<path d="M150.313 46.4297L151.983 48.0998" stroke="#2A417E" stroke-width="0.267223"/>
<g filter="url(#filter1_d_10963_54210)">
<rect x="43.0898" y="13.3613" width="73.4864" height="34.071" rx="2.00418" fill="#19274C"/>
<rect x="43.2569" y="13.5283" width="73.1524" height="33.737" rx="1.83716" stroke="#3958AC" stroke-width="0.334029"/>
<rect x="56.7849" y="20.041" width="25.0522" height="2.00418" rx="1.00209" fill="#3958AC"/>
<rect x="56.7849" y="29.3945" width="25.0522" height="2.00418" rx="1.00209" fill="#3958AC"/>
<path d="M46.0962 36.4084C46.0962 35.6705 46.6944 35.0723 47.4323 35.0723H112.234C112.972 35.0723 113.57 35.6705 113.57 36.4084V43.089C113.57 43.8269 112.972 44.4251 112.234 44.4251H47.4323C46.6944 44.4251 46.0962 43.8269 46.0962 43.089V36.4084Z" fill="#2A417E"/>
<g clip-path="url(#clip11_10963_54210)">
<path d="M51.9584 41.0808C51.9709 41.075 51.9832 41.0664 51.9957 41.0543C51.9838 41.0642 51.9714 41.073 51.9584 41.0808ZM54.405 42.0025V42.3783H49.1441V42.0025H54.405ZM54.0125 38.1474L53.091 37.2278C52.9502 37.0873 52.7243 37.0797 52.5744 37.2104L52.5555 37.227L50.4376 39.0093L50.221 39.1914C50.1966 39.212 50.1759 39.235 50.1592 39.2596C50.1583 39.2607 50.1576 39.2617 50.157 39.2628C50.0755 39.3902 50.0873 39.5601 50.2014 39.6742L50.2263 39.6991L50.2257 39.7005L50.0613 40.099L49.7613 40.8264L49.1882 41.3983C49.137 41.4494 49.1326 41.5046 49.1633 41.5559C49.1882 41.5972 49.2569 41.6268 49.2976 41.6268C49.5409 41.6265 50.163 41.6219 50.2928 41.6221L50.4256 41.4895L51.0068 41.2724L51.5457 41.0297C51.6117 41.0952 51.6977 41.1277 51.7835 41.1277C51.8449 41.1277 51.9062 41.1111 51.96 41.0779C51.9729 41.0702 51.9853 41.0614 51.9972 41.0515L51.9974 41.0513C52.0129 41.0387 52.0275 41.0244 52.0409 41.0087L54.0129 38.6819L54.0298 38.6626C54.1605 38.5129 54.1529 38.2879 54.0123 38.1474H54.0125ZM49.7613 41.3568L50.027 41.0916L50.16 41.2242C49.9524 41.2988 49.8859 41.3154 49.7612 41.3568H49.7613ZM50.8489 40.9908L50.5781 41.1306L50.167 40.6851L50.4841 39.935L51.2827 40.7672L50.8488 40.9909L50.8489 40.9908ZM51.7508 40.695L50.5352 39.4872L52.8239 37.4947L53.7452 38.4142L51.7511 40.695H51.7508Z" fill="#90ABDA"/>
</g>
<path d="M49.9373 40.7504L50.4383 39.4143L52.7765 37.4102L53.7786 38.4122L51.7745 40.7504L50.1043 41.4185H49.6033L49.9373 40.7504Z" fill="#90ABDA"/>
<path d="M49.7705 39.4141L51.7747 41.4182" stroke="#2A417E" stroke-width="0.267223"/>
<path d="M48.7683 40.082L50.4385 41.7522" stroke="#2A417E" stroke-width="0.267223"/>
<rect x="57.4531" y="38.7461" width="25.0522" height="2.00418" rx="1.00209" fill="#90ABDA"/>
</g>
</g>
<rect x="0.167015" y="0.167015" width="159.666" height="87.8497" stroke="#3958AC" stroke-width="0.334029"/>
<defs>
<filter id="filter0_d_10963_54210" x="42.5888" y="2.67183" width="74.8224" height="11.3576" filterUnits="userSpaceOnUse" color-interpolation-filters="sRGB">
<feFlood flood-opacity="0" result="BackgroundImageFix"/>
<feColorMatrix in="SourceAlpha" type="matrix" values="0 0 0 0 0 0 0 0 0 0 0 0 0 0 0 0 0 0 127 0" result="hardAlpha"/>
<feOffset dy="0.334029"/>
<feGaussianBlur stdDeviation="0.334029"/>
<feComposite in2="hardAlpha" operator="out"/>
<feColorMatrix type="matrix" values="0 0 0 0 0 0 0 0 0 0 0 0 0 0 0 0 0 0 0.038 0"/>
<feBlend mode="normal" in2="BackgroundImageFix" result="effect1_dropShadow_10963_54210"/>
<feBlend mode="normal" in="SourceGraphic" in2="effect1_dropShadow_10963_54210" result="shape"/>
</filter>
<filter id="filter1_d_10963_54210" x="38.7475" y="11.0231" width="82.1711" height="42.7551" filterUnits="userSpaceOnUse" color-interpolation-filters="sRGB">
<feFlood flood-opacity="0" result="BackgroundImageFix"/>
<feColorMatrix in="SourceAlpha" type="matrix" values="0 0 0 0 0 0 0 0 0 0 0 0 0 0 0 0 0 0 127 0" result="hardAlpha"/>
<feOffset dy="2.00418"/>
<feGaussianBlur stdDeviation="2.17119"/>
<feComposite in2="hardAlpha" operator="out"/>
<feColorMatrix type="matrix" values="0 0 0 0 0 0 0 0 0 0 0 0 0 0 0 0 0 0 0.125 0"/>
<feBlend mode="normal" in2="BackgroundImageFix" result="effect1_dropShadow_10963_54210"/>
<feBlend mode="normal" in="SourceGraphic" in2="effect1_dropShadow_10963_54210" result="shape"/>
</filter>
<clipPath id="clip0_10963_54210">
<rect width="160" height="88.1837" fill="white"/>
</clipPath>
<clipPath id="clip1_10963_54210">
<path d="M43.2568 8.0163C43.2568 5.24911 45.5001 3.00586 48.2673 3.00586H111.733C114.5 3.00586 116.743 5.24911 116.743 8.0163V8.0163C116.743 10.7835 114.5 13.0267 111.733 13.0267H48.2673C45.5001 13.0267 43.2568 10.7835 43.2568 8.0163V8.0163Z" fill="white"/>
</clipPath>
<clipPath id="clip2_10963_54210">
<rect width="5.34447" height="5.34447" fill="white" transform="translate(46.2629 5.34375)"/>
</clipPath>
<clipPath id="clip3_10963_54210">
<rect width="9.35282" height="9.35282" fill="white" transform="translate(107.056 3.33984)"/>
</clipPath>
<clipPath id="clip4_10963_54210">
<path d="M0 16.0332H160V28.0583H0V16.0332Z" fill="white"/>
</clipPath>
<clipPath id="clip5_10963_54210">
<path d="M0 28.0586H160V40.0836H0V28.0586Z" fill="white"/>
</clipPath>
<clipPath id="clip6_10963_54210">
<path d="M0 40.084H160V52.109H0V40.084Z" fill="white"/>
</clipPath>
<clipPath id="clip7_10963_54210">
<path d="M0 52.1094H160V64.1344H0V52.1094Z" fill="white"/>
</clipPath>
<clipPath id="clip8_10963_54210">
<path d="M0 64.1328H160V76.1579H0V64.1328Z" fill="white"/>
</clipPath>
<clipPath id="clip9_10963_54210">
<path d="M0 76.1582H160V88.1833H0V76.1582Z" fill="white"/>
</clipPath>
<clipPath id="clip10_10963_54210">
<rect width="6.01253" height="6.01253" fill="white" transform="translate(150.313 43.0898)"/>
</clipPath>
<clipPath id="clip11_10963_54210">
<rect width="6.01253" height="6.01253" fill="white" transform="translate(48.7683 36.7422)"/>
</clipPath>
</defs>
</svg>
