<svg width="240" height="133" viewBox="0 0 240 133" fill="none" xmlns="http://www.w3.org/2000/svg">
<g clip-path="url(#clip0_9517_206122)">
<rect width="93.12" height="132.48" fill="white"/>
<mask id="path-3-inside-1_9517_206122" fill="white">
<path d="M0 0H126.72V23.04H0V0Z"/>
</mask>
<path d="M0 0H126.72V23.04H0V0Z" fill="white"/>
<path d="M126.72 23.04V22.56H0V23.04V23.52H126.72V23.04Z" fill="#C2D1EB" mask="url(#path-3-inside-1_9517_206122)"/>
<rect x="5.12" y="4.32031" width="32.64" height="14.4" rx="7.2" fill="#C2D1EB"/>
<rect x="10.24" y="10.2402" width="22.4" height="2.56" rx="1.28" fill="#5473C8"/>
<rect x="39.04" y="4.32031" width="44.16" height="14.4" rx="7.2" fill="white"/>
<path d="M45.28 7.60156H52C52.308 7.60156 52.56 7.85356 52.56 8.16156V13.2016C52.56 13.5096 52.308 13.7616 52 13.7616H46.4L44.72 15.4416V8.16156C44.72 7.85356 44.972 7.60156 45.28 7.60156ZM51.999 13.2016L52 13.2006V8.16256L51.999 8.16156H45.281L45.28 8.16256V14.0896L46.1681 13.2016H51.999Z" fill="#5473C8"/>
<rect x="55.6801" y="10.2402" width="22.4" height="2.56" rx="1.28" fill="#5473C8"/>
<rect width="93.12" height="86.4" transform="translate(0 23.0391)" fill="#F2F6FB"/>
<rect x="9.90755" y="28.1058" width="73.3049" height="34.5862" rx="0.983193" fill="white"/>
<rect x="9.90755" y="28.1058" width="73.3049" height="34.5862" rx="0.983193" stroke="#C2D1EB" stroke-width="0.453781"/>
<rect x="14.521" y="32.7188" width="63.36" height="3.36" rx="1.68" fill="#C2D1EB"/>
<path d="M81.2688 62.4908L80.8415 62.0635L82.6566 60.2484L83.0839 60.6757L81.2688 62.4908ZM82.7757 58.5543L82.3484 58.127L78.72 61.7553L79.1473 62.1826L82.7757 58.5543Z" fill="#90ABDA"/>
<rect width="93.12" height="23.04" transform="translate(0 109.439)" fill="white"/>
<rect x="4.84033" y="113.76" width="44.64" height="14.4" rx="7.2" fill="#5473C8"/>
<path d="M14.2185 117.784L14.9886 119.736L16.9412 120.507L14.9886 121.277L14.2185 123.229L13.4483 121.277L11.4958 120.507L13.4483 119.736L14.2185 117.784ZM11.0145 122.294L9.68066 122.775L11.0145 123.257L11.4958 124.591L11.9771 123.257L13.3109 122.775L11.9771 122.294L11.4958 120.96L11.0145 122.294ZM10.681 118.33L9.68066 118.691L10.681 119.052L11.042 120.053L11.403 119.052L12.4034 118.691L11.403 118.33L11.042 117.33L10.681 118.33Z" fill="white"/>
<rect x="19.3613" y="119.75" width="21.1765" height="2.42017" rx="1.21008" fill="white"/>
</g>
<rect x="0.226891" y="0.226891" width="92.6662" height="132.026" stroke="#C2D1EB" stroke-width="0.453781"/>
<rect x="92.88" y="0.24" width="146.88" height="22.56" fill="#E4ECF6"/>
<rect x="92.88" y="0.24" width="146.88" height="22.56" stroke="#C2D1EB" stroke-width="0.48"/>
<rect x="96.96" y="4.32031" width="14.4" height="14.4" rx="7.2" fill="#5473C8"/>
<path d="M105.629 13.41L103.738 11.5191L105.629 9.62821L105.12 9.11914L102.72 11.5191L105.12 13.9191L105.629 13.41Z" fill="white"/>
<g clip-path="url(#clip1_9517_206122)">
<path d="M159.84 6.24031C159.84 5.17993 160.7 4.32031 161.76 4.32031H203.04V18.7203H161.76C160.7 18.7203 159.84 17.8607 159.84 16.8003V6.24031Z" fill="#C2D1EB"/>
<rect x="165.6" y="10.0801" width="31.68" height="2.88" rx="1.44" fill="#5473C8"/>
<mask id="path-23-inside-2_9517_206122" fill="white">
<path d="M203.04 4.32031H215.52C216.58 4.32031 217.44 5.17993 217.44 6.24031V16.8003C217.44 17.8607 216.58 18.7203 215.52 18.7203H203.04V4.32031Z"/>
</mask>
<path d="M203.04 4.32031H215.52C216.58 4.32031 217.44 5.17993 217.44 6.24031V16.8003C217.44 17.8607 216.58 18.7203 215.52 18.7203H203.04V4.32031Z" fill="#C2D1EB"/>
<path d="M203.04 4.32031H217.44H203.04ZM217.44 18.7203H203.04H217.44ZM202.56 18.7203V4.32031H203.52V18.7203H202.56ZM217.44 4.32031V18.7203V4.32031Z" fill="#90ABDA" mask="url(#path-23-inside-2_9517_206122)"/>
<path d="M210.24 12.9601L208.32 10.0801H212.16L210.24 12.9601Z" fill="#5473C8"/>
</g>
<rect x="160.08" y="4.56031" width="57.12" height="13.92" rx="1.68" stroke="#C2D1EB" stroke-width="0.48"/>
<rect x="221.28" y="4.32031" width="14.4" height="14.4" rx="1.92" fill="#C2D1EB"/>
<path d="M228.24 9.60016C228.636 9.60016 228.96 9.27616 228.96 8.88016C228.96 8.48416 228.636 8.16016 228.24 8.16016C227.844 8.16016 227.52 8.48416 227.52 8.88016C227.52 9.27616 227.844 9.60016 228.24 9.60016Z" fill="#5473C8"/>
<path d="M228.24 10.5602C227.844 10.5602 227.52 10.8842 227.52 11.2802C227.52 11.6762 227.844 12.0002 228.24 12.0002C228.636 12.0002 228.96 11.6762 228.96 11.2802C228.96 10.8842 228.636 10.5602 228.24 10.5602Z" fill="#5473C8"/>
<path d="M228.24 12.9602C227.844 12.9602 227.52 13.2842 227.52 13.6802C227.52 14.0762 227.844 14.4002 228.24 14.4002C228.636 14.4002 228.96 14.0762 228.96 13.6802C228.96 13.2842 228.636 12.9602 228.24 12.9602Z" fill="#5473C8"/>
<mask id="path-28-inside-3_9517_206122" fill="white">
<path d="M92.64 23.0391H240V132.479H92.64V23.0391Z"/>
</mask>
<path d="M92.64 23.0391H240V132.479H92.64V23.0391Z" fill="white"/>
<path d="M240 132.479V132.959H240.48V132.479H240ZM92.64 132.479H92.16V132.959H92.64V132.479ZM240 23.0391H239.52V132.479H240H240.48V23.0391H240ZM240 132.479V131.999H92.64V132.479V132.959H240V132.479ZM92.64 132.479H93.12V23.0391H92.64H92.16V132.479H92.64Z" fill="#C2D1EB" mask="url(#path-28-inside-3_9517_206122)"/>
<rect x="98.88" y="32.1602" width="134.88" height="2.88" rx="1.44" fill="#C2D1EB"/>
<rect x="98.88" y="40.7988" width="134.88" height="2.88" rx="1.44" fill="#C2D1EB"/>
<rect x="98.88" y="49.4395" width="134.88" height="2.88" rx="1.44" fill="#C2D1EB"/>
<rect x="98.88" y="58.0801" width="134.88" height="2.88" rx="1.44" fill="#C2D1EB"/>
<rect x="98.88" y="66.7188" width="67.2" height="2.88" rx="1.44" fill="#C2D1EB"/>
<defs>
<clipPath id="clip0_9517_206122">
<rect width="93.12" height="132.48" fill="white"/>
</clipPath>
<clipPath id="clip1_9517_206122">
<rect x="159.84" y="4.32031" width="57.6" height="14.4" rx="1.92" fill="white"/>
</clipPath>
</defs>
</svg>
