<svg width="160" height="89" viewBox="0 0 160 89" fill="none" xmlns="http://www.w3.org/2000/svg">
<g clip-path="url(#clip0_9517_207075)">
<rect width="62.08" height="88.32" fill="white"/>
<mask id="path-3-inside-1_9517_207075" fill="white">
<path d="M0 0H84.48V15.36H0V0Z"/>
</mask>
<path d="M0 0H84.48V15.36H0V0Z" fill="white"/>
<path d="M84.48 15.36V15.04H0V15.36V15.68H84.48V15.36Z" fill="#C2D1EB" mask="url(#path-3-inside-1_9517_207075)"/>
<rect x="3.41333" y="2.88086" width="21.76" height="9.6" rx="4.8" fill="#C2D1EB"/>
<rect x="6.82666" y="6.82812" width="14.9334" height="1.70667" rx="0.853335" fill="#5473C8"/>
<rect x="26.0267" y="2.88086" width="29.44" height="9.6" rx="4.8" fill="white"/>
<path d="M30.1867 5.06641H34.6667C34.872 5.06641 35.04 5.23441 35.04 5.43974V8.79975C35.04 9.00508 34.872 9.17308 34.6667 9.17308H30.9334L29.8134 10.2931V5.43974C29.8134 5.23441 29.9814 5.06641 30.1867 5.06641ZM34.666 8.79975L34.6667 8.79907V5.44041L34.666 5.43974H30.1874L30.1867 5.44041V9.39177L30.7787 8.79975H34.666Z" fill="#5473C8"/>
<rect x="37.12" y="6.82812" width="14.9334" height="1.70667" rx="0.853335" fill="#5473C8"/>
<rect width="62.08" height="57.6" transform="translate(0 15.3594)" fill="#F2F6FB"/>
<rect x="6.60506" y="18.7372" width="48.8699" height="23.0575" rx="0.655462" fill="white"/>
<rect x="6.60506" y="18.7372" width="48.8699" height="23.0575" rx="0.655462" stroke="#C2D1EB" stroke-width="0.302521"/>
<rect x="9.68066" y="21.8125" width="42.24" height="2.24" rx="1.12" fill="#C2D1EB"/>
<path d="M54.1792 41.6612L53.8943 41.3763L55.1044 40.1662L55.3893 40.4511L54.1792 41.6612ZM55.1838 39.0368L54.899 38.752L52.48 41.1709L52.7649 41.4557L55.1838 39.0368Z" fill="#90ABDA"/>
<rect width="62.08" height="15.36" transform="translate(0 72.9609)" fill="white"/>
<rect x="3.22687" y="75.8418" width="29.76" height="9.6" rx="4.8" fill="#5473C8"/>
<path d="M9.47894 78.5232L9.99238 79.8249L11.2941 80.3383L9.99238 80.8518L9.47894 82.1535L8.96551 80.8518L7.66382 80.3383L8.96551 79.8249L9.47894 78.5232ZM7.34296 81.5301L6.45374 81.851L7.34296 82.1718L7.66382 83.061L7.98468 82.1718L8.8739 81.851L7.98468 81.5301L7.66382 80.6409L7.34296 81.5301ZM7.12061 78.8876L6.45374 79.1283L7.12061 79.369L7.3613 80.0358L7.60199 79.369L8.26886 79.1283L7.60199 78.8876L7.3613 78.2207L7.12061 78.8876Z" fill="white"/>
<rect x="12.9075" y="79.8359" width="14.1176" height="1.61345" rx="0.806723" fill="white"/>
</g>
<rect x="0.15126" y="0.15126" width="61.7775" height="88.0175" stroke="#C2D1EB" stroke-width="0.302521"/>
<rect x="61.92" y="0.16" width="97.92" height="15.04" fill="#E4ECF6"/>
<rect x="61.92" y="0.16" width="97.92" height="15.04" stroke="#C2D1EB" stroke-width="0.32"/>
<rect x="64.64" y="2.88086" width="9.6" height="9.6" rx="4.8" fill="#5473C8"/>
<path d="M70.4194 8.94262L69.1588 7.68202L70.4194 6.42141L70.08 6.08203L68.48 7.68202L70.08 9.28203L70.4194 8.94262Z" fill="white"/>
<g clip-path="url(#clip1_9517_207075)">
<path d="M106.56 4.16086C106.56 3.45393 107.133 2.88086 107.84 2.88086H135.36V12.4809H107.84C107.133 12.4809 106.56 11.9078 106.56 11.2009V4.16086Z" fill="#C2D1EB"/>
<rect x="110.4" y="6.7207" width="21.12" height="1.92" rx="0.96" fill="#5473C8"/>
<mask id="path-23-inside-2_9517_207075" fill="white">
<path d="M135.36 2.88086H143.68C144.387 2.88086 144.96 3.45393 144.96 4.16086V11.2009C144.96 11.9078 144.387 12.4809 143.68 12.4809H135.36V2.88086Z"/>
</mask>
<path d="M135.36 2.88086H143.68C144.387 2.88086 144.96 3.45393 144.96 4.16086V11.2009C144.96 11.9078 144.387 12.4809 143.68 12.4809H135.36V2.88086Z" fill="#C2D1EB"/>
<path d="M135.36 2.88086H144.96H135.36ZM144.96 12.4809H135.36H144.96ZM135.04 12.4809V2.88086H135.68V12.4809H135.04ZM144.96 2.88086V12.4809V2.88086Z" fill="#90ABDA" mask="url(#path-23-inside-2_9517_207075)"/>
<path d="M140.16 8.64266L138.88 6.72266H141.44L140.16 8.64266Z" fill="#5473C8"/>
</g>
<rect x="106.72" y="3.04086" width="38.08" height="9.28" rx="1.12" stroke="#C2D1EB" stroke-width="0.32"/>
<rect x="147.52" y="2.88086" width="9.6" height="9.6" rx="1.28" fill="#C2D1EB"/>
<path d="M152.16 6.40141C152.424 6.40141 152.64 6.18541 152.64 5.92141C152.64 5.65741 152.424 5.44141 152.16 5.44141C151.896 5.44141 151.68 5.65741 151.68 5.92141C151.68 6.18541 151.896 6.40141 152.16 6.40141Z" fill="#5473C8"/>
<path d="M152.16 7.04141C151.896 7.04141 151.68 7.25741 151.68 7.52141C151.68 7.78541 151.896 8.00141 152.16 8.00141C152.424 8.00141 152.64 7.78541 152.64 7.52141C152.64 7.25741 152.424 7.04141 152.16 7.04141Z" fill="#5473C8"/>
<path d="M152.16 8.64141C151.896 8.64141 151.68 8.85741 151.68 9.12141C151.68 9.38541 151.896 9.60141 152.16 9.60141C152.424 9.60141 152.64 9.38541 152.64 9.12141C152.64 8.85741 152.424 8.64141 152.16 8.64141Z" fill="#5473C8"/>
<mask id="path-28-inside-3_9517_207075" fill="white">
<path d="M61.76 15.3594H160V88.3194H61.76V15.3594Z"/>
</mask>
<path d="M61.76 15.3594H160V88.3194H61.76V15.3594Z" fill="white"/>
<path d="M160 88.3194V88.6394H160.32V88.3194H160ZM61.76 88.3194H61.44V88.6394H61.76V88.3194ZM160 15.3594H159.68V88.3194H160H160.32V15.3594H160ZM160 88.3194V87.9994H61.76V88.3194V88.6394H160V88.3194ZM61.76 88.3194H62.08V15.3594H61.76H61.44V88.3194H61.76Z" fill="#C2D1EB" mask="url(#path-28-inside-3_9517_207075)"/>
<rect x="65.92" y="21.4395" width="89.92" height="1.92" rx="0.96" fill="#C2D1EB"/>
<rect x="65.92" y="27.1992" width="89.92" height="1.92" rx="0.96" fill="#C2D1EB"/>
<rect x="65.92" y="32.9609" width="89.92" height="1.92" rx="0.96" fill="#C2D1EB"/>
<rect x="65.92" y="38.7207" width="89.92" height="1.92" rx="0.96" fill="#C2D1EB"/>
<rect x="65.92" y="44.4805" width="44.8" height="1.92" rx="0.96" fill="#C2D1EB"/>
<defs>
<clipPath id="clip0_9517_207075">
<rect width="62.08" height="88.32" fill="white"/>
</clipPath>
<clipPath id="clip1_9517_207075">
<rect x="106.56" y="2.88086" width="38.4" height="9.6" rx="1.28" fill="white"/>
</clipPath>
</defs>
</svg>
