<svg width="240" height="137" viewBox="0 0 240 137" fill="none" xmlns="http://www.w3.org/2000/svg">
<g clip-path="url(#clip0_10949_57214)">
<rect x="0.157255" y="0.157255" width="150.336" height="17.7498" fill="#E4ECF6"/>
<rect x="0.157255" y="0.157255" width="150.336" height="17.7498" stroke="#C2D1EB" stroke-width="0.31451"/>
<path d="M122.295 2.9873H141.619C144.956 2.98756 147.662 5.69341 147.663 9.03125C147.663 12.3693 144.957 15.0759 141.619 15.0762H122.295C118.957 15.076 116.251 12.3693 116.251 9.03125C116.252 5.69338 118.958 2.98752 122.295 2.9873Z" fill="#C2D1EB"/>
<path d="M122.295 2.9873H141.619C144.956 2.98756 147.662 5.69341 147.663 9.03125C147.663 12.3693 144.957 15.0759 141.619 15.0762H122.295C118.957 15.076 116.251 12.3693 116.251 9.03125C116.252 5.69338 118.958 2.98752 122.295 2.9873Z" stroke="#3958AC" stroke-width="0.31451"/>
<path d="M125.921 11.5037C126.06 11.5037 126.172 11.6158 126.172 11.7542C126.172 11.8926 126.06 12.0047 125.921 12.0047H123.917C123.779 12.0047 123.667 11.8926 123.667 11.7542C123.667 11.6158 123.779 11.5037 123.917 11.5037H125.921Z" fill="#3958AC"/>
<path d="M125.921 10.5016C126.06 10.5016 126.172 10.6137 126.172 10.7521C126.172 10.8905 126.06 11.0026 125.921 11.0026H123.917C123.779 11.0026 123.667 10.8905 123.667 10.7521C123.667 10.6137 123.779 10.5016 123.917 10.5016H125.921Z" fill="#3958AC"/>
<path fill-rule="evenodd" clip-rule="evenodd" d="M124.669 6.99428C125.499 6.99428 126.172 7.66725 126.172 8.49741V8.99845C127.002 8.99845 127.675 9.67143 127.675 10.5016V13.5078H123.667L123.589 13.5059C122.821 13.4669 122.205 12.8506 122.166 12.082L122.164 12.0047V11.5037H120.661V9.08604L121.162 10.4742V11.0026H122.164V10.5016C122.164 9.67143 122.837 8.99845 123.667 8.99845H125.671V8.49741C125.671 7.94397 125.222 7.49532 124.669 7.49532H124.14L122.752 6.99428H124.669ZM123.667 9.49949C123.113 9.49949 122.665 9.94814 122.665 10.5016V12.0047C122.665 12.5582 123.113 13.0068 123.667 13.0068H127.174V10.5016C127.174 9.94814 126.725 9.49949 126.172 9.49949H123.667Z" fill="#3958AC"/>
<path d="M121.56 7.09654L122.665 7.49532L121.56 7.8941L121.162 8.99845L120.763 7.8941L119.658 7.49532L120.763 7.09654L121.162 5.99219L121.56 7.09654Z" fill="#3958AC"/>
<path d="M129.92 7.77067L128.736 11.0312H128.252L129.615 7.4537H129.927L129.92 7.77067ZM130.913 11.0312L129.726 7.77067L129.719 7.4537H130.031L131.399 11.0312H130.913ZM130.851 9.70687V10.0951H128.841V9.70687H130.851ZM132.387 7.4537V11.0312H131.913V7.4537H132.387ZM137.141 9.24985V10.5595C137.097 10.625 137.027 10.6987 136.93 10.7806C136.834 10.8609 136.7 10.9313 136.53 10.9919C136.361 11.0509 136.143 11.0804 135.876 11.0804C135.658 11.0804 135.458 11.0427 135.274 10.9674C135.092 10.8904 134.934 10.779 134.8 10.6332C134.667 10.4858 134.564 10.3072 134.49 10.0975C134.418 9.88624 134.382 9.64708 134.382 9.38007V9.10242C134.382 8.83541 134.413 8.59707 134.475 8.3874C134.539 8.17773 134.633 8 134.756 7.85421C134.878 7.70678 135.029 7.59539 135.208 7.52004C135.386 7.44305 135.591 7.40456 135.822 7.40456C136.096 7.40456 136.324 7.45206 136.508 7.54707C136.693 7.64044 136.837 7.76985 136.94 7.93529C137.045 8.10074 137.112 8.28912 137.141 8.50043H136.667C136.646 8.37102 136.603 8.25308 136.539 8.1466C136.477 8.04013 136.388 7.95495 136.272 7.89106C136.155 7.82554 136.005 7.79278 135.822 7.79278C135.657 7.79278 135.513 7.82308 135.392 7.88369C135.271 7.9443 135.171 8.03112 135.092 8.14415C135.014 8.25717 134.955 8.39395 134.915 8.55448C134.878 8.71502 134.859 8.89602 134.859 9.09751V9.38007C134.859 9.58647 134.883 9.77075 134.93 9.93292C134.979 10.0951 135.049 10.2335 135.139 10.3482C135.229 10.4612 135.336 10.5472 135.461 10.6062C135.587 10.6651 135.726 10.6946 135.879 10.6946C136.047 10.6946 136.184 10.6807 136.289 10.6529C136.394 10.6234 136.476 10.589 136.535 10.5497C136.594 10.5087 136.639 10.4702 136.67 10.4342V9.63315H135.842V9.24985H137.141ZM138.314 8.79037V11.0312H137.859V8.37266H138.301L138.314 8.79037ZM139.144 8.35792L139.142 8.78054C139.104 8.77235 139.068 8.76743 139.033 8.7658C139.001 8.76252 138.963 8.76088 138.92 8.76088C138.816 8.76088 138.723 8.77726 138.643 8.81002C138.562 8.84278 138.495 8.88865 138.439 8.94762C138.383 9.00659 138.339 9.07703 138.306 9.15893C138.275 9.2392 138.255 9.32765 138.245 9.4243L138.117 9.49801C138.117 9.33748 138.132 9.18678 138.164 9.04591C138.196 8.90503 138.246 8.78054 138.314 8.67243C138.381 8.56267 138.466 8.47749 138.569 8.41689C138.674 8.35464 138.798 8.32352 138.943 8.32352C138.975 8.32352 139.013 8.32761 139.056 8.3358C139.098 8.34235 139.128 8.34972 139.144 8.35792ZM140.058 8.37266V11.0312H139.601V8.37266H140.058ZM139.567 7.66747C139.567 7.59375 139.589 7.53151 139.633 7.48073C139.679 7.42995 139.746 7.40456 139.834 7.40456C139.921 7.40456 139.988 7.42995 140.033 7.48073C140.081 7.53151 140.105 7.59375 140.105 7.66747C140.105 7.7379 140.081 7.79851 140.033 7.84929C139.988 7.89844 139.921 7.92301 139.834 7.92301C139.746 7.92301 139.679 7.89844 139.633 7.84929C139.589 7.79851 139.567 7.7379 139.567 7.66747ZM142.464 10.5153V7.25713H142.921V11.0312H142.503L142.464 10.5153ZM140.675 9.73144V9.67984C140.675 9.47672 140.699 9.29244 140.748 9.12699C140.799 8.95991 140.871 8.81658 140.962 8.697C141.056 8.57742 141.166 8.48569 141.294 8.4218C141.423 8.35628 141.568 8.32352 141.726 8.32352C141.894 8.32352 142.039 8.353 142.164 8.41197C142.29 8.4693 142.396 8.55367 142.483 8.66505C142.572 8.7748 142.641 8.90749 142.692 9.06311C142.743 9.21872 142.778 9.39482 142.798 9.59138V9.81744C142.78 10.0124 142.744 10.1876 142.692 10.3433C142.641 10.4989 142.572 10.6316 142.483 10.7413C142.396 10.8511 142.29 10.9354 142.164 10.9944C142.038 11.0517 141.89 11.0804 141.722 11.0804C141.566 11.0804 141.423 11.0468 141.294 10.9797C141.166 10.9125 141.056 10.8183 140.962 10.6971C140.871 10.5759 140.799 10.4334 140.748 10.2695C140.699 10.1041 140.675 9.92473 140.675 9.73144ZM141.132 9.67984V9.73144C141.132 9.86412 141.145 9.98862 141.171 10.1049C141.199 10.2212 141.242 10.3236 141.299 10.4121C141.356 10.5005 141.429 10.5701 141.518 10.6209C141.606 10.6701 141.712 10.6946 141.835 10.6946C141.985 10.6946 142.109 10.6627 142.206 10.5988C142.304 10.5349 142.382 10.4506 142.441 10.3457C142.5 10.2409 142.546 10.127 142.579 10.0042V9.41202C142.559 9.32192 142.531 9.2351 142.493 9.15156C142.457 9.06638 142.41 8.99103 142.351 8.92551C142.293 8.85835 142.222 8.80511 142.137 8.7658C142.053 8.72648 141.954 8.70682 141.839 8.70682C141.715 8.70682 141.608 8.73303 141.518 8.78545C141.429 8.83623 141.356 8.90667 141.299 8.99676C141.242 9.08522 141.199 9.18842 141.171 9.30636C141.145 9.42266 141.132 9.54716 141.132 9.67984Z" fill="#3958AC"/>
<g clip-path="url(#clip1_10949_57214)">
<mask id="path-8-inside-1_10949_57214" fill="white">
<path d="M0 18.0645H197.428V32.9024H0V18.0645Z"/>
</mask>
<rect width="50.1044" height="14.838" transform="translate(0 18.0645)" fill="#E4ECF6"/>
<rect x="4.94604" y="24.2461" width="27.4778" height="2.473" rx="1.2365" fill="#90ABDA"/>
<mask id="path-11-inside-2_10949_57214" fill="white">
<path d="M50.1044 18.0645H100.209V32.9024H50.1044V18.0645Z"/>
</mask>
<path d="M50.1044 18.0645H100.209V32.9024H50.1044V18.0645Z" fill="#E4ECF6"/>
<path d="M50.1044 32.9024H50.5165V18.0645H50.1044H49.6922V32.9024H50.1044Z" fill="#C2D1EB" mask="url(#path-11-inside-2_10949_57214)"/>
<rect x="55.0504" y="24.2461" width="27.4778" height="2.473" rx="1.2365" fill="#90ABDA"/>
<mask id="path-14-inside-3_10949_57214" fill="white">
<path d="M100.209 18.0645H150.313V32.9024H100.209V18.0645Z"/>
</mask>
<path d="M100.209 18.0645H150.313V32.9024H100.209V18.0645Z" fill="#E4ECF6"/>
<path d="M100.209 32.9024H100.621V18.0645H100.209H99.7966V32.9024H100.209Z" fill="#C2D1EB" mask="url(#path-14-inside-3_10949_57214)"/>
<rect x="105.155" y="24.2461" width="27.4778" height="2.473" rx="1.2365" fill="#90ABDA"/>
<mask id="path-17-inside-4_10949_57214" fill="white">
<path d="M150.313 18.0645H200.417V32.9024H150.313V18.0645Z"/>
</mask>
<path d="M150.313 18.0645H200.417V32.9024H150.313V18.0645Z" fill="#E4ECF6"/>
<path d="M150.313 32.9024H150.725V18.0645H150.313H149.901V32.9024H150.313Z" fill="#C2D1EB" mask="url(#path-17-inside-4_10949_57214)"/>
</g>
<path d="M197.428 32.9024V32.4903H0V32.9024V33.3146H197.428V32.9024Z" fill="#C2D1EB" mask="url(#path-8-inside-1_10949_57214)"/>
<g clip-path="url(#clip2_10949_57214)">
<mask id="path-19-inside-5_10949_57214" fill="white">
<path d="M0 32.9023H197.428V47.7403H0V32.9023Z"/>
</mask>
<rect width="50.1044" height="14.838" transform="translate(0 32.9023)" fill="white"/>
<rect x="4.94604" y="39.084" width="24.73" height="2.473" rx="1.2365" fill="#C2D1EB"/>
<mask id="path-22-inside-6_10949_57214" fill="white">
<path d="M50.1044 32.9023H100.209V47.7403H50.1044V32.9023Z"/>
</mask>
<path d="M50.1044 32.9023H100.209V47.7403H50.1044V32.9023Z" fill="white"/>
<path d="M50.1044 47.7403H50.5165V32.9023H50.1044H49.6922V47.7403H50.1044Z" fill="#C2D1EB" mask="url(#path-22-inside-6_10949_57214)"/>
<rect x="55.0504" y="39.084" width="24.73" height="2.473" rx="1.2365" fill="#C2D1EB"/>
<mask id="path-25-inside-7_10949_57214" fill="white">
<path d="M100.209 32.9023H150.313V47.7403H100.209V32.9023Z"/>
</mask>
<path d="M100.209 32.9023H150.313V47.7403H100.209V32.9023Z" fill="white"/>
<path d="M100.209 47.7403H100.621V32.9023H100.209H99.7966V47.7403H100.209Z" fill="#C2D1EB" mask="url(#path-25-inside-7_10949_57214)"/>
<rect x="105.155" y="39.084" width="24.73" height="2.473" rx="1.2365" fill="#C2D1EB"/>
<mask id="path-28-inside-8_10949_57214" fill="white">
<path d="M150.313 32.9023H200.417V47.7403H150.313V32.9023Z"/>
</mask>
<path d="M150.313 32.9023H200.417V47.7403H150.313V32.9023Z" fill="white"/>
<path d="M150.313 47.7403H150.725V32.9023H150.313H149.901V47.7403H150.313Z" fill="#C2D1EB" mask="url(#path-28-inside-8_10949_57214)"/>
</g>
<path d="M197.428 47.7403V47.3282H0V47.7403V48.1525H197.428V47.7403Z" fill="#C2D1EB" mask="url(#path-19-inside-5_10949_57214)"/>
<g clip-path="url(#clip3_10949_57214)">
<mask id="path-30-inside-9_10949_57214" fill="white">
<path d="M0 47.7402H197.428V62.5782H0V47.7402Z"/>
</mask>
<rect width="50.1044" height="14.838" transform="translate(0 47.7402)" fill="#F2F6FB"/>
<rect x="4.94604" y="53.9219" width="24.73" height="2.473" rx="1.2365" fill="#C2D1EB"/>
<mask id="path-33-inside-10_10949_57214" fill="white">
<path d="M50.1044 47.7402H100.209V62.5782H50.1044V47.7402Z"/>
</mask>
<path d="M50.1044 47.7402H100.209V62.5782H50.1044V47.7402Z" fill="#F2F6FB"/>
<path d="M50.1044 62.5782H50.5165V47.7402H50.1044H49.6922V62.5782H50.1044Z" fill="#C2D1EB" mask="url(#path-33-inside-10_10949_57214)"/>
<rect x="55.0504" y="53.9219" width="24.73" height="2.473" rx="1.2365" fill="#C2D1EB"/>
<mask id="path-36-inside-11_10949_57214" fill="white">
<path d="M100.209 47.7402H150.313V62.5782H100.209V47.7402Z"/>
</mask>
<path d="M100.209 47.7402H150.313V62.5782H100.209V47.7402Z" fill="#F2F6FB"/>
<path d="M100.209 62.5782H100.621V47.7402H100.209H99.7966V62.5782H100.209Z" fill="#C2D1EB" mask="url(#path-36-inside-11_10949_57214)"/>
<rect x="105.155" y="53.9219" width="24.73" height="2.473" rx="1.2365" fill="#C2D1EB"/>
<mask id="path-39-inside-12_10949_57214" fill="white">
<path d="M150.313 47.7402H200.417V62.5782H150.313V47.7402Z"/>
</mask>
<path d="M150.313 47.7402H200.417V62.5782H150.313V47.7402Z" fill="#F2F6FB"/>
<path d="M150.313 62.5782H150.725V47.7402H150.313H149.901V62.5782H150.313Z" fill="#C2D1EB" mask="url(#path-39-inside-12_10949_57214)"/>
</g>
<path d="M197.428 62.5782V62.1661H0V62.5782V62.9904H197.428V62.5782Z" fill="#C2D1EB" mask="url(#path-30-inside-9_10949_57214)"/>
<g clip-path="url(#clip4_10949_57214)">
<mask id="path-41-inside-13_10949_57214" fill="white">
<path d="M0 62.5781H197.428V77.4161H0V62.5781Z"/>
</mask>
<rect width="50.1044" height="14.838" transform="translate(0 62.5781)" fill="white"/>
<rect x="4.94604" y="68.7598" width="24.73" height="2.473" rx="1.2365" fill="#C2D1EB"/>
<mask id="path-44-inside-14_10949_57214" fill="white">
<path d="M50.1044 62.5781H100.209V77.4161H50.1044V62.5781Z"/>
</mask>
<path d="M50.1044 62.5781H100.209V77.4161H50.1044V62.5781Z" fill="white"/>
<path d="M50.1044 77.4161H50.5165V62.5781H50.1044H49.6922V77.4161H50.1044Z" fill="#C2D1EB" mask="url(#path-44-inside-14_10949_57214)"/>
<rect x="55.0504" y="68.7598" width="24.73" height="2.473" rx="1.2365" fill="#C2D1EB"/>
<mask id="path-47-inside-15_10949_57214" fill="white">
<path d="M100.209 62.5781H150.313V77.4161H100.209V62.5781Z"/>
</mask>
<path d="M100.209 62.5781H150.313V77.4161H100.209V62.5781Z" fill="white"/>
<path d="M100.209 77.4161H100.621V62.5781H100.209H99.7966V77.4161H100.209Z" fill="#C2D1EB" mask="url(#path-47-inside-15_10949_57214)"/>
<rect x="105.155" y="68.7598" width="24.73" height="2.473" rx="1.2365" fill="#C2D1EB"/>
<mask id="path-50-inside-16_10949_57214" fill="white">
<path d="M150.313 62.5781H200.417V77.4161H150.313V62.5781Z"/>
</mask>
<path d="M150.313 62.5781H200.417V77.4161H150.313V62.5781Z" fill="white"/>
<path d="M150.313 77.4161H150.725V62.5781H150.313H149.901V77.4161H150.313Z" fill="#C2D1EB" mask="url(#path-50-inside-16_10949_57214)"/>
</g>
<path d="M197.428 77.4161V77.0039H0V77.4161V77.8283H197.428V77.4161Z" fill="#C2D1EB" mask="url(#path-41-inside-13_10949_57214)"/>
<g clip-path="url(#clip5_10949_57214)">
<mask id="path-52-inside-17_10949_57214" fill="white">
<path d="M0 77.416H197.428V92.254H0V77.416Z"/>
</mask>
<rect width="50.1044" height="14.838" transform="translate(0 77.416)" fill="#F2F6FB"/>
<rect x="4.94604" y="83.5977" width="24.73" height="2.473" rx="1.2365" fill="#C2D1EB"/>
<mask id="path-55-inside-18_10949_57214" fill="white">
<path d="M50.1044 77.416H100.209V92.254H50.1044V77.416Z"/>
</mask>
<path d="M50.1044 77.416H100.209V92.254H50.1044V77.416Z" fill="#F2F6FB"/>
<path d="M50.1044 92.254H50.5165V77.416H50.1044H49.6922V92.254H50.1044Z" fill="#C2D1EB" mask="url(#path-55-inside-18_10949_57214)"/>
<rect x="55.0504" y="83.5977" width="24.73" height="2.473" rx="1.2365" fill="#C2D1EB"/>
<mask id="path-58-inside-19_10949_57214" fill="white">
<path d="M100.209 77.416H150.313V92.254H100.209V77.416Z"/>
</mask>
<path d="M100.209 77.416H150.313V92.254H100.209V77.416Z" fill="#F2F6FB"/>
<path d="M100.209 92.254H100.621V77.416H100.209H99.7966V92.254H100.209Z" fill="#C2D1EB" mask="url(#path-58-inside-19_10949_57214)"/>
<rect x="105.155" y="83.5977" width="24.73" height="2.473" rx="1.2365" fill="#C2D1EB"/>
<mask id="path-61-inside-20_10949_57214" fill="white">
<path d="M150.313 77.416H200.417V92.254H150.313V77.416Z"/>
</mask>
<path d="M150.313 77.416H200.417V92.254H150.313V77.416Z" fill="#F2F6FB"/>
<path d="M150.313 92.254H150.725V77.416H150.313H149.901V92.254H150.313Z" fill="#C2D1EB" mask="url(#path-61-inside-20_10949_57214)"/>
</g>
<path d="M197.428 92.254V91.8418H0V92.254V92.6662H197.428V92.254Z" fill="#C2D1EB" mask="url(#path-52-inside-17_10949_57214)"/>
<g clip-path="url(#clip6_10949_57214)">
<mask id="path-63-inside-21_10949_57214" fill="white">
<path d="M0 92.2539H197.428V107.092H0V92.2539Z"/>
</mask>
<rect width="50.1044" height="14.838" transform="translate(0 92.2539)" fill="white"/>
<rect x="4.94604" y="98.4355" width="24.73" height="2.473" rx="1.2365" fill="#C2D1EB"/>
<mask id="path-66-inside-22_10949_57214" fill="white">
<path d="M50.1044 92.2539H100.209V107.092H50.1044V92.2539Z"/>
</mask>
<path d="M50.1044 92.2539H100.209V107.092H50.1044V92.2539Z" fill="white"/>
<path d="M50.1044 107.092H50.5165V92.2539H50.1044H49.6922V107.092H50.1044Z" fill="#C2D1EB" mask="url(#path-66-inside-22_10949_57214)"/>
<rect x="55.0504" y="98.4355" width="24.73" height="2.473" rx="1.2365" fill="#C2D1EB"/>
<mask id="path-69-inside-23_10949_57214" fill="white">
<path d="M100.209 92.2539H150.313V107.092H100.209V92.2539Z"/>
</mask>
<path d="M100.209 92.2539H150.313V107.092H100.209V92.2539Z" fill="white"/>
<path d="M100.209 107.092H100.621V92.2539H100.209H99.7966V107.092H100.209Z" fill="#C2D1EB" mask="url(#path-69-inside-23_10949_57214)"/>
<rect x="105.155" y="98.4355" width="24.73" height="2.473" rx="1.2365" fill="#C2D1EB"/>
<mask id="path-72-inside-24_10949_57214" fill="white">
<path d="M150.313 92.2539H200.417V107.092H150.313V92.2539Z"/>
</mask>
<path d="M150.313 92.2539H200.417V107.092H150.313V92.2539Z" fill="white"/>
<path d="M150.313 107.092H150.725V92.2539H150.313H149.901V107.092H150.313Z" fill="#C2D1EB" mask="url(#path-72-inside-24_10949_57214)"/>
</g>
<path d="M197.428 107.092V106.68H0V107.092V107.504H197.428V107.092Z" fill="#C2D1EB" mask="url(#path-63-inside-21_10949_57214)"/>
<g clip-path="url(#clip7_10949_57214)">
<mask id="path-74-inside-25_10949_57214" fill="white">
<path d="M0 107.092H197.428V121.93H0V107.092Z"/>
</mask>
<rect width="50.1044" height="14.838" transform="translate(0 107.092)" fill="#F2F6FB"/>
<rect x="4.94604" y="113.273" width="24.73" height="2.473" rx="1.2365" fill="#C2D1EB"/>
<mask id="path-77-inside-26_10949_57214" fill="white">
<path d="M50.1044 107.092H100.209V121.93H50.1044V107.092Z"/>
</mask>
<path d="M50.1044 107.092H100.209V121.93H50.1044V107.092Z" fill="#F2F6FB"/>
<path d="M50.1044 121.93H50.5165V107.092H50.1044H49.6922V121.93H50.1044Z" fill="#C2D1EB" mask="url(#path-77-inside-26_10949_57214)"/>
<rect x="55.0504" y="113.273" width="24.73" height="2.473" rx="1.2365" fill="#C2D1EB"/>
<mask id="path-80-inside-27_10949_57214" fill="white">
<path d="M100.209 107.092H150.313V121.93H100.209V107.092Z"/>
</mask>
<path d="M100.209 107.092H150.313V121.93H100.209V107.092Z" fill="#F2F6FB"/>
<path d="M100.209 121.93H100.621V107.092H100.209H99.7966V121.93H100.209Z" fill="#C2D1EB" mask="url(#path-80-inside-27_10949_57214)"/>
<rect x="105.155" y="113.273" width="24.73" height="2.473" rx="1.2365" fill="#C2D1EB"/>
<mask id="path-83-inside-28_10949_57214" fill="white">
<path d="M150.313 107.092H200.417V121.93H150.313V107.092Z"/>
</mask>
<path d="M150.313 107.092H200.417V121.93H150.313V107.092Z" fill="#F2F6FB"/>
<path d="M150.313 121.93H150.725V107.092H150.313H149.901V121.93H150.313Z" fill="#C2D1EB" mask="url(#path-83-inside-28_10949_57214)"/>
</g>
<path d="M197.428 121.93V121.518H0V121.93V122.342H197.428V121.93Z" fill="#C2D1EB" mask="url(#path-74-inside-25_10949_57214)"/>
<g clip-path="url(#clip8_10949_57214)">
<mask id="path-85-inside-29_10949_57214" fill="white">
<path d="M0 121.93H197.428V136.768H0V121.93Z"/>
</mask>
<rect width="50.1044" height="14.838" transform="translate(0 121.93)" fill="white"/>
<rect x="4.94604" y="128.111" width="24.73" height="2.473" rx="1.2365" fill="#C2D1EB"/>
<mask id="path-88-inside-30_10949_57214" fill="white">
<path d="M50.1044 121.93H100.209V136.768H50.1044V121.93Z"/>
</mask>
<path d="M50.1044 121.93H100.209V136.768H50.1044V121.93Z" fill="white"/>
<path d="M50.1044 136.768H50.5165V121.93H50.1044H49.6922V136.768H50.1044Z" fill="#C2D1EB" mask="url(#path-88-inside-30_10949_57214)"/>
<rect x="55.0504" y="128.111" width="24.73" height="2.473" rx="1.2365" fill="#C2D1EB"/>
<mask id="path-91-inside-31_10949_57214" fill="white">
<path d="M100.209 121.93H150.313V136.768H100.209V121.93Z"/>
</mask>
<path d="M100.209 121.93H150.313V136.768H100.209V121.93Z" fill="white"/>
<path d="M100.209 136.768H100.621V121.93H100.209H99.7966V136.768H100.209Z" fill="#C2D1EB" mask="url(#path-91-inside-31_10949_57214)"/>
<rect x="105.155" y="128.111" width="24.73" height="2.473" rx="1.2365" fill="#C2D1EB"/>
<mask id="path-94-inside-32_10949_57214" fill="white">
<path d="M150.313 121.93H200.417V136.768H150.313V121.93Z"/>
</mask>
<path d="M150.313 121.93H200.417V136.768H150.313V121.93Z" fill="white"/>
<path d="M150.313 136.768H150.725V121.93H150.313H149.901V136.768H150.313Z" fill="#C2D1EB" mask="url(#path-94-inside-32_10949_57214)"/>
</g>
<path d="M197.428 136.768V136.356H0V136.768V137.18H197.428V136.768Z" fill="#C2D1EB" mask="url(#path-85-inside-29_10949_57214)"/>
</g>
<rect x="0.157255" y="0.157255" width="150.336" height="136.454" stroke="#C2D1EB" stroke-width="0.31451"/>
<g clip-path="url(#clip9_10949_57214)">
<rect x="150.65" width="89.3497" height="136.284" fill="white"/>
<path d="M150.65 0H240V17.6493H150.65V0Z" fill="white"/>
<path d="M240 17.6493V17.4921H150.65V17.6493V17.8066H240V17.6493Z" fill="#C2D1EB"/>
<rect x="156.94" y="7.88086" width="23.5882" height="1.88706" rx="0.94353" fill="#90ABDA"/>
<path d="M228.992 4.26465C231.511 4.26472 233.553 6.3066 233.553 8.8252C233.553 11.3437 231.511 13.3857 228.992 13.3857C226.474 13.3857 224.432 11.3438 224.432 8.8252C224.432 6.30656 226.474 4.26465 228.992 4.26465Z" stroke="white" stroke-opacity="0.01" stroke-width="0.31451"/>
<path d="M230.296 7.29801C230.358 7.23662 230.457 7.23663 230.519 7.29801C230.58 7.35942 230.58 7.45897 230.519 7.52038L229.214 8.82449L230.519 10.1286C230.58 10.19 230.58 10.2896 230.519 10.351C230.457 10.4124 230.358 10.4124 230.296 10.351L228.992 9.04686L227.688 10.351C227.627 10.4124 227.527 10.4124 227.466 10.351C227.404 10.2896 227.404 10.19 227.466 10.1286L228.77 8.82449L227.466 7.52038C227.404 7.45897 227.404 7.35942 227.466 7.29801C227.527 7.2366 227.627 7.2366 227.688 7.29801L228.992 8.60212L230.296 7.29801Z" fill="#5473C8"/>
<g clip-path="url(#clip10_10949_57214)">
<rect width="89.3497" height="63.8455" transform="translate(150.65 17.6484)" fill="white"/>
</g>
<rect x="182.011" y="24.8809" width="28.3059" height="1.88706" rx="0.94353" fill="#C2D1EB"/>
<rect x="157.417" y="55.1113" width="65.1778" height="1.88706" rx="0.94353" fill="#C2D1EB"/>
<rect x="157.417" y="61.4023" width="65.1778" height="1.88706" rx="0.94353" fill="#C2D1EB"/>
<rect x="157.417" y="67.6914" width="65.1778" height="1.88706" rx="0.94353" fill="#C2D1EB"/>
<rect x="157.417" y="73.9824" width="36.4832" height="1.88706" rx="0.94353" fill="#C2D1EB"/>
<g filter="url(#filter0_d_10949_57214)">
<path d="M212.372 32.7448C212.372 30.6604 214.062 28.9707 216.147 28.9707H230.929C233.013 28.9707 234.703 30.6604 234.703 32.7448V40.2931C234.703 40.6405 234.421 40.9221 234.074 40.9221H216.147C214.062 40.9221 212.372 39.2324 212.372 37.148V32.7448Z" fill="#5473C8" shape-rendering="crispEdges"/>
<rect x="216.461" y="34.002" width="14.1529" height="1.88706" rx="0.94353" fill="white"/>
</g>
<g clip-path="url(#clip11_10949_57214)">
<path d="M166.908 36.422L168.509 40.4822L172.569 42.0832L168.509 43.6843L166.908 47.7444L165.307 43.6843L161.247 42.0832L165.307 40.4822L166.908 36.422ZM160.245 45.7984L157.473 46.8009L160.245 47.8034L161.247 50.575L162.25 47.8034L165.021 46.8009L162.25 45.7984L161.247 43.0268L160.245 45.7984ZM159.555 37.5602L157.473 38.3091L159.552 39.061L160.303 41.1397L161.055 39.061L163.134 38.3091L161.055 37.5572L160.303 35.4785L159.552 37.5572L159.555 37.5602Z" fill="#5473C8"/>
</g>
<rect width="89.3497" height="50.969" transform="translate(150.65 85.3145)" fill="white"/>
<g clip-path="url(#clip12_10949_57214)">
<rect x="156.94" y="89.0879" width="48.5356" height="8.82466" rx="4.41233" fill="#E4ECF6"/>
<rect x="160.715" y="92.5566" width="40.9874" height="1.88706" rx="0.94353" fill="#90ABDA"/>
<rect x="207.363" y="89.0879" width="35.8502" height="8.82466" rx="4.41233" fill="#E4ECF6"/>
<rect x="211.137" y="92.5566" width="28.302" height="1.88706" rx="0.94353" fill="#90ABDA"/>
</g>
<g filter="url(#filter1_d_10949_57214)">
<path d="M156.94 105.462C156.94 103.377 158.63 101.688 160.715 101.688H229.936C232.02 101.688 233.71 103.377 233.71 105.462V126.219C233.71 128.304 232.02 129.993 229.936 129.993H160.715C158.63 129.993 156.94 128.304 156.94 126.219V105.462Z" fill="white" shape-rendering="crispEdges"/>
<path d="M160.715 101.845H229.936C231.933 101.845 233.553 103.464 233.553 105.462V126.22C233.552 128.217 231.933 129.836 229.936 129.836H160.715C158.717 129.836 157.098 128.217 157.098 126.22V105.462C157.098 103.464 158.717 101.845 160.715 101.845Z" stroke="#C2D1EB" stroke-width="0.31451" shape-rendering="crispEdges"/>
<rect x="161.029" y="105.146" width="23.5882" height="1.88706" rx="0.94353" fill="#C2D1EB"/>
<g clip-path="url(#clip13_10949_57214)">
<path d="M165.118 117.255C167.636 117.255 169.678 119.297 169.678 121.815C169.678 124.334 167.636 126.376 165.118 126.376C162.599 126.376 160.557 124.334 160.557 121.815C160.557 119.297 162.599 117.255 165.118 117.255Z" stroke="white" stroke-opacity="0.01" stroke-width="0.31451"/>
<path d="M166.123 124.501H165.08C164.98 124.501 164.899 124.43 164.899 124.344C164.899 124.257 164.98 124.186 165.08 124.186H165.421V123.738C164.737 123.692 164.395 123.391 164.227 123.134C164.031 122.837 164.029 122.539 164.029 122.526C164.029 122.44 164.11 122.369 164.21 122.369C164.31 122.369 164.391 122.439 164.391 122.526C164.391 122.531 164.396 122.764 164.548 122.989C164.746 123.281 165.1 123.429 165.602 123.429C166.103 123.429 166.458 123.281 166.655 122.989C166.808 122.763 166.812 122.528 166.812 122.526C166.812 122.439 166.893 122.369 166.993 122.369C167.093 122.369 167.174 122.44 167.174 122.526C167.174 122.539 167.172 122.837 166.976 123.134C166.808 123.391 166.466 123.692 165.783 123.738V124.186H166.123C166.223 124.186 166.305 124.257 166.305 124.344C166.305 124.43 166.223 124.501 166.123 124.501H166.123ZM165.602 123.138C165.249 123.138 164.975 122.999 164.831 122.748C164.728 122.569 164.725 122.394 164.725 122.375V120.861C164.725 120.841 164.728 120.667 164.831 120.488C164.975 120.236 165.249 120.098 165.602 120.098C165.954 120.098 166.228 120.236 166.372 120.488C166.475 120.667 166.478 120.841 166.478 120.861V122.375C166.478 122.394 166.475 122.569 166.372 122.748C166.228 122.999 165.954 123.138 165.602 123.138ZM165.602 120.412C165.388 120.412 165.244 120.48 165.159 120.62C165.089 120.737 165.087 120.86 165.087 120.862V122.375C165.087 122.375 165.089 122.499 165.159 122.616C165.244 122.755 165.388 122.823 165.602 122.823C165.815 122.823 165.96 122.755 166.044 122.616C166.114 122.499 166.116 122.375 166.116 122.374V120.861C166.116 120.861 166.114 120.737 166.044 120.62C165.96 120.48 165.815 120.412 165.602 120.412Z" fill="#3958AC"/>
<path d="M225.533 117.255C228.051 117.255 230.093 119.297 230.093 121.815C230.093 124.334 228.051 126.376 225.533 126.376C223.014 126.376 220.972 124.334 220.972 121.815C220.972 119.297 223.014 117.255 225.533 117.255Z" fill="#E4ECF6"/>
<path d="M225.533 117.255C228.051 117.255 230.093 119.297 230.093 121.815C230.093 124.334 228.051 126.376 225.533 126.376C223.014 126.376 220.972 124.334 220.972 121.815C220.972 119.297 223.014 117.255 225.533 117.255Z" stroke="#E4ECF6" stroke-width="0.31451"/>
<path d="M226.307 121.093C226.307 120.984 226.395 120.896 226.504 120.896C226.612 120.896 226.7 120.984 226.7 121.093V124.474C226.7 124.583 226.612 124.671 226.504 124.671C226.395 124.671 226.307 124.583 226.307 124.474V121.093Z" fill="#3958AC"/>
<path d="M226.375 121.235C226.298 121.158 226.298 121.034 226.375 120.957C226.452 120.88 226.576 120.88 226.653 120.957L227.932 122.236C228.009 122.312 228.009 122.437 227.932 122.514C227.855 122.59 227.731 122.59 227.654 122.514L226.375 121.235Z" fill="#3958AC"/>
<path d="M226.627 121.235C226.704 121.158 226.704 121.034 226.627 120.957C226.55 120.88 226.426 120.88 226.349 120.957L225.07 122.236C224.993 122.312 224.993 122.437 225.07 122.514C225.147 122.59 225.271 122.59 225.348 122.514L226.627 121.235Z" fill="#3958AC"/>
</g>
</g>
</g>
<rect x="150.808" y="0.157255" width="89.0352" height="135.969" stroke="#C2D1EB" stroke-width="0.31451"/>
<defs>
<filter id="filter0_d_10949_57214" x="211.743" y="28.6562" width="23.5882" height="13.2092" filterUnits="userSpaceOnUse" color-interpolation-filters="sRGB">
<feFlood flood-opacity="0" result="BackgroundImageFix"/>
<feColorMatrix in="SourceAlpha" type="matrix" values="0 0 0 0 0 0 0 0 0 0 0 0 0 0 0 0 0 0 127 0" result="hardAlpha"/>
<feOffset dy="0.31451"/>
<feGaussianBlur stdDeviation="0.31451"/>
<feComposite in2="hardAlpha" operator="out"/>
<feColorMatrix type="matrix" values="0 0 0 0 0.223529 0 0 0 0 0.345098 0 0 0 0 0.67451 0 0 0 0.2 0"/>
<feBlend mode="normal" in2="BackgroundImageFix" result="effect1_dropShadow_10949_57214"/>
<feBlend mode="normal" in="SourceGraphic" in2="effect1_dropShadow_10949_57214" result="shape"/>
</filter>
<filter id="filter1_d_10949_57214" x="155.682" y="101.058" width="79.2854" height="30.8227" filterUnits="userSpaceOnUse" color-interpolation-filters="sRGB">
<feFlood flood-opacity="0" result="BackgroundImageFix"/>
<feColorMatrix in="SourceAlpha" type="matrix" values="0 0 0 0 0 0 0 0 0 0 0 0 0 0 0 0 0 0 127 0" result="hardAlpha"/>
<feOffset dy="0.62902"/>
<feGaussianBlur stdDeviation="0.62902"/>
<feComposite in2="hardAlpha" operator="out"/>
<feColorMatrix type="matrix" values="0 0 0 0 0.223529 0 0 0 0 0.345098 0 0 0 0 0.67451 0 0 0 0.1 0"/>
<feBlend mode="normal" in2="BackgroundImageFix" result="effect1_dropShadow_10949_57214"/>
<feBlend mode="normal" in="SourceGraphic" in2="effect1_dropShadow_10949_57214" result="shape"/>
</filter>
<clipPath id="clip0_10949_57214">
<rect width="150.65" height="136.768" fill="white"/>
</clipPath>
<clipPath id="clip1_10949_57214">
<path d="M0 18.0645H197.428V32.9024H0V18.0645Z" fill="white"/>
</clipPath>
<clipPath id="clip2_10949_57214">
<path d="M0 32.9023H197.428V47.7403H0V32.9023Z" fill="white"/>
</clipPath>
<clipPath id="clip3_10949_57214">
<path d="M0 47.7402H197.428V62.5782H0V47.7402Z" fill="white"/>
</clipPath>
<clipPath id="clip4_10949_57214">
<path d="M0 62.5781H197.428V77.4161H0V62.5781Z" fill="white"/>
</clipPath>
<clipPath id="clip5_10949_57214">
<path d="M0 77.416H197.428V92.254H0V77.416Z" fill="white"/>
</clipPath>
<clipPath id="clip6_10949_57214">
<path d="M0 92.2539H197.428V107.092H0V92.2539Z" fill="white"/>
</clipPath>
<clipPath id="clip7_10949_57214">
<path d="M0 107.092H197.428V121.93H0V107.092Z" fill="white"/>
</clipPath>
<clipPath id="clip8_10949_57214">
<path d="M0 121.93H197.428V136.768H0V121.93Z" fill="white"/>
</clipPath>
<clipPath id="clip9_10949_57214">
<rect x="150.65" width="89.3497" height="136.284" fill="white"/>
</clipPath>
<clipPath id="clip10_10949_57214">
<rect width="89.3497" height="63.8455" fill="white" transform="translate(150.65 17.6484)"/>
</clipPath>
<clipPath id="clip11_10949_57214">
<rect width="15.0965" height="15.0965" fill="white" transform="translate(157.473 35.4785)"/>
</clipPath>
<clipPath id="clip12_10949_57214">
<rect width="76.7693" height="8.82466" fill="white" transform="translate(156.94 89.0879)"/>
</clipPath>
<clipPath id="clip13_10949_57214">
<rect width="76.1403" height="12.5804" fill="white" transform="translate(157.255 117.098)"/>
</clipPath>
</defs>
</svg>
