<svg width="250" height="63" viewBox="0 0 250 63" fill="none" xmlns="http://www.w3.org/2000/svg">
<g filter="url(#filter0_dd_9517_205331)">
<path d="M5 2H245V53.2H5V2Z" fill="#121D39"/>
<path d="M244.6 2.40039V52.7998H5.40039V2.40039H244.6Z" stroke="#3958AC" stroke-width="0.8"/>
<path d="M21.8003 16H228.2C229.746 16 231 17.2534 231 18.7998V36.3994C231 37.9458 229.746 39.1992 228.2 39.1992H21.8003C20.2539 39.1992 19.0005 37.9458 19.0005 36.3994V18.7998C19.0005 17.2534 20.2539 16 21.8003 16Z" fill="#19274C"/>
<path d="M21.8003 16H228.2C229.746 16 231 17.2534 231 18.7998V36.3994C231 37.9458 229.746 39.1992 228.2 39.1992H21.8003C20.2539 39.1992 19.0005 37.9458 19.0005 36.3994V18.7998C19.0005 17.2534 20.2539 16 21.8003 16Z" stroke="#3958AC" stroke-width="0.8"/>
<path d="M31.1275 33.2H28.4728C28.2185 33.2 28.0123 33.021 28.0123 32.8C28.0123 32.579 28.2185 32.4 28.4728 32.4H29.3398V31.2592C27.6003 31.1435 26.731 30.376 26.303 29.7243C25.8058 28.9668 25.8 28.2098 25.8 28.178C25.8 27.957 26.0063 27.778 26.2605 27.778C26.5148 27.778 26.72 27.9563 26.721 28.1765C26.721 28.19 26.7338 28.7823 27.12 29.3535C27.6228 30.0973 28.5245 30.4745 29.8003 30.4745C31.076 30.4745 31.9778 30.0975 32.4805 29.3535C32.869 28.7788 32.8793 28.1825 32.8795 28.1765C32.8795 27.9555 33.0858 27.7772 33.34 27.7772C33.5943 27.7772 33.8005 27.9573 33.8005 28.178C33.8005 28.2098 33.7948 28.9668 33.2975 29.7243C32.8695 30.3763 32.0003 31.1435 30.2608 31.2592V32.4H31.1278C31.382 32.4 31.5883 32.579 31.5883 32.8C31.5883 33.021 31.382 33.2 31.1278 33.2H31.1275ZM29.8003 29.7332C28.9033 29.7332 28.207 29.381 27.8398 28.7415C27.5778 28.2853 27.57 27.8415 27.57 27.7925V23.9408C27.57 23.8917 27.5775 23.4482 27.8398 22.9917C28.207 22.3522 28.9033 22 29.8003 22C30.6973 22 31.3935 22.3522 31.7608 22.9917C32.0228 23.448 32.0305 23.8917 32.0305 23.9408V27.7925C32.0305 27.8415 32.023 28.285 31.7608 28.7415C31.3935 29.381 30.6973 29.7332 29.8003 29.7332ZM29.8003 22.8C29.2575 22.8 28.8895 22.973 28.6755 23.329C28.4973 23.6253 28.491 23.94 28.491 23.9433V27.7927C28.491 27.7927 28.4973 28.1082 28.6755 28.4045C28.8895 28.7605 29.2575 28.9335 29.8003 28.9335C30.343 28.9335 30.711 28.7605 30.925 28.4045C31.1033 28.1082 31.1095 27.7935 31.1095 27.7902V23.9408C31.1095 23.9408 31.1033 23.6253 30.925 23.329C30.711 22.973 30.343 22.8 29.8003 22.8Z" fill="#90ABDA"/>
<rect width="0.8" height="12.8" transform="translate(41.0002 21.1992)" fill="#3958AC"/>
<rect x="51.4001" y="25.1992" width="65.6" height="4.8" rx="2.4" fill="#6581CD"/>
<path d="M225.545 27.9977L215.158 32.3691C214.83 32.5075 214.502 32.1681 214.628 31.82L215.835 28.4848C215.889 28.3357 216.018 28.2306 216.168 28.2123C221.612 27.6008 219.796 27.7968 221.612 27.6008C219.796 27.4048 221.612 27.6008 216.168 26.9892C216.018 26.9709 215.889 26.8659 215.835 26.7167L214.628 23.3816C214.502 23.0335 214.83 22.6941 215.158 22.8324L225.545 27.2038C225.885 27.3472 225.885 27.8544 225.545 27.9977Z" fill="#90ABDA"/>
</g>
<defs>
<filter id="filter0_dd_9517_205331" x="0" y="0" width="250" height="62.1992" filterUnits="userSpaceOnUse" color-interpolation-filters="sRGB">
<feFlood flood-opacity="0" result="BackgroundImageFix"/>
<feColorMatrix in="SourceAlpha" type="matrix" values="0 0 0 0 0 0 0 0 0 0 0 0 0 0 0 0 0 0 127 0" result="hardAlpha"/>
<feOffset dy="4"/>
<feGaussianBlur stdDeviation="2.5"/>
<feColorMatrix type="matrix" values="0 0 0 0 0.239216 0 0 0 0 0.341176 0 0 0 0 0.847059 0 0 0 0.04 0"/>
<feBlend mode="normal" in2="BackgroundImageFix" result="effect1_dropShadow_9517_205331"/>
<feColorMatrix in="SourceAlpha" type="matrix" values="0 0 0 0 0 0 0 0 0 0 0 0 0 0 0 0 0 0 127 0" result="hardAlpha"/>
<feOffset dy="2"/>
<feGaussianBlur stdDeviation="2"/>
<feColorMatrix type="matrix" values="0 0 0 0 0.239216 0 0 0 0 0.341176 0 0 0 0 0.847059 0 0 0 0.03 0"/>
<feBlend mode="normal" in2="effect1_dropShadow_9517_205331" result="effect2_dropShadow_9517_205331"/>
<feBlend mode="normal" in="SourceGraphic" in2="effect2_dropShadow_9517_205331" result="shape"/>
</filter>
</defs>
</svg>
