<svg width="170" height="46" viewBox="0 0 170 46" fill="none" xmlns="http://www.w3.org/2000/svg">
<g filter="url(#filter0_dd_9517_207636)">
<path d="M5 2H165V36.1333H5V2Z" fill="#121D39"/>
<path d="M164.733 2.2666V35.8662H5.2666V2.2666H164.733Z" stroke="#3958AC" stroke-width="0.533333"/>
<path d="M16.2004 11.333H153.8C154.831 11.333 155.666 12.1693 155.666 13.2002V24.9326C155.666 25.9635 154.831 26.7998 153.8 26.7998H16.2004C15.1695 26.7998 14.3333 25.9635 14.3333 24.9326V13.2002C14.3333 12.1693 15.1695 11.333 16.2004 11.333Z" fill="#19274C"/>
<path d="M16.2004 11.333H153.8C154.831 11.333 155.666 12.1693 155.666 13.2002V24.9326C155.666 25.9635 154.831 26.7998 153.8 26.7998H16.2004C15.1695 26.7998 14.3333 25.9635 14.3333 24.9326V13.2002C14.3333 12.1693 15.1695 11.333 16.2004 11.333Z" stroke="#3958AC" stroke-width="0.533333"/>
<path d="M22.4181 22.7987H20.6483C20.4788 22.7987 20.3413 22.6794 20.3413 22.532C20.3413 22.3847 20.4788 22.2654 20.6483 22.2654H21.2263V21.5049C20.0666 21.4277 19.4871 20.916 19.2018 20.4815C18.8703 19.9765 18.8665 19.4719 18.8665 19.4507C18.8665 19.3034 19.004 19.184 19.1735 19.184C19.343 19.184 19.4798 19.3029 19.4805 19.4497C19.4805 19.4587 19.489 19.8535 19.7465 20.2344C20.0816 20.7302 20.6828 20.9817 21.5333 20.9817C22.3838 20.9817 22.985 20.7304 23.3201 20.2344C23.5791 19.8512 23.586 19.4537 23.5861 19.4497C23.5861 19.3024 23.7236 19.1835 23.8931 19.1835C24.0626 19.1835 24.2001 19.3035 24.2001 19.4507C24.2001 19.4719 24.1963 19.9765 23.8648 20.4815C23.5795 20.9162 23 21.4277 21.8403 21.5049V22.2654H22.4183C22.5878 22.2654 22.7253 22.3847 22.7253 22.532C22.7253 22.6794 22.5878 22.7987 22.4183 22.7987H22.4181ZM21.5333 20.4875C20.9353 20.4875 20.4711 20.2527 20.2263 19.8264C20.0516 19.5222 20.0465 19.2264 20.0465 19.1937V16.6259C20.0465 16.5932 20.0515 16.2975 20.2263 15.9932C20.4711 15.5669 20.9353 15.332 21.5333 15.332C22.1313 15.332 22.5955 15.5669 22.8403 15.9932C23.015 16.2974 23.0201 16.5932 23.0201 16.6259V19.1937C23.0201 19.2264 23.0151 19.522 22.8403 19.8264C22.5955 20.2527 22.1313 20.4875 21.5333 20.4875ZM21.5333 15.8654C21.1715 15.8654 20.9261 15.9807 20.7835 16.218C20.6646 16.4155 20.6605 16.6254 20.6605 16.6275V19.1939C20.6605 19.1939 20.6646 19.4042 20.7835 19.6017C20.9261 19.839 21.1715 19.9544 21.5333 19.9544C21.8951 19.9544 22.1405 19.839 22.2831 19.6017C22.402 19.4042 22.4061 19.1944 22.4061 19.1922V16.6259C22.4061 16.6259 22.402 16.4155 22.2831 16.218C22.1405 15.9807 21.8951 15.8654 21.5333 15.8654Z" fill="#90ABDA"/>
<rect width="0.533333" height="8.53333" transform="translate(29 14.7988)" fill="#3958AC"/>
<rect x="35.9333" y="17.4648" width="43.7333" height="3.2" rx="1.6" fill="#6581CD"/>
<path d="M152.03 19.3299L145.106 22.2441C144.886 22.3364 144.668 22.1101 144.752 21.878L145.557 19.6546C145.593 19.5552 145.678 19.4851 145.779 19.4729C149.408 19.0652 148.198 19.1959 149.408 19.0652C148.198 18.9346 149.408 19.0652 145.779 18.6575C145.678 18.6453 145.593 18.5753 145.557 18.4759L144.752 16.2524C144.668 16.0204 144.886 15.7941 145.106 15.8863L152.03 18.8006C152.257 18.8961 152.257 19.2343 152.03 19.3299Z" fill="#90ABDA"/>
</g>
<defs>
<filter id="filter0_dd_9517_207636" x="0" y="0" width="170" height="45.1328" filterUnits="userSpaceOnUse" color-interpolation-filters="sRGB">
<feFlood flood-opacity="0" result="BackgroundImageFix"/>
<feColorMatrix in="SourceAlpha" type="matrix" values="0 0 0 0 0 0 0 0 0 0 0 0 0 0 0 0 0 0 127 0" result="hardAlpha"/>
<feOffset dy="4"/>
<feGaussianBlur stdDeviation="2.5"/>
<feColorMatrix type="matrix" values="0 0 0 0 0.239216 0 0 0 0 0.341176 0 0 0 0 0.847059 0 0 0 0.04 0"/>
<feBlend mode="normal" in2="BackgroundImageFix" result="effect1_dropShadow_9517_207636"/>
<feColorMatrix in="SourceAlpha" type="matrix" values="0 0 0 0 0 0 0 0 0 0 0 0 0 0 0 0 0 0 127 0" result="hardAlpha"/>
<feOffset dy="2"/>
<feGaussianBlur stdDeviation="2"/>
<feColorMatrix type="matrix" values="0 0 0 0 0.239216 0 0 0 0 0.341176 0 0 0 0 0.847059 0 0 0 0.03 0"/>
<feBlend mode="normal" in2="effect1_dropShadow_9517_207636" result="effect2_dropShadow_9517_207636"/>
<feBlend mode="normal" in="SourceGraphic" in2="effect2_dropShadow_9517_207636" result="shape"/>
</filter>
</defs>
</svg>
