<svg width="166" height="40" viewBox="0 0 166 40" fill="none" xmlns="http://www.w3.org/2000/svg">
<g filter="url(#filter0_dd_9517_207071)">
<path d="M2.66669 1.06641H162.667V35.1997H2.66669V1.06641Z" fill="white"/>
<path d="M162.4 1.33301V34.9326H2.93329V1.33301H162.4Z" stroke="#C2D1EB" stroke-width="0.533333"/>
<path d="M13.8671 10.3994H151.467C152.498 10.3994 153.333 11.2357 153.333 12.2666V23.999C153.333 25.0299 152.498 25.8662 151.467 25.8662H13.8671C12.8362 25.8662 11.9999 25.03 11.9999 23.999V12.2666C11.9999 11.2357 12.8362 10.3994 13.8671 10.3994Z" fill="white"/>
<path d="M13.8671 10.3994H151.467C152.498 10.3994 153.333 11.2357 153.333 12.2666V23.999C153.333 25.0299 152.498 25.8662 151.467 25.8662H13.8671C12.8362 25.8662 11.9999 25.03 11.9999 23.999V12.2666C11.9999 11.2357 12.8362 10.3994 13.8671 10.3994Z" stroke="#C2D1EB" stroke-width="0.533333"/>
<path d="M20.0849 21.8651H18.315C18.1455 21.8651 18.008 21.7458 18.008 21.5984C18.008 21.4511 18.1455 21.3318 18.315 21.3318H18.893V20.5713C17.7334 20.4941 17.1539 19.9824 16.8685 19.5479C16.537 19.0429 16.5332 18.5383 16.5332 18.5171C16.5332 18.3698 16.6707 18.2504 16.8402 18.2504C17.0097 18.2504 17.1465 18.3693 17.1472 18.5161C17.1472 18.5251 17.1557 18.9199 17.4132 19.3008C17.7484 19.7966 18.3495 20.0481 19.2 20.0481C20.0505 20.0481 20.6517 19.7968 20.9869 19.3008C21.2459 18.9176 21.2527 18.5201 21.2529 18.5161C21.2529 18.3688 21.3904 18.2499 21.5599 18.2499C21.7294 18.2499 21.8669 18.3699 21.8669 18.5171C21.8669 18.5383 21.863 19.0429 21.5315 19.5479C21.2462 19.9826 20.6667 20.4941 19.507 20.5713V21.3318H20.085C20.2545 21.3318 20.392 21.4511 20.392 21.5984C20.392 21.7458 20.2545 21.8651 20.085 21.8651H20.0849ZM19.2 19.5539C18.602 19.5539 18.1379 19.3191 17.893 18.8928C17.7184 18.5886 17.7132 18.2928 17.7132 18.2601V15.6923C17.7132 15.6596 17.7182 15.3639 17.893 15.0596C18.1379 14.6333 18.602 14.3984 19.2 14.3984C19.798 14.3984 20.2622 14.6333 20.507 15.0596C20.6817 15.3638 20.6869 15.6596 20.6869 15.6923V18.2601C20.6869 18.2928 20.6819 18.5884 20.507 18.8928C20.2622 19.3191 19.798 19.5539 19.2 19.5539ZM19.2 14.9318C18.8382 14.9318 18.5929 15.0471 18.4502 15.2844C18.3314 15.4819 18.3272 15.6918 18.3272 15.6939V18.2603C18.3272 18.2603 18.3314 18.4706 18.4502 18.6681C18.5929 18.9054 18.8382 19.0208 19.2 19.0208C19.5619 19.0208 19.8072 18.9054 19.9499 18.6681C20.0687 18.4706 20.0729 18.2608 20.0729 18.2586V15.6923C20.0729 15.6923 20.0687 15.4819 19.9499 15.2844C19.8072 15.0471 19.5619 14.9318 19.2 14.9318Z" fill="#5473C8"/>
<rect width="0.533333" height="8.53333" transform="translate(26.6667 13.8652)" fill="#C2D1EB"/>
<rect x="33.6" y="16.5312" width="43.7333" height="3.2" rx="1.6" fill="#90ABDA"/>
<path d="M149.696 18.3963L142.772 21.3105C142.553 21.4028 142.334 21.1765 142.418 20.9444L143.223 18.721C143.259 18.6216 143.345 18.5515 143.445 18.5393C147.074 18.1316 145.864 18.2623 147.074 18.1316C145.864 18.001 147.074 18.1316 143.445 17.7239C143.345 17.7117 143.259 17.6417 143.223 17.5423L142.418 15.3189C142.334 15.0868 142.553 14.8605 142.772 14.9527L149.696 17.867C149.923 17.9626 149.923 18.3007 149.696 18.3963Z" fill="#5473C8"/>
</g>
<defs>
<filter id="filter0_dd_9517_207071" x="2.02656e-05" y="-0.000260472" width="165.333" height="39.9995" filterUnits="userSpaceOnUse" color-interpolation-filters="sRGB">
<feFlood flood-opacity="0" result="BackgroundImageFix"/>
<feColorMatrix in="SourceAlpha" type="matrix" values="0 0 0 0 0 0 0 0 0 0 0 0 0 0 0 0 0 0 127 0" result="hardAlpha"/>
<feOffset dy="2.13333"/>
<feGaussianBlur stdDeviation="1.33333"/>
<feColorMatrix type="matrix" values="0 0 0 0 0.239216 0 0 0 0 0.341176 0 0 0 0 0.847059 0 0 0 0.04 0"/>
<feBlend mode="normal" in2="BackgroundImageFix" result="effect1_dropShadow_9517_207071"/>
<feColorMatrix in="SourceAlpha" type="matrix" values="0 0 0 0 0 0 0 0 0 0 0 0 0 0 0 0 0 0 127 0" result="hardAlpha"/>
<feOffset dy="1.06667"/>
<feGaussianBlur stdDeviation="1.06667"/>
<feColorMatrix type="matrix" values="0 0 0 0 0.239216 0 0 0 0 0.341176 0 0 0 0 0.847059 0 0 0 0.03 0"/>
<feBlend mode="normal" in2="effect1_dropShadow_9517_207071" result="effect2_dropShadow_9517_207071"/>
<feBlend mode="normal" in="SourceGraphic" in2="effect2_dropShadow_9517_207071" result="shape"/>
</filter>
</defs>
</svg>
