<svg width="187" height="92" viewBox="0 0 187 92" fill="none" xmlns="http://www.w3.org/2000/svg">
<g filter="url(#filter0_d_10949_57625)">
<path d="M3.20001 11.1996C3.20001 5.89767 7.49808 1.59961 12.8 1.59961H173.6C178.902 1.59961 183.2 5.89768 183.2 11.1996V76.7996C183.2 82.1016 178.902 86.3996 173.6 86.3996H12.8C7.49808 86.3996 3.20001 82.1015 3.20001 76.7996V11.1996Z" fill="white" shape-rendering="crispEdges"/>
<path d="M12.7996 2H173.6C178.681 2.00021 182.799 6.11851 182.8 11.1992V76.7998C182.8 81.8806 178.681 85.9998 173.6 86H12.7996C7.71885 85.9998 3.60051 81.8806 3.6004 76.7998V11.1992C3.60061 6.11851 7.71891 2.00021 12.7996 2Z" stroke="#C2D1EB" stroke-width="0.8" shape-rendering="crispEdges"/>
<rect x="13.6" y="15.2012" width="148" height="4.8" rx="2.4" fill="#5473C8"/>
<rect x="13.6" y="29.5996" width="85.6" height="4.8" rx="2.4" fill="#5473C8"/>
<g clip-path="url(#clip0_10949_57625)">
<path d="M24 54C30.4065 54 35.5996 59.1931 35.5996 65.5996C35.5996 72.0061 30.4065 77.1992 24 77.1992C17.5935 77.1992 12.4004 72.0061 12.4004 65.5996C12.4004 59.1931 17.5935 54 24 54Z" stroke="white" stroke-opacity="0.01" stroke-width="0.8"/>
<g clip-path="url(#clip1_10949_57625)">
<path d="M22.2148 61.0788C23.6296 59.6404 25.9265 59.6404 27.3413 61.0788C28.7526 62.5136 28.7526 64.837 27.3413 66.2718L23.2413 70.4405C22.2459 71.4526 20.629 71.4526 19.6335 70.4405C18.6418 69.4322 18.6419 67.8005 19.6335 66.7921L23.7335 62.6226C24.3095 62.0369 25.2465 62.0371 25.8226 62.6226C26.3951 63.2046 26.3951 64.146 25.8226 64.728L21.7226 68.8968C21.5677 69.0543 21.3145 69.0563 21.157 68.9015C20.9995 68.7466 20.9974 68.4934 21.1523 68.3359L25.2523 64.1671C25.5186 63.8964 25.5186 63.4542 25.2523 63.1835C24.9896 62.9167 24.5664 62.9166 24.3038 63.1835L20.2038 67.353C19.5184 68.0501 19.5183 69.1825 20.2038 69.8796C20.8859 70.573 21.989 70.573 22.671 69.8796L26.771 65.7109C27.876 64.5874 27.876 62.7632 26.771 61.6398C25.6697 60.5201 23.8872 60.5202 22.7859 61.6398L18.6851 65.8085C18.5302 65.966 18.277 65.9681 18.1195 65.8132C17.9621 65.6583 17.9599 65.405 18.1148 65.2476L22.2148 61.0788Z" fill="#5473C8"/>
</g>
<path d="M135.2 54C141.607 54 146.8 59.1931 146.8 65.5996C146.8 72.0061 141.607 77.1992 135.2 77.1992C128.794 77.1992 123.6 72.0061 123.6 65.5996C123.6 59.1931 128.794 54 135.2 54Z" stroke="white" stroke-opacity="0.01" stroke-width="0.8"/>
<path d="M136.127 70.7996H133.472C133.218 70.7996 133.012 70.6206 133.012 70.3996C133.012 70.1786 133.218 69.9996 133.472 69.9996H134.339V68.8589C132.6 68.7431 131.731 67.9756 131.303 67.3239C130.805 66.5664 130.8 65.8094 130.8 65.7776C130.8 65.5566 131.006 65.3776 131.26 65.3776C131.514 65.3776 131.72 65.5559 131.721 65.7761C131.721 65.7896 131.733 66.3819 132.12 66.9531C132.622 67.6969 133.524 68.0741 134.8 68.0741C136.076 68.0741 136.977 67.6971 137.48 66.9531C137.869 66.3784 137.879 65.7821 137.879 65.7761C137.879 65.5551 138.085 65.3769 138.34 65.3769C138.594 65.3769 138.8 65.5569 138.8 65.7776C138.8 65.8094 138.794 66.5664 138.297 67.3239C137.869 67.9759 137 68.7431 135.26 68.8589V69.9996H136.127C136.382 69.9996 136.588 70.1786 136.588 70.3996C136.588 70.6206 136.382 70.7996 136.127 70.7996H136.127ZM134.8 67.3329C133.903 67.3329 133.207 66.9806 132.839 66.3411C132.577 65.8849 132.57 65.4411 132.57 65.3921V61.5404C132.57 61.4914 132.577 61.0479 132.839 60.5914C133.207 59.9519 133.903 59.5996 134.8 59.5996C135.697 59.5996 136.393 59.9519 136.76 60.5914C137.022 61.0476 137.03 61.4914 137.03 61.5404V65.3921C137.03 65.4411 137.023 65.8846 136.76 66.3411C136.393 66.9806 135.697 67.3329 134.8 67.3329ZM134.8 60.3996C134.257 60.3996 133.889 60.5726 133.675 60.9286C133.497 61.2249 133.491 61.5396 133.491 61.5429V65.3924C133.491 65.3924 133.497 65.7079 133.675 66.0041C133.889 66.3601 134.257 66.5331 134.8 66.5331C135.343 66.5331 135.711 66.3601 135.925 66.0041C136.103 65.7079 136.109 65.3931 136.109 65.3899V61.5404C136.109 61.5404 136.103 61.2249 135.925 60.9286C135.711 60.5726 135.343 60.3996 134.8 60.3996Z" fill="#3958AC"/>
<path d="M162.4 54C168.807 54 174 59.1931 174 65.5996C174 72.0061 168.807 77.1992 162.4 77.1992C155.994 77.1992 150.8 72.0061 150.8 65.5996C150.8 59.1931 155.994 54 162.4 54Z" fill="#E4ECF6"/>
<path d="M162.4 54C168.807 54 174 59.1931 174 65.5996C174 72.0061 168.807 77.1992 162.4 77.1992C155.994 77.1992 150.8 72.0061 150.8 65.5996C150.8 59.1931 155.994 54 162.4 54Z" stroke="#E4ECF6" stroke-width="0.8"/>
<path d="M161.109 60.498C161.109 60.2219 161.332 59.998 161.609 59.998C161.885 59.998 162.109 60.2219 162.109 60.498V69.098C162.109 69.3742 161.885 69.598 161.609 69.598C161.332 69.598 161.109 69.3742 161.109 69.098V60.498Z" fill="#3958AC"/>
<path d="M161.282 60.8586C161.087 60.6634 161.087 60.3468 161.282 60.1515C161.477 59.9563 161.794 59.9563 161.989 60.1515L165.242 63.4042C165.437 63.5995 165.437 63.9161 165.242 64.1113C165.047 64.3066 164.73 64.3066 164.535 64.1113L161.282 60.8586Z" fill="#3958AC"/>
<path d="M161.922 60.8587C162.117 60.6634 162.117 60.3469 161.922 60.1516C161.727 59.9563 161.41 59.9563 161.215 60.1516L157.962 63.4043C157.767 63.5996 157.767 63.9161 157.962 64.1114C158.158 64.3067 158.474 64.3067 158.67 64.1114L161.922 60.8587Z" fill="#3958AC"/>
</g>
</g>
<defs>
<filter id="filter0_d_10949_57625" x="1.21593e-05" y="-0.000390649" width="186.4" height="91.2008" filterUnits="userSpaceOnUse" color-interpolation-filters="sRGB">
<feFlood flood-opacity="0" result="BackgroundImageFix"/>
<feColorMatrix in="SourceAlpha" type="matrix" values="0 0 0 0 0 0 0 0 0 0 0 0 0 0 0 0 0 0 127 0" result="hardAlpha"/>
<feOffset dy="1.6"/>
<feGaussianBlur stdDeviation="1.6"/>
<feComposite in2="hardAlpha" operator="out"/>
<feColorMatrix type="matrix" values="0 0 0 0 0.223529 0 0 0 0 0.345098 0 0 0 0 0.67451 0 0 0 0.1 0"/>
<feBlend mode="normal" in2="BackgroundImageFix" result="effect1_dropShadow_10949_57625"/>
<feBlend mode="normal" in="SourceGraphic" in2="effect1_dropShadow_10949_57625" result="shape"/>
</filter>
<clipPath id="clip0_10949_57625">
<rect width="178.4" height="32" fill="white" transform="translate(4 53.5996)"/>
</clipPath>
<clipPath id="clip1_10949_57625">
<rect width="12.8" height="12.8" fill="white" transform="translate(17.6 59.1992)"/>
</clipPath>
</defs>
</svg>
