<svg width="127" height="88" viewBox="0 0 127 88" fill="none" xmlns="http://www.w3.org/2000/svg">
<rect width="126.667" height="87.9397" fill="#19274C"/>
<rect x="8.06787" y="10.8926" width="16.9425" height="2.42036" rx="1.21018" fill="#2A417E"/>
<rect x="8.06787" y="16.1367" width="110.531" height="12.1018" rx="1.61357" fill="#2A417E"/>
<g clip-path="url(#clip0_10963_54214)">
<path d="M18.5561 19.3643L19.2407 21.1002L20.9765 21.7847L19.2407 22.4692L18.5561 24.205L17.8716 22.4692L16.1358 21.7847L17.8716 21.1002L18.5561 19.3643ZM15.7072 23.3731L14.5222 23.8017L15.7072 24.2303L16.1358 25.4152L16.5644 24.2303L17.7494 23.8017L16.5644 23.3731L16.1358 22.1881L15.7072 23.3731ZM15.4122 19.8509L14.5222 20.1711L15.4109 20.4926L15.7324 21.3813L16.0539 20.4926L16.9426 20.1711L16.0539 19.8497L15.7324 18.9609L15.4109 19.8497L15.4122 19.8509Z" fill="#90ABDA"/>
</g>
<rect x="24.2036" y="20.9785" width="35.0952" height="2.42036" rx="1.21018" fill="#6581CD"/>
<rect x="8.06787" y="37.5156" width="16.9425" height="2.42036" rx="1.21018" fill="#2A417E"/>
<rect x="8.06787" y="42.7598" width="110.531" height="12.1018" rx="1.61357" fill="#2A417E"/>
<g clip-path="url(#clip1_10963_54214)">
<path d="M18.5561 45.9874L19.2407 47.7232L20.9765 48.4077L19.2407 49.0922L18.5561 50.8281L17.8716 49.0922L16.1358 48.4077L17.8716 47.7232L18.5561 45.9874ZM15.7072 49.9961L14.5222 50.4247L15.7072 50.8533L16.1358 52.0383L16.5644 50.8533L17.7494 50.4247L16.5644 49.9961L16.1358 48.8111L15.7072 49.9961ZM15.4122 46.474L14.5222 46.7942L15.4109 47.1156L15.7324 48.0043L16.0539 47.1156L16.9426 46.7942L16.0539 46.4727L15.7324 45.584L15.4109 46.4727L15.4122 46.474Z" fill="#90ABDA"/>
</g>
<rect x="24.2036" y="47.6016" width="21.7832" height="2.42036" rx="1.21018" fill="#6581CD"/>
<rect x="82.2935" y="67.7715" width="36.3054" height="12.1018" rx="1.61357" fill="#90ABDA"/>
<path fill-rule="evenodd" clip-rule="evenodd" d="M89.958 70.7969C90.2567 70.7969 90.5165 70.9595 90.6564 71.2003H91.2528L91.0007 71.8396L89.5534 72.4104H88.7478V71.6037H87.941V76.4444H91.9749V74.832L92.3783 73.8081V76.4444C92.3783 76.6675 92.198 76.8478 91.9749 76.8478H87.941C87.7179 76.8478 87.5376 76.6675 87.5376 76.4444V71.6037C87.5376 71.3805 87.7179 71.2003 87.941 71.2003H89.2595C89.3994 70.9595 89.6592 70.7969 89.958 70.7969ZM89.958 71.2003C89.7348 71.2003 89.5546 71.3805 89.5546 71.6037H90.3614C90.3614 71.3805 90.1811 71.2003 89.958 71.2003ZM91.7732 71.2003L92.1725 72.2128L93.1851 72.6121L92.1725 73.0114L91.7732 74.024L91.3739 73.0114L90.3614 72.6121L91.3739 72.2128L91.7732 71.2003Z" fill="#19274C"/>
<rect x="97.6223" y="72.6113" width="16.1357" height="2.42036" rx="1.21018" fill="#19274C"/>
<defs>
<clipPath id="clip0_10963_54214">
<rect width="6.45429" height="6.45429" fill="white" transform="translate(14.5222 18.9609)"/>
</clipPath>
<clipPath id="clip1_10963_54214">
<rect width="6.45429" height="6.45429" fill="white" transform="translate(14.5222 45.584)"/>
</clipPath>
</defs>
</svg>
