<svg width="190" height="132" viewBox="0 0 190 132" fill="none" xmlns="http://www.w3.org/2000/svg">
<rect width="190" height="131.91" fill="#19274C"/>
<rect x="12.1018" y="16.3379" width="25.4138" height="3.63054" rx="1.81527" fill="#2A417E"/>
<rect x="12.1018" y="24.2031" width="165.796" height="18.1527" rx="2.42036" fill="#2A417E"/>
<g clip-path="url(#clip0_10963_54204)">
<path d="M27.8343 29.0445L28.8611 31.6483L31.4649 32.6751L28.8611 33.7018L27.8343 36.3056L26.8076 33.7018L24.2038 32.6751L26.8076 31.6483L27.8343 29.0445ZM23.5609 35.0576L21.7834 35.7005L23.5609 36.3434L24.2038 38.1209L24.8467 36.3434L26.6242 35.7005L24.8467 35.0576L24.2038 33.2802L23.5609 35.0576ZM23.1184 29.7744L21.7834 30.2547L23.1165 30.7369L23.5987 32.07L24.0809 30.7369L25.414 30.2547L24.0809 29.7725L23.5987 28.4395L23.1165 29.7725L23.1184 29.7744Z" fill="#90ABDA"/>
</g>
<rect x="36.3054" y="31.4648" width="52.6428" height="3.63054" rx="1.81527" fill="#6581CD"/>
<rect x="12.1018" y="56.2734" width="25.4138" height="3.63054" rx="1.81527" fill="#2A417E"/>
<rect x="12.1018" y="64.1387" width="165.796" height="18.1527" rx="2.42036" fill="#2A417E"/>
<g clip-path="url(#clip1_10963_54204)">
<path d="M27.8343 68.9801L28.8611 71.5839L31.4649 72.6106L28.8611 73.6374L27.8343 76.2412L26.8076 73.6374L24.2038 72.6106L26.8076 71.5839L27.8343 68.9801ZM23.5609 74.9932L21.7834 75.6361L23.5609 76.279L24.2038 78.0564L24.8467 76.279L26.6242 75.6361L24.8467 74.9932L24.2038 73.2157L23.5609 74.9932ZM23.1184 69.71L21.7834 70.1903L23.1165 70.6725L23.5987 72.0055L24.0809 70.6725L25.414 70.1903L24.0809 69.7081L23.5987 68.375L23.1165 69.7081L23.1184 69.71Z" fill="#90ABDA"/>
</g>
<rect x="36.3054" y="71.4004" width="32.6748" height="3.63054" rx="1.81527" fill="#6581CD"/>
<rect x="123.44" y="101.656" width="54.4581" height="18.1527" rx="2.42036" fill="#90ABDA"/>
<path fill-rule="evenodd" clip-rule="evenodd" d="M134.937 106.195C135.385 106.195 135.774 106.439 135.984 106.8H136.879L136.501 107.759L134.33 108.616H133.121V107.405H131.911V114.667H137.962V112.248L138.567 110.712V114.667C138.567 115.001 138.297 115.272 137.962 115.272H131.911C131.577 115.272 131.306 115.001 131.306 114.667V107.405C131.306 107.071 131.577 106.8 131.911 106.8H133.889C134.099 106.439 134.489 106.195 134.937 106.195ZM134.937 106.8C134.602 106.8 134.332 107.071 134.332 107.405H135.542C135.542 107.071 135.271 106.8 134.937 106.8ZM137.66 106.8L138.259 108.319L139.777 108.918L138.259 109.517L137.66 111.036L137.061 109.517L135.542 108.918L137.061 108.319L137.66 106.8Z" fill="#19274C"/>
<rect x="146.434" y="108.918" width="24.2036" height="3.63054" rx="1.81527" fill="#19274C"/>
<defs>
<clipPath id="clip0_10963_54204">
<rect width="9.68144" height="9.68144" fill="white" transform="translate(21.7834 28.4395)"/>
</clipPath>
<clipPath id="clip1_10963_54204">
<rect width="9.68144" height="9.68144" fill="white" transform="translate(21.7834 68.375)"/>
</clipPath>
</defs>
</svg>
