<svg xmlns="http://www.w3.org/2000/svg" xmlns:xlink="http://www.w3.org/1999/xlink" width="100" height="100" viewBox="0 0 100 100"><defs><style>.a{fill:#a3d8f1;}.b{fill:none;}.c{fill:#e3f6ff;}.d{fill:#e26841;}.e{clip-path:url(#a);}.f{clip-path:url(#b);}.g{fill:#31475c;}.h{fill:#14254c;}.i{clip-path:url(#d);}.j{fill:#e9ac6a;}.k{fill:#dc7f1b;}.l{fill:#fff;}.m{fill:#231f20;}</style><clipPath id="a"><ellipse class="a" cx="50" cy="50" rx="50" ry="50"/></clipPath><clipPath id="b"><path class="b" d="M0,50.955A50.939,50.939,0,0,0,50.924,101.91h0a50.939,50.939,0,0,0,50.923-50.955h0A50.939,50.939,0,0,0,50.924,0h0A50.939,50.939,0,0,0,0,50.955Z"/></clipPath><clipPath id="d"><path class="b" d="M0,18.921A18.916,18.916,0,0,0,18.909,37.843h0A18.916,18.916,0,0,0,37.82,18.921h0A18.915,18.915,0,0,0,18.909,0h0A18.915,18.915,0,0,0,0,18.921Z" transform="translate(0 0)"/></clipPath></defs><g transform="translate(-1317.851 -3008)"><ellipse class="c" cx="50" cy="50" rx="50" ry="50" transform="translate(1317.851 3008)"/><g transform="translate(1317.851 3008)"><g transform="translate(49.253 0.018)"><path class="d" d="M0,15.567l17.853,1.145a9.365,9.365,0,0,0,9.165-5.566,9.364,9.364,0,0,1,11.537-5.1l9.159,3.066.664-5.393L36.1.338A9.363,9.363,0,0,0,24.884,5.976L24.25,7.607a9.369,9.369,0,0,1-7.583,5.9Z" transform="translate(1.923 13.231)"/><path class="d" d="M0,26.717l14.348-4.934a9.369,9.369,0,0,0,5.826-5.855l1.342-3.966A9.363,9.363,0,0,1,30.684,5.6l11.281.361L42.292,0,27,.315A9.365,9.365,0,0,0,18.061,7.6l-1.293,5.664a9.371,9.371,0,0,1-4.3,5.938Z" transform="translate(3.37 4.528)"/></g><g class="e"><g transform="translate(-1.474 -0.26)"><g transform="translate(0 1.013)"><g transform="translate(0 0)"><path class="b" d="M0,50.955A50.939,50.939,0,0,0,50.924,101.91h0a50.939,50.939,0,0,0,50.923-50.955h0A50.939,50.939,0,0,0,50.924,0h0A50.939,50.939,0,0,0,0,50.955Z"/><g class="f"><path class="d" d="M53.127,97.241,9.084,102.51.389,35.719a30.862,30.862,0,1,1,60.956,0Z" transform="translate(21.036 65.003)"/></g></g><g transform="translate(47.355 51.111)"><path class="g" d="M0,24.91,22.979,45.029,43.564,34.011l-15.6-12.488a9.465,9.465,0,0,1-3.548-7.388V0H0Z" transform="translate(0 0)"/></g><g transform="translate(1.013 0)"><path class="b" d="M0,50.955A50.939,50.939,0,0,0,50.924,101.91h0a50.939,50.939,0,0,0,50.923-50.955h0A50.939,50.939,0,0,0,50.924,0h0A50.939,50.939,0,0,0,0,50.955Z" transform="translate(0)"/><g class="f" transform="translate(0)"><path class="g" d="M43.564,24.91,20.586,45.029,0,34.011,15.6,21.523a9.465,9.465,0,0,0,3.548-7.388V0H43.564Z" transform="translate(9.958 51.111)"/></g></g><g transform="translate(29.881 18.059)"><path class="h" d="M32.553,0H23.936A23.943,23.943,0,0,0,0,23.951V48.382a9.578,9.578,0,0,0,9.574,9.58H32.553a9.577,9.577,0,0,0,9.574-9.58V9.58A9.577,9.577,0,0,0,32.553,0" transform="translate(0 0)"/></g><g transform="translate(32.035 31.471)"><path class="g" d="M37.82,18.921A18.91,18.91,0,1,1,18.909,0,18.916,18.916,0,0,1,37.82,18.921" transform="translate(0 0)"/></g></g><g transform="translate(32.035 32.484)"><path class="b" d="M0,18.921A18.916,18.916,0,0,0,18.909,37.843h0A18.916,18.916,0,0,0,37.82,18.921h0A18.915,18.915,0,0,0,18.909,0h0A18.915,18.915,0,0,0,0,18.921Z" transform="translate(0 0)"/><g class="i" transform="translate(0 0)"><path class="j" d="M0,50.768V16.509A16.5,16.5,0,0,1,16.5,0h0A16.5,16.5,0,0,1,33,16.509V53.44Z" transform="translate(2.41 -6.759)"/></g></g><g transform="translate(0 0)"><path class="b" d="M0,50.955A50.939,50.939,0,0,0,50.924,101.91h0a50.939,50.939,0,0,0,50.923-50.955h0A50.939,50.939,0,0,0,50.924,0h0A50.939,50.939,0,0,0,0,50.955Z"/><g class="f"><path class="k" d="M0,14.85H8.617V0Z" transform="translate(43.046 41.106)"/></g><g transform="translate(52.094 56.414)"><path class="l" d="M0,6.246A10.76,10.76,0,0,0,6.289,4.671,10.791,10.791,0,0,0,9.961,1L8.327,0A8.916,8.916,0,0,1,5.3,3.033a8.907,8.907,0,0,1-5.2,1.3Z" transform="translate(0 0)"/></g><g transform="translate(59.602 42.561)"><path class="m" d="M3.551,1.657H0A1.657,1.657,0,0,1,1.656,0h.238A1.657,1.657,0,0,1,3.551,1.657" transform="translate(0 0)"/></g><g transform="translate(38.538 42.561)"><path class="m" d="M3.55,1.657H0A1.657,1.657,0,0,1,1.656,0h.237A1.657,1.657,0,0,1,3.55,1.657" transform="translate(0 0)"/></g><g transform="translate(32.035 37.609)"><path class="h" d="M0,2.5H39.256V0H0Z" transform="translate(0 0)"/></g><g transform="translate(32.035 46.197)"><path class="h" d="M0,2.5H39.256V0H0Z" transform="translate(0 0)"/></g><g transform="translate(32.035 63.594)"><path class="h" d="M0,2.5H36.862V0H0Z" transform="translate(0 0)"/></g><g transform="translate(32.035 55.006)"><path class="h" d="M0,2.5H39.256V0H0Z" transform="translate(0 0)"/></g></g></g></g></g></g></svg>