<?xml version="1.0" encoding="UTF-8"?>
<svg id="Layer_2" data-name="Layer 2" xmlns="http://www.w3.org/2000/svg" viewBox="0 0 176.3 250.2" height="150px" width="106px">
  <defs>
    <style>
      .cls-1, .cls-2, .cls-3, .cls-4, .cls-5 {
        fill-rule: evenodd;
      }

      .cls-1, .cls-2, .cls-3, .cls-4, .cls-5, .cls-6, .cls-7, .cls-8, .cls-9, .cls-10 {
        stroke-width: 0px;
      }

      .cls-1, .cls-8 {
        fill: #14254c;
      }

      .cls-2 {
        fill: #31475c;
      }

      .cls-3 {
        fill: #e26841;
      }

      .cls-4, .cls-9 {
        fill: #F27043;
      }

      .cls-5 {
        fill: #e9ac6a;
      }

      .cls-11 {
        fill: none;
        stroke: #14254c;
        stroke-linecap: round;
        stroke-miterlimit: 10;
        stroke-width: 20.4px;
      }

      .cls-7 {
        fill: #4f5d6c;
      }

      .cls-10 {
        fill: #eef5ff;
      }
    </style>
  </defs>
  <g id="Content">
    <g>
      <path id="Path_10753" data-name="Path 10753" class="cls-6" d="m0,246.1l2.3-29.5c0-.8.5-1.4,1.1-1.8l69.8-43.5c.3-.2.6-.3.9-.3l18.2-2.5c1.3-.2,2.5.7,2.7,2,0,0,0,.2,0,.3l.5,19.9c0,.2,0,.3,0,.5l-11,56.6c-.2,1.1-1.2,2-2.4,1.9l-79.7-1c-1.3,0-2.4-1.1-2.4-2.4,0,0,0-.1,0-.2Z"/>
      <path id="Path_10754" data-name="Path 10754" class="cls-6" d="m89.4,247.7l4.9-78.1c0-1.2,1-2.1,2.2-2.2l23.9-1.8c.7,0,1.4.2,1.9.7l48.1,48.1c.4.4.6.9.7,1.4l4.2,31.3c.2,1.3-.7,2.5-2.1,2.7-.1,0-.2,0-.3,0l-81,.5c-1.3,0-2.4-1.1-2.4-2.4,0,0,0-.1,0-.2Z"/>
      <g id="Group_7844" data-name="Group 7844">
        <path id="Path_10755" data-name="Path 10755" class="cls-8" d="m157.5,194.9l-21.1,19.1c-.8.7-2.1.7-2.8-.1,0,0-.1-.1-.2-.2l-29.6-44.3c-.6-.9-.4-2.2.5-2.8.2-.1.3-.2.5-.2l15.3-4.8c.7-.2,1.4,0,1.9.4l35.5,30c.8.7,1,2,.2,2.8,0,0-.1.1-.2.2Z"/>
        <path id="Path_10756" data-name="Path 10756" class="cls-8" d="m48.4,207.1l-15.4-10.5c-.9-.6-1.1-1.9-.5-2.8.1-.2.3-.3.5-.5l37.1-27.6c.6-.5,1.4-.5,2.1-.2l12.7,6.7c1,.5,1.3,1.7.8,2.7-.1.2-.2.4-.4.5l-34.4,31.4c-.7.6-1.7.7-2.5.2Z"/>
        <path id="Path_10757" data-name="Path 10757" class="cls-8" d="m56.6,210.7l24.3-39.6,30.9-2c1,0,1.8.6,2.1,1.5l11.5,48.9-68.8-8.8Z"/>
      </g>
      <path id="Path_10758" data-name="Path 10758" class="cls-11" d="m107.1,71.1c29.3,9.1,47.6,25.5,50.6,53.4,2.5,22.6-12.5,39.6-16.9,44.2"/>
      <g id="Group_7845" data-name="Group 7845">
        <path id="Path_10759" data-name="Path 10759" class="cls-9" d="m108.1,178.9l24.9-30.8,26.1,27.1-41.5,19.3-9.5-15.6Z"/>
        <path id="Path_10760" data-name="Path 10760" class="cls-9" d="m109,183.1l-4.4-8.5c-1.6-3.1-5.2-5.4-9.2-5.8l-13-1.4c-1.7-.2-2.8,1.2-2.1,2.5l.7,1.2c.3.4.7.8,1.2,1l26.9,11.1Z"/>
        <path id="Path_10761" data-name="Path 10761" class="cls-9" d="m74.8,186.7l.3-11.6c0-3.4,4.1-5.6,8.1-4.4l22.9,6.8-2.7,15.1h-21.6c-3.8,0-7.1-2.8-7-6Z"/>
      </g>
      <path id="Path_10985" data-name="Path 10985" class="cls-11" d="m84.2,75.3c-31.9,6.5-46.2,31.6-49.3,51.3-4.3,27.2,3,54.7,14.1,68.7"/>
      <path id="Path_10986" data-name="Path 10986" class="cls-9" d="m124.3,174.8l-53.4,5.6-10.6-71c-3.6-19.9,14-38,37-38h0c23,0,40.6,18,37,38l-10,65.4Z"/>
      <path id="Path_10987" data-name="Path 10987" class="cls-8" d="m65.1,157.3l62.7-6.6-2.6,22.2c-1.9,15.9-16.3,27.3-32.2,25.4-12.9-1.5-23.3-11.5-25.3-24.3l-2.6-16.7Z"/>
      <path id="Path_10988" data-name="Path 10988" class="cls-6" d="m72,65.4l-20.3,20.3,17.4,7,21.5-22.1v-27.9h-18.6v22.7Z"/>
      <g id="Group_7899" data-name="Group 7899">
        <path id="Path_10989" data-name="Path 10989" class="cls-6" d="m84.2,65.4l27.9,24.4,33.7-13.4-18.9-15.1c-2.7-2.2-4.3-5.5-4.3-9v-17.1h-38.3v30.2Z"/>
      </g>
      <g id="Group_7903" data-name="Group 7903">
        <g id="Group_7901" data-name="Group 7901">
          <path id="Fill-7" class="cls-4" d="m112.9,31.4c10.2-5.3,15.5-11.4,18.5-16.2,3.4-5.6,4.6-10.7,9.9-12.9,3.3-1.4,5.3-.5,12-.6,4.9,0,9.7-.6,14.4-1.7l.9,7.2c-4.2,1.4-8.7,2-13.1,1.7-5.7-.4-8-2-11.4-.8-4.6,1.6-5.6,6.4-8.3,10.6-3.1,4.7-9.3,10.1-22.9,12.6Z"/>
          <path id="Fill-7-2" class="cls-4" d="m112.3,31.1c11.5-.4,18.9-3.7,23.6-6.8,5.1-3.3,8.1-6.7,14.4-7.5,4.6-.6,6.7.8,12.3.3,4.2-.4,8.4-1.6,12.1-3.6l1.5,7.8c-3.7,1.5-7.6,2.4-11.6,2.7-6.5.3-9.1-1.4-14.4-.6-5.6.9-8,3.5-12.1,6.1-4.8,3-12.7,5.2-26.1,1.7Z"/>
          <path id="Fill-12" class="cls-1" d="m110.8,19.6h-10.5c-16.1,0-29.2,13.1-29.2,29.2h0v22.9c0,10.2,8.3,18.5,18.5,18.5h14.3c10.2,0,18.5-8.3,18.5-18.5V31.2c0-6.4-5.2-11.6-11.6-11.6"/>
          <path id="Fill-14" class="cls-2" d="m119.7,63.7c0,12.7-10.3,23.1-23.1,23.1-12.7,0-23.1-10.3-23.1-23.1,0-12.7,10.3-23.1,23.1-23.1h0c12.7,0,23,10.3,23.1,23,0,0,0,0,0,0"/>
          <path id="Path_10990" data-name="Path 10990" class="cls-5" d="m116.7,52.4c0,0,0-.2,0-.2-6.3-11-20.4-14.9-31.4-8.5-3.6,2.1-6.6,5-8.6,8.6,0,0,0,0,0,.1v22.6c6.3,11.1,20.3,15,31.4,8.7,3.6-2,6.6-5,8.7-8.6v-22.7Z"/>
          <path id="Fill-20" class="cls-3" d="m87.1,67.6h10.5v-18.1l-10.5,18.1Z"/>
          <g id="Group_7900" data-name="Group 7900">
            <path id="Stroke-28" class="cls-8" d="m73.6,49.4h47.9v-2.3h-47.9v2.3Z"/>
            <path id="Stroke-30" class="cls-8" d="m73.6,59.8h47.9v-2.3h-47.9v2.3Z"/>
            <path id="Stroke-32" class="cls-8" d="m73.6,80.8h45v-2.5h-45v2.5Z"/>
            <path id="Stroke-34" class="cls-8" d="m73.6,70.3h47.9v-2.5h-47.9v2.5Z"/>
          </g>
        </g>
        <g id="Group_7902" data-name="Group 7902">
          <rect id="Rectangle_18837" data-name="Rectangle 18837" class="cls-10" x="105.8" y="52.1" width="5.8" height="3.5" rx="1.7" ry="1.7"/>
          <rect id="Rectangle_18838" data-name="Rectangle 18838" class="cls-10" x="82.1" y="52.1" width="5.8" height="3.5" rx="1.7" ry="1.7"/>
          <circle id="Ellipse_350" data-name="Ellipse 350" class="cls-6" cx="108.3" cy="55.3" r="1.8"/>
          <circle id="Ellipse_351" data-name="Ellipse 351" class="cls-6" cx="84.9" cy="55.3" r="1.8"/>
        </g>
      </g>
      <g id="Group_3103" data-name="Group 3103">
        <g id="Group_3102" data-name="Group 3102">
          <rect id="Rectangle_2129" data-name="Rectangle 2129" class="cls-7" x="17" y="119.1" width="109.7" height="79.4"/>
          <rect id="Rectangle_2130" data-name="Rectangle 2130" class="cls-6" x="17" y="196.7" width="109.7" height="7.1"/>
        </g>
        <path id="Path_10991" data-name="Path 10991" class="cls-10" d="m69.9,163.1l-4.9-6.3c-.7-.9-.6-2.3.4-3,.4-.3.8-.5,1.3-.4h10.2c1.2,0,2.2,1,2.2,2.1,0,.5-.2,1-.5,1.4l-5.3,6.3c-.8.9-2.1,1-3,.3-.1,0-.2-.2-.3-.3Z"/>
        <path id="Path_10992" data-name="Path 10992" class="cls-7" d="m71,158.1h0c-.3-.4-.3-1.1.2-1.4.2-.1.4-.2.6-.2h0c.6,0,1,.5,1,1s0,.5-.2.7h0c-.4.4-1,.5-1.4.1,0,0-.1,0-.1-.2Z"/>
      </g>
      <path id="Path_10995" data-name="Path 10995" class="cls-9" d="m51.2,209.4l-12.7.4c-3.3.1-6-2.5-6.1-5.8,0-.6,0-1.2.2-1.8l1.2-4.2c.8-3,3.6-5.1,6.7-5l9.4.2c3.4,0,6.2,2.6,6.6,6l.4,3.5c.4,3.3-1.9,6.2-5.2,6.6-.2,0-.3,0-.5,0Z"/>
    </g>
  </g>
</svg>